<?xml version="1.0" encoding="UTF-8" standalone="no"?>
<svg xmlns:xlink="http://www.w3.org/1999/xlink" height="61.15px" width="33.25px" xmlns="http://www.w3.org/2000/svg">
  <g transform="matrix(1.0, 0.0, 0.0, 1.0, 16.75, 30.15)">
    <path d="M12.25 -20.7 Q16.85 -11.65 16.5 0.95 16.2 13.5 11.2 22.3 6.15 31.2 -0.8 31.0 -7.85 30.75 -12.45 21.55 -17.0 12.55 -16.75 -0.05 -16.55 -12.6 -11.7 -21.45 -6.8 -30.35 0.1 -30.15 7.5 -29.85 12.25 -20.7 M7.05 -13.2 Q5.25 -19.6 1.15 -20.05 -1.15 -20.25 -2.95 -17.75 -5.3 -15.35 -7.05 -8.1 -8.3 -2.3 -8.3 4.35 -8.9 9.35 -8.15 14.1 L-7.45 17.3 Q-5.75 23.25 -1.4 23.65 0.25 23.8 1.55 22.35 4.5 20.0 6.25 12.3 7.65 7.3 8.05 0.35 L8.05 -0.25 Q8.55 -5.25 7.75 -10.0 L7.05 -13.2" fill="#ff4d00" fill-rule="evenodd" stroke="none"/>
    <path d="M7.05 -13.2 L7.75 -10.0 Q8.55 -5.25 8.05 -0.25 L8.05 0.35 Q7.65 7.3 6.25 12.3 4.5 20.0 1.55 22.35 0.25 23.8 -1.4 23.65 -5.75 23.25 -7.45 17.3 L-8.15 14.1 Q-8.9 9.35 -8.3 4.35 -8.3 -2.3 -7.05 -8.1 -5.3 -15.35 -2.95 -17.75 -1.15 -20.25 1.15 -20.05 5.25 -19.6 7.05 -13.2" fill="#ff7400" fill-rule="evenodd" stroke="none"/>
  </g>
</svg>
