<?xml version="1.0" encoding="UTF-8" standalone="no"?>
<svg xmlns:xlink="http://www.w3.org/1999/xlink" height="63.5px" width="40.1px" xmlns="http://www.w3.org/2000/svg">
  <g transform="matrix(1.0, 0.0, 0.0, 1.0, 20.4, 30.45)">
    <path d="M15.5 -19.65 Q20.55 -10.2 19.55 2.85 18.55 15.75 12.4 24.55 6.0 33.65 -2.35 33.0 -11.15 32.25 -16.2 22.3 -21.0 12.9 -20.3 -0.1 -19.6 -13.05 -13.9 -21.9 -7.95 -31.0 0.25 -30.4 10.15 -29.55 15.5 -19.65 M11.6 -14.0 Q9.05 -20.85 3.65 -22.15 0.8 -22.8 -2.0 -21.1 -6.55 -19.7 -10.4 -11.9 -13.4 -5.3 -13.95 3.2 -14.8 9.6 -13.55 15.3 L-12.45 19.15 Q-10.05 25.75 -4.65 26.95 -2.6 27.45 -0.6 26.5 4.75 25.25 8.7 17.05 12.0 11.15 13.1 2.7 L13.2 1.95 Q14.1 -4.45 12.8 -10.15 L11.6 -14.0" fill="#ff4d00" fill-rule="evenodd" stroke="none"/>
    <path d="M11.6 -14.0 L12.8 -10.15 Q14.1 -4.45 13.2 1.95 L13.1 2.7 Q12.0 11.15 8.7 17.05 4.75 25.25 -0.6 26.5 -2.6 27.45 -4.65 26.95 -10.05 25.75 -12.45 19.15 L-13.55 15.3 Q-14.8 9.6 -13.95 3.2 -13.4 -5.3 -10.4 -11.9 -6.55 -19.7 -2.0 -21.1 0.8 -22.8 3.65 -22.15 9.05 -20.85 11.6 -14.0" fill="#ff6a00" fill-rule="evenodd" stroke="none"/>
  </g>
</svg>
