<?xml version="1.0" encoding="UTF-8" standalone="no"?>
<svg xmlns:xlink="http://www.w3.org/1999/xlink" height="64.65px" width="43.55px" xmlns="http://www.w3.org/2000/svg">
  <g transform="matrix(1.0, 0.0, 0.0, 1.0, 22.2, 30.6)">
    <path d="M17.15 -19.1 Q22.4 -9.45 21.05 3.8 19.7 16.85 13.0 25.65 5.9 34.85 -3.15 34.0 -12.8 33.0 -18.05 22.7 -23.0 13.05 -22.05 -0.15 -21.1 -13.25 -15.0 -22.15 -8.5 -31.35 0.35 -30.55 11.5 -29.4 17.15 -19.1 M13.9 -14.4 Q10.95 -21.5 4.9 -23.2 1.75 -24.05 -1.55 -22.8 -7.15 -21.9 -12.1 -13.8 -15.95 -6.8 -16.8 2.6 L-16.8 2.65 Q-17.75 9.7 -16.25 15.9 L-14.95 20.05 Q-12.2 27.0 -6.3 28.6 -4.0 29.25 -1.7 28.55 4.9 27.85 9.9 19.4 14.2 13.1 15.65 3.9 L15.75 3.05 Q16.9 -4.05 15.35 -10.2 14.8 -12.45 13.9 -14.4" fill="#ff4d00" fill-rule="evenodd" stroke="none"/>
    <path d="M13.9 -14.4 Q14.8 -12.45 15.35 -10.2 16.9 -4.05 15.75 3.05 L15.65 3.9 Q14.2 13.1 9.9 19.4 4.9 27.85 -1.7 28.55 -4.0 29.25 -6.3 28.6 -12.2 27.0 -14.95 20.05 L-16.25 15.9 Q-17.75 9.7 -16.8 2.65 L-16.8 2.6 Q-15.95 -6.8 -12.1 -13.8 -7.15 -21.9 -1.55 -22.8 1.75 -24.05 4.9 -23.2 10.95 -21.5 13.9 -14.4" fill="#ff6500" fill-rule="evenodd" stroke="none"/>
  </g>
</svg>
