<?xml version="1.0" encoding="UTF-8" standalone="no"?>
<svg xmlns:xlink="http://www.w3.org/1999/xlink" height="67.05px" width="50.5px" xmlns="http://www.w3.org/2000/svg">
  <g transform="matrix(1.0, 0.0, 0.0, 1.0, 25.9, 30.95)">
    <path d="M20.4 -18.05 Q26.1 -7.95 24.05 5.75 22.05 19.05 14.15 27.9 5.75 37.25 -4.75 35.95 -16.15 34.5 -21.8 23.5 -27.05 13.4 -25.6 -0.25 -24.15 -13.7 -17.2 -22.6 -9.65 -32.0 0.55 -30.8 14.15 -29.15 20.4 -18.05 M18.45 -15.25 Q14.8 -22.75 7.45 -25.3 3.65 -26.55 -0.6 -26.15 -8.4 -26.3 -15.45 -17.55 -21.1 -9.85 -22.45 1.4 L-22.45 1.5 Q-23.65 9.9 -21.7 17.1 -21.0 19.65 -19.9 21.9 -16.45 29.55 -9.55 31.9 -6.85 32.85 -3.85 32.7 5.15 33.05 12.3 24.15 18.6 17.0 20.7 6.25 L20.9 5.3 Q22.5 -3.2 20.4 -10.35 19.65 -12.95 18.45 -15.25" fill="#ff4d00" fill-rule="evenodd" stroke="none"/>
    <path d="M18.45 -15.25 Q19.65 -12.95 20.4 -10.35 22.5 -3.2 20.9 5.3 L20.7 6.25 Q18.6 17.0 12.3 24.15 5.15 33.05 -3.85 32.7 -6.85 32.85 -9.55 31.9 -16.45 29.55 -19.9 21.9 -21.0 19.65 -21.7 17.1 -23.65 9.9 -22.45 1.5 L-22.45 1.4 Q-21.1 -9.85 -15.45 -17.55 -8.4 -26.3 -0.6 -26.15 3.65 -26.55 7.45 -25.3 14.8 -22.75 18.45 -15.25" fill="#ff5c00" fill-rule="evenodd" stroke="none"/>
  </g>
</svg>
