<?xml version="1.0" encoding="UTF-8" standalone="no"?>
<svg xmlns:xlink="http://www.w3.org/1999/xlink" height="41.35px" width="31.75px" xmlns="http://www.w3.org/2000/svg">
  <g transform="matrix(1.0, 0.0, 0.0, 1.0, 15.9, 20.6)">
    <path d="M13.05 -14.7 L13.25 -13.65 14.4 -12.35 Q15.15 -11.4 15.35 -10.15 15.95 -6.0 15.85 -1.8 15.8 1.55 14.2 4.85 15.65 8.25 13.9 11.7 12.8 13.9 12.05 16.3 10.6 21.0 6.15 20.75 L5.8 19.05 5.0 18.75 4.95 17.7 3.9 17.7 Q3.75 10.4 8.05 4.55 6.65 1.55 6.4 -1.65 6.05 -6.65 0.85 -7.95 L0.15 -7.45 2.05 -4.45 Q0.25 0.5 -4.4 2.65 -6.25 3.55 -8.3 3.75 -12.95 3.3 -14.75 -0.9 -16.85 -5.9 -15.15 -11.1 -12.9 -18.1 -5.95 -19.4 L-1.95 -20.15 Q5.05 -21.8 11.15 -17.45 12.65 -16.35 13.05 -14.7 M8.65 -10.65 L12.15 -13.1 Q11.7 -14.75 10.45 -16.1 8.65 -17.95 6.55 -16.6 L4.4 -14.0 Q4.9 -16.9 7.75 -17.9 4.65 -19.65 1.15 -19.35 -1.3 -19.4 -1.7 -17.1 L-1.6 -14.65 -2.25 -18.65 -3.95 -18.6 Q-8.15 -18.35 -11.7 -16.1 L-10.05 -14.7 -4.3 -12.5 Q-8.35 -13.0 -12.0 -15.25 -14.8 -12.5 -14.55 -8.85 L-13.45 -8.1 -6.0 -7.9 -7.25 -7.35 Q-10.8 -6.45 -14.35 -7.5 L-14.6 -5.85 Q-14.95 -2.75 -13.4 0.05 -9.8 3.4 -5.4 1.65 -1.1 -0.15 0.75 -4.45 -1.15 -5.55 -1.1 -7.8 L-0.95 -9.25 -0.55 -9.0 0.8 -10.5 0.9 -9.15 2.6 -9.4 2.5 -8.85 5.2 -7.95 4.7 -7.5 7.55 -4.3 7.65 -4.25 8.55 -3.8 7.8 -3.7 Q7.3 0.1 8.9 3.7 L9.3 4.95 8.25 6.55 Q7.15 8.8 7.65 11.7 8.25 15.3 7.3 18.8 L7.15 19.3 9.6 17.75 9.0 17.85 Q12.0 13.25 13.35 7.9 13.75 6.4 12.95 5.05 L12.5 5.0 Q14.4 2.25 14.85 -1.1 15.25 -3.9 12.65 -4.15 10.5 -4.4 11.45 -4.7 L14.45 -4.7 14.6 -5.5 Q15.4 -9.4 12.95 -12.2 L12.6 -12.25 Q10.15 -11.9 8.4 -10.25 L8.65 -10.65 M6.8 8.25 L5.8 10.9 5.05 16.35 6.95 14.55 6.8 8.25 M6.25 17.2 L6.45 17.85 7.1 16.7 7.0 15.45 6.25 17.2" fill="#000000" fill-rule="evenodd" stroke="none"/>
    <path d="M6.55 -16.6 Q8.65 -17.95 10.45 -16.1 11.7 -14.75 12.15 -13.1 L8.65 -10.65 6.55 -8.9 5.8 -9.0 Q7.65 -10.5 8.35 -12.9 8.85 -14.55 8.0 -16.2 L6.55 -16.6 M12.95 -12.2 Q15.4 -9.4 14.6 -5.5 L14.45 -4.7 11.45 -4.7 7.65 -4.25 7.55 -4.3 9.25 -5.35 Q13.3 -7.65 12.95 -12.2 M12.65 -4.15 Q15.25 -3.9 14.85 -1.1 14.4 2.25 12.5 5.0 L12.4 5.0 9.3 4.95 8.9 3.7 9.1 4.1 Q13.8 1.1 12.65 -4.15 M-13.4 0.05 Q-14.95 -2.75 -14.6 -5.85 L-14.35 -7.5 Q-10.8 -6.45 -7.25 -7.35 L-3.6 -6.9 -2.5 -6.55 Q-9.15 -5.5 -13.4 0.05 M-13.45 -8.1 L-14.55 -8.85 Q-14.8 -12.5 -12.0 -15.25 -8.35 -13.0 -4.3 -12.5 L-2.85 -11.6 -7.75 -11.25 Q-11.25 -10.9 -13.45 -8.1 M-10.05 -14.7 L-11.7 -16.1 Q-8.15 -18.35 -3.95 -18.6 L-2.25 -18.65 -1.6 -14.65 -1.35 -12.85 Q-4.35 -17.4 -8.7 -15.65 L-10.05 -14.7 M-1.7 -17.1 Q-1.3 -19.4 1.15 -19.35 4.65 -19.65 7.75 -17.9 4.9 -16.9 4.4 -14.0 L3.3 -12.75 Q5.15 -17.8 0.15 -18.4 L-1.7 -17.1" fill="#ffcccc" fill-rule="evenodd" stroke="none"/>
    <path d="M8.65 -10.65 L8.4 -10.25 Q10.15 -11.9 12.6 -12.25 L12.95 -12.2 Q13.3 -7.65 9.25 -5.35 L7.55 -4.3 4.7 -7.5 5.2 -7.95 2.5 -8.85 2.6 -9.4 0.9 -9.15 0.8 -10.5 -0.55 -9.0 -0.95 -9.25 -1.1 -7.8 Q-1.15 -5.55 0.75 -4.45 -1.1 -0.15 -5.4 1.65 -9.8 3.4 -13.4 0.05 -9.15 -5.5 -2.5 -6.55 L-3.6 -6.9 -7.25 -7.35 -6.0 -7.9 -13.45 -8.1 Q-11.25 -10.9 -7.75 -11.25 L-2.85 -11.6 -4.3 -12.5 -10.05 -14.7 -8.7 -15.65 Q-4.35 -17.4 -1.35 -12.85 L-1.6 -14.65 -1.7 -17.1 0.15 -18.4 Q5.15 -17.8 3.3 -12.75 L4.4 -14.0 6.55 -16.6 8.0 -16.2 Q8.85 -14.55 8.35 -12.9 7.65 -10.5 5.8 -9.0 L6.55 -8.9 8.65 -10.65 M11.45 -4.7 Q10.5 -4.4 12.65 -4.15 13.8 1.1 9.1 4.1 L8.9 3.7 Q7.3 0.1 7.8 -3.7 L8.55 -3.8 7.65 -4.25 11.45 -4.7" fill="#ffe6e6" fill-rule="evenodd" stroke="none"/>
    <path d="M12.5 5.0 L12.95 5.05 Q13.75 6.4 13.35 7.9 12.0 13.25 9.0 17.85 L9.6 17.75 7.15 19.3 7.3 18.8 Q9.6 16.4 9.95 12.9 10.4 8.65 12.4 5.0 L12.5 5.0" fill="#ff6666" fill-rule="evenodd" stroke="none"/>
    <path d="M7.3 18.8 Q8.25 15.3 7.65 11.7 7.15 8.8 8.25 6.55 L9.3 4.95 12.4 5.0 Q10.4 8.65 9.95 12.9 9.6 16.4 7.3 18.8" fill="#cc3333" fill-rule="evenodd" stroke="none"/>
    <path d="M6.8 8.25 L6.95 14.55 5.05 16.35 5.8 10.9 6.8 8.25 M6.25 17.2 L7.0 15.45 7.1 16.7 6.45 17.85 6.25 17.2" fill="#990000" fill-rule="evenodd" stroke="none"/>
  </g>
</svg>
