<?xml version="1.0" encoding="UTF-8" standalone="no"?>
<svg xmlns:xlink="http://www.w3.org/1999/xlink" height="34.45px" width="59.95px" xmlns="http://www.w3.org/2000/svg">
  <g transform="matrix(1.0, 0.0, 0.0, 1.0, 30.1, 16.8)">
    <path d="M21.6 -11.25 Q30.2 -6.15 29.85 0.95 29.5 8.0 20.55 12.9 11.65 17.9 -0.8 17.65 -13.35 17.4 -21.95 12.15 -30.35 7.05 -30.1 -0.05 -29.85 -7.1 -21.15 -12.0 -12.3 -17.0 0.1 -16.8 13.05 -16.5 21.6 -11.25 M17.65 -7.35 Q15.95 -8.8 12.75 -9.85 7.35 -12.05 -2.45 -12.35 L-4.0 -12.4 Q-12.95 -12.4 -15.65 -11.05 -16.55 -10.7 -17.1 -9.95 -18.65 -9.2 -20.85 -6.7 L-23.3 -3.65 Q-23.85 -2.6 -23.9 -0.85 L-23.8 1.3 Q-23.45 2.65 -21.85 3.7 -19.8 5.45 -15.0 6.7 -10.0 8.5 -1.85 8.75 L0.45 8.8 11.5 7.85 16.15 6.8 17.65 5.8 19.6 3.3 20.3 -0.95 Q20.45 -5.25 17.65 -7.35" fill="#ff4d00" fill-rule="evenodd" stroke="none"/>
    <path d="M17.65 -7.35 Q20.45 -5.25 20.3 -0.95 L19.6 3.3 17.65 5.8 16.15 6.8 11.5 7.85 0.45 8.8 -1.85 8.75 Q-10.0 8.5 -15.0 6.7 -19.8 5.45 -21.85 3.7 -23.45 2.65 -23.8 1.3 L-23.9 -0.85 Q-23.85 -2.6 -23.3 -3.65 L-20.85 -6.7 Q-18.65 -9.2 -17.1 -9.95 -16.55 -10.7 -15.65 -11.05 -12.95 -12.4 -4.0 -12.4 L-2.45 -12.35 Q7.35 -12.05 12.75 -9.85 15.95 -8.8 17.65 -7.35" fill="#ff7400" fill-rule="evenodd" stroke="none"/>
  </g>
</svg>
