<?xml version="1.0" encoding="UTF-8" standalone="no"?>
<svg xmlns:xlink="http://www.w3.org/1999/xlink" height="39.0px" width="60.0px" xmlns="http://www.w3.org/2000/svg">
  <g transform="matrix(1.0, 0.0, 0.0, 1.0, 30.25, 18.65)">
    <path d="M22.05 -11.9 Q30.35 -6.1 29.7 1.9 29.0 9.8 20.0 15.2 10.9 20.75 -1.6 20.3 -14.35 19.85 -22.6 13.7 -30.7 7.9 -30.2 -0.1 -29.7 -8.0 -21.1 -13.4 -12.2 -19.0 0.2 -18.6 13.65 -18.05 22.05 -11.9 M19.1 -7.15 Q17.5 -9.1 14.35 -10.65 8.7 -14.1 -2.05 -14.7 L-3.8 -14.75 Q-12.9 -14.85 -16.25 -12.55 -17.2 -12.1 -17.85 -11.3 -19.5 -10.15 -21.7 -7.4 -23.7 -4.95 -24.1 -3.85 -24.65 -2.65 -24.75 -0.8 L-24.75 -0.75 -24.75 1.6 Q-24.5 3.2 -23.05 4.5 -21.2 7.0 -16.55 8.95 -11.4 12.0 -2.5 12.55 L0.1 12.6 Q6.25 12.55 12.05 10.75 13.95 10.25 16.9 8.95 L18.4 7.7 20.45 4.85 Q21.1 2.3 21.35 0.15 21.7 -4.5 19.1 -7.15" fill="#ff4d00" fill-rule="evenodd" stroke="none"/>
    <path d="M19.1 -7.15 Q21.7 -4.5 21.35 0.15 21.1 2.3 20.45 4.85 L18.4 7.7 16.9 8.95 Q13.95 10.25 12.05 10.75 6.25 12.55 0.1 12.6 L-2.5 12.55 Q-11.4 12.0 -16.55 8.95 -21.2 7.0 -23.05 4.5 -24.5 3.2 -24.75 1.6 L-24.75 -0.75 -24.75 -0.8 Q-24.65 -2.65 -24.1 -3.85 -23.7 -4.95 -21.7 -7.4 -19.5 -10.15 -17.85 -11.3 -17.2 -12.1 -16.25 -12.55 -12.9 -14.85 -3.8 -14.75 L-2.05 -14.7 Q8.7 -14.1 14.35 -10.65 17.5 -9.1 19.1 -7.15" fill="#ff6f00" fill-rule="evenodd" stroke="none"/>
  </g>
</svg>
