<?xml version="1.0" encoding="UTF-8" standalone="no"?>
<svg xmlns:xlink="http://www.w3.org/1999/xlink" height="48.05px" width="60.1px" xmlns="http://www.w3.org/2000/svg">
  <g transform="matrix(1.0, 0.0, 0.0, 1.0, 30.5, 22.3)">
    <path d="M23.0 -13.2 Q30.75 -6.0 29.4 3.8 28.05 13.4 18.85 19.8 9.35 26.5 -3.15 25.65 -16.25 24.65 -24.0 16.85 -31.35 9.6 -30.4 -0.15 -29.45 -9.8 -20.9 -16.2 -11.95 -23.0 0.35 -22.2 14.95 -21.1 23.0 -13.2 M22.0 -6.7 Q20.55 -9.8 17.45 -12.3 11.4 -18.3 -1.25 -19.4 L-3.3 -19.55 Q-12.8 -19.7 -17.55 -15.55 L-19.25 -13.9 Q-21.25 -12.05 -23.35 -8.8 -25.2 -6.15 -25.75 -4.3 -26.35 -2.75 -26.5 -0.65 L-26.5 -0.6 -26.65 2.15 Q-26.5 4.2 -25.45 6.0 -24.0 10.15 -19.65 13.45 -14.15 19.1 -3.8 20.1 L-0.7 20.2 Q6.6 20.15 13.15 16.65 15.3 15.55 18.4 13.3 L20.0 11.6 22.2 7.95 23.45 2.45 Q24.1 -3.0 22.0 -6.7" fill="#ff4d00" fill-rule="evenodd" stroke="none"/>
    <path d="M22.0 -6.7 Q24.1 -3.0 23.45 2.45 L22.2 7.95 20.0 11.6 18.4 13.3 Q15.3 15.55 13.15 16.65 6.6 20.15 -0.7 20.2 L-3.8 20.1 Q-14.15 19.1 -19.65 13.45 -24.0 10.15 -25.45 6.0 -26.5 4.2 -26.65 2.15 L-26.5 -0.6 -26.5 -0.65 Q-26.35 -2.75 -25.75 -4.3 -25.2 -6.15 -23.35 -8.8 -21.25 -12.05 -19.25 -13.9 L-17.55 -15.55 Q-12.8 -19.7 -3.3 -19.55 L-1.25 -19.4 Q11.4 -18.3 17.45 -12.3 20.55 -9.8 22.0 -6.7" fill="#ff6500" fill-rule="evenodd" stroke="none"/>
  </g>
</svg>
