<?xml version="1.0" encoding="UTF-8" standalone="no"?>
<svg xmlns:xlink="http://www.w3.org/1999/xlink" height="66.2px" width="60.8px" xmlns="http://www.w3.org/2000/svg">
  <g transform="matrix(1.0, 0.0, 0.0, 1.0, 31.25, 29.65)">
    <path d="M24.85 -15.8 Q31.45 -5.8 28.75 7.65 26.1 20.6 16.55 29.0 6.3 38.0 -6.3 36.3 -20.15 34.35 -26.7 23.1 -32.7 13.05 -30.8 -0.3 -28.9 -13.45 -20.6 -21.85 -11.5 -31.0 0.7 -29.4 17.45 -27.2 24.85 -15.8 M23.75 -15.6 Q16.75 -26.6 0.4 -28.85 L-2.4 -29.05 Q-12.55 -29.4 -20.05 -21.55 L-22.15 -19.2 Q-24.75 -15.85 -26.7 -11.65 -28.2 -8.5 -29.05 -5.2 L-30.0 -0.4 -30.0 -0.3 -30.4 3.3 Q-30.6 6.3 -30.2 9.1 -29.55 16.4 -25.85 22.4 -19.7 33.2 -6.45 35.2 L-2.2 35.45 Q7.3 35.35 15.4 28.35 17.95 26.25 21.35 22.0 L23.1 19.3 25.65 14.15 Q26.85 10.9 27.65 6.95 29.0 0.0 27.75 -5.85 26.7 -11.1 23.75 -15.6" fill="#ff4d00" fill-rule="evenodd" stroke="none"/>
    <path d="M23.75 -15.6 Q26.7 -11.1 27.75 -5.85 29.0 0.0 27.65 6.95 26.85 10.9 25.65 14.15 L23.1 19.3 21.35 22.0 Q17.95 26.25 15.4 28.35 7.3 35.35 -2.2 35.45 L-6.45 35.2 Q-19.7 33.2 -25.85 22.4 -29.55 16.4 -30.2 9.1 -30.6 6.3 -30.4 3.3 L-30.0 -0.3 -30.0 -0.4 -29.05 -5.2 Q-28.2 -8.5 -26.7 -11.65 -24.75 -15.85 -22.15 -19.2 L-20.05 -21.55 Q-12.55 -29.4 -2.4 -29.05 L0.4 -28.85 Q16.75 -26.6 23.75 -15.6" fill="#ff5200" fill-rule="evenodd" stroke="none"/>
  </g>
</svg>
