<?xml version="1.0" encoding="UTF-8" standalone="no"?>
<svg xmlns:xlink="http://www.w3.org/1999/xlink" height="32.05px" width="72.1px" xmlns="http://www.w3.org/2000/svg">
  <g transform="matrix(1.0, 0.0, 0.0, 1.0, 36.1, 16.05)">
    <path d="M19.1 5.75 Q21.95 3.4 21.95 1.55 22.0 1.1 21.0 0.0 L19.3 -1.4 Q17.65 -2.35 16.15 -2.6 L13.2 -3.15 Q16.0 -4.4 16.0 -5.65 16.05 -7.45 11.5 -8.7 7.5 -9.85 3.05 -9.8 L-7.9 -8.9 Q-11.9 -8.15 -11.9 -7.15 L-11.25 -6.2 -11.2 -6.2 -15.85 -4.25 Q-22.1 -1.3 -22.15 1.35 -22.1 3.45 -17.55 6.4 -12.2 9.8 -6.0 9.8 L-4.7 9.65 -3.1 9.75 -2.15 9.7 4.15 8.95 10.0 9.2 Q14.95 9.2 19.1 5.75 M36.0 2.5 Q36.0 5.55 31.3 9.4 24.5 15.05 16.45 15.05 L6.85 14.6 -3.4 15.85 -5.0 15.95 -7.6 15.8 -9.7 16.0 Q-19.9 16.0 -28.6 10.4 -36.1 5.6 -36.1 2.2 -36.1 -2.1 -25.85 -7.0 -22.1 -8.8 -18.25 -10.15 L-17.8 -9.75 Q-19.4 -11.05 -19.4 -11.75 -19.4 -13.3 -12.8 -14.6 -5.55 -16.05 5.05 -16.05 12.3 -16.05 18.85 -14.25 26.25 -12.2 26.25 -9.3 26.25 -7.2 21.7 -5.2 L26.5 -4.3 Q28.9 -3.85 31.6 -2.35 32.75 -1.75 34.4 0.0 36.0 1.8 36.0 2.5" fill="#edaa00" fill-rule="evenodd" stroke="none"/>
    <path d="M19.1 5.75 Q14.95 9.2 10.0 9.2 L4.15 8.95 -2.15 9.7 -3.1 9.75 -4.7 9.65 -6.0 9.8 Q-12.2 9.8 -17.55 6.4 -22.1 3.45 -22.15 1.35 -22.1 -1.3 -15.85 -4.25 L-11.2 -6.2 -11.25 -6.2 -11.9 -7.15 Q-11.9 -8.15 -7.9 -8.9 L3.05 -9.8 Q7.5 -9.85 11.5 -8.7 16.05 -7.45 16.0 -5.65 16.0 -4.4 13.2 -3.15 L16.15 -2.6 Q17.65 -2.35 19.3 -1.4 L21.0 0.0 Q22.0 1.1 21.95 1.55 21.95 3.4 19.1 5.75" fill="#ffff00" fill-rule="evenodd" stroke="none"/>
  </g>
</svg>
