<?xml version="1.0" encoding="UTF-8" standalone="no"?>
<svg xmlns:xlink="http://www.w3.org/1999/xlink" height="35.7px" width="71.2px" xmlns="http://www.w3.org/2000/svg">
  <g transform="matrix(1.0, 0.0, 0.0, 1.0, 35.6, 17.5)">
    <path d="M17.75 -6.0 Q17.6 -7.4 15.55 -8.55 L12.95 -9.8 Q8.8 -11.55 3.9 -11.85 L-2.0 -12.0 -8.1 -11.35 Q-12.15 -10.6 -12.55 -9.4 -12.6 -9.05 -12.1 -8.4 L-13.4 -7.85 -16.95 -5.85 Q-23.0 -2.5 -23.15 0.9 L-23.15 0.95 Q-23.25 3.65 -19.05 7.05 -16.85 9.0 -14.3 10.3 -11.05 11.95 -7.4 12.4 L-6.0 12.4 -4.35 12.7 -3.25 12.75 -0.2 12.65 3.7 12.45 Q7.9 12.75 10.25 12.55 13.25 12.4 16.05 11.05 18.2 10.0 20.1 8.25 22.95 5.7 23.15 3.5 23.25 2.9 22.4 1.7 L21.5 0.5 20.95 -0.05 Q19.55 -1.3 18.2 -1.85 L15.5 -2.95 Q17.85 -4.5 17.75 -6.0 M19.6 -14.65 L22.65 -13.35 Q26.7 -11.45 26.85 -9.1 27.0 -6.85 23.05 -4.65 24.9 -3.9 27.4 -3.2 29.5 -2.45 31.85 -0.75 32.85 0.05 34.25 1.85 35.65 3.65 35.6 4.45 35.4 7.7 30.85 11.6 28.2 13.9 25.3 15.35 20.85 17.65 15.85 17.8 L6.0 17.45 0.7 17.9 -4.5 18.15 -6.1 18.15 -8.65 17.85 -10.8 17.85 Q-16.15 17.4 -20.95 15.35 -25.15 13.55 -28.9 10.55 -35.7 5.55 -35.6 1.7 L-35.6 1.65 Q-35.45 -3.15 -25.85 -8.25 -23.0 -9.9 -20.0 -11.2 L-18.4 -11.9 -17.9 -11.6 Q-19.25 -12.85 -19.1 -13.55 -18.65 -15.2 -12.35 -16.45 L-4.25 -17.4 5.85 -17.35 Q13.15 -16.95 19.6 -14.65" fill="#e99700" fill-rule="evenodd" stroke="none"/>
    <path d="M17.75 -6.0 Q17.85 -4.5 15.5 -2.95 L18.2 -1.85 Q19.55 -1.3 20.95 -0.05 L21.5 0.5 22.4 1.7 Q23.25 2.9 23.15 3.5 22.95 5.7 20.1 8.25 18.2 10.0 16.05 11.05 13.25 12.4 10.25 12.55 7.9 12.75 3.7 12.45 L-0.2 12.65 -3.25 12.75 -4.35 12.7 -6.0 12.4 -7.4 12.4 Q-11.05 11.95 -14.3 10.3 -16.85 9.0 -19.05 7.05 -23.25 3.65 -23.15 0.95 L-23.15 0.9 Q-23.0 -2.5 -16.95 -5.85 L-13.4 -7.85 -12.1 -8.4 Q-12.6 -9.05 -12.55 -9.4 -12.15 -10.6 -8.1 -11.35 L-2.0 -12.0 3.9 -11.85 Q8.8 -11.55 12.95 -9.8 L15.55 -8.55 Q17.6 -7.4 17.75 -6.0" fill="#f9e300" fill-rule="evenodd" stroke="none"/>
  </g>
</svg>
