<?xml version="1.0" encoding="UTF-8" standalone="no"?>
<svg xmlns:xlink="http://www.w3.org/1999/xlink" height="39.7px" width="70.25px" xmlns="http://www.w3.org/2000/svg">
  <g transform="matrix(1.0, 0.0, 0.0, 1.0, 35.1, 19.1)">
    <path d="M19.4 -6.35 Q19.15 -7.95 17.1 -9.3 L14.45 -10.95 Q10.1 -13.2 4.8 -13.9 L-1.65 -14.4 -8.3 -13.8 Q-12.35 -13.0 -13.15 -11.65 -13.35 -11.25 -13.0 -10.65 L-14.35 -9.9 -18.05 -7.5 Q-23.9 -3.7 -24.2 0.45 L-24.2 0.55 Q-24.45 3.85 -20.6 7.7 -18.55 10.05 -16.0 11.8 -12.75 14.05 -8.85 15.0 L-7.4 15.2 -5.6 15.6 -4.45 15.75 -1.05 15.95 3.25 15.9 Q7.7 16.25 10.45 15.9 13.75 15.6 16.7 14.0 19.1 12.7 21.1 10.7 23.95 8.0 24.35 5.45 24.45 4.7 23.75 3.45 L23.1 1.95 22.6 1.3 20.25 -1.1 Q18.85 -1.95 17.8 -2.75 19.75 -4.6 19.4 -6.35 M23.3 -13.5 Q27.15 -11.4 27.5 -8.9 27.8 -6.5 24.4 -4.1 26.1 -3.1 28.25 -2.1 L32.15 0.9 34.15 3.65 Q35.3 5.5 35.15 6.4 34.75 9.9 30.4 13.75 27.8 16.2 24.85 17.8 20.3 20.2 15.25 20.5 11.5 20.8 5.15 20.3 L-0.25 20.5 Q-4.35 20.75 -5.6 20.5 L-7.2 20.4 -9.75 19.9 -11.9 19.7 Q-17.2 18.8 -21.8 16.25 -25.8 14.0 -29.25 10.7 -35.35 5.5 -35.1 1.2 L-35.1 1.15 Q-34.8 -4.25 -25.85 -9.55 L-20.1 -12.85 -18.55 -13.65 -18.05 -13.4 Q-19.05 -14.65 -18.8 -15.35 -17.95 -17.1 -11.85 -18.3 L-3.65 -19.1 6.65 -18.65 Q14.05 -17.85 20.35 -15.05 L23.3 -13.5" fill="#e58400" fill-rule="evenodd" stroke="none"/>
    <path d="M19.4 -6.35 Q19.75 -4.6 17.8 -2.75 18.85 -1.95 20.25 -1.1 L22.6 1.3 23.1 1.95 23.75 3.45 Q24.45 4.7 24.35 5.45 23.95 8.0 21.1 10.7 19.1 12.7 16.7 14.0 13.75 15.6 10.45 15.9 7.7 16.25 3.25 15.9 L-1.05 15.95 -4.45 15.75 -5.6 15.6 -7.4 15.2 -8.85 15.0 Q-12.75 14.05 -16.0 11.8 -18.55 10.05 -20.6 7.7 -24.45 3.85 -24.2 0.55 L-24.2 0.45 Q-23.9 -3.7 -18.05 -7.5 L-14.35 -9.9 -13.0 -10.65 Q-13.35 -11.25 -13.15 -11.65 -12.35 -13.0 -8.3 -13.8 L-1.65 -14.4 4.8 -13.9 Q10.1 -13.2 14.45 -10.95 L17.1 -9.3 Q19.15 -7.95 19.4 -6.35" fill="#f3c600" fill-rule="evenodd" stroke="none"/>
  </g>
</svg>
