<?xml version="1.0" encoding="UTF-8" standalone="no"?>
<svg xmlns:xlink="http://www.w3.org/1999/xlink" height="48.9px" width="68.5px" xmlns="http://www.w3.org/2000/svg">
  <g transform="matrix(1.0, 0.0, 0.0, 1.0, 34.1, 22.6)">
    <path d="M21.85 -15.8 L24.65 -13.75 Q28.05 -11.3 28.7 -8.5 29.35 -5.8 27.1 -3.05 L30.05 0.1 Q31.4 1.75 32.7 4.1 L33.9 7.35 Q34.6 9.15 34.3 10.3 33.5 14.25 29.5 18.15 26.9 20.75 23.85 22.6 19.25 25.4 14.05 26.0 9.8 26.6 3.5 26.0 L-2.2 25.8 -7.75 25.15 -9.4 24.8 -11.95 24.0 -14.15 23.4 Q-19.3 21.6 -23.5 18.05 -27.15 15.0 -29.85 11.0 -34.55 5.35 -34.05 0.15 L-34.05 0.05 Q-33.45 -6.35 -25.9 -12.05 L-20.4 -16.2 -18.8 -17.15 -18.35 -17.05 Q-18.75 -18.25 -18.2 -18.95 -16.5 -20.9 -10.9 -22.0 L-2.35 -22.55 8.2 -21.25 Q15.8 -19.65 21.85 -15.8 M17.35 -13.15 Q12.65 -16.55 6.5 -18.0 L-0.95 -19.2 -8.75 -18.7 Q-12.85 -17.85 -14.45 -16.15 -14.8 -15.75 -14.8 -15.05 L-16.25 -14.1 Q-18.4 -12.55 -20.25 -10.7 -25.65 -6.05 -26.3 -0.4 L-26.3 -0.25 Q-26.8 4.3 -23.7 8.95 -21.9 12.2 -19.35 14.9 -16.1 18.35 -11.8 20.15 L-10.15 20.75 -8.1 21.45 -6.8 21.8 -2.8 22.5 2.35 22.9 10.9 22.65 Q14.7 22.0 18.05 19.9 20.85 18.2 23.1 15.7 25.95 12.6 26.65 9.35 26.9 8.3 26.55 6.85 L26.2 4.9 25.95 4.0 Q25.2 1.95 24.3 0.35 L22.3 -2.4 Q23.5 -4.8 22.8 -7.1 22.2 -9.05 20.25 -10.75 L17.35 -13.15" fill="#dd5e00" fill-rule="evenodd" stroke="none"/>
    <path d="M17.35 -13.15 L20.25 -10.75 Q22.2 -9.05 22.8 -7.1 23.5 -4.8 22.3 -2.4 L24.3 0.35 Q25.2 1.95 25.95 4.0 L26.2 4.9 26.55 6.85 Q26.9 8.3 26.65 9.35 25.95 12.6 23.1 15.7 20.85 18.2 18.05 19.9 14.7 22.0 10.9 22.65 L2.35 22.9 -2.8 22.5 -6.8 21.8 -8.1 21.45 -10.15 20.75 -11.8 20.15 Q-16.1 18.35 -19.35 14.9 -21.9 12.2 -23.7 8.95 -26.8 4.3 -26.3 -0.25 L-26.3 -0.4 Q-25.65 -6.05 -20.25 -10.7 -18.4 -12.55 -16.25 -14.1 L-14.8 -15.05 Q-14.8 -15.75 -14.45 -16.15 -12.85 -17.85 -8.75 -18.7 L-0.95 -19.2 6.5 -18.0 Q12.65 -16.55 17.35 -13.15" fill="#e78e00" fill-rule="evenodd" stroke="none"/>
  </g>
</svg>
