<?xml version="1.0" encoding="UTF-8" standalone="no"?>
<svg xmlns:xlink="http://www.w3.org/1999/xlink" height="53.5px" width="67.65px" xmlns="http://www.w3.org/2000/svg">
  <g transform="matrix(1.0, 0.0, 0.0, 1.0, 33.65, 24.4)">
    <path d="M22.6 -16.2 L25.35 -13.9 Q28.55 -11.25 29.35 -8.25 30.1 -5.4 28.45 -2.5 L30.9 1.15 32.95 5.75 33.75 9.15 Q34.2 11.0 33.9 12.25 32.9 16.4 29.05 20.3 26.5 23.05 23.4 25.05 18.75 27.95 13.4 28.7 8.95 29.45 2.65 28.85 L-3.2 28.4 Q-6.95 28.2 -8.85 27.45 L-10.5 27.05 -13.1 26.1 -15.25 25.3 Q-20.4 23.05 -24.4 18.95 -27.8 15.45 -30.2 11.15 -34.2 5.3 -33.55 -0.35 L-33.55 -0.45 Q-32.8 -7.45 -25.9 -13.35 -23.45 -15.8 -20.5 -17.85 L-18.95 -18.9 -18.5 -18.9 Q-18.55 -20.0 -17.85 -20.8 -15.75 -22.85 -10.45 -23.85 L-1.75 -24.3 Q3.75 -23.85 9.0 -22.6 16.65 -20.6 22.6 -16.2 M18.85 -14.3 Q13.95 -18.25 7.4 -20.1 3.55 -21.15 -0.6 -21.6 L-9.0 -21.2 Q-13.05 -20.3 -15.05 -18.45 L-15.65 -17.3 -17.25 -16.15 Q-19.45 -14.45 -21.3 -12.35 -26.55 -7.25 -27.3 -0.85 L-27.4 -0.6 Q-27.95 4.5 -25.2 9.6 -23.6 13.3 -21.05 16.4 -17.75 20.45 -13.25 22.75 L-11.5 23.5 -9.4 24.4 -7.95 24.85 Q-6.3 25.5 -3.65 25.8 L1.95 26.35 11.1 26.0 Q15.15 25.2 18.75 22.9 21.75 20.9 24.05 18.15 26.9 14.9 27.85 11.3 28.15 10.15 27.9 8.6 L27.8 6.35 27.6 5.3 Q27.05 3.0 26.3 1.1 L24.6 -2.2 Q25.35 -4.9 24.45 -7.45 23.75 -9.55 21.8 -11.5 L18.85 -14.3" fill="#da4c00" fill-rule="evenodd" stroke="none"/>
    <path d="M18.85 -14.3 L21.8 -11.5 Q23.75 -9.55 24.45 -7.45 25.35 -4.9 24.6 -2.2 L26.3 1.1 Q27.05 3.0 27.6 5.3 L27.8 6.35 27.9 8.6 Q28.15 10.15 27.85 11.3 26.9 14.9 24.05 18.15 21.75 20.9 18.75 22.9 15.15 25.2 11.1 26.0 L1.95 26.35 -3.65 25.8 Q-6.3 25.5 -7.95 24.85 L-9.4 24.4 -11.5 23.5 -13.25 22.75 Q-17.75 20.45 -21.05 16.4 -23.6 13.3 -25.2 9.6 -27.95 4.5 -27.4 -0.6 L-27.3 -0.85 Q-26.55 -7.25 -21.3 -12.35 -19.45 -14.45 -17.25 -16.15 L-15.65 -17.3 -15.05 -18.45 Q-13.05 -20.3 -9.0 -21.2 L-0.6 -21.6 Q3.55 -21.15 7.4 -20.1 13.95 -18.25 18.85 -14.3" fill="#e27100" fill-rule="evenodd" stroke="none"/>
  </g>
</svg>
