<?xml version="1.0" encoding="UTF-8" standalone="no"?>
<svg xmlns:xlink="http://www.w3.org/1999/xlink" height="58.15px" width="66.9px" xmlns="http://www.w3.org/2000/svg">
  <g transform="matrix(1.0, 0.0, 0.0, 1.0, 33.2, 26.2)">
    <path d="M23.35 -16.6 L26.0 -14.05 Q29.0 -11.2 29.95 -8.05 30.9 -5.05 29.8 -1.95 L31.8 2.25 33.25 7.35 33.65 11.0 Q33.85 12.85 33.45 14.2 32.25 18.6 28.6 22.5 26.05 25.35 22.9 27.45 18.2 30.55 12.8 31.45 8.1 32.35 1.8 31.7 L-4.15 31.05 Q-7.8 30.65 -9.95 29.8 L-11.6 29.25 -14.2 28.15 -16.35 27.15 Q-21.45 24.45 -25.25 19.85 -28.45 15.95 -30.5 11.3 -33.8 5.25 -33.05 -0.85 L-33.05 -1.0 Q-32.15 -8.5 -25.9 -14.6 -23.55 -17.3 -20.65 -19.5 L-19.1 -20.65 -18.65 -20.7 Q-18.4 -21.8 -17.55 -22.6 -15.05 -24.75 -9.95 -25.7 L-1.1 -26.0 Q4.55 -25.4 9.8 -23.9 17.55 -21.5 23.35 -16.6 M20.3 -15.4 Q15.25 -19.9 8.25 -22.15 4.2 -23.4 -0.25 -24.0 L-9.2 -23.65 Q-13.3 -22.7 -15.7 -20.7 L-16.55 -19.5 -18.2 -18.25 Q-20.5 -16.3 -22.4 -13.95 -27.45 -8.45 -28.35 -1.3 L-28.45 -1.0 Q-29.15 4.7 -26.75 10.25 -25.3 14.35 -22.75 17.95 -19.45 22.6 -14.7 25.35 L-12.9 26.3 -10.65 27.3 -9.15 27.85 Q-7.25 28.65 -4.5 29.1 L1.5 29.85 11.3 29.35 Q15.65 28.4 19.4 25.85 22.65 23.65 25.05 20.65 27.9 17.2 29.0 13.25 29.35 11.95 29.3 10.3 L29.35 7.8 29.25 6.65 28.35 1.85 26.85 -2.0 Q27.25 -5.0 26.15 -7.8 25.3 -10.1 23.35 -12.25 L20.3 -15.4" fill="#d63900" fill-rule="evenodd" stroke="none"/>
    <path d="M20.3 -15.4 L23.35 -12.25 Q25.3 -10.1 26.15 -7.8 27.25 -5.0 26.85 -2.0 L28.35 1.85 29.25 6.65 29.35 7.8 29.3 10.3 Q29.35 11.95 29.0 13.25 27.9 17.2 25.05 20.65 22.65 23.65 19.4 25.85 15.65 28.4 11.3 29.35 L1.5 29.85 -4.5 29.1 Q-7.25 28.65 -9.15 27.85 L-10.65 27.3 -12.9 26.3 -14.7 25.35 Q-19.45 22.6 -22.75 17.95 -25.3 14.35 -26.75 10.25 -29.15 4.7 -28.45 -1.0 L-28.35 -1.3 Q-27.45 -8.45 -22.4 -13.95 -20.5 -16.3 -18.2 -18.25 L-16.55 -19.5 -15.7 -20.7 Q-13.3 -22.7 -9.2 -23.65 L-0.25 -24.0 Q4.2 -23.4 8.25 -22.15 15.25 -19.9 20.3 -15.4" fill="#dc5500" fill-rule="evenodd" stroke="none"/>
  </g>
</svg>
