<?xml version="1.0" encoding="UTF-8" standalone="no"?>
<svg xmlns:xlink="http://www.w3.org/1999/xlink" height="62.85px" width="66.25px" xmlns="http://www.w3.org/2000/svg">
  <g transform="matrix(1.0, 0.0, 0.0, 1.0, 32.75, 28.0)">
    <path d="M31.15 -1.45 L32.7 3.35 33.5 8.95 33.5 12.85 Q33.5 14.65 33.05 16.15 31.65 20.75 28.15 24.7 25.6 27.6 22.4 29.85 17.7 33.15 12.2 34.2 L1.0 34.55 -5.15 33.7 Q-8.65 33.15 -11.0 32.1 L-12.7 31.45 -15.3 30.2 -17.5 29.0 Q-22.5 25.85 -26.1 20.75 -29.15 16.45 -30.8 11.45 -33.4 5.15 -32.5 -1.4 L-32.5 -1.55 Q-31.45 -9.55 -25.95 -15.85 -23.65 -18.8 -20.8 -21.2 L-19.2 -22.4 -18.8 -22.55 -17.25 -24.4 Q-14.3 -26.65 -9.5 -27.55 -5.3 -28.35 -0.45 -27.75 5.35 -27.0 10.55 -25.2 18.4 -22.4 24.1 -16.95 L26.7 -14.15 Q29.45 -11.15 30.55 -7.85 31.65 -4.7 31.15 -1.45 M29.1 -1.85 Q29.1 -5.1 27.85 -8.2 26.8 -10.65 24.95 -12.95 L21.75 -16.5 Q16.5 -21.6 9.1 -24.2 4.9 -25.65 0.1 -26.4 L-9.45 -26.1 Q-13.55 -25.15 -16.35 -22.95 L-17.45 -21.7 -19.15 -20.35 Q-21.6 -18.15 -23.5 -15.55 -28.3 -9.6 -29.4 -1.7 L-29.5 -1.4 Q-30.3 4.95 -28.3 10.85 -26.95 15.45 -24.4 19.5 -21.1 24.75 -16.2 27.9 L-14.25 29.05 -11.9 30.25 -10.3 30.9 Q-8.2 31.8 -5.4 32.35 L1.05 33.35 Q6.85 33.9 11.55 32.75 16.1 31.6 20.1 28.8 23.5 26.4 26.05 23.15 28.9 19.5 30.15 15.2 30.6 13.75 30.7 12.0 L30.9 9.3 30.95 8.0 Q30.85 5.15 30.35 2.55 L29.1 -1.85" fill="#d22600" fill-rule="evenodd" stroke="none"/>
    <path d="M29.1 -1.85 L30.35 2.55 Q30.85 5.15 30.95 8.0 L30.9 9.3 30.7 12.0 Q30.6 13.75 30.15 15.2 28.9 19.5 26.05 23.15 23.5 26.4 20.1 28.8 16.1 31.6 11.55 32.75 6.85 33.9 1.05 33.35 L-5.4 32.35 Q-8.2 31.8 -10.3 30.9 L-11.9 30.25 -14.25 29.05 -16.2 27.9 Q-21.1 24.75 -24.4 19.5 -26.95 15.45 -28.3 10.85 -30.3 4.95 -29.5 -1.4 L-29.4 -1.7 Q-28.3 -9.6 -23.5 -15.55 -21.6 -18.15 -19.15 -20.35 L-17.45 -21.7 -16.35 -22.95 Q-13.55 -25.15 -9.45 -26.1 L0.1 -26.4 Q4.9 -25.65 9.1 -24.2 16.5 -21.6 21.75 -16.5 L24.95 -12.95 Q26.8 -10.65 27.85 -8.2 29.1 -5.1 29.1 -1.85" fill="#d63900" fill-rule="evenodd" stroke="none"/>
  </g>
</svg>
