<?xml version="1.0" encoding="UTF-8" standalone="no"?>
<svg xmlns:xlink="http://www.w3.org/1999/xlink" height="33.25px" width="62.95px" xmlns="http://www.w3.org/2000/svg">
  <g transform="matrix(1.0, 0.0, 0.0, 1.0, 31.45, 17.0)">
    <path d="M18.75 -15.95 L18.75 -17.0 Q22.65 -17.25 25.05 -14.1 26.85 -11.7 26.45 -8.75 26.25 -7.05 25.15 -5.6 L27.0 -5.25 Q29.1 -4.85 30.8 -3.15 L30.8 -2.15 30.4 -1.95 Q28.15 -2.15 26.0 -1.35 L29.8 -1.35 30.15 -0.9 30.05 -0.05 Q29.2 1.0 27.95 1.6 L23.75 3.1 Q27.2 3.75 30.25 2.2 L30.6 2.95 29.95 4.45 28.6 6.5 31.5 10.75 31.35 11.25 31.0 11.55 Q26.6 9.25 22.15 11.3 23.45 13.7 26.85 15.95 L25.3 16.25 23.2 16.0 18.7 14.45 Q15.45 13.15 13.05 12.45 L8.3 10.75 Q5.45 9.5 2.6 8.8 L2.15 9.95 Q1.9 10.35 0.35 11.2 -1.2 12.05 -4.3 12.0 -6.95 11.0 -9.5 9.35 L-15.25 4.9 -19.05 1.95 Q-21.7 0.15 -24.45 -1.5 L-29.65 -5.15 Q-32.15 -7.1 -31.2 -9.0 -30.25 -10.95 -25.0 -10.25 -18.1 -9.35 -12.2 -10.95 -6.3 -12.6 -0.95 -13.6 1.25 -14.1 3.25 -13.6 4.25 -13.35 4.65 -12.6 L6.1 -12.8 8.65 -12.15 13.15 -10.25 15.1 -9.4 21.0 -9.65 Q22.3 -11.45 21.25 -13.3 L20.6 -14.25 18.75 -15.95 M25.0 -12.0 Q24.05 -15.35 20.7 -16.25 L19.5 -16.35 Q22.5 -15.35 22.85 -12.1 L22.85 -10.85 Q22.7 -9.25 21.45 -8.4 19.8 -7.35 17.7 -7.7 L13.8 -8.95 Q12.1 -9.55 10.55 -10.4 7.55 -12.2 4.45 -11.25 L4.15 -10.7 1.45 -7.05 Q-0.45 -4.45 0.55 -1.45 1.5 1.5 2.75 4.35 3.35 5.8 2.7 7.2 L2.95 7.45 Q4.3 7.35 5.65 8.05 L10.65 10.1 Q14.5 11.4 18.4 11.2 20.25 10.8 21.8 9.8 23.2 8.9 24.8 8.55 27.5 8.3 29.55 9.9 L27.25 7.05 Q25.6 8.15 23.7 8.2 L20.55 8.15 20.5 8.45 Q19.1 9.4 17.4 9.25 13.15 9.55 9.95 6.8 L7.8 4.7 12.2 7.4 Q16.1 9.05 20.05 8.05 L19.0 7.65 Q16.7 6.85 15.05 4.95 L8.85 0.1 9.5 0.1 Q10.35 0.35 11.05 0.85 L15.5 4.45 Q19.05 8.25 24.25 7.35 27.7 6.75 29.3 3.8 25.4 5.55 21.5 3.85 L8.7 -2.3 12.35 -1.5 Q16.25 0.55 20.8 1.05 L24.7 1.5 Q26.15 1.4 27.65 0.65 L28.35 0.2 Q23.05 -0.6 18.4 -2.65 L7.4 -7.4 15.1 -5.05 16.1 -4.55 Q25.6 -4.45 25.65 -9.75 L25.0 -12.0 M-29.95 -8.4 Q-30.95 -8.15 -30.65 -7.5 L-30.15 -6.6 Q-29.35 -5.5 -28.2 -4.9 L-20.35 -1.25 Q-18.65 -0.5 -17.35 0.75 L-10.25 6.9 Q-7.3 9.25 -3.7 10.1 L-2.45 10.1 1.35 9.05 0.55 8.4 -2.2 9.45 Q-2.3 8.65 -1.65 8.1 -0.55 7.25 0.95 6.85 1.7 6.55 2.1 5.75 0.55 2.25 -0.35 -1.3 L-0.6 -3.5 -0.05 -6.2 Q0.55 -7.65 1.55 -8.75 2.95 -10.3 4.0 -12.1 1.65 -13.2 -0.2 -12.8 -3.85 -12.2 -7.45 -10.75 L-11.6 -9.35 Q-16.35 -7.8 -21.15 -7.95 L-29.95 -8.4 M19.0 -3.75 L17.35 -3.95 Q18.85 -3.2 20.3 -2.6 20.6 -3.2 21.9 -4.1 L19.0 -3.75 M24.7 -4.4 Q22.25 -4.3 20.95 -2.35 L24.65 -1.5 25.45 -2.1 Q27.15 -3.55 29.25 -3.4 27.1 -4.8 24.7 -4.4 M22.75 3.2 L23.1 2.6 18.5 1.6 20.05 2.3 22.75 3.2 M24.6 15.6 L20.95 11.85 18.15 12.8 Q21.65 15.3 24.6 15.6" fill="#000000" fill-rule="evenodd" stroke="none"/>
    <path d="M4.15 -10.7 L4.45 -11.25 Q7.55 -12.2 10.55 -10.4 12.1 -9.55 13.8 -8.95 L17.7 -7.7 Q19.8 -7.35 21.45 -8.4 22.7 -9.25 22.85 -10.85 L22.85 -12.1 Q22.5 -15.35 19.5 -16.35 L20.7 -16.25 Q24.05 -15.35 25.0 -12.0 L24.3 -10.5 Q23.2 -8.5 21.8 -8.0 L15.1 -5.05 7.4 -7.4 18.4 -2.65 Q23.05 -0.6 28.35 0.2 L27.65 0.65 21.4 -0.45 12.35 -1.5 8.7 -2.3 21.5 3.85 21.5 4.2 Q21.5 5.35 19.3 5.35 17.6 5.35 15.5 4.45 L11.05 0.85 Q10.35 0.35 9.5 0.1 L8.85 0.1 15.05 4.95 14.85 6.85 14.0 7.55 12.2 7.4 7.8 4.7 9.95 6.8 6.3 5.05 4.75 5.25 Q4.05 2.15 2.7 -0.6 1.85 -2.25 1.8 -4.15 1.75 -5.2 2.0 -5.9 L4.15 -10.7 M-0.2 -12.8 Q1.65 -13.2 4.0 -12.1 2.95 -10.3 1.55 -8.75 0.55 -7.65 -0.05 -6.2 L-0.6 -3.5 -0.35 -1.3 Q0.55 2.25 2.1 5.75 1.7 6.55 0.95 6.85 -0.55 7.25 -1.65 8.1 -2.3 8.65 -2.2 9.45 L0.55 8.4 1.35 9.05 -2.45 10.1 -3.7 10.1 Q-7.3 9.25 -10.25 6.9 L-17.35 0.75 Q-18.65 -0.5 -20.35 -1.25 L-28.2 -4.9 Q-29.35 -5.5 -30.15 -6.6 L-30.65 -7.5 Q-30.95 -8.15 -29.95 -8.4 -26.1 -7.3 -22.35 -5.65 L-17.2 -3.15 Q-13.8 -1.5 -10.45 -0.2 L-9.3 0.15 -6.6 -0.05 -8.25 -0.7 Q-10.0 -4.35 -7.85 -7.75 -8.1 -6.8 -7.0 -4.75 L-5.95 -3.5 Q-5.25 -2.85 -5.1 -2.9 L-5.6 -3.8 Q-6.1 -4.55 -6.1 -5.35 -6.1 -8.3 -4.15 -10.3 -2.6 -11.85 -0.2 -12.8" fill="#2b91bb" fill-rule="evenodd" stroke="none"/>
    <path d="M-29.95 -8.4 L-21.15 -7.95 Q-16.35 -7.8 -11.6 -9.35 L-7.45 -10.75 Q-3.85 -12.2 -0.2 -12.8 -2.6 -11.85 -4.15 -10.3 -6.1 -8.3 -6.1 -5.35 -6.1 -4.55 -5.6 -3.8 L-5.1 -2.9 Q-5.25 -2.85 -5.95 -3.5 L-7.0 -4.75 Q-8.1 -6.8 -7.85 -7.75 -10.0 -4.35 -8.25 -0.7 L-6.6 -0.05 -9.3 0.15 -10.45 -0.2 Q-13.8 -1.5 -17.2 -3.15 L-22.35 -5.65 Q-26.1 -7.3 -29.95 -8.4" fill="#5caccd" fill-rule="evenodd" stroke="none"/>
    <path d="M4.15 -10.7 L2.0 -5.9 Q1.75 -5.2 1.8 -4.15 1.85 -2.25 2.7 -0.6 4.05 2.15 4.75 5.25 L6.3 5.05 9.95 6.8 Q13.15 9.55 17.4 9.25 19.1 9.4 20.5 8.45 L20.55 8.15 23.7 8.2 Q25.6 8.15 27.25 7.05 L29.55 9.9 Q27.5 8.3 24.8 8.55 23.2 8.9 21.8 9.8 20.25 10.8 18.4 11.2 14.5 11.4 10.65 10.1 L5.65 8.05 Q4.3 7.35 2.95 7.45 L2.7 7.2 Q3.35 5.8 2.75 4.35 1.5 1.5 0.55 -1.45 -0.45 -4.45 1.45 -7.05 L4.15 -10.7 M12.2 7.4 L14.0 7.55 14.85 6.85 15.05 4.95 Q16.7 6.85 19.0 7.65 L20.05 8.05 Q16.1 9.05 12.2 7.4 M15.5 4.45 Q17.6 5.35 19.3 5.35 21.5 5.35 21.5 4.2 L21.5 3.85 Q25.4 5.55 29.3 3.8 27.7 6.75 24.25 7.35 19.05 8.25 15.5 4.45 M12.35 -1.5 L21.4 -0.45 27.65 0.65 Q26.15 1.4 24.7 1.5 L20.8 1.05 Q16.25 0.55 12.35 -1.5 M15.1 -5.05 L21.8 -8.0 Q23.2 -8.5 24.3 -10.5 L25.0 -12.0 25.65 -9.75 Q25.6 -4.45 16.1 -4.55 L15.1 -5.05 M24.7 -4.4 Q27.1 -4.8 29.25 -3.4 27.15 -3.55 25.45 -2.1 L24.65 -1.5 20.95 -2.35 Q22.25 -4.3 24.7 -4.4 M22.75 3.2 L20.05 2.3 18.5 1.6 23.1 2.6 22.75 3.2 M24.6 15.6 Q21.65 15.3 18.15 12.8 L20.95 11.85 24.6 15.6" fill="#227ca2" fill-rule="evenodd" stroke="none"/>
  </g>
</svg>
