<?xml version="1.0" encoding="UTF-8" standalone="no"?>
<svg xmlns:xlink="http://www.w3.org/1999/xlink" height="67.5px" width="66.15px" xmlns="http://www.w3.org/2000/svg">
  <g transform="matrix(1.0, 0.0, 0.0, 1.0, 32.35, 29.85)">
    <path d="M11.35 -26.5 Q19.3 -23.3 24.85 -17.35 L27.35 -14.3 Q29.9 -11.1 31.2 -7.65 32.45 -4.35 32.5 -0.9 33.2 1.75 33.55 4.45 33.9 7.4 33.8 10.6 L33.4 14.65 32.6 18.1 Q31.0 22.95 27.7 26.85 25.2 29.9 21.95 32.3 17.15 35.7 11.6 36.9 L0.15 37.4 -6.1 36.3 Q-9.5 35.6 -12.1 34.45 L-13.8 33.7 -16.4 32.25 -18.6 30.85 Q-23.55 27.25 -26.95 21.65 -29.8 16.9 -31.15 11.6 -33.05 5.1 -32.0 -1.9 L-32.0 -2.05 Q-30.8 -10.65 -25.95 -17.15 -23.75 -20.25 -20.9 -22.85 L-19.35 -24.15 -18.95 -24.35 -16.95 -26.2 Q-13.6 -28.55 -9.0 -29.4 -4.7 -30.25 0.15 -29.45 6.2 -28.55 11.35 -26.5 M10.0 -26.25 Q5.55 -27.95 0.45 -28.8 -4.95 -29.7 -9.65 -28.55 -13.75 -27.55 -16.95 -25.2 L-18.35 -23.95 -20.1 -22.4 Q-22.65 -20.05 -24.6 -17.2 -29.2 -10.8 -30.45 -2.15 L-30.55 -1.8 Q-31.5 5.15 -29.85 11.5 -28.65 16.5 -26.1 21.0 -22.8 26.85 -17.65 30.5 L-15.65 31.85 -13.15 33.15 -11.5 33.9 -6.25 35.65 0.6 36.8 Q6.65 37.4 11.75 36.1 16.6 34.8 20.75 31.75 24.4 29.1 27.05 25.6 29.9 21.8 31.35 17.15 L32.05 13.75 32.5 10.75 32.6 9.35 Q32.7 6.25 32.4 3.3 L31.4 -1.65 Q31.0 -5.2 29.5 -8.55 28.35 -11.2 26.5 -13.7 L23.25 -17.65 Q17.8 -23.25 10.0 -26.25" fill="#ce1300" fill-rule="evenodd" stroke="none"/>
    <path d="M10.0 -26.25 Q17.8 -23.25 23.25 -17.65 L26.5 -13.7 Q28.35 -11.2 29.5 -8.55 31.0 -5.2 31.4 -1.65 L32.4 3.3 Q32.7 6.25 32.6 9.35 L32.5 10.75 32.05 13.75 31.35 17.15 Q29.9 21.8 27.05 25.6 24.4 29.1 20.75 31.75 16.6 34.8 11.75 36.1 6.65 37.4 0.6 36.8 L-6.25 35.65 -11.5 33.9 -13.15 33.15 -15.65 31.85 -17.65 30.5 Q-22.8 26.85 -26.1 21.0 -28.65 16.5 -29.85 11.5 -31.5 5.15 -30.55 -1.8 L-30.45 -2.15 Q-29.2 -10.8 -24.6 -17.2 -22.65 -20.05 -20.1 -22.4 L-18.35 -23.95 -16.95 -25.2 Q-13.75 -27.55 -9.65 -28.55 -4.95 -29.7 0.45 -28.8 5.55 -27.95 10.0 -26.25" fill="#d01c00" fill-rule="evenodd" stroke="none"/>
  </g>
</svg>
