<?xml version="1.0" encoding="UTF-8" standalone="no"?>
<svg xmlns:xlink="http://www.w3.org/1999/xlink" height="38.05px" width="74.45px" xmlns="http://www.w3.org/2000/svg">
  <g transform="matrix(1.0, 0.0, 0.0, 1.0, 34.5, 19.0)">
    <path d="M13.3 4.0 L13.0 5.4 Q11.75 8.8 6.1 7.65 -2.5 5.95 -7.9 7.85 -13.3 9.75 -15.25 4.55 L-15.6 3.45 -15.9 2.3 -16.75 2.1 Q-17.95 2.1 -18.4 1.25 L-18.55 0.85 -18.7 0.15 Q-18.7 -1.3 -15.5 -2.95 L-14.5 -5.05 Q-11.75 -9.5 -6.9 -6.65 -2.05 -3.85 1.45 -6.1 4.9 -8.4 8.15 -8.3 10.4 -8.2 11.9 -3.9 L15.75 -2.55 Q18.75 -1.55 18.75 -0.35 L18.55 0.25 Q17.95 1.0 16.1 1.7 L13.35 2.65 13.3 3.9 13.3 4.0" fill="#ffff00" fill-rule="evenodd" stroke="none"/>
    <path d="M13.3 3.9 L13.35 2.65 16.1 1.7 Q17.95 1.0 18.55 0.25 L18.75 -0.35 Q18.75 -1.55 15.75 -2.55 L11.9 -3.9 Q10.4 -8.2 8.15 -8.3 4.9 -8.4 1.45 -6.1 -2.05 -3.85 -6.9 -6.65 -11.75 -9.5 -14.5 -5.05 L-15.5 -2.95 Q-18.7 -1.3 -18.7 0.15 L-18.55 0.85 -18.4 1.25 Q-17.95 2.1 -16.75 2.1 L-15.9 2.3 -15.6 3.45 -15.25 4.55 Q-13.3 9.75 -7.9 7.85 -2.5 5.95 6.1 7.65 11.75 8.8 13.0 5.4 L13.3 4.0 13.35 4.0 13.35 3.9 13.3 3.9 M39.95 -0.85 Q39.95 1.5 34.7 3.75 L29.2 6.0 Q29.85 20.9 14.85 17.45 -2.3 13.5 -13.0 17.9 -23.7 22.25 -27.6 10.35 L-28.9 5.2 -30.6 4.8 Q-34.2 4.8 -34.5 0.3 -34.5 -3.0 -28.15 -6.85 -27.4 -9.3 -26.1 -11.65 -20.7 -21.75 -11.0 -15.3 -1.35 -8.85 5.55 -14.05 12.45 -19.3 18.9 -19.0 23.4 -18.85 26.4 -8.95 L33.95 -5.85 Q39.95 -3.55 39.95 -0.85" fill="#edaa00" fill-rule="evenodd" stroke="none"/>
  </g>
</svg>
