<?xml version="1.0" encoding="UTF-8" standalone="no"?>
<svg xmlns:xlink="http://www.w3.org/1999/xlink" height="39.65px" width="73.45px" xmlns="http://www.w3.org/2000/svg">
  <g transform="matrix(1.0, 0.0, 0.0, 1.0, 34.15, 19.25)">
    <path d="M-26.1 -12.4 Q-24.15 -15.95 -21.65 -17.6 -17.15 -20.55 -10.9 -17.05 -6.15 -14.35 -1.8 -13.9 2.45 -13.5 6.0 -15.7 13.05 -20.0 19.4 -19.1 22.05 -18.75 24.2 -15.3 25.75 -12.8 27.0 -8.8 L33.95 -5.05 Q39.35 -2.5 39.3 0.45 L39.0 1.7 Q38.0 3.6 34.45 5.4 L29.3 8.1 Q29.2 15.25 25.5 18.3 21.75 21.35 14.3 19.95 6.3 18.5 -0.65 18.2 -8.2 17.9 -13.85 19.45 -19.55 21.1 -23.2 18.35 -26.3 16.0 -28.0 10.65 L-29.25 5.4 Q-30.1 4.95 -30.75 4.85 -33.95 4.4 -34.15 0.05 L-34.15 0.0 Q-34.05 -3.6 -28.2 -7.55 -27.4 -10.05 -26.1 -12.4 M14.95 6.7 L14.95 6.55 15.2 5.15 17.95 3.6 Q19.7 2.65 20.45 0.9 20.55 -0.75 17.8 -2.15 15.45 -3.45 14.1 -4.3 13.35 -6.4 12.4 -7.7 11.25 -9.25 9.9 -9.55 6.35 -10.35 2.3 -8.65 0.45 -7.85 -1.75 -8.0 -4.45 -8.2 -7.4 -9.3 -10.55 -10.65 -12.95 -9.35 -14.6 -8.5 -15.8 -6.45 L-17.0 -4.0 Q-20.05 -2.05 -20.1 -0.15 L-20.1 -0.05 -20.0 0.65 -19.9 1.1 Q-19.5 2.1 -18.45 2.35 -18.1 2.45 -17.7 2.75 L-17.4 4.1 -17.05 5.35 Q-16.0 8.5 -13.85 9.7 -12.0 10.8 -9.4 10.4 -6.1 10.1 -1.65 10.4 L6.5 11.25 11.4 10.95 12.6 10.35 13.1 10.0 13.5 9.65 13.7 9.45 14.0 9.05 14.45 8.2 14.95 6.7" fill="#e99700" fill-rule="evenodd" stroke="none"/>
    <path d="M11.4 10.95 L6.5 11.25 -1.65 10.4 Q-6.1 10.1 -9.4 10.4 -12.0 10.8 -13.85 9.7 -16.0 8.5 -17.05 5.35 L-17.4 4.1 -17.7 2.75 Q-18.1 2.45 -18.45 2.35 -19.5 2.1 -19.9 1.1 L-20.0 0.65 -20.1 -0.05 -20.1 -0.15 Q-20.05 -2.05 -17.0 -4.0 L-15.8 -6.45 Q-14.6 -8.5 -12.95 -9.35 -10.55 -10.65 -7.4 -9.3 -4.45 -8.2 -1.75 -8.0 0.45 -7.85 2.3 -8.65 6.35 -10.35 9.9 -9.55 11.25 -9.25 12.4 -7.7 13.35 -6.4 14.1 -4.3 15.45 -3.45 17.8 -2.15 20.55 -0.75 20.45 0.9 19.7 2.65 17.95 3.6 L15.2 5.15 14.95 6.55 14.95 6.7 14.9 6.7 14.4 8.25 14.0 9.05 13.7 9.45 13.5 9.65 13.1 10.0 12.65 10.3 11.4 10.95" fill="#f9e300" fill-rule="evenodd" stroke="none"/>
  </g>
</svg>
