<?xml version="1.0" encoding="UTF-8" standalone="no"?>
<svg xmlns:xlink="http://www.w3.org/1999/xlink" height="42.85px" width="72.5px" xmlns="http://www.w3.org/2000/svg">
  <g transform="matrix(1.0, 0.0, 0.0, 1.0, 33.85, 20.15)">
    <path d="M-21.6 -18.45 Q-17.0 -21.65 -10.85 -18.75 -6.0 -16.6 -1.5 -16.05 2.85 -15.6 6.45 -17.35 13.65 -20.75 19.95 -19.2 22.55 -18.6 24.65 -15.2 26.3 -12.6 27.6 -8.7 L34.0 -4.3 Q38.8 -1.45 38.65 1.75 L38.35 3.0 Q37.45 5.1 34.25 7.05 L29.4 10.2 Q28.9 17.2 25.0 20.35 21.05 23.5 13.8 22.45 L-1.45 20.8 Q-9.05 20.25 -14.7 21.0 -20.2 22.0 -23.8 18.85 -26.75 16.25 -28.4 10.9 -29.25 8.2 -29.6 5.55 -30.35 5.05 -30.9 4.85 -33.75 4.05 -33.85 -0.25 L-33.85 -0.35 Q-33.65 -4.2 -28.25 -8.25 -27.45 -10.75 -26.1 -13.15 -24.15 -16.7 -21.6 -18.45 M16.65 9.2 L17.05 7.65 19.75 5.5 Q21.4 4.3 22.2 2.2 22.3 0.1 19.8 -1.8 L16.3 -4.7 Q15.5 -7.0 14.35 -8.55 13.1 -10.25 11.65 -10.85 L3.2 -11.2 -1.4 -10.9 Q-4.6 -11.2 -7.85 -12.0 -11.3 -12.95 -13.95 -11.25 -15.75 -10.1 -17.1 -7.9 L-18.45 -5.1 Q-21.35 -2.8 -21.55 -0.45 L-21.55 -0.4 -21.45 0.45 -21.4 0.95 Q-21.1 2.1 -20.15 2.6 L-19.5 3.2 -19.2 4.75 -18.85 6.15 Q-17.8 9.6 -15.6 11.3 -13.65 12.85 -10.95 13.0 L-2.3 14.0 4.6 14.7 6.9 14.85 10.05 14.75 12.65 14.0 13.2 13.75 13.7 13.4 Q15.05 12.5 15.9 11.0 L16.65 9.2" fill="#e58400" fill-rule="evenodd" stroke="none"/>
    <path d="M4.6 14.7 L-2.3 14.0 -10.95 13.0 Q-13.65 12.85 -15.6 11.3 -17.8 9.6 -18.85 6.15 L-19.2 4.75 -19.5 3.2 -20.15 2.6 Q-21.1 2.1 -21.4 0.95 L-21.45 0.45 -21.55 -0.4 -21.55 -0.45 Q-21.35 -2.8 -18.45 -5.1 L-17.1 -7.9 Q-15.75 -10.1 -13.95 -11.25 -11.3 -12.95 -7.85 -12.0 -4.6 -11.2 -1.4 -10.9 L3.2 -11.2 11.65 -10.85 Q13.1 -10.25 14.35 -8.55 15.5 -7.0 16.3 -4.7 L19.8 -1.8 Q22.3 0.1 22.2 2.2 21.4 4.3 19.75 5.5 L17.05 7.65 16.65 9.2 16.55 9.35 15.8 11.1 Q15.05 12.45 13.75 13.35 L13.2 13.75 12.65 14.0 10.05 14.75 6.95 14.8 4.6 14.7" fill="#f3c600" fill-rule="evenodd" stroke="none"/>
  </g>
</svg>
