<?xml version="1.0" encoding="UTF-8" standalone="no"?>
<svg xmlns:xlink="http://www.w3.org/1999/xlink" height="46.45px" width="71.55px" xmlns="http://www.w3.org/2000/svg">
  <g transform="matrix(1.0, 0.0, 0.0, 1.0, 33.5, 21.4)">
    <path d="M-21.5 -19.35 Q-16.9 -22.75 -10.75 -20.5 -5.9 -18.85 -1.15 -18.25 3.2 -17.7 6.95 -18.95 14.25 -21.45 20.45 -19.3 23.05 -18.4 25.15 -15.1 26.9 -12.4 28.15 -8.55 30.45 -6.45 34.0 -3.5 38.2 -0.45 38.05 3.05 L37.75 4.35 Q36.9 6.6 34.0 8.7 L29.5 12.3 Q28.65 19.1 24.5 22.4 20.4 25.65 13.25 24.95 L-2.25 23.4 -15.55 22.55 Q-20.9 22.85 -24.35 19.4 -27.25 16.5 -28.8 11.2 L-29.95 5.75 -31.1 4.9 Q-33.5 3.65 -33.5 -0.6 L-33.5 -0.65 Q-33.2 -4.75 -28.35 -8.9 -27.45 -11.5 -26.05 -13.85 -24.1 -17.4 -21.5 -19.35 M18.3 11.85 L18.85 10.15 21.6 7.4 Q23.15 5.95 23.9 3.45 24.1 0.9 21.85 -1.4 L18.5 -5.1 Q17.6 -7.55 16.3 -9.4 15.0 -11.25 13.35 -12.1 9.2 -14.2 4.05 -13.7 1.65 -13.5 -1.1 -13.8 L-8.35 -14.65 Q-12.05 -15.2 -15.0 -13.15 -16.95 -11.75 -18.4 -9.3 -19.35 -7.85 -19.95 -6.15 -22.7 -3.55 -22.95 -0.75 L-22.95 -0.7 -22.95 0.25 -22.9 0.8 Q-22.65 2.1 -21.85 2.8 L-21.25 3.65 -21.0 5.35 -20.65 6.95 Q-19.6 10.75 -17.35 12.9 -15.3 14.95 -12.45 15.55 -8.55 16.75 -3.0 17.55 L7.35 18.4 7.8 18.4 14.1 16.9 14.8 16.45 Q16.35 15.4 17.3 13.85 L18.3 11.85" fill="#e17100" fill-rule="evenodd" stroke="none"/>
    <path d="M14.1 16.9 L7.8 18.4 7.35 18.4 -3.0 17.55 Q-8.55 16.75 -12.45 15.55 -15.3 14.95 -17.35 12.9 -19.6 10.75 -20.65 6.95 L-21.0 5.35 -21.25 3.65 -21.85 2.8 Q-22.65 2.1 -22.9 0.8 L-22.95 0.25 -22.95 -0.7 -22.95 -0.75 Q-22.7 -3.55 -19.95 -6.15 -19.35 -7.85 -18.4 -9.3 -16.95 -11.75 -15.0 -13.15 -12.05 -15.2 -8.35 -14.65 L-1.1 -13.8 Q1.65 -13.5 4.05 -13.7 9.2 -14.2 13.35 -12.1 15.0 -11.25 16.3 -9.4 17.6 -7.55 18.5 -5.1 L21.85 -1.4 Q24.1 0.9 23.9 3.45 23.15 5.95 21.6 7.4 L18.85 10.15 18.3 11.85 18.15 12.05 17.2 13.9 Q16.3 15.4 14.85 16.4 L14.1 16.9" fill="#edaa00" fill-rule="evenodd" stroke="none"/>
  </g>
</svg>
