<?xml version="1.0" encoding="UTF-8" standalone="no"?>
<svg xmlns:xlink="http://www.w3.org/1999/xlink" height="50.25px" width="70.55px" xmlns="http://www.w3.org/2000/svg">
  <g transform="matrix(1.0, 0.0, 0.0, 1.0, 33.15, 22.75)">
    <path d="M-21.45 -20.2 Q-16.75 -23.85 -10.7 -22.25 -5.75 -21.1 -0.85 -20.4 3.6 -19.8 7.4 -20.6 14.85 -22.15 21.0 -19.4 23.55 -18.25 25.65 -15.0 27.45 -12.2 28.75 -8.4 L34.0 -2.75 Q37.65 0.6 37.4 4.35 L37.15 5.65 Q36.35 8.1 33.8 10.35 L29.6 14.4 Q28.35 21.05 24.0 24.45 19.7 27.8 12.7 27.45 L-3.05 26.0 -16.4 24.1 Q-21.55 23.7 -24.95 19.9 -27.75 16.75 -29.2 11.5 -30.0 8.7 -30.3 5.9 L-31.25 4.95 Q-33.25 3.25 -33.15 -0.95 L-33.15 -1.0 Q-32.8 -5.35 -28.4 -9.6 L-26.05 -14.6 Q-24.05 -18.1 -21.45 -20.2 M19.95 14.5 L20.7 12.65 23.45 9.3 Q24.9 7.6 25.6 4.75 25.9 1.7 23.9 -1.05 L20.7 -5.5 Q19.7 -8.15 18.25 -10.25 16.85 -12.25 15.1 -13.35 10.65 -16.15 4.9 -16.25 L-0.8 -16.7 -8.8 -17.3 Q-12.8 -17.5 -16.0 -15.05 -18.15 -13.4 -19.7 -10.75 L-21.45 -7.25 Q-24.05 -4.3 -24.4 -1.05 L-24.4 -1.0 -24.4 0.05 -24.4 0.65 Q-24.2 2.1 -23.55 3.05 L-23.05 4.1 -22.8 6.0 -22.45 7.75 Q-21.4 11.85 -19.1 14.5 -16.95 17.0 -14.0 18.1 -9.75 20.05 -3.7 21.1 L7.75 22.0 7.8 22.0 15.05 20.05 15.9 19.5 Q17.6 18.3 18.75 16.65 L19.95 14.5" fill="#dd5e00" fill-rule="evenodd" stroke="none"/>
    <path d="M15.05 20.05 L7.8 22.0 7.75 22.0 -3.7 21.1 Q-9.75 20.05 -14.0 18.1 -16.95 17.0 -19.1 14.5 -21.4 11.85 -22.45 7.75 L-22.8 6.0 -23.05 4.1 -23.55 3.05 Q-24.2 2.1 -24.4 0.65 L-24.4 0.05 -24.4 -1.0 -24.4 -1.05 Q-24.05 -4.3 -21.45 -7.25 L-19.7 -10.75 Q-18.15 -13.4 -16.0 -15.05 -12.8 -17.5 -8.8 -17.3 L-0.8 -16.7 4.9 -16.25 Q10.65 -16.15 15.1 -13.35 16.85 -12.25 18.25 -10.25 19.7 -8.15 20.7 -5.5 L23.9 -1.05 Q25.9 1.7 25.6 4.75 24.9 7.6 23.45 9.3 L20.7 12.65 19.95 14.5 19.8 14.7 18.6 16.75 Q17.55 18.35 15.95 19.45 L15.05 20.05" fill="#e78e00" fill-rule="evenodd" stroke="none"/>
  </g>
</svg>
