<?xml version="1.0" encoding="UTF-8" standalone="no"?>
<svg xmlns:xlink="http://www.w3.org/1999/xlink" height="54.05px" width="69.65px" xmlns="http://www.w3.org/2000/svg">
  <g transform="matrix(1.0, 0.0, 0.0, 1.0, 32.85, 24.15)">
    <path d="M21.5 -19.55 Q24.05 -18.1 26.1 -14.85 28.0 -12.0 29.35 -8.3 L34.05 -1.95 Q37.05 1.65 36.75 5.6 L36.5 6.95 Q35.8 9.6 33.55 12.05 L29.65 16.5 Q28.05 22.95 23.45 26.5 19.0 30.0 12.2 29.9 4.25 30.0 -3.9 28.55 -11.65 27.35 -17.25 25.65 -22.25 24.6 -25.5 20.45 -28.2 16.95 -29.6 11.75 -30.35 8.9 -30.6 6.1 L-31.4 4.95 Q-33.05 2.9 -32.85 -1.25 L-32.85 -1.3 Q-32.35 -5.95 -28.45 -10.3 -27.5 -12.95 -26.05 -15.35 -24.05 -18.85 -21.35 -21.05 -16.65 -24.9 -10.6 -23.95 L-0.5 -22.55 7.85 -22.25 Q15.45 -22.9 21.5 -19.55 M21.65 17.1 L22.55 15.1 25.25 11.25 Q26.6 9.25 27.35 6.0 27.65 2.55 25.9 -0.65 L22.95 -5.9 Q21.85 -8.75 20.25 -11.05 18.7 -13.3 16.85 -14.65 12.1 -18.05 5.8 -18.8 L-0.45 -19.6 -9.3 -20.0 Q-13.55 -19.8 -17.0 -16.9 -19.3 -15.0 -21.05 -12.15 L-22.9 -8.3 Q-25.35 -5.05 -25.8 -1.4 L-25.8 -1.35 -25.85 -0.7 -25.85 -0.2 -25.85 0.55 Q-25.8 2.15 -25.25 3.3 L-24.85 4.55 -24.6 6.65 -24.25 8.55 Q-23.25 12.95 -20.8 16.15 -18.65 19.1 -15.5 20.7 -10.95 23.35 -4.35 24.7 L5.15 25.75 8.15 25.6 Q10.75 25.4 13.0 24.65 L17.05 22.5 Q18.85 21.25 20.2 19.45 L21.65 17.1" fill="#da4c00" fill-rule="evenodd" stroke="none"/>
    <path d="M-25.8 -1.35 L-25.8 -1.4 Q-25.35 -5.05 -22.9 -8.3 L-21.05 -12.15 Q-19.3 -15.0 -17.0 -16.9 -13.55 -19.8 -9.3 -20.0 L-0.45 -19.6 5.8 -18.8 Q12.1 -18.05 16.85 -14.65 18.7 -13.3 20.25 -11.05 21.85 -8.75 22.95 -5.9 L25.9 -0.65 Q27.65 2.55 27.35 6.0 26.6 9.25 25.25 11.25 L22.55 15.1 21.65 17.1 21.4 17.4 20.0 19.6 Q18.75 21.25 17.05 22.5 L13.0 24.65 Q10.75 25.4 8.15 25.6 L5.15 25.75 -4.35 24.7 Q-10.95 23.35 -15.5 20.7 -18.65 19.1 -20.8 16.15 -23.25 12.95 -24.25 8.55 L-24.6 6.65 -24.85 4.55 -25.25 3.3 Q-25.8 2.15 -25.85 0.55 L-25.85 -0.2 -25.85 -0.7 -25.8 -1.25 -25.8 -1.35" fill="#e27100" fill-rule="evenodd" stroke="none"/>
  </g>
</svg>
