<?xml version="1.0" encoding="UTF-8" standalone="no"?>
<svg xmlns:xlink="http://www.w3.org/1999/xlink" height="58.2px" width="68.7px" xmlns="http://www.w3.org/2000/svg">
  <g transform="matrix(1.0, 0.0, 0.0, 1.0, 32.55, 25.7)">
    <path d="M22.05 -19.65 Q24.55 -17.95 26.6 -14.75 28.55 -11.8 29.95 -8.15 L34.05 -1.2 Q36.5 2.7 36.1 6.9 L35.9 8.25 Q35.25 11.1 33.35 13.7 31.75 16.3 29.75 18.6 27.75 24.9 22.95 28.55 18.3 32.15 11.65 32.4 3.75 32.85 -4.7 31.15 -12.5 29.7 -18.1 27.2 -22.9 25.45 -26.1 20.95 -28.7 17.2 -30.0 12.05 -30.75 9.15 -30.95 6.25 L-31.55 5.0 Q-32.8 2.5 -32.5 -1.6 L-32.5 -1.65 Q-31.95 -6.55 -28.5 -11.0 L-26.05 -16.1 Q-24.0 -19.55 -21.3 -21.9 -16.5 -26.0 -10.55 -25.7 L-0.2 -24.7 8.3 -23.9 Q16.05 -23.6 22.05 -19.65 M23.3 19.75 L24.4 17.6 Q25.95 15.5 27.1 13.15 28.35 10.9 29.05 7.3 29.45 3.35 27.95 -0.3 L25.15 -6.3 Q23.95 -9.35 22.2 -11.9 20.55 -14.3 18.6 -15.9 13.55 -20.0 6.65 -21.35 L-0.15 -22.5 Q-5.2 -23.3 -9.75 -22.65 -14.3 -22.1 -18.0 -18.8 -20.5 -16.65 -22.35 -13.6 L-24.4 -9.4 Q-26.7 -5.8 -27.25 -1.7 L-27.25 -1.65 -27.25 -1.15 -27.3 -0.4 -27.35 0.4 Q-27.35 2.15 -26.95 3.55 L-26.65 5.0 -26.4 7.3 -26.05 9.35 Q-25.05 14.05 -22.55 17.75 -20.3 21.15 -17.05 23.25 -12.15 26.65 -5.05 28.25 L5.3 29.4 8.55 29.2 11.3 28.75 18.15 25.55 19.9 24.1 21.65 22.25 23.3 19.75" fill="#d63900" fill-rule="evenodd" stroke="none"/>
    <path d="M-27.25 -1.65 L-27.25 -1.7 Q-26.7 -5.8 -24.4 -9.4 L-22.35 -13.6 Q-20.5 -16.65 -18.0 -18.8 -14.3 -22.1 -9.75 -22.65 -5.2 -23.3 -0.15 -22.5 L6.65 -21.35 Q13.55 -20.0 18.6 -15.9 20.55 -14.3 22.2 -11.9 23.95 -9.35 25.15 -6.3 L27.95 -0.3 Q29.45 3.35 29.05 7.3 28.35 10.9 27.1 13.15 25.95 15.5 24.4 17.6 L23.3 19.75 23.05 20.05 21.4 22.45 19.9 24.1 18.15 25.55 11.3 28.75 8.65 29.15 5.3 29.4 -5.05 28.25 Q-12.15 26.65 -17.05 23.25 -20.3 21.15 -22.55 17.75 -25.05 14.05 -26.05 9.35 L-26.4 7.3 -26.65 5.0 -26.95 3.55 Q-27.35 2.15 -27.35 0.4 L-27.3 -0.4 -27.25 -1.15 -27.25 -1.55 -27.25 -1.65" fill="#dc5500" fill-rule="evenodd" stroke="none"/>
  </g>
</svg>
