<?xml version="1.0" encoding="UTF-8" standalone="no"?>
<svg xmlns:xlink="http://www.w3.org/1999/xlink" height="40.5px" width="54.55px" xmlns="http://www.w3.org/2000/svg">
  <g transform="matrix(1.0, 0.0, 0.0, 1.0, 21.65, 17.7)">
    <path d="M13.35 -12.7 L18.35 -5.55 Q19.65 -3.95 21.45 -2.7 L24.4 -0.7 Q26.4 0.5 27.9 2.35 28.4 3.0 28.55 3.95 28.85 5.15 27.95 6.4 L26.6 7.4 29.35 8.75 Q30.85 9.55 31.9 10.9 32.9 12.15 32.9 13.85 32.85 16.25 31.9 18.5 L31.0 20.1 Q30.3 21.25 28.95 21.45 L28.4 21.0 28.5 20.3 Q28.65 18.8 28.25 17.2 27.9 15.6 26.8 14.55 25.75 13.4 24.2 12.8 21.7 11.95 19.25 11.65 L18.85 12.85 Q18.15 14.6 16.9 15.8 L14.8 17.65 Q12.85 19.05 10.35 19.6 L5.85 20.35 5.2 20.2 7.2 18.75 10.3 16.75 Q11.85 15.8 12.9 14.55 L13.55 13.0 Q13.7 11.25 12.55 9.9 11.05 11.75 10.0 12.4 L9.35 12.8 8.65 14.75 8.15 15.6 7.4 16.1 7.15 16.2 6.5 15.55 6.75 14.35 4.7 17.55 Q3.95 18.85 3.45 20.3 L2.8 21.95 2.25 22.8 1.9 22.0 Q1.05 19.55 1.35 16.9 1.55 14.9 2.0 13.05 2.5 11.05 4.05 9.6 L3.15 7.65 Q2.5 6.25 2.3 5.0 L1.95 8.6 1.2 11.5 -0.05 13.65 Q-0.85 14.45 -1.95 14.6 L-2.65 14.4 -2.9 16.25 Q-3.05 17.5 -3.85 18.4 L-5.7 20.1 Q-6.85 21.0 -9.65 22.6 L-8.35 20.65 Q-7.75 19.9 -7.5 18.85 -7.25 17.55 -7.6 16.55 L-7.9 15.65 -10.85 15.65 Q-12.65 15.35 -14.0 14.0 L-14.35 13.5 -9.65 11.85 -10.7 9.45 -11.45 6.6 -13.9 9.05 -16.25 11.7 -17.1 13.4 -17.75 17.7 -17.0 18.85 -18.3 19.1 Q-19.35 18.85 -20.0 18.1 -21.25 16.6 -21.5 14.85 -21.95 12.3 -21.05 10.3 -20.4 8.9 -19.3 7.7 L-17.05 5.45 Q-17.55 5.25 -18.0 5.0 -18.7 4.6 -19.0 3.85 -19.7 2.45 -19.4 1.05 L-18.55 -1.7 -16.8 -4.85 Q-15.5 -6.65 -13.5 -7.95 L-10.1 -10.05 -3.15 -14.05 -0.25 -15.8 Q2.4 -17.25 5.35 -17.7 7.0 -17.6 8.5 -16.85 L10.55 -15.75 13.35 -12.7 M12.65 -11.5 Q8.95 -15.2 7.9 -15.5 6.05 -16.85 2.9 -15.75 0.8 -15.05 -3.1 -12.6 L-6.55 -10.55 Q-13.8 -6.2 -14.45 -5.65 -15.95 -4.4 -16.75 -2.65 -17.8 -0.5 -18.55 2.0 L-17.9 2.8 Q-17.5 3.4 -16.0 4.35 L-15.8 2.65 -16.95 1.7 -9.6 1.3 Q-4.55 -0.1 0.8 -0.65 L5.8 -1.15 9.85 -0.15 12.15 0.8 14.05 1.75 Q16.65 3.15 19.35 4.0 L22.15 4.2 21.55 5.1 22.7 6.05 24.25 6.8 26.65 5.4 Q27.65 4.6 27.25 3.7 26.4 2.2 24.95 1.4 L20.75 -1.4 17.9 -4.2 12.65 -11.5 M17.65 9.8 L19.3 10.4 24.7 11.55 Q26.35 12.0 27.5 13.2 29.25 15.05 29.7 17.6 L29.85 18.7 Q31.75 15.65 31.75 14.9 31.5 11.0 28.05 9.55 L21.5 6.7 19.95 5.45 17.1 5.2 16.4 4.95 Q15.95 5.75 15.85 6.5 15.7 7.85 16.7 8.95 L17.65 9.8 M11.4 3.25 L12.15 2.1 9.65 1.2 9.25 1.7 9.25 3.4 Q9.1 4.7 8.45 5.85 L7.7 6.85 9.55 11.35 12.1 9.15 10.8 6.9 11.0 4.55 11.4 3.25 M12.5 4.7 L12.3 5.7 Q12.25 6.4 12.55 7.1 L14.6 12.0 Q15.05 12.7 13.6 15.25 12.85 16.75 11.4 17.75 L14.5 15.7 Q15.45 14.9 17.9 11.35 15.55 10.75 15.0 8.6 L14.85 7.7 14.85 6.45 Q14.9 5.25 15.25 4.15 L13.65 2.95 12.5 4.7 M3.65 2.55 L3.65 4.15 4.6 7.2 Q5.55 9.8 6.2 10.85 L7.55 13.45 8.2 11.8 Q6.3 8.35 6.55 4.6 6.7 3.5 7.2 2.55 L8.2 0.95 4.3 0.45 Q3.75 1.45 3.65 2.55 M-1.7 2.55 Q-2.65 5.25 -3.0 8.1 -3.1 8.7 -3.75 9.15 L-2.95 12.15 -2.65 13.9 -0.7 12.45 Q0.6 11.5 0.75 9.9 L1.0 4.35 1.85 2.35 2.7 0.4 -0.75 0.45 -1.7 2.55 M5.3 14.8 L6.65 13.7 4.85 10.6 4.2 11.75 Q3.3 13.45 2.7 15.45 2.1 17.2 2.4 19.0 3.45 16.55 5.3 14.8 M-3.4 3.05 Q-5.1 5.0 -4.35 7.35 L-4.1 8.3 -3.65 4.45 -3.4 3.05 M-4.7 2.75 L-3.7 0.95 -7.6 1.9 Q-8.15 3.25 -9.25 4.35 L-10.25 5.3 -9.9 8.6 -8.7 10.95 -7.45 12.75 Q-5.95 14.85 -6.1 17.65 L-6.3 19.25 Q-4.0 17.7 -3.85 14.95 -3.55 11.4 -5.3 8.4 -6.45 6.45 -5.45 4.25 L-4.7 2.75 M-10.9 4.15 L-9.2 2.3 Q-10.95 2.9 -14.3 2.9 L-14.95 4.7 Q-16.0 6.8 -17.85 8.5 -19.0 9.65 -19.7 11.2 -20.1 12.15 -20.0 13.3 -20.0 15.05 -19.0 16.45 -19.2 13.15 -17.15 10.6 L-10.9 4.15 M-9.15 12.6 Q-10.4 13.4 -12.45 13.8 L-8.15 14.25 -9.15 12.6" fill="#2b2b2f" fill-rule="evenodd" stroke="none"/>
    <path d="M12.65 -11.5 L17.9 -4.2 20.75 -1.4 24.95 1.4 Q26.4 2.2 27.25 3.7 27.65 4.6 26.65 5.4 L24.25 6.8 22.7 6.05 22.9 4.6 25.2 4.45 25.2 3.95 12.55 0.75 12.15 0.8 9.85 -0.15 5.8 -1.15 0.8 -0.65 Q-4.55 -0.1 -9.6 1.3 L-16.95 1.7 -15.8 2.65 -16.0 4.35 Q-17.5 3.4 -17.9 2.8 -17.45 1.55 -16.7 0.45 -14.65 -2.75 -10.95 -3.5 L-2.9 -4.2 Q-1.0 -4.15 0.45 -5.1 L-1.45 -4.75 -8.75 -5.25 -3.4 -6.5 -0.25 -6.6 Q2.0 -6.6 4.0 -5.75 L9.65 -3.35 6.45 -3.6 10.9 -2.15 17.35 -1.9 Q15.25 -4.7 13.8 -7.4 12.7 -9.3 12.65 -11.5 M21.5 6.7 L28.05 9.55 Q31.5 11.0 31.75 14.9 31.75 15.65 29.85 18.7 L29.7 17.6 Q29.25 15.05 27.5 13.2 26.35 12.0 24.7 11.55 L19.3 10.4 17.65 9.8 18.3 8.25 19.7 7.1 21.5 6.7 M9.25 3.4 L11.25 3.6 11.4 3.25 11.0 4.55 10.8 6.9 12.1 9.15 9.55 11.35 7.7 6.85 8.45 5.85 Q9.1 4.7 9.25 3.4 M12.5 4.7 L13.1 5.8 Q13.85 7.05 14.85 7.7 L15.0 8.6 Q15.55 10.75 17.9 11.35 15.45 14.9 14.5 15.7 L11.4 17.75 Q12.85 16.75 13.6 15.25 15.05 12.7 14.6 12.0 L12.55 7.1 Q12.25 6.4 12.3 5.7 L12.5 4.7 M7.2 2.55 Q6.7 3.5 6.55 4.6 6.3 8.35 8.2 11.8 L7.55 13.45 6.2 10.85 Q5.55 9.8 4.6 7.2 L3.65 4.15 3.65 2.55 Q4.7 2.75 7.2 2.55 M1.85 2.35 L1.0 4.35 0.75 9.9 Q0.6 11.5 -0.7 12.45 L-2.65 13.9 -2.95 12.15 -3.75 9.15 Q-3.1 8.7 -3.0 8.1 -2.65 5.25 -1.7 2.55 L1.85 2.35 M5.3 14.8 Q3.45 16.55 2.4 19.0 2.1 17.2 2.7 15.45 3.3 13.45 4.2 11.75 L3.7 12.8 Q4.45 14.05 5.3 14.8 M-9.9 8.6 Q-9.35 8.25 -8.7 7.0 L-7.7 4.85 Q-6.95 3.85 -4.7 2.75 L-5.45 4.25 Q-6.45 6.45 -5.3 8.4 -3.55 11.4 -3.85 14.95 -4.0 17.7 -6.3 19.25 L-6.1 17.65 Q-5.95 14.85 -7.45 12.75 L-8.7 10.95 -9.9 8.6 M-14.95 4.7 L-10.9 4.15 -17.15 10.6 Q-19.2 13.15 -19.0 16.45 -20.0 15.05 -20.0 13.3 -20.1 12.15 -19.7 11.2 -19.0 9.65 -17.85 8.5 -16.0 6.8 -14.95 4.7" fill="#2b91bb" fill-rule="evenodd" stroke="none"/>
    <path d="M22.7 6.05 L21.55 5.1 22.15 4.2 19.35 4.0 Q16.65 3.15 14.05 1.75 L12.15 0.8 12.55 0.75 25.2 3.95 25.2 4.45 22.9 4.6 22.7 6.05 M17.65 9.8 L16.7 8.95 Q15.7 7.85 15.85 6.5 15.95 5.75 16.4 4.95 L17.1 5.2 19.95 5.45 21.5 6.7 19.7 7.1 18.3 8.25 17.65 9.8 M9.25 3.4 L9.25 1.7 9.65 1.2 12.15 2.1 11.4 3.25 11.25 3.6 9.25 3.4 M14.85 7.7 Q13.85 7.05 13.1 5.8 L12.5 4.7 13.65 2.95 15.25 4.15 Q14.9 5.25 14.85 6.45 L14.85 7.7 M3.65 2.55 Q3.75 1.45 4.3 0.45 L8.2 0.95 7.2 2.55 Q4.7 2.75 3.65 2.55 M-1.7 2.55 L-0.75 0.45 2.7 0.4 1.85 2.35 -1.7 2.55 M4.2 11.75 L4.85 10.6 6.65 13.7 5.3 14.8 Q4.45 14.05 3.7 12.8 L4.2 11.75 M-9.9 8.6 L-10.25 5.3 -9.25 4.35 Q-8.15 3.25 -7.6 1.9 L-3.7 0.95 -4.7 2.75 Q-6.95 3.85 -7.7 4.85 L-8.7 7.0 Q-9.35 8.25 -9.9 8.6 M-14.95 4.7 L-14.3 2.9 Q-10.95 2.9 -9.2 2.3 L-10.9 4.15 -14.95 4.7 M-9.15 12.6 L-8.15 14.25 -12.45 13.8 Q-10.4 13.4 -9.15 12.6" fill="#227ca2" fill-rule="evenodd" stroke="none"/>
    <path d="M-17.9 2.8 L-18.55 2.0 Q-17.8 -0.5 -16.75 -2.65 -15.95 -4.4 -14.45 -5.65 -13.8 -6.2 -6.55 -10.55 L-3.1 -12.6 Q0.8 -15.05 2.9 -15.75 6.05 -16.85 7.9 -15.5 8.95 -15.2 12.65 -11.5 12.7 -9.3 13.8 -7.4 15.25 -4.7 17.35 -1.9 L10.9 -2.15 6.45 -3.6 9.65 -3.35 4.0 -5.75 Q2.0 -6.6 -0.25 -6.6 L-3.4 -6.5 -8.75 -5.25 -1.45 -4.75 0.45 -5.1 Q-1.0 -4.15 -2.9 -4.2 L-10.95 -3.5 Q-14.65 -2.75 -16.7 0.45 -17.45 1.55 -17.9 2.8" fill="#5caccd" fill-rule="evenodd" stroke="none"/>
  </g>
</svg>
