<?xml version="1.0" encoding="UTF-8" standalone="no"?>
<svg xmlns:xlink="http://www.w3.org/1999/xlink" height="62.7px" width="67.85px" xmlns="http://www.w3.org/2000/svg">
  <g transform="matrix(1.0, 0.0, 0.0, 1.0, 32.3, 27.55)">
    <path d="M8.8 -25.5 Q16.65 -24.3 22.55 -19.75 25.05 -17.75 27.1 -14.65 29.15 -11.6 30.5 -8.0 32.5 -4.45 34.05 -0.4 35.9 3.7 35.5 8.2 L35.3 9.6 Q34.7 12.6 33.1 15.35 31.7 18.2 29.85 20.7 27.5 26.8 22.45 30.6 17.65 34.3 11.1 34.9 3.25 35.75 -5.5 33.75 -13.4 32.1 -18.95 28.75 -23.6 26.3 -26.65 21.5 -29.2 17.45 -30.4 12.35 -31.1 9.4 -31.3 6.45 L-31.75 5.05 Q-32.55 2.1 -32.15 -1.95 -31.5 -7.1 -28.6 -11.65 -27.5 -14.4 -26.0 -16.8 -23.95 -20.25 -21.2 -22.8 -16.4 -27.1 -10.45 -27.45 L0.15 -26.9 8.8 -25.5 M24.95 22.4 L26.2 20.1 Q27.8 17.75 28.95 15.05 30.1 12.55 30.75 8.55 31.25 4.15 30.0 0.1 28.9 -3.45 27.35 -6.7 26.05 -9.9 24.15 -12.75 22.45 -15.3 20.3 -17.15 14.95 -21.95 7.5 -23.85 L0.15 -25.4 Q-5.35 -26.35 -10.25 -25.3 -15.05 -24.35 -19.05 -20.7 -21.7 -18.3 -23.65 -15.0 -24.95 -12.9 -25.9 -10.45 -28.05 -6.55 -28.65 -2.0 L-28.65 -1.95 -28.7 -1.2 -28.8 -0.6 -28.85 0.25 -28.65 3.75 -28.4 5.45 -28.2 7.9 -27.85 10.15 Q-26.85 15.2 -24.3 19.35 -21.95 23.25 -18.55 25.8 -13.4 30.0 -5.75 31.8 -0.55 33.1 4.2 33.1 L8.4 32.85 9.05 32.75 9.75 32.65 18.7 29.0 18.85 28.9 18.95 28.8 19.1 28.7 19.25 28.6 20.7 27.45 23.05 25.1 24.95 22.4" fill="#d22600" fill-rule="evenodd" stroke="none"/>
    <path d="M-28.65 -1.95 L-28.65 -2.0 Q-28.05 -6.55 -25.9 -10.45 -24.95 -12.9 -23.65 -15.0 -21.7 -18.3 -19.05 -20.7 -15.05 -24.35 -10.25 -25.3 -5.35 -26.35 0.15 -25.4 L7.5 -23.85 Q14.95 -21.95 20.3 -17.15 22.45 -15.3 24.15 -12.75 26.05 -9.9 27.35 -6.7 28.9 -3.45 30.0 0.1 31.25 4.15 30.75 8.55 30.1 12.55 28.95 15.05 27.8 17.75 26.2 20.1 L24.95 22.4 24.65 22.75 22.8 25.25 20.7 27.45 19.25 28.6 19.1 28.7 18.95 28.8 18.85 28.9 18.7 29.0 9.75 32.65 9.0 32.75 8.4 32.85 4.2 33.1 Q-0.55 33.1 -5.75 31.8 -13.4 30.0 -18.55 25.8 -21.95 23.25 -24.3 19.35 -26.85 15.2 -27.85 10.15 L-28.2 7.9 -28.4 5.45 -28.65 3.75 -28.85 0.25 -28.8 -0.6 -28.7 -1.2 -28.65 -1.85 -28.65 -1.95" fill="#d63900" fill-rule="evenodd" stroke="none"/>
  </g>
</svg>
