<?xml version="1.0" encoding="UTF-8" standalone="no"?>
<svg xmlns:xlink="http://www.w3.org/1999/xlink" height="67.4px" width="67.1px" xmlns="http://www.w3.org/2000/svg">
  <g transform="matrix(1.0, 0.0, 0.0, 1.0, 32.1, 29.6)">
    <path d="M9.25 -27.15 Q17.25 -25.05 23.1 -19.85 25.55 -17.6 27.55 -14.55 29.7 -11.4 31.1 -7.9 33.0 -3.95 34.1 0.35 35.35 4.75 34.85 9.5 L34.65 10.9 Q34.15 14.1 32.9 17.0 31.7 20.1 29.95 22.8 27.2 28.75 21.95 32.65 16.95 36.45 10.6 37.4 2.75 38.6 -6.3 36.35 -14.25 34.45 -19.8 30.3 -24.25 27.2 -27.25 22.0 -29.65 17.7 -30.8 12.6 -31.5 9.65 -31.65 6.6 L-31.9 5.05 Q-32.35 1.75 -31.85 -2.25 L-31.85 -2.3 Q-31.1 -7.7 -28.65 -12.35 -27.55 -15.1 -26.0 -17.55 -23.95 -21.0 -21.15 -23.65 -16.25 -28.2 -10.4 -29.15 -5.25 -30.05 0.45 -29.05 L9.25 -27.15 M26.65 25.05 L28.05 22.6 Q29.7 19.95 30.75 16.95 31.8 14.2 32.5 9.85 33.0 5.0 32.0 0.45 31.15 -3.45 29.55 -7.1 28.2 -10.5 26.1 -13.6 24.3 -16.3 22.05 -18.45 16.4 -23.85 8.4 -26.4 4.7 -27.6 0.5 -28.3 -5.5 -29.35 -10.7 -28.0 -15.8 -26.65 -20.05 -22.6 -22.85 -19.9 -24.95 -16.45 -26.35 -14.15 -27.35 -11.55 -29.35 -7.3 -30.1 -2.3 L-30.25 -0.8 -30.35 0.1 -30.35 4.0 -30.2 5.9 -30.0 8.55 -29.65 10.95 Q-28.65 16.3 -26.05 20.95 -23.6 25.3 -20.1 28.4 -14.6 33.3 -6.4 35.4 L7.55 36.6 9.4 36.35 12.45 35.65 20.35 31.65 24.5 27.9 26.65 25.05" fill="#ce1300" fill-rule="evenodd" stroke="none"/>
    <path d="M-30.1 -2.3 Q-29.35 -7.3 -27.35 -11.55 -26.35 -14.15 -24.95 -16.45 -22.85 -19.9 -20.05 -22.6 -15.8 -26.65 -10.7 -28.0 -5.5 -29.35 0.5 -28.3 4.7 -27.6 8.4 -26.4 16.4 -23.85 22.05 -18.45 24.3 -16.3 26.1 -13.6 28.2 -10.5 29.55 -7.1 31.15 -3.45 32.0 0.45 33.0 5.0 32.5 9.85 31.8 14.2 30.75 16.95 29.7 19.95 28.05 22.6 L26.65 25.05 26.3 25.4 24.2 28.1 20.35 31.65 12.45 35.65 9.5 36.3 7.55 36.6 -6.4 35.4 Q-14.6 33.3 -20.1 28.4 -23.6 25.3 -26.05 20.95 -28.65 16.3 -29.65 10.95 L-30.0 8.55 -30.2 5.9 -30.35 4.0 -30.35 0.1 -30.25 -0.8 -30.1 -2.1 -30.1 -2.3" fill="#d01c00" fill-rule="evenodd" stroke="none"/>
  </g>
</svg>
