<?xml version="1.0" encoding="UTF-8" standalone="no"?>
<svg xmlns:xlink="http://www.w3.org/1999/xlink" height="25.55px" width="63.05px" xmlns="http://www.w3.org/2000/svg">
  <g transform="matrix(1.0, 0.0, 0.0, 1.0, 31.05, 13.4)">
    <path d="M9.15 -2.85 L0.95 0.75 Q9.0 -1.15 12.75 -0.45 L21.05 0.6 Q25.55 1.0 31.1 3.75 L32.0 4.5 Q31.85 6.35 29.85 6.85 23.15 8.4 16.15 8.45 L6.35 8.6 Q0.0 8.95 -5.75 10.75 -12.05 12.9 -18.6 11.8 -25.3 10.95 -30.0 6.3 -31.75 4.5 -30.6 2.25 -29.15 -0.5 -26.25 -1.75 -21.9 -3.85 -17.25 -5.05 L-11.75 -6.3 -21.65 -6.85 Q-25.4 -7.05 -27.35 -9.7 -28.0 -10.55 -27.1 -11.1 -21.25 -14.1 -14.2 -13.15 L-9.95 -13.15 Q-2.05 -13.25 5.8 -11.95 9.7 -11.4 12.25 -8.75 13.45 -7.45 12.6 -6.0 L12.0 -5.05 Q10.75 -3.55 9.15 -2.85" fill="#edaa00" fill-rule="evenodd" stroke="none"/>
  </g>
</svg>
