<?xml version="1.0" encoding="UTF-8" standalone="no"?>
<svg xmlns:xlink="http://www.w3.org/1999/xlink" height="28.55px" width="61.4px" xmlns="http://www.w3.org/2000/svg">
  <g transform="matrix(1.0, 0.0, 0.0, 1.0, 31.1, 15.2)">
    <path d="M9.3 -12.0 Q12.3 -11.05 14.35 -8.7 15.5 -7.4 14.8 -5.95 L14.3 -5.0 Q13.25 -3.45 11.9 -2.6 L4.65 1.7 6.85 1.55 Q12.25 1.05 14.8 2.05 17.95 3.1 21.65 3.85 23.95 4.35 26.5 5.7 L29.6 7.45 30.3 8.2 Q29.95 9.95 28.0 10.45 21.25 12.05 14.1 11.95 L9.55 11.9 4.25 11.75 Q-2.1 11.75 -7.7 12.8 L-14.5 13.3 -19.9 12.35 Q-26.1 10.85 -30.2 5.9 -31.75 4.0 -30.7 1.75 L-30.7 1.7 Q-29.35 -1.1 -26.7 -2.55 -22.65 -5.05 -18.15 -6.6 L-12.85 -8.25 -13.6 -8.4 -20.7 -9.4 Q-23.65 -9.75 -25.0 -12.15 -25.45 -12.9 -24.55 -13.4 L-20.2 -14.75 Q-16.05 -15.6 -11.55 -14.9 L-7.3 -14.65 Q0.65 -14.3 8.2 -12.35 L9.3 -12.0" fill="#e99700" fill-rule="evenodd" stroke="none"/>
  </g>
</svg>
