<?xml version="1.0" encoding="UTF-8" standalone="no"?>
<svg xmlns:xlink="http://www.w3.org/1999/xlink" height="32.6px" width="59.8px" xmlns="http://www.w3.org/2000/svg">
  <g transform="matrix(1.0, 0.0, 0.0, 1.0, 31.25, 17.1)">
    <path d="M11.65 -12.3 Q14.5 -11.1 16.5 -8.7 17.55 -7.35 17.0 -5.9 L16.65 -4.95 Q15.8 -3.35 14.65 -2.35 L8.35 2.65 10.25 2.85 Q14.85 3.1 16.9 4.55 19.4 6.05 22.25 7.1 L25.9 9.3 28.05 11.2 28.55 11.9 Q28.05 13.5 26.1 14.05 19.35 15.75 12.05 15.45 L7.5 15.25 2.2 14.95 Q-4.15 14.6 -9.65 14.85 L-16.15 14.45 Q-18.7 13.95 -21.2 12.85 -26.85 10.75 -30.45 5.45 -31.8 3.55 -30.8 1.25 L-30.8 1.15 Q-29.55 -1.75 -27.1 -3.4 -23.35 -6.25 -19.1 -8.15 L-13.95 -10.2 -14.5 -10.4 Q-17.05 -11.45 -19.75 -12.0 -21.9 -12.45 -22.65 -14.55 -22.9 -15.25 -22.0 -15.65 -19.9 -16.5 -17.6 -16.8 -13.35 -17.45 -8.85 -16.6 L-4.6 -16.2 Q3.3 -15.35 10.55 -12.75 L11.65 -12.3" fill="#e58400" fill-rule="evenodd" stroke="none"/>
  </g>
</svg>
