<?xml version="1.0" encoding="UTF-8" standalone="no"?>
<svg xmlns:xlink="http://www.w3.org/1999/xlink" height="38.0px" width="58.15px" xmlns="http://www.w3.org/2000/svg">
  <g transform="matrix(1.0, 0.0, 0.0, 1.0, 31.3, 18.95)">
    <path d="M14.0 -12.6 Q16.75 -11.2 18.6 -8.65 19.65 -7.35 19.25 -5.9 L18.95 -4.9 Q18.3 -3.25 17.35 -2.15 L12.1 3.6 13.65 4.2 Q17.5 5.2 18.95 7.1 20.85 8.95 22.9 10.35 L25.25 12.95 26.55 14.9 26.85 15.55 Q26.15 17.1 24.25 17.6 17.45 19.4 10.0 18.95 L5.4 18.65 0.1 18.1 -11.55 16.95 Q-14.8 16.75 -17.85 15.6 -20.25 14.75 -22.5 13.4 -27.65 10.6 -30.65 5.05 -31.8 3.05 -30.9 0.75 L-30.9 0.65 Q-29.75 -2.35 -27.55 -4.2 -24.1 -7.45 -20.0 -9.7 L-15.05 -12.15 -15.45 -12.45 Q-17.1 -13.8 -18.8 -14.55 -20.2 -15.15 -20.25 -17.0 -20.4 -17.6 -19.45 -17.95 L-14.95 -18.85 -6.2 -18.35 -1.95 -17.7 Q6.0 -16.4 12.95 -13.15 L14.0 -12.6" fill="#e17100" fill-rule="evenodd" stroke="none"/>
  </g>
</svg>
