<?xml version="1.0" encoding="UTF-8" standalone="no"?>
<svg xmlns:xlink="http://www.w3.org/1999/xlink" height="49.2px" width="55.6px" xmlns="http://www.w3.org/2000/svg">
  <g transform="matrix(1.0, 0.0, 0.0, 1.0, 31.5, 23.0)">
    <path d="M17.7 -13.95 L18.65 -13.25 Q21.15 -11.3 22.85 -8.6 23.75 -7.25 23.65 -5.8 L23.6 -4.75 22.85 -1.65 19.5 5.5 20.45 6.85 Q22.75 9.35 23.1 12.1 L24.1 16.9 24.0 20.2 23.5 22.35 23.4 22.95 Q22.4 24.25 20.5 24.8 13.6 26.75 5.9 26.0 L1.25 25.4 -4.05 24.45 Q-10.4 23.05 -15.45 21.05 -18.45 19.9 -21.15 17.95 L-25.05 14.45 Q-29.2 10.4 -31.1 4.2 -31.85 2.1 -31.1 -0.3 L-31.1 -0.45 Q-30.2 -3.6 -28.4 -5.85 -25.55 -9.85 -21.85 -12.85 L-17.3 -16.0 -17.3 -16.45 -16.9 -19.7 Q-16.7 -20.55 -15.55 -21.85 L-14.4 -22.5 -9.7 -23.0 Q-5.2 -22.95 -0.85 -21.8 L3.4 -20.75 Q11.35 -18.5 17.7 -13.95" fill="#da4c00" fill-rule="evenodd" stroke="none"/>
  </g>
</svg>
