<?xml version="1.0" encoding="UTF-8" standalone="no"?>
<svg xmlns:xlink="http://www.w3.org/1999/xlink" height="41.6px" width="58.5px" xmlns="http://www.w3.org/2000/svg">
  <g transform="matrix(1.0, 0.0, 0.0, 1.0, 33.25, 15.45)">
    <path d="M19.05 -15.25 Q20.9 -14.8 22.3 -13.25 23.35 -12.3 23.8 -10.85 24.7 -8.0 23.6 -5.05 L23.1 -3.35 Q21.85 0.75 21.85 2.55 21.85 5.7 23.6 7.8 25.25 9.9 25.25 11.2 25.25 15.1 19.85 15.15 15.9 15.1 13.85 14.05 L12.1 15.45 Q12.0 16.25 9.9 18.45 7.55 20.8 6.2 20.85 3.35 26.1 -2.05 26.15 -2.7 26.15 -2.7 25.55 -0.3 23.7 0.7 22.3 L-2.6 22.55 -5.55 22.45 -8.55 25.7 Q-9.2 25.7 -9.1 25.0 -9.1 23.6 -8.3 21.95 -11.1 21.9 -13.0 20.15 -14.55 18.75 -14.55 17.55 L-14.5 17.4 -6.05 17.75 -5.25 17.45 Q-2.5 14.25 -0.7 13.3 -0.95 11.35 -0.4 10.35 L-3.7 11.15 Q-6.7 14.25 -12.95 14.25 L-15.7 14.1 Q-18.8 15.75 -18.7 19.2 L-19.25 19.45 Q-20.4 19.4 -20.95 14.35 L-20.85 13.15 Q-22.65 13.45 -23.5 14.6 L-24.85 16.2 -25.35 15.75 Q-25.35 12.45 -22.7 11.1 -22.1 10.5 -19.8 10.25 -19.7 7.6 -15.5 6.65 -17.0 6.05 -17.35 5.25 -20.25 7.2 -24.8 7.2 -30.0 7.2 -32.05 4.65 -33.25 3.2 -33.25 1.55 L-33.05 0.25 -31.35 2.35 Q-29.7 4.0 -26.95 4.0 -23.9 4.0 -20.8 0.65 -21.7 0.0 -21.4 -2.4 -21.35 -7.95 -18.8 -7.95 -18.35 -7.95 -18.35 -7.4 -18.35 -6.95 -18.7 -5.05 -18.75 -4.35 -18.3 -3.85 L-17.75 -3.1 -17.0 -3.85 -14.6 -5.6 Q-16.55 -6.8 -16.55 -8.35 -16.55 -10.7 -12.65 -11.25 -10.25 -11.6 1.05 -11.6 4.65 -11.6 8.25 -12.8 11.7 -14.2 15.2 -15.2 17.1 -15.7 19.05 -15.25 M21.7 -12.25 L20.85 -12.8 Q18.1 -14.55 14.85 -13.9 12.4 -13.45 8.25 -11.7 4.95 -10.3 3.05 -10.35 -2.1 -10.6 -9.45 -10.25 -13.05 -9.95 -14.4 -9.1 -15.3 -8.6 -15.25 -7.9 -15.3 -7.15 -13.0 -6.05 L-8.7 -5.4 -11.35 -6.75 -10.7 -6.85 Q-8.55 -6.85 -6.45 -5.55 -4.5 -4.35 -3.05 -2.9 L1.0 1.85 Q7.2 8.7 16.6 8.7 L16.85 8.8 Q19.35 9.1 20.25 10.0 L20.25 10.05 20.25 10.25 19.7 10.4 14.8 10.15 14.95 11.8 14.95 11.85 14.35 13.45 14.4 13.45 15.4 13.6 19.7 13.8 Q24.25 13.75 23.9 11.25 L22.2 8.25 Q20.5 5.35 20.55 2.5 20.5 0.75 22.3 -5.05 23.45 -7.45 23.1 -9.95 22.95 -10.85 21.7 -12.25 M13.8 12.15 L13.95 10.2 9.6 9.5 8.8 10.15 Q7.35 11.45 7.35 12.6 7.35 14.0 7.6 15.25 12.35 13.9 13.5 12.65 L13.8 12.15 M-0.95 4.9 Q-0.05 3.85 0.9 3.75 L0.8 3.6 -1.75 0.25 Q-3.1 1.2 -4.9 1.2 -5.85 2.0 -6.3 2.95 L-7.35 6.15 Q-8.45 10.15 -14.7 11.85 L-17.15 11.5 -19.45 11.15 Q-23.7 11.15 -24.05 13.85 -23.3 12.05 -20.1 12.05 L-17.55 12.55 -12.95 13.05 Q-6.6 13.0 -3.25 8.35 L-0.95 4.9 M6.55 18.25 L6.75 15.45 6.45 12.6 Q6.45 11.15 6.85 10.2 L8.0 8.85 5.65 7.65 4.75 8.4 4.75 8.45 1.95 10.3 Q0.75 11.5 0.75 12.7 0.75 15.25 1.55 17.95 2.25 20.2 2.15 21.85 2.05 22.8 0.0 24.55 L1.05 24.05 Q5.95 20.4 6.55 18.25 M1.7 8.25 L4.85 7.15 Q2.85 5.85 1.5 4.45 0.8 4.9 0.0 5.95 L-2.45 9.45 -2.6 9.75 1.7 8.25 M7.9 16.3 L7.1 18.85 10.55 15.95 7.75 15.9 7.9 16.3 M0.3 17.25 Q0.25 17.15 -1.8 18.8 -2.95 19.7 -4.7 21.55 L1.3 20.85 Q1.0 18.85 0.3 17.25 M-19.4 -6.0 Q-20.2 -4.9 -20.2 -1.6 L-19.95 -0.4 -19.5 -0.95 -18.45 -2.3 Q-18.95 -2.75 -19.25 -3.8 -19.6 -5.2 -19.4 -6.0 M-4.5 -0.7 L-2.6 -0.75 Q-4.65 -3.05 -5.05 -3.05 L-6.5 -4.0 -12.95 -4.75 -13.1 -4.8 -13.25 -4.8 Q-14.85 -4.7 -16.25 -3.25 L-18.85 0.2 Q-22.4 5.2 -26.95 5.2 L-29.1 4.95 Q-27.25 6.0 -24.95 6.0 -20.9 5.95 -19.0 4.9 L-16.6 2.65 Q-13.75 -0.35 -4.5 -0.7 M-10.6 6.1 L-8.35 5.95 -7.8 3.05 -10.0 3.0 -12.7 2.35 -13.6 1.85 Q-14.4 2.3 -15.35 3.5 L-16.65 4.75 -13.85 6.0 -10.6 6.1 M-6.7 1.05 L-12.3 1.25 -7.35 2.0 -6.7 1.05 M-9.15 7.1 L-9.0 6.95 -9.35 7.0 -10.6 7.1 -10.9 7.1 -10.6 7.1 -14.2 6.95 -15.95 8.05 -15.9 8.05 -18.4 10.1 -17.6 10.1 -15.8 10.6 -13.45 10.05 -9.1 7.1 -9.15 7.1 M-7.3 20.1 L-6.45 18.95 -6.6 18.95 -12.7 18.2 -13.35 18.0 -12.45 19.0 -11.4 19.9 -7.9 21.1 -7.3 20.1 M-20.1 13.05 L-20.05 13.85 -19.75 16.1 Q-18.7 14.3 -17.45 13.8 L-19.4 13.05 -20.1 13.05 M-0.6 14.25 Q-3.75 16.6 -6.25 20.45 L-6.25 20.5 Q-9.1 24.85 -5.4 20.7 -1.7 16.5 -0.1 16.25 L-0.6 14.25" fill="#000000" fill-rule="evenodd" stroke="none"/>
    <path d="M-14.4 -9.1 L-11.35 -9.2 -7.8 -8.3 Q-4.65 -7.95 -0.1 -5.25 L4.4 -1.0 Q8.15 2.2 11.75 2.2 L13.0 1.8 9.7 0.6 Q8.55 -0.6 8.55 -1.05 7.9 -2.25 11.6 -2.25 12.75 -2.25 13.85 1.05 15.0 4.3 16.8 4.3 L17.55 4.1 16.0 2.15 18.1 -5.25 Q19.15 -9.4 21.7 -12.25 22.95 -10.85 23.1 -9.95 23.45 -7.45 22.3 -5.05 20.5 0.75 20.55 2.5 20.5 5.35 22.2 8.25 L23.9 11.25 Q24.25 13.75 19.7 13.8 L15.4 13.6 17.8 12.95 19.15 12.25 20.45 12.2 21.9 12.6 22.35 12.3 21.4 11.0 20.75 10.65 20.25 10.05 20.25 10.0 Q19.35 9.1 16.85 8.8 L16.6 8.7 Q7.2 8.7 1.0 1.85 L-3.05 -2.9 Q-4.5 -4.35 -6.45 -5.55 -8.55 -6.85 -10.7 -6.85 L-11.35 -6.75 -8.7 -5.4 -13.0 -6.05 Q-15.3 -7.15 -15.25 -7.9 -15.3 -8.6 -14.4 -9.1 M15.3 -7.3 Q16.95 -9.35 16.75 -9.5 17.6 -9.2 17.6 -8.25 L17.25 -7.25 Q16.85 -6.9 16.3 -6.9 L15.3 -7.3 M13.8 12.15 L13.5 12.65 Q12.35 13.9 7.6 15.25 7.35 14.0 7.35 12.6 7.35 11.45 8.8 10.15 L9.75 11.0 Q11.55 12.3 13.6 12.5 L13.8 12.15 M-4.9 1.2 Q-2.7 3.85 -0.95 4.9 L-3.25 8.35 Q-6.6 13.0 -12.95 13.05 L-17.55 12.55 -20.1 12.05 Q-23.3 12.05 -24.05 13.85 -23.7 11.15 -19.45 11.15 L-17.15 11.5 -14.7 11.85 Q-8.45 10.15 -7.35 6.15 L-6.3 2.95 Q-5.85 2.0 -4.9 1.2 M4.75 8.45 L5.05 8.9 Q4.6 10.4 4.7 13.0 L6.55 18.25 Q5.95 20.4 1.05 24.05 L0.0 24.55 Q2.05 22.8 2.15 21.85 2.25 20.2 1.55 17.95 0.75 15.25 0.75 12.7 0.75 11.5 1.95 10.3 L4.75 8.45 M0.0 5.95 Q0.8 7.4 1.7 8.25 L-2.6 9.75 -2.45 9.45 0.0 5.95 M-19.4 -6.0 Q-19.6 -5.2 -19.25 -3.8 -18.95 -2.75 -18.45 -2.3 L-19.5 -0.95 -19.95 -0.4 -20.2 -1.6 Q-20.2 -4.9 -19.4 -6.0 M0.3 17.25 Q1.0 18.85 1.3 20.85 L-4.7 21.55 Q-2.95 19.7 -1.8 18.8 0.25 17.15 0.3 17.25 M7.9 16.3 L7.75 15.9 10.55 15.95 7.1 18.85 7.9 16.3 M-13.25 -4.8 Q-13.3 -3.95 -6.1 -2.0 -5.7 -1.9 -4.5 -0.7 -13.75 -0.35 -16.6 2.65 L-19.0 4.9 Q-20.9 5.95 -24.95 6.0 -27.25 6.0 -29.1 4.95 L-26.95 5.2 Q-22.4 5.2 -18.85 0.2 L-16.25 -3.25 Q-14.85 -4.7 -13.25 -4.8 M-10.6 6.1 L-13.85 6.0 -16.65 4.75 -15.35 3.5 Q-14.4 2.3 -13.6 1.85 L-12.7 2.35 -10.0 3.0 Q-10.6 4.15 -10.6 6.1 M-9.35 7.0 L-9.0 6.95 -9.15 7.1 -9.35 7.0 M-13.45 10.05 L-15.8 10.6 -17.6 10.1 -18.4 10.1 -15.9 8.05 -13.45 10.05 M-12.45 19.0 Q-10.85 19.7 -7.3 20.1 L-7.9 21.1 -11.4 19.9 -12.45 19.0 M-0.6 14.25 L-0.1 16.25 Q-1.7 16.5 -5.4 20.7 -9.1 24.85 -6.25 20.5 L-6.25 20.45 Q-3.75 16.6 -0.6 14.25 M-20.1 13.05 L-19.4 13.05 -17.45 13.8 Q-18.7 14.3 -19.75 16.1 L-20.05 13.85 -20.1 13.05" fill="#2b91bb" fill-rule="evenodd" stroke="none"/>
    <path d="M15.4 13.6 L14.4 13.45 14.35 13.45 14.95 11.85 14.95 11.8 14.8 10.15 19.7 10.4 20.25 10.25 20.25 10.05 20.75 10.65 21.4 11.0 22.35 12.3 21.9 12.6 20.45 12.2 19.15 12.25 17.8 12.95 15.4 13.6 M8.8 10.15 L9.6 9.5 13.95 10.2 13.8 12.15 13.6 12.5 Q11.55 12.3 9.75 11.0 L8.8 10.15 M-4.9 1.2 Q-3.1 1.2 -1.75 0.25 L0.8 3.6 0.9 3.75 Q-0.05 3.85 -0.95 4.9 -2.7 3.85 -4.9 1.2 M4.75 8.45 L4.75 8.4 5.65 7.65 8.0 8.85 6.85 10.2 Q6.45 11.15 6.45 12.6 L6.75 15.45 6.55 18.25 4.7 13.0 Q4.6 10.4 5.05 8.9 L4.75 8.45 M0.0 5.95 Q0.8 4.9 1.5 4.45 2.85 5.85 4.85 7.15 L1.7 8.25 Q0.8 7.4 0.0 5.95 M-13.25 -4.8 L-13.1 -4.8 -12.95 -4.75 -6.5 -4.0 -5.05 -3.05 Q-4.65 -3.05 -2.6 -0.75 L-4.5 -0.7 Q-5.7 -1.9 -6.1 -2.0 -13.3 -3.95 -13.25 -4.8 M-10.0 3.0 L-7.8 3.05 -8.35 5.95 -10.6 6.1 Q-10.6 4.15 -10.0 3.0 M-9.15 7.1 L-9.1 7.1 -13.45 10.05 -15.9 8.05 -15.95 8.05 -14.2 6.95 -10.6 7.1 -10.9 7.1 -10.6 7.1 -9.35 7.0 -9.15 7.1 M-12.45 19.0 L-13.35 18.0 -12.7 18.2 -6.6 18.95 -6.45 18.95 -7.3 20.1 Q-10.85 19.7 -12.45 19.0" fill="#227ca2" fill-rule="evenodd" stroke="none"/>
    <path d="M-14.4 -9.1 Q-13.05 -9.95 -9.45 -10.25 -2.1 -10.6 3.05 -10.35 4.95 -10.3 8.25 -11.7 12.4 -13.45 14.85 -13.9 18.1 -14.55 20.85 -12.8 L21.7 -12.25 Q19.15 -9.4 18.1 -5.25 L16.0 2.15 17.55 4.1 16.8 4.3 Q15.0 4.3 13.85 1.05 12.75 -2.25 11.6 -2.25 7.9 -2.25 8.55 -1.05 8.55 -0.6 9.7 0.6 L13.0 1.8 11.75 2.2 Q8.15 2.2 4.4 -1.0 L-0.1 -5.25 Q-4.65 -7.95 -7.8 -8.3 L-11.35 -9.2 -14.4 -9.1 M15.3 -7.3 L16.3 -6.9 Q16.85 -6.9 17.25 -7.25 L17.6 -8.25 Q17.6 -9.2 16.75 -9.5 16.95 -9.35 15.3 -7.3" fill="#5caccd" fill-rule="evenodd" stroke="none"/>
  </g>
</svg>
