<?xml version="1.0" encoding="UTF-8" standalone="no"?>
<svg xmlns:xlink="http://www.w3.org/1999/xlink" height="54.85px" width="57.45px" xmlns="http://www.w3.org/2000/svg">
  <g transform="matrix(1.0, 0.0, 0.0, 1.0, 31.55, 25.05)">
    <path d="M6.1 -22.25 Q14.0 -19.55 20.1 -14.35 L21.0 -13.55 Q23.35 -11.35 25.0 -8.6 25.8 -7.2 25.85 -5.75 L25.9 -4.7 25.6 -1.4 Q24.8 2.35 23.2 6.45 L23.85 8.2 Q25.4 11.4 25.15 14.6 25.15 17.7 24.7 20.15 L23.35 23.8 22.0 26.1 21.7 26.65 Q20.5 27.8 18.6 28.4 11.7 30.4 3.85 29.5 L-0.85 28.8 -6.15 27.6 Q-12.5 25.85 -17.4 23.1 -20.3 21.5 -22.8 19.1 L-26.35 15.0 Q-30.0 10.3 -31.35 3.75 -31.85 1.6 -31.2 -0.8 L-31.2 -1.0 Q-30.4 -4.2 -28.8 -6.7 -26.25 -11.05 -22.8 -14.4 L-18.4 -17.95 -18.25 -18.45 Q-17.2 -21.0 -15.95 -22.25 -14.95 -23.25 -13.2 -24.3 L-11.85 -24.8 -7.1 -25.05 Q-2.5 -24.8 1.85 -23.5 L6.1 -22.25" fill="#d63900" fill-rule="evenodd" stroke="none"/>
  </g>
</svg>
