<?xml version="1.0" encoding="UTF-8" standalone="no"?>
<svg xmlns:xlink="http://www.w3.org/1999/xlink" height="60.55px" width="60.0px" xmlns="http://www.w3.org/2000/svg">
  <g transform="matrix(1.0, 0.0, 0.0, 1.0, 31.65, 27.2)">
    <path d="M8.75 -23.75 Q16.7 -20.6 22.5 -14.75 L23.35 -13.85 Q25.6 -11.45 27.1 -8.55 27.9 -7.2 28.1 -5.75 L28.2 -4.65 28.3 -1.2 Q28.1 2.9 26.95 7.4 L27.25 9.55 Q28.05 13.5 27.2 17.15 26.6 20.6 25.35 23.4 L22.7 27.45 20.5 29.8 20.0 30.3 Q18.6 31.4 16.75 31.95 9.8 34.05 1.8 33.0 L-2.95 32.2 -8.25 30.75 Q-14.6 28.65 -19.3 25.2 -22.15 23.1 -24.5 20.25 L-27.65 15.55 Q-30.8 10.15 -31.55 3.35 -31.85 1.1 -31.3 -1.3 L-31.3 -1.5 Q-30.6 -4.8 -29.25 -7.5 -27.0 -12.25 -23.7 -15.95 L-19.5 -19.9 -19.2 -20.5 Q-17.25 -23.35 -15.0 -24.8 -13.25 -25.95 -10.8 -26.75 L-9.3 -27.1 Q-6.95 -27.3 -4.45 -27.1 0.25 -26.6 4.5 -25.25 L8.75 -23.75" fill="#d22600" fill-rule="evenodd" stroke="none"/>
  </g>
</svg>
