<?xml version="1.0" encoding="UTF-8" standalone="no"?>
<svg xmlns:xlink="http://www.w3.org/1999/xlink" height="66.35px" width="62.95px" xmlns="http://www.w3.org/2000/svg">
  <g transform="matrix(1.0, 0.0, 0.0, 1.0, 31.8, 29.4)">
    <path d="M11.45 -25.3 Q19.35 -21.65 24.85 -15.15 L25.7 -14.15 Q27.8 -11.5 29.25 -8.55 L30.3 -5.7 30.55 -4.6 31.05 -0.95 Q31.4 3.5 30.65 8.35 L30.65 10.85 Q30.65 15.55 29.3 19.65 28.05 23.55 25.95 26.65 24.25 29.05 22.1 31.05 L18.95 33.55 18.25 34.0 Q16.7 34.95 14.85 35.55 7.9 37.75 -0.25 36.5 L-5.0 35.55 -10.3 33.95 Q-16.65 31.5 -21.25 27.25 -24.0 24.7 -26.15 21.4 -27.8 18.85 -28.95 16.05 -31.55 10.05 -31.8 2.9 -31.9 0.65 -31.4 -1.8 L-31.4 -2.05 Q-30.8 -5.45 -29.65 -8.35 -27.7 -13.45 -24.65 -17.5 L-20.6 -21.85 -20.1 -22.5 Q-17.3 -25.75 -14.05 -27.4 -11.5 -28.65 -8.45 -29.15 L-6.75 -29.35 -1.85 -29.15 Q2.95 -28.45 7.2 -26.95 L11.45 -25.3" fill="#ce1300" fill-rule="evenodd" stroke="none"/>
  </g>
</svg>
