<?xml version="1.0" encoding="UTF-8" standalone="no"?>
<svg xmlns:xlink="http://www.w3.org/1999/xlink" height="30.0px" width="60.0px" xmlns="http://www.w3.org/2000/svg">
  <g transform="matrix(1.0, 0.0, 0.0, 1.0, 30.0, 15.0)">
    <path d="M-21.15 -10.6 Q-12.4 -15.0 0.0 -15.0 12.4 -15.0 21.25 -10.6 30.0 -6.2 30.0 0.0 30.0 6.2 21.25 10.6 12.4 15.0 0.0 15.0 -12.4 15.0 -21.15 10.6 -30.0 6.2 -30.0 0.0 -30.0 -6.2 -21.15 -10.6 M12.05 -6.0 Q7.05 -8.5 0.0 -8.5 -7.0 -8.5 -11.95 -6.0 -17.0 -3.5 -17.0 0.0 -17.0 3.55 -11.95 6.0 -7.0 8.5 0.0 8.5 7.05 8.5 12.05 6.0 17.0 3.55 17.0 0.0 17.0 -3.5 12.05 -6.0" fill="#edaa00" fill-rule="evenodd" stroke="none"/>
    <path d="M12.05 -6.0 Q17.0 -3.5 17.0 0.0 17.0 3.55 12.05 6.0 7.05 8.5 0.0 8.5 -7.0 8.5 -11.95 6.0 -17.0 3.55 -17.0 0.0 -17.0 -3.5 -11.95 -6.0 -7.0 -8.5 0.0 -8.5 7.05 -8.5 12.05 -6.0" fill="#ffff00" fill-rule="evenodd" stroke="none"/>
  </g>
</svg>
