<?xml version="1.0" encoding="UTF-8" standalone="no"?>
<svg xmlns:xlink="http://www.w3.org/1999/xlink" height="34.5px" width="60.6px" xmlns="http://www.w3.org/2000/svg">
  <g transform="matrix(1.0, 0.0, 0.0, 1.0, 30.15, 16.8)">
    <path d="M13.85 -6.9 Q8.4 -10.65 0.1 -11.0 -7.55 -11.3 -12.95 -8.0 -18.4 -4.9 -18.6 -0.25 -18.85 4.4 -13.7 7.9 -8.6 11.45 -0.8 11.95 7.35 12.4 13.1 9.25 18.65 6.15 18.9 1.4 19.1 -3.4 13.85 -6.9 M22.0 -11.0 Q30.7 -5.8 30.45 1.35 30.25 8.5 21.25 13.3 12.1 18.15 -0.8 17.65 -13.4 17.25 -21.9 11.95 -30.4 6.75 -30.15 -0.3 -29.95 -7.3 -21.15 -12.1 -12.35 -17.05 0.1 -16.8 13.15 -16.45 22.0 -11.0" fill="#e99700" fill-rule="evenodd" stroke="none"/>
    <path d="M13.85 -6.9 Q19.1 -3.4 18.9 1.4 18.65 6.15 13.1 9.25 7.35 12.4 -0.8 11.95 -8.6 11.45 -13.7 7.9 -18.85 4.4 -18.6 -0.25 -18.4 -4.9 -12.95 -8.0 -7.55 -11.3 0.1 -11.0 8.4 -10.65 13.85 -6.9" fill="#f9e300" fill-rule="evenodd" stroke="none"/>
  </g>
</svg>
