<?xml version="1.0" encoding="UTF-8" standalone="no"?>
<svg xmlns:xlink="http://www.w3.org/1999/xlink" height="39.1px" width="61.25px" xmlns="http://www.w3.org/2000/svg">
  <g transform="matrix(1.0, 0.0, 0.0, 1.0, 30.35, 18.65)">
    <path d="M15.6 -7.85 Q9.7 -12.8 0.2 -13.5 -8.1 -14.05 -13.95 -10.05 -19.75 -6.35 -20.2 -0.55 -20.7 5.25 -15.45 9.7 -10.15 14.4 -1.6 15.3 7.65 16.3 14.15 12.4 20.35 8.7 20.8 2.75 21.25 -3.3 15.6 -7.85 M22.75 -11.4 Q31.35 -5.4 30.9 2.7 30.45 10.8 21.3 16.0 11.8 21.35 -1.6 20.3 -14.35 19.5 -22.65 13.3 -30.8 7.3 -30.35 -0.6 -29.9 -8.45 -21.15 -13.65 -12.3 -19.1 0.2 -18.6 13.85 -17.85 22.75 -11.4" fill="#e58400" fill-rule="evenodd" stroke="none"/>
    <path d="M15.6 -7.85 Q21.25 -3.3 20.8 2.75 20.35 8.7 14.15 12.4 7.65 16.3 -1.6 15.3 -10.15 14.4 -15.45 9.7 -20.7 5.25 -20.2 -0.55 -19.75 -6.35 -13.95 -10.05 -8.1 -14.05 0.2 -13.5 9.7 -12.8 15.6 -7.85" fill="#f3c600" fill-rule="evenodd" stroke="none"/>
  </g>
</svg>
