<?xml version="1.0" encoding="UTF-8" standalone="no"?>
<svg xmlns:xlink="http://www.w3.org/1999/xlink" height="43.8px" width="61.95px" xmlns="http://www.w3.org/2000/svg">
  <g transform="matrix(1.0, 0.0, 0.0, 1.0, 30.55, 20.5)">
    <path d="M17.4 -8.8 Q11.05 -14.95 0.25 -16.05 -8.6 -16.85 -15.0 -12.15 -21.15 -7.75 -21.85 -0.85 -22.55 6.1 -17.25 11.55 -11.75 17.4 -2.35 18.7 7.95 20.15 15.2 15.6 22.0 11.3 22.7 4.1 23.35 -3.15 17.4 -8.8 M23.5 -11.85 Q32.05 -4.95 31.35 4.05 30.7 13.05 21.3 18.65 11.5 24.5 -2.35 23.0 -15.35 21.7 -23.35 14.6 -31.2 7.9 -30.5 -0.85 -29.8 -9.55 -21.1 -15.2 -12.2 -21.2 0.25 -20.4 14.6 -19.3 23.5 -11.85" fill="#e17100" fill-rule="evenodd" stroke="none"/>
    <path d="M17.4 -8.8 Q23.35 -3.15 22.7 4.1 22.0 11.3 15.2 15.6 7.95 20.15 -2.35 18.7 -11.75 17.4 -17.25 11.55 -22.55 6.1 -21.85 -0.85 -21.15 -7.75 -15.0 -12.15 -8.6 -16.85 0.25 -16.05 11.05 -14.95 17.4 -8.8" fill="#edaa00" fill-rule="evenodd" stroke="none"/>
  </g>
</svg>
