<?xml version="1.0" encoding="UTF-8" standalone="no"?>
<svg xmlns:xlink="http://www.w3.org/1999/xlink" height="48.5px" width="62.65px" xmlns="http://www.w3.org/2000/svg">
  <g transform="matrix(1.0, 0.0, 0.0, 1.0, 30.75, 22.35)">
    <path d="M19.15 -9.75 Q12.35 -17.1 0.35 -18.55 -9.15 -19.65 -16.0 -14.2 -22.55 -9.2 -23.45 -1.15 -24.4 6.95 -19.0 13.4 -13.35 20.35 -3.15 22.05 8.25 24.05 16.25 18.8 23.7 13.9 24.6 5.45 25.5 -3.05 19.15 -9.75 M24.25 -12.3 Q32.7 -4.55 31.8 5.4 30.9 15.35 21.35 21.35 11.2 27.65 -3.15 25.65 -16.35 23.95 -24.1 15.95 -31.6 8.45 -30.65 -1.15 -29.75 -10.7 -21.1 -16.75 -12.15 -23.25 0.35 -22.2 15.35 -20.75 24.25 -12.3" fill="#dd5e00" fill-rule="evenodd" stroke="none"/>
    <path d="M19.15 -9.75 Q25.5 -3.05 24.6 5.45 23.7 13.9 16.25 18.8 8.25 24.05 -3.15 22.05 -13.35 20.35 -19.0 13.4 -24.4 6.95 -23.45 -1.15 -22.55 -9.2 -16.0 -14.2 -9.15 -19.65 0.35 -18.55 12.35 -17.1 19.15 -9.75" fill="#e78e00" fill-rule="evenodd" stroke="none"/>
  </g>
</svg>
