<?xml version="1.0" encoding="UTF-8" standalone="no"?>
<svg xmlns:xlink="http://www.w3.org/1999/xlink" height="53.2px" width="63.4px" xmlns="http://www.w3.org/2000/svg">
  <g transform="matrix(1.0, 0.0, 0.0, 1.0, 31.0, 24.2)">
    <path d="M20.95 -10.65 Q13.7 -19.3 0.45 -21.1 -9.7 -22.4 -17.0 -16.25 -23.9 -10.6 -25.05 -1.4 -26.2 7.85 -20.75 15.2 -14.9 23.3 -3.95 25.45 8.55 27.95 17.25 21.95 25.35 16.45 26.45 6.8 27.6 -2.95 20.95 -10.65 M25.05 -12.7 Q33.4 -4.15 32.25 6.8 31.15 17.65 21.35 24.0 10.95 30.85 -3.95 28.3 -17.3 26.2 -24.85 17.25 -32.0 9.0 -30.85 -1.45 -29.7 -11.8 -21.1 -18.3 -12.1 -25.3 0.45 -24.0 16.05 -22.15 25.05 -12.7" fill="#da4c00" fill-rule="evenodd" stroke="none"/>
    <path d="M20.95 -10.65 Q27.6 -2.95 26.45 6.8 25.35 16.45 17.25 21.95 8.55 27.95 -3.95 25.45 -14.9 23.3 -20.75 15.2 -26.2 7.85 -25.05 -1.4 -23.9 -10.6 -17.0 -16.25 -9.7 -22.4 0.45 -21.1 13.7 -19.3 20.95 -10.65" fill="#e27100" fill-rule="evenodd" stroke="none"/>
  </g>
</svg>
