<?xml version="1.0" encoding="UTF-8" standalone="no"?>
<svg xmlns:xlink="http://www.w3.org/1999/xlink" height="57.9px" width="64.15px" xmlns="http://www.w3.org/2000/svg">
  <g transform="matrix(1.0, 0.0, 0.0, 1.0, 31.25, 26.05)">
    <path d="M22.7 -11.6 Q15.0 -21.45 0.55 -23.6 -10.25 -25.2 -18.0 -18.3 -25.3 -12.05 -26.65 -1.7 -28.05 8.7 -22.5 17.05 -16.5 26.25 -4.75 28.8 8.85 31.85 18.3 25.15 27.05 19.05 28.35 8.15 29.75 -2.85 22.7 -11.6 M25.8 -13.15 Q34.05 -3.75 32.7 8.15 31.35 19.95 21.4 26.7 10.65 34.0 -4.75 30.95 -18.3 28.45 -25.6 18.6 -32.4 9.55 -31.0 -1.75 -29.65 -12.95 -21.1 -19.85 -12.05 -27.35 0.55 -25.8 16.8 -23.6 25.8 -13.15" fill="#d63900" fill-rule="evenodd" stroke="none"/>
    <path d="M22.7 -11.6 Q29.75 -2.85 28.35 8.15 27.05 19.05 18.3 25.15 8.85 31.85 -4.75 28.8 -16.5 26.25 -22.5 17.05 -28.05 8.7 -26.65 -1.7 -25.3 -12.05 -18.0 -18.3 -10.25 -25.2 0.55 -23.6 15.0 -21.45 22.7 -11.6" fill="#dc5500" fill-rule="evenodd" stroke="none"/>
  </g>
</svg>
