<?xml version="1.0" encoding="UTF-8" standalone="no"?>
<svg xmlns:xlink="http://www.w3.org/1999/xlink" height="62.7px" width="64.9px" xmlns="http://www.w3.org/2000/svg">
  <g transform="matrix(1.0, 0.0, 0.0, 1.0, 31.5, 27.95)">
    <path d="M24.5 -12.55 Q16.35 -23.6 0.6 -26.15 -10.75 -28.0 -19.05 -20.4 -26.7 -13.45 -28.3 -2.0 -29.9 9.55 -24.3 18.9 -18.1 29.25 -5.5 32.2 9.15 35.7 19.35 28.35 28.7 21.65 30.25 9.5 31.85 -2.7 24.5 -12.55 M26.55 -13.6 Q34.75 -3.3 33.15 9.5 31.6 22.2 21.4 29.35 10.35 37.15 -5.5 33.65 -19.3 30.65 -26.3 19.9 -32.8 10.15 -31.15 -2.0 -29.55 -14.05 -21.05 -21.4 -11.95 -29.45 0.6 -27.6 17.55 -25.05 26.55 -13.6" fill="#d22600" fill-rule="evenodd" stroke="none"/>
    <path d="M24.5 -12.55 Q31.85 -2.7 30.25 9.5 28.7 21.65 19.35 28.35 9.15 35.7 -5.5 32.2 -18.1 29.25 -24.3 18.9 -29.9 9.55 -28.3 -2.0 -26.7 -13.45 -19.05 -20.4 -10.75 -28.0 0.6 -26.15 16.35 -23.6 24.5 -12.55" fill="#d63900" fill-rule="evenodd" stroke="none"/>
  </g>
</svg>
