<?xml version="1.0" encoding="UTF-8" standalone="no"?>
<svg xmlns:xlink="http://www.w3.org/1999/xlink" height="62.7px" width="51.4px" xmlns="http://www.w3.org/2000/svg">
  <g transform="matrix(1.0, 0.0, 0.0, 1.0, 26.0, 30.95)">
    <path d="M13.6 -14.75 Q17.05 -3.35 23.2 -0.6 29.25 2.05 18.55 20.25 7.75 38.45 -0.8 27.8 -9.55 17.1 -20.4 8.5 -31.2 0.1 -21.15 -3.7 -11.15 -7.45 -9.65 -20.6 -8.05 -33.85 0.7 -30.15 10.05 -26.35 13.6 -14.75 M11.75 -6.55 Q7.9 -13.8 0.8 -14.15 -2.75 -14.3 -6.8 -8.05 -9.5 -4.1 -11.85 2.2 -12.05 6.45 -9.0 11.4 L-7.8 13.15 Q-4.1 18.05 2.1 19.05 L5.4 19.25 Q10.25 19.1 12.6 15.65 L13.45 14.25 Q14.45 12.25 14.75 7.75 L14.8 4.4 Q14.6 0.55 13.0 -3.75 L11.75 -6.55" fill="#552000" fill-rule="evenodd" stroke="none"/>
    <path d="M11.75 -6.55 L13.0 -3.75 Q14.6 0.55 14.8 4.4 L14.75 7.75 Q14.45 12.25 13.45 14.25 L12.6 15.65 Q10.25 19.1 5.4 19.25 L2.1 19.05 Q-4.1 18.05 -7.8 13.15 L-9.0 11.4 Q-12.05 6.45 -11.85 2.2 -9.5 -4.1 -6.8 -8.05 -2.75 -14.3 0.8 -14.15 7.9 -13.8 11.75 -6.55" fill="#8c3400" fill-rule="evenodd" stroke="none"/>
  </g>
</svg>
