<?xml version="1.0" encoding="UTF-8" standalone="no"?>
<svg xmlns:xlink="http://www.w3.org/1999/xlink" height="20.25px" width="69.2px" xmlns="http://www.w3.org/2000/svg">
  <g transform="matrix(1.0, 0.0, 0.0, 1.0, 34.55, 10.2)">
    <path d="M-24.6 -1.3 L-22.75 -1.15 Q-21.65 -1.5 -21.55 -1.75 L-21.25 -0.65 Q-22.2 0.3 -23.6 -0.05 -24.75 -0.2 -24.6 -1.3 M-11.0 -6.65 L-7.55 -8.55 Q-10.0 -8.45 -12.6 -7.45 L-17.0 -5.5 -19.75 -4.85 Q-21.7 -4.45 -25.45 -2.15 -29.2 0.15 -32.95 5.2 L-28.4 5.4 Q-26.55 5.6 -24.95 6.3 L-21.65 7.8 -28.0 6.05 -30.35 7.75 -25.95 8.15 -17.2 8.6 -16.1 8.05 Q-14.9 7.15 -13.45 6.8 L-14.6 5.7 -13.85 5.8 Q-9.1 7.2 -4.9 5.65 -7.85 4.55 -11.55 4.6 -11.95 4.45 -11.45 4.3 L-8.35 4.15 Q-3.35 4.55 2.45 3.4 9.55 1.65 16.15 -1.35 L18.05 -1.9 24.3 -2.1 28.65 -1.3 33.2 0.25 29.85 -2.25 Q24.05 -5.45 23.9 -5.6 L22.85 -6.8 Q23.1 -8.1 23.85 -8.45 L24.65 -8.8 22.55 -8.4 19.1 -7.25 16.15 -5.95 17.45 -5.6 18.45 -5.15 15.65 -5.3 17.1 -4.95 4.25 -6.95 -3.3 -7.1 -11.0 -6.65 M-16.8 -2.05 L-16.55 -2.05 Q-15.85 -2.05 -15.55 -0.6 L-15.45 0.85 Q-15.45 1.75 -16.35 2.75 -17.45 3.85 -19.0 3.9 L-19.85 3.65 -19.85 3.55 Q-17.9 3.35 -16.8 2.2 -16.0 1.3 -15.95 0.3 -16.0 -0.95 -16.8 -2.05 M-14.5 -0.9 L-14.25 -1.25 -13.8 -0.7 Q-13.45 0.7 -14.15 0.8 -14.5 0.4 -14.5 -0.9 M-6.7 -10.15 Q-5.35 -10.35 -3.4 -9.45 L-3.25 -8.9 7.35 -8.2 12.75 -7.25 Q15.0 -7.35 17.0 -8.2 22.3 -10.55 27.75 -10.05 L27.8 -8.95 24.2 -6.75 Q27.25 -5.1 30.4 -3.5 33.1 -2.15 34.65 0.2 L34.1 1.8 Q33.0 2.0 30.35 0.9 27.95 -0.1 21.5 -0.85 19.45 -0.7 15.35 0.7 L12.35 1.75 Q3.6 4.75 0.05 5.5 L-2.4 6.0 -3.15 6.8 -4.1 7.3 -12.1 7.7 Q-12.8 8.4 -15.2 9.2 L-18.15 10.05 -21.2 9.65 -31.5 8.95 -31.65 7.75 -30.9 6.5 -34.4 6.45 -34.55 5.2 -33.35 3.65 -26.4 -2.95 Q-24.05 -4.85 -19.35 -6.35 L-10.0 -9.5 -6.7 -10.15" fill="#000000" fill-rule="evenodd" stroke="none"/>
    <path d="M-21.55 -1.75 L-23.85 -1.85 -24.6 -1.3 Q-24.75 -0.2 -23.6 -0.05 -22.2 0.3 -21.25 -0.65 L-21.55 -1.75 M-11.0 -6.65 L-3.3 -7.1 4.25 -6.95 -5.1 -4.7 1.6 -5.45 -12.05 -1.05 -9.95 -1.35 -5.8 -2.3 -2.45 -3.3 4.85 -4.5 Q7.95 -4.7 16.65 -4.55 L17.6 -4.7 17.1 -4.95 15.65 -5.3 18.45 -5.15 17.45 -5.6 17.8 -5.8 Q18.95 -6.4 19.55 -6.4 21.8 -6.4 22.5 -5.05 L18.2 -3.0 Q16.3 -2.05 11.85 -0.8 L6.6 0.65 -0.15 2.15 -8.35 4.15 -11.45 4.3 Q-11.95 4.45 -11.55 4.6 -11.85 5.45 -13.85 5.8 L-14.6 5.7 -13.45 6.8 Q-14.9 7.15 -16.1 8.05 L-17.2 8.6 -25.95 8.15 -30.35 7.75 -28.0 6.05 -21.65 7.8 -24.95 6.3 Q-26.55 5.6 -28.4 5.4 L-32.95 5.2 Q-29.2 0.15 -25.45 -2.15 -21.7 -4.45 -19.75 -4.85 L-17.0 -5.5 -11.0 -6.65 M-14.5 -0.9 Q-14.5 0.4 -14.15 0.8 -13.45 0.7 -13.8 -0.7 L-14.25 -1.25 -14.5 -0.9 M-16.8 -2.05 Q-16.0 -0.95 -15.95 0.3 -16.0 1.3 -16.8 2.2 -17.9 3.35 -19.85 3.55 L-19.85 3.65 -19.0 3.9 Q-17.45 3.85 -16.35 2.75 -15.45 1.75 -15.45 0.85 L-15.55 -0.6 Q-15.85 -2.05 -16.55 -2.05 L-16.8 -2.05" fill="#999999" fill-rule="evenodd" stroke="none"/>
    <path d="M-17.0 -5.5 L-12.6 -7.45 Q-10.0 -8.45 -7.55 -8.55 L-11.0 -6.65 -17.0 -5.5 M17.45 -5.6 L16.15 -5.95 19.1 -7.25 22.55 -8.4 24.65 -8.8 23.85 -8.45 Q23.1 -8.1 22.85 -6.8 L23.9 -5.6 Q24.05 -5.45 29.85 -2.25 L33.2 0.25 28.65 -1.3 24.3 -2.1 18.05 -1.9 16.15 -1.35 Q9.55 1.65 2.45 3.4 -3.35 4.55 -8.35 4.15 L-0.15 2.15 6.6 0.65 11.85 -0.8 Q16.3 -2.05 18.2 -3.0 L22.5 -5.05 Q21.8 -6.4 19.55 -6.4 18.95 -6.4 17.8 -5.8 L17.45 -5.6" fill="#666666" fill-rule="evenodd" stroke="none"/>
    <path d="M-21.55 -1.75 Q-21.65 -1.5 -22.75 -1.15 L-24.6 -1.3 -23.85 -1.85 -21.55 -1.75 M4.25 -6.95 L17.1 -4.95 17.6 -4.7 16.65 -4.55 Q7.95 -4.7 4.85 -4.5 L-2.45 -3.3 -5.8 -2.3 -9.95 -1.35 -12.05 -1.05 1.6 -5.45 -5.1 -4.7 4.25 -6.95 M-11.55 4.6 Q-7.85 4.55 -4.9 5.65 -9.1 7.2 -13.85 5.8 -11.85 5.45 -11.55 4.6" fill="#cccccc" fill-rule="evenodd" stroke="none"/>
  </g>
</svg>
