<?xml version="1.0" encoding="UTF-8" standalone="no"?>
<svg xmlns:xlink="http://www.w3.org/1999/xlink" height="65.55px" width="53.7px" xmlns="http://www.w3.org/2000/svg">
  <g transform="matrix(1.0, 0.0, 0.0, 1.0, 27.95, 31.15)">
    <path d="M18.0 -15.4 L25.2 2.85 Q27.9 9.7 17.6 24.4 6.95 39.35 -3.15 32.0 -13.9 24.45 -23.0 14.55 -31.9 5.25 -24.8 -2.45 -17.75 -10.05 -13.7 -21.6 -9.3 -33.55 0.75 -30.55 13.05 -27.25 18.0 -15.4 M16.85 -10.25 Q11.75 -19.4 0.7 -20.55 -6.05 -21.3 -11.95 -13.75 -16.7 -7.95 -19.0 1.25 -19.8 8.35 -16.55 14.95 L-15.15 17.45 Q-10.5 25.05 -1.35 26.5 L3.5 26.7 Q9.65 26.2 13.85 21.5 L15.35 19.7 Q17.9 16.35 19.15 10.75 19.75 8.5 19.95 6.0 20.65 -0.25 18.7 -6.1 L16.85 -10.25" fill="#552000" fill-rule="evenodd" stroke="none"/>
    <path d="M16.85 -10.25 L18.7 -6.1 Q20.65 -0.25 19.95 6.0 19.75 8.5 19.15 10.75 17.9 16.35 15.35 19.7 L13.85 21.5 Q9.65 26.2 3.5 26.7 L-1.35 26.5 Q-10.5 25.05 -15.15 17.45 L-16.55 14.95 Q-19.8 8.35 -19.0 1.25 -16.7 -7.95 -11.95 -13.75 -6.05 -21.3 0.7 -20.55 11.75 -19.4 16.85 -10.25" fill="#772d00" fill-rule="evenodd" stroke="none"/>
  </g>
</svg>
