<?xml version="1.0" encoding="UTF-8" standalone="no"?>
<svg xmlns:xlink="http://www.w3.org/1999/xlink" height="66.55px" width="54.7px" xmlns="http://www.w3.org/2000/svg">
  <g transform="matrix(1.0, 0.0, 0.0, 1.0, 28.6, 31.2)">
    <path d="M19.45 -15.6 Q24.35 -4.55 25.9 4.0 27.4 12.2 17.25 25.75 6.65 39.7 -3.95 33.35 -15.3 26.95 -23.9 16.6 -32.1 7.0 -26.05 -2.0 -19.95 -10.9 -15.1 -21.9 -9.75 -33.4 0.75 -30.65 14.1 -27.5 19.45 -15.6 M18.5 -11.5 Q13.0 -21.25 0.7 -22.65 -7.1 -23.6 -13.65 -15.65 -19.15 -9.2 -21.35 0.9 -22.35 8.95 -19.1 16.1 L-17.6 18.9 Q-12.6 27.4 -2.5 29.0 L2.85 29.15 Q9.5 28.55 14.3 23.5 L15.95 21.5 Q19.0 17.7 20.6 11.8 21.35 9.3 21.7 6.5 22.7 -0.55 20.55 -6.9 19.75 -9.3 18.5 -11.5" fill="#552000" fill-rule="evenodd" stroke="none"/>
    <path d="M18.5 -11.5 Q19.75 -9.3 20.55 -6.9 22.7 -0.55 21.7 6.5 21.35 9.3 20.6 11.8 19.0 17.7 15.95 21.5 L14.3 23.5 Q9.5 28.55 2.85 29.15 L-2.5 29.0 Q-12.6 27.4 -17.6 18.9 L-19.1 16.1 Q-22.35 8.95 -21.35 0.9 -19.15 -9.2 -13.65 -15.65 -7.1 -23.6 0.7 -22.65 13.0 -21.25 18.5 -11.5" fill="#712a00" fill-rule="evenodd" stroke="none"/>
  </g>
</svg>
