<?xml version="1.0" encoding="UTF-8" standalone="no"?>
<svg xmlns:xlink="http://www.w3.org/1999/xlink" height="67.5px" width="55.85px" xmlns="http://www.w3.org/2000/svg">
  <g transform="matrix(1.0, 0.0, 0.0, 1.0, 29.3, 31.25)">
    <path d="M20.9 -15.8 Q26.2 -4.85 26.55 5.15 26.95 14.75 16.95 27.15 6.4 40.0 -4.75 34.75 -16.75 29.4 -24.75 18.6 -32.35 8.7 -27.25 -1.6 L-16.45 -22.25 Q-10.15 -33.3 0.75 -30.8 15.1 -27.8 20.9 -15.8 M20.2 -12.75 Q14.3 -23.1 0.65 -24.8 -8.2 -25.95 -15.35 -17.55 -21.55 -10.5 -23.75 0.6 -24.95 9.6 -21.6 17.3 L-20.05 20.35 Q-14.75 29.75 -3.65 31.5 L2.2 31.65 Q9.3 30.9 14.7 25.45 L16.6 23.3 Q20.15 19.05 22.05 12.8 22.95 10.05 23.4 7.05 24.7 -0.8 22.45 -7.7 21.6 -10.35 20.2 -12.75" fill="#552000" fill-rule="evenodd" stroke="none"/>
    <path d="M20.2 -12.75 Q21.6 -10.35 22.45 -7.7 24.7 -0.8 23.4 7.05 22.95 10.05 22.05 12.8 20.15 19.05 16.6 23.3 L14.7 25.45 Q9.3 30.9 2.2 31.65 L-3.65 31.5 Q-14.75 29.75 -20.05 20.35 L-21.6 17.3 Q-24.95 9.6 -23.75 0.6 -21.55 -10.5 -15.35 -17.55 -8.2 -25.95 0.65 -24.8 14.3 -23.1 20.2 -12.75" fill="#6a2800" fill-rule="evenodd" stroke="none"/>
  </g>
</svg>
