<?xml version="1.0" encoding="UTF-8" standalone="no"?>
<svg xmlns:xlink="http://www.w3.org/1999/xlink" height="39.7px" width="56.55px" xmlns="http://www.w3.org/2000/svg">
  <g transform="matrix(1.0, 0.0, 0.0, 1.0, 29.15, 19.25)">
    <path d="M12.65 -10.0 Q8.15 -10.7 5.15 -8.25 2.4 -5.75 -0.95 -5.85 L-8.2 -7.75 -13.6 -8.7 -16.0 -8.85 Q-19.55 -8.3 -21.5 -4.7 -22.8 -2.25 -22.85 0.2 -19.9 9.35 -14.7 11.85 L-12.55 12.5 Q-10.2 13.2 -5.25 10.95 L-1.5 9.55 Q1.1 8.65 3.1 8.6 3.95 8.55 6.6 9.95 9.0 11.05 12.05 10.8 L13.2 10.7 Q18.15 10.05 20.35 5.9 21.55 3.65 21.75 1.05 L21.75 0.75 Q21.9 -1.85 20.65 -4.4 18.75 -8.55 12.65 -10.0 M20.0 -15.95 Q25.4 -14.2 27.25 4.7 29.0 23.55 12.4 19.85 -4.4 16.1 -14.6 18.65 -24.75 21.3 -27.95 9.15 -31.25 -2.95 -25.5 -12.95 -19.65 -23.0 -9.7 -17.05 0.8 -11.05 7.75 -14.3 14.6 -17.8 20.0 -15.95" fill="#552000" fill-rule="evenodd" stroke="none"/>
    <path d="M12.65 -10.0 Q18.75 -8.55 20.65 -4.4 21.9 -1.85 21.75 0.75 L21.75 1.05 Q21.55 3.65 20.35 5.9 18.15 10.05 13.2 10.7 L12.05 10.8 Q9.0 11.05 6.6 9.95 3.95 8.55 3.1 8.6 1.1 8.65 -1.5 9.55 L-5.25 10.95 Q-10.2 13.2 -12.55 12.5 L-14.7 11.85 Q-19.9 9.35 -22.85 0.2 -22.8 -2.25 -21.5 -4.7 -19.55 -8.3 -16.0 -8.85 L-13.6 -8.7 -8.2 -7.75 -0.95 -5.85 Q2.4 -5.75 5.15 -8.25 8.15 -10.7 12.65 -10.0" fill="#8c3400" fill-rule="evenodd" stroke="none"/>
  </g>
</svg>
