<?xml version="1.0" encoding="UTF-8" standalone="no"?>
<svg xmlns:xlink="http://www.w3.org/1999/xlink" height="19.0px" width="73.25px" xmlns="http://www.w3.org/2000/svg">
  <g transform="matrix(1.0, 0.0, 0.0, 1.0, 35.65, 9.6)">
    <path d="M13.85 -5.8 L10.25 -7.0 6.5 -7.7 7.2 -6.35 Q7.2 -5.7 6.5 -5.85 6.1 -5.95 5.75 -6.2 L2.25 -6.45 -15.95 -5.3 -16.55 -5.5 -13.5 -6.3 -21.1 -8.3 -20.35 -6.7 Q-21.1 -4.7 -23.2 -4.0 L-31.8 -1.8 -24.4 -2.2 -21.15 -2.1 Q-16.65 -1.55 -13.7 -0.4 L-6.1 2.55 -1.05 4.1 5.95 5.45 9.1 5.5 11.7 5.25 11.15 5.45 8.3 6.5 6.1 7.5 14.75 6.7 15.95 6.6 15.2 7.25 21.6 8.05 25.85 8.4 29.4 8.4 30.45 8.05 26.1 7.95 Q29.15 7.05 32.4 6.8 L36.25 6.5 35.85 5.6 Q33.75 2.95 31.05 0.95 28.95 -0.75 21.9 -3.65 L16.5 -5.05 16.25 -4.45 13.85 -5.8 M-31.8 -1.8 L-31.85 -1.8 -31.8 -1.8 M3.6 -8.4 Q3.9 -8.85 4.5 -8.85 L10.7 -8.0 13.1 -7.25 Q14.15 -6.8 15.5 -6.65 L20.85 -5.2 Q25.3 -3.7 29.35 -1.6 L31.4 -0.35 Q33.05 0.9 34.75 2.6 36.4 4.05 37.25 5.65 L37.6 7.0 Q36.95 7.85 35.9 7.85 33.35 7.85 31.85 8.6 L29.7 9.3 25.75 9.4 15.45 8.5 Q14.4 8.45 13.7 7.8 9.0 9.2 3.5 7.95 4.5 7.3 5.4 6.9 L6.4 6.5 Q0.6 6.6 -4.8 4.45 L-12.55 1.35 -16.85 -0.55 -20.4 -0.65 -26.45 -0.9 -33.05 -0.7 -34.85 -0.5 -35.65 -0.8 Q-35.8 -1.8 -34.8 -2.2 L-27.05 -4.55 Q-22.55 -5.8 -21.6 -6.75 L-22.85 -9.15 -22.35 -9.6 -16.25 -8.55 -11.0 -7.05 -2.8 -7.3 Q0.75 -7.7 4.4 -7.4 L3.6 -8.4 M22.7 2.85 Q22.55 3.5 21.55 3.5 19.4 3.5 19.4 2.15 19.4 1.55 19.95 1.35 L19.9 1.75 Q19.9 2.95 21.85 2.95 L22.7 2.85 M14.75 5.2 Q13.65 4.4 13.65 4.1 L13.7 4.0 14.9 5.1 14.75 5.2 M15.75 4.65 Q16.4 5.35 19.2 5.95 L18.3 6.2 Q16.8 6.2 15.65 5.1 14.6 4.15 14.6 3.25 L14.65 2.85 14.7 2.85 Q14.55 3.5 15.75 4.65" fill="#000000" fill-rule="evenodd" stroke="none"/>
    <path d="M14.75 6.7 L6.1 7.5 8.3 6.5 11.15 5.45 Q12.15 5.55 13.4 6.05 L14.75 6.7 M-15.95 -5.3 L2.25 -6.45 4.2 -5.4 -5.1 -4.8 1.8 -2.9 9.45 -0.75 11.2 -0.65 11.85 -0.7 Q10.4 -0.1 8.8 -0.25 L7.0 -0.4 Q-1.2 -1.8 -6.55 -3.45 -9.3 -4.3 -10.9 -4.2 L-18.45 -4.75 -15.95 -5.3 M19.95 1.35 L20.6 1.25 Q22.7 1.25 22.7 2.5 L22.7 2.55 22.7 2.85 21.85 2.95 Q19.9 2.95 19.9 1.75 L19.95 1.35" fill="#cccccc" fill-rule="evenodd" stroke="none"/>
    <path d="M7.2 -6.35 Q10.85 -5.15 14.45 -5.3 L13.85 -5.8 16.25 -4.45 16.5 -5.05 21.9 -3.65 Q28.95 -0.75 31.05 0.95 33.75 2.95 35.85 5.6 L36.25 6.5 32.4 6.8 Q29.15 7.05 26.1 7.95 L30.45 8.05 29.4 8.4 25.85 8.4 21.6 8.05 15.2 7.25 15.95 6.6 14.75 6.7 13.4 6.05 Q12.15 5.55 11.15 5.45 L11.7 5.25 9.1 5.5 Q8.9 4.5 3.0 4.15 0.4 4.0 -9.0 0.25 -11.95 -0.8 -14.3 -1.1 L-15.75 -1.8 Q-19.5 -3.45 -19.5 -3.95 -19.5 -4.4 -18.45 -4.75 L-10.9 -4.2 Q-9.3 -4.3 -6.55 -3.45 -1.2 -1.8 7.0 -0.4 L8.8 -0.25 Q10.4 -0.1 11.85 -0.7 L11.2 -0.65 9.45 -0.75 1.8 -2.9 -5.1 -4.8 4.2 -5.4 2.25 -6.45 5.75 -6.2 Q6.1 -5.95 6.5 -5.85 7.2 -5.7 7.2 -6.35 M22.7 2.85 L22.7 2.55 22.7 2.5 Q22.7 1.25 20.6 1.25 L19.95 1.35 Q19.4 1.55 19.4 2.15 19.4 3.5 21.55 3.5 22.55 3.5 22.7 2.85 M15.75 4.65 Q14.55 3.5 14.7 2.85 L14.65 2.85 14.6 3.25 Q14.6 4.15 15.65 5.1 16.8 6.2 18.3 6.2 L19.2 5.95 Q16.4 5.35 15.75 4.65 M14.75 5.2 L14.9 5.1 13.7 4.0 13.65 4.1 Q13.65 4.4 14.75 5.2" fill="#999999" fill-rule="evenodd" stroke="none"/>
    <path d="M7.2 -6.35 L6.5 -7.7 10.25 -7.0 13.85 -5.8 14.45 -5.3 Q10.85 -5.15 7.2 -6.35 M9.1 5.5 L5.95 5.45 -1.05 4.1 -6.1 2.55 -13.7 -0.4 Q-16.65 -1.55 -21.15 -2.1 L-24.4 -2.2 -31.8 -1.8 -23.2 -4.0 Q-21.1 -4.7 -20.35 -6.7 L-21.1 -8.3 -13.5 -6.3 -16.55 -5.5 -15.95 -5.3 -18.45 -4.75 Q-19.5 -4.4 -19.5 -3.95 -19.5 -3.45 -15.75 -1.8 L-14.3 -1.1 Q-11.95 -0.8 -9.0 0.25 0.4 4.0 3.0 4.15 8.9 4.5 9.1 5.5" fill="#666666" fill-rule="evenodd" stroke="none"/>
  </g>
</svg>
