<?xml version="1.0" encoding="UTF-8" standalone="no"?>
<svg xmlns:xlink="http://www.w3.org/1999/xlink" height="43.6px" width="55.0px" xmlns="http://www.w3.org/2000/svg">
  <g transform="matrix(1.0, 0.0, 0.0, 1.0, 29.15, 20.75)">
    <path d="M14.05 -11.1 Q9.6 -12.45 6.1 -10.7 3.05 -8.8 -0.7 -9.05 L-8.75 -10.4 -14.45 -10.55 -16.9 -10.25 Q-20.45 -9.15 -22.4 -5.2 -23.7 -2.55 -23.85 0.1 L-23.85 0.15 Q-21.55 9.95 -16.3 13.45 L-14.15 14.45 -6.35 14.25 -2.2 13.2 2.8 12.4 Q4.0 12.3 6.75 13.3 9.35 14.05 12.55 13.35 L13.7 13.1 Q18.75 11.85 21.1 7.25 22.3 4.8 22.6 2.0 L22.65 1.65 Q22.85 -1.2 21.8 -4.0 20.05 -8.65 14.05 -11.1 M21.05 -12.85 Q25.4 -9.6 25.85 8.0 26.1 25.75 9.95 22.25 -6.5 18.65 -16.2 19.4 -25.8 20.4 -28.35 7.95 -30.95 -4.4 -24.85 -14.25 -18.65 -24.25 -8.4 -18.85 2.95 -13.25 9.95 -14.6 16.7 -16.3 21.05 -12.85" fill="#552000" fill-rule="evenodd" stroke="none"/>
    <path d="M14.05 -11.1 Q20.05 -8.65 21.8 -4.0 22.85 -1.2 22.65 1.65 L22.6 2.0 Q22.3 4.8 21.1 7.25 18.75 11.85 13.7 13.1 L12.55 13.35 Q9.35 14.05 6.75 13.3 4.0 12.3 2.8 12.4 L-2.2 13.2 -6.35 14.25 -14.15 14.45 -16.3 13.45 Q-21.55 9.95 -23.85 0.15 L-23.85 0.1 Q-23.7 -2.55 -22.4 -5.2 -20.45 -9.15 -16.9 -10.25 L-14.45 -10.55 -8.75 -10.4 -0.7 -9.05 Q3.05 -8.8 6.1 -10.7 9.6 -12.45 14.05 -11.1" fill="#853200" fill-rule="evenodd" stroke="none"/>
  </g>
</svg>
