<?xml version="1.0" encoding="UTF-8" standalone="no"?>
<svg xmlns:xlink="http://www.w3.org/1999/xlink" height="47.35px" width="53.8px" xmlns="http://www.w3.org/2000/svg">
  <g transform="matrix(1.0, 0.0, 0.0, 1.0, 29.15, 22.2)">
    <path d="M15.5 -12.15 Q11.0 -14.15 7.0 -13.15 3.65 -11.85 -0.5 -12.2 L-9.35 -13.1 Q-12.85 -13.25 -15.35 -12.35 -17.0 -12.2 -17.8 -11.65 -21.4 -9.95 -23.35 -5.65 -24.65 -2.85 -24.85 0.05 L-24.85 0.1 Q-23.2 10.5 -17.85 15.05 L-15.75 16.35 Q-12.9 18.45 -7.4 17.5 L-2.9 16.9 2.5 16.2 6.85 16.7 Q9.75 17.0 13.0 15.95 L14.25 15.5 Q19.35 13.6 21.8 8.6 23.1 5.95 23.45 2.95 L23.5 2.6 Q23.85 -0.6 22.9 -3.6 21.4 -8.8 15.5 -12.15 M22.15 -9.8 Q25.45 -5.05 24.4 11.35 23.15 27.9 7.55 24.6 -8.55 21.25 -17.8 20.15 -26.8 19.45 -28.7 6.8 -30.6 -5.8 -24.25 -15.5 -17.6 -25.5 -7.05 -20.6 5.15 -15.45 12.15 -14.85 18.85 -14.8 22.15 -9.8" fill="#552000" fill-rule="evenodd" stroke="none"/>
    <path d="M15.5 -12.15 Q21.4 -8.8 22.9 -3.6 23.85 -0.6 23.5 2.6 L23.45 2.95 Q23.1 5.95 21.8 8.6 19.35 13.6 14.25 15.5 L13.0 15.95 Q9.75 17.0 6.85 16.7 L2.5 16.2 -2.9 16.9 -7.4 17.5 Q-12.9 18.45 -15.75 16.35 L-17.85 15.05 Q-23.2 10.5 -24.85 0.1 L-24.85 0.05 Q-24.65 -2.85 -23.35 -5.65 -21.4 -9.95 -17.8 -11.65 -17.0 -12.2 -15.35 -12.35 -12.85 -13.25 -9.35 -13.1 L-0.5 -12.2 Q3.65 -11.85 7.0 -13.15 11.0 -14.15 15.5 -12.15" fill="#7e2f00" fill-rule="evenodd" stroke="none"/>
  </g>
</svg>
