<?xml version="1.0" encoding="UTF-8" standalone="no"?>
<svg xmlns:xlink="http://www.w3.org/1999/xlink" height="51.2px" width="53.75px" xmlns="http://www.w3.org/2000/svg">
  <g transform="matrix(1.0, 0.0, 0.0, 1.0, 29.25, 23.7)">
    <path d="M24.2 4.75 Q23.9 9.1 23.0 14.65 20.2 30.05 5.1 27.0 -10.65 23.85 -19.4 20.9 -27.85 18.55 -29.05 5.6 -30.3 -7.25 -23.6 -16.8 -16.55 -26.75 -5.75 -22.35 L14.35 -15.1 Q21.0 -13.3 23.2 -6.75 L24.05 -3.1 Q24.8 0.1 24.35 3.55 L24.3 3.9 24.25 4.3 24.2 4.65 24.2 4.75" fill="#772d00" fill-rule="evenodd" stroke="none"/>
    <path d="M24.25 4.3 L24.2 4.75 24.2 4.65 24.25 4.3" fill="#552000" fill-rule="evenodd" stroke="none"/>
  </g>
</svg>
