<?xml version="1.0" encoding="UTF-8" standalone="no"?>
<svg xmlns:xlink="http://www.w3.org/1999/xlink" height="55.1px" width="55.0px" xmlns="http://www.w3.org/2000/svg">
  <g transform="matrix(1.0, 0.0, 0.0, 1.0, 29.5, 25.25)">
    <path d="M22.3 -9.75 L22.8 -8.95 25.0 -3.6 25.05 -3.45 25.15 -2.8 Q25.8 0.7 25.25 4.45 L25.2 4.8 Q24.6 8.3 23.3 11.25 L21.6 18.0 Q17.3 32.25 2.65 29.4 -12.75 26.4 -21.0 21.65 -28.9 17.6 -29.45 4.4 -30.0 -8.65 -23.0 -18.1 -15.55 -28.0 -4.45 -24.15 7.55 -20.45 14.5 -16.6 L17.7 -14.7 18.3 -14.3 18.6 -14.0 Q20.85 -12.25 22.3 -9.75" fill="#712a00" fill-rule="evenodd" stroke="none"/>
  </g>
</svg>
