<?xml version="1.0" encoding="UTF-8" standalone="no"?>
<svg xmlns:xlink="http://www.w3.org/1999/xlink" height="59.0px" width="56.25px" xmlns="http://www.w3.org/2000/svg">
  <g transform="matrix(1.0, 0.0, 0.0, 1.0, 29.8, 26.75)">
    <path d="M13.7 -19.3 L14.6 -18.9 17.15 -17.4 17.55 -17.1 19.1 -15.9 19.7 -15.35 Q25.4 -9.2 26.25 -2.4 26.75 1.35 26.1 5.4 L26.05 5.75 Q25.35 9.45 23.95 12.65 L23.9 12.85 23.8 13.0 22.35 15.75 22.35 15.8 20.2 21.3 Q14.35 34.4 0.2 31.8 -14.85 29.0 -22.6 22.4 -29.95 16.7 -29.8 3.2 -29.7 -10.1 -22.35 -19.4 -14.5 -29.25 -3.15 -25.9 7.1 -23.25 13.65 -19.35 L12.75 -19.7 13.7 -19.3" fill="#6a2800" fill-rule="evenodd" stroke="none"/>
    <path d="M14.6 -18.9 L13.7 -19.3 13.65 -19.35 14.6 -18.9" fill="#552000" fill-rule="evenodd" stroke="none"/>
  </g>
</svg>
