<?xml version="1.0" encoding="UTF-8" standalone="no"?>
<svg xmlns:xlink="http://www.w3.org/1999/xlink" height="29.25px" width="23.55px" xmlns="http://www.w3.org/2000/svg">
  <g transform="matrix(1.0, 0.0, 0.0, 1.0, 8.7, 14.85)">
    <path d="M6.95 1.7 L7.6 1.05 Q9.2 -1.95 9.5 -3.45 L9.8 -6.8 9.3 -9.3 9.05 -10.2 Q9.05 -11.05 9.35 -11.35 L9.9 -9.9 12.3 -11.6 Q14.0 -12.5 14.15 -13.0 L13.6 -13.0 Q10.55 -12.1 9.3 -12.1 7.35 -12.1 5.8 -13.1 L4.15 -14.1 Q3.6 -14.1 3.6 -13.55 L4.35 -12.3 4.5 -10.55 5.35 -11.45 Q5.6 -11.15 5.45 -10.65 L4.1 -9.15 Q2.7 -8.15 -0.1 -7.25 L-1.85 -6.2 -3.15 -5.15 -4.95 -3.15 -5.1 -3.2 -5.8 -4.1 -6.05 -3.9 -7.25 1.85 -7.45 3.3 -7.5 4.8 Q-7.6 7.6 -5.95 9.9 -4.6 11.8 -2.4 12.55 0.0 13.45 2.45 12.95 L2.6 12.55 Q3.65 10.25 6.15 9.3 L4.95 10.8 3.9 12.45 4.9 11.6 6.8 9.75 Q7.7 8.8 7.85 7.55 8.0 5.8 7.4 4.35 L6.95 4.05 Q7.35 3.65 7.85 3.3 L9.95 1.75 7.3 2.15 6.55 2.7 Q6.55 2.25 6.7 1.95 L6.95 1.7 M3.9 12.45 L3.85 13.0 3.9 12.45 M14.85 -13.05 Q14.7 -12.35 10.1 -8.95 L10.65 -6.8 Q11.35 -4.4 10.55 -2.2 10.2 -1.15 8.85 1.15 L9.7 1.05 10.9 1.15 11.35 1.45 Q10.5 2.8 9.25 3.5 L8.35 4.05 Q9.25 5.85 8.95 7.8 L8.45 9.55 Q7.25 11.95 4.9 13.1 1.85 14.6 -0.75 14.35 -3.35 13.85 -5.7 12.05 -7.6 10.6 -8.3 8.25 -8.95 6.0 -8.55 3.75 L-7.9 0.1 -7.25 -2.85 -5.75 -5.6 -4.95 -4.05 Q-3.6 -7.0 -0.1 -8.05 1.45 -8.5 3.7 -9.9 L3.9 -10.8 Q3.9 -12.05 2.9 -13.55 2.9 -14.85 4.2 -14.85 L6.05 -13.85 Q7.65 -12.85 9.3 -12.85 11.7 -12.85 13.95 -13.8 15.0 -13.8 14.85 -13.05 M1.55 -0.8 L3.8 -0.1 Q5.2 0.6 5.2 1.1 L5.15 1.45 Q5.1 1.6 4.85 1.6 3.25 0.15 0.95 -0.7 L1.55 -0.8 M3.95 -1.05 L5.15 -0.45 4.95 -0.2 3.85 -1.05 3.95 -1.05 M-2.5 4.6 L-2.25 4.6 -1.55 4.3 -1.1 3.65 -0.7 2.5 -0.7 2.25 -0.45 2.85 -0.4 3.3 Q-0.4 4.95 -1.75 4.95 -2.3 4.95 -2.5 4.6" fill="#000000" fill-rule="evenodd" stroke="none"/>
    <path d="M5.45 -10.65 L6.2 -11.6 6.0 -10.65 Q5.8 -9.85 4.0 -7.7 L3.05 -5.9 2.35 -4.2 1.8 -3.3 1.65 -4.2 Q1.55 -4.65 1.95 -5.75 0.65 -5.55 -1.4 -4.0 -1.2 -4.85 -0.5 -5.4 L1.4 -7.1 4.1 -9.15 5.45 -10.65 M6.55 2.7 L7.3 2.15 9.95 1.75 7.85 3.3 7.25 3.6 Q6.55 3.4 6.55 2.75 L6.55 2.7 M-0.7 2.25 L-0.7 2.5 -1.1 3.65 -1.55 4.3 -2.25 4.6 -2.5 4.6 -2.65 3.95 -2.65 3.8 -2.6 3.75 Q-2.1 2.1 -1.1 2.1 L-1.05 2.1 Q-0.85 2.1 -0.7 2.25" fill="#cccccc" fill-rule="evenodd" stroke="none"/>
    <path d="M5.45 -10.65 Q5.6 -11.15 5.35 -11.45 L4.5 -10.55 4.35 -12.3 3.6 -13.55 Q3.6 -14.1 4.15 -14.1 L5.8 -13.1 Q7.35 -12.1 9.3 -12.1 10.55 -12.1 13.6 -13.0 L14.15 -13.0 Q14.0 -12.5 12.3 -11.6 L9.9 -9.9 9.35 -11.35 Q9.05 -11.05 9.05 -10.2 L9.3 -9.3 9.8 -6.8 9.5 -3.45 Q9.2 -1.95 7.6 1.05 L6.95 1.7 Q6.7 1.3 6.7 0.65 8.7 -4.1 8.7 -7.0 L8.5 -9.4 Q7.85 -11.2 6.75 -11.55 L6.2 -11.6 5.45 -10.65 M-7.5 4.8 L-7.45 3.3 -7.25 1.85 -6.05 -3.9 -5.8 -4.1 -5.1 -3.2 -4.95 -3.15 -5.6 -0.05 -7.5 4.8" fill="#666666" fill-rule="evenodd" stroke="none"/>
    <path d="M6.2 -11.6 L6.75 -11.55 Q7.85 -11.2 8.5 -9.4 L8.7 -7.0 Q8.7 -4.1 6.7 0.65 6.7 1.3 6.95 1.7 L6.7 1.95 Q6.55 2.25 6.55 2.7 L6.55 2.75 Q6.55 3.4 7.25 3.6 L7.85 3.3 Q7.35 3.65 6.95 4.05 L7.4 4.35 Q8.0 5.8 7.85 7.55 7.7 8.8 6.8 9.75 L4.9 11.6 3.9 12.45 4.95 10.8 6.15 9.3 Q3.65 10.25 2.6 12.55 L2.45 12.95 Q0.0 13.45 -2.4 12.55 -4.6 11.8 -5.95 9.9 -7.6 7.6 -7.5 4.8 L-5.6 -0.05 -4.95 -3.15 -3.15 -5.15 -1.85 -6.2 -0.1 -7.25 Q2.7 -8.15 4.1 -9.15 L1.4 -7.1 -0.5 -5.4 Q-1.2 -4.85 -1.4 -4.0 0.65 -5.55 1.95 -5.75 1.55 -4.65 1.65 -4.2 L1.8 -3.3 2.35 -4.2 3.05 -5.9 4.0 -7.7 Q5.8 -9.85 6.0 -10.65 L6.2 -11.6 M3.95 -1.05 L3.85 -1.05 4.95 -0.2 5.15 -0.45 3.95 -1.05 M1.55 -0.8 L0.95 -0.7 Q3.25 0.15 4.85 1.6 5.1 1.6 5.15 1.45 L5.2 1.1 Q5.2 0.6 3.8 -0.1 L1.55 -0.8 M-2.5 4.6 Q-2.3 4.95 -1.75 4.95 -0.4 4.95 -0.4 3.3 L-0.45 2.85 -0.7 2.25 Q-0.85 2.1 -1.05 2.1 L-1.1 2.1 Q-2.1 2.1 -2.6 3.75 L-2.65 3.8 -2.65 3.95 -2.5 4.6" fill="#999999" fill-rule="evenodd" stroke="none"/>
  </g>
</svg>
