<?xml version="1.0" encoding="UTF-8" standalone="no"?>
<svg xmlns:xlink="http://www.w3.org/1999/xlink" height="62.25px" width="36.7px" xmlns="http://www.w3.org/2000/svg">
  <g transform="matrix(1.0, 0.0, 0.0, 1.0, 18.6, 30.25)">
    <path d="M13.85 -20.2 Q18.7 -10.9 18.0 1.9 17.35 14.6 11.8 23.4 6.05 32.4 -1.6 32.0 -9.5 31.5 -14.35 21.95 -19.0 12.75 -18.55 -0.1 -18.05 -12.85 -12.8 -21.7 -7.35 -30.65 0.2 -30.25 8.85 -29.7 13.85 -20.2 M9.3 -13.6 Q7.15 -20.25 2.4 -21.1 -0.2 -21.5 -2.45 -19.4 -5.95 -17.55 -8.7 -10.0 -10.85 -3.8 -11.15 3.75 L-11.15 3.8 Q-11.85 9.45 -10.85 14.7 L-9.95 18.25 Q-7.9 24.5 -3.0 25.3 -1.2 25.6 0.5 24.4 4.6 22.6 7.45 14.65 9.85 9.25 10.55 1.5 L10.65 0.85 Q11.35 -4.85 10.3 -10.05 9.9 -12.0 9.3 -13.6" fill="#552000" fill-rule="evenodd" stroke="none"/>
    <path d="M9.3 -13.6 Q9.9 -12.0 10.3 -10.05 11.35 -4.85 10.65 0.85 L10.55 1.5 Q9.85 9.25 7.45 14.65 4.6 22.6 0.5 24.4 -1.2 25.6 -3.0 25.3 -7.9 24.5 -9.95 18.25 L-10.85 14.7 Q-11.85 9.45 -11.15 3.8 L-11.15 3.75 Q-10.85 -3.8 -8.7 -10.0 -5.95 -17.55 -2.45 -19.4 -0.2 -21.5 2.4 -21.1 7.15 -20.25 9.3 -13.6" fill="#853200" fill-rule="evenodd" stroke="none"/>
  </g>
</svg>
