<?xml version="1.0" encoding="UTF-8" standalone="no"?>
<svg xmlns:xlink="http://www.w3.org/1999/xlink" height="65.8px" width="47.05px" xmlns="http://www.w3.org/2000/svg">
  <g transform="matrix(1.0, 0.0, 0.0, 1.0, 24.1, 30.75)">
    <path d="M18.75 -18.6 Q24.25 -8.7 22.55 4.8 20.9 17.95 13.55 26.8 5.85 36.05 -3.95 34.95 -14.5 33.75 -19.95 23.1 -25.05 13.25 -23.85 -0.2 -22.65 -13.5 -16.1 -22.35 -9.1 -31.65 0.45 -30.65 12.8 -29.3 18.75 -18.6 M16.15 -14.85 Q12.9 -22.1 6.2 -24.25 L-1.05 -24.45 Q-7.8 -24.1 -13.75 -15.65 -18.55 -8.35 -19.6 2.0 L-19.6 2.05 Q-20.7 9.8 -19.0 16.5 L-17.4 21.0 Q-14.3 28.3 -7.9 30.25 L-2.75 30.65 Q5.0 30.45 11.1 21.8 16.4 15.05 18.15 5.05 L18.35 4.2 Q19.7 -3.6 17.85 -10.3 17.2 -12.7 16.15 -14.85" fill="#552000" fill-rule="evenodd" stroke="none"/>
    <path d="M16.15 -14.85 Q17.2 -12.7 17.85 -10.3 19.7 -3.6 18.35 4.2 L18.15 5.05 Q16.4 15.05 11.1 21.8 5.0 30.45 -2.75 30.65 L-7.9 30.25 Q-14.3 28.3 -17.4 21.0 L-19.0 16.5 Q-20.7 9.8 -19.6 2.05 L-19.6 2.0 Q-18.55 -8.35 -13.75 -15.65 -7.8 -24.1 -1.05 -24.45 L6.2 -24.25 Q12.9 -22.1 16.15 -14.85" fill="#712a00" fill-rule="evenodd" stroke="none"/>
  </g>
</svg>
