<?xml version="1.0" encoding="UTF-8" standalone="no"?>
<svg xmlns:xlink="http://www.w3.org/1999/xlink" height="68.3px" width="54.0px" xmlns="http://www.w3.org/2000/svg">
  <g transform="matrix(1.0, 0.0, 0.0, 1.0, 27.75, 31.15)">
    <path d="M22.05 -17.5 Q27.95 -7.25 25.6 6.7 23.25 20.2 14.75 29.05 5.7 38.5 -5.5 36.95 -17.8 35.25 -23.65 23.85 -29.05 13.55 -27.35 -0.25 -25.7 -13.9 -18.3 -22.8 -10.25 -32.35 0.6 -30.95 15.45 -29.0 22.05 -17.5 M20.75 -15.65 Q16.7 -23.35 8.7 -26.35 4.65 -27.85 -0.15 -27.85 -9.0 -28.45 -17.15 -19.45 -23.65 -11.35 -25.25 0.85 L-25.25 0.9 Q-26.6 10.05 -24.4 17.7 -23.6 20.4 -22.4 22.8 -18.6 30.8 -11.2 33.55 -8.25 34.7 -4.95 34.8 5.3 35.7 13.55 26.55 20.75 18.9 23.25 7.45 L23.45 6.4 Q25.25 -2.8 22.9 -10.45 22.1 -13.15 20.75 -15.65" fill="#552000" fill-rule="evenodd" stroke="none"/>
    <path d="M20.75 -15.65 Q22.1 -13.15 22.9 -10.45 25.25 -2.8 23.45 6.4 L23.25 7.45 Q20.75 18.9 13.55 26.55 5.3 35.7 -4.95 34.8 -8.25 34.7 -11.2 33.55 -18.6 30.8 -22.4 22.8 -23.6 20.4 -24.4 17.7 -26.6 10.05 -25.25 0.9 L-25.25 0.85 Q-23.65 -11.35 -17.15 -19.45 -9.0 -28.45 -0.15 -27.85 4.65 -27.85 8.7 -26.35 16.7 -23.35 20.75 -15.65" fill="#632500" fill-rule="evenodd" stroke="none"/>
  </g>
</svg>
