<?xml version="1.0" encoding="UTF-8" standalone="no"?>
<svg xmlns:xlink="http://www.w3.org/1999/xlink" height="30.0px" width="60.0px" xmlns="http://www.w3.org/2000/svg">
  <g transform="matrix(1.0, 0.0, 0.0, 1.0, 30.0, 15.0)">
    <path d="M19.25 -2.1 L18.75 1.75 16.85 3.85 15.4 4.6 14.35 4.9 0.85 5.0 Q-15.85 5.0 -20.65 2.95 -22.45 2.15 -22.85 1.0 L-23.0 -0.9 Q-23.0 -2.55 -22.45 -3.4 L-20.0 -6.0 Q-17.75 -8.25 -16.4 -8.65 -15.9 -9.3 -15.0 -9.55 L-4.25 -10.0 Q11.2 -10.0 16.2 -7.55 19.25 -6.0 19.25 -2.1" fill="#933700" fill-rule="evenodd" stroke="none"/>
    <path d="M21.15 -10.6 Q30.0 -6.2 30.0 0.0 30.0 6.2 21.15 10.6 12.4 15.0 0.0 15.0 -12.4 15.0 -21.25 10.6 -30.0 6.2 -30.0 0.0 -30.0 -6.2 -21.25 -10.6 -12.4 -15.0 0.0 -15.0 12.4 -15.0 21.15 -10.6 M19.25 -2.1 Q19.25 -6.0 16.2 -7.55 11.2 -10.0 -4.25 -10.0 L-15.0 -9.55 Q-15.9 -9.3 -16.4 -8.65 -17.75 -8.25 -20.0 -6.0 L-22.45 -3.4 Q-23.0 -2.55 -23.0 -0.9 L-22.85 1.0 Q-22.45 2.15 -20.65 2.95 -15.85 5.0 0.85 5.0 L14.35 4.9 15.4 4.6 16.85 3.85 18.75 1.75 19.25 -2.1" fill="#552000" fill-rule="evenodd" stroke="none"/>
  </g>
</svg>
