<?xml version="1.0" encoding="UTF-8" standalone="no"?>
<svg xmlns:xlink="http://www.w3.org/1999/xlink" height="43.5px" width="60.0px" xmlns="http://www.w3.org/2000/svg">
  <g transform="matrix(1.0, 0.0, 0.0, 1.0, 30.35, 20.45)">
    <path d="M20.55 -6.9 Q19.0 -9.45 15.9 -11.5 10.05 -16.2 -1.65 -17.05 L-3.55 -17.15 Q-12.85 -17.25 -16.9 -14.05 L-18.55 -12.6 Q-20.4 -11.1 -22.5 -8.1 -24.45 -5.55 -24.95 -4.1 -25.5 -2.7 -25.65 -0.7 L-25.7 1.85 Q-25.5 3.7 -24.25 5.25 -22.6 8.6 -18.1 11.2 -12.75 15.55 -3.15 16.3 L-0.3 16.4 Q6.4 16.35 12.6 13.7 14.65 12.9 17.65 11.15 L19.2 9.65 21.35 6.4 22.4 1.3 Q22.9 -3.75 20.55 -6.9 M22.55 -12.55 Q30.55 -6.05 29.55 2.85 28.55 11.6 19.4 17.5 10.1 23.65 -2.35 23.0 -15.3 22.25 -23.3 15.3 -31.0 8.75 -30.3 -0.1 -29.6 -8.9 -21.0 -14.8 -12.05 -21.0 0.25 -20.4 14.3 -19.55 22.55 -12.55" fill="#552000" fill-rule="evenodd" stroke="none"/>
    <path d="M20.55 -6.9 Q22.9 -3.75 22.4 1.3 L21.35 6.4 19.2 9.65 17.65 11.15 Q14.65 12.9 12.6 13.7 6.4 16.35 -0.3 16.4 L-3.15 16.3 Q-12.75 15.55 -18.1 11.2 -22.6 8.6 -24.25 5.25 -25.5 3.7 -25.7 1.85 L-25.65 -0.7 Q-25.5 -2.7 -24.95 -4.1 -24.45 -5.55 -22.5 -8.1 -20.4 -11.1 -18.55 -12.6 L-16.9 -14.05 Q-12.85 -17.25 -3.55 -17.15 L-1.65 -17.05 Q10.05 -16.2 15.9 -11.5 19.0 -9.45 20.55 -6.9" fill="#7e2f00" fill-rule="evenodd" stroke="none"/>
  </g>
</svg>
