<?xml version="1.0" encoding="UTF-8" standalone="no"?>
<svg xmlns:xlink="http://www.w3.org/1999/xlink" height="52.55px" width="60.15px" xmlns="http://www.w3.org/2000/svg">
  <g transform="matrix(1.0, 0.0, 0.0, 1.0, 30.65, 24.1)">
    <path d="M23.4 -6.5 Q22.1 -10.1 19.05 -13.15 12.7 -20.35 -0.8 -21.8 L-3.1 -21.9 Q-12.7 -22.1 -18.15 -17.05 L-20.0 -15.25 Q-22.15 -13.0 -24.2 -9.55 -25.95 -6.7 -26.6 -4.55 L-27.4 -0.6 -27.4 -0.55 -27.55 2.45 Q-27.55 4.75 -26.6 6.8 -25.35 11.7 -21.2 15.65 -15.55 22.6 -4.5 23.85 L-1.05 24.05 Q6.75 23.95 13.75 19.55 15.95 18.25 19.1 15.5 L20.75 13.5 23.05 9.5 Q24.0 6.6 24.5 3.55 25.35 -2.25 23.4 -6.5 M23.45 -13.85 Q30.9 -5.95 29.2 4.8 27.55 15.2 18.25 22.1 8.6 29.4 -3.95 28.3 -17.25 27.1 -24.65 18.4 -31.7 10.5 -30.5 -0.2 -29.3 -10.75 -20.85 -17.65 -11.85 -25.0 0.45 -24.0 15.55 -22.6 23.45 -13.85" fill="#552000" fill-rule="evenodd" stroke="none"/>
    <path d="M23.4 -6.5 Q25.35 -2.25 24.5 3.55 24.0 6.6 23.05 9.5 L20.75 13.5 19.1 15.5 Q15.95 18.25 13.75 19.55 6.75 23.95 -1.05 24.05 L-4.5 23.85 Q-15.55 22.6 -21.2 15.65 -25.35 11.7 -26.6 6.8 -27.55 4.75 -27.55 2.45 L-27.4 -0.55 -27.4 -0.6 -26.6 -4.55 Q-25.95 -6.7 -24.2 -9.55 -22.15 -13.0 -20.0 -15.25 L-18.15 -17.05 Q-12.7 -22.1 -3.1 -21.9 L-0.8 -21.8 Q12.7 -20.35 19.05 -13.15 22.1 -10.1 23.4 -6.5" fill="#712a00" fill-rule="evenodd" stroke="none"/>
  </g>
</svg>
