<?xml version="1.0" encoding="UTF-8" standalone="no"?>
<svg xmlns:xlink="http://www.w3.org/1999/xlink" height="61.7px" width="60.55px" xmlns="http://www.w3.org/2000/svg">
  <g transform="matrix(1.0, 0.0, 0.0, 1.0, 31.05, 27.8)">
    <path d="M22.15 -14.8 Q15.4 -24.55 0.0 -26.5 L-2.6 -26.7 Q-12.6 -26.95 -19.45 -20.05 L-21.4 -17.85 Q-23.9 -14.9 -25.85 -10.95 -27.45 -7.9 -28.25 -5.0 L-29.15 -0.45 -29.15 -0.4 -29.45 3.0 Q-29.55 5.75 -29.0 8.3 -28.15 14.85 -24.3 20.15 -18.3 29.7 -5.8 31.4 L-1.85 31.65 Q7.1 31.55 14.85 25.45 17.3 23.55 20.6 19.85 L22.35 17.4 24.8 12.6 Q25.9 9.5 26.6 5.85 27.75 -0.75 26.3 -6.05 25.15 -10.8 22.15 -14.8 M24.4 -15.15 Q31.3 -5.85 28.9 6.7 26.6 18.8 17.1 26.7 7.05 35.15 -5.5 33.65 -19.15 31.9 -26.05 21.55 -32.35 12.2 -30.7 -0.25 -29.05 -12.55 -20.65 -20.45 -11.6 -29.0 0.6 -27.6 16.85 -25.65 24.4 -15.15" fill="#552000" fill-rule="evenodd" stroke="none"/>
    <path d="M22.15 -14.8 Q25.15 -10.8 26.3 -6.05 27.75 -0.75 26.6 5.85 25.9 9.5 24.8 12.6 L22.35 17.4 20.6 19.85 Q17.3 23.55 14.85 25.45 7.1 31.55 -1.85 31.65 L-5.8 31.4 Q-18.3 29.7 -24.3 20.15 -28.15 14.85 -29.0 8.3 -29.55 5.75 -29.45 3.0 L-29.15 -0.4 -29.15 -0.45 -28.25 -5.0 Q-27.45 -7.9 -25.85 -10.95 -23.9 -14.9 -21.4 -17.85 L-19.45 -20.05 Q-12.6 -26.95 -2.6 -26.7 L0.0 -26.5 Q15.4 -24.55 22.15 -14.8" fill="#632500" fill-rule="evenodd" stroke="none"/>
  </g>
</svg>
