<?xml version="1.0" encoding="UTF-8" standalone="no"?>
<svg xmlns:xlink="http://www.w3.org/1999/xlink" height="135.3px" width="218.85px" xmlns="http://www.w3.org/2000/svg">
  <g transform="matrix(1.0, 0.0, 0.0, 1.0, 108.55, 68.25)">
    <path d="M67.25 -52.4 L71.6 -50.9 Q75.7 -49.45 77.8 -47.9 78.75 -47.2 80.85 -44.15 82.6 -41.55 85.2 -40.5 89.65 -38.65 90.95 -36.85 L93.35 -33.15 94.2 -32.25 96.3 -29.1 Q97.5 -27.25 98.85 -26.1 101.3 -22.45 103.05 -18.4 L103.05 -18.3 103.45 -16.9 Q105.15 -14.15 106.65 -10.2 109.2 -3.6 110.3 3.0 110.3 10.85 103.1 22.8 100.8 26.55 97.35 30.45 L97.2 31.15 Q96.4 33.6 90.7 37.15 L84.75 42.15 Q66.55 56.5 54.65 58.7 L38.25 63.4 Q25.35 67.05 16.05 67.05 13.55 67.05 12.05 66.45 L6.55 66.6 Q1.5 66.6 -4.5 65.05 -10.55 63.5 -12.3 63.5 L-16.4 63.85 -18.65 62.6 Q-20.8 61.45 -22.4 61.15 L-26.6 60.4 -33.85 59.8 -40.3 58.95 -42.1 58.35 Q-47.85 57.85 -61.95 51.9 -70.5 48.3 -74.4 45.7 L-74.8 45.7 Q-84.3 43.05 -89.85 36.7 L-94.65 30.4 Q-97.6 26.4 -100.15 24.0 L-100.9 23.25 Q-105.15 22.25 -106.9 14.7 -107.95 10.35 -107.9 5.6 L-107.85 2.9 -108.55 -0.35 Q-108.55 -2.6 -108.15 -4.3 L-107.85 -5.25 -107.85 -5.3 -107.85 -5.35 Q-107.3 -7.15 -107.2 -8.35 L-106.75 -8.8 -105.3 -10.8 Q-102.35 -15.25 -100.95 -22.15 L-100.05 -25.65 Q-99.0 -27.7 -95.8 -29.15 L-95.15 -29.5 Q-93.1 -29.85 -92.3 -33.55 L-92.15 -34.1 -91.45 -35.0 Q-91.05 -35.45 -90.4 -35.7 L-89.4 -36.2 -87.25 -37.7 -86.75 -38.05 Q-81.85 -41.35 -80.65 -42.55 L-78.2 -45.15 Q-76.65 -46.4 -73.7 -46.65 -69.95 -46.95 -67.95 -48.0 -67.7 -48.1 -64.6 -50.3 -63.55 -51.1 -57.15 -54.05 -53.95 -56.35 -53.35 -56.55 L-48.85 -57.25 Q-45.6 -57.45 -43.95 -58.15 L-34.7 -62.25 Q-27.6 -65.15 -23.85 -65.15 L-21.2 -65.05 Q-20.25 -66.1 -18.25 -66.65 -12.45 -68.25 6.35 -68.25 23.7 -68.25 46.75 -61.2 61.25 -56.75 67.25 -52.4" fill="#f4cb93" fill-rule="evenodd" stroke="none"/>
  </g>
</svg>
