<?xml version="1.0" encoding="UTF-8" standalone="no"?>
<svg xmlns:xlink="http://www.w3.org/1999/xlink" height="61.15px" width="37.0px" xmlns="http://www.w3.org/2000/svg">
  <g transform="matrix(1.0, 0.0, 0.0, 1.0, 20.8, 30.9)">
    <path d="M9.05 -25.6 Q8.8 -27.0 9.65 -28.4 L10.25 -29.25 9.95 -30.05 11.45 -30.9 Q14.3 -31.0 16.2 -28.6 13.15 -20.15 8.75 -11.95 L4.05 -3.2 2.8 -0.95 2.15 0.45 Q1.15 2.8 -0.7 4.5 -1.8 9.35 -5.05 13.3 L-6.9 15.95 Q-8.25 18.3 -10.2 20.3 -11.0 23.5 -13.6 25.9 -15.0 27.15 -16.05 28.75 L-17.0 30.25 -20.8 26.95 -20.6 26.15 Q-18.45 24.15 -16.85 21.75 -18.05 24.25 -19.6 26.65 L-19.7 26.75 -19.65 26.8 -19.6 27.2 -19.4 27.1 -19.3 27.2 -19.05 27.4 -17.2 28.9 -16.6 27.35 -16.35 26.85 -16.25 26.7 -15.75 26.0 -15.3 25.35 -15.9 25.4 -15.3 25.05 -14.85 24.8 -13.9 24.1 -12.65 23.2 -12.0 22.35 -11.7 21.8 -11.65 21.65 -11.45 21.05 -11.3 20.3 -11.2 19.75 -13.55 19.7 -11.7 19.15 -11.4 19.05 -9.35 17.95 -8.8 17.4 -7.55 15.8 -6.7 14.25 -6.5 13.65 -6.2 12.5 -9.35 13.65 -8.95 13.35 Q-8.0 12.7 -5.55 11.85 L-4.3 10.45 -3.25 8.9 -2.9 8.35 -2.55 7.6 -2.2 6.55 -2.1 5.85 -1.95 4.9 -4.45 6.1 -5.45 6.45 Q-2.05 5.05 0.2 2.4 L1.05 1.2 1.25 0.9 1.4 0.65 1.9 -0.45 1.95 -0.95 1.35 -1.45 -0.5 -0.7 -1.0 -0.65 -0.7 -1.15 1.3 -2.25 3.25 -3.3 3.25 -3.4 3.9 -4.1 4.5 -5.25 5.15 -6.95 5.3 -7.65 5.3 -7.85 5.1 -7.7 3.6 -6.95 2.7 -6.8 2.3 -6.9 5.7 -8.75 6.0 -9.1 6.6 -9.9 7.2 -10.7 7.55 -11.25 7.9 -11.75 8.5 -12.7 8.7 -13.05 9.2 -14.4 9.3 -15.3 6.7 -14.45 8.2 -15.35 10.45 -17.25 10.65 -17.5 10.65 -17.55 11.15 -18.35 11.4 -18.85 11.55 -19.2 11.8 -19.75 12.1 -21.0 12.3 -21.9 12.3 -22.25 12.3 -22.3 12.25 -22.25 10.9 -21.55 10.55 -21.5 11.1 -22.05 12.65 -23.1 13.05 -23.4 13.75 -24.2 14.15 -25.05 14.4 -25.65 14.65 -26.35 14.7 -26.9 14.55 -27.65 14.45 -28.3 14.65 -28.65 14.55 -28.75 13.95 -29.1 14.1 -29.1 13.8 -29.4 12.6 -29.8 10.8 -30.0 10.75 -29.25 9.05 -25.6 M-14.8 18.2 Q-12.35 13.9 -9.55 9.9 -4.7 3.05 -1.2 -4.3 1.6 -10.25 5.05 -15.8 6.5 -18.1 6.25 -20.8 L8.85 -25.2 6.8 -18.55 6.7 -18.3 6.55 -17.9 6.55 -17.75 3.5 -12.6 3.2 -11.5 2.9 -10.4 2.85 -10.1 -7.15 7.2 -12.45 15.85 Q-13.35 17.35 -14.8 18.2 M-19.7 26.75 L-19.75 26.75 -19.7 26.75" fill="#000000" fill-rule="evenodd" stroke="none"/>
    <path d="M-16.85 21.75 L-14.8 18.2 Q-13.35 17.35 -12.45 15.85 L-7.15 7.2 2.85 -10.1 3.05 -10.55 3.25 -11.6 3.5 -12.6 6.55 -17.75 6.75 -18.0 6.75 -18.35 6.8 -18.55 8.85 -25.2 9.05 -25.6 10.75 -29.25 12.6 -29.8 13.8 -29.4 11.75 -28.9 Q10.85 -28.45 10.85 -27.8 L10.85 -27.4 10.8 -26.95 14.45 -28.3 14.55 -27.65 10.75 -26.15 10.45 -25.2 9.8 -24.3 12.8 -26.1 14.7 -26.9 14.65 -26.35 Q11.95 -25.35 9.6 -23.95 L9.25 -23.35 8.5 -21.8 9.3 -22.4 8.45 -21.55 8.35 -20.9 Q11.2 -23.45 13.05 -23.4 L12.65 -23.1 8.35 -20.65 11.1 -22.05 10.55 -21.5 8.25 -19.6 8.15 -19.05 12.1 -21.0 11.8 -19.75 7.8 -17.75 7.55 -17.25 5.8 -15.3 10.6 -18.35 11.15 -18.35 10.65 -17.55 10.6 -17.55 5.15 -14.35 4.85 -13.45 8.2 -15.35 6.7 -14.45 4.5 -12.15 4.15 -11.0 7.9 -14.45 9.3 -15.3 9.2 -14.4 5.6 -11.95 4.15 -11.0 4.0 -10.5 8.5 -12.7 7.9 -11.75 Q6.1 -11.1 3.95 -9.7 L3.8 -8.95 3.6 -8.5 6.6 -9.9 6.0 -9.1 5.75 -8.95 2.3 -6.9 1.4 -6.0 0.75 -4.75 0.55 -4.3 0.0 -3.1 3.0 -5.85 5.15 -6.95 4.5 -5.25 3.35 -4.75 4.6 -5.7 1.9 -3.9 -0.6 -1.4 -0.7 -1.15 -1.0 -0.65 -1.05 -0.15 -1.35 0.05 -1.95 1.0 1.9 -0.45 1.4 0.65 -2.2 1.6 -2.6 2.3 -3.8 3.5 -2.7 3.0 0.2 2.4 Q-2.05 5.05 -5.45 6.45 L-4.45 6.1 -5.8 6.9 -5.9 7.6 -6.15 8.4 -2.2 6.55 -2.55 7.6 -3.75 7.9 -6.05 8.5 -6.15 8.4 -6.2 8.5 -6.25 8.55 -6.75 9.25 -4.55 8.45 -2.9 8.35 -3.25 8.9 -3.65 9.5 -4.55 9.65 Q-6.1 9.55 -7.4 10.45 L-9.25 12.15 -6.35 10.85 -4.3 10.45 -5.55 11.85 -9.85 13.15 -10.25 14.05 -8.95 13.35 -9.35 13.65 -6.2 12.5 -6.5 13.65 -10.4 14.8 -10.65 15.3 -11.0 16.05 -7.0 14.5 -8.5 14.6 Q-7.6 14.15 -6.7 14.25 L-7.55 15.8 -12.75 17.8 -13.65 18.8 -9.35 17.95 -11.4 19.05 -11.75 19.15 Q-12.6 19.0 -14.1 19.6 L-14.5 20.45 -11.2 19.75 -11.3 20.3 -14.65 21.0 -14.95 21.65 -15.4 22.35 -12.85 21.85 -11.7 21.8 -12.0 22.35 -15.9 22.9 -16.65 23.75 -17.05 24.15 -12.95 23.2 -12.65 23.2 -13.9 24.1 -17.4 24.75 -17.85 25.4 -18.1 25.75 -15.9 25.4 -15.3 25.35 -15.75 26.0 -18.6 26.35 -19.4 27.1 -19.6 27.2 -19.65 26.8 -19.6 26.65 Q-18.05 24.25 -16.85 21.75 M14.15 -25.05 L13.75 -24.2 10.55 -23.2 14.15 -25.05 M3.25 -3.3 L1.3 -2.25 2.55 -3.0 3.25 -3.3 M-0.5 -0.7 L1.35 -1.45 -0.95 -0.2 -0.5 -0.7 M-16.35 26.85 L-16.6 27.35 -19.05 27.4 -19.3 27.2 -18.7 27.0 -16.35 26.85 M-0.45 3.0 Q-1.4 2.6 -2.85 3.4 -4.7 4.35 -5.6 6.3 L-0.45 3.0" fill="#ab000c" fill-rule="evenodd" stroke="none"/>
    <path d="M10.75 -29.25 L10.8 -30.0 12.6 -29.8 10.75 -29.25 M13.95 -29.1 L14.55 -28.75 Q12.25 -28.55 10.85 -27.4 L10.85 -27.8 13.95 -29.1 M14.65 -28.65 L14.45 -28.3 10.8 -26.95 Q12.75 -28.4 14.65 -28.65 M14.55 -27.65 L14.7 -26.9 12.8 -26.1 14.55 -27.0 10.45 -25.2 10.75 -26.15 14.55 -27.65 M14.65 -26.35 L14.4 -25.65 Q11.0 -24.6 9.25 -23.35 L9.6 -23.95 Q11.95 -25.35 14.65 -26.35 M13.75 -24.2 L13.05 -23.4 Q11.2 -23.45 8.35 -20.9 L8.45 -21.55 9.3 -22.4 10.55 -23.2 13.75 -24.2 M10.55 -21.5 L10.9 -21.55 8.25 -19.6 10.55 -21.5 M12.25 -22.25 L12.3 -22.3 12.3 -22.25 12.25 -22.25 M12.3 -21.9 L12.1 -21.0 8.15 -19.05 12.3 -21.9 M11.8 -19.75 L11.55 -19.2 7.55 -17.25 7.8 -17.75 11.8 -19.75 M11.4 -18.85 L11.15 -18.35 10.6 -18.35 11.4 -18.85 M10.65 -17.5 L10.45 -17.25 5.15 -14.35 10.6 -17.55 10.65 -17.5 M6.7 -14.45 L9.3 -15.3 7.9 -14.45 4.5 -12.15 6.7 -14.45 M9.2 -14.4 L8.7 -13.05 5.6 -11.95 9.2 -14.4 M7.9 -11.75 L7.55 -11.25 3.95 -9.7 Q6.1 -11.1 7.9 -11.75 M7.2 -10.7 L6.6 -9.9 3.6 -8.5 3.8 -8.95 Q5.15 -9.8 7.2 -10.7 M5.7 -8.75 L2.3 -6.9 2.7 -6.8 1.4 -6.0 2.3 -6.9 5.75 -8.95 5.7 -8.75 M3.6 -6.95 L5.1 -7.7 5.3 -7.65 5.15 -6.95 3.0 -5.85 0.55 -4.3 0.75 -4.75 3.6 -6.95 M4.5 -5.25 L3.9 -4.1 -0.6 -1.4 1.9 -3.9 3.35 -4.75 4.5 -5.25 M3.25 -3.4 L3.25 -3.3 2.55 -3.0 3.25 -3.4 M1.35 -1.45 L1.95 -0.95 -1.35 0.05 -1.05 -0.15 -0.95 -0.2 1.35 -1.45 M1.4 0.65 L1.25 0.9 -2.6 2.3 -2.2 1.6 1.4 0.65 M1.05 1.2 L0.2 2.4 -2.7 3.0 1.05 1.2 M-4.45 6.1 L-1.95 4.9 -2.1 5.85 Q-3.35 6.15 -5.9 7.6 L-5.8 6.9 -4.45 6.1 M-2.55 7.6 L-2.9 8.35 -4.55 8.45 -3.25 7.85 -3.75 7.9 -2.55 7.6 M-3.25 8.9 L-4.3 10.45 -6.35 10.85 -4.55 9.65 -3.65 9.5 -3.25 8.9 M-6.5 13.65 L-6.7 14.25 Q-7.6 14.15 -8.5 14.6 L-10.65 15.3 -10.4 14.8 -6.5 13.65 M-7.55 15.8 L-8.8 17.4 -12.75 17.8 -7.55 15.8 M-11.4 19.05 L-11.7 19.15 -11.75 19.15 -11.4 19.05 M-11.3 20.3 L-11.45 21.05 -14.95 21.65 -14.65 21.0 -11.3 20.3 M-11.65 21.65 L-11.7 21.8 -12.85 21.85 -11.65 21.65 M-12.0 22.35 L-12.65 23.2 -12.95 23.2 -16.65 23.75 -15.9 22.9 -12.0 22.35 M-13.9 24.1 L-14.85 24.8 -17.85 25.4 -17.4 24.75 -13.9 24.1 M-15.3 25.05 L-15.9 25.4 -18.1 25.75 -15.3 25.05 M-15.75 26.0 L-16.25 26.7 Q-18.4 26.3 -18.7 27.0 L-19.3 27.2 -19.4 27.1 -18.6 26.35 -15.75 26.0 M-16.6 27.35 L-17.2 28.9 -19.05 27.4 -16.6 27.35 M-19.65 26.8 L-19.7 26.75 -19.6 26.65 -19.65 26.8 M6.55 -17.9 L6.75 -18.0 6.55 -17.75 6.55 -17.9 M6.75 -18.35 L6.7 -18.3 6.8 -18.55 6.75 -18.35 M3.25 -11.6 L3.05 -10.55 2.9 -10.4 3.2 -11.5 3.25 -11.6 M-6.25 8.55 L-6.2 8.5 -6.15 8.4 -6.05 8.5 -6.25 8.55" fill="#ca022b" fill-rule="evenodd" stroke="none"/>
    <path d="M13.8 -29.4 L14.1 -29.1 13.95 -29.1 10.85 -27.8 Q10.85 -28.45 11.75 -28.9 L13.8 -29.4 M14.55 -28.75 L14.65 -28.65 Q12.75 -28.4 10.8 -26.95 L10.85 -27.4 Q12.25 -28.55 14.55 -28.75 M14.4 -25.65 L14.15 -25.05 10.55 -23.2 9.3 -22.4 8.5 -21.8 9.25 -23.35 Q11.0 -24.6 14.4 -25.65 M12.65 -23.1 L11.1 -22.05 8.35 -20.65 12.65 -23.1 M10.9 -21.55 L12.25 -22.25 12.3 -22.25 12.3 -21.9 8.15 -19.05 8.25 -19.6 10.9 -21.55 M11.55 -19.2 L11.4 -18.85 10.6 -18.35 5.8 -15.3 7.55 -17.25 11.55 -19.2 M10.65 -17.55 L10.65 -17.5 10.6 -17.55 10.65 -17.55 M10.45 -17.25 L8.2 -15.35 4.85 -13.45 5.15 -14.35 10.45 -17.25 M8.7 -13.05 L8.5 -12.7 4.0 -10.5 4.15 -11.0 5.6 -11.95 8.7 -13.05 M7.55 -11.25 L7.2 -10.7 Q5.15 -9.8 3.8 -8.95 L3.95 -9.7 7.55 -11.25 M6.0 -9.1 L5.7 -8.75 5.75 -8.95 6.0 -9.1 M2.7 -6.8 L3.6 -6.95 0.75 -4.75 1.4 -6.0 2.7 -6.8 M5.1 -7.7 L5.3 -7.85 5.3 -7.65 5.1 -7.7 M3.9 -4.1 L3.25 -3.4 2.55 -3.0 1.3 -2.25 -0.7 -1.15 -0.6 -1.4 3.9 -4.1 M-1.0 -0.65 L-0.5 -0.7 -0.95 -0.2 -1.05 -0.15 -1.0 -0.65 M1.95 -0.95 L1.9 -0.45 -1.95 1.0 -1.35 0.05 1.95 -0.95 M1.25 0.9 L1.05 1.2 -2.7 3.0 -3.8 3.5 -2.6 2.3 1.25 0.9 M-2.1 5.85 L-2.2 6.55 -6.15 8.4 -5.9 7.6 Q-3.35 6.15 -2.1 5.85 M-5.55 11.85 Q-8.0 12.7 -8.95 13.35 L-10.25 14.05 -9.85 13.15 -5.55 11.85 M-8.8 17.4 L-9.35 17.95 -13.65 18.8 -12.75 17.8 -8.8 17.4 M-11.7 19.15 L-13.55 19.7 -11.2 19.75 -14.5 20.45 -14.1 19.6 Q-12.6 19.0 -11.75 19.15 L-11.7 19.15 M-11.45 21.05 L-11.65 21.65 -12.85 21.85 -15.4 22.35 -14.95 21.65 -11.45 21.05 M-14.85 24.8 L-15.3 25.05 -18.1 25.75 -17.85 25.4 -14.85 24.8 M-16.25 26.7 L-16.35 26.85 -18.7 27.0 Q-18.4 26.3 -16.25 26.7 M10.45 -25.2 L14.55 -27.0 12.8 -26.1 9.8 -24.3 10.45 -25.2 M6.75 -18.0 L6.55 -17.9 6.7 -18.3 6.75 -18.35 6.75 -18.0 M3.5 -12.6 L3.25 -11.6 3.2 -11.5 3.5 -12.6 M3.05 -10.55 L2.85 -10.1 2.9 -10.4 3.05 -10.55 M7.9 -14.45 L4.15 -11.0 4.5 -12.15 7.9 -14.45 M1.9 -3.9 L4.6 -5.7 3.35 -4.75 1.9 -3.9 M3.0 -5.85 L0.0 -3.1 0.55 -4.3 3.0 -5.85 M-0.45 3.0 L-5.6 6.3 Q-4.7 4.35 -2.85 3.4 -1.4 2.6 -0.45 3.0 M-6.25 8.55 L-6.05 8.5 -3.75 7.9 -3.25 7.85 -4.55 8.45 -6.75 9.25 -6.25 8.55 M-6.35 10.85 L-9.25 12.15 -7.4 10.45 Q-6.1 9.55 -4.55 9.65 L-6.35 10.85 M-8.5 14.6 L-7.0 14.5 -11.0 16.05 -10.65 15.3 -8.5 14.6 M-12.95 23.2 L-17.05 24.15 -16.65 23.75 -12.95 23.2" fill="#ff668f" fill-rule="evenodd" stroke="none"/>
  </g>
</svg>
