<?xml version="1.0" encoding="UTF-8" standalone="no"?>
<svg xmlns:xlink="http://www.w3.org/1999/xlink" height="161.5px" width="248.1px" xmlns="http://www.w3.org/2000/svg">
  <g transform="matrix(1.0, 0.0, 0.0, 1.0, 125.65, 78.1)">
    <path d="M92.25 -36.9 L72.4 -54.35 73.65 -57.75 70.85 -54.45 Q64.95 -55.65 59.1 -57.0 24.3 -66.75 13.05 -68.65 L12.8 -70.05 11.7 -71.55 12.5 -70.1 12.25 -69.75 Q2.1 -65.75 -8.8 -66.2 -13.4 -66.5 -17.95 -66.4 -24.9 -66.25 -31.5 -64.35 L-46.0 -59.8 Q-51.15 -58.0 -56.15 -60.45 L-54.75 -58.2 Q-61.95 -52.9 -70.25 -49.85 -71.6 -49.35 -91.15 -37.55 L-90.05 -39.05 -95.1 -32.75 Q-97.0 -30.45 -99.55 -29.35 L-101.05 -25.4 Q-103.25 -19.65 -106.2 -14.3 L-106.8 -13.2 Q-107.1 -18.35 -110.9 -21.9 L-111.5 -22.5 Q-106.95 -12.55 -108.25 -1.8 -108.95 4.25 -107.2 10.15 -103.65 22.4 -94.7 31.55 -87.25 39.15 -78.15 44.6 -81.2 45.8 -83.25 48.35 -74.6 44.45 -66.15 48.6 -48.35 57.25 -29.0 61.4 -22.55 62.7 -14.2 65.5 -8.25 67.7 -2.15 69.3 -8.7 67.4 -14.7 63.8 9.45 69.8 33.3 63.6 44.25 60.7 55.3 59.5 L54.05 58.85 54.05 58.8 Q67.15 56.05 76.75 46.6 79.5 43.9 82.5 41.7 L83.8 40.8 85.3 39.95 93.6 35.8 Q98.4 33.2 99.0 27.8 99.65 21.55 104.0 16.95 107.0 13.7 108.6 9.55 109.75 6.45 109.65 3.15 109.4 -3.65 112.05 -9.9 110.15 -8.35 109.55 -7.25 L108.6 -5.7 103.65 -20.0 104.5 -22.6 102.9 -20.2 Q102.6 -22.05 101.9 -23.75 101.0 -25.95 99.15 -27.95 94.75 -32.75 92.95 -38.9 92.45 -40.6 91.1 -41.25 L92.45 -36.9 92.25 -36.9 M-117.95 -23.2 L-104.9 -32.45 -96.75 -44.3 -96.45 -44.55 Q-90.1 -48.65 -86.75 -50.15 -82.0 -52.0 -76.75 -54.35 -62.55 -60.8 -59.9 -63.45 -58.8 -64.5 -43.8 -67.7 -29.55 -70.75 -29.55 -72.15 -29.55 -73.15 -27.65 -73.5 L-19.35 -74.45 -2.45 -76.25 Q16.0 -76.25 69.85 -62.15 72.65 -61.4 79.4 -58.9 81.3 -56.0 89.2 -49.55 L99.65 -41.45 Q99.65 -35.05 104.05 -29.6 108.3 -24.3 115.1 -22.95 L114.95 -23.4 Q120.0 -15.3 120.55 -5.95 L120.85 -1.45 119.75 4.05 119.65 4.0 119.75 4.1 Q116.9 15.7 110.5 25.65 104.8 34.55 99.25 43.6 97.8 45.95 89.6 53.5 83.7 58.95 75.95 58.1 L86.0 54.2 85.35 53.85 Q76.85 54.7 70.35 60.4 L66.65 63.4 Q58.3 69.5 48.2 70.75 31.85 72.25 16.85 79.2 L20.35 76.4 Q22.05 75.1 23.95 74.0 L23.3 73.45 Q18.9 73.7 15.3 76.25 10.1 79.85 3.8 79.85 -22.3 77.85 -46.5 68.0 L-37.55 68.25 Q-47.4 64.7 -57.85 64.85 L-62.1 64.3 Q-76.35 60.65 -89.25 53.1 -91.5 51.7 -93.3 49.9 -101.35 41.7 -107.9 32.05 L-108.45 31.95 -105.65 38.75 Q-115.05 30.5 -116.5 18.0 -117.25 11.3 -119.55 5.05 -120.2 3.25 -122.1 2.45 -121.25 4.8 -120.35 11.1 L-121.25 6.25 -120.8 10.45 Q-125.55 2.6 -125.55 -6.5 L-125.3 -9.95 -123.4 -16.25 Q-121.55 -20.1 -117.95 -23.2 M110.1 31.5 L108.7 33.5 Q109.55 31.5 110.1 31.5 M61.15 70.4 L60.0 71.15 59.6 70.9 61.15 70.4 M43.65 74.9 L45.1 74.45 46.25 74.8 43.65 74.9" fill="#c68600" fill-rule="evenodd" stroke="none"/>
    <path d="M114.95 -23.4 Q112.95 -29.05 109.4 -33.7 101.95 -43.6 92.6 -51.75 83.95 -59.3 73.2 -63.15 62.3 -67.1 50.8 -69.2 30.0 -73.25 9.05 -76.15 -11.75 -78.95 -32.3 -74.2 -37.25 -73.1 -42.1 -71.2 -49.95 -68.2 -58.15 -66.6 -75.55 -63.5 -89.9 -53.15 -106.8 -40.95 -117.95 -23.2 -121.55 -20.1 -123.4 -16.25 -119.85 -24.8 -113.8 -32.0 -105.45 -41.9 -95.45 -50.05 -79.9 -62.6 -60.75 -67.65 L-54.2 -69.55 Q-38.95 -73.7 -23.3 -76.45 -3.0 -79.75 17.3 -76.4 37.25 -73.0 56.9 -68.85 77.4 -64.3 94.0 -51.3 100.75 -45.95 106.4 -39.45 120.55 -23.25 122.3 -1.6 122.95 6.05 120.35 13.3 115.85 26.0 109.05 37.7 104.0 46.4 97.1 53.75 93.95 57.2 89.95 59.4 73.75 68.0 55.95 73.15 58.05 72.35 60.0 71.15 L61.15 70.4 Q64.45 67.65 68.35 66.3 78.85 62.65 88.95 58.05 93.15 56.2 96.6 52.95 98.0 51.6 99.0 49.95 L108.7 33.5 110.1 31.5 Q118.85 21.25 120.8 7.95 L120.6 7.55 120.9 5.35 119.75 4.1 119.65 4.0 119.75 4.05 121.2 4.5 120.85 -1.45 120.55 -5.95 Q120.0 -15.3 114.95 -23.4 M-125.3 -9.95 L-125.55 -6.5 Q-125.55 2.6 -120.8 10.45 L-121.25 6.25 -120.35 11.1 -118.35 24.95 Q-117.95 28.1 -116.6 30.8 -121.55 21.6 -123.2 11.0 L-125.05 0.65 Q-126.15 -4.75 -125.3 -9.95 M49.95 74.6 L16.7 82.45 Q13.0 83.4 9.25 83.4 -7.45 82.75 -23.65 79.4 -44.9 75.1 -65.6 68.35 L-77.2 64.55 Q-87.85 61.4 -96.35 54.45 L-96.05 54.65 Q-90.55 58.0 -84.5 59.9 -80.1 61.3 -75.9 63.2 -64.9 68.25 -52.9 69.95 L-45.7 71.65 Q-39.1 74.55 -32.15 76.2 -11.7 80.95 9.35 82.0 19.35 82.35 28.55 78.05 38.1 73.5 48.4 73.0 L41.3 75.0 43.65 74.9 46.25 74.8 49.95 74.6 M-98.05 52.75 L-106.8 43.4 Q-110.4 39.5 -113.55 35.3 -104.65 42.9 -98.2 52.55 L-98.05 52.75" fill="#764701" fill-rule="evenodd" stroke="none"/>
    <path d="M-106.2 -14.3 Q-103.25 -19.65 -101.05 -25.4 L-99.55 -29.35 Q-97.0 -30.45 -95.1 -32.75 L-90.05 -39.05 -91.15 -37.55 Q-71.6 -49.35 -70.25 -49.85 -61.95 -52.9 -54.75 -58.2 L-56.15 -60.45 Q-51.15 -58.0 -46.0 -59.8 L-31.5 -64.35 Q-24.9 -66.25 -17.95 -66.4 -13.4 -66.5 -8.8 -66.2 2.1 -65.75 12.25 -69.75 L12.5 -70.1 11.7 -71.55 12.8 -70.05 13.05 -68.65 Q24.3 -66.75 59.1 -57.0 64.95 -55.65 70.85 -54.45 L73.65 -57.75 72.4 -54.35 92.25 -36.9 Q92.65 -36.1 92.45 -36.9 L91.1 -41.25 Q92.45 -40.6 92.95 -38.9 94.75 -32.75 99.15 -27.95 101.0 -25.95 101.9 -23.75 102.6 -22.05 102.9 -20.2 L104.5 -22.6 103.65 -20.0 108.6 -5.7 108.15 -3.2 Q103.65 -25.3 86.55 -40.0 69.6 -54.45 47.9 -59.45 L36.5 -62.35 Q16.9 -67.55 -3.15 -65.6 -15.65 -64.8 -28.0 -62.7 -42.8 -59.95 -56.55 -53.85 -71.35 -47.35 -85.2 -38.7 -95.9 -31.9 -100.5 -20.05 -102.7 -14.35 -106.95 -9.9 L-107.1 -10.8 -106.2 -14.3 M120.85 -1.45 L121.2 4.5 119.75 4.05 120.85 -1.45 M119.75 4.1 L120.9 5.35 120.6 7.55 120.8 7.95 Q118.85 21.25 110.1 31.5 109.55 31.5 108.7 33.5 L99.0 49.95 Q98.0 51.6 96.6 52.95 93.15 56.2 88.95 58.05 78.85 62.65 68.35 66.3 64.45 67.65 61.15 70.4 L59.6 70.9 60.0 71.15 Q58.05 72.35 55.95 73.15 L49.95 74.6 46.25 74.8 45.1 74.45 43.65 74.9 41.3 75.0 48.4 73.0 Q38.1 73.5 28.55 78.05 19.35 82.35 9.35 82.0 -11.7 80.95 -32.15 76.2 -39.1 74.55 -45.7 71.65 L-52.9 69.95 Q-64.9 68.25 -75.9 63.2 -80.1 61.3 -84.5 59.9 -90.55 58.0 -96.05 54.65 L-96.35 54.45 -98.05 52.75 -98.2 52.55 Q-104.65 42.9 -113.55 35.3 L-116.6 30.8 Q-117.95 28.1 -118.35 24.95 L-120.35 11.1 Q-121.25 4.8 -122.1 2.45 -120.2 3.25 -119.55 5.05 -117.25 11.3 -116.5 18.0 -115.05 30.5 -105.65 38.75 L-108.45 31.95 -107.9 32.05 Q-101.35 41.7 -93.3 49.9 -91.5 51.7 -89.25 53.1 -76.35 60.65 -62.1 64.3 L-57.85 64.85 Q-47.4 64.7 -37.55 68.25 L-46.5 68.0 Q-22.3 77.85 3.8 79.85 10.1 79.85 15.3 76.25 18.9 73.7 23.3 73.45 L23.95 74.0 Q22.05 75.1 20.35 76.4 L16.85 79.2 Q31.85 72.25 48.2 70.75 58.3 69.5 66.65 63.4 L70.35 60.4 Q76.85 54.7 85.35 53.85 L86.0 54.2 75.95 58.1 Q83.7 58.95 89.6 53.5 97.8 45.95 99.25 43.6 104.8 34.55 110.5 25.65 116.9 15.7 119.75 4.1" fill="#b47400" fill-rule="evenodd" stroke="none"/>
    <path d="M-106.2 -14.3 L-107.1 -10.8 -106.95 -9.9 -107.4 -9.45 Q-109.85 7.25 -100.6 21.25 -97.05 26.6 -92.95 31.4 -88.1 37.05 -81.55 40.6 -62.25 51.1 -41.1 56.2 -19.9 61.25 1.45 64.5 12.55 66.05 23.6 64.25 43.0 61.65 61.0 53.6 72.45 48.6 82.5 41.7 79.5 43.9 76.75 46.6 67.15 56.05 54.05 58.8 L54.0 58.85 54.05 58.85 55.3 59.5 Q44.25 60.7 33.3 63.6 9.45 69.8 -14.7 63.8 -8.7 67.4 -2.15 69.3 -8.25 67.7 -14.2 65.5 -22.55 62.7 -29.0 61.4 -48.35 57.25 -66.15 48.6 -74.6 44.45 -83.25 48.35 -81.2 45.8 -78.15 44.6 -87.25 39.15 -94.7 31.55 -103.65 22.4 -107.2 10.15 -108.95 4.25 -108.25 -1.8 -106.95 -12.55 -111.5 -22.5 L-110.9 -21.9 Q-107.1 -18.35 -106.8 -13.2 L-106.2 -14.3 M108.15 -3.2 L108.6 -5.7 109.55 -7.25 Q110.15 -8.35 112.05 -9.9 109.4 -3.65 109.65 3.15 109.75 6.45 108.6 9.55 107.0 13.7 104.0 16.95 99.65 21.55 99.0 27.8 98.4 33.2 93.6 35.8 L85.3 39.95 83.8 40.8 91.0 35.45 Q93.5 33.45 94.9 30.8 100.4 20.55 106.4 10.3 110.15 3.95 108.15 -3.2" fill="#885913" fill-rule="evenodd" stroke="none"/>
    <path d="M-117.95 -23.2 Q-106.8 -40.95 -89.9 -53.15 -75.55 -63.5 -58.15 -66.6 -49.95 -68.2 -42.1 -71.2 -37.25 -73.1 -32.3 -74.2 -11.75 -78.95 9.05 -76.15 30.0 -73.25 50.8 -69.2 62.3 -67.1 73.2 -63.15 83.95 -59.3 92.6 -51.75 101.95 -43.6 109.4 -33.7 112.95 -29.05 114.95 -23.4 L115.1 -22.95 Q108.3 -24.3 104.05 -29.6 99.65 -35.05 99.65 -41.45 L89.2 -49.55 Q81.3 -56.0 79.4 -58.9 72.65 -61.4 69.85 -62.15 16.0 -76.25 -2.45 -76.25 L-19.35 -74.45 -27.65 -73.5 Q-29.55 -73.15 -29.55 -72.15 -29.55 -70.75 -43.8 -67.7 -58.8 -64.5 -59.9 -63.45 -62.55 -60.8 -76.75 -54.35 -82.0 -52.0 -86.75 -50.15 -90.1 -48.65 -96.45 -44.55 L-96.75 -44.3 -104.9 -32.45 -117.95 -23.2" fill="#d89812" fill-rule="evenodd" stroke="none"/>
  </g>
</svg>
