<?xml version="1.0" encoding="UTF-8" standalone="no"?>
<svg xmlns:xlink="http://www.w3.org/1999/xlink" height="131.35px" width="216.75px" xmlns="http://www.w3.org/2000/svg">
  <g transform="matrix(1.0, 0.0, 0.0, 1.0, 107.9, 66.15)">
    <path d="M47.9 -59.45 Q69.6 -54.45 86.55 -40.0 103.65 -25.3 108.15 -3.2 110.15 3.95 106.4 10.3 100.4 20.55 94.9 30.8 93.5 33.45 91.0 35.45 L83.8 40.8 82.5 41.7 Q72.45 48.6 61.0 53.6 43.0 61.65 23.6 64.25 12.55 66.05 1.45 64.5 -19.9 61.25 -41.1 56.2 -62.25 51.1 -81.55 40.6 -88.1 37.05 -92.95 31.4 -97.05 26.6 -100.6 21.25 -109.85 7.25 -107.4 -9.45 L-106.95 -9.9 Q-102.7 -14.35 -100.5 -20.05 -95.9 -31.9 -85.2 -38.7 -71.35 -47.35 -56.55 -53.85 -42.8 -59.95 -28.0 -62.7 -15.65 -64.8 -3.15 -65.6 16.9 -67.55 36.5 -62.35 L47.9 -59.45" fill="#f4cb93" fill-rule="evenodd" stroke="none"/>
  </g>
</svg>
