<?xml version="1.0" encoding="UTF-8" standalone="no"?>
<svg xmlns:xlink="http://www.w3.org/1999/xlink" height="71.95px" width="216.85px" xmlns="http://www.w3.org/2000/svg">
  <g transform="matrix(1.0, 0.0, 0.0, 1.0, 108.6, 6.3)">
    <path d="M-107.85 -6.3 L-106.1 -2.9 Q-101.6 3.9 -95.6 9.65 -100.65 8.1 -103.15 8.3 -99.2 9.5 -98.05 13.1 -94.45 24.05 -92.95 25.5 -87.3 31.0 -79.35 32.7 -73.55 33.85 -68.35 36.8 -58.35 42.5 -47.5 46.45 -32.8 55.35 -24.75 55.5 -18.55 55.6 -15.4 54.65 -0.95 50.4 21.0 54.9 27.3 56.15 34.55 56.0 49.15 54.65 62.55 48.4 65.5 47.15 76.15 37.85 78.1 36.2 80.55 35.15 86.35 32.6 91.45 28.8 L82.4 30.7 Q85.65 28.8 89.4 27.9 91.0 27.55 94.55 24.4 L98.55 20.4 Q104.25 12.9 108.25 4.6 108.1 7.15 107.45 9.45 106.8 11.85 105.1 13.75 99.6 19.75 97.75 27.65 97.35 29.3 96.45 30.7 93.65 35.05 89.05 37.75 65.9 52.45 65.35 52.6 53.55 57.45 41.25 61.05 24.25 66.0 6.55 65.6 L-13.4 62.2 Q-31.55 58.8 -33.85 58.75 -36.25 58.7 -46.4 55.35 -57.9 51.5 -59.3 51.2 -66.4 49.6 -81.35 42.3 -86.45 39.8 -89.95 35.2 L-98.9 23.9 Q-105.05 16.15 -105.3 14.85 -106.4 9.9 -107.85 4.7 -109.2 -0.2 -108.15 -5.35 L-107.85 -6.3" fill="#000000" fill-opacity="0.09411765" fill-rule="evenodd" stroke="none"/>
  </g>
</svg>
