<?xml version="1.0" encoding="UTF-8" standalone="no"?>
<svg xmlns:xlink="http://www.w3.org/1999/xlink" height="79.15px" width="79.25px" xmlns="http://www.w3.org/2000/svg">
  <g transform="matrix(1.0, 0.0, 0.0, 1.0, 39.55, 39.6)">
    <path d="M5.2 -16.4 L8.9 -16.0 14.55 -14.3 Q16.0 -13.7 16.55 -12.35 21.25 -11.5 24.95 -9.05 25.95 -8.35 25.35 -6.95 L24.85 -6.15 Q30.25 -4.45 35.4 -6.5 36.95 -7.0 38.45 -7.85 L39.45 -6.85 Q37.05 -3.05 32.25 -2.3 25.85 -1.6 20.8 -5.35 16.1 -5.35 11.9 -6.6 11.45 -6.7 11.1 -6.95 L6.3 -9.1 4.8 -7.75 3.3 -6.3 Q5.5 -5.2 3.95 -3.1 L2.0 -1.2 Q1.45 -0.8 0.9 -0.55 -1.75 0.7 -4.6 0.95 L-3.35 1.75 Q4.25 -0.5 11.7 2.4 L12.7 2.85 1.95 3.85 Q-2.35 4.4 -5.9 6.55 -4.3 6.15 -2.6 6.6 -0.95 6.95 -0.65 7.9 -0.8 9.25 -2.55 9.5 L-8.65 9.15 -10.35 12.15 0.3 9.85 Q3.05 9.7 6.3 10.6 7.5 11.0 7.3 12.3 L7.25 12.65 Q6.4 13.7 4.8 13.7 L-5.85 15.2 -5.75 15.95 Q-2.25 13.65 0.25 16.95 L4.0 21.8 Q7.35 20.4 10.5 18.15 13.4 16.2 16.45 14.3 19.7 14.45 18.7 17.6 18.3 18.8 17.35 19.85 13.05 24.75 7.2 27.55 L5.7 28.6 Q11.6 31.95 14.65 37.9 14.85 38.3 14.7 38.8 L14.55 39.3 Q11.1 33.85 5.2 31.0 0.75 28.75 -4.4 28.7 -5.45 28.7 -6.05 27.9 -6.75 27.1 -7.85 26.7 L-9.25 27.75 -12.0 27.95 Q-15.85 30.9 -20.2 33.4 -21.65 34.3 -23.15 33.65 L-16.4 27.05 -16.65 26.45 Q-19.0 25.4 -21.1 27.15 -23.4 29.05 -26.45 29.55 L-26.95 29.65 -27.15 29.35 -23.25 25.0 -22.1 23.85 -28.8 22.45 Q-30.05 22.85 -31.05 23.55 L-33.6 25.8 -34.05 25.45 Q-34.45 22.75 -32.0 21.45 -29.35 20.05 -26.45 20.4 L-30.35 19.35 Q-31.2 19.2 -31.4 18.2 -31.65 17.15 -30.9 16.2 L-32.7 14.35 Q-33.8 14.1 -35.0 14.8 -36.5 15.8 -38.0 16.45 -38.75 16.7 -39.3 16.2 -39.55 14.0 -37.15 12.4 L-34.55 10.7 Q-32.9 9.7 -31.25 10.4 -28.75 7.75 -25.1 6.9 -23.55 6.55 -22.55 5.7 -22.4 4.1 -23.75 3.05 -25.9 1.15 -24.7 -1.45 -24.0 -3.05 -22.2 -3.55 -19.85 -4.0 -17.75 -3.6 -20.45 -6.7 -24.45 -7.2 L-28.25 -6.9 -32.2 -5.2 -33.65 -5.85 -33.75 -6.45 Q-31.65 -9.6 -27.4 -9.9 L-23.7 -10.5 Q-19.9 -11.05 -17.65 -7.85 L-17.75 -8.85 -17.5 -10.0 -16.95 -11.4 -18.45 -12.65 -25.2 -13.55 Q-26.3 -13.55 -27.25 -12.85 -28.8 -11.75 -29.9 -12.0 -28.5 -14.4 -25.3 -15.05 L-13.0 -17.55 Q-14.15 -18.9 -14.1 -20.85 L-13.85 -22.25 -13.2 -24.45 -16.4 -26.2 Q-14.0 -27.55 -11.15 -26.0 -8.4 -24.65 -9.65 -21.95 -10.0 -21.2 -9.75 -20.55 L-8.8 -19.95 Q-8.95 -22.7 -6.4 -24.3 -5.55 -24.85 -4.55 -27.1 -3.1 -30.5 0.45 -32.1 L-1.7 -33.95 Q-1.55 -34.6 -0.8 -34.5 0.4 -34.65 1.55 -33.8 2.5 -33.1 3.1 -31.85 2.9 -29.65 0.8 -28.7 -0.85 -27.95 -1.55 -26.35 L-1.4 -25.65 Q3.95 -26.9 8.05 -30.75 L9.0 -31.8 Q10.2 -33.55 12.4 -33.7 14.2 -36.85 17.45 -38.4 L20.35 -39.35 26.95 -37.95 27.05 -37.45 Q21.6 -36.8 17.15 -33.85 16.4 -33.35 16.3 -32.3 17.65 -30.55 17.05 -27.95 L16.7 -26.85 Q19.3 -26.1 21.3 -24.55 22.4 -23.7 21.9 -22.3 L21.3 -21.45 Q15.45 -20.6 10.1 -22.95 9.1 -23.35 8.25 -23.95 6.6 -23.9 5.4 -22.9 L2.05 -20.1 8.3 -19.5 Q11.6 -18.9 14.05 -16.6 9.6 -16.75 5.2 -16.4 L2.85 -16.2 5.2 -16.4 M-4.8 -5.1 L-3.2 -5.0 0.6 -11.4 -4.8 -5.1 M-13.45 -9.55 L-12.65 -8.4 Q-10.1 -8.4 -8.05 -6.8 L-5.2 -11.5 Q-8.05 -13.25 -11.15 -12.65 L-7.8 -9.85 -7.85 -9.25 -8.8 -8.85 Q-11.15 -8.85 -13.45 -9.55 M2.85 -16.2 L-4.7 -15.05 -2.8 -13.8 Q-0.15 -15.7 2.85 -16.2 M-18.35 15.1 L-13.25 10.0 Q-18.8 11.35 -18.8 13.35 -18.85 14.6 -18.35 15.1" fill="#ffffcc" fill-rule="evenodd" stroke="none"/>
    <path d="M5.2 -16.4 Q9.6 -16.75 14.05 -16.6 11.6 -18.9 8.3 -19.5 L2.05 -20.1 5.4 -22.9 Q6.6 -23.9 8.25 -23.95 9.1 -23.35 10.1 -22.95 15.45 -20.6 21.3 -21.45 L21.9 -22.3 Q22.4 -23.7 21.3 -24.55 19.3 -26.1 16.7 -26.85 L17.05 -27.95 Q17.65 -30.55 16.3 -32.3 16.4 -33.35 17.15 -33.85 21.6 -36.8 27.05 -37.45 L26.95 -37.95 20.35 -39.35 17.45 -38.4 Q14.2 -36.85 12.4 -33.7 10.2 -33.55 9.0 -31.8 L8.05 -30.75 Q3.95 -26.9 -1.4 -25.65 L-1.55 -26.35 Q-0.85 -27.95 0.8 -28.7 2.9 -29.65 3.1 -31.85 2.5 -33.1 1.55 -33.8 0.4 -34.65 -0.8 -34.5 -1.55 -34.6 -1.7 -33.95 L0.45 -32.1 Q-3.1 -30.5 -4.55 -27.1 -5.55 -24.85 -6.4 -24.3 -8.95 -22.7 -8.8 -19.95 L-9.75 -20.55 Q-10.0 -21.2 -9.65 -21.95 -8.4 -24.65 -11.15 -26.0 -14.0 -27.55 -16.4 -26.2 L-13.2 -24.45 -13.85 -22.25 -14.1 -20.85 Q-14.15 -18.9 -13.0 -17.55 L-25.3 -15.05 Q-28.5 -14.4 -29.9 -12.0 -28.8 -11.75 -27.25 -12.85 -26.3 -13.55 -25.2 -13.55 L-18.45 -12.65 -16.95 -11.4 -17.5 -10.0 -17.75 -8.85 -17.65 -7.85 Q-19.9 -11.05 -23.7 -10.5 L-27.4 -9.9 Q-31.65 -9.6 -33.75 -6.45 L-33.65 -5.85 -32.2 -5.2 -28.25 -6.9 -24.45 -7.2 Q-20.45 -6.7 -17.75 -3.6 -19.85 -4.0 -22.2 -3.55 -24.0 -3.05 -24.7 -1.45 -25.9 1.15 -23.75 3.05 -22.4 4.1 -22.55 5.7 -23.55 6.55 -25.1 6.9 -28.75 7.75 -31.25 10.4 -32.9 9.7 -34.55 10.7 L-37.15 12.4 Q-39.55 14.0 -39.3 16.2 -38.75 16.7 -38.0 16.45 -36.5 15.8 -35.0 14.8 -33.8 14.1 -32.7 14.35 L-30.9 16.2 Q-31.65 17.15 -31.4 18.2 -31.2 19.2 -30.35 19.35 L-26.45 20.4 Q-29.35 20.05 -32.0 21.45 -34.45 22.75 -34.05 25.45 L-33.6 25.8 -31.05 23.55 Q-30.05 22.85 -28.8 22.45 L-22.1 23.85 -23.25 25.0 -27.15 29.35 -26.95 29.65 -26.45 29.55 Q-23.4 29.05 -21.1 27.15 -19.0 25.4 -16.65 26.45 L-16.4 27.05 -23.15 33.65 Q-21.65 34.3 -20.2 33.4 -15.85 30.9 -12.0 27.95 L-9.25 27.75 -7.85 26.7 Q-6.75 27.1 -6.05 27.9 -5.45 28.7 -4.4 28.7 0.75 28.75 5.2 31.0 11.1 33.85 14.55 39.3 L14.7 38.8 Q14.85 38.3 14.65 37.9 11.6 31.95 5.7 28.6 L7.2 27.55 Q13.05 24.75 17.35 19.85 18.3 18.8 18.7 17.6 19.7 14.45 16.45 14.3 13.4 16.2 10.5 18.15 7.35 20.4 4.0 21.8 L0.25 16.95 Q-2.25 13.65 -5.75 15.95 L-5.85 15.2 4.8 13.7 Q6.4 13.7 7.25 12.65 L7.3 12.3 Q7.5 11.0 6.3 10.6 3.05 9.7 0.3 9.85 L-10.35 12.15 -8.65 9.15 -2.55 9.5 Q-0.8 9.25 -0.65 7.9 -0.95 6.95 -2.6 6.6 -4.3 6.15 -5.9 6.55 -2.35 4.4 1.95 3.85 L12.7 2.85 11.7 2.4 Q4.25 -0.5 -3.35 1.75 L-4.6 0.95 Q-1.75 0.7 0.9 -0.55 1.45 -0.8 2.0 -1.2 L3.95 -3.1 Q5.5 -5.2 3.3 -6.3 L4.8 -7.75 6.3 -9.1 11.1 -6.95 Q11.45 -6.7 11.9 -6.6 16.1 -5.35 20.8 -5.35 25.85 -1.6 32.25 -2.3 37.05 -3.05 39.45 -6.85 L38.45 -7.85 Q36.95 -7.0 35.4 -6.5 30.25 -4.45 24.85 -6.15 L25.35 -6.95 Q25.95 -8.35 24.95 -9.05 21.25 -11.5 16.55 -12.35 16.0 -13.7 14.55 -14.3 L8.9 -16.0 5.2 -16.4 2.85 -16.2 Q-0.15 -15.7 -2.8 -13.8 L-4.7 -15.05 2.85 -16.2 M-13.45 -9.55 Q-11.15 -8.85 -8.8 -8.85 L-7.85 -9.25 -7.8 -9.85 -11.15 -12.65 Q-8.05 -13.25 -5.2 -11.5 L-8.05 -6.8 Q-10.1 -8.4 -12.65 -8.4 L-13.45 -9.55 M-4.8 -5.1 L0.6 -11.4 -3.2 -5.0 -4.8 -5.1 M-18.35 15.1 L-13.25 10.0 Q-18.8 11.35 -18.8 13.35 -18.85 14.6 -18.35 15.1" fill="none" stroke="#fceba7" stroke-linecap="round" stroke-linejoin="round" stroke-width="0.5"/>
  </g>
</svg>
