<?xml version="1.0" encoding="UTF-8" standalone="no"?>
<svg xmlns:xlink="http://www.w3.org/1999/xlink" height="54.5px" width="120.5px" xmlns="http://www.w3.org/2000/svg">
  <g transform="matrix(1.0, 0.0, 0.0, 1.0, 58.95, 23.8)">
    <path d="M15.4 -16.35 Q9.8 -16.3 4.95 -13.55 L5.75 -9.3 Q15.45 -12.05 25.55 -14.4 28.4 -15.15 31.35 -14.35 L43.2 -10.7 31.6 -12.8 24.8 -12.2 Q19.2 -10.6 14.1 -7.6 11.5 -6.05 8.7 -5.3 11.6 -5.05 13.85 -6.6 18.15 -9.6 23.65 -9.6 L28.0 -9.25 Q31.15 -8.8 33.2 -6.25 32.45 -5.25 31.1 -5.2 L27.35 -4.9 25.25 -4.85 Q27.1 -2.15 30.15 -0.85 L31.1 -0.8 Q37.95 -2.9 44.15 -6.5 46.65 -7.95 49.45 -8.6 L50.65 -8.55 Q51.8 -6.3 49.5 -4.85 44.65 -1.8 39.15 0.0 L44.4 1.05 44.25 2.0 Q41.2 3.9 37.35 3.95 L29.35 3.9 Q29.05 5.25 29.65 6.4 L31.3 10.4 34.9 12.55 34.85 10.3 32.1 7.45 Q30.5 5.85 32.2 4.75 32.8 4.3 33.35 4.75 36.95 7.6 41.15 9.25 44.65 10.65 46.4 8.0 L47.15 3.45 Q47.2 2.85 47.5 2.35 54.55 0.95 60.5 5.5 L61.3 6.35 61.25 7.5 58.85 9.45 58.45 9.2 59.05 7.9 51.15 5.35 Q50.7 5.75 50.5 7.5 L49.85 9.0 Q46.05 13.65 40.0 13.7 45.75 14.45 50.85 17.15 53.25 18.45 52.7 20.95 L51.05 21.7 Q47.35 18.2 41.75 18.05 L39.95 18.0 39.75 19.2 38.6 19.7 36.5 18.3 32.9 20.15 Q32.4 21.65 32.8 23.05 L33.3 24.65 Q33.7 25.85 34.25 27.05 L33.55 27.8 Q31.65 28.1 31.15 26.4 L30.5 23.55 29.95 21.65 27.9 22.75 25.85 22.3 26.95 19.7 21.35 19.05 Q17.2 22.45 12.2 22.45 L9.05 22.0 8.75 22.85 Q7.05 23.4 5.5 22.25 L3.1 20.2 1.8 18.8 -1.25 19.85 -1.25 27.4 Q-1.2 30.0 -3.4 30.2 L-5.6 30.45 -6.65 30.1 -6.65 29.55 -2.85 29.4 Q-3.4 25.05 -4.7 20.65 -5.4 18.35 -3.7 16.5 L-8.4 16.4 Q-12.4 17.95 -14.15 17.7 -17.05 17.4 -19.8 15.8 -21.6 14.75 -23.7 14.5 -28.35 14.4 -32.7 13.25 -36.25 12.25 -38.15 9.05 -41.6 3.4 -47.85 1.15 -50.2 0.35 -52.9 0.6 L-54.55 0.15 Q-53.85 -1.35 -51.55 -1.35 L-46.9 -1.3 Q-43.95 -0.85 -41.45 0.7 -36.95 3.55 -32.65 6.8 L-30.15 5.45 -21.7 2.95 Q-29.35 0.6 -37.4 -0.15 L-37.65 -1.25 Q-28.9 -5.75 -19.35 -2.65 L-17.75 -2.15 -17.2 -2.6 Q-21.25 -4.85 -25.35 -6.75 L-27.85 -7.0 -30.9 -6.05 -32.3 -7.1 Q-30.7 -9.65 -27.0 -10.0 L-23.65 -9.7 Q-22.3 -9.7 -20.45 -8.25 -22.1 -10.3 -24.7 -11.15 L-28.9 -11.45 Q-33.65 -10.5 -37.85 -8.9 -39.85 -8.15 -41.95 -7.85 -50.25 -6.65 -58.35 -8.15 L-58.7 -9.4 -46.8 -12.15 Q-45.3 -14.15 -42.55 -14.7 -35.9 -16.15 -31.0 -20.85 -27.95 -23.8 -23.7 -23.55 L-22.75 -22.8 Q-28.75 -19.85 -33.6 -15.25 -22.95 -17.7 -12.5 -20.7 L-8.75 -21.2 1.0 -20.5 Q-1.8 -17.25 -5.9 -17.75 L-12.65 -17.4 Q-14.45 -16.8 -16.15 -15.9 L-6.8 -11.85 Q0.95 -15.5 9.4 -17.55 L10.8 -17.75 15.4 -16.35 M1.7 -8.85 L1.3 -10.3 0.05 -8.85 1.7 -8.85 M16.85 -1.8 Q13.75 -0.7 10.5 -0.95 16.05 0.6 20.6 3.9 L20.0 5.75 23.85 3.9 24.4 4.0 Q25.25 4.15 25.4 4.8 L25.5 3.95 26.0 1.25 25.85 0.95 Q23.35 -4.4 17.55 -3.95 L16.85 -1.8 M25.4 6.35 L24.85 7.35 25.45 7.4 25.4 6.35 M30.6 13.8 L29.7 14.65 30.65 15.2 31.6 14.65 30.6 13.8 M0.15 6.95 L-2.05 8.2 -1.15 9.05 Q4.25 6.45 6.65 6.2 5.45 5.7 4.4 5.75 2.35 5.75 0.15 6.95 M8.85 3.8 Q5.65 1.25 1.6 0.8 -3.3 0.95 -8.25 2.3 L-9.05 3.5 -3.95 6.6 Q-1.75 5.0 0.8 3.95 5.35 2.1 9.8 4.5 L8.85 3.8 M6.0 17.45 L6.35 18.0 Q9.5 18.1 12.5 16.95 L8.35 16.25 6.0 17.45 M-13.1 -9.75 L-12.5 -10.8 -18.05 -14.5 -23.95 -12.85 Q-17.8 -10.05 -11.35 -8.5 L-13.1 -9.75 M-18.5 9.9 L-19.25 9.45 -20.65 10.0 -8.7 14.25 -5.75 11.5 Q-9.75 8.25 -14.95 8.2 L-14.55 8.75 -14.8 10.1 -18.5 9.9" fill="#ffffcc" fill-rule="evenodd" stroke="none"/>
    <path d="M15.4 -16.35 Q9.8 -16.3 4.95 -13.55 L5.75 -9.3 Q15.45 -12.05 25.55 -14.4 28.4 -15.15 31.35 -14.35 L43.2 -10.7 31.6 -12.8 24.8 -12.2 Q19.2 -10.6 14.1 -7.6 11.5 -6.05 8.7 -5.3 11.6 -5.05 13.85 -6.6 18.15 -9.6 23.65 -9.6 L28.0 -9.25 Q31.15 -8.8 33.2 -6.25 32.45 -5.25 31.1 -5.2 L27.35 -4.9 25.25 -4.85 Q27.1 -2.15 30.15 -0.85 L31.1 -0.8 Q37.95 -2.9 44.15 -6.5 46.65 -7.95 49.45 -8.6 L50.65 -8.55 Q51.8 -6.3 49.5 -4.85 44.65 -1.8 39.15 0.0 L44.4 1.05 44.25 2.0 Q41.2 3.9 37.35 3.95 L29.35 3.9 Q29.05 5.25 29.65 6.4 L31.3 10.4 34.9 12.55 34.85 10.3 32.1 7.45 Q30.5 5.85 32.2 4.75 32.8 4.3 33.35 4.75 36.95 7.6 41.15 9.25 44.65 10.65 46.4 8.0 L47.15 3.45 Q47.2 2.85 47.5 2.35 54.55 0.95 60.5 5.5 L61.3 6.35 61.25 7.5 58.85 9.45 58.45 9.2 59.05 7.9 51.15 5.35 Q50.7 5.75 50.5 7.5 L49.85 9.0 Q46.05 13.65 40.0 13.7 45.75 14.45 50.85 17.15 53.25 18.45 52.7 20.95 L51.05 21.7 Q47.35 18.2 41.75 18.05 L39.95 18.0 39.75 19.2 38.6 19.7 36.5 18.3 32.9 20.15 Q32.4 21.65 32.8 23.05 L33.3 24.65 Q33.7 25.85 34.25 27.05 L33.55 27.8 Q31.65 28.1 31.15 26.4 L30.5 23.55 29.95 21.65 27.9 22.75 25.85 22.3 26.95 19.7 21.35 19.05 Q17.2 22.45 12.2 22.45 L9.05 22.0 8.75 22.85 Q7.05 23.4 5.5 22.25 L3.1 20.2 1.8 18.8 -1.25 19.85 -1.25 27.4 Q-1.2 30.0 -3.4 30.2 L-5.6 30.45 -6.65 30.1 -6.65 29.55 -2.85 29.4 Q-3.4 25.05 -4.7 20.65 -5.4 18.35 -3.7 16.5 L-8.4 16.4 Q-12.4 17.95 -14.15 17.7 -17.05 17.4 -19.8 15.8 -21.6 14.75 -23.7 14.5 -28.35 14.4 -32.7 13.25 -36.25 12.25 -38.15 9.05 -41.6 3.4 -47.85 1.15 -50.2 0.35 -52.9 0.6 L-54.55 0.15 Q-53.85 -1.35 -51.55 -1.35 L-46.9 -1.3 Q-43.95 -0.85 -41.45 0.7 -36.95 3.55 -32.65 6.8 L-30.15 5.45 -21.7 2.95 Q-29.35 0.6 -37.4 -0.15 L-37.65 -1.25 Q-28.9 -5.75 -19.35 -2.65 L-17.75 -2.15 -17.2 -2.6 Q-21.25 -4.85 -25.35 -6.75 L-27.85 -7.0 -30.9 -6.05 -32.3 -7.1 Q-30.7 -9.65 -27.0 -10.0 L-23.65 -9.7 Q-22.3 -9.7 -20.45 -8.25 -22.1 -10.3 -24.7 -11.15 L-28.9 -11.45 Q-33.65 -10.5 -37.85 -8.9 -39.85 -8.15 -41.95 -7.85 -50.25 -6.65 -58.35 -8.15 L-58.7 -9.4 -46.8 -12.15 Q-45.3 -14.15 -42.55 -14.7 -35.9 -16.15 -31.0 -20.85 -27.95 -23.8 -23.7 -23.55 L-22.75 -22.8 Q-28.75 -19.85 -33.6 -15.25 -22.95 -17.7 -12.5 -20.7 L-8.75 -21.2 1.0 -20.5 Q-1.8 -17.25 -5.9 -17.75 L-12.65 -17.4 Q-14.45 -16.8 -16.15 -15.9 L-6.8 -11.85 Q0.95 -15.5 9.4 -17.55 L10.8 -17.75 15.4 -16.35 M1.7 -8.85 L1.3 -10.3 0.05 -8.85 1.7 -8.85 M16.85 -1.8 Q13.75 -0.7 10.5 -0.95 16.05 0.6 20.6 3.9 L20.0 5.75 23.85 3.9 24.4 4.0 Q25.25 4.15 25.4 4.8 L25.5 3.95 26.0 1.25 25.85 0.95 Q23.35 -4.4 17.55 -3.95 L16.85 -1.8 M25.4 6.35 L24.85 7.35 25.45 7.4 25.4 6.35 M30.6 13.8 L29.7 14.65 30.65 15.2 31.6 14.65 30.6 13.8 M0.15 6.95 L-2.05 8.2 -1.15 9.05 Q4.25 6.45 6.65 6.2 5.45 5.7 4.4 5.75 2.35 5.75 0.15 6.95 M8.85 3.8 Q5.65 1.25 1.6 0.8 -3.3 0.95 -8.25 2.3 L-9.05 3.5 -3.95 6.6 Q-1.75 5.0 0.8 3.95 5.35 2.1 9.8 4.5 L8.85 3.8 M6.0 17.45 L6.35 18.0 Q9.5 18.1 12.5 16.95 L8.35 16.25 6.0 17.45 M-13.1 -9.75 L-12.5 -10.8 -18.05 -14.5 -23.95 -12.85 Q-17.8 -10.05 -11.35 -8.5 L-13.1 -9.75 M-18.5 9.9 L-19.25 9.45 -20.65 10.0 -8.7 14.25 -5.75 11.5 Q-9.75 8.25 -14.95 8.2 L-14.55 8.75 -14.8 10.1 -18.5 9.9" fill="none" stroke="#fceba7" stroke-linecap="round" stroke-linejoin="round" stroke-width="0.5"/>
  </g>
</svg>
