<?xml version="1.0" encoding="UTF-8" standalone="no"?>
<svg xmlns:xlink="http://www.w3.org/1999/xlink" height="33.55px" width="9.95px" xmlns="http://www.w3.org/2000/svg">
  <g transform="matrix(1.0, 0.0, 0.0, 1.0, 5.5, 14.6)">
    <path d="M2.05 -10.85 Q3.1 -6.65 3.35 -2.05 3.85 6.25 2.55 14.35 2.15 16.8 -0.1 17.7 -1.5 18.3 -2.65 17.15 -4.6 15.3 -4.2 12.45 -3.25 5.85 -3.7 -0.85 L-4.0 -10.2 Q-4.0 -13.5 -0.85 -14.0 1.4 -13.3 2.05 -10.85 M2.35 4.5 Q3.4 -0.7 2.1 -5.9 2.2 -10.25 -0.6 -12.85 L-1.1 -13.05 -1.55 -11.7 Q2.05 -3.95 2.35 4.5" fill="#ff0000" fill-rule="evenodd" stroke="none"/>
    <path d="M2.05 -10.85 Q1.4 -13.3 -0.85 -14.0 -4.0 -13.5 -4.0 -10.2 L-3.7 -0.85 Q-3.25 5.85 -4.2 12.45 -4.6 15.3 -2.65 17.15 -1.5 18.3 -0.1 17.7 2.15 16.8 2.55 14.35 3.85 6.25 3.35 -2.05 3.1 -6.65 2.05 -10.85 M3.9 -6.4 Q5.15 4.15 3.5 14.6 2.75 19.3 -1.65 18.9 -3.25 18.7 -4.05 17.2 -6.05 13.35 -5.3 8.95 -3.85 0.0 -5.05 -9.05 -5.7 -14.2 -0.8 -14.5 L0.75 -14.3 Q2.15 -13.35 2.75 -11.6 3.6 -9.0 3.9 -6.4" fill="#000000" fill-rule="evenodd" stroke="none"/>
    <path d="M2.35 4.5 Q2.05 -3.95 -1.55 -11.7 L-1.1 -13.05 -0.6 -12.85 Q2.2 -10.25 2.1 -5.9 3.4 -0.7 2.35 4.5" fill="#ffffff" fill-rule="evenodd" stroke="none"/>
  </g>
</svg>
