<?xml version="1.0" encoding="UTF-8" standalone="no"?>
<svg xmlns:xlink="http://www.w3.org/1999/xlink" height="23.45px" width="22.15px" xmlns="http://www.w3.org/2000/svg">
  <g transform="matrix(1.0, 0.0, 0.0, 1.0, 9.05, 12.2)">
    <path d="M-5.75 -9.25 L-6.65 -8.6 -6.65 -7.45 Q-6.7 -2.15 -4.45 2.5 -3.15 5.2 -0.25 5.65 -4.55 0.2 -4.45 -6.85 -4.4 -8.4 -5.75 -9.25 M-2.15 -9.6 Q-0.1 -5.8 1.4 -1.75 3.4 0.25 6.1 1.35 9.0 2.65 11.05 4.7 12.25 5.95 11.8 7.7 11.4 9.25 9.9 9.65 5.7 10.95 1.65 9.1 -4.45 6.1 -6.95 -0.05 -8.7 -4.5 -7.45 -9.1 -7.0 -10.8 -5.25 -11.05 -3.2 -11.5 -2.15 -9.6" fill="#ff9900" fill-rule="evenodd" stroke="none"/>
    <path d="M-5.75 -9.25 Q-4.4 -8.4 -4.45 -6.85 -4.55 0.2 -0.25 5.65 -3.15 5.2 -4.45 2.5 -6.7 -2.15 -6.65 -7.45 L-6.65 -8.6 -5.75 -9.25" fill="#ffffff" fill-rule="evenodd" stroke="none"/>
    <path d="M0.25 -7.65 Q0.95 -5.0 2.15 -2.45 L11.4 3.7 Q12.5 4.4 12.85 5.4 13.85 8.55 11.05 10.35 9.65 11.2 8.25 11.2 0.75 11.85 -4.1 6.3 -9.3 0.25 -9.05 -7.4 -9.0 -9.6 -7.25 -11.25 -5.85 -12.55 -4.0 -12.05 -0.7 -11.25 0.25 -7.65 M-2.15 -9.6 Q-3.2 -11.5 -5.25 -11.05 -7.0 -10.8 -7.45 -9.1 -8.7 -4.5 -6.95 -0.05 -4.45 6.1 1.65 9.1 5.7 10.95 9.9 9.65 11.4 9.25 11.8 7.7 12.25 5.95 11.05 4.7 9.0 2.65 6.1 1.35 3.4 0.25 1.4 -1.75 -0.1 -5.8 -2.15 -9.6" fill="#000000" fill-rule="evenodd" stroke="none"/>
  </g>
</svg>
