<?xml version="1.0" encoding="UTF-8" standalone="no"?>
<svg xmlns:xlink="http://www.w3.org/1999/xlink" height="33.85px" width="14.45px" xmlns="http://www.w3.org/2000/svg">
  <g transform="matrix(1.0, 0.0, 0.0, 1.0, 8.35, 11.35)">
    <path d="M0.55 -10.35 Q5.05 -10.3 5.1 -4.65 2.05 6.0 2.05 9.4 L2.05 9.5 Q3.3 15.6 2.15 18.7 0.95 21.5 -2.5 21.5 -5.55 21.5 -6.65 19.0 -7.85 16.25 -7.0 10.8 L-7.0 10.7 Q-6.6 -10.25 0.55 -10.35 M3.0 -7.7 L1.45 -7.6 0.35 7.7 Q0.15 10.0 1.35 12.2 1.45 6.55 2.3 4.05 4.2 -1.75 3.0 -7.7" fill="#ffff00" fill-rule="evenodd" stroke="none"/>
    <path d="M3.0 -7.7 Q4.2 -1.75 2.3 4.05 1.45 6.55 1.35 12.2 0.15 10.0 0.35 7.7 L1.45 -7.6 3.0 -7.7" fill="#ffffff" fill-rule="evenodd" stroke="none"/>
    <path d="M6.1 -4.45 Q3.1 5.95 3.05 9.3 4.4 15.8 3.05 19.05 1.7 22.5 -2.5 22.5 -6.2 22.5 -7.55 19.4 -8.9 16.45 -8.0 10.65 -7.55 -11.45 0.55 -11.35 6.05 -11.4 6.1 -4.6 L6.1 -4.45 M0.55 -10.35 Q-6.6 -10.25 -7.0 10.7 L-7.0 10.8 Q-7.85 16.25 -6.65 19.0 -5.55 21.5 -2.5 21.5 0.95 21.5 2.15 18.7 3.3 15.6 2.05 9.5 L2.05 9.4 Q2.05 6.0 5.1 -4.65 5.05 -10.3 0.55 -10.35" fill="#000000" fill-rule="evenodd" stroke="none"/>
  </g>
</svg>
