<?xml version="1.0" encoding="UTF-8" standalone="no"?>
<svg xmlns:xlink="http://www.w3.org/1999/xlink" height="39.7px" width="50.15px" xmlns="http://www.w3.org/2000/svg">
  <g transform="matrix(1.0, 0.0, 0.0, 1.0, 24.7, 27.0)">
    <path d="M0.65 -0.5 L0.15 -0.55 1.0 2.0 -1.1 -1.45 -1.8 -2.3 -2.3 -3.0 -2.45 -3.15 -3.6 -4.25 -4.1 -4.65 -4.7 -4.95 -4.6 -4.7 -4.35 -4.0 -4.1 -3.2 -3.9 -2.35 -5.4 -5.1 -7.15 -7.7 -9.1 -9.85 -9.35 -10.05 -9.7 -10.4 -10.8 -11.25 -11.0 -11.4 -11.45 -11.65 -11.35 -11.4 -11.15 -10.85 -11.0 -10.35 -10.65 -8.95 -13.0 -13.65 -14.2 -15.55 -16.3 -18.25 -17.7 -19.55 -16.9 -17.3 -17.65 -18.7 -18.0 -19.5 -18.75 -21.2 -20.25 -23.85 -20.45 -24.15 -20.7 -24.45 -21.25 -25.1 -22.4 -25.75 -22.55 -25.6 -23.15 -25.0 -22.95 -24.1 -22.6 -23.35 Q-16.85 -15.15 -10.35 -7.6 -4.2 -0.5 3.55 4.95 L7.6 7.75 7.85 7.9 13.2 10.3 Q15.05 11.3 17.15 10.8 19.3 12.6 21.75 11.4 L23.35 11.65 24.05 11.4 Q24.65 11.05 24.65 10.6 L23.65 9.05 23.35 8.55 22.6 8.35 22.4 8.3 Q21.15 8.0 21.25 8.7 L21.25 8.8 22.85 10.55 23.6 11.25 22.6 10.6 21.35 9.6 18.4 7.95 18.05 7.8 17.95 7.8 16.9 7.4 16.0 7.45 15.9 7.4 15.95 7.45 15.25 7.45 15.8 8.15 17.15 9.65 16.55 9.4 13.0 6.5 13.45 6.9 11.0 4.95 10.75 4.8 9.65 4.35 7.3 3.95 8.2 6.0 4.45 1.6 4.15 1.35 2.95 0.6 1.95 0.0 Q1.85 -0.05 1.85 -0.05 L1.45 -0.25 1.25 -0.3 0.65 -0.5 M23.35 11.65 L23.45 11.75 23.35 11.65 M23.25 7.95 Q24.2 7.7 24.4 8.65 24.65 10.15 25.45 11.3 L24.2 12.45 22.2 12.4 Q19.95 13.25 17.85 11.6 14.15 11.85 10.75 9.7 L8.95 8.7 Q-5.3 0.85 -15.25 -12.45 L-24.7 -25.35 -22.35 -27.0 Q-14.6 -15.5 -4.75 -5.95 L0.8 -0.95 Q5.1 2.05 9.95 4.15 L14.9 6.4 Q18.4 7.85 21.5 7.7 L23.25 7.95" fill="#000000" fill-rule="evenodd" stroke="none"/>
    <path d="M2.2 2.35 L0.9 -0.15 4.85 5.0 4.5 4.2 5.35 5.4 2.95 1.2 2.75 0.9 3.6 1.85 Q4.75 3.65 5.3 5.15 L5.85 5.5 4.2 2.65 4.6 3.2 3.75 1.9 5.05 3.0 4.75 2.45 8.05 6.65 6.6 4.45 8.6 7.25 10.3 7.9 8.4 5.2 11.05 8.25 12.1 8.6 10.85 7.05 12.25 8.5 11.2 7.2 11.85 7.65 7.6 4.3 8.55 4.55 12.9 8.25 13.45 9.0 13.9 9.15 13.4 8.7 9.2 4.5 9.75 4.7 15.75 10.15 16.5 10.15 12.1 5.95 11.05 5.0 11.0 4.95 13.45 6.9 13.0 6.5 16.55 9.4 17.2 10.15 17.7 10.2 17.15 9.65 15.8 8.15 16.15 8.25 18.6 10.3 19.65 10.4 17.85 8.5 21.25 10.95 17.1 7.6 16.9 7.4 17.95 7.8 18.15 8.0 18.05 7.8 18.4 7.95 23.35 11.65 21.75 11.4 Q19.3 12.6 17.15 10.8 15.05 11.3 13.2 10.3 L7.85 7.9 7.65 7.7 7.6 7.75 3.55 4.95 Q-4.2 -0.5 -10.35 -7.6 -16.85 -15.15 -22.6 -23.35 L-22.15 -22.85 -22.95 -24.1 -23.15 -25.0 -20.85 -21.55 -21.0 -22.3 -20.0 -20.5 -19.8 -20.3 -19.95 -21.45 -18.5 -18.7 -18.3 -18.25 -18.5 -19.25 -18.75 -21.2 -18.0 -19.5 -16.65 -15.55 -17.65 -18.7 -16.9 -17.3 -15.6 -14.45 -16.7 -17.7 -14.95 -13.75 -14.3 -12.45 -14.55 -13.35 -14.6 -15.05 -13.5 -12.3 -12.4 -11.05 -13.0 -13.65 -10.65 -8.95 -11.0 -10.35 -10.4 -9.2 -10.2 -8.2 -9.5 -7.8 -10.25 -10.0 -9.0 -7.8 -8.7 -6.65 Q-8.45 -6.2 -8.05 -6.2 L-8.2 -6.85 -8.45 -8.2 -7.75 -5.65 -7.4 -5.35 -8.05 -7.6 -6.3 -3.9 -6.85 -5.85 -5.3 -3.3 -4.8 -2.05 -4.8 -2.5 -4.45 -2.15 -4.75 -2.8 -5.7 -4.8 -6.65 -6.75 -5.4 -5.1 -3.9 -2.35 -4.1 -3.2 -2.75 -0.5 -2.4 -0.2 -2.15 0.1 -1.5 0.55 -2.85 -1.9 -4.2 -4.4 -4.05 -4.55 -2.25 -1.75 -0.35 1.4 -2.45 -3.15 -2.3 -3.0 -1.9 -2.35 0.75 2.2 -1.1 -1.45 1.0 2.0 3.3 4.05 2.2 2.35 M4.15 1.35 L4.45 1.6 5.0 2.35 4.15 1.35 M22.6 10.6 L23.6 11.25 22.85 10.55 22.0 9.45 23.7 10.45 24.1 10.8 24.65 10.6 22.4 8.3 22.6 8.35 23.65 9.05 24.65 10.6 Q24.65 11.05 24.05 11.4 L23.35 11.65 22.5 10.6 22.6 10.6 M21.25 8.8 L21.25 8.7 21.5 8.75 21.25 8.8 M-11.15 -10.85 L-11.35 -11.4 -10.55 -9.9 -11.15 -10.85 M20.3 11.1 Q18.85 11.15 19.9 11.4 L20.3 11.1 M-9.2 -8.8 L-9.7 -9.65 -9.7 -10.1 -9.2 -8.8 M-4.9 -2.95 L-4.75 -2.8 -4.8 -2.7 -4.9 -2.95" fill="#ab000c" fill-rule="evenodd" stroke="none"/>
    <path d="M0.15 -0.55 L1.65 1.85 Q2.7 3.9 2.2 2.35 L3.3 4.05 1.0 2.0 0.15 -0.55 M0.9 -0.15 L0.65 -0.5 1.25 -0.3 4.5 4.2 4.85 5.0 0.9 -0.15 M1.45 -0.25 L1.85 -0.05 2.75 0.9 2.95 1.2 1.45 -0.25 M1.95 0.0 L2.95 0.6 4.75 2.45 5.05 3.0 3.75 1.9 1.95 0.0 M4.45 1.6 L8.2 6.0 7.3 3.95 9.65 4.35 Q9.35 4.3 9.35 4.5 L9.75 4.7 9.2 4.5 8.15 4.15 8.55 4.55 7.6 4.3 11.85 7.65 11.2 7.2 9.65 5.95 10.85 7.05 12.1 8.6 11.05 8.25 8.4 5.2 10.3 7.9 8.6 7.25 6.6 4.45 5.0 2.35 4.45 1.6 M10.75 4.8 L11.0 4.95 11.05 5.0 10.75 4.8 M16.55 9.4 L17.15 9.65 17.7 10.2 17.2 10.15 16.55 9.4 M15.8 8.15 L15.25 7.45 15.95 7.45 17.85 8.5 19.65 10.4 18.6 10.3 Q17.15 7.95 15.35 7.5 L15.25 7.45 16.15 8.25 15.8 8.15 M16.0 7.45 L16.9 7.4 17.1 7.6 16.0 7.45 M17.95 7.8 L18.05 7.8 18.15 8.0 17.95 7.8 M21.35 9.6 L22.6 10.6 22.5 10.6 21.35 9.6 M22.85 10.55 L21.25 8.8 22.0 9.45 22.85 10.55 M21.25 8.7 Q21.15 8.0 22.4 8.3 L24.65 10.6 24.1 10.8 23.7 10.45 21.5 8.75 21.25 8.7 M22.6 8.35 L23.35 8.55 23.65 9.05 22.6 8.35 M7.85 7.9 L7.6 7.75 7.65 7.7 7.85 7.9 M-22.6 -23.35 L-22.95 -24.1 -22.15 -22.85 -22.6 -23.35 M-23.15 -25.0 L-22.55 -25.6 -21.0 -22.3 -22.4 -25.75 -21.25 -25.1 -19.15 -19.95 -20.7 -24.45 -20.45 -24.15 -18.5 -18.7 -19.95 -21.45 -19.8 -20.3 -21.7 -24.4 -20.0 -20.5 -21.0 -22.3 -20.85 -21.55 -23.15 -25.0 M-20.25 -23.85 L-18.75 -21.2 -18.5 -19.25 -20.25 -23.85 M-18.0 -19.5 L-17.65 -18.7 -16.65 -15.55 -18.0 -19.5 M-16.9 -17.3 L-17.7 -19.55 -16.3 -18.25 -14.6 -15.05 -14.55 -13.35 -15.4 -15.0 -14.95 -13.75 -16.7 -17.7 -15.6 -14.45 -16.9 -17.3 M-14.2 -15.55 L-13.0 -13.65 -12.4 -11.05 -13.5 -12.3 -13.85 -14.0 -12.8 -11.55 -14.2 -15.55 M-11.35 -11.4 L-11.45 -11.65 -11.0 -11.4 -10.25 -10.0 -9.5 -7.8 -10.2 -8.2 -10.4 -9.2 -9.95 -8.35 -10.55 -9.9 -11.35 -11.4 M-10.8 -11.25 L-9.7 -10.4 -8.05 -7.6 -7.4 -5.35 -7.75 -5.65 -8.45 -8.2 -8.2 -6.85 -9.2 -8.8 -9.7 -10.1 -9.7 -9.65 -10.8 -11.25 M-9.35 -10.05 L-9.1 -9.85 Q-6.65 -6.65 -5.3 -3.3 L-6.85 -5.85 Q-7.7 -7.85 -9.35 -10.05 M-7.15 -7.7 L-5.4 -5.1 -6.65 -6.75 -7.15 -7.7 M-4.1 -3.2 L-4.35 -4.0 Q-3.35 -2.6 -2.4 -0.2 L-2.75 -0.5 -4.1 -3.2 M-4.6 -4.7 L-4.7 -4.95 -4.1 -4.65 -4.05 -4.55 -4.2 -4.4 -4.6 -4.7 M-3.6 -4.25 L-2.45 -3.15 -0.35 1.4 -2.25 -1.75 -3.6 -4.25 M-2.3 -3.0 L-1.8 -2.3 -2.1 -2.65 -1.9 -2.35 -2.3 -3.0 M12.1 5.95 L16.5 10.15 15.75 10.15 12.1 5.95 M13.4 8.7 L13.9 9.15 13.45 9.0 12.9 8.25 13.4 8.7 M4.2 2.65 L5.85 5.5 5.3 5.15 Q4.75 3.65 3.6 1.85 L4.2 2.65 M7.7 4.4 L10.4 6.8 9.65 5.95 7.7 4.4 M20.3 11.1 L19.9 11.4 Q18.85 11.15 20.3 11.1 M-9.0 -7.8 L-8.05 -6.2 Q-8.45 -6.2 -8.7 -6.65 L-9.0 -7.8 M-4.8 -2.7 L-4.75 -2.8 -4.9 -2.95 -5.7 -4.8 -4.75 -2.8 -4.45 -2.15 -4.8 -2.5 -4.8 -2.7 M-2.15 0.1 L-2.85 -1.9 -1.5 0.55 -2.15 0.1" fill="#ca022b" fill-rule="evenodd" stroke="none"/>
    <path d="M0.15 -0.55 L0.65 -0.5 0.9 -0.15 2.2 2.35 Q2.7 3.9 1.65 1.85 L0.15 -0.55 M1.25 -0.3 L1.45 -0.25 2.95 1.2 5.35 5.4 4.5 4.2 1.25 -0.3 M1.85 -0.05 Q1.85 -0.05 1.95 0.0 L3.75 1.9 4.6 3.2 4.2 2.65 3.6 1.85 2.75 0.9 1.85 -0.05 M2.95 0.6 L4.15 1.35 5.0 2.35 6.6 4.45 8.05 6.65 4.75 2.45 2.95 0.6 M9.65 4.35 L10.75 4.8 11.05 5.0 12.1 5.95 15.75 10.15 9.75 4.7 9.35 4.5 Q9.35 4.3 9.65 4.35 M15.95 7.45 L15.9 7.4 16.0 7.45 17.1 7.6 21.25 10.95 17.85 8.5 15.95 7.45 M18.4 7.95 L21.35 9.6 22.5 10.6 23.35 11.65 23.45 11.75 23.35 11.65 18.4 7.95 M-22.55 -25.6 L-22.4 -25.75 -21.0 -22.3 -22.55 -25.6 M-21.25 -25.1 L-20.7 -24.45 -19.15 -19.95 -21.25 -25.1 M-20.45 -24.15 L-20.25 -23.85 -18.5 -19.25 -18.3 -18.25 -18.5 -18.7 -20.45 -24.15 M-16.3 -18.25 L-14.2 -15.55 -12.8 -11.55 -13.85 -14.0 -13.5 -12.3 -14.6 -15.05 -16.3 -18.25 M-11.0 -10.35 L-11.15 -10.85 -10.55 -9.9 -9.95 -8.35 -10.4 -9.2 -11.0 -10.35 M-11.0 -11.4 L-10.8 -11.25 -9.7 -9.65 -9.2 -8.8 -8.2 -6.85 -8.05 -6.2 -9.0 -7.8 -10.25 -10.0 -11.0 -11.4 M-9.7 -10.4 L-9.35 -10.05 Q-7.7 -7.85 -6.85 -5.85 L-6.3 -3.9 -8.05 -7.6 -9.7 -10.4 M-9.1 -9.85 L-7.15 -7.7 -6.65 -6.75 -5.7 -4.8 -4.9 -2.95 -4.8 -2.7 -4.8 -2.5 -4.8 -2.05 -5.3 -3.3 Q-6.65 -6.65 -9.1 -9.85 M-4.35 -4.0 L-4.6 -4.7 -4.2 -4.4 -2.85 -1.9 -2.15 0.1 -2.4 -0.2 Q-3.35 -2.6 -4.35 -4.0 M-4.1 -4.65 L-3.6 -4.25 -2.25 -1.75 -4.05 -4.55 -4.1 -4.65 M-1.8 -2.3 L-1.1 -1.45 0.75 2.2 -1.9 -2.35 -2.1 -2.65 -1.8 -2.3 M21.25 8.8 L21.5 8.75 23.7 10.45 22.0 9.45 21.25 8.8 M9.2 4.5 L13.4 8.7 12.9 8.25 8.55 4.55 8.15 4.15 9.2 4.5 M11.2 7.2 L12.25 8.5 10.85 7.05 9.65 5.95 11.2 7.2 M18.6 10.3 L16.15 8.25 15.25 7.45 15.35 7.5 Q17.15 7.95 18.6 10.3 M7.7 4.4 L9.65 5.95 10.4 6.8 7.7 4.4 M-19.8 -20.3 L-20.0 -20.5 -21.7 -24.4 -19.8 -20.3 M-14.55 -13.35 L-14.3 -12.45 -14.95 -13.75 -15.4 -15.0 -14.55 -13.35" fill="#ff668f" fill-rule="evenodd" stroke="none"/>
  </g>
</svg>
