<?xml version="1.0" encoding="UTF-8" standalone="no"?>
<svg xmlns:xlink="http://www.w3.org/1999/xlink" height="33.65px" width="9.55px" xmlns="http://www.w3.org/2000/svg">
  <g transform="matrix(1.0, 0.0, 0.0, 1.0, 5.0, 15.0)">
    <path d="M-1.45 -12.15 Q-1.65 -13.1 -0.75 -13.3 0.5 -12.9 0.9 -11.7 3.35 -3.9 2.75 4.25 2.1 -3.65 -0.75 -10.75 L-1.45 -12.15" fill="#ffffff" fill-rule="evenodd" stroke="none"/>
    <path d="M-0.75 -14.15 L-0.15 -13.75 Q2.95 -10.85 3.1 -6.5 L3.9 3.9 Q4.45 10.95 1.05 16.95 0.2 18.4 -1.3 17.65 -4.35 16.2 -4.05 12.35 -3.15 1.5 -3.95 -9.25 -4.25 -13.0 -0.75 -14.15 M-1.45 -12.15 L-0.75 -10.75 Q2.1 -3.65 2.75 4.25 3.35 -3.9 0.9 -11.7 0.5 -12.9 -0.75 -13.3 -1.65 -13.1 -1.45 -12.15" fill="#66cc00" fill-rule="evenodd" stroke="none"/>
    <path d="M-0.35 -14.9 Q2.75 -13.7 3.3 -10.3 6.1 2.85 2.7 15.85 L1.95 17.4 Q0.7 19.0 -1.35 18.55 -4.85 17.6 -4.85 13.85 L-4.95 3.4 Q-5.15 -4.1 -4.4 -11.75 -4.15 -14.5 -1.35 -15.0 L-0.35 -14.9 M-0.75 -14.15 Q-4.25 -13.0 -3.95 -9.25 -3.15 1.5 -4.05 12.35 -4.35 16.2 -1.3 17.65 0.2 18.4 1.05 16.95 4.45 10.95 3.9 3.9 L3.1 -6.5 Q2.95 -10.85 -0.15 -13.75 L-0.75 -14.15" fill="#000000" fill-rule="evenodd" stroke="none"/>
  </g>
</svg>
