<?xml version="1.0" encoding="UTF-8" standalone="no"?>
<svg xmlns:xlink="http://www.w3.org/1999/xlink" height="28.0px" width="13.45px" xmlns="http://www.w3.org/2000/svg">
  <g transform="matrix(1.0, 0.0, 0.0, 1.0, 7.35, 15.35)">
    <path d="M0.95 -14.35 Q5.05 -14.35 5.1 -9.75 2.25 -0.95 2.25 1.8 L2.3 1.95 Q3.45 6.9 2.35 9.35 1.3 11.65 -1.9 11.65 -4.65 11.65 -5.7 9.6 -6.75 7.35 -6.0 2.95 L-6.0 2.85 Q-5.65 -14.25 0.95 -14.35 M2.95 -12.4 L2.1 -12.35 1.5 -8.95 Q0.4 -2.25 1.7 4.1 L3.55 -11.95 2.95 -12.4" fill="#ff33ff" fill-rule="evenodd" stroke="none"/>
    <path d="M0.95 -14.35 Q-5.65 -14.25 -6.0 2.85 L-6.0 2.95 Q-6.75 7.35 -5.7 9.6 -4.65 11.65 -1.9 11.65 1.3 11.65 2.35 9.35 3.45 6.9 2.3 1.95 L2.25 1.8 Q2.25 -0.95 5.1 -9.75 5.05 -14.35 0.95 -14.35 M6.1 -9.7 L6.1 -9.55 Q3.25 -0.9 3.25 1.8 4.5 7.1 3.3 9.8 2.0 12.65 -1.9 12.65 -5.35 12.65 -6.6 10.05 -7.85 7.65 -7.0 2.8 -6.6 -15.45 0.95 -15.35 6.1 -15.35 6.1 -9.7" fill="#000000" fill-rule="evenodd" stroke="none"/>
    <path d="M2.95 -12.4 L3.55 -11.95 1.7 4.1 Q0.4 -2.25 1.5 -8.95 L2.1 -12.35 2.95 -12.4" fill="#ffffff" fill-rule="evenodd" stroke="none"/>
  </g>
</svg>
