<?xml version="1.0" encoding="UTF-8" standalone="no"?>
<svg xmlns:xlink="http://www.w3.org/1999/xlink" height="36.85px" width="61.45px" xmlns="http://www.w3.org/2000/svg">
  <g transform="matrix(1.0, 0.0, 0.0, 1.0, 40.95, 16.85)">
    <path d="M20.1 -8.15 Q20.5 -7.4 20.5 -4.85 20.5 -2.6 19.6 -1.55 18.55 -0.3 15.4 0.25 L11.8 0.65 12.1 5.5 Q12.1 7.55 10.45 8.55 L11.25 9.45 12.1 12.25 12.65 15.0 Q12.65 16.85 10.0 18.2 6.6 20.0 0.0 20.0 -8.15 20.0 -13.0 18.35 -17.3 16.9 -17.3 14.9 -17.3 13.75 -15.3 11.65 L-13.3 9.5 -13.45 9.35 Q-19.1 9.55 -21.0 11.7 L-22.2 13.15 Q-23.0 13.8 -24.5 13.8 -27.7 13.8 -27.65 9.5 L-27.3 7.45 Q-30.9 8.65 -33.45 8.65 -37.8 8.65 -39.75 6.85 -40.95 5.75 -40.95 4.45 -40.95 2.5 -39.05 0.5 -36.2 -2.55 -30.5 -2.55 L-25.75 -2.5 -25.75 -2.8 Q-25.75 -3.75 -24.2 -5.1 -22.65 -6.45 -20.95 -6.6 L-20.75 -8.7 Q-21.15 -9.8 -21.15 -10.6 -21.15 -11.95 -19.75 -13.45 -18.9 -14.35 -17.8 -14.85 -15.7 -16.85 -12.3 -16.85 -3.45 -16.85 1.9 -14.8 6.3 -13.1 6.3 -11.1 6.3 -10.15 0.25 -6.15 L3.65 -7.45 Q4.95 -7.95 7.4 -9.55 10.25 -10.95 15.05 -11.3 19.1 -10.15 20.1 -8.15 M-11.45 -3.55 L-11.55 -3.75 -11.7 -3.7 -11.55 -3.55 -11.45 -3.55 M-23.7 9.1 L-23.65 9.2 -23.6 9.2 -23.7 9.1" fill="#cccccc" fill-rule="evenodd" stroke="none"/>
  </g>
</svg>
