<?xml version="1.0" encoding="UTF-8" standalone="no"?>
<svg xmlns:xlink="http://www.w3.org/1999/xlink" height="169.5px" width="285.2px" xmlns="http://www.w3.org/2000/svg">
  <g transform="matrix(1.0, 0.0, 0.0, 1.0, 136.15, 79.55)">
    <path d="M42.15 -76.3 Q44.95 -75.65 46.0 -73.25 46.6 -71.8 46.2 -70.25 45.45 -67.6 44.1 -65.25 44.35 -64.75 44.75 -64.45 46.4 -63.15 48.4 -63.0 L66.3 -61.4 Q70.9 -61.1 75.1 -59.8 81.45 -57.65 86.65 -53.2 88.05 -52.0 89.9 -51.65 L105.95 -48.15 Q110.4 -47.0 113.95 -44.4 115.65 -43.1 115.55 -41.15 115.4 -38.55 112.75 -37.8 L105.2 -35.15 Q102.8 -34.1 101.55 -31.7 100.2 -28.95 102.25 -26.75 L103.4 -25.7 Q106.2 -23.65 109.15 -21.9 L130.3 -22.25 Q137.2 -22.45 142.75 -18.55 147.25 -15.35 148.7 -10.1 149.5 -7.3 148.35 -4.8 147.6 -3.05 145.75 -2.2 143.7 -1.2 141.55 -1.35 136.65 -1.65 132.45 -4.6 128.05 -7.65 123.4 -10.25 119.1 -12.75 114.3 -12.5 113.2 -12.15 112.9 -11.15 L112.75 -9.7 Q113.2 -4.1 117.2 -0.4 L126.55 8.45 Q131.65 13.3 133.95 20.15 136.2 26.8 134.9 33.5 134.3 36.65 131.55 38.2 129.65 39.25 127.6 38.85 125.25 38.65 123.2 37.5 L121.55 36.1 Q118.2 32.6 117.25 27.8 116.55 24.2 115.45 20.55 114.25 16.55 110.15 16.75 L108.45 18.9 105.75 23.05 Q104.5 25.2 104.05 27.65 103.95 28.3 104.25 28.85 104.85 29.9 105.8 30.7 108.5 32.95 111.7 34.55 118.8 38.15 122.6 45.1 124.95 49.35 123.15 53.8 121.9 57.0 118.7 57.95 114.35 59.3 110.8 56.55 107.9 54.35 106.0 51.1 L103.25 46.65 Q100.65 42.55 96.15 44.2 94.85 44.65 94.05 45.65 92.45 47.55 92.1 50.35 92.7 52.0 93.85 53.25 L96.7 56.35 Q99.0 58.85 99.85 62.05 100.75 65.25 98.6 67.65 97.7 68.7 96.3 69.3 90.1 71.85 83.45 71.05 L67.95 67.9 Q70.6 70.1 70.7 73.45 70.8 76.05 69.3 78.15 68.2 79.8 66.5 80.65 60.6 83.75 53.95 83.85 L48.8 83.95 Q41.35 84.1 35.2 79.8 L30.4 76.2 Q28.75 74.9 26.6 74.2 22.15 72.55 17.55 73.5 15.1 74.05 14.15 76.45 12.5 80.6 10.3 84.4 8.8 86.95 6.35 88.0 2.0 89.8 -2.6 89.85 -9.1 90.3 -15.35 88.45 -18.1 87.7 -19.9 85.45 -21.8 83.1 -22.3 79.95 -22.9 76.45 -22.9 72.8 -22.9 71.1 -24.5 70.7 -28.5 69.45 -32.55 69.95 -36.8 70.0 -39.55 73.15 -40.9 74.75 -42.1 76.7 L-43.6 78.6 Q-45.15 80.2 -47.3 80.65 -51.75 81.55 -56.15 80.55 -59.9 79.5 -61.85 76.05 -63.3 73.5 -62.75 70.6 -62.25 67.9 -60.45 66.1 -56.55 62.1 -50.85 61.35 -52.1 60.9 -53.5 60.6 L-61.25 60.0 Q-67.5 60.4 -73.15 63.4 -75.1 64.45 -77.1 63.7 -79.5 62.8 -78.8 60.25 -78.15 57.75 -76.65 55.5 L-76.8 55.25 Q-78.05 53.6 -79.85 52.25 -87.5 46.55 -95.55 41.4 -97.5 41.7 -99.35 42.35 -101.0 42.85 -102.25 43.95 -104.6 45.85 -106.0 48.6 -107.2 50.85 -108.65 52.65 L-110.1 53.9 Q-112.4 55.55 -115.25 55.8 L-117.75 55.4 -119.85 54.65 Q-122.65 53.05 -122.45 49.65 -122.25 46.45 -120.95 43.65 -117.5 36.3 -109.3 35.35 -107.2 35.1 -99.7 36.9 L-104.9 33.0 Q-106.15 32.1 -107.45 31.35 -110.3 29.75 -112.0 27.0 -112.85 25.65 -112.6 24.3 -112.05 21.55 -110.6 19.2 L-108.05 15.1 Q-107.55 14.35 -107.6 13.55 -107.8 11.3 -109.75 10.1 -111.6 8.9 -112.7 6.95 -114.35 4.1 -112.7 0.95 -111.55 -1.35 -111.85 -3.85 -112.15 -6.4 -113.4 -8.4 -115.05 -11.05 -118.15 -10.1 -119.25 -6.25 -122.55 -3.65 -125.25 -1.5 -128.75 -1.4 -131.35 -1.3 -133.25 -2.95 -135.55 -4.85 -135.95 -7.9 -136.65 -12.9 -134.8 -17.35 -132.75 -22.15 -128.3 -25.05 -129.95 -25.35 -131.25 -26.55 -132.9 -28.15 -133.2 -30.4 -133.5 -32.55 -132.55 -34.3 -130.85 -37.35 -127.85 -39.0 L-121.15 -42.05 Q-116.2 -44.25 -110.75 -43.5 -105.9 -43.0 -101.05 -43.6 -98.6 -44.0 -96.65 -45.45 L-93.9 -47.3 Q-92.1 -48.6 -91.85 -49.25 -91.65 -49.9 -86.5 -50.65 -81.4 -51.45 -79.9 -54.35 -78.45 -57.25 -68.05 -53.4 -75.15 -59.6 -72.85 -63.9 -70.6 -68.2 -65.7 -69.45 -60.8 -70.75 -57.15 -70.7 L-42.05 -69.9 -45.0 -74.7 Q-44.6 -77.1 -42.0 -78.0 -37.95 -79.5 -33.55 -79.55 -24.35 -79.7 -15.95 -76.1 -12.55 -74.7 -9.15 -73.45 -4.25 -71.7 0.9 -70.95 L6.15 -71.25 Q10.6 -72.15 14.9 -73.9 21.4 -76.4 28.25 -77.15 35.3 -77.8 42.15 -76.3" fill="#ffffff" fill-rule="evenodd" stroke="none"/>
    <path d="M13.6 -16.35 Q19.5 -19.6 22.4 -19.6 27.95 -19.6 29.55 -16.0 30.4 -14.15 30.1 -12.25 30.1 -8.6 24.7 -5.55 22.85 -4.5 20.75 -3.8 28.4 -1.45 28.4 5.15 28.4 7.5 26.25 9.55 23.3 12.45 17.5 12.45 L14.85 12.3 Q17.25 14.9 17.25 18.7 17.25 22.2 13.25 24.6 8.25 27.65 -1.7 27.65 -18.05 27.65 -18.05 21.15 -18.05 19.75 -15.6 16.4 -12.85 12.7 -10.5 12.25 L-13.05 11.15 -19.15 14.15 Q-27.05 17.75 -29.15 17.75 -33.5 17.75 -36.15 14.75 -37.95 12.7 -38.1 11.05 L-44.4 11.4 Q-56.8 11.4 -56.8 6.7 -56.8 2.15 -47.6 -1.4 -43.8 -2.85 -39.6 -3.8 -40.1 -4.4 -39.95 -5.7 -39.95 -8.25 -37.1 -10.25 -33.9 -12.5 -28.65 -12.5 L-26.65 -12.35 -30.8 -18.1 Q-30.8 -21.0 -28.3 -23.2 -25.25 -25.95 -19.5 -26.05 L-14.55 -26.15 -5.35 -25.45 Q-4.05 -26.65 0.15 -26.65 7.0 -26.65 11.0 -22.1 13.75 -19.0 13.75 -16.75 L13.6 -16.35 M1.85 -22.95 L2.35 -23.05 1.25 -23.3 1.85 -22.95" fill="#cccccc" fill-rule="evenodd" stroke="none"/>
  </g>
</svg>
