<?xml version="1.0" encoding="UTF-8" standalone="no"?>
<svg xmlns:xlink="http://www.w3.org/1999/xlink" height="178.45px" width="305.7px" xmlns="http://www.w3.org/2000/svg">
  <g transform="matrix(1.0, 0.0, 0.0, 1.0, 152.85, 89.2)">
    <path d="M50.05 -86.6 Q54.0 -85.65 57.4 -83.65 L59.45 -82.3 Q60.95 -81.05 60.45 -79.05 60.1 -78.0 59.0 -77.6 L56.6 -76.95 54.1 -76.55 53.7 -76.3 Q57.8 -75.15 62.0 -74.8 67.25 -74.5 72.35 -73.2 L77.2 -71.65 Q86.2 -68.3 95.0 -64.0 97.0 -63.0 99.1 -62.2 106.65 -59.4 114.15 -56.95 116.1 -56.35 118.2 -56.0 120.8 -56.05 123.3 -56.9 L128.15 -57.95 131.75 -57.8 Q134.0 -57.3 136.2 -56.4 138.85 -55.3 141.0 -53.1 142.85 -51.1 143.1 -48.3 143.2 -46.9 142.7 -45.7 L141.9 -44.5 Q140.7 -43.4 138.95 -43.5 133.2 -42.9 128.05 -44.25 L124.65 -45.25 120.35 -47.2 115.8 -48.85 115.05 -48.6 111.95 -44.2 110.35 -44.35 109.95 -45.3 107.95 -46.45 Q106.55 -44.05 107.6 -41.55 107.95 -40.75 108.9 -40.15 109.7 -39.65 110.65 -39.35 L120.7 -36.35 125.75 -34.75 131.7 -33.35 145.25 -30.75 Q146.7 -30.55 148.1 -29.9 149.9 -29.15 151.35 -27.8 152.5 -26.8 152.8 -25.1 153.0 -24.15 152.65 -23.15 152.35 -22.25 151.7 -21.7 L150.6 -20.9 Q151.3 -17.15 149.35 -14.0 148.45 -12.6 146.9 -11.75 144.4 -10.5 141.7 -9.65 L137.85 -9.45 Q135.4 -9.65 133.35 -11.1 132.1 -11.95 131.05 -13.05 L128.95 -15.7 127.0 -17.85 123.45 -20.5 Q120.25 -19.0 121.1 -15.65 121.6 -13.65 123.15 -12.0 L127.15 -7.55 Q128.5 -6.05 129.1 -4.2 130.5 0.25 133.75 3.45 L140.3 9.4 Q141.7 10.5 142.6 12.05 L144.15 14.4 Q145.2 16.05 145.35 17.9 L145.5 21.1 Q145.55 22.85 144.65 24.1 L143.55 25.35 Q138.9 28.55 133.35 30.05 L129.35 30.45 Q126.6 30.35 124.15 29.1 127.05 31.25 129.3 34.0 131.25 36.45 131.85 39.35 132.15 40.9 131.8 42.45 130.95 46.3 127.45 48.15 L124.25 49.1 120.95 49.15 Q118.9 49.15 117.1 48.35 L114.45 47.0 Q112.95 46.0 111.65 44.8 L108.2 41.15 Q106.95 39.6 104.85 39.3 102.85 38.8 101.25 40.2 99.45 41.85 100.05 44.3 101.1 48.45 105.25 50.05 106.05 50.4 106.7 51.1 107.65 52.15 107.65 53.8 107.6 55.75 106.1 56.85 104.85 57.7 103.2 58.25 98.05 59.95 92.65 60.4 86.65 61.2 81.05 62.5 79.7 62.95 78.95 64.25 83.6 66.1 86.9 69.65 88.5 71.4 88.15 73.8 87.8 76.15 85.95 77.95 84.55 79.35 82.4 80.45 L79.85 81.6 75.9 82.8 62.65 83.85 50.8 83.1 Q45.4 82.45 40.45 80.8 L35.05 78.55 25.7 74.5 16.1 70.75 15.5 70.95 14.45 72.6 Q16.85 75.25 18.55 78.15 19.65 79.95 19.4 82.0 19.2 83.55 18.25 84.45 L16.4 85.7 11.6 87.45 7.0 88.45 -4.05 88.9 -8.8 89.25 Q-13.55 89.3 -18.2 88.2 L-22.95 87.25 Q-25.25 86.55 -27.1 84.95 -28.3 83.95 -29.0 82.7 -30.65 79.95 -29.85 76.65 -29.1 73.7 -27.65 71.05 -26.95 69.8 -26.6 68.4 -25.65 64.75 -27.9 62.05 L-29.15 60.7 -35.3 63.85 Q-36.3 64.45 -36.7 65.5 -34.1 69.75 -31.95 74.15 -31.25 75.6 -31.95 77.2 -32.5 78.5 -33.35 79.65 -34.95 81.9 -37.4 83.0 -40.5 84.35 -43.95 84.5 L-50.1 84.15 Q-53.2 83.55 -56.25 82.25 -58.0 81.55 -59.6 80.4 L-62.35 77.6 Q-63.5 76.05 -64.1 74.1 L-65.65 68.2 -66.0 65.55 Q-70.4 67.5 -75.15 66.95 -77.8 66.85 -79.7 65.3 -82.4 63.1 -82.35 59.65 L-82.0 57.3 -80.45 50.2 Q-80.3 49.25 -80.8 48.3 L-81.6 47.2 Q-83.3 47.1 -84.75 46.3 -87.25 44.7 -90.15 45.15 -91.8 45.3 -93.3 45.9 L-94.75 47.0 Q-95.75 47.9 -96.35 49.25 L-97.4 51.85 Q-98.55 54.9 -101.15 56.6 -102.35 57.35 -103.65 57.85 -106.0 58.8 -108.3 59.0 L-111.45 59.1 -115.8 58.9 Q-117.4 58.8 -118.85 58.0 -120.8 57.05 -122.35 55.6 -123.85 54.25 -123.75 52.15 -123.65 49.1 -121.35 47.0 -119.15 44.95 -116.45 43.4 L-115.2 42.1 -112.75 37.65 -110.9 33.85 Q-111.0 32.65 -110.1 31.95 -107.45 30.0 -104.3 29.5 L-100.4 29.15 Q-101.9 27.35 -103.75 26.1 -104.7 25.55 -105.75 25.2 L-116.4 23.65 Q-120.0 23.75 -123.55 22.65 -126.35 21.95 -128.35 19.9 -129.65 18.55 -129.25 16.7 L-127.95 12.65 Q-127.05 10.55 -125.7 8.95 L-123.75 6.65 Q-126.2 5.9 -127.15 3.45 -127.55 2.35 -127.1 1.2 -126.45 -0.25 -125.4 -1.5 L-121.05 -6.1 Q-119.85 -7.3 -118.8 -8.65 L-116.75 -11.5 Q-116.0 -12.55 -116.55 -13.85 L-117.5 -15.65 -118.2 -16.55 Q-120.45 -16.2 -122.2 -14.65 L-126.35 -10.55 Q-127.75 -9.1 -129.6 -8.3 -136.15 -5.8 -143.1 -6.5 -146.35 -6.85 -149.15 -8.55 L-151.35 -10.35 Q-152.05 -11.05 -152.35 -11.95 -152.95 -13.85 -152.85 -15.75 -152.7 -17.75 -151.85 -19.55 -151.0 -21.45 -149.75 -23.15 -148.0 -25.65 -145.35 -27.45 -142.75 -29.25 -139.75 -30.4 -142.05 -33.5 -139.85 -36.8 -138.35 -39.05 -135.65 -40.15 -128.1 -43.15 -119.8 -43.6 -120.35 -45.8 -118.55 -47.35 -115.05 -50.35 -110.75 -52.0 L-103.65 -55.1 Q-100.95 -56.5 -99.1 -58.85 -96.65 -61.95 -93.2 -64.05 -89.45 -66.2 -85.0 -66.9 L-76.8 -67.6 -74.65 -68.0 Q-74.1 -68.15 -73.55 -68.4 -74.65 -69.5 -76.05 -69.85 L-81.25 -71.0 -82.45 -71.45 Q-84.25 -72.25 -84.45 -74.4 -83.8 -76.7 -81.65 -77.8 -75.4 -81.0 -68.45 -81.45 L-55.85 -82.6 Q-55.5 -85.3 -53.1 -86.3 L-48.3 -87.7 -41.95 -88.85 Q-35.6 -89.4 -29.25 -89.1 -15.85 -87.85 -2.8 -84.4 2.1 -82.95 7.1 -83.55 11.65 -83.65 16.15 -84.7 L25.05 -86.85 Q29.1 -88.1 33.3 -88.35 L41.55 -88.05 50.05 -86.6 M114.1 14.75 Q113.95 17.6 115.45 20.05 118.0 24.05 121.6 27.0 119.95 24.6 119.75 21.85 L119.3 16.3 Q119.1 14.2 118.4 12.15 L116.7 7.95 Q114.3 11.0 114.1 14.75" fill="#ffffff" fill-rule="evenodd" stroke="none"/>
  </g>
</svg>
