<?xml version="1.0" encoding="UTF-8" standalone="no"?>
<svg xmlns:xlink="http://www.w3.org/1999/xlink" height="89.7px" width="151.85px" xmlns="http://www.w3.org/2000/svg">
  <g transform="matrix(1.0, 0.0, 0.0, 1.0, 67.65, 38.15)">
    <path d="M9.9 -31.2 Q17.5 -31.2 18.5 -24.0 18.5 -21.7 15.3 -18.9 L9.15 -13.55 Q10.9 -12.6 11.2 -12.6 14.55 -12.6 17.4 -15.45 19.05 -17.2 22.55 -21.8 30.45 -31.0 45.1 -31.0 55.45 -31.0 60.25 -25.7 63.2 -22.45 63.2 -19.2 63.2 -15.75 56.5 -13.65 52.15 -12.3 41.75 -10.8 L27.0 -8.2 Q20.3 -6.45 20.3 -3.6 20.3 -2.1 26.35 -2.1 31.85 -2.1 43.85 -5.8 55.75 -9.5 64.4 -9.5 84.15 -9.5 84.2 7.35 84.2 10.25 79.7 11.85 75.7 13.3 69.5 13.3 60.35 13.3 43.1 9.6 25.75 5.85 22.2 5.85 12.4 5.85 12.4 8.45 12.4 11.6 19.75 14.4 28.2 17.65 39.7 16.8 45.0 16.35 49.9 20.75 54.15 24.6 54.2 27.3 54.2 29.35 49.45 30.95 44.8 32.45 38.9 32.45 32.8 32.45 24.7 28.4 16.6 24.3 12.5 24.3 L9.75 24.35 Q17.1 27.85 23.5 32.8 30.85 38.55 30.85 41.95 30.85 45.35 28.35 47.85 24.7 51.55 16.65 51.55 3.85 51.55 -5.8 46.05 -14.35 41.2 -14.3 36.55 -14.3 32.9 -11.4 28.95 L-4.5 21.1 Q-7.2 18.7 -14.3 20.35 -19.1 20.35 -20.9 18.9 -21.75 21.15 -21.95 23.35 -22.25 25.6 -24.2 28.15 -26.95 31.5 -30.7 31.5 -40.95 31.5 -45.3 26.5 -47.85 23.6 -47.85 20.6 -47.85 18.15 -47.0 16.7 -45.9 14.75 -42.6 12.5 L-48.1 12.8 Q-57.6 12.8 -62.4 11.2 -66.3 9.9 -66.25 8.1 -66.25 2.1 -52.4 -1.85 L-42.85 -4.0 Q-41.75 -4.2 -39.15 -5.75 L-47.3 -5.45 Q-60.8 -5.45 -65.55 -9.75 -67.95 -11.95 -67.6 -14.4 -67.65 -16.55 -66.25 -18.5 -64.15 -21.6 -59.65 -21.6 -52.3 -21.6 -38.35 -16.2 -31.3 -13.45 -24.45 -11.25 L-24.15 -12.7 Q-24.15 -14.0 -25.75 -15.55 L-29.25 -18.5 Q-34.4 -23.05 -34.35 -28.8 -34.35 -31.6 -29.35 -34.45 -22.9 -38.15 -12.15 -38.15 5.6 -38.15 5.6 -31.9 L5.6 -31.5 9.9 -31.2" fill="#cccccc" fill-rule="evenodd" stroke="none"/>
  </g>
</svg>
