<?xml version="1.0" encoding="UTF-8" standalone="no"?>
<svg xmlns:xlink="http://www.w3.org/1999/xlink" height="45.25px" width="16.6px" xmlns="http://www.w3.org/2000/svg">
  <g transform="matrix(1.0, 0.0, 0.0, 1.0, 11.65, 22.3)">
    <path d="M0.55 -2.2 L0.65 -1.3 0.65 -2.0 1.15 -0.4 0.8 4.65 0.4 4.0 0.7 -0.7 0.2 2.95 0.45 -0.4 0.15 -3.0 0.55 -2.2 M0.1 -1.9 L0.15 -2.15 0.1 1.75 -0.15 2.75 0.05 1.6 -0.2 1.05 0.1 -1.9 M1.3 2.25 L1.35 0.55 1.5 1.15 1.3 2.25 M2.3 3.05 L2.6 3.6 2.5 4.3 2.45 4.1 2.4 4.25 2.3 3.05 M2.75 3.85 L3.05 5.25 2.9 6.0 2.75 3.85 M3.25 6.35 L3.35 7.1 3.05 8.3 3.25 6.35 M3.4 7.6 L2.9 12.25 3.7 10.1 3.6 10.85 2.3 13.8 Q1.7 11.65 2.8 9.6 L2.5 11.55 3.4 7.6 M3.9 10.65 L4.2 12.15 4.1 12.0 4.1 12.25 3.8 12.85 Q4.05 11.8 3.9 10.65 M3.2 16.65 L4.0 15.85 3.3 17.75 4.45 15.2 4.6 17.55 3.25 20.35 4.55 18.35 4.0 21.35 2.55 20.4 2.7 19.15 2.95 18.55 3.2 18.05 3.2 16.65 M-10.75 -20.1 L-10.2 -21.4 -10.15 -21.3 -10.0 -21.0 -9.75 -18.85 -9.75 -20.5 -9.6 -20.45 -9.4 -19.1 -9.45 -18.4 -9.75 -18.85 -10.3 -20.7 -10.35 -19.95 -10.75 -20.1 M-9.45 -20.4 L-9.05 -20.05 -8.85 -18.85 -9.2 -18.4 -9.45 -20.4 M-8.8 -19.75 L-8.55 -19.25 -8.45 -17.45 -8.7 -17.65 -8.8 -19.75 M-8.4 -19.05 L-7.85 -17.35 -7.95 -16.45 -8.35 -17.3 -8.4 -19.05 M-7.65 -16.4 L-7.5 -17.4 -7.2 -15.85 -7.15 -15.1 -7.65 -16.4 M-7.4 -17.35 L-6.85 -16.65 -6.6 -15.8 -6.65 -14.55 -6.95 -16.6 -7.1 -16.15 -7.4 -17.35 M-6.55 -16.3 L-6.4 -16.0 -6.1 -13.2 -6.25 -13.75 -6.55 -16.3 M-6.15 -15.55 L-5.7 -14.05 -5.8 -12.4 -5.95 -14.75 -6.15 -15.55 M-5.35 -13.05 L-5.5 -14.6 -4.9 -11.95 -5.0 -10.8 -5.45 -11.7 -5.35 -13.05 M-5.05 -14.25 L-4.8 -13.9 -4.45 -12.0 -4.55 -9.9 -4.8 -12.9 -5.05 -14.25 M-4.45 -13.3 L-4.0 -12.5 -4.0 -11.1 -4.05 -11.45 -4.15 -11.4 -4.45 -13.3 M-3.9 -12.3 L-3.45 -9.7 -3.4 -6.45 -3.8 -10.1 -3.9 -12.3 M-3.2 -9.0 L-3.2 -10.75 -3.15 -10.6 -3.15 -10.7 -2.55 -9.4 -2.45 -5.3 -2.7 -8.4 -2.85 -5.95 -3.2 -9.0 M-2.45 -9.0 L-2.1 -8.3 -2.05 -7.8 -2.25 -7.15 -2.45 -9.0 M-1.8 -7.05 L-1.75 -6.3 -2.15 -4.6 -1.8 -7.05 M-1.55 -5.65 L-1.8 -7.95 -1.55 -7.6 -1.35 -2.25 -1.4 -1.75 -1.55 -5.65 M-1.35 -7.15 L-1.1 -6.55 -1.05 -5.05 -1.35 -7.15 M-0.8 -5.85 L-0.45 -4.85 -0.85 -0.45 -0.8 -5.85 M-0.35 -0.4 L-0.3 -0.3 -0.45 0.4 -0.35 -0.4 M1.5 5.25 L2.1 2.75 1.95 5.7 1.35 8.3 1.5 5.25 M1.9 7.2 L1.85 8.45 2.1 8.0 1.75 9.5 1.9 7.2 M-4.25 -9.6 L-4.15 -10.35 -4.1 -8.8 -4.25 -9.6" fill="#ca022b" fill-rule="evenodd" stroke="none"/>
    <path d="M0.65 -2.0 L0.65 -1.3 0.55 -2.2 0.65 -2.0 M0.15 -3.0 L0.45 -0.4 0.1 1.75 0.15 -2.15 0.15 -3.0 M0.8 4.65 L1.15 -0.4 1.35 0.55 1.3 2.25 0.8 4.65 M2.1 2.75 L2.3 3.05 2.4 4.25 2.4 4.3 2.1 8.0 1.85 8.45 1.9 7.2 1.95 5.7 2.1 2.75 M2.6 3.6 L2.75 3.85 2.9 6.0 2.2 9.3 2.5 4.3 2.6 3.6 M3.35 7.1 L3.4 7.6 2.5 11.55 2.8 9.6 3.05 8.3 3.35 7.1 M3.7 10.1 L3.9 10.65 Q4.05 11.8 3.8 12.85 L2.7 15.05 3.6 10.85 3.7 10.1 M4.2 12.15 L4.15 14.1 2.75 16.8 4.1 12.25 4.1 12.0 4.2 12.15 M4.0 15.85 L4.45 15.2 3.3 17.75 4.0 15.85 M4.6 17.55 L4.55 18.35 3.25 20.35 4.6 17.55 M2.7 19.15 L2.7 19.1 2.95 18.55 2.7 19.15 M-5.95 -11.75 L-6.0 -11.8 -6.1 -13.2 -6.4 -16.0 -6.15 -15.55 -5.95 -14.75 -5.95 -11.75 M-10.2 -21.4 L-10.15 -21.3 -10.2 -21.4 M-10.0 -21.0 L-9.75 -20.5 -9.75 -18.85 -10.0 -21.0 M-9.6 -20.45 L-9.45 -20.4 -9.2 -18.4 -9.4 -19.1 -9.6 -20.45 M-9.05 -20.05 L-8.8 -19.75 -8.7 -17.65 -8.85 -18.85 -9.05 -20.05 M-8.55 -19.25 L-8.4 -19.05 -8.35 -17.3 Q-8.3 -16.4 -8.4 -17.05 L-8.45 -17.45 -8.55 -19.25 M-7.5 -17.4 L-7.4 -17.35 -7.1 -16.15 -6.95 -14.7 -7.2 -15.85 -7.5 -17.4 M-6.85 -16.65 L-6.55 -16.3 -6.25 -13.75 -6.6 -15.8 -6.85 -16.65 M-5.5 -14.6 L-5.05 -14.25 -4.8 -12.9 -4.9 -11.95 -5.5 -14.6 M-4.8 -13.9 L-4.45 -13.3 -4.15 -11.4 -4.15 -10.35 -4.25 -9.6 -4.45 -12.0 -4.8 -13.9 M-4.0 -12.5 L-3.9 -12.3 -3.8 -10.1 -3.9 -8.7 -4.0 -11.1 -4.0 -12.5 M-3.2 -10.75 L-3.15 -10.7 -3.15 -10.6 -3.2 -10.75 M-2.55 -9.4 L-2.45 -9.0 -2.25 -7.15 -2.45 -5.3 -2.55 -9.4 M-2.1 -8.3 L-1.8 -7.05 -2.15 -4.6 -2.05 -7.8 -2.1 -8.3 M-1.55 -7.6 L-1.35 -7.15 -1.05 -5.05 -1.1 -6.55 -0.8 -5.85 -0.85 -0.45 -1.0 -4.8 -1.35 -2.25 -1.55 -7.6" fill="#ff668f" fill-rule="evenodd" stroke="none"/>
    <path d="M0.55 -2.2 L0.15 -3.0 0.15 -2.15 0.1 -1.9 -0.3 -0.3 -0.35 -0.4 -0.45 -4.85 -0.8 -5.85 -1.1 -6.55 -1.35 -7.15 -1.55 -7.6 -1.8 -7.95 -1.55 -5.65 -1.75 -6.3 -1.8 -7.05 -2.1 -8.3 -2.45 -9.0 -2.55 -9.4 -3.15 -10.7 -3.2 -10.75 -3.2 -9.0 -3.45 -9.7 -3.9 -12.3 -4.0 -12.5 -4.45 -13.3 -4.8 -13.9 -5.05 -14.25 -5.5 -14.6 -5.35 -13.05 -5.7 -14.05 -6.15 -15.55 -6.4 -16.0 -6.55 -16.3 -6.85 -16.65 -7.4 -17.35 -7.5 -17.4 -7.65 -16.4 -7.85 -17.35 -8.4 -19.05 -8.55 -19.25 -8.8 -19.75 -9.05 -20.05 -9.45 -20.4 -9.6 -20.45 -9.75 -20.5 -10.0 -21.0 -10.15 -21.3 -10.2 -21.4 -10.75 -20.1 -10.85 -19.4 -6.0 -11.8 -5.95 -11.75 -3.9 -6.45 -4.9 -8.6 Q-6.85 -12.5 -9.15 -16.2 -10.25 -18.0 -11.65 -19.55 L-10.35 -22.3 -7.3 -18.05 -6.9 -17.9 Q-0.65 -8.7 2.2 2.15 5.2 10.05 4.9 18.65 L4.75 22.95 1.85 20.7 Q1.9 10.2 -1.25 0.4 L0.7 5.45 2.7 19.1 2.7 19.15 2.55 20.4 4.0 21.35 4.55 18.35 4.6 17.55 4.45 15.2 4.0 15.85 3.2 16.65 4.15 14.1 4.2 12.15 3.9 10.65 3.7 10.1 2.9 12.25 3.4 7.6 3.35 7.1 3.25 6.35 3.05 5.25 2.75 3.85 2.6 3.6 2.3 3.05 2.1 2.75 1.5 5.25 1.5 1.15 1.35 0.55 1.15 -0.4 0.65 -2.0 0.55 -2.2 M-10.2 -21.4 L-10.2 -21.45 -10.2 -21.4" fill="#000000" fill-rule="evenodd" stroke="none"/>
    <path d="M0.45 -0.4 L0.2 2.95 0.7 -0.7 0.4 4.0 0.8 4.65 1.3 2.25 1.5 1.15 1.5 5.25 1.35 8.3 1.95 5.7 1.9 7.2 1.75 9.5 2.1 8.0 2.4 4.3 2.4 4.25 2.45 4.1 2.5 4.3 2.2 9.3 2.9 6.0 3.05 5.25 3.25 6.35 3.05 8.3 2.8 9.6 Q1.7 11.65 2.3 13.8 L3.6 10.85 2.7 15.05 3.8 12.85 4.1 12.25 2.75 16.8 4.15 14.1 3.2 16.65 3.2 18.05 2.95 18.55 2.7 19.1 0.7 5.45 -1.25 0.4 -3.9 -6.45 -5.95 -11.75 -5.95 -14.75 -5.8 -12.4 -5.7 -14.05 -5.35 -13.05 -5.45 -11.7 -5.0 -10.8 -4.9 -11.95 -4.8 -12.9 -4.55 -9.9 -4.45 -12.0 -4.25 -9.6 -4.1 -8.8 -4.15 -10.35 -4.15 -11.4 -4.05 -11.45 -4.0 -11.1 -3.9 -8.7 -3.8 -10.1 -3.4 -6.45 -3.45 -9.7 -3.2 -9.0 -2.85 -5.95 -2.7 -8.4 -2.45 -5.3 -2.25 -7.15 -2.05 -7.8 -2.15 -4.6 -1.75 -6.3 -1.55 -5.65 -1.4 -1.75 -1.35 -2.25 -1.0 -4.8 -0.85 -0.45 -0.45 -4.85 -0.35 -0.4 -0.45 0.4 -0.3 -0.3 0.1 -1.9 -0.2 1.05 0.05 1.6 -0.15 2.75 0.1 1.75 0.45 -0.4 M-6.0 -11.8 L-10.85 -19.4 -10.75 -20.1 -10.35 -19.95 -10.3 -20.7 -9.75 -18.85 -9.45 -18.4 -9.4 -19.1 -9.2 -18.4 -8.85 -18.85 -8.7 -17.65 -8.45 -17.45 -8.4 -17.05 Q-8.3 -16.4 -8.35 -17.3 L-7.95 -16.45 -7.85 -17.35 -7.65 -16.4 -7.15 -15.1 -7.2 -15.85 -6.95 -14.7 -7.1 -16.15 -6.95 -16.6 -6.65 -14.55 -6.6 -15.8 -6.25 -13.75 -6.1 -13.2 -6.0 -11.8 M-10.2 -21.4 L-10.2 -21.45 -10.2 -21.4" fill="#ab000c" fill-rule="evenodd" stroke="none"/>
  </g>
</svg>
