<?xml version="1.0" encoding="UTF-8" standalone="no"?>
<svg xmlns:xlink="http://www.w3.org/1999/xlink" height="128.45px" width="41.6px" xmlns="http://www.w3.org/2000/svg">
  <g transform="matrix(1.0, 0.0, 0.0, 1.0, 20.3, 65.15)">
    <path d="M6.05 -65.05 L13.85 -63.85 Q19.55 -63.45 21.3 -58.2 L21.3 26.35 Q20.9 28.35 19.95 29.65 18.6 31.5 16.5 32.45 L15.05 40.6 12.85 41.7 Q10.2 50.35 6.7 58.75 5.0 62.85 0.75 63.3 0.15 63.1 -0.2 62.75 -4.9 57.35 -7.5 50.55 -8.9 46.95 -10.7 43.65 -13.65 38.3 -14.8 32.4 L-16.95 30.4 Q-17.95 29.3 -18.15 27.9 -19.6 17.1 -19.95 6.05 -20.65 -15.15 -19.85 -36.3 -19.45 -47.35 -17.65 -58.1 -17.15 -60.9 -14.35 -61.95 -4.55 -65.8 6.05 -65.05 M-2.75 -54.35 Q-8.75 -53.9 -13.7 -56.65 L-14.4 -57.25 Q0.4 -53.6 15.05 -56.8 L9.6 -54.85 -2.75 -54.35 M18.35 -59.3 Q2.85 -64.85 -13.05 -60.3 L-15.5 -59.5 -17.0 -57.05 -17.0 -24.85 Q-16.7 -3.0 -17.0 18.75 -17.05 24.65 -13.7 29.3 -13.15 30.0 -12.2 30.35 -3.5 32.3 5.6 31.75 9.95 31.15 13.95 29.8 15.6 29.25 17.1 28.3 19.3 7.15 18.65 -14.2 18.4 -21.75 18.45 -29.45 L18.35 -59.3 M13.7 34.65 L13.8 32.45 Q1.1 34.45 -11.75 32.2 L-11.3 38.2 -10.25 39.2 -9.6 39.45 -7.9 39.8 -5.8 40.0 -5.25 40.05 -2.15 40.1 -0.25 40.1 4.55 40.05 6.4 39.95 9.25 39.75 11.0 39.55 11.2 39.5 Q12.1 39.5 12.75 38.95 13.35 38.35 13.35 37.55 L13.7 34.65 M9.9 42.3 L10.45 41.1 Q1.4 41.9 -7.6 41.3 L-7.05 42.35 -1.2 60.2 2.55 60.1 Q4.35 58.3 4.95 56.3 7.15 49.2 9.9 42.3" fill="#000000" fill-rule="evenodd" stroke="none"/>
    <path d="M9.6 -54.85 L15.05 -56.8 Q0.4 -53.6 -14.4 -57.25 L-13.7 -56.65 Q-8.75 -53.9 -2.75 -54.35 L-9.4 -52.0 Q-11.1 -51.25 -11.65 -49.4 -15.2 -37.2 -17.0 -24.85 L-17.0 -57.05 -15.5 -59.5 -13.05 -60.3 Q2.85 -64.85 18.35 -59.3 17.7 -58.2 15.05 -56.75 11.9 -55.05 9.6 -54.85 M15.25 -59.0 L14.45 -59.7 Q12.9 -60.75 10.9 -60.45 3.05 -59.9 -4.2 -57.4 -3.1 -56.75 -1.85 -56.6 -0.75 -56.35 0.05 -57.05 L-2.2 -57.7 8.8 -58.35 15.25 -59.0 M-11.2 -59.2 L-12.25 -58.8 Q-6.9 -57.85 -2.05 -60.55 L-11.2 -59.2" fill="#ff883b" fill-rule="evenodd" stroke="none"/>
    <path d="M15.25 -59.0 L8.8 -58.35 -2.2 -57.7 0.05 -57.05 Q-0.75 -56.35 -1.85 -56.6 -3.1 -56.75 -4.2 -57.4 3.05 -59.9 10.9 -60.45 12.9 -60.75 14.45 -59.7 L15.25 -59.0 M-11.2 -59.2 L-2.05 -60.55 Q-6.9 -57.85 -12.25 -58.8 L-11.2 -59.2" fill="#cd1b00" fill-rule="evenodd" stroke="none"/>
    <path d="M9.6 -54.85 Q11.9 -55.05 15.05 -56.75 17.7 -58.2 18.35 -59.3 L18.45 -29.45 Q18.4 -21.75 18.65 -14.2 19.3 7.15 17.1 28.3 15.6 29.25 13.95 29.8 9.95 31.15 5.6 31.75 -3.5 32.3 -12.2 30.35 -13.15 30.0 -13.7 29.3 -17.05 24.65 -17.0 18.75 -16.7 -3.0 -17.0 -24.85 -15.2 -37.2 -11.65 -49.4 -11.1 -51.25 -9.4 -52.0 L-2.75 -54.35 9.6 -54.85 M-10.25 39.2 L-9.75 34.7 -9.05 35.3 -9.6 39.45 -10.25 39.2 M-7.9 39.8 L-7.95 35.75 -6.5 35.9 -5.8 40.0 -7.9 39.8 M-5.25 40.05 L-4.85 39.35 -5.55 35.05 -2.4 35.3 -1.85 36.05 -2.15 40.1 -5.25 40.05 M-0.25 40.1 L-0.7 35.85 4.95 35.55 4.55 40.05 -0.25 40.1 M6.4 39.95 L6.05 35.45 9.4 35.05 9.25 39.75 6.4 39.95 M11.0 39.55 L10.25 34.95 11.65 34.65 11.2 39.5 11.0 39.55 M13.35 37.55 L12.9 34.2 13.7 34.65 13.35 37.55 M-7.05 42.35 L-6.85 42.8 Q1.75 44.45 9.9 42.3 7.15 49.2 4.95 56.3 4.35 58.3 2.55 60.1 L-1.2 60.2 -7.05 42.35" fill="#ff4d00" fill-rule="evenodd" stroke="none"/>
    <path d="M-10.25 39.2 L-11.3 38.2 -11.75 32.2 Q1.1 34.45 13.8 32.45 L13.7 34.65 12.9 34.2 13.35 37.55 Q13.35 38.35 12.75 38.95 12.1 39.5 11.2 39.5 L11.65 34.65 10.25 34.95 11.0 39.55 9.25 39.75 9.4 35.05 6.05 35.45 6.4 39.95 4.55 40.05 4.95 35.55 -0.7 35.85 -0.25 40.1 -2.15 40.1 -1.85 36.05 -2.4 35.3 -5.55 35.05 -4.85 39.35 -5.25 40.05 -5.8 40.0 -6.5 35.9 -7.95 35.75 -7.9 39.8 -9.6 39.45 -9.05 35.3 -9.75 34.7 -10.25 39.2 M-7.05 42.35 L-7.6 41.3 Q1.4 41.9 10.45 41.1 L9.9 42.3 Q1.75 44.45 -6.85 42.8 L-7.05 42.35" fill="#e63400" fill-rule="evenodd" stroke="none"/>
  </g>
</svg>
