<?xml version="1.0" encoding="UTF-8" standalone="no"?>
<svg xmlns:xlink="http://www.w3.org/1999/xlink" height="21.75px" width="26.75px" xmlns="http://www.w3.org/2000/svg">
  <g transform="matrix(1.0, 0.0, 0.0, 1.0, 13.2, 10.9)">
    <path d="M1.95 -8.45 L2.1 -8.3 Q3.0 -7.5 3.3 -6.2 L3.35 -4.2 3.2 -3.4 2.95 -2.45 1.85 -0.15 0.3 1.7 -0.3 2.15 -1.35 2.85 -2.85 3.5 -5.7 4.05 Q-11.3 4.95 -12.9 -0.35 -14.1 -4.45 -10.75 -7.15 -6.5 -10.4 -1.1 -9.65 L1.95 -8.45 M-4.5 -6.6 L-5.45 -8.25 -2.85 -8.45 -6.6 -8.8 -10.2 -6.75 -6.85 -7.1 -6.3 -7.5 -4.5 -6.6" fill="#cc0000" fill-rule="evenodd" stroke="none"/>
    <path d="M-5.7 4.05 L-2.85 3.5 -3.4 3.65 Q-3.4 5.15 -4.6 6.35 -1.75 6.1 -1.35 2.85 L-0.3 2.15 1.0 2.65 0.3 1.7 1.85 -0.15 2.95 -2.45 6.3 -1.65 3.2 -3.4 3.35 -4.2 Q3.9 -4.4 4.1 -4.9 L4.75 -6.05 4.15 -6.5 3.3 -6.2 Q3.0 -7.5 2.1 -8.3 7.7 -8.25 12.85 -5.6 L12.95 -5.6 Q9.25 0.65 2.85 5.0 L-5.55 10.45 -7.85 10.6 Q-8.15 9.05 -7.35 7.55 L-5.7 4.05 M6.55 -4.6 L6.9 -2.95 Q6.9 -2.35 7.3 -2.05 7.9 -2.4 7.9 -2.75 L7.3 -4.45 7.9 -4.85 7.15 -5.3 Q6.55 -5.3 6.55 -4.6 M2.5 0.65 Q3.55 1.0 4.3 0.05 L4.0 -0.85 2.5 0.65" fill="#ff9900" fill-rule="evenodd" stroke="none"/>
    <path d="M2.1 -8.3 L1.95 -8.45 -1.1 -9.65 Q-1.0 -10.9 0.75 -10.9 L5.3 -10.4 Q8.4 -10.3 11.0 -8.95 13.55 -7.6 13.55 -6.5 13.55 -5.65 12.95 -5.6 L12.85 -5.6 Q7.7 -8.25 2.1 -8.3" fill="#cc6600" fill-rule="evenodd" stroke="none"/>
    <path d="M-0.3 2.15 L0.3 1.7 1.0 2.65 -0.3 2.15 M2.95 -2.45 L3.2 -3.4 6.3 -1.65 2.95 -2.45 M3.35 -4.2 L3.3 -6.2 4.15 -6.5 4.75 -6.05 4.1 -4.9 Q3.9 -4.4 3.35 -4.2" fill="#339900" fill-rule="evenodd" stroke="none"/>
    <path d="M-2.85 3.5 L-1.35 2.85 Q-1.75 6.1 -4.6 6.35 -3.4 5.15 -3.4 3.65 L-2.85 3.5 M6.55 -4.6 Q6.55 -5.3 7.15 -5.3 L7.9 -4.85 7.3 -4.45 7.9 -2.75 Q7.9 -2.4 7.3 -2.05 6.9 -2.35 6.9 -2.95 L6.55 -4.6 M2.5 0.65 L4.0 -0.85 4.3 0.05 Q3.55 1.0 2.5 0.65" fill="#ff0000" fill-rule="evenodd" stroke="none"/>
    <path d="M-4.5 -6.6 L-6.3 -7.5 -6.85 -7.1 -10.2 -6.75 -6.6 -8.8 -2.85 -8.45 -5.45 -8.25 -4.5 -6.6" fill="#336600" fill-rule="evenodd" stroke="none"/>
  </g>
</svg>
