<?xml version="1.0" encoding="UTF-8" standalone="no"?>
<svg xmlns:xlink="http://www.w3.org/1999/xlink" height="37.5px" width="84.0px" xmlns="http://www.w3.org/2000/svg">
  <g transform="matrix(1.0, 0.0, 0.0, 1.0, 45.1, 11.85)">
    <path d="M-1.7 -8.2 Q-4.2 -3.05 -3.3 2.5 -2.85 5.55 0.3 5.75 9.5 6.4 18.25 3.35 22.1 2.0 26.3 2.7 28.85 3.25 30.7 5.2 31.85 6.4 31.7 8.05 31.5 11.0 28.7 11.65 32.8 12.6 36.4 14.8 38.4 16.1 38.85 18.4 L38.7 19.65 Q37.55 21.75 34.95 21.95 28.35 22.9 21.95 20.85 17.55 19.45 13.35 17.8 10.1 16.45 6.75 15.35 -0.05 13.05 -5.9 17.1 -8.35 18.85 -10.2 21.0 -14.0 25.25 -19.25 25.65 -23.85 25.55 -26.35 21.9 L-25.95 21.05 Q-24.6 18.95 -22.2 17.95 -19.35 16.75 -18.3 14.6 -21.0 12.9 -24.35 13.8 -33.7 16.35 -42.95 13.9 -44.05 13.55 -44.55 12.45 -46.45 8.35 -41.8 6.75 -32.85 3.8 -24.1 7.95 -22.5 8.75 -20.9 8.9 -16.75 9.25 -12.95 7.95 -11.9 7.65 -11.2 6.9 -7.9 3.3 -7.75 -1.85 L-8.25 -2.3 Q-11.8 -5.3 -11.6 -9.9 -11.0 -11.8 -8.85 -11.85 -6.65 -12.0 -5.05 -10.85 -2.55 -11.25 -1.65 -9.0 -1.5 -8.55 -1.7 -8.2 M-19.0 6.55 Q-20.25 5.15 -23.85 4.45 -26.65 3.9 -26.65 2.1 -26.65 0.3 -24.8 0.3 -20.95 0.3 -18.65 6.25 L-19.0 6.55 M-8.6 6.05 L-8.55 6.05 -8.6 6.0 -8.6 6.05" fill="#f44a02" fill-rule="evenodd" stroke="none"/>
  </g>
</svg>
