<?xml version="1.0" encoding="UTF-8" standalone="no"?>
<svg xmlns:xlink="http://www.w3.org/1999/xlink" height="41.4px" width="92.35px" xmlns="http://www.w3.org/2000/svg">
  <g transform="matrix(1.0, 0.0, 0.0, 1.0, 48.6, 12.4)">
    <path d="M-2.05 -4.85 Q-0.8 0.8 -2.25 6.3 L2.45 5.85 Q9.55 5.7 11.9 12.05 12.55 13.7 11.4 14.7 8.35 17.45 4.2 16.15 L3.75 16.5 Q-2.1 19.4 -7.6 15.55 -10.2 17.1 -13.1 17.5 -16.15 17.95 -18.4 16.2 -20.7 14.35 -19.65 11.65 -18.3 8.2 -14.7 7.4 -13.55 7.05 -12.45 7.4 -10.3 7.8 -8.55 6.35 -11.45 5.65 -12.6 3.1 -15.15 -2.75 -10.3 -6.9 L-9.2 -8.4 Q-8.7 -9.1 -8.35 -9.9 L-8.85 -10.5 -7.2 -11.8 Q-5.0 -13.15 -3.15 -11.35 L-2.05 -4.85 M-10.7 21.15 Q-10.95 22.2 -11.9 22.85 -14.45 24.75 -17.1 26.45 -23.1 30.25 -30.05 28.4 -32.3 27.7 -32.85 25.35 -33.05 24.55 -32.7 23.85 -29.85 17.9 -23.45 19.9 -20.85 20.7 -18.55 21.7 -14.65 23.45 -11.0 20.95 L-10.7 21.15 M-24.95 3.85 L-24.65 4.7 Q-24.65 5.55 -26.55 5.55 -28.65 5.55 -28.65 4.25 -28.65 3.05 -26.55 3.05 -25.5 3.05 -24.95 3.85 M-24.3 12.35 Q-27.65 14.0 -31.35 13.55 -38.5 15.75 -45.65 14.4 -47.25 14.0 -48.05 12.25 -49.75 8.35 -46.15 6.35 -43.5 4.75 -40.55 6.15 -39.55 6.6 -38.95 7.5 -36.5 11.4 -31.8 12.35 L-31.35 11.45 -28.25 11.55 -24.3 12.35 M41.7 26.6 Q32.55 27.4 26.4 20.85 33.8 21.35 40.95 21.25 42.85 21.75 43.5 23.6 44.45 26.25 41.7 26.6 M33.5 9.75 Q30.4 11.85 24.65 11.85 20.85 11.85 20.85 11.0 22.7 9.5 23.25 6.5 24.1 2.25 29.35 2.25 33.2 2.25 34.8 4.25 35.7 5.35 35.7 6.55 35.7 8.2 33.5 9.75 M22.9 20.55 L16.7 18.15 17.0 18.0 Q21.3 16.65 23.7 20.1 23.55 20.75 22.9 20.55" fill="#f44a02" fill-rule="evenodd" stroke="none"/>
  </g>
</svg>
