<?xml version="1.0" encoding="UTF-8" standalone="no"?>
<svg xmlns:xlink="http://www.w3.org/1999/xlink" height="43.3px" width="94.6px" xmlns="http://www.w3.org/2000/svg">
  <g transform="matrix(1.0, 0.0, 0.0, 1.0, 50.25, 12.35)">
    <path d="M-2.15 -6.5 L-4.0 -4.8 Q-4.75 -1.65 -4.25 1.6 L-2.5 13.3 2.1 12.05 Q5.95 7.4 11.4 5.65 L13.0 5.45 Q16.65 6.1 17.4 9.8 18.15 13.35 15.0 15.2 11.75 17.0 8.55 15.25 11.3 18.9 8.45 22.5 7.0 24.4 4.55 23.9 -2.8 22.1 -6.5 15.25 -11.9 19.7 -18.8 20.6 L-22.25 20.4 Q-25.85 19.25 -25.9 15.5 -25.9 13.15 -23.95 11.75 -21.65 10.15 -19.05 10.25 -16.0 10.35 -13.6 12.35 -14.8 6.3 -10.95 1.35 L-9.4 -1.1 Q-6.7 -6.05 -8.4 -11.3 L-8.25 -11.75 -7.85 -11.9 -7.35 -11.8 Q-4.95 -12.85 -2.5 -11.9 L-1.95 -11.6 Q0.55 -8.9 -2.15 -6.5 M-21.9 27.0 L-24.1 28.85 Q-27.55 31.45 -31.9 30.8 -35.35 30.9 -34.4 27.75 -33.35 27.2 -32.2 27.75 -26.85 30.45 -21.9 27.0 M-46.4 10.85 Q-46.3 11.6 -46.5 12.35 -46.5 13.95 -40.95 14.1 -41.6 14.75 -44.5 14.75 -50.25 14.75 -50.25 11.1 -50.25 9.3 -48.15 9.3 -46.65 9.3 -46.4 10.85 M44.35 27.6 Q41.75 28.95 39.05 27.35 L35.15 24.95 44.15 26.25 44.35 27.6 M36.3 6.25 Q36.3 7.95 29.55 10.8 L28.4 10.55 Q29.7 10.0 30.95 6.9 32.0 4.25 34.35 4.25 36.15 4.25 36.3 6.25" fill="#f44a02" fill-rule="evenodd" stroke="none"/>
  </g>
</svg>
