<?xml version="1.0" encoding="UTF-8" standalone="no"?>
<svg xmlns:xlink="http://www.w3.org/1999/xlink" height="41.1px" width="68.35px" xmlns="http://www.w3.org/2000/svg">
  <g transform="matrix(1.0, 0.0, 0.0, 1.0, 40.55, 12.55)">
    <path d="M-9.15 -10.5 Q-8.65 -12.5 -6.6 -12.55 L-5.15 -12.05 Q0.75 -9.55 2.65 -3.6 3.6 -0.7 2.55 2.15 1.55 4.8 -0.45 6.95 L-0.35 8.0 Q2.5 10.05 6.0 8.55 9.7 6.8 13.8 5.8 19.1 4.55 23.7 7.45 26.75 9.35 27.8 12.85 27.2 15.95 24.15 16.55 20.3 16.9 16.7 16.6 L10.1 15.6 Q15.4 18.2 14.65 23.65 L14.2 25.15 Q13.45 26.8 11.75 27.4 6.75 29.4 1.55 27.95 -4.25 26.2 -5.5 20.4 -6.5 15.9 -10.75 14.15 -12.45 13.35 -14.25 13.75 -21.55 15.35 -26.4 21.35 L-28.4 23.2 Q-34.2 27.0 -39.45 23.05 -40.2 22.45 -40.4 21.45 -41.25 16.95 -36.95 14.7 -29.35 10.65 -20.75 11.65 -20.4 6.65 -15.0 6.05 L-10.8 5.4 -8.7 5.25 Q-6.05 -2.65 -9.15 -10.5" fill="#f44a02" fill-rule="evenodd" stroke="none"/>
  </g>
</svg>
