<?xml version="1.0" encoding="UTF-8" standalone="no"?>
<svg xmlns:xlink="http://www.w3.org/1999/xlink" height="46.1px" width="81.4px" xmlns="http://www.w3.org/2000/svg">
  <g transform="matrix(1.0, 0.0, 0.0, 1.0, 44.0, 12.05)">
    <path d="M-4.4 -8.35 Q-4.45 -1.95 1.45 1.25 4.8 3.05 4.75 6.7 L9.8 9.75 Q11.85 11.05 13.0 13.2 13.45 14.05 13.15 14.9 L12.35 15.95 Q6.4 19.25 0.3 15.4 -1.7 14.2 -3.65 15.0 -8.35 16.95 -13.05 15.65 -15.95 14.85 -15.3 12.05 L-19.05 12.1 Q-22.6 11.9 -23.7 8.85 -23.2 7.15 -21.45 6.45 -16.4 4.3 -11.9 7.9 L-8.85 4.95 Q-9.9 -0.6 -8.35 -6.05 -8.1 -6.85 -8.35 -7.5 L-9.65 -11.4 -9.4 -11.75 Q-6.45 -12.6 -3.8 -11.05 L-4.4 -8.35 M-0.6 19.65 L3.4 20.0 10.25 19.35 Q11.85 19.35 15.05 21.2 18.0 22.95 18.45 23.85 19.95 26.65 19.95 28.6 19.95 34.05 13.25 34.05 8.6 34.05 4.5 31.9 0.8 30.0 0.35 28.1 -0.45 24.65 -2.35 22.45 L-4.05 20.6 Q-4.05 20.4 -0.6 19.65 M-34.45 18.7 Q-32.7 19.8 -27.9 19.8 L-25.05 19.55 Q-25.05 21.25 -30.05 23.85 -35.15 26.45 -38.85 26.45 -44.0 26.45 -44.0 22.35 -44.0 17.55 -39.3 17.55 -36.2 17.55 -34.45 18.7 M30.35 6.6 Q36.95 6.35 37.4 12.85 37.5 13.9 36.85 14.6 35.0 16.4 32.25 16.2 24.25 16.75 16.5 14.7 18.5 13.4 20.35 11.4 L22.7 9.05 Q25.9 6.3 30.35 6.6" fill="#f44a02" fill-rule="evenodd" stroke="none"/>
  </g>
</svg>
