<?xml version="1.0" encoding="UTF-8" standalone="no"?>
<svg xmlns:xlink="http://www.w3.org/1999/xlink" height="47.4px" width="86.75px" xmlns="http://www.w3.org/2000/svg">
  <g transform="matrix(1.0, 0.0, 0.0, 1.0, 46.2, 12.0)">
    <path d="M-3.65 -6.2 Q-3.7 0.15 -0.1 5.55 3.05 4.35 6.45 5.15 9.45 5.9 9.35 8.95 14.3 7.75 19.35 9.35 23.3 10.7 23.35 15.0 23.35 17.25 21.8 18.8 19.65 21.0 16.35 21.0 L14.5 20.2 Q7.0 15.55 -1.9 14.7 -7.45 22.4 -17.0 22.1 L-18.65 21.55 Q-22.5 19.6 -20.3 15.5 -25.9 17.7 -31.15 14.85 -32.15 14.25 -32.2 13.2 -32.25 11.95 -31.7 10.95 -29.35 6.75 -24.35 7.85 -25.7 3.15 -20.7 2.15 -14.6 0.85 -10.1 5.2 -8.15 -0.55 -8.0 -6.4 L-7.75 -10.85 Q-7.65 -11.6 -7.05 -12.0 L-6.1 -11.55 Q-3.15 -9.8 -3.65 -6.2 M-40.5 26.45 Q-42.7 26.45 -44.6 24.85 -46.2 23.5 -46.2 22.5 -46.2 20.55 -44.55 20.55 -43.25 20.55 -42.9 22.9 -42.55 25.2 -39.15 25.2 L-37.35 25.5 Q-38.05 26.45 -40.5 26.45 M38.45 8.75 Q40.1 8.75 40.55 11.7 40.55 12.8 39.4 14.0 37.8 15.75 34.95 15.75 L30.65 15.6 29.9 15.5 29.55 15.2 Q33.5 14.95 35.15 11.8 36.7 8.75 38.45 8.75 M18.9 28.25 Q22.25 28.25 22.35 31.05 22.35 35.4 17.3 35.4 7.55 35.4 3.5 30.3 L3.9 30.05 7.2 30.9 Q13.95 30.9 15.85 29.6 17.7 28.25 18.9 28.25" fill="#f44a02" fill-rule="evenodd" stroke="none"/>
  </g>
</svg>
