<?xml version="1.0" encoding="UTF-8" standalone="no"?>
<svg xmlns:xlink="http://www.w3.org/1999/xlink" height="128.2px" width="47.9px" xmlns="http://www.w3.org/2000/svg">
  <g transform="matrix(1.0, 0.0, 0.0, 1.0, 23.85, 64.1)">
    <path d="M9.85 -53.75 L15.2 -54.95 Q19.65 -56.1 21.8 -57.4 21.8 -51.05 18.55 -45.5 12.1 -34.5 9.6 -22.15 7.1 -10.0 12.35 1.1 17.5 11.95 17.8 23.85 17.9 27.45 17.15 30.95 9.3 33.6 1.05 33.45 L-13.25 33.1 Q-16.6 32.6 -19.35 30.5 -16.0 30.8 -14.6 27.8 -13.2 24.7 -13.1 21.4 -13.0 18.9 -13.8 16.5 -16.15 9.2 -13.35 1.8 -12.6 -0.2 -13.35 -2.25 L-12.95 -3.5 Q-10.25 -12.5 -12.0 -21.6 -11.35 -31.45 -13.1 -41.25 -13.5 -43.55 -13.25 -45.85 -12.65 -51.75 -6.6 -52.65 L7.4 -53.15 9.85 -53.75 M-11.55 40.1 Q-11.5 39.05 -11.05 38.85 L-9.95 40.75 -11.55 40.1 M-8.6 40.95 L-9.35 38.55 -7.75 36.85 -7.5 41.15 -8.6 40.95 M-5.65 41.4 L-5.8 36.45 Q-3.4 35.95 -2.3 37.8 L-2.5 41.7 -5.65 41.4 M-0.8 41.8 L-0.3 36.35 4.4 36.45 4.75 41.4 -0.8 41.8 M6.65 41.25 L6.5 35.95 8.7 35.7 8.1 41.15 6.65 41.25 M9.55 41.0 L10.25 36.55 11.55 40.3 11.2 40.75 9.55 41.0 M-8.25 44.65 L7.85 45.2 2.0 61.2 -0.25 61.15 Q-1.4 61.0 -1.85 60.2 -6.05 53.0 -8.25 44.65" fill="#ff4d00" fill-rule="evenodd" stroke="none"/>
    <path d="M21.8 -57.4 L21.35 -58.25 Q3.95 -64.25 -14.15 -60.45 -18.5 -59.4 -22.2 -57.0 -20.5 -46.35 -16.3 -36.35 -13.25 -29.2 -12.0 -21.6 -10.25 -12.5 -12.95 -3.5 L-13.35 -2.25 Q-18.45 11.4 -20.85 25.6 -21.2 27.7 -20.6 29.6 L-19.35 30.5 Q-16.6 32.6 -13.25 33.1 L1.05 33.45 Q9.3 33.6 17.15 30.95 17.9 27.45 17.8 23.85 17.5 11.95 12.35 1.1 7.1 -10.0 9.6 -22.15 12.1 -34.5 18.55 -45.5 21.8 -51.05 21.8 -57.4 M-6.6 -52.65 Q-10.45 -52.45 -14.1 -54.0 L-16.1 -54.95 Q-0.4 -51.9 14.9 -55.9 L9.85 -53.75 7.4 -53.15 -6.6 -52.65 M17.3 -38.85 Q11.1 -26.4 10.95 -12.45 10.95 -10.8 11.45 -9.15 L13.95 -1.3 Q16.75 6.8 18.95 15.0 20.0 18.9 20.4 23.0 20.8 27.5 19.05 31.45 18.45 32.75 17.05 33.25 L14.8 33.8 13.9 42.35 Q13.15 43.15 12.0 43.25 L10.75 43.35 Q8.8 52.7 4.6 61.2 2.95 64.55 -1.05 64.0 -6.05 63.25 -6.55 58.15 -6.75 56.3 -7.4 54.55 L-11.65 42.85 Q-16.0 41.2 -15.7 36.1 L-15.65 34.25 Q-22.35 33.6 -23.25 27.1 -23.45 25.55 -23.25 24.1 -21.9 15.15 -18.7 6.75 -14.8 -3.35 -13.75 -14.2 -13.55 -16.5 -13.85 -18.8 -14.8 -26.3 -17.5 -33.5 L-22.9 -48.5 Q-24.55 -53.3 -23.35 -58.05 -23.2 -58.7 -22.55 -59.1 -18.9 -61.55 -14.5 -62.5 4.65 -66.7 23.1 -59.8 25.35 -53.95 22.25 -48.45 19.7 -43.75 17.3 -38.85 M11.55 40.3 L12.55 34.3 Q-0.2 35.9 -13.15 34.85 L-13.15 35.95 Q-13.1 38.35 -11.55 40.1 L-9.95 40.75 -8.6 40.95 -7.5 41.15 -5.65 41.4 -2.5 41.7 -0.8 41.8 4.75 41.4 6.65 41.25 8.1 41.15 9.55 41.0 11.2 40.75 11.55 40.3 M7.85 45.2 L8.75 42.65 Q-0.25 44.2 -9.25 42.6 L-8.25 44.65 Q-6.05 53.0 -1.85 60.2 -1.4 61.0 -0.25 61.15 L2.0 61.2 7.85 45.2" fill="#000000" fill-rule="evenodd" stroke="none"/>
    <path d="M21.8 -57.4 Q19.65 -56.1 15.2 -54.95 L9.85 -53.75 14.9 -55.9 Q-0.4 -51.9 -16.1 -54.95 L-14.1 -54.0 Q-10.45 -52.45 -6.6 -52.65 -12.65 -51.75 -13.25 -45.85 -13.5 -43.55 -13.1 -41.25 -11.35 -31.45 -12.0 -21.6 -13.25 -29.2 -16.3 -36.35 -20.5 -46.35 -22.2 -57.0 -18.5 -59.4 -14.15 -60.45 3.95 -64.25 21.35 -58.25 L21.8 -57.4 M-2.95 -56.1 L-3.05 -55.95 -2.55 -55.0 Q-1.0 -54.25 0.5 -54.55 0.1 -55.6 -1.7 -55.95 L16.2 -58.1 Q6.25 -59.3 -2.95 -56.1 M-16.35 -56.75 L-13.8 -56.4 Q-8.65 -56.35 -3.8 -57.8 -2.15 -58.2 -0.65 -58.75 0.8 -59.1 1.3 -60.35 0.1 -61.6 -1.35 -60.8 L0.55 -60.15 Q-5.0 -57.6 -11.2 -57.55 L-17.1 -57.7 Q-17.35 -57.05 -16.35 -56.75 M-13.35 -2.25 Q-12.6 -0.2 -13.35 1.8 -16.15 9.2 -13.8 16.5 -13.0 18.9 -13.1 21.4 -13.2 24.7 -14.6 27.8 -16.0 30.8 -19.35 30.5 L-20.6 29.6 Q-21.2 27.7 -20.85 25.6 -18.45 11.4 -13.35 -2.25" fill="#ff883b" fill-rule="evenodd" stroke="none"/>
    <path d="M-16.35 -56.75 Q-17.35 -57.05 -17.1 -57.7 L-11.2 -57.55 Q-5.0 -57.6 0.55 -60.15 L-1.35 -60.8 Q0.1 -61.6 1.3 -60.35 0.8 -59.1 -0.65 -58.75 -2.15 -58.2 -3.8 -57.8 -8.65 -56.35 -13.8 -56.4 L-16.35 -56.75 M-2.95 -56.1 Q6.25 -59.3 16.2 -58.1 L-1.7 -55.95 Q0.1 -55.6 0.5 -54.55 -1.0 -54.25 -2.55 -55.0 L-3.05 -55.95 -2.95 -56.1" fill="#cd1b00" fill-rule="evenodd" stroke="none"/>
    <path d="M-11.55 40.1 Q-13.1 38.35 -13.15 35.95 L-13.15 34.85 Q-0.2 35.9 12.55 34.3 L11.55 40.3 10.25 36.55 9.55 41.0 8.1 41.15 8.7 35.7 6.5 35.95 6.65 41.25 4.75 41.4 4.4 36.45 -0.3 36.35 -0.8 41.8 -2.5 41.7 -2.3 37.8 Q-3.4 35.95 -5.8 36.45 L-5.65 41.4 -7.5 41.15 -7.75 36.85 -9.35 38.55 -8.6 40.95 -9.95 40.75 -11.05 38.85 Q-11.5 39.05 -11.55 40.1 M-8.25 44.65 L-9.25 42.6 Q-0.25 44.2 8.75 42.65 L7.85 45.2 -8.25 44.65" fill="#e63400" fill-rule="evenodd" stroke="none"/>
  </g>
</svg>
