<?xml version="1.0" encoding="UTF-8" standalone="no"?>
<svg xmlns:xlink="http://www.w3.org/1999/xlink" height="129.1px" width="48.9px" xmlns="http://www.w3.org/2000/svg">
  <g transform="matrix(1.0, 0.0, 0.0, 1.0, 24.3, 67.4)">
    <path d="M15.9 -59.75 L16.8 -60.3 Q16.5 -58.6 14.9 -58.1 3.3 -54.95 -9.0 -56.35 -13.0 -56.4 -16.0 -58.95 -17.4 -60.2 -16.35 -60.35 -14.2 -58.4 -11.35 -58.0 2.65 -55.95 15.9 -59.75 M8.2 -67.4 Q14.25 -67.45 19.45 -64.75 21.7 -63.4 21.55 -60.6 L21.3 -53.55 Q21.25 -45.7 20.65 -37.8 L18.7 -12.4 Q18.5 -10.05 18.75 -7.85 19.75 0.85 22.45 9.05 24.85 16.4 24.6 24.2 24.4 29.2 22.75 34.0 21.75 36.8 18.5 37.2 19.65 41.25 16.15 43.0 L12.35 44.35 Q9.1 45.4 6.85 48.05 6.25 48.7 6.2 49.55 5.95 55.1 6.1 60.75 -0.6 63.05 -6.8 59.7 L-6.8 51.55 Q-6.85 48.35 -9.3 46.0 L-11.1 44.7 -16.4 42.1 Q-18.15 41.15 -18.9 39.3 L-18.7 36.55 Q-22.65 34.95 -23.4 30.9 -25.5 19.25 -22.7 7.9 -21.8 4.3 -21.3 0.65 -18.85 -17.4 -20.4 -35.7 -21.1 -44.15 -21.4 -52.7 -21.55 -57.8 -19.3 -62.4 -18.95 -63.15 -18.2 -63.5 -11.15 -67.1 -3.15 -67.3 L8.2 -67.4 M21.1 14.45 Q14.35 -5.3 16.95 -26.2 19.15 -44.0 18.45 -61.9 7.85 -65.0 -3.3 -64.4 -14.9 -63.55 -16.95 -62.55 -18.7 -61.7 -18.65 -59.55 -18.1 -37.7 -16.95 -15.8 -17.0 -12.05 -17.3 -8.25 -18.15 2.6 -20.45 13.1 -22.4 21.95 -20.45 30.85 L-20.25 32.45 Q-12.75 37.15 -3.85 36.7 5.5 37.6 14.6 35.6 18.25 34.7 20.75 32.3 L21.25 31.45 Q23.2 22.85 21.1 14.45 M-16.65 37.45 L-16.75 38.8 Q-12.75 42.5 -7.0 42.3 2.25 43.2 11.5 41.8 15.65 41.45 16.2 37.8 -0.25 41.05 -16.65 37.45 M-4.05 58.95 L-0.3 59.8 Q1.95 59.95 3.8 58.7 L3.75 51.5 Q3.7 47.55 6.4 44.75 L-6.9 44.55 Q-2.75 51.1 -4.05 58.95" fill="#000000" fill-rule="evenodd" stroke="none"/>
    <path d="M15.9 -59.75 L15.7 -60.45 Q12.8 -62.1 9.1 -62.15 L-11.1 -62.6 Q-14.4 -62.7 -16.35 -60.35 -17.4 -60.2 -16.0 -58.95 -13.0 -56.4 -9.0 -56.35 3.3 -54.95 14.9 -58.1 16.5 -58.6 16.8 -60.3 L15.9 -59.75 M-16.95 -15.8 Q-18.1 -37.7 -18.65 -59.55 -18.7 -61.7 -16.95 -62.55 -14.9 -63.55 -3.3 -64.4 7.85 -65.0 18.45 -61.9 19.15 -44.0 16.95 -26.2 14.35 -5.3 21.1 14.45 19.45 21.4 15.35 27.35 12.4 31.65 7.35 33.05 L-3.85 36.7 Q-12.75 37.15 -20.25 32.45 L-20.45 30.85 Q-19.25 25.95 -19.1 20.85 -18.9 11.95 -14.15 4.15 -12.0 0.6 -10.35 -3.15 -13.0 -6.05 -15.0 -9.7 -16.6 -12.5 -16.95 -15.8" fill="#ff0000" fill-rule="evenodd" stroke="none"/>
    <path d="M-16.35 -60.35 Q-14.4 -62.7 -11.1 -62.6 L9.1 -62.15 Q12.8 -62.1 15.7 -60.45 L15.9 -59.75 Q2.65 -55.95 -11.35 -58.0 -14.2 -58.4 -16.35 -60.35 M21.1 14.45 Q23.2 22.85 21.25 31.45 L20.75 32.3 Q18.25 34.7 14.6 35.6 5.5 37.6 -3.85 36.7 L7.35 33.05 Q12.4 31.65 15.35 27.35 19.45 21.4 21.1 14.45 M-4.05 58.95 Q-2.75 51.1 -6.9 44.55 L6.4 44.75 Q3.7 47.55 3.75 51.5 L3.8 58.7 Q1.95 59.95 -0.3 59.8 L-4.05 58.95" fill="#cc0000" fill-rule="evenodd" stroke="none"/>
    <path d="M-20.45 30.85 Q-22.4 21.95 -20.45 13.1 -18.15 2.6 -17.3 -8.25 -17.0 -12.05 -16.95 -15.8 -16.6 -12.5 -15.0 -9.7 -13.0 -6.05 -10.35 -3.15 -12.0 0.6 -14.15 4.15 -18.9 11.95 -19.1 20.85 -19.25 25.95 -20.45 30.85" fill="#fe6767" fill-rule="evenodd" stroke="none"/>
    <path d="M-16.65 37.45 Q-0.25 41.05 16.2 37.8 15.65 41.45 11.5 41.8 2.25 43.2 -7.0 42.3 -12.75 42.5 -16.75 38.8 L-16.65 37.45" fill="#990000" fill-rule="evenodd" stroke="none"/>
  </g>
</svg>
