<?xml version="1.0" encoding="UTF-8" standalone="no"?>
<svg xmlns:xlink="http://www.w3.org/1999/xlink" height="51.7px" width="33.1px" xmlns="http://www.w3.org/2000/svg">
  <g transform="matrix(1.0, 0.0, 0.0, 1.0, 17.3, 19.5)">
    <path d="M4.0 -0.2 Q1.2 4.95 1.8 10.95 1.95 12.7 3.8 12.95 8.45 12.4 9.6 7.8 9.8 9.8 11.35 10.75 13.0 11.8 13.45 13.65 14.45 18.0 15.75 22.3 13.55 28.15 7.9 30.75 L6.8 31.15 Q8.35 30.25 9.5 28.95 11.45 26.7 11.7 24.6 L9.95 15.15 10.35 14.55 Q7.95 17.1 9.7 20.75 L8.95 21.65 Q7.9 22.7 6.5 22.3 6.4 21.2 6.55 20.2 6.95 17.6 5.3 15.6 L3.3 14.9 3.3 15.0 Q5.0 16.7 4.6 19.15 3.25 24.0 -1.75 23.95 L-2.5 23.45 -3.05 22.8 1.1 17.25 0.8 16.6 -3.6 19.85 -0.65 16.0 Q-0.65 14.35 -1.35 13.2 -2.05 12.0 -3.05 12.0 L-3.75 12.0 -3.05 12.15 -2.25 12.75 -1.8 15.1 -5.65 21.0 -7.05 20.1 Q-6.85 18.85 -6.3 17.8 -2.7 10.85 -4.25 3.15 -3.75 6.8 -5.6 10.0 L-7.45 11.15 -6.3 8.1 -6.0 6.0 Q-5.9 4.1 -7.0 2.75 L-7.8 1.65 Q-6.7 4.95 -8.9 7.65 L-9.9 4.95 -10.35 4.8 -10.1 7.05 -10.5 6.6 Q-9.85 13.45 -14.25 18.9 L-14.55 16.05 Q-16.25 21.65 -14.6 27.2 -17.45 23.35 -17.3 18.55 L-17.3 16.95 Q-15.05 11.95 -14.0 6.2 L-13.55 4.95 Q-10.7 0.8 -9.25 -3.9 L-8.35 -2.95 Q-7.45 -2.0 -6.3 -1.5 -5.2 -1.0 -3.7 -5.65 -2.4 -9.9 -2.35 -12.65 L-1.55 -2.6 Q-1.45 -1.35 -0.3 -0.3 L4.0 -0.2" fill="#ffff00" fill-rule="evenodd" stroke="none"/>
    <path d="M6.8 31.15 Q-2.85 33.85 -11.8 29.45 -12.2 29.25 -12.55 29.0 -13.25 27.55 -13.2 25.85 -12.95 19.9 -9.9 14.7 -10.25 18.6 -8.3 21.8 -7.2 23.6 -5.3 22.85 -5.5 25.7 -3.1 26.35 0.8 27.15 3.1 23.95 2.9 26.05 5.05 26.45 9.3 26.9 10.1 23.05 L10.3 22.25 11.7 24.6 Q11.45 26.7 9.5 28.95 8.35 30.25 6.8 31.15 M-6.3 8.1 L-8.5 9.75 Q-7.75 7.45 -7.45 5.25 -7.3 4.2 -6.5 4.45 L-6.0 6.0 -6.3 8.1 M-1.8 15.1 L-2.25 12.75 -3.05 12.15 -3.05 12.0 Q-2.05 12.0 -1.35 13.2 -0.65 14.35 -0.65 16.0 -1.8 16.0 -1.8 15.1 M4.6 19.15 Q5.0 16.7 3.3 15.0 L3.3 14.9 5.3 15.6 Q6.7 17.65 5.75 19.95 4.95 19.95 4.6 19.15" fill="#ffffff" fill-rule="evenodd" stroke="none"/>
    <path d="M-12.55 29.0 L-14.6 27.2 Q-16.25 21.65 -14.55 16.05 L-14.25 18.9 Q-9.85 13.45 -10.5 6.6 L-10.1 7.05 -10.35 4.8 -9.9 4.95 -8.9 7.65 Q-6.7 4.95 -7.8 1.65 L-7.0 2.75 Q-5.9 4.1 -6.0 6.0 L-6.5 4.45 Q-7.3 4.2 -7.45 5.25 -7.75 7.45 -8.5 9.75 L-6.3 8.1 -7.45 11.15 -5.6 10.0 Q-3.75 6.8 -4.25 3.15 -2.7 10.85 -6.3 17.8 -6.85 18.85 -7.05 20.1 L-5.65 21.0 -1.8 15.1 Q-1.8 16.0 -0.65 16.0 L-3.6 19.85 0.8 16.6 1.1 17.25 -3.05 22.8 -2.5 23.45 -1.75 23.95 Q3.25 24.0 4.6 19.15 4.95 19.95 5.75 19.95 6.7 17.65 5.3 15.6 6.95 17.6 6.55 20.2 6.4 21.2 6.5 22.3 7.9 22.7 8.95 21.65 L9.7 20.75 Q7.95 17.1 10.35 14.55 L9.95 15.15 11.7 24.6 10.3 22.25 10.1 23.05 Q9.3 26.9 5.05 26.45 2.9 26.05 3.1 23.95 0.8 27.15 -3.1 26.35 -5.5 25.7 -5.3 22.85 -7.2 23.6 -8.3 21.8 -10.25 18.6 -9.9 14.7 -12.95 19.9 -13.2 25.85 -13.25 27.55 -12.55 29.0 M-3.05 12.15 L-3.75 12.0 -3.05 12.0 -3.05 12.15" fill="#ffff99" fill-rule="evenodd" stroke="none"/>
    <path d="M-2.35 -12.65 L-3.2 -19.5 Q-1.55 -16.2 -0.75 -11.7 -0.05 -7.8 -0.45 -3.8 -0.65 -1.6 0.95 -0.5 3.25 -0.95 3.75 -3.7 4.35 -6.85 3.45 -10.1 5.85 -5.35 4.0 -0.2 L-0.3 -0.3 Q-1.45 -1.35 -1.55 -2.6 L-2.35 -12.65 M9.6 7.8 Q10.75 3.3 14.95 2.65 L15.8 2.7 14.6 3.1 Q11.85 5.9 12.4 9.5 L13.4 9.65 15.45 6.7 Q13.75 11.1 15.0 15.6 15.9 18.9 15.75 22.3 14.45 18.0 13.45 13.65 13.0 11.8 11.35 10.75 9.8 9.8 9.6 7.8 M-17.3 16.95 Q-16.35 10.3 -13.55 3.95 -10.75 -2.45 -12.3 -9.15 L-9.4 -4.0 -9.45 -4.15 -9.25 -3.95 -9.25 -3.9 Q-10.7 0.8 -13.55 4.95 L-14.0 6.2 Q-15.05 11.95 -17.3 16.95" fill="#ffdd00" fill-rule="evenodd" stroke="none"/>
  </g>
</svg>
