<?xml version="1.0" encoding="UTF-8" standalone="no"?>
<svg xmlns:xlink="http://www.w3.org/1999/xlink" height="24.75px" width="25.5px" xmlns="http://www.w3.org/2000/svg">
  <g transform="matrix(1.0, 0.0, 0.0, 1.0, 13.1, 14.8)">
    <path d="M2.75 -10.35 L5.35 -10.2 5.5 -9.6 5.95 -9.85 6.1 -10.35 Q6.4 -15.75 0.35 -12.95 L-0.05 -12.75 Q-9.35 -7.7 -12.45 3.2 L-11.4 4.65 Q-3.95 10.6 5.55 8.05 9.4 6.7 11.55 3.15 10.1 -1.6 8.5 -3.15 L2.65 -7.8 2.75 -10.35 M7.1 -10.2 Q5.95 -7.25 3.85 -8.6 L4.8 -9.6 3.35 -9.9 Q3.55 -6.95 6.65 -5.35 12.8 -2.15 12.4 4.55 5.1 12.2 -5.5 9.05 -17.75 5.55 -10.2 -4.85 -7.15 -9.0 -3.4 -12.15 2.5 -17.0 7.2 -12.95 L7.35 -11.95 Q7.4 -11.05 7.1 -10.2" fill="#000000" fill-rule="evenodd" stroke="none"/>
    <path d="M5.95 -9.85 L5.3 -12.45 4.4 -12.65 0.25 -11.9 -0.05 -12.75 0.35 -12.95 Q6.4 -15.75 6.1 -10.35 L5.95 -9.85" fill="#552000" fill-rule="evenodd" stroke="none"/>
    <path d="M4.4 -12.65 L5.3 -12.45 5.95 -9.85 5.5 -9.6 5.35 -10.2 2.75 -10.35 3.95 -12.35 4.4 -12.65 M5.55 8.05 Q8.5 -0.2 2.75 -7.45 L2.65 -7.8 8.5 -3.15 Q10.1 -1.6 11.55 3.15 9.4 6.7 5.55 8.05" fill="#430e00" fill-rule="evenodd" stroke="none"/>
    <path d="M4.4 -12.65 L3.95 -12.35 Q1.45 -10.25 0.15 -7.2 L-3.15 0.5 -5.3 5.8 -8.65 5.2 Q-10.05 -0.8 -6.7 -5.6 -5.35 -7.55 -3.6 -9.1 -1.75 -10.6 0.25 -11.9 L4.4 -12.65 M-8.0 3.3 L-5.95 3.75 Q-4.25 -5.3 2.05 -11.75 -0.75 -10.65 -5.05 -6.15 -9.05 -1.95 -8.0 3.3" fill="#7b4626" fill-rule="evenodd" stroke="none"/>
    <path d="M-8.0 3.3 Q-9.05 -1.95 -5.05 -6.15 -0.75 -10.65 2.05 -11.75 -4.25 -5.3 -5.95 3.75 L-8.0 3.3" fill="#f6c1a1" fill-rule="evenodd" stroke="none"/>
    <path d="M2.75 -10.35 L2.65 -7.8 2.75 -7.45 Q8.5 -0.2 5.55 8.05 -3.95 10.6 -11.4 4.65 L-12.45 3.2 Q-9.35 -7.7 -0.05 -12.75 L0.25 -11.9 Q-1.75 -10.6 -3.6 -9.1 -5.35 -7.55 -6.7 -5.6 -10.05 -0.8 -8.65 5.2 L-5.3 5.8 -3.15 0.5 0.15 -7.2 Q1.45 -10.25 3.95 -12.35 L2.75 -10.35" fill="#552000" fill-rule="evenodd" stroke="none"/>
  </g>
</svg>
