<?xml version="1.0" encoding="UTF-8" standalone="no"?>
<svg xmlns:xlink="http://www.w3.org/1999/xlink" height="45.0px" width="75.9px" xmlns="http://www.w3.org/2000/svg">
  <g transform="matrix(1.0, 0.0, 0.0, 1.0, 29.25, 37.85)">
    <path d="M8.7 -19.85 Q8.9 -17.4 7.9 -13.3 6.1 -6.1 10.7 -0.5 12.45 1.65 15.0 2.15 16.25 2.3 16.45 1.2 17.4 -3.65 15.3 -8.55 L16.5 -10.85 Q18.1 -14.85 22.25 -16.35 L21.8 -14.5 21.85 -13.5 Q22.4 -12.7 23.25 -12.45 30.0 -12.25 32.85 -6.5 L30.45 -2.85 30.6 -2.2 31.35 -1.95 27.9 -1.0 28.15 -1.8 Q28.6 -4.35 27.4 -6.9 L29.55 -8.5 Q26.3 -8.25 23.95 -6.2 22.8 -5.25 22.4 -3.9 21.15 0.0 18.3 2.7 21.45 4.65 24.9 2.7 26.85 1.65 29.1 1.05 35.7 1.2 40.4 -3.2 L40.45 -3.65 Q40.9 -7.45 38.1 -10.2 L36.15 -13.75 Q41.95 -12.7 44.6 -7.85 L45.1 -6.7 44.7 -5.5 44.65 -6.55 Q44.5 -8.2 43.15 -8.85 L42.2 -9.45 Q40.7 -6.7 42.65 -3.25 43.25 -2.2 42.6 -1.1 40.45 2.55 36.15 2.6 L39.65 0.15 27.75 5.45 24.55 6.0 -0.65 6.95 Q-8.3 6.25 -15.1 2.8 L-17.15 1.85 -16.9 3.75 Q-22.15 1.15 -24.9 -3.85 -25.4 -4.75 -25.35 -5.85 -25.05 -10.5 -20.7 -12.6 L-24.85 -12.0 -17.3 -17.0 -17.75 -15.7 -17.15 -15.75 -18.6 -14.55 -18.3 -14.1 Q-14.55 -15.4 -11.45 -12.55 L-11.7 -11.45 Q-11.9 -10.75 -12.5 -10.25 -13.15 -9.7 -14.1 -9.9 L-15.75 -11.4 -15.55 -10.95 -16.3 -11.55 Q-15.5 -8.5 -16.35 -5.6 -16.65 -4.45 -16.55 -3.35 -16.1 1.95 -10.7 -0.3 -10.15 -0.55 -10.0 -1.0 -8.3 -5.5 -4.45 -8.4 -6.55 -3.65 -0.95 -2.7 0.7 -2.35 1.0 -3.8 2.3 -10.2 0.6 -16.8 L-0.3 -20.65 1.15 -20.1 Q3.75 -11.9 2.55 -3.25 0.45 -0.45 -2.5 1.4 -5.7 -1.2 -6.8 -5.4 -6.9 -4.15 -7.25 -2.9 -7.9 -0.55 -6.7 1.55 -6.15 2.6 -5.2 3.2 4.2 9.3 14.95 5.3 L15.0 4.85 11.75 2.45 11.55 2.35 Q6.8 -0.75 6.2 -6.55 5.45 -13.65 8.7 -19.85 M-13.95 -28.35 L-14.6 -29.85 -12.9 -34.85 -12.25 -32.15 -11.0 -33.65 Q-8.35 -30.0 -10.55 -26.35 L-11.45 -24.85 -12.35 -24.6 -13.95 -28.35 M-23.0 -5.0 Q-22.35 -1.55 -20.45 -1.55 -18.75 -1.55 -18.75 -3.15 -18.75 -3.6 -19.5 -5.35 -20.25 -7.05 -20.25 -8.05 -20.25 -8.55 -19.15 -9.55 -23.0 -8.85 -23.0 -5.0 M-27.2 -11.25 Q-26.85 -11.6 -27.15 -11.2 L-27.3 -11.0 -27.2 -11.25" fill="#ff9900" fill-rule="evenodd" stroke="none"/>
    <path d="M8.7 -19.85 Q5.45 -13.65 6.2 -6.55 6.8 -0.75 11.55 2.35 L11.65 2.45 11.75 2.45 15.0 4.85 14.95 5.3 Q4.2 9.3 -5.2 3.2 -6.15 2.6 -6.7 1.55 -7.9 -0.55 -7.25 -2.9 -6.9 -4.15 -6.8 -5.4 -5.7 -1.2 -2.5 1.4 0.45 -0.45 2.55 -3.25 3.75 -11.9 1.15 -20.1 L2.6 -19.95 Q4.55 -11.45 3.7 -2.85 3.3 0.8 0.15 2.9 -0.55 3.4 -1.25 3.1 3.1 5.25 7.8 4.3 L9.35 4.0 Q6.15 2.9 5.75 -0.5 5.2 -5.15 5.45 -9.9 L6.1 -19.55 5.45 -19.65 8.7 -19.85 M38.1 -10.2 Q40.9 -7.45 40.45 -3.65 L40.4 -3.2 Q35.7 1.2 29.1 1.05 26.85 1.65 24.9 2.7 21.45 4.65 18.3 2.7 21.15 0.0 22.4 -3.9 22.8 -5.25 23.95 -6.2 26.3 -8.25 29.55 -8.5 L27.4 -6.9 Q28.6 -4.35 28.15 -1.8 L27.9 -1.0 31.35 -1.95 Q34.55 -0.7 37.05 -2.9 40.65 -6.2 38.1 -10.2 M26.1 -3.95 Q27.0 -5.15 26.15 -5.8 L25.95 -5.8 Q23.05 -3.95 21.55 -0.85 21.65 0.3 22.75 0.75 25.85 0.5 25.8 -2.85 25.8 -3.5 26.1 -3.95 M-23.0 -5.0 Q-23.0 -8.85 -19.15 -9.55 -20.25 -8.55 -20.25 -8.05 -20.25 -7.05 -19.5 -5.35 -18.75 -3.6 -18.75 -3.15 -18.75 -1.55 -20.45 -1.55 -22.35 -1.55 -23.0 -5.0 M-22.0 -5.75 Q-21.8 -3.05 -20.5 -3.05 -19.65 -3.05 -19.65 -4.0 -19.65 -4.45 -20.0 -5.65 -20.45 -7.25 -21.0 -7.25 -22.0 -7.25 -22.0 -5.75" fill="#ffff00" fill-rule="evenodd" stroke="none"/>
    <path d="M2.6 -19.95 L5.45 -19.65 6.1 -19.55 5.45 -9.9 Q5.2 -5.15 5.75 -0.5 6.15 2.9 9.35 4.0 L7.8 4.3 Q3.1 5.25 -1.25 3.1 -0.55 3.4 0.15 2.9 3.3 0.8 3.7 -2.85 4.55 -11.45 2.6 -19.95 M26.1 -3.95 Q25.8 -3.5 25.8 -2.85 25.85 0.5 22.75 0.75 21.65 0.3 21.55 -0.85 23.05 -3.95 25.95 -5.8 L26.15 -5.8 Q27.0 -5.15 26.1 -3.95 M-22.0 -5.75 Q-22.0 -7.25 -21.0 -7.25 -20.45 -7.25 -20.0 -5.65 -19.65 -4.45 -19.65 -4.0 -19.65 -3.05 -20.5 -3.05 -21.8 -3.05 -22.0 -5.75" fill="#ffffff" fill-rule="evenodd" stroke="none"/>
    <path d="M-4.45 -8.4 Q-8.3 -5.5 -10.0 -1.0 -10.15 -0.55 -10.7 -0.3 -16.1 1.95 -16.55 -3.35 -16.65 -4.45 -16.35 -5.6 -15.5 -8.5 -16.3 -11.55 L-15.55 -10.95 -15.75 -11.4 -14.1 -9.9 Q-13.15 -9.7 -12.5 -10.25 -11.9 -10.75 -11.7 -11.45 L-11.45 -12.55 Q-14.55 -15.4 -18.3 -14.1 L-18.6 -14.55 -17.15 -15.75 Q-14.55 -15.85 -12.45 -14.6 -10.35 -13.4 -10.7 -11.05 -10.85 -10.2 -11.45 -9.55 -14.35 -6.35 -15.35 -2.25 L-13.8 -0.5 -10.55 -1.15 Q-9.65 -6.2 -5.8 -9.4 -4.15 -10.7 -2.35 -10.45 L-4.45 -8.4 M-17.3 -17.0 L-24.85 -12.0 -20.7 -12.6 Q-25.05 -10.5 -25.35 -5.85 -25.4 -4.75 -24.9 -3.85 -22.15 1.15 -16.9 3.75 L-17.15 1.85 -15.1 2.8 Q-8.3 6.25 -0.65 6.95 L-16.5 6.35 Q-23.15 5.6 -27.5 0.55 -29.0 -1.15 -29.2 -3.3 -29.55 -7.45 -27.3 -11.0 L-27.15 -11.2 Q-26.85 -11.6 -27.2 -11.25 -23.4 -17.7 -16.5 -19.9 L-15.35 -20.0 -17.3 -17.0 M27.75 5.45 L39.65 0.15 36.15 2.6 Q40.45 2.55 42.6 -1.1 43.25 -2.2 42.65 -3.25 40.7 -6.7 42.2 -9.45 L43.15 -8.85 Q44.5 -8.2 44.65 -6.55 L44.7 -5.5 45.1 -6.7 44.6 -7.85 Q41.95 -12.7 36.15 -13.75 L35.4 -15.25 35.9 -15.9 37.9 -14.05 Q36.8 -19.55 40.7 -23.65 39.1 -18.15 43.05 -13.8 48.55 -7.8 45.65 -0.6 45.0 1.0 43.3 1.85 35.8 5.25 27.75 5.45 M32.85 -6.5 Q30.0 -12.25 23.25 -12.45 22.4 -12.7 21.85 -13.5 L21.8 -14.5 Q22.25 -13.7 23.45 -13.55 L28.65 -12.45 Q33.55 -11.25 32.85 -6.5 M22.25 -16.35 Q18.1 -14.85 16.5 -10.85 L15.3 -8.55 Q15.15 -14.15 19.55 -17.4 21.65 -18.9 24.1 -18.35 L22.25 -16.35 M-11.0 -33.65 L-12.25 -32.15 -12.9 -34.85 -14.6 -29.85 -13.95 -28.35 Q-17.7 -31.95 -14.5 -35.75 -12.6 -38.1 -9.9 -37.85 -11.55 -36.05 -11.0 -33.65" fill="#ff3300" fill-rule="evenodd" stroke="none"/>
  </g>
</svg>
