<?xml version="1.0" encoding="UTF-8" standalone="no"?>
<svg xmlns:xlink="http://www.w3.org/1999/xlink" height="46.4px" width="74.75px" xmlns="http://www.w3.org/2000/svg">
  <g transform="matrix(1.0, 0.0, 0.0, 1.0, 27.15, 39.4)">
    <path d="M7.2 -21.55 L8.4 -21.5 Q7.35 -11.75 7.7 -1.7 L7.75 -1.15 6.35 -1.15 Q5.35 -2.1 5.45 -3.65 6.15 -12.6 7.2 -21.55 M14.5 -0.1 Q15.85 1.75 18.3 1.8 L19.1 1.65 19.85 -0.1 Q19.05 -5.65 15.55 -10.25 17.2 -15.25 22.0 -17.5 L22.45 -17.2 Q23.25 -16.45 23.15 -15.45 L22.2 -13.45 23.2 -13.15 23.4 -12.6 Q25.05 -9.8 27.75 -11.35 29.45 -12.35 30.0 -14.4 L30.2 -14.75 Q31.4 -13.2 31.55 -11.45 L31.6 -10.8 31.45 -11.15 30.9 -11.25 30.5 -11.05 Q32.8 -8.1 31.6 -4.8 L27.75 0.75 29.9 2.7 31.2 2.5 31.6 1.5 31.4 0.95 33.45 2.2 33.95 2.1 34.05 2.5 34.5 2.8 34.95 2.8 35.1 2.3 Q34.9 2.75 35.95 1.85 37.05 1.0 38.65 1.25 L38.8 1.8 Q35.05 5.1 30.05 5.1 L25.15 6.1 -4.2 7.0 Q-8.85 6.0 -12.25 3.15 L-12.5 2.8 -11.55 0.8 -13.95 2.0 -18.75 -2.65 -18.6 -1.3 -18.85 -1.8 -18.6 0.65 Q-23.75 -1.8 -24.4 -7.6 -24.7 -10.4 -22.85 -12.25 L-20.6 -14.25 -24.0 -13.2 Q-20.0 -16.55 -17.35 -21.0 L-16.55 -20.4 Q-13.7 -18.0 -14.35 -14.95 L-15.25 -15.4 -15.25 -8.1 Q-15.3 -7.2 -14.7 -6.45 -12.65 -3.55 -9.65 -5.45 -8.45 -8.5 -6.05 -10.65 L-3.35 -12.85 -4.7 -9.15 Q-5.1 -7.3 -4.5 -5.55 -3.35 -2.05 0.5 -2.85 2.2 -11.85 0.1 -20.8 L0.35 -21.15 1.5 -21.2 Q4.45 -10.4 0.8 0.0 L0.4 0.25 -3.95 0.15 Q-6.15 -0.55 -7.5 -2.5 L-7.1 -5.25 Q-9.95 -1.0 -6.3 2.7 -4.65 4.4 -2.5 4.85 8.5 7.45 19.5 4.5 L18.2 4.2 Q13.7 4.7 9.45 2.9 10.75 2.25 10.3 0.75 L10.1 0.25 12.35 -0.3 13.2 0.05 Q13.7 1.25 12.95 2.3 14.3 2.0 14.5 0.05 L13.95 -0.3 14.5 -0.1 M45.6 -4.7 L45.2 -5.65 Q46.1 -7.65 44.4 -9.5 42.2 -12.0 38.75 -12.2 36.25 -13.75 36.15 -16.0 L37.95 -17.85 38.95 -14.25 Q38.7 -16.55 39.55 -18.75 44.4 -15.3 47.0 -10.0 L46.6 -10.7 42.95 -12.35 44.1 -11.15 Q47.0 -8.2 45.6 -4.7 M21.55 -2.8 Q21.9 -0.6 21.45 1.65 L20.9 3.9 Q26.7 1.3 28.2 -5.0 L29.35 -8.9 23.15 -4.65 23.7 -8.15 Q21.05 -6.2 21.55 -2.8 M44.95 -1.75 Q44.35 1.65 40.95 1.7 L43.35 -0.1 41.35 0.35 42.2 -0.95 42.75 -1.2 44.95 -1.75 M-15.45 -33.95 L-14.4 -36.6 -13.75 -35.75 -12.7 -36.8 Q-9.4 -35.45 -10.95 -32.55 -11.5 -31.4 -12.8 -30.65 L-15.45 -33.95 M-18.75 -11.7 Q-21.65 -9.25 -20.8 -5.65 L-19.15 -5.3 -18.85 -5.65 Q-18.15 -7.65 -19.2 -9.65 L-18.75 -11.7" fill="#ff9900" fill-rule="evenodd" stroke="none"/>
    <path d="M3.2 -21.3 L5.65 -21.45 Q5.8 -16.55 5.25 -11.75 4.55 -5.55 4.2 0.55 L6.65 0.6 6.75 2.25 6.3 2.75 6.7 3.0 7.75 3.85 Q9.15 4.8 11.3 4.85 L-0.65 4.5 Q-3.7 3.45 -5.1 1.1 L-0.05 2.85 3.3 1.3 Q4.25 -5.45 3.65 -12.3 3.25 -17.1 3.2 -21.3 M24.15 -2.35 Q25.25 -4.0 26.15 -4.1 25.9 -1.05 23.85 0.95 L22.95 0.5 22.85 0.0 24.15 -2.35 M-19.5 -7.35 L-18.75 -6.6 Q-18.75 -5.6 -19.6 -5.6 -20.7 -5.6 -20.55 -6.4 -20.55 -7.35 -19.5 -7.35" fill="#ffffff" fill-rule="evenodd" stroke="none"/>
    <path d="M7.75 -1.15 L11.8 -1.05 Q12.8 -1.5 13.7 -0.8 L14.5 -0.1 13.95 -0.3 14.5 0.05 Q14.3 2.0 12.95 2.3 13.7 1.25 13.2 0.05 L12.35 -0.3 10.1 0.25 10.3 0.75 Q10.75 2.25 9.45 2.9 L8.3 2.8 9.3 0.95 6.35 -1.15 7.75 -1.15 M15.55 -10.25 Q14.6 -15.4 19.2 -17.9 22.35 -19.7 22.1 -23.2 26.4 -18.75 24.05 -12.7 24.45 -11.8 25.35 -11.3 25.95 -10.85 26.7 -10.95 L27.75 -11.35 Q25.05 -9.8 23.4 -12.6 L23.2 -13.15 22.2 -13.45 23.15 -15.45 Q23.25 -16.45 22.45 -17.2 L22.0 -17.5 Q17.2 -15.25 15.55 -10.25 M30.2 -14.75 L31.55 -15.1 Q33.3 -13.4 33.35 -10.7 33.4 -8.55 32.9 -6.6 32.6 -5.5 31.6 -4.8 32.8 -8.1 30.5 -11.05 L30.9 -11.25 31.45 -11.15 31.6 -10.8 31.55 -11.45 Q31.4 -13.2 30.2 -14.75 M31.4 0.95 Q31.2 0.45 31.3 0.1 32.3 0.0 33.05 0.85 L33.95 2.1 33.45 2.2 31.4 0.95 M35.1 2.3 Q37.05 -0.75 40.55 -1.05 44.25 -0.95 45.75 -4.25 L45.6 -4.7 Q47.0 -8.2 44.1 -11.15 L42.95 -12.35 46.6 -10.7 47.0 -10.0 Q44.4 -15.3 39.55 -18.75 38.7 -16.55 38.95 -14.25 L37.95 -17.85 36.15 -16.0 37.2 -18.7 Q39.15 -22.8 43.55 -24.3 42.8 -23.0 42.35 -21.6 41.95 -20.4 42.45 -19.7 45.4 -15.1 47.0 -10.0 49.0 -3.2 44.05 1.65 42.85 2.85 41.15 3.45 33.35 6.05 25.15 6.1 L30.05 5.1 Q35.05 5.1 38.8 1.8 L38.65 1.25 Q37.05 1.0 35.95 1.85 34.9 2.75 35.1 2.3 M-4.2 7.0 Q-9.0 7.1 -13.15 5.85 L-13.65 5.25 Q-14.35 2.65 -16.6 1.55 -18.0 2.85 -19.55 3.15 L-21.3 2.7 Q-23.3 1.65 -24.7 -0.15 -28.4 -4.95 -26.5 -10.55 -25.4 -13.75 -22.85 -16.2 -19.05 -19.75 -19.9 -24.65 -18.45 -24.45 -16.4 -22.55 -13.75 -20.2 -13.5 -16.75 -13.2 -12.5 -14.0 -8.45 -14.4 -6.5 -12.45 -6.1 -11.4 -5.8 -10.9 -6.55 -7.9 -10.6 -4.1 -13.7 -3.25 -14.35 -2.05 -14.65 L-3.35 -12.85 -6.05 -10.65 Q-8.45 -8.5 -9.65 -5.45 -12.65 -3.55 -14.7 -6.45 -15.3 -7.2 -15.25 -8.1 L-15.25 -15.4 -14.35 -14.95 Q-13.7 -18.0 -16.55 -20.4 L-17.35 -21.0 Q-20.0 -16.55 -24.0 -13.2 L-20.6 -14.25 -22.85 -12.25 Q-24.7 -10.4 -24.4 -7.6 -23.75 -1.8 -18.6 0.65 L-18.85 -1.8 -18.6 -1.3 -18.75 -2.65 -13.95 2.0 -11.55 0.8 -12.5 2.8 -12.25 3.15 Q-8.85 6.0 -4.2 7.0 M44.95 -1.75 L42.75 -1.2 42.2 -0.95 41.35 0.35 43.35 -0.1 40.95 1.7 Q44.35 1.65 44.95 -1.75 M-15.45 -33.95 Q-16.2 -35.05 -16.05 -36.25 -15.7 -38.95 -13.25 -39.4 L-13.65 -37.95 -12.7 -36.8 -13.75 -35.75 -14.4 -36.6 -15.45 -33.95" fill="#ff3300" fill-rule="evenodd" stroke="none"/>
    <path d="M45.2 -5.65 L44.8 -6.25 Q42.3 -9.8 38.75 -12.2 42.2 -12.0 44.4 -9.5 46.1 -7.65 45.2 -5.65 M1.5 -21.2 L3.2 -21.3 Q3.25 -17.1 3.65 -12.3 4.25 -5.45 3.3 1.3 L-0.05 2.85 -5.1 1.1 Q-3.7 3.45 -0.65 4.5 L11.3 4.85 Q9.15 4.8 7.75 3.85 L6.7 3.0 6.3 2.75 6.75 2.25 6.65 0.6 4.2 0.55 Q4.55 -5.55 5.25 -11.75 5.8 -16.55 5.65 -21.45 L7.2 -21.55 Q6.15 -12.6 5.45 -3.65 5.35 -2.1 6.35 -1.15 L9.3 0.95 8.3 2.8 9.45 2.9 Q13.7 4.7 18.2 4.2 L19.5 4.5 Q8.5 7.45 -2.5 4.85 -4.65 4.4 -6.3 2.7 -9.95 -1.0 -7.1 -5.25 L-7.5 -2.5 Q-6.15 -0.55 -3.95 0.15 L0.4 0.25 0.8 0.0 Q4.45 -10.4 1.5 -21.2 M24.15 -2.35 L22.85 0.0 22.95 0.5 23.85 0.95 Q25.9 -1.05 26.15 -4.1 25.25 -4.0 24.15 -2.35 M21.55 -2.8 Q21.05 -6.2 23.7 -8.15 L23.15 -4.65 29.35 -8.9 28.2 -5.0 Q26.7 1.3 20.9 3.9 L21.45 1.65 Q21.9 -0.6 21.55 -2.8 M-18.75 -11.7 L-19.2 -9.65 Q-18.15 -7.65 -18.85 -5.65 L-19.15 -5.3 -20.8 -5.65 Q-21.65 -9.25 -18.75 -11.7 M-19.5 -7.35 Q-20.55 -7.35 -20.55 -6.4 -20.7 -5.6 -19.6 -5.6 -18.75 -5.6 -18.75 -6.6 L-19.5 -7.35" fill="#ffff00" fill-rule="evenodd" stroke="none"/>
  </g>
</svg>
