<?xml version="1.0" encoding="UTF-8" standalone="no"?>
<svg xmlns:xlink="http://www.w3.org/1999/xlink" height="34.0px" width="71.65px" xmlns="http://www.w3.org/2000/svg">
  <g transform="matrix(1.0, 0.0, 0.0, 1.0, 24.3, 26.85)">
    <path d="M7.05 -20.55 L7.45 -20.3 8.5 -20.3 Q6.45 -9.85 8.3 0.5 L6.1 1.15 6.75 0.9 Q5.75 -9.9 7.05 -20.55 M17.45 5.9 Q15.45 7.3 12.4 7.05 L4.5 7.15 1.6 6.35 Q-2.15 6.3 -5.15 3.95 L-5.55 4.1 -4.65 5.55 -7.6 4.3 Q-5.95 2.0 -7.05 -0.7 -7.3 -1.35 -7.95 -1.5 -13.1 -1.05 -18.15 -2.25 L-18.05 -1.6 -15.8 -0.85 Q-18.15 -0.3 -20.2 -1.7 -22.5 -3.35 -22.7 -6.3 -23.1 -11.45 -18.25 -12.65 -19.25 -12.75 -19.75 -13.4 -20.5 -14.25 -20.3 -15.45 -19.7 -18.75 -17.85 -21.45 L-18.0 -21.55 -17.3 -21.65 -16.6 -21.15 -16.8 -19.1 -17.6 -18.65 -18.15 -18.8 -16.0 -11.8 Q-15.55 -10.4 -14.05 -10.2 -11.8 -9.6 -9.6 -10.8 -7.6 -11.8 -6.35 -13.65 -5.9 -8.65 -4.05 -4.05 -2.45 -1.75 0.25 -1.7 L0.9 -1.85 Q2.5 -4.5 2.3 -7.5 1.85 -14.05 0.3 -20.35 L2.05 -20.4 1.5 -20.35 Q2.5 -17.65 2.95 -14.7 L3.5 -9.0 Q3.75 -3.6 0.45 0.3 L-1.25 0.1 Q-4.45 -0.4 -6.25 -3.35 -8.45 -6.9 -6.8 -10.4 -7.6 -9.35 -8.75 -8.85 -12.25 -7.55 -15.8 -7.55 L-17.45 -10.0 Q-17.7 -8.2 -19.55 -7.4 -19.1 -3.55 -15.05 -3.5 -12.1 -4.0 -10.2 -6.0 -8.35 -5.25 -7.2 -3.4 -5.2 0.0 -2.35 2.65 L-0.25 3.85 6.5 5.45 Q8.1 5.85 9.15 4.85 L9.35 4.1 Q9.65 2.95 9.1 2.0 10.2 1.95 10.8 2.4 L11.2 2.9 11.25 5.35 12.45 4.25 15.65 5.1 16.7 4.2 17.3 5.85 17.45 5.9 M25.05 -18.9 Q25.95 -13.2 22.6 -8.3 21.85 -7.2 21.6 -5.8 L20.4 -0.1 Q19.9 -5.4 16.45 -9.5 15.0 -11.2 14.75 -13.45 16.5 -16.9 20.25 -18.05 22.4 -18.7 23.3 -20.8 23.8 -19.75 23.6 -18.6 23.35 -16.95 22.6 -15.7 L22.85 -15.6 25.05 -18.9 M21.95 -22.45 L21.95 -22.55 22.05 -22.45 21.95 -22.45 M32.5 -17.55 Q31.7 -13.95 33.2 -10.4 33.6 -9.4 33.5 -8.2 33.3 -5.85 31.6 -3.9 29.15 -1.05 27.2 2.05 L27.35 2.6 28.7 2.1 30.15 0.4 30.7 1.65 31.6 0.8 Q33.0 3.3 35.7 2.65 40.35 1.45 44.2 3.6 32.45 7.65 19.9 6.3 21.0 3.7 23.3 2.0 25.7 0.2 27.25 -2.15 30.3 -6.8 28.35 -12.2 L29.7 -14.85 Q30.5 -16.3 32.5 -17.55 M21.15 -13.5 L20.85 -12.5 20.4 -12.45 20.7 -15.35 Q16.5 -12.25 19.95 -8.35 22.3 -10.0 21.35 -12.85 L21.15 -13.5 M32.0 -9.35 L30.9 -12.5 Q30.1 -9.75 30.8 -6.75 L32.0 -9.35 M43.4 -22.35 Q45.7 -20.0 47.05 -17.05 47.45 -16.1 47.35 -15.0 46.9 -11.35 44.4 -8.35 44.0 -11.7 41.05 -13.5 38.55 -14.95 37.8 -17.55 L40.65 -21.5 Q40.65 -20.6 41.0 -19.85 41.35 -19.15 41.95 -19.25 L41.9 -19.4 Q41.65 -21.4 43.4 -22.35 M40.5 -17.35 L40.2 -16.85 45.0 -12.65 45.3 -13.9 44.6 -14.95 Q43.0 -16.9 40.5 -17.35" fill="#ff9900" fill-rule="evenodd" stroke="none"/>
    <path d="M8.3 0.5 Q11.2 0.9 12.55 3.45 L15.0 3.95 15.7 3.55 14.2 1.1 15.0 1.4 Q17.95 2.8 17.45 5.9 L17.3 5.85 16.7 4.2 15.65 5.1 12.45 4.25 11.25 5.35 11.2 2.9 10.8 2.4 Q10.2 1.95 9.1 2.0 L8.05 2.4 5.35 1.65 4.3 1.35 5.55 1.2 6.1 1.15 8.3 0.5 M4.5 7.15 L-12.65 6.2 -12.65 5.55 -11.25 4.8 Q-8.9 3.5 -7.45 1.35 -7.6 -1.0 -10.15 -0.7 L-19.25 0.8 Q-21.5 0.3 -22.95 -1.4 -23.65 -2.2 -23.85 -3.2 -25.4 -10.95 -21.4 -17.75 -18.75 -22.25 -21.6 -26.65 -17.65 -24.85 -16.6 -21.15 -16.85 -15.95 -13.7 -11.9 L-13.1 -11.2 Q-8.4 -14.75 -3.0 -17.35 -6.45 -10.95 -4.05 -4.05 -5.9 -8.65 -6.35 -13.65 -7.6 -11.8 -9.6 -10.8 -11.8 -9.6 -14.05 -10.2 -15.55 -10.4 -16.0 -11.8 L-18.15 -18.8 -17.6 -18.65 -16.8 -19.1 -16.6 -21.15 -17.3 -21.65 -18.0 -21.55 -17.85 -21.45 Q-19.7 -18.75 -20.3 -15.45 -20.5 -14.25 -19.75 -13.4 -19.25 -12.75 -18.25 -12.65 -23.1 -11.45 -22.7 -6.3 -22.5 -3.35 -20.2 -1.7 -18.15 -0.3 -15.8 -0.85 L-18.05 -1.6 -18.15 -2.25 Q-13.1 -1.05 -7.95 -1.5 -7.3 -1.35 -7.05 -0.7 -5.95 2.0 -7.6 4.3 L-4.65 5.55 -5.55 4.1 -5.15 3.95 Q-2.15 6.3 1.6 6.35 L4.5 7.15 M14.75 -13.45 Q14.95 -19.2 20.55 -20.95 21.6 -21.25 21.95 -22.45 L22.05 -22.45 21.95 -22.55 19.95 -24.6 Q24.4 -23.55 25.05 -18.9 L22.85 -15.6 22.6 -15.7 Q23.35 -16.95 23.6 -18.6 23.8 -19.75 23.3 -20.8 22.4 -18.7 20.25 -18.05 16.5 -16.9 14.75 -13.45 M28.35 -12.2 Q27.15 -15.4 29.7 -17.85 31.5 -19.6 33.65 -20.4 L32.5 -17.55 Q30.5 -16.3 29.7 -14.85 L28.35 -12.2 M30.15 0.4 Q31.0 -1.65 33.2 -2.45 L32.1 0.4 32.25 1.0 36.0 1.25 41.6 0.85 Q44.45 0.85 45.0 3.25 L44.2 3.6 Q40.35 1.45 35.7 2.65 33.0 3.3 31.6 0.8 L30.7 1.65 30.15 0.4 M37.8 -17.55 Q37.15 -23.5 42.85 -25.95 L44.8 -26.85 Q43.35 -24.9 43.4 -22.35 41.65 -21.4 41.9 -19.4 L41.95 -19.25 Q41.35 -19.15 41.0 -19.85 40.65 -20.6 40.65 -21.5 L37.8 -17.55" fill="#ff3300" fill-rule="evenodd" stroke="none"/>
    <path d="M5.95 -20.5 L7.05 -20.55 Q5.75 -9.9 6.75 0.9 L6.1 1.15 5.55 1.2 Q4.85 -7.25 5.5 -15.8 5.65 -18.15 5.95 -20.5 M2.05 -20.4 L2.8 -20.4 Q3.2 -18.6 3.55 -10.95 3.9 -3.35 1.3 2.2 L1.65 3.05 2.35 3.45 Q4.35 4.65 6.1 3.95 L5.35 1.65 8.05 2.4 9.1 2.0 Q9.65 2.95 9.35 4.1 L9.15 4.85 Q8.1 5.85 6.5 5.45 L-0.25 3.85 -2.35 2.65 Q-5.2 0.0 -7.2 -3.4 -8.35 -5.25 -10.2 -6.0 -12.1 -4.0 -15.05 -3.5 -19.1 -3.55 -19.55 -7.4 -17.7 -8.2 -17.45 -10.0 L-15.8 -7.55 Q-12.25 -7.55 -8.75 -8.85 -7.6 -9.35 -6.8 -10.4 -8.45 -6.9 -6.25 -3.35 -4.45 -0.4 -1.25 0.1 L0.45 0.3 Q3.75 -3.6 3.5 -9.0 L2.95 -14.7 Q2.5 -17.65 1.5 -20.35 L2.05 -20.4 M19.05 -10.35 Q19.05 -9.35 19.85 -9.35 20.55 -9.35 20.55 -10.0 20.65 -11.3 19.75 -11.3 19.05 -11.3 19.05 -10.35 M32.0 -9.35 L30.8 -6.75 Q30.1 -9.75 30.9 -12.5 L32.0 -9.35 M21.15 -13.5 L21.35 -12.85 Q22.3 -10.0 19.95 -8.35 16.5 -12.25 20.7 -15.35 L20.4 -12.45 20.85 -12.5 21.15 -13.5 M40.5 -17.35 Q43.0 -16.9 44.6 -14.95 L45.3 -13.9 45.0 -12.65 40.2 -16.85 40.5 -17.35 M-17.5 -5.4 Q-14.0 -3.6 -12.0 -6.55 L-17.5 -6.7 -17.5 -5.4" fill="#ffff00" fill-rule="evenodd" stroke="none"/>
    <path d="M2.8 -20.4 L5.95 -20.5 Q5.65 -18.15 5.5 -15.8 4.85 -7.25 5.55 1.2 L4.3 1.35 5.35 1.65 6.1 3.95 Q4.35 4.65 2.35 3.45 L1.65 3.05 1.3 2.2 Q3.9 -3.35 3.55 -10.95 3.2 -18.6 2.8 -20.4 M19.05 -10.35 Q19.05 -11.3 19.75 -11.3 20.65 -11.3 20.55 -10.0 20.55 -9.35 19.85 -9.35 19.05 -9.35 19.05 -10.35 M-17.5 -5.4 L-17.5 -6.7 -12.0 -6.55 Q-14.0 -3.6 -17.5 -5.4" fill="#ffffff" fill-rule="evenodd" stroke="none"/>
  </g>
</svg>
