<?xml version="1.0" encoding="UTF-8" standalone="no"?>
<svg xmlns:xlink="http://www.w3.org/1999/xlink" height="39.55px" width="68.85px" xmlns="http://www.w3.org/2000/svg">
  <g transform="matrix(1.0, 0.0, 0.0, 1.0, 24.65, 32.25)">
    <path d="M15.75 -13.95 Q15.8 -15.65 17.5 -18.5 18.3 -19.75 21.45 -22.2 L23.45 -24.0 Q24.95 -21.8 24.95 -19.65 L24.55 -18.35 24.9 -18.15 Q25.55 -18.15 26.0 -21.7 27.2 -18.2 25.7 -15.1 24.5 -12.65 22.1 -11.75 17.6 -9.85 15.75 -13.95 M19.3 -13.1 Q20.8 -11.6 21.9 -13.5 22.85 -15.2 22.5 -17.1 L20.85 -15.8 22.7 -19.35 Q18.8 -17.7 19.25 -13.75 L19.3 -13.1 M2.45 -21.4 Q3.75 -10.45 3.1 0.5 L3.0 -0.1 Q-0.25 2.55 -3.9 -0.3 L-1.85 4.0 5.75 5.7 5.3 5.7 10.8 6.05 Q15.25 6.45 16.25 2.45 L15.45 1.4 14.1 0.45 15.0 2.3 13.95 3.6 Q11.15 4.7 8.25 4.05 L7.9 3.75 Q6.4 1.6 6.45 -0.95 6.95 -0.65 7.8 -0.7 8.0 1.05 8.45 2.15 9.1 2.65 9.95 2.65 12.05 2.65 12.05 0.85 12.05 -0.85 10.75 -1.1 12.75 -2.45 15.1 -2.1 L15.9 -1.65 14.6 -1.3 Q16.6 -0.65 17.8 1.05 17.2 3.65 19.5 4.1 L17.25 4.1 Q20.0 6.1 23.05 4.55 24.75 4.7 26.05 5.6 L25.8 6.2 7.1 7.25 -5.9 4.75 -6.05 3.95 Q-5.85 3.25 -6.75 4.25 -7.2 4.8 -7.1 5.45 L-8.1 4.9 -8.45 3.95 -7.25 2.95 Q-5.85 2.2 -5.85 1.1 -5.85 -1.4 -7.95 -2.6 L-7.55 -2.4 Q-11.3 -5.75 -16.4 -5.1 -18.8 -5.45 -20.3 -7.4 L-19.6 -5.75 Q-20.65 -5.4 -22.8 -6.85 -24.2 -7.9 -23.7 -9.65 -22.25 -14.75 -17.1 -15.15 -18.9 -15.9 -20.85 -15.7 -17.15 -18.6 -16.75 -23.25 L-15.5 -23.75 -14.9 -22.8 -14.85 -22.75 -14.85 -22.7 -15.15 -22.3 -16.05 -22.4 -14.15 -17.05 Q-13.85 -15.6 -12.8 -15.6 -11.95 -15.6 -11.2 -16.15 L-10.45 -16.55 Q-8.85 -17.3 -8.1 -19.15 -8.25 -13.4 -5.35 -8.35 L-6.05 -6.8 -5.3 -6.8 -4.9 -7.1 Q-5.1 -6.1 -4.75 -5.2 -3.2 -1.2 0.95 -2.05 2.9 -11.6 0.9 -20.85 L2.45 -21.4 M6.5 -0.95 Q5.4 -9.5 6.9 -17.95 L7.55 -21.15 8.55 -19.9 Q6.7 -10.55 7.75 -1.1 L6.5 -0.95 M31.1 -15.5 L32.1 -18.95 Q36.1 -10.4 29.35 -3.85 L29.95 -4.75 Q32.85 -9.8 31.1 -15.5 M37.4 2.8 Q34.15 6.0 29.85 5.85 L28.55 5.5 Q32.95 5.0 35.35 1.25 L35.65 2.25 36.6 2.0 37.4 2.8 M39.95 -27.85 L40.8 -29.05 Q41.25 -29.55 42.9 -30.45 L43.5 -29.65 Q44.35 -28.55 44.15 -27.15 42.4 -29.4 41.35 -26.95 L41.0 -26.05 Q40.1 -26.9 39.95 -27.85 M-15.6 -13.7 Q-18.5 -12.5 -19.95 -10.05 -16.1 -5.2 -10.15 -7.2 L-7.1 -5.2 -8.6 -8.3 -8.5 -9.05 Q-8.15 -10.45 -8.95 -11.45 L-10.25 -11.55 -9.95 -13.5 -11.55 -10.4 Q-12.1 -10.1 -12.9 -10.1 -14.9 -10.25 -16.1 -11.85 L-16.15 -12.95 -15.6 -13.7" fill="#ff9900" fill-rule="evenodd" stroke="none"/>
    <path d="M15.75 -13.95 Q15.2 -19.45 19.8 -22.6 21.3 -23.65 21.9 -25.45 L20.6 -28.55 Q25.0 -27.35 25.85 -22.8 L26.0 -21.7 Q25.55 -18.15 24.9 -18.15 L24.55 -18.35 24.95 -19.65 Q24.95 -21.8 23.45 -24.0 L21.45 -22.2 Q18.3 -19.75 17.5 -18.5 15.8 -15.65 15.75 -13.95 M6.45 -0.95 L6.5 -0.95 7.75 -1.1 8.2 -1.2 10.25 -2.35 Q11.9 -3.3 13.75 -3.35 15.25 -3.4 16.45 -2.6 19.55 -0.45 19.0 3.45 20.8 3.6 21.1 1.4 L20.7 0.65 20.05 0.35 20.95 -0.1 Q23.4 0.7 22.15 3.3 L22.35 3.7 26.8 4.9 27.1 5.8 25.8 6.2 26.05 5.6 Q24.75 4.7 23.05 4.55 20.0 6.1 17.25 4.1 L19.5 4.1 Q17.2 3.65 17.8 1.05 16.6 -0.65 14.6 -1.3 L15.9 -1.65 15.1 -2.1 Q12.75 -2.45 10.75 -1.1 L7.8 -0.7 Q6.95 -0.65 6.45 -0.95 M7.1 7.25 L-6.65 6.75 Q-9.85 6.9 -11.15 4.65 -9.95 2.8 -8.3 2.4 L-9.2 3.65 -7.25 2.95 -8.45 3.95 -8.1 4.9 -7.1 5.45 Q-7.2 4.8 -6.75 4.25 -5.85 3.25 -6.05 3.95 L-5.9 4.75 7.1 7.25 M-7.95 -2.6 Q-13.45 -4.05 -19.2 -4.15 -23.35 -4.2 -24.35 -7.75 -25.45 -11.8 -22.7 -14.95 -21.25 -16.5 -20.15 -18.1 -16.9 -22.8 -18.6 -28.25 -15.85 -26.1 -14.9 -22.8 L-15.5 -23.75 -16.75 -23.25 Q-17.15 -18.6 -20.85 -15.7 -18.9 -15.9 -17.1 -15.15 -22.25 -14.75 -23.7 -9.65 -24.2 -7.9 -22.8 -6.85 -20.65 -5.4 -19.6 -5.75 L-20.3 -7.4 Q-18.8 -5.45 -16.4 -5.1 -11.3 -5.75 -7.55 -2.4 L-7.95 -2.6 M-14.85 -22.7 L-14.15 -17.05 -16.05 -22.4 -15.15 -22.3 -14.85 -22.7 M-11.2 -16.15 Q-9.0 -18.4 -7.85 -21.4 -7.0 -23.65 -4.7 -23.75 -6.45 -21.8 -6.9 -18.45 -7.05 -17.25 -6.55 -16.3 -4.35 -11.9 -4.9 -7.1 L-5.3 -6.8 -6.05 -6.8 -5.35 -8.35 Q-8.25 -13.4 -8.1 -19.15 -8.85 -17.3 -10.45 -16.55 L-11.2 -16.15 M32.1 -18.95 L31.1 -15.5 Q28.75 -19.9 32.2 -23.3 L32.5 -23.7 32.1 -18.95 M35.35 1.25 Q36.45 -0.25 38.1 -0.95 L39.55 -1.55 37.2 1.55 37.8 2.0 40.25 1.55 37.4 2.8 36.6 2.0 35.65 2.25 35.35 1.25 M39.95 -27.85 Q40.0 -30.95 42.9 -32.25 L43.3 -32.1 42.85 -31.5 Q42.55 -30.95 42.9 -30.45 41.25 -29.55 40.8 -29.05 L39.95 -27.85" fill="#ff3300" fill-rule="evenodd" stroke="none"/>
    <path d="M19.3 -13.1 L19.25 -13.75 Q18.8 -17.7 22.7 -19.35 L20.85 -15.8 22.5 -17.1 Q22.85 -15.2 21.9 -13.5 20.8 -11.6 19.3 -13.1 M6.05 -21.2 L7.55 -21.15 6.9 -17.95 Q5.4 -9.5 6.5 -0.95 L6.45 -0.95 Q6.4 1.6 7.9 3.75 L8.25 4.05 Q11.15 4.7 13.95 3.6 L15.0 2.3 14.1 0.45 15.45 1.4 16.25 2.45 Q15.25 6.45 10.8 6.05 L5.3 5.7 5.75 5.7 -1.85 4.0 -3.9 -0.3 Q-0.25 2.55 3.0 -0.1 L3.1 0.5 Q3.75 -10.45 2.45 -21.4 L3.2 -21.35 Q4.75 -11.45 3.85 -1.35 3.75 -0.25 3.9 0.9 L-0.5 2.4 0.0 3.3 0.6 3.9 1.5 4.3 6.2 4.9 Q5.05 -8.15 6.05 -21.2 M20.9 -14.85 Q20.15 -14.85 20.15 -14.0 L20.25 -13.6 Q20.45 -13.25 20.9 -13.25 21.6 -13.25 21.6 -14.1 21.75 -14.85 20.9 -14.85 M44.15 -27.15 Q43.85 -23.85 41.8 -22.7 L42.2 -24.45 41.0 -26.05 41.35 -26.95 Q42.4 -29.4 44.15 -27.15 M41.95 -26.35 L42.7 -25.65 Q43.4 -25.65 43.4 -26.35 43.35 -27.05 42.7 -27.05 41.95 -27.05 41.95 -26.35 M-15.6 -13.7 L-16.15 -12.95 -16.1 -11.85 Q-14.9 -10.25 -12.9 -10.1 -12.1 -10.1 -11.55 -10.4 L-9.95 -13.5 -10.25 -11.55 -8.95 -11.45 Q-8.15 -10.45 -8.5 -9.05 L-8.6 -8.3 -7.1 -5.2 -10.15 -7.2 Q-16.1 -5.2 -19.95 -10.05 -18.5 -12.5 -15.6 -13.7 M-10.7 -8.6 L-15.15 -9.45 -16.1 -8.85 -15.9 -7.6 -13.95 -7.35 Q-11.7 -7.05 -10.7 -8.6" fill="#ffff00" fill-rule="evenodd" stroke="none"/>
    <path d="M6.05 -21.2 Q5.05 -8.15 6.2 4.9 L1.5 4.3 0.6 3.9 0.0 3.3 -0.5 2.4 3.9 0.9 Q3.75 -0.25 3.85 -1.35 4.75 -11.45 3.2 -21.35 L6.05 -21.2 M20.9 -14.85 Q21.75 -14.85 21.6 -14.1 21.6 -13.25 20.9 -13.25 20.45 -13.25 20.25 -13.6 L20.15 -14.0 Q20.15 -14.85 20.9 -14.85 M41.95 -26.35 Q41.95 -27.05 42.7 -27.05 43.35 -27.05 43.4 -26.35 43.4 -25.65 42.7 -25.65 L41.95 -26.35 M-10.7 -8.6 Q-11.7 -7.05 -13.95 -7.35 L-15.9 -7.6 -16.1 -8.85 -15.15 -9.45 -10.7 -8.6" fill="#ffffff" fill-rule="evenodd" stroke="none"/>
  </g>
</svg>
