<?xml version="1.0" encoding="UTF-8" standalone="no"?>
<svg xmlns:xlink="http://www.w3.org/1999/xlink" height="38.15px" width="57.4px" xmlns="http://www.w3.org/2000/svg">
  <g transform="matrix(1.0, 0.0, 0.0, 1.0, 22.4, 30.85)">
    <path d="M17.2 -20.15 Q21.65 -22.5 23.0 -27.45 L23.75 -25.75 23.65 -25.35 23.75 -25.35 23.95 -25.65 Q24.65 -26.85 23.95 -28.35 26.4 -26.7 26.9 -23.7 27.55 -19.75 24.8 -17.25 26.05 -19.8 24.5 -22.05 L23.75 -23.0 24.0 -23.75 19.6 -18.9 19.2 -16.75 Q18.35 -16.75 17.8 -17.75 17.2 -18.75 17.2 -20.15 M7.5 -20.1 L8.75 -19.85 Q6.45 -9.5 8.75 0.8 L9.7 0.85 Q10.2 1.75 11.95 0.45 L12.3 0.05 14.5 -0.3 Q15.7 -2.2 13.7 -3.15 18.55 -5.25 21.55 -1.1 L20.5 -1.75 17.75 -1.4 Q20.3 -0.85 20.05 1.55 19.8 4.05 17.55 5.25 19.95 5.95 21.45 4.1 23.75 4.2 25.4 2.9 26.95 2.4 26.95 1.15 L26.8 0.9 28.2 1.9 27.35 4.0 Q29.8 5.7 32.75 5.85 L2.6 7.3 Q-4.55 7.0 -11.6 5.15 L-11.1 3.75 -12.65 4.4 -12.15 3.7 Q-11.15 2.4 -9.7 1.65 -9.25 4.4 -6.45 3.3 -5.5 2.95 -5.05 2.4 -5.95 -3.45 -10.9 -6.75 -13.15 -8.2 -16.05 -8.35 -18.9 -8.65 -20.7 -10.65 -21.3 -13.3 -19.85 -15.3 L-19.3 -16.0 -21.25 -16.4 Q-17.7 -18.2 -15.4 -21.35 -13.6 -23.75 -13.75 -26.9 -12.9 -24.4 -10.9 -22.45 L-10.45 -22.5 -8.4 -23.0 Q-6.05 -20.65 -6.8 -17.3 -7.05 -16.2 -6.2 -15.55 L-7.45 -13.2 -7.0 -11.85 -6.7 -11.8 Q-4.4 -12.25 -4.65 -15.0 L-3.9 -13.2 Q-4.7 -11.55 -5.75 -7.2 -5.85 -4.85 -4.75 -3.8 -2.7 -0.55 0.8 -1.8 2.1 -7.3 1.85 -12.95 L1.35 -20.5 1.9 -20.5 2.35 -18.4 2.65 -15.9 Q2.9 -9.0 2.5 -1.65 2.5 -1.2 2.1 -0.95 -0.8 1.45 -4.1 -0.75 -3.3 0.45 -3.0 1.85 -2.65 3.7 -4.6 4.4 L-7.7 5.05 3.4 6.45 11.95 6.2 Q14.4 5.65 16.1 3.95 18.75 1.4 16.25 -1.1 L16.2 -1.1 Q16.3 0.0 15.8 0.95 L14.85 2.55 14.65 2.75 14.3 2.75 14.2 2.25 13.95 1.8 Q13.8 1.6 13.55 1.55 L12.95 1.25 12.95 1.35 13.35 2.3 13.2 2.8 10.65 4.2 Q6.95 2.35 6.65 -2.05 6.0 -11.1 7.5 -20.1 M-8.6 -20.45 Q-9.35 -18.6 -11.05 -17.4 L-11.85 -16.95 -12.6 -17.35 -12.75 -21.45 Q-15.75 -18.2 -17.65 -14.4 L-17.6 -13.5 Q-16.45 -11.5 -13.9 -10.95 -11.6 -10.35 -9.7 -8.95 L-7.25 -6.9 -10.1 -13.55 Q-7.9 -16.7 -8.6 -20.45" fill="#ff9900" fill-rule="evenodd" stroke="none"/>
    <path d="M23.95 -28.35 Q24.65 -26.85 23.95 -25.65 L23.75 -25.35 23.65 -25.35 23.75 -25.75 23.0 -27.45 Q21.65 -22.5 17.2 -20.15 19.45 -23.5 21.1 -27.25 21.8 -28.8 20.2 -29.6 L18.9 -30.25 20.0 -30.85 23.95 -28.35 M9.7 0.85 L10.6 0.7 11.1 0.15 10.65 -0.75 9.45 -1.0 14.1 -1.8 13.9 -2.2 9.85 -3.2 Q14.65 -6.35 19.3 -4.05 L20.85 -2.75 Q22.75 -0.2 21.6 2.9 L25.4 2.9 Q23.75 4.2 21.45 4.1 19.95 5.95 17.55 5.25 19.8 4.05 20.05 1.55 20.3 -0.85 17.75 -1.4 L20.5 -1.75 21.55 -1.1 Q18.55 -5.25 13.7 -3.15 15.7 -2.2 14.5 -0.3 L12.3 0.05 11.95 0.45 Q10.2 1.75 9.7 0.85 M26.8 0.9 L25.7 0.25 28.15 0.2 28.95 0.65 28.25 4.0 Q31.5 5.15 35.0 5.75 L32.75 5.85 Q29.8 5.7 27.35 4.0 L28.2 1.9 26.8 0.9 M2.6 7.3 L-5.65 7.2 Q-9.45 7.55 -12.85 5.75 -14.6 4.8 -13.7 3.2 -11.95 -0.1 -8.65 0.25 L-9.7 1.65 Q-11.15 2.4 -12.15 3.7 L-12.65 4.4 -11.1 3.75 -11.6 5.15 Q-4.55 7.0 2.6 7.3 M-20.7 -10.65 Q-24.15 -15.55 -20.6 -20.45 L-20.55 -18.3 Q-18.7 -19.2 -17.55 -20.9 -14.5 -25.3 -17.1 -30.3 L-13.75 -26.9 Q-13.6 -23.75 -15.4 -21.35 -17.7 -18.2 -21.25 -16.4 L-19.3 -16.0 -19.85 -15.3 Q-21.3 -13.3 -20.7 -10.65 M-10.45 -22.5 Q-9.9 -23.45 -9.65 -24.35 -8.8 -27.1 -6.45 -27.15 -7.2 -26.35 -7.15 -25.35 L-6.85 -24.2 Q-4.9 -19.95 -6.2 -15.55 -7.05 -16.2 -6.8 -17.3 -6.05 -20.65 -8.4 -23.0 L-10.45 -22.5 M-4.65 -15.0 Q-5.1 -17.1 -4.3 -17.7 -2.55 -14.4 -4.0 -10.9 -5.6 -7.15 -4.75 -3.8 -5.85 -4.85 -5.75 -7.2 -4.7 -11.55 -3.9 -13.2 L-4.65 -15.0" fill="#ff3300" fill-rule="evenodd" stroke="none"/>
    <path d="M19.2 -16.75 L19.6 -18.9 24.0 -23.75 23.75 -23.0 24.5 -22.05 Q26.05 -19.8 24.8 -17.25 L23.8 -16.75 Q21.5 -15.75 19.2 -16.75 M1.9 -20.5 L2.9 -20.6 Q5.05 -10.75 3.35 -0.75 2.65 3.55 -1.15 2.05 L-1.55 3.75 Q0.55 6.15 3.85 5.6 7.65 6.4 11.25 5.6 12.55 5.35 13.75 4.15 11.3 5.0 8.6 4.85 L6.8 4.5 Q3.9 -1.8 5.15 -8.85 5.85 -12.65 6.1 -16.45 L6.3 -20.35 7.5 -20.1 Q6.0 -11.1 6.65 -2.05 6.95 2.35 10.65 4.2 L13.2 2.8 13.35 2.3 12.95 1.35 12.95 1.25 13.55 1.55 Q13.8 1.6 13.95 1.8 L14.2 2.25 14.3 2.75 14.65 2.75 14.85 2.55 15.8 0.95 Q16.3 0.0 16.2 -1.1 L16.25 -1.1 Q18.75 1.4 16.1 3.95 14.4 5.65 11.95 6.2 L3.4 6.45 -7.7 5.05 -4.6 4.4 Q-2.65 3.7 -3.0 1.85 -3.3 0.45 -4.1 -0.75 -0.8 1.45 2.1 -0.95 2.5 -1.2 2.5 -1.65 2.9 -9.0 2.65 -15.9 L2.35 -18.4 1.9 -20.5 M23.15 -20.55 Q21.75 -19.85 21.15 -18.45 L21.85 -17.5 Q22.95 -17.15 23.7 -17.85 L23.0 -20.1 23.15 -20.55 M-8.6 -20.45 Q-7.9 -16.7 -10.1 -13.55 L-7.25 -6.9 -9.7 -8.95 Q-11.6 -10.35 -13.9 -10.95 -16.45 -11.5 -17.6 -13.5 L-17.65 -14.4 Q-15.75 -18.2 -12.75 -21.45 L-12.6 -17.35 -11.85 -16.95 -11.05 -17.4 Q-9.35 -18.6 -8.6 -20.45 M-11.55 -14.8 L-12.5 -13.55 -14.6 -15.75 -14.6 -14.1 Q-14.3 -10.75 -11.4 -11.55 L-12.1 -13.45 -11.55 -14.8" fill="#ffff00" fill-rule="evenodd" stroke="none"/>
    <path d="M2.9 -20.6 L6.3 -20.35 6.1 -16.45 Q5.85 -12.65 5.15 -8.85 3.9 -1.8 6.8 4.5 L8.6 4.85 Q11.3 5.0 13.75 4.15 12.55 5.35 11.25 5.6 7.65 6.4 3.85 5.6 0.55 6.15 -1.55 3.75 L-1.15 2.05 Q2.65 3.55 3.35 -0.75 5.05 -10.75 2.9 -20.6 M23.15 -20.55 L23.0 -20.1 23.7 -17.85 Q22.95 -17.15 21.85 -17.5 L21.15 -18.45 Q21.75 -19.85 23.15 -20.55 M-11.55 -14.8 L-12.1 -13.45 -11.4 -11.55 Q-14.3 -10.75 -14.6 -14.1 L-14.6 -15.75 -12.5 -13.55 -11.55 -14.8" fill="#ffffff" fill-rule="evenodd" stroke="none"/>
  </g>
</svg>
