<?xml version="1.0" encoding="UTF-8" standalone="no"?>
<svg xmlns:xlink="http://www.w3.org/1999/xlink" height="42.15px" width="53.65px" xmlns="http://www.w3.org/2000/svg">
  <g transform="matrix(1.0, 0.0, 0.0, 1.0, 20.3, 34.95)">
    <path d="M19.85 -24.75 Q22.65 -27.2 23.0 -30.7 L22.9 -31.15 Q24.1 -30.25 24.45 -28.95 L24.8 -29.65 24.15 -31.75 25.0 -31.35 Q26.95 -28.5 25.9 -25.35 25.55 -24.3 24.7 -23.85 21.8 -22.3 19.85 -24.75 M-0.85 1.2 L-0.55 1.9 1.1 1.4 Q2.65 -9.9 1.0 -20.9 L1.85 -21.3 Q4.1 -9.8 2.2 1.5 2.1 2.15 1.6 2.7 0.9 3.45 -0.35 3.6 L-1.45 3.15 -1.65 4.25 -6.95 4.55 -9.2 4.4 Q-11.1 4.35 -11.25 2.4 L-10.8 1.35 -11.35 2.35 -11.55 3.25 -11.35 4.25 -10.8 5.1 -10.3 5.5 Q-4.15 6.6 2.1 5.8 L4.6 5.65 8.8 6.5 Q11.75 6.25 12.9 3.65 L11.2 4.65 7.35 3.65 Q5.55 -8.9 8.25 -21.35 7.9 -14.2 7.05 -7.05 6.4 -1.4 10.15 2.35 L11.05 2.25 Q14.45 1.85 13.3 -1.1 L15.85 -1.35 Q16.9 0.0 15.8 1.4 15.15 2.2 14.8 3.25 15.4 3.65 16.4 3.0 17.35 2.35 17.2 1.2 21.25 3.35 24.0 -0.1 24.8 -1.2 24.75 -2.65 23.55 -4.05 21.65 -4.45 L23.0 -4.85 19.75 -5.65 Q24.3 -7.35 28.65 -5.6 L29.5 -5.1 26.7 -5.0 Q30.75 -4.25 31.65 -0.25 L31.8 0.7 30.8 -0.5 Q30.25 -0.65 30.5 1.0 30.6 1.8 30.2 2.6 28.25 6.5 23.8 6.65 L20.7 6.85 Q6.2 7.55 -8.3 6.85 -11.75 7.0 -14.7 5.4 L-14.05 3.85 -15.1 3.85 -16.0 5.2 -19.25 3.95 -19.3 3.1 -18.55 2.45 -20.0 2.05 -20.15 2.4 -20.3 2.7 -20.15 2.25 Q-19.8 1.1 -18.8 0.25 -17.3 -1.05 -16.1 -0.65 L-16.65 0.05 -15.8 1.3 -17.8 1.3 Q-15.9 2.5 -13.55 1.9 L-12.9 1.2 -12.8 0.4 -13.15 0.75 Q-11.55 -3.95 -6.8 -5.1 -10.05 -3.25 -10.05 -0.65 -10.05 1.35 -8.4 2.2 -6.55 4.55 -3.15 3.45 L-2.45 2.65 -2.55 0.8 -0.85 1.2 M18.2 -9.4 L18.4 -9.45 18.15 -9.2 18.2 -9.4 M26.95 3.35 Q30.85 0.15 26.4 -3.0 27.05 0.6 24.85 2.35 22.6 4.05 17.55 5.0 L22.15 5.05 Q24.85 5.0 26.95 3.35 M-15.95 -25.45 L-15.0 -29.35 Q-13.1 -26.95 -10.55 -25.95 -5.85 -21.9 -6.65 -16.2 -7.0 -13.5 -6.5 -10.75 L-5.75 -7.95 Q-7.7 -12.35 -12.6 -12.35 L-15.8 -13.05 Q-17.9 -14.95 -17.85 -17.8 L-17.05 -17.6 Q-15.25 -17.65 -14.05 -18.85 -12.9 -19.55 -12.9 -21.15 -12.9 -21.35 -14.65 -23.4 -15.55 -24.4 -15.95 -25.45 M-8.4 -28.2 L-6.85 -29.7 Q-6.35 -28.35 -6.6 -27.05 -6.95 -25.3 -7.9 -25.65 L-8.4 -28.2 M-9.4 -16.05 Q-8.05 -20.3 -11.55 -23.7 -8.7 -18.6 -13.5 -15.8 L-15.35 -15.9 Q-14.9 -15.4 -14.3 -15.0 -11.65 -13.45 -8.15 -13.05 L-9.4 -16.05" fill="#ff9900" fill-rule="evenodd" stroke="none"/>
    <path d="M25.0 -31.35 L24.15 -31.75 24.8 -29.65 24.45 -28.95 Q24.1 -30.25 22.9 -31.15 L23.0 -30.7 Q22.65 -27.2 19.85 -24.75 20.1 -28.0 22.0 -30.85 L22.2 -31.4 21.1 -32.7 19.9 -32.65 19.15 -33.05 Q22.6 -34.05 25.0 -31.35 M13.3 -1.1 L10.35 -2.1 Q12.0 -1.95 13.6 -2.55 14.9 -3.0 16.1 -2.25 17.8 -1.0 17.2 1.2 17.35 2.35 16.4 3.0 15.4 3.65 14.8 3.25 15.15 2.2 15.8 1.4 16.9 0.0 15.85 -1.35 L13.3 -1.1 M19.75 -5.65 Q17.15 -6.6 17.6 -8.95 L18.2 -9.4 18.15 -9.2 17.8 -8.05 Q18.15 -7.4 18.9 -7.15 21.4 -6.65 23.9 -7.2 30.05 -8.6 32.75 -2.65 34.25 0.6 32.05 3.1 28.8 6.8 23.8 6.65 28.25 6.5 30.2 2.6 30.6 1.8 30.5 1.0 30.25 -0.65 30.8 -0.5 L31.8 0.7 31.65 -0.25 Q30.75 -4.25 26.7 -5.0 L29.5 -5.1 28.65 -5.6 Q24.3 -7.35 19.75 -5.65 M-8.3 6.85 L-7.45 7.0 Q-12.1 7.25 -16.85 5.95 -20.05 5.2 -20.15 2.4 L-20.0 2.05 -18.55 2.45 -19.3 3.1 -19.25 3.95 -16.0 5.2 -15.1 3.85 -14.05 3.85 -14.7 5.4 Q-11.75 7.0 -8.3 6.85 M-20.15 2.25 Q-20.2 1.35 -19.7 0.45 -17.6 -3.4 -13.8 -0.95 L-16.1 -0.65 Q-17.3 -1.05 -18.8 0.25 -19.8 1.1 -20.15 2.25 M-15.8 1.3 Q-13.2 0.65 -12.1 -1.85 -10.4 -5.85 -6.3 -5.35 L-6.8 -5.1 Q-11.55 -3.95 -13.15 0.75 L-12.8 0.4 -12.9 1.2 -13.55 1.9 Q-15.9 2.5 -17.8 1.3 L-15.8 1.3 M-8.4 2.2 L-3.45 2.05 -3.4 1.4 -4.7 -0.3 -4.55 -0.35 Q-2.2 -0.6 -0.85 1.2 L-2.55 0.8 -2.45 2.65 -3.15 3.45 Q-6.55 4.55 -8.4 2.2 M-10.55 -25.95 Q-13.1 -26.95 -15.0 -29.35 L-15.95 -25.45 Q-17.95 -31.75 -12.55 -34.95 L-12.95 -33.95 Q-15.1 -28.95 -10.55 -25.95 M-14.05 -18.85 Q-15.25 -17.65 -17.05 -17.6 L-17.85 -17.8 Q-17.9 -14.95 -15.8 -13.05 -17.45 -13.75 -18.45 -15.3 -21.05 -19.2 -16.75 -21.9 L-17.95 -19.3 -17.6 -18.95 -14.05 -18.85 M-6.85 -29.7 L-8.4 -28.2 Q-9.65 -31.15 -6.65 -31.6 L-7.1 -30.15 -6.85 -29.7 M-4.8 -21.15 L-4.35 -20.6 Q-4.35 -20.35 -4.7 -19.4 L-5.25 -20.6 Q-5.25 -21.15 -4.8 -21.15" fill="#ff3300" fill-rule="evenodd" stroke="none"/>
    <path d="M1.85 -21.3 L3.4 -21.7 Q5.0 -10.45 3.4 0.85 3.1 2.85 2.0 4.4 L6.15 4.85 Q4.45 -0.75 5.15 -6.4 L7.2 -21.95 8.25 -21.35 Q5.55 -8.9 7.35 3.65 L11.2 4.65 12.9 3.65 Q11.75 6.25 8.8 6.5 L4.6 5.65 2.1 5.8 Q-4.15 6.6 -10.3 5.5 L-10.8 5.1 -11.35 4.25 -11.55 3.25 -11.35 2.35 -10.8 1.35 -11.25 2.4 Q-11.1 4.35 -9.2 4.4 L-6.95 4.55 -1.65 4.25 -1.45 3.15 -0.35 3.6 Q0.9 3.45 1.6 2.7 2.1 2.15 2.2 1.5 4.1 -9.8 1.85 -21.3 M26.95 3.35 Q24.85 5.0 22.15 5.05 L17.55 5.0 Q22.6 4.05 24.85 2.35 27.05 0.6 26.4 -3.0 30.85 0.15 26.95 3.35 M-9.4 -16.05 L-8.15 -13.05 Q-11.65 -13.45 -14.3 -15.0 -14.9 -15.4 -15.35 -15.9 L-13.5 -15.8 Q-8.7 -18.6 -11.55 -23.7 -8.05 -20.3 -9.4 -16.05 M-10.9 -14.25 Q-9.8 -14.25 -9.8 -15.0 L-10.5 -16.55 Q-11.85 -15.85 -11.85 -15.05 -11.85 -14.25 -10.9 -14.25" fill="#ffff00" fill-rule="evenodd" stroke="none"/>
    <path d="M3.4 -21.7 L7.2 -21.95 5.15 -6.4 Q4.45 -0.75 6.15 4.85 L2.0 4.4 Q3.1 2.85 3.4 0.85 5.0 -10.45 3.4 -21.7 M-10.9 -14.25 Q-11.85 -14.25 -11.85 -15.05 -11.85 -15.85 -10.5 -16.55 L-9.8 -15.0 Q-9.8 -14.25 -10.9 -14.25" fill="#ffffff" fill-rule="evenodd" stroke="none"/>
  </g>
</svg>
