<?xml version="1.0" encoding="UTF-8" standalone="no"?>
<svg xmlns:xlink="http://www.w3.org/1999/xlink" height="43.4px" width="66.1px" xmlns="http://www.w3.org/2000/svg">
  <g transform="matrix(1.0, 0.0, 0.0, 1.0, 24.45, 36.05)">
    <path d="M21.65 -33.45 L24.8 -33.55 24.65 -31.9 Q22.15 -30.3 21.6 -32.9 L21.65 -33.45 M2.15 -20.9 Q3.8 -14.75 3.05 -8.4 2.7 -5.65 2.7 -2.85 2.7 0.5 0.75 2.5 -1.55 4.85 -4.8 4.95 1.35 4.95 7.4 6.1 12.0 6.95 16.1 5.0 11.65 6.2 8.0 3.85 7.3 3.5 7.15 2.7 6.25 -1.7 6.25 -6.25 6.2 -13.45 7.45 -20.8 L8.45 -20.4 7.05 -7.7 Q6.4 -0.8 11.65 3.0 L13.9 2.7 Q18.9 3.45 20.25 -1.35 21.2 0.65 20.2 2.45 20.35 3.2 21.15 3.4 22.45 3.85 21.8 3.15 L24.4 3.55 25.5 3.5 26.55 3.5 28.65 3.0 29.0 2.05 Q29.15 1.2 28.9 0.25 L28.65 -0.45 Q31.35 1.0 33.2 -1.0 33.95 -1.85 34.2 -3.2 L32.65 -4.05 31.7 -4.25 26.85 -4.0 Q25.05 -4.0 23.85 -4.85 L23.95 -7.1 Q27.55 -5.85 30.55 -8.6 L31.5 -9.05 33.9 -8.65 31.05 -7.85 Q36.15 -8.0 39.25 -3.75 38.75 -3.95 38.35 -3.75 L37.55 -3.45 Q41.25 -1.8 38.95 2.25 37.8 4.3 35.75 5.0 33.0 6.05 30.1 6.2 L0.0 7.25 -10.3 5.4 -14.25 4.25 -15.45 3.3 -15.55 4.6 -21.1 2.55 -21.6 1.05 -23.15 3.05 -23.2 2.5 Q-23.2 0.6 -21.8 -0.7 L-20.3 0.5 -18.5 0.15 -19.1 -1.25 Q-18.45 -5.4 -14.7 -6.65 L-12.95 -7.1 Q-14.5 -5.4 -14.5 -3.75 -14.5 -1.1 -11.4 -1.1 -8.9 -1.1 -9.25 -3.0 L-9.45 -3.5 Q-8.15 -3.3 -7.5 -2.7 L-6.65 -1.95 Q-6.0 0.35 -7.5 2.4 L-7.35 2.9 Q-4.6 4.4 -1.6 2.95 -0.3 2.45 0.15 1.1 3.7 -9.55 0.75 -20.55 L2.15 -20.9 M31.2 -5.55 Q34.15 -5.65 35.35 -3.1 36.3 -1.0 34.8 0.75 L32.9 1.8 Q31.65 2.1 30.55 1.45 30.05 4.1 27.4 4.4 L23.1 4.95 Q29.45 6.4 35.45 3.4 37.2 2.55 37.55 0.7 38.45 -4.25 33.45 -5.7 L31.2 -5.55 M-16.6 -26.25 Q-15.95 -27.1 -14.85 -30.3 L-12.0 -33.3 Q-11.8 -30.1 -9.0 -27.55 -6.5 -25.3 -6.35 -22.25 -6.2 -19.0 -8.7 -17.25 -7.75 -18.65 -8.05 -20.4 -8.25 -21.75 -9.0 -22.75 -11.3 -25.9 -13.25 -29.35 -15.05 -26.0 -12.9 -22.95 -14.0 -21.15 -13.5 -18.95 -12.9 -16.2 -9.95 -16.55 -12.6 -15.45 -15.15 -17.45 L-15.6 -17.8 -16.05 -20.3 -15.2 -21.9 -16.6 -26.25 M-8.65 -31.15 L-7.6 -32.4 -7.0 -31.0 Q-7.1 -29.5 -8.35 -28.6 L-8.65 -31.15 M-16.85 -1.75 Q-16.95 -0.6 -16.4 0.55 -15.7 2.15 -14.05 2.8 L-8.4 4.2 -10.75 2.95 Q-8.95 3.15 -7.8 1.75 -7.3 0.0 -8.25 -1.25 -8.9 1.1 -11.6 0.75 -14.35 0.45 -16.15 -1.65 L-16.25 -2.15 -15.6 -3.9 Q-16.75 -3.5 -16.85 -1.75" fill="#ff9900" fill-rule="evenodd" stroke="none"/>
    <path d="M24.8 -33.55 L21.65 -33.45 Q20.65 -34.15 18.95 -33.85 L19.5 -34.4 Q22.4 -36.25 24.8 -33.55 M13.9 2.7 Q16.45 2.6 18.2 0.55 19.8 -1.35 18.35 -3.5 L19.05 -3.9 20.85 -3.25 Q21.85 -0.65 21.0 1.9 L21.8 3.15 Q22.45 3.85 21.15 3.4 20.35 3.2 20.2 2.45 21.2 0.65 20.25 -1.35 18.9 3.45 13.9 2.7 M25.5 3.5 Q26.9 3.3 27.9 2.1 26.85 -0.25 26.8 -2.9 L28.1 -3.2 27.9 -1.95 Q30.65 0.3 33.15 -1.8 L33.3 -2.5 Q33.5 -3.5 32.65 -4.05 L34.2 -3.2 Q33.95 -1.85 33.2 -1.0 31.35 1.0 28.65 -0.45 L28.9 0.25 Q29.15 1.2 29.0 2.05 L28.65 3.0 26.55 3.5 25.5 3.5 M23.85 -4.85 Q21.5 -6.85 22.8 -9.5 23.45 -10.75 24.9 -11.25 L23.8 -9.35 24.15 -8.35 Q27.0 -7.3 29.55 -9.25 31.55 -10.8 33.95 -10.25 38.85 -8.9 40.9 -4.3 42.55 -0.65 40.5 2.45 39.75 3.55 38.5 4.3 34.65 6.65 30.1 6.2 33.0 6.05 35.75 5.0 37.8 4.3 38.95 2.25 41.25 -1.8 37.55 -3.45 L38.35 -3.75 Q38.75 -3.95 39.25 -3.75 36.15 -8.0 31.05 -7.85 L33.9 -8.65 31.5 -9.05 30.55 -8.6 Q27.55 -5.85 23.95 -7.1 L23.85 -4.85 M0.0 7.25 Q-9.85 7.7 -19.5 5.75 -23.15 4.9 -24.45 1.5 L-24.1 0.2 Q-23.4 -1.95 -21.35 -2.5 L-21.8 -0.7 Q-23.2 0.6 -23.2 2.5 L-23.15 3.05 -21.6 1.05 -21.1 2.55 -15.55 4.6 -15.45 3.3 -14.25 4.25 -10.3 5.4 0.0 7.25 M-19.1 -1.25 Q-19.65 -2.7 -19.15 -4.1 -17.3 -9.35 -11.8 -8.35 L-12.95 -7.1 -14.7 -6.65 Q-18.45 -5.4 -19.1 -1.25 M-9.45 -3.5 L-10.45 -5.0 -10.05 -5.05 Q-7.7 -4.35 -6.65 -1.95 L-7.5 -2.7 Q-8.15 -3.3 -9.45 -3.5 M-16.6 -26.25 Q-18.0 -32.85 -12.2 -36.05 L-11.8 -35.9 -12.0 -33.3 -14.85 -30.3 Q-15.95 -27.1 -16.6 -26.25 M-15.6 -17.8 Q-17.45 -19.7 -16.45 -22.0 L-16.1 -22.65 -15.65 -21.95 -15.2 -21.9 -16.05 -20.3 -15.6 -17.8 M-8.65 -31.15 L-9.0 -31.95 Q-9.0 -33.1 -7.35 -33.95 L-7.15 -33.65 -7.6 -32.4 -8.65 -31.15 M-19.25 -25.15 L-18.35 -26.85 -18.7 -25.35 -17.6 -23.25 -18.35 -23.25 -19.25 -25.15" fill="#ff3300" fill-rule="evenodd" stroke="none"/>
    <path d="M6.2 -20.85 L7.45 -20.8 Q6.2 -13.45 6.25 -6.25 6.25 -1.7 7.15 2.7 7.3 3.5 8.0 3.85 11.65 6.2 16.1 5.0 12.0 6.95 7.4 6.1 1.35 4.95 -4.8 4.95 -1.55 4.85 0.75 2.5 2.7 0.5 2.7 -2.85 2.7 -5.65 3.05 -8.4 3.8 -14.75 2.15 -20.9 L3.55 -20.85 Q4.2 -17.8 3.85 -14.8 3.65 -13.25 3.85 -11.75 L3.95 -10.1 Q3.9 -5.25 3.35 -0.25 3.05 2.15 1.65 4.0 2.8 5.05 4.55 5.05 L6.45 4.6 Q5.15 3.3 5.05 1.05 L5.0 0.25 4.9 0.65 Q5.25 -8.65 5.85 -17.75 L6.2 -20.85 M31.2 -5.55 L33.45 -5.7 Q38.45 -4.25 37.55 0.7 37.2 2.55 35.45 3.4 29.45 6.4 23.1 4.95 L27.4 4.4 Q30.05 4.1 30.55 1.45 31.65 2.1 32.9 1.8 L34.8 0.75 Q36.3 -1.0 35.35 -3.1 34.15 -5.65 31.2 -5.55 M31.85 3.8 Q34.2 3.5 35.85 1.7 L30.55 3.75 31.85 3.8 M-8.7 -17.25 L-9.95 -16.55 Q-12.9 -16.2 -13.5 -18.95 -14.0 -21.15 -12.9 -22.95 -15.05 -26.0 -13.25 -29.35 -11.3 -25.9 -9.0 -22.75 -8.25 -21.75 -8.05 -20.4 -7.75 -18.65 -8.7 -17.25 M-11.7 -20.6 Q-11.6 -18.55 -9.95 -19.0 -9.75 -21.85 -11.4 -23.15 L-11.0 -22.35 -11.7 -20.6 M-16.85 -1.75 Q-16.75 -3.5 -15.6 -3.9 L-16.25 -2.15 -16.15 -1.65 Q-14.35 0.45 -11.6 0.75 -8.9 1.1 -8.25 -1.25 -7.3 0.0 -7.8 1.75 -8.95 3.15 -10.75 2.95 L-8.4 4.2 -14.05 2.8 Q-15.7 2.15 -16.4 0.55 -16.95 -0.6 -16.85 -1.75 M-13.95 1.05 L-13.65 1.75 Q-11.4 2.7 -10.35 1.75 L-13.95 1.05" fill="#ffff00" fill-rule="evenodd" stroke="none"/>
    <path d="M6.2 -20.85 L5.85 -17.75 Q5.25 -8.65 4.9 0.65 L5.0 0.25 5.05 1.05 Q5.15 3.3 6.45 4.6 L4.55 5.05 Q2.8 5.05 1.65 4.0 3.05 2.15 3.35 -0.25 3.9 -5.25 3.95 -10.1 L3.85 -11.75 Q3.65 -13.25 3.85 -14.8 4.2 -17.8 3.55 -20.85 L6.2 -20.85 M31.85 3.8 L30.55 3.75 35.85 1.7 Q34.2 3.5 31.85 3.8 M-11.7 -20.6 L-11.0 -22.35 -11.4 -23.15 Q-9.75 -21.85 -9.95 -19.0 -11.6 -18.55 -11.7 -20.6 M-13.95 1.05 L-10.35 1.75 Q-11.4 2.7 -13.65 1.75 L-13.95 1.05" fill="#ffffff" fill-rule="evenodd" stroke="none"/>
  </g>
</svg>
