<?xml version="1.0" encoding="UTF-8" standalone="no"?>
<svg xmlns:xlink="http://www.w3.org/1999/xlink" height="44.95px" width="72.05px" xmlns="http://www.w3.org/2000/svg">
  <g transform="matrix(1.0, 0.0, 0.0, 1.0, 27.2, 37.7)">
    <path d="M7.4 -20.9 L8.65 -20.7 Q6.8 -12.35 9.05 -4.15 9.15 -3.8 9.6 -3.5 12.65 -1.4 15.35 -3.6 L16.05 -4.05 Q14.9 -8.05 18.3 -10.3 18.1 -7.0 21.05 -5.65 L23.05 -5.25 21.7 -7.05 22.05 -6.65 Q25.25 -7.05 28.25 -6.65 29.65 -4.35 27.35 -2.6 L26.3 -1.75 Q24.45 -0.1 21.75 -0.75 L24.65 0.05 Q24.1 0.65 24.9 0.85 27.3 1.65 29.9 1.25 35.65 0.9 39.0 -3.55 40.7 -5.85 39.25 -8.55 L38.3 -8.6 Q37.7 -7.5 36.5 -7.25 32.55 -6.7 30.05 -9.85 L31.65 -9.65 Q34.6 -9.65 34.6 -11.55 L34.3 -13.65 Q34.3 -15.1 37.05 -15.1 L37.3 -15.1 Q36.3 -14.85 36.05 -14.25 35.65 -13.8 35.65 -13.1 L36.0 -12.4 Q36.25 -12.4 36.1 -12.45 36.55 -13.8 38.5 -13.85 39.45 -13.35 42.1 -12.15 43.5 -10.4 44.05 -7.0 L43.85 -8.0 42.85 -8.2 Q42.45 -8.2 42.1 -7.85 43.9 -7.15 43.9 -5.4 43.9 -1.1 39.1 2.6 36.5 4.5 33.9 5.55 L32.65 5.75 Q11.55 8.1 -9.55 6.75 L-23.2 2.4 -23.55 1.35 -23.75 2.95 -24.35 2.25 Q-26.05 -0.6 -25.45 -4.1 -24.6 1.95 -19.0 1.05 L-19.45 0.1 Q-19.4 -3.85 -20.5 -7.8 -21.35 -10.75 -19.95 -13.6 -17.0 -15.4 -14.35 -13.55 -12.95 -12.7 -12.55 -11.25 L-14.65 -12.05 Q-17.9 -10.1 -16.45 -5.9 -15.85 -4.2 -14.3 -3.65 -10.45 -2.5 -10.15 -6.45 -7.5 -4.1 -6.4 -0.65 L-5.9 0.05 Q-2.85 1.35 -0.35 -1.15 1.15 -2.75 1.45 -4.8 2.7 -12.75 0.65 -20.7 L1.75 -21.05 Q4.6 -12.7 3.65 -3.7 3.25 0.0 1.3 3.3 L0.1 4.35 -1.15 4.65 Q6.2 7.05 13.4 5.35 17.0 4.6 18.45 1.2 19.4 -0.9 18.75 -3.15 19.2 0.7 15.8 1.85 L12.85 2.6 15.65 0.45 Q13.1 2.3 9.95 1.25 8.2 0.8 6.9 -0.6 6.3 -10.8 7.4 -20.9 M36.2 -9.8 Q37.45 -9.3 38.7 -10.0 L39.35 -10.35 40.6 -10.05 Q38.85 -12.15 36.45 -11.4 35.75 -10.65 36.2 -9.8 M42.45 -5.6 Q40.4 -0.5 35.35 1.6 29.1 4.1 22.2 4.5 29.25 5.35 36.05 3.25 37.35 2.85 38.45 2.1 39.2 1.7 39.3 1.1 L38.95 0.25 Q41.25 0.15 41.75 -2.4 L42.45 -5.6 M-15.75 -29.25 Q-15.3 -32.8 -12.65 -35.05 L-11.75 -35.55 Q-11.25 -30.5 -8.85 -25.8 -8.5 -25.1 -8.7 -24.25 -9.6 -20.25 -13.65 -19.5 -13.55 -24.65 -15.75 -29.25 M-12.2 -25.1 Q-12.45 -23.45 -11.7 -22.35 -8.85 -22.25 -10.25 -25.25 -11.0 -26.9 -12.35 -28.5 -13.0 -29.3 -12.75 -30.45 -13.65 -28.35 -12.4 -26.2 -12.1 -25.7 -12.2 -25.1 M-17.4 -3.45 Q-17.2 -1.1 -15.45 0.25 -9.85 4.6 -2.7 4.65 L-7.95 2.85 Q-8.95 1.55 -9.05 0.0 L-9.15 -2.0 Q-10.05 -1.05 -11.3 -0.75 L-15.85 -1.05 -17.4 -3.45 M-18.45 -8.9 L-16.8 -12.6 Q-19.1 -12.15 -18.55 -9.25 L-18.45 -8.9" fill="#ff9900" fill-rule="evenodd" stroke="none"/>
    <path d="M9.6 -3.5 Q12.35 -2.6 14.4 -4.2 L14.7 -4.4 Q14.85 -7.5 16.4 -10.2 17.75 -12.45 20.45 -12.0 19.15 -10.7 19.4 -9.0 21.85 -7.3 24.8 -8.1 27.9 -8.8 29.9 -6.8 30.6 -6.0 30.45 -5.1 L30.4 -4.2 Q28.0 -1.45 24.65 0.05 L21.75 -0.75 Q24.45 -0.1 26.3 -1.75 L27.35 -2.6 Q29.65 -4.35 28.25 -6.65 25.25 -7.05 22.05 -6.65 L21.7 -7.05 23.05 -5.25 21.05 -5.65 Q18.1 -7.0 18.3 -10.3 14.9 -8.05 16.05 -4.05 L15.35 -3.6 Q12.65 -1.4 9.6 -3.5 M30.05 -9.85 Q29.3 -11.05 29.55 -12.45 L29.8 -13.2 30.2 -11.8 33.4 -11.65 Q32.6 -15.1 36.1 -15.95 38.3 -16.5 40.15 -15.5 43.55 -13.5 44.5 -9.6 45.85 -3.9 42.0 0.85 38.9 4.7 33.9 5.55 36.5 4.5 39.1 2.6 43.9 -1.1 43.9 -5.4 43.9 -7.15 42.1 -7.85 42.45 -8.2 42.85 -8.2 L43.85 -8.0 44.05 -7.0 Q43.5 -10.4 42.1 -12.15 39.45 -13.35 38.5 -13.85 36.55 -13.8 36.1 -12.45 36.25 -12.4 36.0 -12.4 L35.65 -13.1 Q35.65 -13.8 36.05 -14.25 36.3 -14.85 37.3 -15.1 L37.05 -15.1 Q34.3 -15.1 34.3 -13.65 L34.6 -11.55 Q34.6 -9.65 31.65 -9.65 L30.05 -9.85 M-9.55 6.75 Q-15.45 6.85 -21.2 5.0 -25.05 3.8 -26.6 0.0 -28.05 -3.6 -25.85 -6.8 L-24.7 -8.3 -24.65 -8.35 Q-25.75 -6.6 -25.45 -4.1 -26.05 -0.6 -24.35 2.25 L-23.75 2.95 -23.55 1.35 -23.2 2.4 -9.55 6.75 M-19.45 0.1 Q-21.45 -2.25 -22.1 -5.4 L-20.65 -3.95 -21.75 -7.1 Q-22.9 -10.25 -21.1 -13.0 -18.55 -16.8 -14.05 -15.8 -12.5 -13.7 -10.15 -13.05 L-9.3 -13.5 -9.5 -12.8 Q-10.2 -10.5 -12.55 -11.25 -12.95 -12.7 -14.35 -13.55 -17.0 -15.4 -19.95 -13.6 -21.35 -10.75 -20.5 -7.8 -19.4 -3.85 -19.45 0.1 M-10.15 -6.45 L-10.6 -8.25 Q-6.25 -5.7 -6.4 -0.65 -7.5 -4.1 -10.15 -6.45 M-11.75 -35.55 L-12.65 -35.05 Q-15.3 -32.8 -15.75 -29.25 -17.25 -35.3 -11.25 -37.7 L-11.75 -35.55" fill="#ff3300" fill-rule="evenodd" stroke="none"/>
    <path d="M6.9 -20.9 L3.4 -21.0 4.05 -15.15 Q5.0 -5.85 3.0 3.25 6.95 6.45 12.1 4.85 L13.4 4.25 14.6 3.65 12.15 3.45 11.7 2.45 Q8.5 3.1 6.55 0.95 5.65 0.0 5.85 -1.3 L5.95 -2.55 6.0 -3.85 5.25 -4.55 6.9 -20.9 M1.75 -21.05 L7.4 -20.9 Q6.3 -10.8 6.9 -0.6 8.2 0.8 9.95 1.25 13.1 2.3 15.65 0.45 L12.85 2.6 15.8 1.85 Q19.2 0.7 18.75 -3.15 19.4 -0.9 18.45 1.2 17.0 4.6 13.4 5.35 6.2 7.05 -1.15 4.65 L0.1 4.35 1.3 3.3 Q3.25 0.0 3.65 -3.7 4.6 -12.7 1.75 -21.05 M42.45 -5.6 L41.75 -2.4 Q41.25 0.15 38.95 0.25 L39.3 1.1 Q39.2 1.7 38.45 2.1 37.35 2.85 36.05 3.25 29.25 5.35 22.2 4.5 29.1 4.1 35.35 1.6 40.4 -0.5 42.45 -5.6 M36.2 -9.8 Q35.75 -10.65 36.45 -11.4 38.85 -12.15 40.6 -10.05 L39.35 -10.35 38.7 -10.0 Q37.45 -9.3 36.2 -9.8 M-12.2 -25.1 Q-12.1 -25.7 -12.4 -26.2 -13.65 -28.35 -12.75 -30.45 -13.0 -29.3 -12.35 -28.5 -11.0 -26.9 -10.25 -25.25 -8.85 -22.25 -11.7 -22.35 -12.45 -23.45 -12.2 -25.1 M-18.45 -8.9 L-18.55 -9.25 Q-19.1 -12.15 -16.8 -12.6 L-18.45 -8.9 M-17.4 -3.45 L-15.85 -1.05 -11.3 -0.75 Q-10.05 -1.05 -9.15 -2.0 L-9.05 0.0 Q-8.95 1.55 -7.95 2.85 L-2.7 4.65 Q-9.85 4.6 -15.45 0.25 -17.2 -1.1 -17.4 -3.45 M-10.5 2.0 L-10.1 1.7 -11.25 0.05 Q-13.2 0.05 -13.2 0.65 -11.65 2.0 -10.5 2.0" fill="#ffff00" fill-rule="evenodd" stroke="none"/>
    <path d="M6.9 -20.9 L5.25 -4.55 6.0 -3.85 5.95 -2.55 5.85 -1.3 Q5.65 0.0 6.55 0.95 8.5 3.1 11.7 2.45 L12.15 3.45 14.6 3.65 13.4 4.25 12.1 4.85 Q6.95 6.45 3.0 3.25 5.0 -5.85 4.05 -15.15 L3.4 -21.0 6.9 -20.9 M-10.5 2.0 Q-11.65 2.0 -13.2 0.65 -13.2 0.05 -11.25 0.05 L-10.1 1.7 -10.5 2.0" fill="#ffffff" fill-rule="evenodd" stroke="none"/>
  </g>
</svg>
