<?xml version="1.0" encoding="UTF-8" standalone="no"?>
<svg xmlns:xlink="http://www.w3.org/1999/xlink" height="25.45px" width="28.85px" xmlns="http://www.w3.org/2000/svg">
  <g transform="matrix(1.0, 0.0, 0.0, 1.0, 14.7, 13.9)">
    <path d="M2.65 -8.0 Q6.45 -10.4 2.3 -13.8 L2.2 -13.85 Q3.85 -14.2 4.6 -12.9 5.65 -10.95 5.25 -8.7 13.55 -3.15 14.15 6.8 -1.85 17.6 -14.7 3.45 L-13.05 -1.9 Q-9.3 -12.65 2.0 -13.85 -11.2 -10.35 -13.7 3.25 L-12.85 4.25 Q-6.0 12.1 4.35 9.7 L6.6 9.0 Q7.95 8.65 10.6 7.05 L13.2 5.35 Q11.6 -2.55 4.8 -7.9 L4.2 -7.3 3.45 -7.0 3.35 -7.0 3.0 -7.0 1.15 -7.7 1.8 -8.05 Q1.8 -8.8 1.25 -9.35 0.65 -9.9 -0.15 -9.9 L-0.15 -9.85 -0.3 -9.3 -0.3 -10.65 0.7 -11.0 Q2.8 -10.1 2.65 -8.0" fill="#000000" fill-rule="evenodd" stroke="none"/>
    <path d="M2.1 -13.9 L2.3 -13.75 Q4.7 -10.9 2.65 -8.0 2.8 -10.1 0.7 -11.0 L-0.3 -10.65 -0.3 -9.3 Q0.45 -9.2 1.8 -8.05 L1.15 -7.7 3.0 -7.0 3.45 -6.45 Q10.7 2.2 4.35 9.7 -6.0 12.1 -12.85 4.25 L-13.7 3.25 Q-11.2 -10.35 2.0 -13.85 L2.1 -13.9 M3.45 -7.0 L3.4 -6.95 3.35 -7.0 3.45 -7.0 M-2.3 -11.35 Q-9.05 -8.65 -9.0 1.15 -8.95 8.35 -3.6 6.1 -2.95 -1.15 -1.85 -8.3 -1.6 -10.0 -0.85 -11.65 L1.7 -12.3 -2.05 -11.45 Q-1.6 -12.05 -2.3 -11.35 M-0.15 -9.9 L-0.05 -9.85 -0.15 -9.85 -0.15 -9.9" fill="#552000" fill-rule="evenodd" stroke="none"/>
    <path d="M2.1 -13.9 L2.2 -13.85 2.3 -13.8 Q6.45 -10.4 2.65 -8.0 4.7 -10.9 2.3 -13.75 L2.1 -13.9 M6.6 9.0 Q7.6 7.8 8.05 2.3 L4.2 -7.3 4.8 -7.9 Q11.6 -2.55 13.2 5.35 L10.6 7.05 Q7.95 8.65 6.6 9.0" fill="#430e00" fill-rule="evenodd" stroke="none"/>
    <path d="M-2.05 -11.45 L1.7 -12.3 -0.85 -11.65 Q-1.6 -10.0 -1.85 -8.3 -2.95 -1.15 -3.6 6.1 -8.95 8.35 -9.0 1.15 -9.05 -8.65 -2.3 -11.35 -8.8 -5.75 -7.85 2.55 L-7.5 4.9 -5.65 4.95 Q-6.25 -3.9 -2.05 -11.45 M-6.4 4.8 L-6.35 4.85 -6.4 4.85 -6.4 4.8" fill="#7b4626" fill-rule="evenodd" stroke="none"/>
    <path d="M-2.3 -11.35 Q-1.6 -12.05 -2.05 -11.45 -6.25 -3.9 -5.65 4.95 L-7.5 4.9 -7.85 2.55 Q-8.8 -5.75 -2.3 -11.35 M-6.4 4.8 L-6.4 4.85 -6.35 4.85 -6.4 4.8" fill="#f6c1a1" fill-rule="evenodd" stroke="none"/>
    <path d="M1.8 -8.05 Q0.45 -9.2 -0.3 -9.3 L-0.15 -9.85 -0.05 -9.85 -0.15 -9.9 Q0.65 -9.9 1.25 -9.35 1.8 -8.8 1.8 -8.05 M3.35 -7.0 L3.4 -6.95 3.45 -7.0 4.2 -7.3 8.05 2.3 Q7.6 7.8 6.6 9.0 L4.35 9.7 Q10.7 2.2 3.45 -6.45 L3.0 -7.0 3.35 -7.0" fill="#430e00" fill-rule="evenodd" stroke="none"/>
  </g>
</svg>
