<?xml version="1.0" encoding="UTF-8" standalone="no"?>
<svg xmlns:xlink="http://www.w3.org/1999/xlink" height="127.45px" width="62.6px" xmlns="http://www.w3.org/2000/svg">
  <g transform="matrix(1.0, 0.0, 0.0, 1.0, 31.1, 63.5)">
    <path d="M20.5 -57.3 L22.9 -56.55 22.8 -54.85 Q18.95 -53.65 14.8 -53.45 3.0 -54.25 -8.75 -53.95 -15.95 -53.7 -22.25 -56.75 L-19.95 -58.65 -19.6 -58.2 -20.3 -56.85 Q-13.85 -54.85 -7.0 -55.8 3.0 -56.75 12.85 -55.4 17.4 -55.05 21.65 -56.1 L19.45 -57.25 20.5 -57.3 M27.3 -50.0 Q20.75 -36.6 15.75 -22.7 12.65 -14.15 14.2 -5.45 14.55 -3.6 15.5 -1.95 17.25 1.1 19.45 3.9 25.45 11.65 30.2 20.3 31.05 21.9 31.35 23.8 32.2 29.8 28.15 34.2 L26.25 35.85 Q22.35 38.6 17.75 39.4 17.7 44.75 12.45 45.95 8.45 46.85 6.45 50.5 5.35 52.4 5.45 54.65 5.55 58.2 5.95 61.7 2.2 64.95 -2.75 63.55 -4.85 62.95 -6.6 61.35 -4.65 52.65 -10.65 45.9 -14.95 45.75 -17.9 42.8 L-18.8 41.45 Q-19.3 40.1 -19.2 38.65 -26.6 37.75 -29.8 30.75 -32.4 25.2 -29.8 19.7 -27.95 15.75 -25.15 12.25 -17.75 2.9 -15.35 -8.6 -14.7 -11.65 -14.95 -14.75 -15.35 -19.85 -16.55 -24.85 -19.55 -37.4 -25.0 -49.15 -27.05 -53.6 -25.05 -57.7 -24.3 -59.2 -22.85 -60.1 -21.4 -61.1 -19.7 -61.45 -10.35 -63.7 -0.65 -63.5 11.05 -63.25 22.45 -60.55 28.2 -59.45 28.1 -53.5 28.1 -51.6 27.3 -50.0 M24.4 14.45 Q17.95 7.65 13.0 -0.35 9.5 -5.95 10.5 -12.65 11.55 -19.85 14.3 -27.05 18.6 -38.1 24.65 -48.45 27.2 -52.85 25.4 -57.15 12.05 -62.0 -2.3 -62.05 -14.3 -62.9 -24.55 -57.35 L-21.9 -47.9 Q-20.45 -43.25 -18.5 -38.85 -13.3 -27.1 -12.05 -14.35 -11.6 -3.05 -18.35 6.0 -21.5 10.15 -24.5 14.8 -27.7 19.7 -28.4 25.5 -28.8 32.6 -22.25 35.2 -19.4 36.25 -16.35 36.75 L-5.35 38.6 Q5.75 39.95 16.3 37.3 22.6 35.7 26.95 30.65 28.45 28.9 28.7 26.65 29.5 19.6 24.4 14.45 M15.4 39.9 Q0.3 42.15 -14.9 40.05 L-16.95 39.45 -17.2 39.8 Q-16.4 42.5 -13.3 43.1 -1.95 45.0 9.6 43.9 13.2 44.0 15.15 41.2 15.55 40.6 15.4 39.9 M4.05 60.85 Q3.05 57.55 3.15 54.2 3.25 49.75 6.4 46.55 -0.3 47.1 -7.05 46.2 L-5.7 48.2 Q-5.1 49.2 -4.9 50.4 -4.15 55.45 -3.7 60.6 L4.05 60.85" fill="#000000" fill-rule="evenodd" stroke="none"/>
    <path d="M20.5 -57.3 L19.45 -57.25 21.65 -56.1 Q17.4 -55.05 12.85 -55.4 3.0 -56.75 -7.0 -55.8 -13.85 -54.85 -20.3 -56.85 L-19.6 -58.2 -14.9 -59.25 Q2.95 -62.45 20.5 -57.3 M22.45 25.15 L23.35 22.25 Q24.3 18.45 24.4 14.45 29.5 19.6 28.7 26.65 28.45 28.9 26.95 30.65 22.6 35.7 16.3 37.3 5.75 39.95 -5.35 38.6 L3.05 37.6 Q12.35 36.7 18.95 30.1 L19.1 30.0 20.45 29.15 Q22.7 27.8 22.45 25.15 M4.05 60.85 L-3.7 60.6 Q-4.15 55.45 -4.9 50.4 -5.1 49.2 -5.7 48.2 L-7.05 46.2 Q-0.3 47.1 6.4 46.55 3.25 49.75 3.15 54.2 3.05 57.55 4.05 60.85" fill="#cc0000" fill-rule="evenodd" stroke="none"/>
    <path d="M-19.6 -58.2 L-19.95 -58.65 -22.25 -56.75 Q-15.95 -53.7 -8.75 -53.95 3.0 -54.25 14.8 -53.45 18.95 -53.65 22.8 -54.85 L22.9 -56.55 20.5 -57.3 Q2.95 -62.45 -14.9 -59.25 L-19.6 -58.2 M-12.05 -14.35 Q-13.3 -27.1 -18.5 -38.85 -20.45 -43.25 -21.9 -47.9 L-24.55 -57.35 Q-14.3 -62.9 -2.3 -62.05 12.05 -62.0 25.4 -57.15 27.2 -52.85 24.65 -48.45 18.6 -38.1 14.3 -27.05 11.55 -19.85 10.5 -12.65 9.5 -5.95 13.0 -0.35 17.95 7.65 24.4 14.45 24.3 18.45 23.35 22.25 L22.45 25.15 Q22.25 23.4 21.55 21.85 L20.0 19.15 Q16.25 14.6 14.6 8.95 L13.9 11.3 13.7 12.95 13.15 13.45 13.0 12.0 Q12.65 9.5 11.25 7.7 L12.55 4.65 12.0 4.4 11.45 5.05 Q9.6 7.9 10.15 11.35 10.7 15.5 6.6 16.35 4.05 15.7 3.8 12.8 3.25 6.6 4.1 0.5 L2.55 -5.6 Q2.95 -2.5 2.1 0.55 1.65 2.1 0.2 3.4 L-0.6 3.3 -0.35 -6.4 Q-0.2 -10.95 -2.1 -15.1 L-1.9 -13.65 Q-1.2 -8.95 -2.45 -4.35 -2.65 -1.55 -5.2 -0.5 L-5.8 -0.35 -6.95 -1.05 -10.05 -7.3 Q-9.15 -3.95 -9.75 -0.45 L-10.1 1.5 Q-11.15 -4.65 -11.05 -11.0 -11.0 -12.7 -12.05 -14.35 M-5.35 38.6 L-16.35 36.75 Q-19.4 36.25 -22.25 35.2 -28.8 32.6 -28.4 25.5 -26.05 22.4 -24.6 21.65 L-23.45 21.05 -23.35 24.05 -21.0 28.2 -20.6 28.55 Q-16.3 31.95 -11.05 32.85 -2.85 34.25 5.15 34.0 12.35 33.4 18.95 30.1 12.35 36.7 3.05 37.6 L-5.35 38.6" fill="#ff0000" fill-rule="evenodd" stroke="none"/>
    <path d="M-10.1 1.5 L-9.75 -0.45 Q-9.15 -3.95 -10.05 -7.3 L-6.95 -1.05 Q-7.3 1.75 -9.65 4.9 -11.5 7.3 -13.35 8.2 L-10.1 1.5 M-2.45 -4.35 Q-1.2 -8.95 -1.9 -13.65 L-2.1 -15.1 Q-0.2 -10.95 -0.35 -6.4 L-0.6 3.3 0.2 3.4 Q1.65 2.1 2.1 0.55 2.95 -2.5 2.55 -5.6 L4.1 0.5 Q2.75 5.4 -0.2 5.4 -3.65 5.4 -2.95 0.8 L-2.45 -4.35 M10.15 11.35 Q9.6 7.9 11.45 5.05 L12.0 4.4 12.55 4.65 11.25 7.7 Q12.65 9.5 13.0 12.0 L13.15 13.45 13.7 12.95 13.9 11.3 14.6 8.95 Q16.25 14.6 20.0 19.15 L19.4 18.85 Q13.55 16.5 10.15 11.35" fill="#ffdd00" fill-rule="evenodd" stroke="none"/>
    <path d="M-6.95 -1.05 L-5.8 -0.35 -5.2 -0.5 Q-2.65 -1.55 -2.45 -4.35 L-2.95 0.8 Q-3.65 5.4 -0.2 5.4 2.75 5.4 4.1 0.5 3.25 6.6 3.8 12.8 4.05 15.7 6.6 16.35 10.7 15.5 10.15 11.35 13.55 16.5 19.4 18.85 L20.0 19.15 21.55 21.85 Q22.25 23.4 22.45 25.15 22.7 27.8 20.45 29.15 L19.1 30.0 19.35 27.9 Q19.35 24.8 17.4 23.85 15.7 18.05 13.45 18.05 12.45 18.05 12.45 19.1 L13.1 22.55 9.6 22.65 9.05 21.35 Q9.55 20.65 9.25 19.95 8.15 17.25 5.55 18.25 L7.75 20.3 6.7 20.15 Q6.4 24.75 2.05 25.6 0.65 25.75 -0.7 25.05 L-1.25 22.3 Q-0.65 22.05 0.65 20.8 L1.9 19.4 -0.9 19.3 Q-0.55 18.85 -0.55 17.95 -1.05 16.45 -1.45 16.4 -1.45 16.8 -2.2 18.5 L-3.2 17.55 -6.2 21.4 -6.55 21.0 -6.5 17.65 Q-2.8 15.05 -3.05 10.9 L-6.35 13.55 Q-5.15 11.35 -6.65 9.3 L-6.9 9.15 -7.5 9.7 -7.7 11.15 -8.45 10.0 Q-9.5 11.15 -10.55 13.2 -12.05 16.2 -14.95 17.65 -19.8 20.2 -23.35 24.05 L-23.45 21.05 Q-21.6 16.2 -17.45 12.85 -14.95 10.8 -13.35 8.2 -11.5 7.3 -9.65 4.9 -7.3 1.75 -6.95 -1.05 M-6.9 13.9 L-8.0 14.65 -7.8 13.9 -6.9 13.9 M-21.0 28.2 L-20.65 28.45 -20.6 28.55 -21.0 28.2" fill="#ffff00" fill-rule="evenodd" stroke="none"/>
    <path d="M-12.05 -14.35 Q-11.0 -12.7 -11.05 -11.0 -11.15 -4.65 -10.1 1.5 L-13.35 8.2 Q-14.95 10.8 -17.45 12.85 -21.6 16.2 -23.45 21.05 L-24.6 21.65 Q-26.05 22.4 -28.4 25.5 -27.7 19.7 -24.5 14.8 -21.5 10.15 -18.35 6.0 -11.6 -3.05 -12.05 -14.35" fill="#fe6767" fill-rule="evenodd" stroke="none"/>
    <path d="M-0.9 19.3 L-1.3 19.6 -2.65 19.4 -2.2 18.5 Q-1.45 16.8 -1.45 16.4 -1.05 16.45 -0.55 17.95 -0.55 18.85 -0.9 19.3 M-6.35 13.55 L-6.9 13.9 -7.8 13.9 -8.35 13.35 -7.7 11.15 -7.5 9.7 -6.9 9.15 -6.65 9.3 Q-5.15 11.35 -6.35 13.55 M-20.65 28.45 L-20.8 27.75 Q-16.6 22.45 -10.6 19.2 L-10.45 19.95 Q-10.15 21.55 -10.6 23.35 -11.0 24.8 -10.25 25.45 L-6.6 24.5 -6.2 23.65 -5.75 26.05 Q1.25 29.15 8.3 26.2 L7.45 24.8 7.95 24.3 8.85 24.5 Q9.35 24.75 10.1 25.9 L12.95 26.65 15.8 26.7 16.55 25.7 14.95 23.5 17.4 23.85 Q19.35 24.8 19.35 27.9 L19.1 30.0 18.95 30.1 Q12.35 33.4 5.15 34.0 -2.85 34.25 -11.05 32.85 -16.3 31.95 -20.6 28.55 L-20.65 28.45 M9.05 21.35 L8.7 21.6 7.75 20.3 5.55 18.25 Q8.15 17.25 9.25 19.95 9.55 20.65 9.05 21.35" fill="#ffffff" fill-rule="evenodd" stroke="none"/>
    <path d="M-0.9 19.3 L1.9 19.4 0.65 20.8 Q-0.65 22.05 -1.25 22.3 L-0.7 25.05 Q0.65 25.75 2.05 25.6 6.4 24.75 6.7 20.15 L7.75 20.3 8.7 21.6 9.05 21.35 9.6 22.65 13.1 22.55 12.45 19.1 Q12.45 18.05 13.45 18.05 15.7 18.05 17.4 23.85 L14.95 23.5 16.55 25.7 15.8 26.7 12.95 26.65 10.1 25.9 Q9.35 24.75 8.85 24.5 L7.95 24.3 7.45 24.8 8.3 26.2 Q1.25 29.15 -5.75 26.05 L-6.2 23.65 -6.6 24.5 -10.25 25.45 Q-11.0 24.8 -10.6 23.35 -10.15 21.55 -10.45 19.95 L-10.6 19.2 Q-16.6 22.45 -20.8 27.75 L-20.65 28.45 -21.0 28.2 -23.35 24.05 Q-19.8 20.2 -14.95 17.65 -12.05 16.2 -10.55 13.2 -9.5 11.15 -8.45 10.0 L-7.7 11.15 -8.35 13.35 -7.8 13.9 -8.0 14.65 -6.9 13.9 -6.35 13.55 -3.05 10.9 Q-2.8 15.05 -6.5 17.65 L-6.55 21.0 -6.2 21.4 -3.2 17.55 -2.2 18.5 -2.65 19.4 -1.3 19.6 -0.9 19.3" fill="#ffff99" fill-rule="evenodd" stroke="none"/>
    <path d="M15.4 39.9 Q15.55 40.6 15.15 41.2 13.2 44.0 9.6 43.9 -1.95 45.0 -13.3 43.1 -16.4 42.5 -17.2 39.8 L-16.95 39.45 -14.9 40.05 Q0.3 42.15 15.4 39.9" fill="#990000" fill-rule="evenodd" stroke="none"/>
  </g>
</svg>
