<?xml version="1.0" encoding="UTF-8" standalone="no"?>
<svg xmlns:xlink="http://www.w3.org/1999/xlink" height="122.9px" width="41.5px" xmlns="http://www.w3.org/2000/svg">
  <g transform="matrix(1.0, 0.0, 0.0, 1.0, 20.15, 62.25)">
    <path d="M18.35 -56.15 Q15.5 -58.75 11.25 -58.8 L1.75 -59.25 Q-7.3 -59.65 -15.5 -56.35 L-17.0 -53.9 -16.65 -47.6 Q-14.8 -45.85 -12.25 -45.15 0.05 -41.4 12.15 -45.4 L15.0 -46.3 16.05 -46.05 16.0 -39.0 15.7 6.0 15.7 15.95 15.55 23.0 14.8 24.1 11.35 25.5 Q-3.45 28.4 -17.05 21.95 L-17.1 26.8 Q-16.9 32.3 -11.65 33.85 0.25 36.1 12.0 34.05 16.1 33.3 17.15 29.55 17.95 26.6 18.05 23.45 L18.35 6.0 18.25 -13.7 18.35 -56.15 M-2.75 -51.2 Q-8.8 -50.75 -13.8 -53.6 L-14.4 -54.1 Q0.3 -50.3 15.05 -53.65 L9.6 -51.7 -2.75 -51.2 M21.3 -55.05 L21.3 29.5 Q20.9 31.8 19.35 33.55 17.85 35.3 15.6 35.8 L13.7 40.25 Q16.15 41.65 15.45 44.45 15.2 45.35 14.45 46.0 12.9 47.25 10.8 47.7 L7.9 48.5 8.6 51.05 6.95 53.05 7.15 54.05 8.45 54.5 Q9.45 56.75 7.7 58.15 4.4 60.9 0.1 60.65 L-0.8 60.5 Q-4.95 59.5 -5.25 55.45 L-4.7 52.75 -6.9 50.1 -5.8 48.35 Q-9.2 48.4 -11.95 46.35 -13.5 45.15 -14.5 43.4 -12.65 41.6 -11.95 39.0 -11.5 37.45 -12.45 36.1 -18.5 34.85 -18.9 28.65 L-19.85 6.0 -20.05 -0.25 Q-20.4 -19.7 -19.7 -39.0 L-19.15 -52.65 Q-18.9 -57.3 -14.8 -58.85 -5.3 -62.25 4.65 -62.1 13.5 -63.05 20.3 -57.7 21.55 -56.7 21.3 -55.05 M-16.05 20.95 Q-1.75 27.05 13.25 22.65 L13.95 20.75 13.95 -4.45 Q13.65 -21.65 14.25 -39.0 L14.45 -44.5 11.65 -43.5 Q-0.15 -39.9 -12.0 -43.3 L-16.35 -45.55 -16.65 -45.8 -16.7 -44.9 -17.0 17.05 -17.05 20.4 -16.55 20.7 -16.05 20.95 M-4.65 46.45 L0.05 46.85 Q7.05 47.8 13.05 44.05 L14.0 43.4 11.8 42.0 12.3 36.7 Q5.15 38.3 -1.9 37.4 L-9.2 36.5 -10.1 36.5 Q-8.4 40.8 -12.05 43.25 -9.5 45.9 -5.85 46.25 L-4.65 46.45 M0.05 58.4 Q3.9 59.3 6.6 56.55 L7.05 55.95 6.65 55.3 5.4 55.4 Q4.5 52.95 6.7 51.55 L6.9 50.5 6.0 49.0 5.9 50.65 Q4.3 52.2 2.0 52.05 L0.75 51.85 -1.05 51.6 -4.35 49.75 -5.1 50.15 -3.9 51.05 -3.5 51.4 -2.95 51.75 Q-1.35 52.8 0.75 52.9 L3.1 53.1 Q2.05 53.9 0.55 53.9 L-2.4 53.4 -2.85 53.75 Q-3.55 53.75 -2.9 54.35 L-0.4 55.6 0.3 55.9 1.3 56.55 Q-1.8 56.95 -3.8 54.75 L-4.15 55.1 -4.85 55.8 Q-2.9 58.1 0.05 58.4 M1.0 57.8 L0.8 57.8 Q1.75 57.6 1.0 57.8 M4.65 50.25 L3.9 49.05 -2.5 48.8 -2.8 50.05 4.65 50.25" fill="#000000" fill-rule="evenodd" stroke="none"/>
    <path d="M18.35 -56.15 L18.25 -13.7 Q16.95 -5.95 16.95 2.0 L16.85 6.0 Q16.6 11.05 15.7 15.95 L15.7 6.0 16.0 -39.0 16.05 -46.05 15.0 -46.3 12.15 -45.4 Q0.05 -41.4 -12.25 -45.15 -11.65 -49.45 -7.3 -49.95 -4.8 -50.15 -2.75 -51.2 L9.6 -51.7 Q11.9 -51.9 15.05 -53.6 17.7 -55.05 18.35 -56.15 M-11.65 33.85 Q-16.9 32.3 -17.1 26.8 L-17.05 21.95 Q-3.45 28.4 11.35 25.5 4.85 33.5 -9.65 33.5 L-11.65 33.85 M-1.9 37.4 Q0.45 39.75 -1.15 42.45 L-2.5 43.75 Q-4.25 44.8 -4.65 46.45 L-5.85 46.25 -9.3 43.45 -9.0 42.5 Q-7.95 39.5 -9.2 36.5 L-1.9 37.4 M0.3 55.9 L-0.4 55.6 0.4 55.55 0.3 55.9 M-2.85 53.75 L-2.4 53.4 Q-0.75 54.4 0.75 54.5 L0.4 55.55 -2.85 53.75 M0.75 52.9 Q-1.35 52.8 -2.95 51.75 L-3.5 51.4 -1.05 51.6 0.75 51.85 0.75 52.9 M-3.9 51.05 L-5.1 50.15 -4.35 49.75 -3.9 51.05 M1.7 56.4 Q2.45 56.5 1.7 56.5 L1.7 56.4 M-0.25 58.05 Q-0.85 57.55 -2.5 56.75 L1.5 57.05 -0.25 58.05" fill="#660000" fill-rule="evenodd" stroke="none"/>
    <path d="M11.65 -57.25 Q14.0 -57.55 15.25 -55.85 L14.85 -55.7 11.95 -56.3 Q4.8 -56.5 -2.2 -54.55 L-0.15 -53.65 -2.85 -53.5 Q-4.15 -53.75 -3.8 -54.4 3.7 -56.95 11.65 -57.25 M-2.05 -57.6 L-3.5 -56.85 Q-7.95 -54.3 -12.15 -55.9 -6.8 -56.05 -2.05 -57.6" fill="#340000" fill-rule="evenodd" stroke="none"/>
    <path d="M11.65 -57.25 Q3.7 -56.95 -3.8 -54.4 -4.15 -53.75 -2.85 -53.5 L-0.15 -53.65 -2.2 -54.55 Q4.8 -56.5 11.95 -56.3 L14.85 -55.7 15.25 -55.85 Q14.0 -57.55 11.65 -57.25 M-12.25 -45.15 Q-14.8 -45.85 -16.65 -47.6 L-17.0 -53.9 -15.5 -56.35 Q-7.3 -59.65 1.75 -59.25 L11.25 -58.8 Q15.5 -58.75 18.35 -56.15 17.7 -55.05 15.05 -53.6 11.9 -51.9 9.6 -51.7 L15.05 -53.65 Q0.3 -50.3 -14.4 -54.1 L-13.8 -53.6 Q-8.8 -50.75 -2.75 -51.2 -4.8 -50.15 -7.3 -49.95 -11.65 -49.45 -12.25 -45.15 M-2.05 -57.6 Q-6.8 -56.05 -12.15 -55.9 -7.95 -54.3 -3.5 -56.85 L-2.05 -57.6" fill="#a33d3d" fill-rule="evenodd" stroke="none"/>
    <path d="M4.65 50.25 L-2.8 50.05 -2.5 48.8 3.9 49.05 4.65 50.25" fill="#ffffff" fill-rule="evenodd" stroke="none"/>
    <path d="M18.25 -13.7 L18.35 6.0 18.05 23.45 Q17.95 26.6 17.15 29.55 16.1 33.3 12.0 34.05 0.25 36.1 -11.65 33.85 L-9.65 33.5 Q4.85 33.5 11.35 25.5 L14.8 24.1 15.55 23.0 15.7 15.95 Q16.6 11.05 16.85 6.0 L16.95 2.0 Q16.95 -5.95 18.25 -13.7 M-1.9 37.4 Q5.15 38.3 12.3 36.7 L11.8 42.0 14.0 43.4 13.05 44.05 Q7.05 47.8 0.05 46.85 L-4.65 46.45 Q-4.25 44.8 -2.5 43.75 L-1.15 42.45 Q0.45 39.75 -1.9 37.4 M0.75 51.85 L2.0 52.05 Q4.3 52.2 5.9 50.65 L6.0 49.0 6.9 50.5 6.7 51.55 Q4.5 52.95 5.4 55.4 L6.65 55.3 7.05 55.95 6.6 56.55 Q3.9 59.3 0.05 58.4 L-0.25 58.05 1.5 57.05 -2.5 56.75 -4.15 55.1 -3.8 54.75 Q-1.8 56.95 1.3 56.55 L0.3 55.9 0.4 55.55 0.75 54.5 Q-0.75 54.4 -2.4 53.4 L0.55 53.9 Q2.05 53.9 3.1 53.1 L0.75 52.9 0.75 51.85 M1.7 56.4 L1.7 56.5 Q2.45 56.5 1.7 56.4 M1.0 57.8 Q1.75 57.6 0.8 57.8 L1.0 57.8" fill="#440000" fill-rule="evenodd" stroke="none"/>
    <path d="M-5.85 46.25 Q-9.5 45.9 -12.05 43.25 -8.4 40.8 -10.1 36.5 L-9.2 36.5 Q-7.95 39.5 -9.0 42.5 L-9.3 43.45 -5.85 46.25 M0.05 58.4 Q-2.9 58.1 -4.85 55.8 L-4.15 55.1 -2.5 56.75 Q-0.85 57.55 -0.25 58.05 L0.05 58.4 M-0.4 55.6 L-2.9 54.35 Q-3.55 53.75 -2.85 53.75 L0.4 55.55 -0.4 55.6 M-3.5 51.4 L-3.9 51.05 -4.35 49.75 -1.05 51.6 -3.5 51.4" fill="#963030" fill-rule="evenodd" stroke="none"/>
    <path d="M0.95 -8.1 Q-3.25 -6.8 -7.0 -8.8 L-7.2 -9.0 Q-2.15 -11.1 2.6 -8.8 L0.95 -8.1 M0.95 4.75 Q-3.25 5.9 -7.0 4.05 L-7.2 3.85 Q-2.15 1.75 2.6 4.05 L0.95 4.75 M-1.9 -21.1 L-5.05 -21.55 -1.95 -21.95 -1.9 -21.1" fill="#ffcc00" fill-rule="evenodd" stroke="none"/>
    <path d="M-12.0 -43.3 L-12.4 -39.0 Q-14.15 -19.9 -15.05 -0.85 L-15.4 6.0 -16.05 20.95 -16.55 20.7 -17.0 17.05 -16.7 -44.9 -16.35 -45.55 -12.0 -43.3" fill="#ffe519" fill-rule="evenodd" stroke="none"/>
    <path d="M0.95 -8.1 L2.6 -8.8 Q-2.15 -11.1 -7.2 -9.0 L-7.0 -8.8 Q-3.25 -6.8 0.95 -8.1 M-12.0 -43.3 Q-0.15 -39.9 11.65 -43.5 L14.45 -44.5 14.25 -39.0 Q13.65 -21.65 13.95 -4.45 L13.95 20.75 13.25 22.65 Q-1.75 27.05 -16.05 20.95 L-15.4 6.0 -15.05 -0.85 Q-14.15 -19.9 -12.4 -39.0 L-12.0 -43.3 M-16.55 20.7 L-17.05 20.4 -17.0 17.05 -16.55 20.7 M-16.7 -44.9 L-16.65 -45.8 -16.35 -45.55 -16.7 -44.9 M0.95 4.75 L2.6 4.05 Q-2.15 1.75 -7.2 3.85 L-7.0 4.05 Q-3.25 5.9 0.95 4.75 M-1.9 -21.1 L-1.95 -21.95 -5.05 -21.55 -1.9 -21.1" fill="#ffcc00" fill-rule="evenodd" stroke="none"/>
  </g>
</svg>
