<?xml version="1.0" encoding="UTF-8" standalone="no"?>
<svg xmlns:xlink="http://www.w3.org/1999/xlink" height="122.65px" width="59.25px" xmlns="http://www.w3.org/2000/svg">
  <g transform="matrix(1.0, 0.0, 0.0, 1.0, 0.0, 0.0)">
    <path d="M41.9 5.1 Q43.5 5.1 44.35 6.3 35.55 5.2 26.9 7.6 L28.95 8.5 27.6 8.8 Q25.7 9.1 25.3 7.75 33.4 5.05 41.9 5.1 M27.05 4.55 L25.6 5.3 Q21.15 7.85 16.95 6.25 22.3 6.1 27.05 4.55" fill="#340000" fill-rule="evenodd" stroke="none"/>
    <path d="M41.9 5.1 Q33.4 5.05 25.3 7.75 25.7 9.1 27.6 8.8 L28.95 8.5 26.9 7.6 Q35.55 5.2 44.35 6.3 43.5 5.1 41.9 5.1 M47.45 6.0 Q46.8 7.1 44.15 8.55 41.0 10.25 38.7 10.45 L44.15 8.5 Q29.5 11.95 14.7 8.05 L15.3 8.55 Q20.3 11.25 26.35 10.95 24.3 12.0 21.8 12.2 17.45 12.7 16.85 17.0 12.3 15.85 9.7 12.0 L8.65 10.35 13.6 5.8 Q25.2 2.25 37.3 2.5 42.9 2.8 47.45 6.0 M13.35 84.7 L13.6 85.65 Q14.55 92.05 19.3 96.3 11.4 95.0 6.6 88.7 2.7 83.55 3.2 77.2 3.35 77.05 3.6 77.05 L4.15 77.85 12.1 84.45 13.35 84.7 M27.05 4.55 Q22.3 6.1 16.95 6.25 21.15 7.85 25.6 5.3 L27.05 4.55" fill="#a33d3d" fill-rule="evenodd" stroke="none"/>
    <path d="M47.45 6.0 Q47.4 6.45 48.3 7.05 L49.15 7.55 Q52.1 10.7 53.15 14.75 54.2 18.85 52.3 22.3 48.4 29.5 45.0 37.05 42.8 41.85 42.45 46.9 41.55 58.75 49.2 68.1 52.1 71.6 54.45 75.65 56.1 78.5 55.95 81.95 55.55 90.8 46.8 93.75 L44.65 94.55 Q32.25 99.1 19.3 96.3 14.55 92.05 13.6 85.65 L13.35 84.7 Q26.35 90.4 40.45 87.65 L43.9 86.25 44.65 85.15 44.8 78.1 Q33.3 46.6 45.15 16.1 L44.1 15.85 41.25 16.75 Q29.15 20.75 16.85 17.0 17.45 12.7 21.8 12.2 24.3 12.0 26.35 10.95 L38.7 10.45 Q41.0 10.25 44.15 8.55 46.8 7.1 47.45 6.0 M3.2 77.2 L3.35 76.7 3.6 77.05 Q3.35 77.05 3.2 77.2 M19.9 98.65 L27.2 99.55 Q29.55 101.9 27.95 104.6 L26.6 105.9 Q24.85 106.95 24.45 108.6 L23.25 108.4 19.8 105.6 20.1 104.65 Q21.15 101.65 19.9 98.65 M28.05 113.75 L29.85 114.0 29.85 115.05 Q27.75 114.95 26.15 113.9 L25.6 113.55 28.05 113.75 M29.4 118.05 L28.7 117.75 29.5 117.7 29.4 118.05 M26.25 115.9 L26.7 115.55 Q28.35 116.55 29.85 116.65 L29.5 117.7 26.25 115.9 M25.2 113.2 L24.0 112.3 24.75 111.9 25.2 113.2 M28.85 120.2 Q28.25 119.7 26.6 118.9 L30.6 119.2 28.85 120.2 M30.8 118.65 L30.8 118.55 Q31.55 118.65 30.8 118.65" fill="#660000" fill-rule="evenodd" stroke="none"/>
    <path d="M19.3 96.3 Q32.25 99.1 44.65 94.55 L46.8 93.75 Q55.55 90.8 55.95 81.95 56.1 78.5 54.45 75.65 52.1 71.6 49.2 68.1 41.55 58.75 42.45 46.9 42.8 41.85 45.0 37.05 48.4 29.5 52.3 22.3 54.2 18.85 53.15 14.75 52.1 10.7 49.15 7.55 L48.3 7.05 Q47.4 6.45 47.45 6.0 42.9 2.8 37.3 2.5 25.2 2.25 13.6 5.8 L8.65 10.35 9.7 12.0 Q12.3 15.85 16.85 17.0 29.15 20.75 41.25 16.75 L44.1 15.85 45.15 16.1 Q33.3 46.6 44.8 78.1 L44.65 85.15 43.9 86.25 40.45 87.65 Q26.35 90.4 13.35 84.7 L12.1 84.45 4.15 77.85 3.6 77.05 3.35 76.7 3.2 77.2 Q2.7 83.55 6.6 88.7 11.4 95.0 19.3 96.3 M38.7 10.45 L26.35 10.95 Q20.3 11.25 15.3 8.55 L14.7 8.05 Q29.5 11.95 44.15 8.5 L38.7 10.45 M47.6 3.0 Q52.75 6.85 54.75 13.25 56.75 18.3 54.2 23.15 50.05 31.25 46.25 39.7 45.15 42.2 45.0 45.1 44.2 58.65 53.15 68.75 57.65 73.8 59.0 80.2 59.6 82.9 58.75 85.5 55.45 95.45 44.7 97.95 L42.8 102.4 Q45.35 103.8 44.45 106.5 L43.6 107.85 Q40.95 110.2 37.0 110.65 L37.7 113.2 36.05 115.2 36.25 116.2 37.55 116.65 Q37.95 117.65 37.75 118.8 L37.25 119.85 Q34.9 122.4 31.5 122.55 27.6 123.05 24.95 120.5 22.4 118.1 24.2 115.65 L24.4 114.9 22.2 112.25 23.3 110.5 21.15 110.2 Q16.7 109.4 14.6 105.55 L16.5 102.75 17.05 101.75 Q17.85 99.9 16.65 98.25 10.7 97.85 6.65 93.55 2.85 89.55 0.6 84.55 0.0 83.15 0.0 81.6 -0.15 72.2 6.95 65.55 10.3 62.35 12.35 58.15 15.2 52.25 14.15 45.6 12.8 37.25 8.1 30.25 4.6 25.05 3.9 19.05 3.25 13.45 6.85 9.3 9.45 6.2 12.85 4.25 19.85 0.3 28.15 0.3 L43.1 0.85 Q45.6 1.45 47.6 3.0 M12.5 82.65 Q27.0 89.5 42.35 84.8 L43.05 82.9 40.75 74.75 Q33.35 45.85 43.55 17.65 L40.75 18.65 Q28.7 22.3 16.35 18.65 12.15 17.45 9.65 13.75 L8.0 11.15 Q4.7 18.3 9.1 24.8 17.1 36.8 16.45 51.4 16.2 56.75 13.65 61.5 9.6 69.0 3.9 75.4 L12.25 82.5 12.3 82.55 12.5 82.65 M19.9 98.65 L19.0 98.65 Q20.7 102.95 17.05 105.4 19.6 108.05 23.25 108.4 L24.45 108.6 29.15 109.0 Q36.2 109.95 42.15 106.15 L43.1 105.55 40.9 104.15 41.4 98.85 Q34.35 100.5 27.2 99.55 L19.9 98.65 M29.85 114.0 L28.05 113.75 24.75 111.9 24.0 112.3 25.2 113.2 25.6 113.55 26.15 113.9 Q27.75 114.95 29.85 115.05 L32.2 115.25 Q31.15 116.05 29.65 116.05 L26.7 115.55 26.25 115.9 Q25.55 115.9 26.2 116.5 L26.65 117.05 28.7 117.75 29.4 118.05 30.4 118.7 Q27.3 119.1 25.3 116.9 L24.95 117.25 24.25 117.95 Q26.2 120.25 29.15 120.55 33.0 121.45 35.7 118.7 L36.15 118.1 35.75 117.45 34.5 117.55 Q33.6 115.1 35.8 113.7 L36.0 112.65 35.1 111.15 35.0 112.8 Q33.4 114.35 31.1 114.2 L29.85 114.0 M29.9 119.95 Q30.85 119.75 30.1 119.95 L29.9 119.95 M26.3 112.2 Q30.05 114.25 33.75 112.4 L33.0 111.2 26.6 110.95 26.3 112.2" fill="#000000" fill-rule="evenodd" stroke="none"/>
    <path d="M16.35 18.65 Q28.7 22.3 40.75 18.65 L43.55 17.65 Q33.35 45.85 40.75 74.75 L43.05 82.9 42.35 84.8 Q27.0 89.5 12.5 82.65 L12.45 82.35 12.3 82.55 12.25 82.5 Q11.05 74.2 14.15 66.25 L16.75 58.6 Q20.85 44.75 16.9 30.6 15.25 24.65 16.35 18.65 M33.85 23.95 L33.8 23.9 33.75 23.95 33.6 27.9 27.45 27.85 26.75 25.15 25.8 24.8 24.85 27.95 20.15 28.45 Q20.65 27.45 20.55 26.25 20.4 24.75 19.2 23.95 L17.85 24.1 18.0 29.6 35.85 30.0 36.05 29.25 Q36.95 26.65 35.9 24.05 L34.65 23.6 33.85 23.95 M19.95 37.9 L21.35 37.95 21.65 35.35 34.35 34.8 34.0 33.3 21.5 33.45 21.0 30.85 20.0 30.85 19.95 37.9 M26.7 41.05 L24.1 40.65 24.1 40.6 24.05 40.6 24.05 40.55 26.65 40.3 26.7 41.05 M28.55 39.9 Q30.7 40.3 32.5 39.1 L33.4 38.35 33.2 37.1 Q26.2 38.15 19.8 40.6 25.2 43.3 31.1 44.15 L30.65 48.1 22.25 48.2 21.9 48.85 22.2 49.55 32.0 49.6 32.05 44.2 33.35 43.35 33.2 42.95 Q31.2 41.4 28.5 41.35 L28.55 39.9 M31.45 51.65 Q28.9 50.5 26.25 50.55 22.6 50.6 21.7 53.85 23.3 56.15 26.1 56.4 30.4 57.1 31.7 53.35 L31.45 51.65 M30.8 59.3 L30.4 60.05 Q26.45 61.25 22.75 59.45 L23.55 58.7 23.5 57.2 22.25 57.05 Q20.6 58.55 21.25 60.8 26.75 64.0 32.65 61.45 34.2 57.15 29.7 56.85 L28.95 57.2 29.5 58.25 Q30.05 59.05 30.8 59.3 M29.85 53.35 L26.7 54.55 24.9 54.2 Q24.0 53.85 23.45 53.15 24.75 52.45 26.3 52.15 28.35 52.2 29.85 53.35 M21.6 66.2 L24.9 65.15 Q28.85 64.65 32.35 66.2 26.8 67.95 21.6 66.2 M24.95 72.05 L24.9 74.35 17.6 75.0 Q18.8 77.25 21.05 77.6 L36.45 76.4 36.55 74.8 27.55 74.4 27.05 72.05 36.6 71.9 36.75 70.7 Q26.9 68.35 17.25 71.3 17.85 72.15 18.85 72.25 L22.75 72.1 24.95 72.05 M35.1 64.5 Q29.8 62.75 24.15 63.5 20.15 63.15 18.4 66.7 19.15 67.3 20.05 67.65 27.0 70.55 34.05 67.85 36.45 66.9 35.1 64.5 M16.9 79.95 L17.05 80.7 Q27.45 85.55 38.1 81.35 36.6 76.95 31.9 77.65 L30.85 77.85 30.8 78.7 34.05 80.1 33.35 80.8 Q26.5 81.8 19.65 80.2 L20.2 79.6 21.1 79.45 21.05 77.95 17.8 78.0 Q16.8 78.8 16.9 79.95" fill="#ffcc00" fill-rule="evenodd" stroke="none"/>
    <path d="M27.2 99.55 Q34.35 100.5 41.4 98.85 L40.9 104.15 43.1 105.55 42.15 106.15 Q36.2 109.95 29.15 109.0 L24.45 108.6 Q24.85 106.95 26.6 105.9 L27.95 104.6 Q29.55 101.9 27.2 99.55 M29.85 114.0 L31.1 114.2 Q33.4 114.35 35.0 112.8 L35.1 111.15 36.0 112.65 35.8 113.7 Q33.6 115.1 34.5 117.55 L35.75 117.45 36.15 118.1 35.7 118.7 Q33.0 121.45 29.15 120.55 L28.85 120.2 30.6 119.2 26.6 118.9 24.95 117.25 25.3 116.9 Q27.3 119.1 30.4 118.7 L29.4 118.05 29.5 117.7 29.85 116.65 Q28.35 116.55 26.7 115.55 L29.65 116.05 Q31.15 116.05 32.2 115.25 L29.85 115.05 29.85 114.0 M29.9 119.95 L30.1 119.95 Q30.85 119.75 29.9 119.95 M30.8 118.65 Q31.55 118.65 30.8 118.55 L30.8 118.65" fill="#440000" fill-rule="evenodd" stroke="none"/>
    <path d="M16.35 18.65 Q15.25 24.65 16.9 30.6 20.85 44.75 16.75 58.6 L14.15 66.25 Q11.05 74.2 12.25 82.5 L3.9 75.4 Q9.6 69.0 13.65 61.5 16.2 56.75 16.45 51.4 17.1 36.8 9.1 24.8 4.7 18.3 8.0 11.15 L9.65 13.75 Q12.15 17.45 16.35 18.65" fill="#ffde12" fill-rule="evenodd" stroke="none"/>
    <path d="M12.3 82.55 L12.45 82.35 12.5 82.65 12.3 82.55 M33.75 23.95 L33.85 23.95 34.65 23.6 35.9 24.05 Q36.95 26.65 36.05 29.25 L35.85 30.0 18.0 29.6 17.85 24.1 19.2 23.95 Q20.4 24.75 20.55 26.25 20.65 27.45 20.15 28.45 L24.85 27.95 25.8 24.8 26.75 25.15 27.45 27.85 33.6 27.9 33.75 23.95 M31.45 51.65 L31.7 53.35 Q30.4 57.1 26.1 56.4 23.3 56.15 21.7 53.85 22.6 50.6 26.25 50.55 28.9 50.5 31.45 51.65 M28.55 39.9 L28.5 41.35 Q31.2 41.4 33.2 42.95 L33.35 43.35 32.05 44.2 32.0 49.6 22.2 49.55 21.9 48.85 22.25 48.2 30.65 48.1 31.1 44.15 Q25.2 43.3 19.8 40.6 26.2 38.15 33.2 37.1 L33.4 38.35 32.5 39.1 Q30.7 40.3 28.55 39.9 M26.7 41.05 L26.65 40.3 24.05 40.55 24.05 40.6 24.1 40.6 24.1 40.65 26.7 41.05 M19.95 37.9 L20.0 30.85 21.0 30.85 21.5 33.45 34.0 33.3 34.35 34.8 21.65 35.35 21.35 37.95 19.95 37.9 M30.8 59.3 Q30.05 59.05 29.5 58.25 L28.95 57.2 29.7 56.85 Q34.2 57.15 32.65 61.45 26.75 64.0 21.25 60.8 20.6 58.55 22.25 57.05 L23.5 57.2 23.55 58.7 22.75 59.45 Q26.45 61.25 30.4 60.05 L30.8 59.3 M29.85 53.35 Q28.35 52.2 26.3 52.15 24.75 52.45 23.45 53.15 24.0 53.85 24.9 54.2 L26.7 54.55 29.85 53.35 M21.6 66.2 Q26.8 67.95 32.35 66.2 28.85 64.65 24.9 65.15 L21.6 66.2 M16.9 79.95 Q16.8 78.8 17.8 78.0 L21.05 77.95 21.1 79.45 20.2 79.6 19.65 80.2 Q26.5 81.8 33.35 80.8 L34.05 80.1 30.8 78.7 30.85 77.85 31.9 77.65 Q36.6 76.95 38.1 81.35 27.45 85.55 17.05 80.7 L16.9 79.95 M35.1 64.5 Q36.45 66.9 34.05 67.85 27.0 70.55 20.05 67.65 19.15 67.3 18.4 66.7 20.15 63.15 24.15 63.5 29.8 62.75 35.1 64.5 M24.95 72.05 L22.75 72.1 18.85 72.25 Q17.85 72.15 17.25 71.3 26.9 68.35 36.75 70.7 L36.6 71.9 27.05 72.05 27.55 74.4 36.55 74.8 36.45 76.4 21.05 77.6 Q18.8 77.25 17.6 75.0 L24.9 74.35 24.95 72.05" fill="#ffcc00" fill-rule="evenodd" stroke="none"/>
    <path d="M23.25 108.4 Q19.6 108.05 17.05 105.4 20.7 102.95 19.0 98.65 L19.9 98.65 Q21.15 101.65 20.1 104.65 L19.8 105.6 23.25 108.4 M29.15 120.55 Q26.2 120.25 24.25 117.95 L24.95 117.25 26.6 118.9 Q28.25 119.7 28.85 120.2 L29.15 120.55 M28.7 117.75 L26.65 117.05 26.2 116.5 Q25.55 115.9 26.25 115.9 L29.5 117.7 28.7 117.75 M25.6 113.55 L25.2 113.2 24.75 111.9 28.05 113.75 25.6 113.55" fill="#963030" fill-rule="evenodd" stroke="none"/>
    <path d="M26.3 112.2 L26.6 110.95 33.0 111.2 33.75 112.4 Q30.05 114.25 26.3 112.2" fill="#ffffff" fill-rule="evenodd" stroke="none"/>
  </g>
</svg>
