<?xml version="1.0" encoding="UTF-8" standalone="no"?>
<svg xmlns:xlink="http://www.w3.org/1999/xlink" height="167.3px" width="47.8px" xmlns="http://www.w3.org/2000/svg">
  <g transform="matrix(1.0, 0.0, 0.0, 1.0, 25.25, 98.4)">
    <path d="M19.6 -90.8 L19.2 -91.3 18.6 -91.5 18.55 -91.55 Q12.75 -93.45 5.95 -89.7 L6.2 -84.75 Q12.85 -84.25 18.45 -87.6 L19.2 -88.1 20.1 -88.7 19.6 -90.8 M3.45 -92.0 Q4.65 -93.9 4.2 -95.95 L3.55 -96.8 Q0.15 -98.8 -3.4 -97.7 -7.1 -96.65 -9.4 -93.5 -10.7 -91.1 -10.55 -88.25 L-8.55 -87.3 -8.35 -86.65 -5.6 -69.65 -6.2 -69.75 -8.65 -86.45 Q-16.45 -88.4 -24.1 -86.1 -24.9 -84.7 -23.5 -83.4 -21.2 -81.25 -19.9 -78.35 L-19.95 -78.25 Q-23.25 -76.15 -22.75 -73.35 -21.85 -69.55 -15.3 -64.9 L-15.25 -64.9 Q-10.2 -61.35 -1.8 -57.35 L-1.0 -56.95 -2.3 -58.05 -4.65 -61.35 Q-5.2 -62.6 -5.4 -64.0 L-4.15 -61.75 0.15 -57.35 3.25 -58.1 Q5.2 -60.35 6.25 -63.35 6.7 -64.55 7.95 -65.1 L5.4 -58.5 8.8 -59.05 17.15 -80.95 18.7 -85.6 Q12.9 -82.25 6.4 -83.65 L2.45 -84.6 Q2.55 -74.2 0.95 -63.85 L1.95 -86.2 3.45 -92.0 M-19.65 -77.95 L-18.0 -75.3 -12.15 -66.1 -12.7 -65.45 -15.5 -69.55 Q-18.4 -72.5 -19.4 -76.1 L-19.65 -77.95 M5.15 -89.25 L5.15 -91.45 5.3 -92.35 4.7 -91.75 Q1.05 -88.0 4.5 -85.1 L4.55 -85.1 Q4.75 -84.95 5.05 -84.85 L5.15 -89.25 M19.2 -91.3 Q20.2 -91.8 21.05 -89.05 L10.3 -58.85 Q12.45 -56.2 12.3 -52.6 12.15 -50.15 10.3 -48.55 12.4 -44.15 10.6 -39.9 9.95 -38.45 8.3 -37.85 26.55 -8.2 21.45 24.5 19.0 40.4 6.0 49.7 L5.7 52.9 Q5.45 54.45 4.55 55.75 2.05 68.55 -1.9 68.7 L-1.85 68.75 -4.35 68.55 Q-6.55 61.3 -7.0 55.45 L-7.65 54.45 Q-8.9 51.95 -8.4 49.3 L-8.45 48.85 -8.85 48.05 Q-33.05 20.6 -18.55 -14.05 -14.15 -24.6 -6.45 -33.05 -9.3 -33.9 -9.8 -37.05 -10.55 -41.8 -7.0 -44.8 -8.65 -48.6 -6.9 -52.3 -5.55 -55.2 -2.3 -56.45 L-6.4 -58.6 Q-21.75 -66.55 -23.75 -71.95 L-24.4 -74.45 Q-24.75 -76.05 -23.7 -76.7 -23.7 -80.55 -25.15 -84.6 L-25.25 -85.15 -25.2 -85.35 Q-25.0 -86.4 -24.45 -86.7 L-23.45 -87.3 -23.3 -87.35 -11.5 -87.7 Q-11.55 -100.1 3.35 -98.15 6.35 -97.7 6.15 -94.2 L5.85 -90.75 Q14.7 -95.2 19.2 -91.3 M-5.6 -48.35 L-5.75 -46.75 Q-5.6 -46.1 -5.05 -45.4 L-3.1 -45.8 -0.8 -46.4 -1.6 -46.0 Q-4.85 -44.15 -7.05 -40.75 L-7.9 -38.8 Q-8.2 -35.85 -5.65 -34.6 L-5.0 -34.25 Q-4.65 -37.75 -2.15 -40.45 L-0.7 -41.7 1.3 -42.8 0.95 -42.35 -2.75 -37.9 -3.55 -36.9 -3.7 -34.45 Q6.2 -35.05 9.5 -44.2 L9.65 -44.65 Q10.0 -46.3 9.55 -48.0 6.75 -48.25 4.3 -47.9 L2.75 -47.65 Q6.2 -49.15 9.1 -51.05 12.0 -52.9 10.05 -55.95 L9.25 -58.05 Q-2.55 -57.9 -5.6 -48.35 M7.85 -53.65 Q5.05 -50.5 0.95 -50.0 L-2.95 -49.8 7.85 -53.65 M-4.95 -41.8 L-3.5 -41.5 Q-5.2 -40.2 -5.55 -38.15 L-5.95 -37.6 Q-6.9 -39.6 -5.35 -41.35 L-4.95 -41.8 M7.05 -37.25 L7.85 -37.6 7.0 -37.25 6.65 -37.1 5.3 -36.5 Q3.5 -35.7 1.8 -34.7 L0.4 -33.65 Q-6.0 -26.95 -9.3 -18.25 L-8.75 -17.2 -9.8 -17.5 -10.55 -17.7 -9.1 -21.6 -6.25 -26.25 Q-3.9 -29.85 -1.25 -32.85 L-6.8 -28.6 Q-19.6 -17.0 -21.95 3.75 -23.55 18.0 -18.7 29.85 -15.9 36.45 -11.45 41.75 L-6.6 47.35 4.05 47.6 4.35 47.65 4.6 47.45 Q20.15 37.25 21.45 19.5 21.65 16.55 21.5 13.45 20.3 -8.0 11.05 -27.75 9.15 -31.8 7.05 -37.25 M-1.25 -26.1 Q0.75 -30.35 3.85 -33.95 L6.0 -36.4 Q1.75 -26.9 -0.65 -16.6 L-0.55 -16.05 -2.2 -15.75 Q-3.2 -21.15 -1.25 -26.1 M14.5 10.25 Q14.15 4.7 12.35 -0.75 L12.8 -1.25 Q18.1 7.75 15.2 16.8 L14.8 17.25 14.35 17.3 14.5 10.25 M12.55 20.65 Q11.85 23.6 10.2 26.6 L9.8 27.1 Q12.35 18.5 11.6 9.35 L12.15 10.85 12.55 20.65 M-1.9 41.85 L1.25 45.25 0.7 46.05 -6.4 38.4 Q-9.45 33.9 -10.9 28.5 -11.75 25.15 -11.75 21.75 -9.35 33.1 -1.9 41.85 M3.95 33.25 L3.2 34.35 6.65 23.75 Q7.2 28.75 3.95 33.25 M1.15 63.5 Q2.25 60.95 3.55 56.55 L2.4 56.85 1.4 57.05 -2.55 57.15 -2.65 57.15 -2.9 57.15 -3.65 57.0 -4.85 56.7 -5.15 56.6 -5.95 56.35 Q-5.2 62.5 -3.85 66.6 L-3.1 68.15 -2.75 68.25 -2.0 68.0 -1.65 67.85 -1.25 67.55 -0.3 66.2 1.15 63.5 M3.8 54.9 Q5.15 52.2 4.2 49.45 -0.4 47.9 -6.1 48.9 -6.8 49.35 -7.2 50.5 -7.6 51.6 -5.75 54.2 -3.95 56.8 3.8 54.9 M-13.4 -72.0 Q-15.3 -75.15 -16.4 -78.65 L-17.45 -82.75 -17.7 -84.05 -17.3 -83.05 -12.15 -70.15 -13.4 -72.0 M-23.0 -77.45 L-21.25 -78.4 Q-21.6 -80.6 -23.4 -81.65 L-23.0 -77.85 -23.15 -77.5 -23.25 -77.3 -23.0 -77.45" fill="#000000" fill-rule="evenodd" stroke="none"/>
    <path d="M19.6 -90.8 L18.6 -91.5 19.2 -91.3 19.6 -90.8 M-9.4 -93.5 Q-7.1 -96.65 -3.4 -97.7 0.15 -98.8 3.55 -96.8 L4.2 -95.95 Q4.65 -93.9 3.45 -92.0 4.85 -96.15 0.7 -97.35 L-3.2 -97.15 -2.35 -95.1 -1.3 -95.15 Q1.65 -92.4 0.0 -88.4 -1.15 -85.7 -0.85 -82.95 L0.25 -83.05 1.95 -86.2 0.95 -63.85 Q2.55 -74.2 2.45 -84.6 L6.4 -83.65 Q12.9 -82.25 18.7 -85.6 L17.15 -80.95 Q14.35 -78.35 12.9 -74.85 9.7 -67.35 8.8 -59.05 L5.4 -58.5 7.95 -65.1 Q6.7 -64.55 6.25 -63.35 5.2 -60.35 3.25 -58.1 L8.65 -70.25 8.55 -70.25 Q5.85 -69.2 4.7 -65.95 5.0 -71.65 7.8 -76.65 9.5 -79.6 8.35 -82.8 6.9 -82.75 6.35 -81.45 2.1 -71.5 1.85 -60.6 L2.2 -60.35 1.5 -58.45 Q-2.95 -62.15 -4.2 -67.75 -4.4 -68.65 -5.15 -69.05 L-4.15 -61.75 -5.4 -64.0 Q-5.2 -62.6 -4.65 -61.35 -13.9 -66.75 -17.55 -76.9 L-18.0 -75.3 -19.65 -77.95 -19.9 -78.35 Q-21.2 -81.25 -23.5 -83.4 -24.9 -84.7 -24.1 -86.1 -16.45 -88.4 -8.65 -86.45 L-6.2 -69.75 -5.6 -69.65 -8.35 -86.65 Q-7.95 -86.5 -7.85 -87.05 -7.45 -89.45 -7.95 -92.1 -8.25 -93.5 -9.4 -93.5 M5.15 -89.25 L5.05 -84.85 Q4.75 -84.95 4.55 -85.1 L5.15 -89.25 M10.05 -55.95 L8.1 -56.7 7.15 -56.0 Q7.2 -55.1 8.0 -54.5 L8.65 -54.05 Q2.65 -48.0 -5.6 -48.35 -2.55 -57.9 9.25 -58.05 L10.05 -55.95 M-5.75 -46.75 Q-5.15 -45.75 -3.1 -45.8 L-5.05 -45.4 Q-5.6 -46.1 -5.75 -46.75 M-1.6 -46.0 Q1.55 -46.5 4.3 -47.9 6.75 -48.25 9.55 -48.0 10.0 -46.3 9.65 -44.65 L9.3 -45.85 9.15 -46.05 Q8.1 -45.8 7.55 -44.55 4.4 -37.9 -2.75 -37.9 L0.95 -42.35 4.15 -44.3 6.8 -46.2 Q6.7 -46.9 5.95 -46.8 5.35 -46.75 2.3 -44.7 0.45 -43.65 -2.7 -42.9 L-5.15 -42.1 -4.95 -41.8 -5.35 -41.35 Q-6.9 -39.6 -5.95 -37.6 L-6.1 -37.95 Q-6.6 -37.95 -6.9 -38.5 -7.25 -39.15 -7.75 -39.05 L-7.9 -38.8 -7.05 -40.75 Q-4.85 -44.15 -1.6 -46.0 M4.45 -56.0 Q2.9 -55.85 0.45 -54.2 -2.05 -52.6 -1.95 -51.85 -1.9 -51.2 -1.1 -51.25 -0.65 -51.35 6.4 -55.55 6.3 -56.25 4.45 -56.0 M7.85 -53.65 L-2.95 -49.8 0.95 -50.0 Q5.05 -50.5 7.85 -53.65 M-3.5 -41.5 L-0.7 -41.7 -2.15 -40.45 -3.0 -40.7 -5.55 -38.15 Q-5.2 -40.2 -3.5 -41.5 M7.0 -37.25 L7.05 -37.25 Q9.15 -31.8 11.05 -27.75 20.3 -8.0 21.5 13.45 21.65 16.55 21.45 19.5 21.05 18.9 20.3 19.0 20.2 19.0 13.65 30.75 6.15 42.55 1.7 43.1 0.35 43.25 -1.9 41.85 -9.35 33.1 -11.75 21.75 -11.75 25.15 -10.9 28.5 -9.45 33.9 -6.4 38.4 L-17.9 29.75 -18.7 29.85 Q-23.55 18.0 -21.95 3.75 -19.6 -17.0 -6.8 -28.6 -8.2 -25.75 -9.1 -21.6 L-10.55 -17.7 -9.8 -17.5 -9.7 -16.6 Q-7.8 -16.85 -6.75 -18.5 -3.7 -23.5 -1.65 -29.05 L-2.2 -29.15 2.55 -34.15 1.8 -34.7 Q3.5 -35.7 5.3 -36.5 1.3 -33.0 -0.6 -28.25 L-1.25 -26.1 Q-3.2 -21.15 -2.2 -15.75 L-0.55 -16.05 -0.65 -16.6 Q0.6 -16.75 1.1 -19.1 2.15 -21.65 5.2 -31.65 L6.55 -33.45 Q6.45 -34.1 6.0 -34.3 L6.75 -36.8 6.65 -37.1 7.0 -37.25 M4.6 47.45 L4.35 47.65 4.05 47.6 4.6 47.45 M15.2 16.8 Q18.1 7.75 12.8 -1.25 L12.35 -0.75 Q14.15 4.7 14.5 10.25 13.45 4.1 12.3 3.95 12.0 6.4 12.05 10.55 L12.15 10.85 11.6 9.35 Q12.35 18.5 9.8 27.1 L10.2 26.6 Q11.85 23.6 12.55 20.65 L12.8 22.3 14.2 22.45 Q15.85 19.95 15.2 16.8 M11.15 18.7 Q10.85 16.35 9.9 16.15 L6.15 32.45 Q6.55 32.9 7.0 33.0 7.9 31.35 9.55 26.1 11.35 20.35 11.15 18.7 M3.95 33.25 Q7.2 28.75 6.65 23.75 L3.2 34.35 3.95 33.25 M-13.4 -72.0 L-11.9 -69.3 Q-11.3 -68.4 -10.5 -68.55 L-10.15 -69.4 Q-13.3 -74.5 -15.05 -80.0 -15.75 -82.2 -16.85 -83.95 L-17.3 -83.05 -17.7 -84.05 -17.45 -82.75 -17.6 -81.5 -16.4 -78.65 Q-15.3 -75.15 -13.4 -72.0 M-19.95 -78.25 L-19.65 -77.95 -19.4 -76.1 -19.7 -75.55 Q-19.15 -69.5 -15.3 -64.9 -21.85 -69.55 -22.75 -73.35 -23.25 -76.15 -19.95 -78.25 M-9.8 -78.25 L-9.45 -75.0 Q-9.25 -72.35 -7.65 -70.5 L-7.1 -70.9 Q-7.45 -75.7 -8.75 -80.45 -9.35 -82.7 -10.4 -82.4 L-9.8 -78.25 M-23.15 -77.5 L-23.0 -77.45 -23.25 -77.3 -23.15 -77.5 M-1.8 -57.35 L-2.3 -58.05 -1.0 -56.95 -1.8 -57.35 M-8.6 -7.85 L-8.5 -8.6 -9.25 -8.95 -17.25 0.2 Q-19.4 2.7 -19.1 6.0 -18.15 15.65 -14.05 24.4 L-13.15 24.35 Q-15.85 7.45 -8.6 -7.85" fill="#f666bc" fill-rule="evenodd" stroke="none"/>
    <path d="M18.6 -91.5 L19.6 -90.8 20.1 -88.7 19.2 -88.1 18.25 -87.8 18.45 -87.6 Q12.85 -84.25 6.2 -84.75 L5.95 -89.7 Q12.75 -93.45 18.55 -91.55 L18.6 -91.5 M-9.4 -93.5 Q-8.25 -93.5 -7.95 -92.1 -7.45 -89.45 -7.85 -87.05 -7.95 -86.5 -8.35 -86.65 L-8.55 -87.3 -10.55 -88.25 Q-10.7 -91.1 -9.4 -93.5 M-18.0 -75.3 L-17.55 -76.9 Q-13.9 -66.75 -4.65 -61.35 L-2.3 -58.05 -1.8 -57.35 Q-10.2 -61.35 -15.25 -64.9 L-15.3 -64.9 Q-19.15 -69.5 -19.7 -75.55 L-19.4 -76.1 Q-18.4 -72.5 -15.5 -69.55 L-12.7 -65.45 -12.15 -66.1 -18.0 -75.3 M-4.15 -61.75 L-5.15 -69.05 Q-4.4 -68.65 -4.2 -67.75 -2.95 -62.15 1.5 -58.45 L2.2 -60.35 4.7 -65.95 Q5.85 -69.2 8.55 -70.25 L8.65 -70.25 3.25 -58.1 0.15 -57.35 -4.15 -61.75 M8.8 -59.05 Q9.7 -67.35 12.9 -74.85 14.35 -78.35 17.15 -80.95 L8.8 -59.05 M5.15 -91.45 L5.15 -89.25 4.55 -85.1 4.5 -85.1 Q1.05 -88.0 4.7 -91.75 L5.15 -91.45 M-5.6 -48.35 Q2.65 -48.0 8.65 -54.05 L8.0 -54.5 Q7.2 -55.1 7.15 -56.0 L8.1 -56.7 10.05 -55.95 Q12.0 -52.9 9.1 -51.05 6.2 -49.15 2.75 -47.65 L4.3 -47.9 Q1.55 -46.5 -1.6 -46.0 L-0.8 -46.4 -3.1 -45.8 Q-5.15 -45.75 -5.75 -46.75 L-5.6 -48.35 M-2.75 -37.9 Q4.4 -37.9 7.55 -44.55 8.1 -45.8 9.15 -46.05 L9.3 -45.85 9.65 -44.65 9.5 -44.2 Q6.2 -35.05 -3.7 -34.45 L-3.55 -36.9 -2.75 -37.9 M21.45 19.5 Q20.15 37.25 4.6 47.45 L4.05 47.6 -6.6 47.35 -11.45 41.75 Q-15.9 36.45 -18.7 29.85 L-17.9 29.75 -6.4 38.4 0.7 46.05 1.25 45.25 -1.9 41.85 Q0.35 43.25 1.7 43.1 6.15 42.55 13.65 30.75 20.2 19.0 20.3 19.0 21.05 18.9 21.45 19.5 M-6.8 -28.6 L-1.25 -32.85 Q-3.9 -29.85 -6.25 -26.25 L-9.1 -21.6 Q-8.2 -25.75 -6.8 -28.6 M-9.8 -17.5 L-8.75 -17.2 -9.3 -18.25 Q-6.0 -26.95 0.4 -33.65 L1.8 -34.7 2.55 -34.15 -2.2 -29.15 -1.65 -29.05 Q-3.7 -23.5 -6.75 -18.5 -7.8 -16.85 -9.7 -16.6 L-9.8 -17.5 M5.3 -36.5 L6.65 -37.1 6.75 -36.8 6.0 -34.3 Q6.45 -34.1 6.55 -33.45 L5.2 -31.65 Q2.15 -21.65 1.1 -19.1 0.6 -16.75 -0.65 -16.6 1.75 -26.9 6.0 -36.4 L3.85 -33.95 Q0.75 -30.35 -1.25 -26.1 L-0.6 -28.25 Q1.3 -33.0 5.3 -36.5 M14.5 10.25 L14.35 17.3 14.8 17.25 15.2 16.8 Q15.85 19.95 14.2 22.45 L12.8 22.3 12.55 20.65 12.15 10.85 12.05 10.55 Q12.0 6.4 12.3 3.95 13.45 4.1 14.5 10.25 M11.15 18.7 Q11.35 20.35 9.55 26.1 7.9 31.35 7.0 33.0 6.55 32.9 6.15 32.45 L9.9 16.15 Q10.85 16.35 11.15 18.7 M-17.3 -83.05 L-16.85 -83.95 Q-15.75 -82.2 -15.05 -80.0 -13.3 -74.5 -10.15 -69.4 L-10.5 -68.55 Q-11.3 -68.4 -11.9 -69.3 L-13.4 -72.0 -12.15 -70.15 -17.3 -83.05 M-16.4 -78.65 L-17.6 -81.5 -17.45 -82.75 -16.4 -78.65 M-5.95 -37.6 L-5.55 -38.15 -3.0 -40.7 -2.15 -40.45 Q-4.65 -37.75 -5.0 -34.25 L-5.65 -34.6 Q-8.2 -35.85 -7.9 -38.8 L-7.75 -39.05 Q-7.25 -39.15 -6.9 -38.5 -6.6 -37.95 -6.1 -37.95 L-5.95 -37.6" fill="#d24298" fill-rule="evenodd" stroke="none"/>
    <path d="M2.2 -60.35 L1.85 -60.6 Q2.1 -71.5 6.35 -81.45 6.9 -82.75 8.35 -82.8 9.5 -79.6 7.8 -76.65 5.0 -71.65 4.7 -65.95 L2.2 -60.35 M1.95 -86.2 L0.25 -83.05 -0.85 -82.95 Q-1.15 -85.7 0.0 -88.4 1.65 -92.4 -1.3 -95.15 L-2.35 -95.1 -3.2 -97.15 0.7 -97.35 Q4.85 -96.15 3.45 -92.0 L1.95 -86.2 M4.45 -56.0 Q6.3 -56.25 6.4 -55.55 -0.65 -51.35 -1.1 -51.25 -1.9 -51.2 -1.95 -51.85 -2.05 -52.6 0.45 -54.2 2.9 -55.85 4.45 -56.0 M-4.95 -41.8 L-5.15 -42.1 -2.7 -42.9 Q0.45 -43.65 2.3 -44.7 5.35 -46.75 5.95 -46.8 6.7 -46.9 6.8 -46.2 L4.15 -44.3 0.95 -42.35 1.3 -42.8 -0.7 -41.7 -3.5 -41.5 -4.95 -41.8 M-9.8 -78.25 L-10.4 -82.4 Q-9.35 -82.7 -8.75 -80.45 -7.45 -75.7 -7.1 -70.9 L-7.65 -70.5 Q-9.25 -72.35 -9.45 -75.0 L-9.8 -78.25 M-23.15 -77.5 L-23.0 -77.85 -23.4 -81.65 Q-21.6 -80.6 -21.25 -78.4 L-23.0 -77.45 -23.15 -77.5 M-8.6 -7.85 Q-15.85 7.45 -13.15 24.35 L-14.05 24.4 Q-18.15 15.65 -19.1 6.0 -19.4 2.7 -17.25 0.2 L-9.25 -8.95 -8.5 -8.6 -8.6 -7.85" fill="#ff91e7" fill-rule="evenodd" stroke="none"/>
    <path d="M1.15 63.5 L-0.3 66.2 1.4 57.05 2.4 56.85 1.15 63.5 M-1.25 67.55 L-1.65 67.85 -2.65 57.15 -2.55 57.15 -1.25 67.55" fill="#545454" fill-rule="evenodd" stroke="none"/>
    <path d="M2.4 56.85 L3.55 56.55 Q2.25 60.95 1.15 63.5 L2.4 56.85 M-0.3 66.2 L-1.25 67.55 -2.55 57.15 1.4 57.05 -0.3 66.2 M-1.65 67.85 L-2.0 68.0 -2.9 57.15 -2.65 57.15 -1.65 67.85 M-2.75 68.25 L-3.1 68.15 -4.85 56.7 -3.65 57.0 -3.7 57.7 Q-4.1 63.0 -2.75 68.25 M-3.85 66.6 Q-5.2 62.5 -5.95 56.35 L-5.15 56.6 -3.85 66.6" fill="#666666" fill-rule="evenodd" stroke="none"/>
    <path d="M-2.0 68.0 L-2.75 68.25 Q-4.1 63.0 -3.7 57.7 L-3.65 57.0 -2.9 57.15 -2.0 68.0 M-3.1 68.15 L-3.85 66.6 -5.15 56.6 -4.85 56.7 -3.1 68.15" fill="#a3a3a3" fill-rule="evenodd" stroke="none"/>
    <path d="M3.8 54.9 Q-3.95 56.8 -5.75 54.2 -7.6 51.6 -7.2 50.5 -6.8 49.35 -6.1 48.9 -0.4 47.9 4.2 49.45 5.15 52.2 3.8 54.9" fill="#ffffff" fill-rule="evenodd" stroke="none"/>
    <path d="M18.45 -87.6 L18.25 -87.8 19.2 -88.1 18.45 -87.6 M4.7 -91.75 L5.3 -92.35 5.15 -91.45 4.7 -91.75" fill="#d24298" fill-rule="evenodd" stroke="none"/>
  </g>
</svg>
