<?xml version="1.0" encoding="UTF-8" standalone="no"?>
<svg xmlns:xlink="http://www.w3.org/1999/xlink" height="22.9px" width="23.0px" xmlns="http://www.w3.org/2000/svg">
  <g transform="matrix(1.0, 0.0, 0.0, 1.0, 11.1, 13.0)">
    <path d="M-6.15 -9.8 L-6.05 -9.7 Q-4.7 -8.05 -6.25 -6.25 -11.2 -0.45 -10.4 6.9 L-8.65 7.7 Q-1.5 9.95 5.3 7.1 7.45 6.15 11.35 2.55 9.2 -7.95 -2.0 -11.25 L-3.4 -11.7 Q-10.95 -13.5 -8.65 -7.7 L-8.3 -8.65 -8.35 -9.2 -8.05 -9.25 -6.15 -9.8 M-7.5 -8.7 L-7.15 -7.2 -7.8 -6.8 Q-9.85 -7.75 -10.2 -9.8 L-9.85 -10.45 Q-7.45 -13.65 -3.6 -12.8 9.75 -9.45 11.9 2.8 2.25 14.25 -10.95 7.25 -12.05 -1.05 -6.05 -7.05 L-6.2 -8.75 -7.5 -8.7" fill="#000000" fill-rule="evenodd" stroke="none"/>
    <path d="M-5.0 -8.2 L-6.5 -3.5 Q-7.9 -1.4 -8.4 1.15 -9.65 7.65 -4.75 7.45 -2.4 1.05 -2.85 -5.65 -3.25 -12.0 -8.1 -10.85 L-8.1 -10.3 -7.65 -10.25 -8.05 -9.25 -8.35 -9.2 -8.3 -8.65 -8.65 -7.7 Q-10.95 -13.5 -3.4 -11.7 L-2.0 -11.25 Q9.2 -4.55 5.55 6.7 L5.3 7.1 Q-1.5 9.95 -8.65 7.7 L-10.4 6.9 Q-11.2 -0.45 -6.25 -6.25 -4.7 -8.05 -6.05 -9.7 -5.2 -9.15 -5.0 -8.2" fill="#552000" fill-rule="evenodd" stroke="none"/>
    <path d="M-6.5 -3.5 Q-8.1 1.15 -7.75 6.05 L-6.8 6.15 Q-2.5 -1.95 -4.95 -9.55 L-5.0 -8.2 Q-5.2 -9.15 -6.05 -9.7 L-6.15 -9.8 Q-7.1 -10.45 -7.65 -10.25 L-8.1 -10.3 -8.1 -10.85 Q-3.25 -12.0 -2.85 -5.65 -2.4 1.05 -4.75 7.45 -9.65 7.65 -8.4 1.15 -7.9 -1.4 -6.5 -3.5" fill="#7b4626" fill-rule="evenodd" stroke="none"/>
    <path d="M-5.0 -8.2 L-4.95 -9.55 Q-2.5 -1.95 -6.8 6.15 L-7.75 6.05 Q-8.1 1.15 -6.5 -3.5 L-5.0 -8.2" fill="#f6c1a1" fill-rule="evenodd" stroke="none"/>
    <path d="M-7.65 -10.25 Q-7.1 -10.45 -6.15 -9.8 L-8.05 -9.25 -7.65 -10.25 M-2.0 -11.25 Q9.2 -7.95 11.35 2.55 7.45 6.15 5.3 7.1 L5.55 6.7 Q9.2 -4.55 -2.0 -11.25" fill="#430e00" fill-rule="evenodd" stroke="none"/>
  </g>
</svg>
