<?xml version="1.0" encoding="UTF-8" standalone="no"?>
<svg xmlns:xlink="http://www.w3.org/1999/xlink" height="199.45px" width="66.55px" xmlns="http://www.w3.org/2000/svg">
  <g transform="matrix(1.0, 0.0, 0.0, 1.0, 30.5, 126.2)">
    <path d="M8.45 -118.55 Q10.7 -121.5 8.25 -123.9 7.6 -124.65 6.65 -124.95 -1.35 -127.2 -6.65 -120.35 -8.1 -117.5 -8.05 -114.2 L-5.65 -113.05 -5.45 -112.25 -2.2 -92.25 -2.9 -92.4 -5.75 -112.05 Q-14.95 -114.35 -24.0 -111.6 L-24.25 -111.5 Q-24.7 -109.75 -23.3 -108.45 -20.55 -105.75 -19.0 -102.45 L-19.1 -102.4 Q-23.0 -99.9 -22.35 -96.6 -21.3 -92.05 -13.6 -86.6 L-13.55 -86.6 Q-7.6 -82.45 2.3 -77.7 L3.25 -77.25 1.7 -78.5 -1.05 -82.45 Q-1.7 -83.9 -1.95 -85.55 L-0.45 -82.9 4.6 -77.75 8.3 -78.65 Q10.45 -81.4 11.65 -84.85 12.15 -86.35 13.8 -86.9 L10.85 -79.1 14.75 -79.7 24.65 -105.6 26.45 -111.05 Q17.1 -106.0 7.3 -109.85 7.4 -97.6 5.55 -85.4 L5.75 -92.9 6.7 -111.75 6.8 -113.05 Q7.1 -116.0 8.45 -118.55 M10.45 -115.3 L10.5 -117.9 10.7 -119.0 9.95 -118.3 Q5.65 -113.9 9.75 -110.45 L9.8 -110.45 Q10.05 -110.25 10.4 -110.2 L10.45 -115.3 M11.3 -117.1 L16.25 -119.05 Q22.2 -121.2 27.05 -117.75 L27.95 -117.6 29.2 -115.1 16.55 -79.5 Q17.95 -77.95 18.55 -76.1 20.25 -71.0 16.55 -67.35 17.55 -65.55 17.9 -63.5 18.85 -57.5 14.2 -54.7 L18.7 -48.95 Q25.8 -40.45 29.05 -29.85 29.75 -27.5 29.5 -25.25 29.35 -24.1 28.7 -23.3 25.2 -19.15 21.0 -15.75 15.75 -11.45 12.75 -5.45 11.55 -3.15 12.4 -0.7 13.9 3.8 17.15 7.3 26.25 17.25 33.35 28.5 37.9 35.75 34.85 43.8 33.05 48.6 29.0 51.7 19.3 59.0 7.75 54.9 5.6 62.05 2.9 69.2 0.9 74.4 -4.15 72.9 L-5.7 64.7 Q-6.5 58.9 -8.85 53.5 -17.45 52.45 -24.55 47.45 -28.0 44.95 -29.65 41.05 -30.4 39.3 -30.45 37.5 -30.95 25.65 -22.0 17.75 -15.15 11.7 -9.5 4.75 -7.8 2.65 -7.25 0.05 -6.2 -4.7 -9.0 -8.8 -13.05 -14.8 -17.7 -20.55 -21.05 -24.75 -20.45 -29.95 -20.25 -31.4 -19.5 -32.5 L-6.45 -51.65 -6.95 -53.85 Q-7.8 -59.3 -3.8 -62.95 -4.25 -65.15 -4.25 -67.35 -4.35 -74.1 1.7 -76.65 -4.8 -79.95 -11.3 -83.5 -19.1 -87.6 -23.5 -95.0 -25.35 -98.05 -23.5 -100.55 -23.55 -105.65 -25.35 -110.5 L-24.5 -111.9 Q-22.6 -113.95 -19.7 -113.65 -14.35 -114.35 -9.15 -113.5 -9.35 -118.15 -6.5 -121.9 -5.7 -122.95 -4.6 -123.6 1.35 -127.2 8.35 -125.85 11.0 -125.4 11.4 -122.9 11.9 -119.85 11.3 -117.1 M26.35 -118.0 L26.3 -118.0 Q19.45 -120.25 11.45 -115.9 L11.75 -110.05 Q19.6 -109.45 26.2 -113.45 L28.1 -114.7 27.5 -117.2 27.05 -117.75 26.35 -118.0 M16.3 -76.05 L15.35 -78.55 Q1.4 -78.4 -2.2 -67.1 L-2.35 -65.25 Q-2.2 -64.45 -1.55 -63.7 L0.75 -64.1 3.45 -64.85 2.55 -64.35 Q-1.3 -62.2 -3.9 -58.15 L-4.9 -55.9 Q-5.2 -52.5 -2.25 -50.9 L-1.5 -50.5 Q-0.85 -54.75 1.9 -57.85 L3.6 -59.25 5.95 -60.55 5.55 -60.05 1.15 -54.8 0.2 -53.65 0.05 -50.7 1.5 -50.8 Q12.3 -52.3 15.65 -62.2 16.3 -64.4 15.7 -66.7 12.35 -67.0 9.5 -66.6 L7.65 -66.25 14.05 -69.55 16.95 -71.9 Q17.7 -72.5 17.3 -73.7 L16.3 -76.05 M10.2 -70.6 Q5.9 -68.5 0.95 -68.8 L13.65 -73.4 10.2 -70.6 M0.25 -59.05 L0.3 -59.05 Q-1.7 -57.55 -2.1 -55.1 L-2.35 -54.05 -2.75 -54.85 Q-3.55 -57.0 -1.85 -58.85 L-1.4 -59.35 0.25 -59.05 M6.55 -51.05 L3.85 -49.1 3.7 -49.1 -3.95 -48.2 -3.15 -49.1 -5.35 -50.25 Q-10.05 -43.5 -15.25 -37.1 -18.85 -32.6 -18.65 -27.1 -18.6 -26.2 -18.15 -25.35 -15.1 -19.45 -10.55 -14.55 -6.15 -9.75 -5.25 -3.5 -4.6 1.25 -7.55 5.15 -12.5 11.6 -18.7 16.95 -25.5 22.85 -28.35 31.35 -30.15 36.8 -27.25 41.6 -25.85 43.95 -23.65 45.65 -17.25 50.65 -8.95 51.1 L-8.3 49.95 Q-0.75 48.75 6.15 51.95 8.75 53.25 11.65 54.05 L15.2 54.65 Q21.1 54.4 26.0 51.6 31.4 48.6 33.25 42.8 34.45 39.4 34.1 36.25 33.35 29.5 21.95 15.95 L16.4 9.2 15.6 8.35 Q10.75 3.55 10.2 -3.0 10.4 -8.8 15.25 -12.15 23.05 -17.4 27.65 -25.4 28.0 -26.0 27.9 -26.7 26.95 -32.65 23.7 -37.75 18.4 -46.2 12.7 -54.0 L12.25 -53.85 10.3 -52.95 6.55 -51.05 M9.95 -51.1 L9.05 -49.75 8.35 -49.65 9.7 -51.2 11.5 -53.05 9.95 -51.1 M2.9 -46.25 L-4.3 -37.65 -4.2 -37.1 -5.45 -36.55 -5.75 -37.4 -0.4 -44.55 Q2.05 -47.6 5.75 -49.1 L5.8 -48.3 2.9 -46.25 M16.85 47.35 Q19.5 47.15 19.85 44.7 L20.15 43.6 Q20.85 43.65 20.65 45.0 20.45 46.1 19.65 47.0 17.75 48.9 14.9 48.45 L14.65 48.25 16.85 47.35 M26.9 38.6 L26.5 37.8 Q26.75 37.85 27.05 38.15 29.95 41.5 27.8 45.25 26.2 48.1 22.95 48.0 28.45 44.75 26.9 38.6 M31.4 36.1 Q29.55 30.6 25.0 26.8 L23.65 25.65 24.2 25.1 Q32.1 29.65 32.55 38.4 32.9 42.25 29.75 43.35 L29.6 43.4 Q29.9 41.75 31.05 39.6 31.95 37.85 31.4 36.1 M6.45 -5.05 Q5.0 -4.15 5.0 -2.35 5.0 0.5 5.5 2.5 L4.0 0.65 Q3.2 -2.9 5.05 -5.5 L6.5 -5.1 6.45 -5.05 M5.1 52.95 Q-0.35 49.75 -6.15 51.6 -6.9 51.85 -7.45 52.7 -7.05 55.55 -3.9 56.65 -0.65 57.85 2.55 57.0 5.75 56.2 5.1 52.95 M3.9 59.15 L2.75 59.35 -1.95 59.45 -2.05 59.45 -2.35 59.4 -3.2 59.25 -4.65 58.9 -5.0 58.8 -5.95 58.45 Q-5.1 65.75 -3.5 70.65 L-3.0 72.25 -2.65 72.5 -2.2 72.55 -1.3 72.3 -0.95 72.1 -0.45 71.75 0.7 70.2 2.4 67.0 Q3.75 63.95 5.25 58.75 L3.9 59.15 M-1.35 3.15 L-0.15 0.9 -0.5 -5.65 Q1.35 -3.25 1.1 -0.2 0.9 2.5 -1.35 3.15 M-22.7 -101.4 Q-21.7 -102.0 -20.65 -102.55 -21.1 -105.1 -23.15 -106.4 L-22.7 -101.9 -22.9 -101.45 -23.0 -101.25 -22.7 -101.4 M-11.5 -95.25 Q-13.7 -98.85 -14.95 -102.8 L-16.1 -107.65 -16.45 -109.25 -16.0 -108.05 -9.95 -92.85 -11.5 -95.25 M-16.8 -98.9 L-9.9 -88.05 -10.6 -87.3 -13.9 -92.1 Q-17.25 -95.6 -18.45 -99.8 L-18.75 -102.0 -16.8 -98.9 M-7.55 -18.9 L-8.95 -20.1 Q-12.55 -23.3 -11.85 -27.95 -10.6 -23.0 -7.55 -18.9 M-15.5 -28.85 Q-16.4 -32.3 -13.5 -33.55 L-12.45 -33.3 Q-16.05 -29.4 -12.55 -24.85 -14.85 -26.15 -15.5 -28.85" fill="#000000" fill-rule="evenodd" stroke="none"/>
    <path d="M-6.65 -120.35 Q-1.35 -127.2 6.65 -124.95 7.6 -124.65 8.25 -123.9 10.7 -121.5 8.45 -118.55 L8.85 -120.95 Q8.95 -122.85 7.65 -123.85 4.3 -126.35 0.7 -124.65 L1.65 -122.25 2.7 -122.0 Q5.8 -119.85 4.8 -115.9 L3.1 -108.5 3.8 -107.75 Q6.25 -108.95 6.7 -111.75 L5.75 -92.9 5.55 -85.4 Q7.4 -97.6 7.3 -109.85 17.1 -106.0 26.45 -111.05 L24.65 -105.6 Q21.8 -103.25 19.75 -100.25 18.7 -98.65 18.25 -96.6 16.3 -88.3 14.75 -79.7 L10.85 -79.1 13.8 -86.9 Q12.15 -86.35 11.65 -84.85 10.45 -81.4 8.3 -78.65 11.9 -85.6 14.6 -92.95 L14.15 -92.8 Q10.95 -90.95 9.6 -87.2 10.8 -94.95 14.25 -101.95 15.65 -104.8 14.25 -107.75 L13.8 -107.85 Q11.95 -107.1 11.4 -105.1 8.6 -95.4 6.3 -85.8 5.7 -83.35 7.05 -81.25 L6.2 -79.05 Q0.85 -83.4 -0.5 -90.05 -0.7 -91.05 -1.65 -91.5 L-0.45 -82.9 -1.95 -85.55 Q-1.7 -83.9 -1.05 -82.45 -4.9 -85.1 -8.45 -88.15 -14.4 -93.25 -16.0 -100.7 L-16.8 -100.25 -16.8 -98.9 -18.75 -102.0 -18.45 -99.8 -18.8 -99.2 Q-18.1 -92.1 -13.6 -86.6 -21.3 -92.05 -22.35 -96.6 -23.0 -99.9 -19.1 -102.4 L-18.75 -102.0 -19.0 -102.45 Q-20.55 -105.75 -23.3 -108.45 -24.7 -109.75 -24.25 -111.5 L-24.0 -111.6 Q-14.95 -114.35 -5.75 -112.05 L-2.9 -92.4 -2.2 -92.25 -5.45 -112.25 -4.6 -112.7 Q-4.2 -116.9 -6.15 -120.5 L-6.65 -120.35 M1.7 -78.5 L3.25 -77.25 2.3 -77.7 1.7 -78.5 M10.45 -115.3 L10.4 -110.2 Q10.05 -110.25 9.8 -110.45 L10.45 -115.3 M26.35 -118.0 L27.05 -117.75 27.5 -117.2 26.35 -118.0 M-2.2 -67.1 Q1.4 -78.4 15.35 -78.55 L16.3 -76.05 14.0 -77.0 12.85 -76.1 Q13.1 -74.7 14.7 -73.95 8.4 -67.8 -0.15 -66.8 -1.15 -66.7 -2.2 -67.1 M9.5 -66.6 Q12.35 -67.0 15.7 -66.7 16.3 -64.4 15.65 -62.2 L15.7 -63.3 Q15.75 -64.3 14.8 -64.45 13.7 -63.25 12.95 -61.85 9.15 -54.7 1.15 -54.8 L5.55 -60.05 Q9.5 -61.6 12.45 -64.6 L11.45 -65.3 Q5.5 -61.15 -1.6 -59.8 L-1.4 -59.35 -1.85 -58.85 Q-3.55 -57.0 -2.75 -54.85 L-2.95 -54.9 Q-3.85 -56.25 -4.9 -55.9 L-3.9 -58.15 Q-1.3 -62.2 2.55 -64.35 6.25 -64.95 9.5 -66.6 M3.6 -59.25 L1.9 -57.85 Q1.7 -58.35 1.1 -58.25 0.65 -58.25 -0.7 -56.55 L-2.1 -55.1 Q-1.7 -57.55 0.3 -59.05 L0.25 -59.05 3.6 -59.25 M0.75 -64.1 L-1.55 -63.7 Q-2.2 -64.45 -2.35 -65.25 -1.65 -64.05 0.75 -64.1 M9.65 -76.15 Q7.85 -75.95 4.95 -74.0 2.0 -72.1 2.15 -71.25 2.2 -70.45 3.1 -70.55 L12.0 -75.6 Q11.9 -76.45 9.65 -76.15 M10.2 -70.6 L13.65 -73.4 0.95 -68.8 Q5.9 -68.5 10.2 -70.6 M7.35 -50.3 L6.55 -51.05 10.3 -52.95 10.0 -52.6 8.35 -50.5 7.35 -50.3 M11.55 -50.5 L12.25 -53.85 12.7 -54.0 Q18.4 -46.2 23.7 -37.75 26.95 -32.65 27.9 -26.7 28.0 -26.0 27.65 -25.4 23.05 -17.4 15.25 -12.15 10.4 -8.8 10.2 -3.0 L10.1 -3.5 Q9.5 -8.65 15.1 -12.55 14.45 -13.4 14.0 -13.3 L11.7 -12.55 Q10.35 -12.4 7.2 -6.85 L6.5 -5.1 5.05 -5.5 Q3.2 -2.9 4.0 0.65 L5.5 2.5 Q5.0 0.5 5.0 -2.35 5.0 -4.15 6.45 -5.05 5.4 -0.6 8.5 3.0 11.75 6.8 16.4 9.2 L21.95 15.95 Q33.35 29.5 34.1 36.25 34.45 39.4 33.25 42.8 L32.55 38.4 Q32.1 29.65 24.2 25.1 L23.65 25.65 25.0 26.8 Q29.55 30.6 31.4 36.1 25.3 27.85 18.05 20.6 L17.85 21.7 20.2 24.45 19.8 25.45 23.1 29.05 Q27.05 32.9 27.05 38.15 26.75 37.85 26.5 37.8 L26.9 38.6 Q25.85 43.0 22.5 45.9 21.25 47.0 19.65 47.0 20.45 46.1 20.65 45.0 20.85 43.65 20.15 43.6 L19.85 44.7 Q19.5 47.15 16.85 47.35 6.9 48.5 -2.65 45.55 -4.1 45.05 -5.5 45.85 4.25 51.6 15.2 54.65 L11.65 54.05 Q8.75 53.25 6.15 51.95 -0.75 48.75 -8.3 49.95 L-8.95 51.1 Q-17.25 50.65 -23.65 45.65 -25.85 43.95 -27.25 41.6 -30.15 36.8 -28.35 31.35 -25.5 22.85 -18.7 16.95 -12.5 11.6 -7.55 5.15 -4.6 1.25 -5.25 -3.5 -6.15 -9.75 -10.55 -14.55 -15.1 -19.45 -18.15 -25.35 -18.6 -26.2 -18.65 -27.1 -18.85 -32.6 -15.25 -37.1 -10.05 -43.5 -5.35 -50.25 L-3.15 -49.1 -3.95 -48.2 3.7 -49.1 2.65 -48.4 Q0.25 -47.0 -0.4 -44.55 L-5.75 -37.4 -5.45 -36.55 -4.2 -37.1 -4.3 -37.65 2.9 -46.25 11.0 -46.5 Q12.7 -45.9 13.55 -44.7 L18.9 -36.4 19.4 -36.25 Q20.2 -37.75 19.75 -39.35 17.75 -46.5 11.05 -50.0 L11.85 -50.3 11.55 -50.5 M-1.35 3.15 L-3.45 5.35 -3.3 6.2 Q1.85 6.25 2.4 0.8 2.5 -0.45 2.0 -1.7 1.05 -4.2 -0.55 -6.3 -1.75 -7.9 -2.95 -6.4 L-3.55 -5.2 Q-0.95 -2.5 -0.25 0.7 L-0.15 0.9 -1.35 3.15 M-22.7 -101.4 L-23.0 -101.25 -22.9 -101.45 -22.7 -101.4 M-11.5 -95.25 Q-9.25 -90.8 -8.25 -90.9 -8.05 -90.9 -7.6 -91.2 -7.5 -91.45 -7.55 -91.9 -11.05 -97.4 -11.75 -100.65 -12.55 -104.2 -15.45 -109.1 L-16.0 -108.05 -16.45 -109.25 -16.1 -107.65 Q-16.4 -106.85 -16.3 -106.2 L-14.95 -102.8 Q-13.7 -98.85 -11.5 -95.25 M-7.85 -107.25 Q-6.1 -93.1 -4.65 -93.25 -4.0 -93.3 -3.9 -94.05 L-4.0 -94.85 -4.9 -100.35 Q-6.05 -105.75 -7.35 -107.7 L-7.8 -107.55 -7.85 -107.25 M-11.15 -32.8 Q-12.5 -28.2 -8.65 -25.75 -7.8 -22.9 -5.4 -21.4 L-8.2 -29.0 -8.7 -25.95 Q-10.25 -28.9 -10.75 -32.55 L-11.15 -32.8 M-15.5 -28.85 Q-14.85 -26.15 -12.55 -24.85 -16.05 -29.4 -12.45 -33.3 L-13.5 -33.55 Q-16.4 -32.3 -15.5 -28.85 M-7.55 -18.9 Q-10.6 -23.0 -11.85 -27.95 -12.55 -23.3 -8.95 -20.1 L-7.55 -18.9 M-10.1 24.0 Q-28.3 26.1 -27.55 32.5 -26.9 37.95 -23.6 40.4 -21.55 41.9 -11.35 46.0 L-10.0 45.85 Q-9.8 45.85 -9.9 45.1 L-13.65 42.35 Q-17.4 39.3 -17.85 35.5 -18.35 31.2 -17.55 30.0 -16.35 28.0 -9.55 24.35 -10.0 24.0 -10.1 24.0" fill="#f666bc" fill-rule="evenodd" stroke="none"/>
    <path d="M8.45 -118.55 Q7.1 -116.0 6.8 -113.05 L6.7 -111.75 Q6.25 -108.95 3.8 -107.75 L3.1 -108.5 4.8 -115.9 Q5.8 -119.85 2.7 -122.0 L1.65 -122.25 0.7 -124.65 Q4.3 -126.35 7.65 -123.85 8.95 -122.85 8.85 -120.95 L8.45 -118.55 M7.05 -81.25 Q5.7 -83.35 6.3 -85.8 8.6 -95.4 11.4 -105.1 11.95 -107.1 13.8 -107.85 L14.25 -107.75 Q15.65 -104.8 14.25 -101.95 10.8 -94.95 9.6 -87.2 L7.05 -81.25 M5.55 -60.05 L5.95 -60.55 3.6 -59.25 0.25 -59.05 -1.4 -59.35 -1.6 -59.8 Q5.5 -61.15 11.45 -65.3 L12.45 -64.6 Q9.5 -61.6 5.55 -60.05 M9.65 -76.15 Q11.9 -76.45 12.0 -75.6 L3.1 -70.55 Q2.2 -70.45 2.15 -71.25 2.0 -72.1 4.95 -74.0 7.85 -75.95 9.65 -76.15 M-22.9 -101.45 L-22.7 -101.9 -23.15 -106.4 Q-21.1 -105.1 -20.65 -102.55 -21.7 -102.0 -22.7 -101.4 L-22.9 -101.45 M-7.85 -107.25 L-7.8 -107.55 -7.35 -107.7 Q-6.05 -105.75 -4.9 -100.35 L-4.0 -94.85 -3.9 -94.05 Q-4.0 -93.3 -4.65 -93.25 -6.1 -93.1 -7.85 -107.25" fill="#ff91e7" fill-rule="evenodd" stroke="none"/>
    <path d="M24.65 -105.6 L14.75 -79.7 Q16.3 -88.3 18.25 -96.6 18.7 -98.65 19.75 -100.25 21.8 -103.25 24.65 -105.6 M8.3 -78.65 L4.6 -77.75 -0.45 -82.9 -1.65 -91.5 Q-0.7 -91.05 -0.5 -90.05 0.85 -83.4 6.2 -79.05 L7.05 -81.25 9.6 -87.2 Q10.95 -90.95 14.15 -92.8 L14.6 -92.95 Q11.9 -85.6 8.3 -78.65 M-1.05 -82.45 L1.7 -78.5 2.3 -77.7 Q-7.6 -82.45 -13.55 -86.6 L-13.6 -86.6 Q-18.1 -92.1 -18.8 -99.2 L-18.45 -99.8 Q-17.25 -95.6 -13.9 -92.1 L-10.6 -87.3 -9.9 -88.05 -16.8 -98.9 -16.8 -100.25 -16.0 -100.7 Q-14.4 -93.25 -8.45 -88.15 -4.9 -85.1 -1.05 -82.45 M-5.45 -112.25 L-5.65 -113.05 -8.05 -114.2 Q-8.1 -117.5 -6.65 -120.35 L-6.15 -120.5 Q-4.2 -116.9 -4.6 -112.7 L-5.45 -112.25 M9.8 -110.45 L9.75 -110.45 Q5.65 -113.9 9.95 -118.3 L10.7 -119.0 10.5 -117.9 10.45 -115.3 9.8 -110.45 M27.5 -117.2 L28.1 -114.7 26.2 -113.45 Q19.6 -109.45 11.75 -110.05 L11.45 -115.9 Q19.45 -120.25 26.3 -118.0 L26.35 -118.0 27.5 -117.2 M-2.2 -67.1 Q-1.15 -66.7 -0.15 -66.8 8.4 -67.8 14.7 -73.95 13.1 -74.7 12.85 -76.1 L14.0 -77.0 16.3 -76.05 17.3 -73.7 Q17.7 -72.5 16.95 -71.9 L14.05 -69.55 7.65 -66.25 9.5 -66.6 Q6.25 -64.95 2.55 -64.35 L3.45 -64.85 0.75 -64.1 Q-1.65 -64.05 -2.35 -65.25 L-2.2 -67.1 M15.65 -62.2 Q12.3 -52.3 1.5 -50.8 L0.05 -50.7 0.2 -53.65 1.15 -54.8 Q9.15 -54.7 12.95 -61.85 13.7 -63.25 14.8 -64.45 15.75 -64.3 15.7 -63.3 L15.65 -62.2 M1.9 -57.85 Q-0.85 -54.75 -1.5 -50.5 L-2.25 -50.9 Q-5.2 -52.5 -4.9 -55.9 -3.85 -56.25 -2.95 -54.9 L-2.75 -54.85 -2.35 -54.05 -2.1 -55.1 -0.7 -56.55 Q0.65 -58.25 1.1 -58.25 1.7 -58.35 1.9 -57.85 M6.55 -51.05 L7.35 -50.3 6.7 -49.55 3.85 -49.1 6.55 -51.05 M10.0 -52.6 L10.3 -52.95 12.25 -53.85 11.55 -50.5 9.95 -51.1 11.5 -53.05 9.7 -51.2 10.0 -52.6 M-16.0 -108.05 L-15.45 -109.1 Q-12.55 -104.2 -11.75 -100.65 -11.05 -97.4 -7.55 -91.9 -7.5 -91.45 -7.6 -91.2 -8.05 -90.9 -8.25 -90.9 -9.25 -90.8 -11.5 -95.25 L-9.95 -92.85 -16.0 -108.05 M-14.95 -102.8 L-16.3 -106.2 Q-16.4 -106.85 -16.1 -107.65 L-14.95 -102.8" fill="#d24298" fill-rule="evenodd" stroke="none"/>
    <path d="M3.85 -49.1 L6.7 -49.55 7.35 -50.3 8.35 -50.5 10.0 -52.6 9.7 -51.2 8.35 -49.65 9.05 -49.75 9.95 -51.1 11.55 -50.5 11.85 -50.3 11.05 -50.0 Q17.75 -46.5 19.75 -39.35 20.2 -37.75 19.4 -36.25 L18.9 -36.4 13.55 -44.7 Q12.7 -45.9 11.0 -46.5 L2.9 -46.25 5.8 -48.3 5.75 -49.1 Q2.05 -47.6 -0.4 -44.55 0.25 -47.0 2.65 -48.4 L3.7 -49.1 3.85 -49.1 M15.2 54.65 Q4.25 51.6 -5.5 45.85 -4.1 45.05 -2.65 45.55 6.9 48.5 16.85 47.35 L14.65 48.25 14.9 48.45 Q17.75 48.9 19.65 47.0 21.25 47.0 22.5 45.9 25.85 43.0 26.9 38.6 28.45 44.75 22.95 48.0 26.2 48.1 27.8 45.25 29.95 41.5 27.05 38.15 27.05 32.9 23.1 29.05 L19.8 25.45 20.2 24.45 17.85 21.7 18.05 20.6 Q25.3 27.85 31.4 36.1 31.95 37.85 31.05 39.6 29.9 41.75 29.6 43.4 L29.75 43.35 Q32.9 42.25 32.55 38.4 L33.25 42.8 Q31.4 48.6 26.0 51.6 21.1 54.4 15.2 54.65 M16.4 9.2 Q11.75 6.8 8.5 3.0 5.4 -0.6 6.45 -5.05 L6.5 -5.1 7.2 -6.85 Q10.35 -12.4 11.7 -12.55 L14.0 -13.3 Q14.45 -13.4 15.1 -12.55 9.5 -8.65 10.1 -3.5 L10.2 -3.0 Q10.75 3.55 15.6 8.35 L16.4 9.2 M-0.15 0.9 L-0.25 0.7 Q-0.95 -2.5 -3.55 -5.2 L-2.95 -6.4 Q-1.75 -7.9 -0.55 -6.3 1.05 -4.2 2.0 -1.7 2.5 -0.45 2.4 0.8 1.85 6.25 -3.3 6.2 L-3.45 5.35 -1.35 3.15 Q0.9 2.5 1.1 -0.2 1.35 -3.25 -0.5 -5.65 L-0.15 0.9" fill="#ce3e94" fill-rule="evenodd" stroke="none"/>
    <path d="M-11.15 -32.8 L-10.75 -32.55 Q-10.25 -28.9 -8.7 -25.95 L-8.2 -29.0 -5.4 -21.4 Q-7.8 -22.9 -8.65 -25.75 -12.5 -28.2 -11.15 -32.8 M-10.1 24.0 Q-10.0 24.0 -9.55 24.35 -16.35 28.0 -17.55 30.0 -18.35 31.2 -17.85 35.5 -17.4 39.3 -13.65 42.35 L-9.9 45.1 Q-9.8 45.85 -10.0 45.85 L-11.35 46.0 Q-21.55 41.9 -23.6 40.4 -26.9 37.95 -27.55 32.5 -28.3 26.1 -10.1 24.0" fill="#ffa1f7" fill-rule="evenodd" stroke="none"/>
    <path d="M5.1 52.95 Q5.75 56.2 2.55 57.0 -0.65 57.85 -3.9 56.65 -7.05 55.55 -7.45 52.7 -6.9 51.85 -6.15 51.6 -0.35 49.75 5.1 52.95" fill="#ffffff" fill-rule="evenodd" stroke="none"/>
    <path d="M-1.3 72.3 L-2.2 72.55 Q-3.75 66.4 -3.25 60.1 L-3.2 59.25 -2.35 59.4 -1.3 72.3 M-2.65 72.5 L-3.0 72.25 -3.5 70.65 Q-4.9 65.35 -4.95 59.75 L-5.0 58.8 -4.65 58.9 -2.65 72.5" fill="#a3a3a3" fill-rule="evenodd" stroke="none"/>
    <path d="M3.9 59.15 L5.25 58.75 Q3.75 63.95 2.4 67.0 L3.9 59.15 M0.7 70.2 L-0.45 71.75 -1.95 59.45 2.75 59.35 0.7 70.2 M-0.95 72.1 L-1.3 72.3 -2.35 59.4 -2.05 59.45 -0.95 72.1 M-2.2 72.55 L-2.65 72.5 -4.65 58.9 -3.2 59.25 -3.25 60.1 Q-3.75 66.4 -2.2 72.55 M-3.5 70.65 Q-5.1 65.75 -5.95 58.45 L-5.0 58.8 -4.95 59.75 Q-4.9 65.35 -3.5 70.65" fill="#666666" fill-rule="evenodd" stroke="none"/>
    <path d="M2.75 59.35 L3.9 59.15 2.4 67.0 0.7 70.2 2.75 59.35 M-0.45 71.75 L-0.95 72.1 -2.05 59.45 -1.95 59.45 -0.45 71.75" fill="#545454" fill-rule="evenodd" stroke="none"/>
  </g>
</svg>
