<?xml version="1.0" encoding="UTF-8" standalone="no"?>
<svg xmlns:xlink="http://www.w3.org/1999/xlink" height="33.55px" width="9.95px" xmlns="http://www.w3.org/2000/svg">
  <g transform="matrix(1.0, 0.0, 0.0, 1.0, 5.5, 14.6)">
    <path d="M2.75 -11.6 Q3.6 -9.0 3.9 -6.4 5.15 4.15 3.5 14.6 2.75 19.3 -1.65 18.9 -3.25 18.7 -4.05 17.2 -6.05 13.35 -5.3 8.95 -3.85 0.0 -5.05 -9.05 -5.7 -14.2 -0.8 -14.5 L0.75 -14.3 Q2.15 -13.35 2.75 -11.6 M2.45 14.35 Q5.0 0.95 1.25 -11.9 0.6 -14.2 -1.55 -13.65 -3.6 -13.2 -3.9 -11.2 -4.35 -7.95 -3.9 -4.65 -2.8 3.05 -4.15 10.9 -4.7 13.95 -3.2 16.6 -2.6 17.7 -1.35 17.95 2.0 18.0 2.45 14.35" fill="#000000" fill-rule="evenodd" stroke="none"/>
    <path d="M2.45 14.35 Q2.0 18.0 -1.35 17.95 -2.6 17.7 -3.2 16.6 -4.7 13.95 -4.15 10.9 -2.8 3.05 -3.9 -4.65 -4.35 -7.95 -3.9 -11.2 -3.6 -13.2 -1.55 -13.65 0.6 -14.2 1.25 -11.9 5.0 0.95 2.45 14.35" fill="#ffffff" fill-rule="evenodd" stroke="none"/>
  </g>
</svg>
