<?xml version="1.0" encoding="UTF-8" standalone="no"?>
<svg xmlns:xlink="http://www.w3.org/1999/xlink" height="33.9px" width="29.6px" xmlns="http://www.w3.org/2000/svg">
  <g transform="matrix(1.0, 0.0, 0.0, 1.0, 15.6, 17.45)">
    <path d="M6.15 -12.35 L6.2 -12.5 6.2 -12.55 6.4 -13.2 Q8.8 -5.95 10.15 -3.0 12.25 1.95 12.8 7.4 13.1 11.1 9.55 13.0 6.6 14.5 3.2 14.9 -2.1 15.85 -7.0 13.75 -8.4 13.2 -8.8 11.9 -10.25 7.95 -10.4 3.55 -10.45 1.05 -12.15 -0.9 -14.2 -3.4 -14.9 -6.2 L-14.9 -6.3 Q-14.35 -11.35 -9.4 -13.65 L-7.5 -14.55 Q-9.65 -13.45 -11.45 -11.7 L-12.5 -10.2 -12.75 -9.5 -12.3 -9.95 Q-10.25 -11.45 -7.75 -12.05 L-6.65 -12.0 -5.1 -10.5 -6.9 -6.65 -2.7 -7.85 Q-0.05 -9.0 2.55 -10.35 L3.55 -11.25 Q4.65 -13.0 3.9 -14.85 3.45 -15.9 2.45 -16.1 -2.0 -16.7 -6.15 -15.15 -0.9 -17.35 4.5 -15.75 5.7 -13.5 4.05 -11.35 1.75 -8.2 -2.0 -7.4 L-3.25 -6.85 1.0 -7.55 Q0.5 -5.3 1.45 -3.05 2.9 0.2 3.05 4.1 3.15 8.0 5.2 11.25 6.0 12.45 7.45 12.6 9.8 12.9 10.95 11.05 12.65 9.4 12.25 7.05 11.35 1.55 9.05 -3.2 7.8 -5.7 7.25 -8.5 L6.15 -12.35 M-2.1 -12.7 L-2.25 -12.45 -2.4 -12.7 -2.1 -12.7 M-12.0 -6.8 L-12.0 -6.85 Q-12.5 -6.8 -12.0 -6.8" fill="#ffffff" fill-rule="evenodd" stroke="none"/>
    <path d="M2.9 -8.5 L5.9 -11.9 7.25 -8.5 Q7.8 -5.7 9.05 -3.2 11.35 1.55 12.25 7.05 12.65 9.4 10.95 11.05 8.55 12.4 6.75 10.35 4.8 8.1 4.9 5.15 5.0 1.55 3.95 -1.9 L2.95 -4.5 Q2.1 -6.25 2.55 -8.1 L2.9 -8.5" fill="#e6e6e6" fill-rule="evenodd" stroke="none"/>
    <path d="M-2.1 -12.7 L-2.4 -12.7 -2.25 -12.45 -2.1 -12.7 M-11.45 -11.7 L-6.35 -13.55 -0.5 -13.75 0.2 -13.3 Q1.0 -11.75 -2.7 -7.85 L-6.9 -6.65 -5.1 -10.5 -6.65 -12.0 -7.75 -12.05 Q-10.25 -11.45 -12.3 -9.95 L-12.5 -10.2 -11.45 -11.7 M-12.0 -6.8 Q-12.5 -6.8 -12.0 -6.85 L-12.0 -6.8" fill="#f7f7f7" fill-rule="evenodd" stroke="none"/>
    <path d="M-7.5 -14.55 L-6.15 -15.15 Q-2.0 -16.7 2.45 -16.1 3.45 -15.9 3.9 -14.85 4.65 -13.0 3.55 -11.25 L2.55 -10.35 Q-0.05 -9.0 -2.7 -7.85 1.0 -11.75 0.2 -13.3 L-0.5 -13.75 -6.35 -13.55 -11.45 -11.7 Q-9.65 -13.45 -7.5 -14.55 M1.0 -7.55 L2.9 -8.5 2.55 -8.1 Q2.1 -6.25 2.95 -4.5 L3.95 -1.9 Q5.0 1.55 4.9 5.15 4.8 8.1 6.75 10.35 8.55 12.4 10.95 11.05 9.8 12.9 7.45 12.6 6.0 12.45 5.2 11.25 3.15 8.0 3.05 4.1 2.9 0.2 1.45 -3.05 0.5 -5.3 1.0 -7.55 M5.9 -11.9 L6.15 -12.35 7.25 -8.5 5.9 -11.9 M-12.3 -9.95 L-12.75 -9.5 -12.5 -10.2 -12.3 -9.95" fill="#f2f2f2" fill-rule="evenodd" stroke="none"/>
    <path d="M-7.5 -14.55 L-9.4 -13.65 Q-14.35 -11.35 -14.9 -6.3 L-14.9 -6.2 Q-14.2 -3.4 -12.15 -0.9 -10.45 1.05 -10.4 3.55 -10.25 7.95 -8.8 11.9 -8.4 13.2 -7.0 13.75 -2.1 15.85 3.2 14.9 6.6 14.5 9.55 13.0 13.1 11.1 12.8 7.4 12.25 1.95 10.15 -3.0 8.8 -5.95 6.4 -13.2 L6.2 -12.55 6.2 -12.5 6.15 -12.35 5.9 -11.9 2.9 -8.5 1.0 -7.55 -3.25 -6.85 -2.0 -7.4 Q1.75 -8.2 4.05 -11.35 5.7 -13.5 4.5 -15.75 -0.9 -17.35 -6.15 -15.15 L-7.5 -14.55 M5.25 -16.45 Q6.9 -15.85 7.05 -14.0 8.15 -9.7 10.0 -5.75 12.25 -1.0 13.45 3.8 13.9 5.55 14.0 7.35 14.1 9.5 12.85 11.25 10.25 14.85 5.85 15.75 0.5 17.05 -4.85 15.85 -8.0 15.25 -9.4 12.75 -11.2 9.6 -11.15 5.85 -11.15 0.65 -14.4 -3.25 L-15.25 -4.9 Q-16.5 -9.15 -12.95 -12.5 -9.35 -15.9 -4.35 -17.05 0.45 -18.05 5.25 -16.45" fill="#000000" fill-rule="evenodd" stroke="none"/>
  </g>
</svg>
