<?xml version="1.0" encoding="UTF-8" standalone="no"?>
<svg xmlns:xlink="http://www.w3.org/1999/xlink" height="25.5px" width="35.55px" xmlns="http://www.w3.org/2000/svg">
  <g transform="matrix(1.0, 0.0, 0.0, 1.0, 19.0, 13.85)">
    <path d="M-12.1 -11.0 L-10.3 -12.85 -2.8 -12.5 2.3 -11.1 Q5.85 -10.25 9.45 -11.25 L11.35 -11.4 Q12.4 -11.15 13.0 -10.25 14.65 -7.8 15.35 -4.75 15.95 -2.25 15.45 0.4 L15.05 0.0 9.6 0.65 1.85 2.1 Q-2.2 2.05 -5.5 -0.5 L-7.05 -4.95 -7.2 -0.25 -7.55 -1.6 -7.65 -6.05 -8.35 -4.35 -8.8 -7.6 -9.75 -5.1 -10.9 -4.65 -11.7 -5.5 -10.6 -10.2 -9.45 -10.5 -8.75 -10.3 -9.7 -12.15 -12.1 -11.0 M-17.5 -0.4 L-17.75 5.1 -17.95 2.65 -17.5 -0.4 M-17.25 6.6 L-13.75 7.15 -12.35 5.8 Q-14.0 7.75 -15.2 7.8 -16.05 7.75 -17.05 7.0 L-17.25 6.6" fill="#ffffff" fill-rule="evenodd" stroke="none"/>
    <path d="M-12.1 -11.0 L-9.7 -12.15 -8.75 -10.3 -9.45 -10.5 -10.6 -10.2 -11.7 -5.5 -10.9 -4.65 -9.75 -5.1 -8.8 -7.6 -8.35 -4.35 -9.3 0.05 -9.2 -2.4 -12.75 1.15 -14.15 0.45 -13.5 -8.6 -15.1 -6.7 -13.5 -9.45 -12.1 -11.0 M-7.55 -1.6 L-7.2 -0.25 -7.05 -4.95 -5.5 -0.5 Q-2.2 2.05 1.85 2.1 L9.6 0.65 15.05 0.0 15.45 0.4 14.95 2.7 Q13.25 2.3 11.6 2.75 L9.1 3.6 Q4.55 5.2 -0.35 4.55 -5.1 4.45 -8.5 1.5 L-7.55 -1.6 M12.3 9.2 L9.05 9.85 Q4.0 9.85 -0.7 8.75 L12.3 9.2 M-1.85 8.7 L-13.9 9.0 -13.15 8.3 -1.85 8.7" fill="#f7f7f7" fill-rule="evenodd" stroke="none"/>
    <path d="M14.95 2.7 L12.3 9.2 -0.7 8.75 -1.85 8.7 -13.15 8.3 -8.5 1.5 Q-5.1 4.45 -0.35 4.55 4.55 5.2 9.1 3.6 L11.6 2.75 Q13.25 2.3 14.95 2.7 M-13.5 -9.45 L-15.1 -6.7 -13.5 -8.6 -14.15 0.45 -12.75 1.15 -9.2 -2.4 -9.3 0.05 -12.35 5.8 -13.75 7.15 -17.25 6.6 -17.75 5.1 -17.5 -0.4 -15.9 -6.0 -13.5 -9.45" fill="#e6e6e6" fill-rule="evenodd" stroke="none"/>
    <path d="M6.1 -11.6 L10.75 -12.45 13.15 -11.85 14.8 -9.75 Q17.35 -4.55 16.15 1.05 L15.25 5.25 Q14.9 7.1 13.85 8.65 L12.5 10.25 Q10.05 12.2 7.1 11.4 L0.65 9.95 Q-6.2 9.55 -13.05 10.15 -16.45 10.35 -18.25 7.65 L-18.8 6.3 Q-19.85 -2.15 -15.3 -9.2 -13.45 -12.05 -10.45 -13.8 -6.35 -14.05 -2.4 -12.9 L-0.9 -12.45 0.75 -12.05 6.1 -11.6 M15.45 0.4 Q15.95 -2.25 15.35 -4.75 14.65 -7.8 13.0 -10.25 12.4 -11.15 11.35 -11.4 L9.45 -11.25 Q5.85 -10.25 2.3 -11.1 L-2.8 -12.5 -10.3 -12.85 -12.1 -11.0 -13.5 -9.45 -15.9 -6.0 -17.5 -0.4 -17.95 2.65 -17.75 5.1 -17.25 6.6 -17.05 7.0 Q-16.05 7.75 -15.2 7.8 -14.0 7.75 -12.35 5.8 L-9.3 0.05 -8.35 -4.35 -7.65 -6.05 -7.55 -1.6 -8.5 1.5 -13.15 8.3 -13.9 9.0 -1.85 8.7 -0.7 8.75 Q4.0 9.85 9.05 9.85 L12.3 9.2 14.95 2.7 15.45 0.4" fill="#000000" fill-rule="evenodd" stroke="none"/>
  </g>
</svg>
