<?xml version="1.0" encoding="UTF-8" standalone="no"?>
<svg xmlns:xlink="http://www.w3.org/1999/xlink" height="34.15px" width="29.6px" xmlns="http://www.w3.org/2000/svg">
  <g transform="matrix(1.0, 0.0, 0.0, 1.0, 14.85, 16.75)">
    <path d="M-2.35 -16.15 L4.0 -13.7 Q4.95 -13.4 6.3 -11.65 6.95 -10.7 6.85 -9.65 6.65 -7.45 5.95 -5.55 L4.6 -2.1 Q1.85 4.35 1.7 11.45 1.65 12.8 0.45 13.4 -2.65 14.75 -6.1 15.35 -9.9 14.65 -13.5 12.55 -14.4 5.95 -12.95 -0.75 -11.9 -5.5 -9.4 -9.7 L-8.25 -11.9 Q-6.4 -15.6 -2.35 -16.15 M8.6 6.8 L8.55 6.8 8.6 6.7 8.6 6.8" fill="#ffffff" fill-rule="evenodd" stroke="none"/>
    <path d="M-0.45 15.55 L3.55 13.35 Q3.45 8.1 4.25 2.95 4.45 1.95 8.5 -6.2 9.3 -7.8 9.0 -9.6 8.6 -11.95 7.15 -13.95 L11.05 -11.15 12.6 -9.5 13.1 -8.55 Q15.1 -5.1 12.0 -2.35 L8.35 2.8 Q7.85 4.85 8.55 6.8 L10.1 10.65 10.3 11.65 9.8 12.55 3.8 15.15 -0.45 15.55" fill="#e6e6e6" fill-rule="evenodd" stroke="none"/>
    <path d="M11.05 -11.15 L7.15 -13.95 Q8.6 -11.95 9.0 -9.6 9.3 -7.8 8.5 -6.2 4.45 1.95 4.25 2.95 3.45 8.1 3.55 13.35 L-0.45 15.55 -6.1 15.35 Q-2.65 14.75 0.45 13.4 1.65 12.8 1.7 11.45 1.85 4.35 4.6 -2.1 L5.95 -5.55 Q6.65 -7.45 6.85 -9.65 6.95 -10.7 6.3 -11.65 4.95 -13.4 4.0 -13.7 L-2.35 -16.15 Q2.25 -16.3 6.6 -14.35 9.15 -13.25 11.05 -11.15 M10.1 10.65 L8.55 6.8 Q7.85 4.85 8.35 2.8 L8.6 6.7 8.55 6.8 8.6 6.8 Q9.7 8.6 10.1 10.65 M12.0 -2.35 Q15.1 -5.1 13.1 -8.55 L12.6 -9.5 Q13.75 -8.1 14.15 -6.15 L14.15 -5.25 Q13.6 -3.45 12.0 -2.35" fill="#f2f2f2" fill-rule="evenodd" stroke="none"/>
    <path d="M3.2 -16.25 Q6.75 -15.35 9.6 -13.4 11.6 -12.0 13.2 -10.1 L14.45 -8.1 Q14.8 -7.3 14.75 -6.35 14.7 -4.35 13.65 -2.8 L11.15 0.75 Q9.7 2.7 10.05 5.05 L11.15 11.9 11.1 12.85 Q10.6 14.15 8.1 15.2 L2.85 16.85 Q-1.65 18.0 -6.15 16.7 -10.6 15.55 -14.2 13.1 -15.1 9.6 -14.75 6.0 -14.2 0.3 -12.25 -5.25 L-10.8 -9.2 Q-9.0 -14.2 -4.35 -16.1 -0.55 -17.35 3.2 -16.25 M11.05 -11.15 Q9.15 -13.25 6.6 -14.35 2.25 -16.3 -2.35 -16.15 -6.4 -15.6 -8.25 -11.9 L-9.4 -9.7 Q-11.9 -5.5 -12.95 -0.75 -14.4 5.95 -13.5 12.55 -9.9 14.65 -6.1 15.35 L-0.45 15.55 3.8 15.15 9.8 12.55 10.3 11.65 10.1 10.65 Q9.7 8.6 8.6 6.8 L8.6 6.7 8.35 2.8 12.0 -2.35 Q13.6 -3.45 14.15 -5.25 L14.15 -6.15 Q13.75 -8.1 12.6 -9.5 L11.05 -11.15" fill="#000000" fill-rule="evenodd" stroke="none"/>
  </g>
</svg>
