<?xml version="1.0" encoding="UTF-8" standalone="no"?>
<svg xmlns:xlink="http://www.w3.org/1999/xlink" height="219.85px" width="319.0px" xmlns="http://www.w3.org/2000/svg">
  <g transform="matrix(1.0, 0.0, 0.0, 1.0, 118.3, 89.35)">
    <path d="M191.0 -80.35 L191.0 79.65 -109.0 79.65 -109.0 -80.35 191.0 -80.35" fill="#ffffff" fill-rule="evenodd" stroke="none"/>
    <path d="M-67.8 87.65 L-112.3 87.65 Q-117.3 87.65 -117.3 82.65 L-117.3 -83.35 Q-117.3 -88.35 -112.3 -88.35 L194.7 -88.35 Q199.7 -88.35 199.7 -83.35 L199.7 82.65 Q199.7 87.65 194.7 87.65 L147.25 87.65 120.2 87.65 -40.75 87.65 -67.8 87.65 M193.75 -42.85 L193.75 82.3 -56.0 82.7 193.75 82.3 193.75 -42.85 M191.0 -80.35 L-109.0 -80.35 -109.0 79.65 191.0 79.65 191.0 -80.35 M-113.55 40.35 L-113.55 -84.8 136.2 -85.2 -113.55 -84.8 -113.55 40.35" fill="#c1cad7" fill-rule="evenodd" stroke="none"/>
    <path d="M-67.8 87.65 L-40.75 87.65 -40.75 129.45 -67.8 129.45 -67.8 87.65 M120.2 87.65 L147.25 87.65 147.25 129.5 120.2 129.5 120.2 87.65" fill="#94a3b8" fill-rule="evenodd" stroke="none"/>
    <path d="M191.0 -80.35 L-109.0 -80.35 -109.0 79.65 191.0 79.65 191.0 -80.35" fill="none" stroke="#003366" stroke-linecap="round" stroke-linejoin="round" stroke-width="1.0"/>
    <path d="M147.25 87.65 L194.7 87.65 Q199.7 87.65 199.7 82.65 L199.7 -83.35 Q199.7 -88.35 194.7 -88.35 L-112.3 -88.35 Q-117.3 -88.35 -117.3 -83.35 L-117.3 82.65 Q-117.3 87.65 -112.3 87.65 L-67.8 87.65 -40.75 87.65 120.2 87.65 147.25 87.65 M147.25 129.5 L120.2 129.5 120.2 87.65 M-67.8 87.65 L-67.8 129.45 -40.75 129.45" fill="none" stroke="#000000" stroke-linecap="round" stroke-linejoin="round" stroke-width="2.0"/>
    <path d="M136.2 -85.2 L-113.55 -84.8 -113.55 40.35" fill="none" stroke="#d6e7ed" stroke-linecap="round" stroke-linejoin="round" stroke-width="2.0"/>
    <path d="M-56.0 82.7 L193.75 82.3 193.75 -42.85" fill="none" stroke="#8e9eb5" stroke-linecap="round" stroke-linejoin="round" stroke-width="2.0"/>
    <path d="M147.25 87.65 L147.25 129.5 M-40.75 129.45 L-40.75 87.65" fill="none" stroke="#000000" stroke-linecap="round" stroke-linejoin="round" stroke-width="2.0"/>
  </g>
</svg>
