<?xml version="1.0" encoding="UTF-8" standalone="no"?>
<svg xmlns:xlink="http://www.w3.org/1999/xlink" height="162.55px" width="249.3px" xmlns="http://www.w3.org/2000/svg">
  <g transform="matrix(1.0, 0.0, 0.0, 1.0, 124.65, 81.25)">
    <path d="M-115.65 -25.2 Q-114.35 -26.85 -113.2 -28.65 L-108.65 -35.6 -108.4 -35.95 -107.65 -37.0 -105.1 -39.95 -100.7 -44.9 -96.5 -48.4 -90.9 -53.1 Q-89.05 -54.15 -87.3 -55.3 -84.95 -56.85 -82.7 -58.5 L-76.5 -62.75 Q-74.1 -64.2 -71.5 -65.15 L-66.25 -66.75 -56.75 -68.85 -50.15 -70.05 Q-47.6 -70.7 -45.15 -71.6 L-40.45 -73.45 Q-36.1 -75.45 -31.2 -76.1 L-22.65 -77.15 -17.4 -78.25 -9.4 -79.4 -4.45 -79.9 Q4.7 -79.45 22.7 -76.35 L40.65 -73.2 40.6 -73.15 41.25 -73.1 42.3 -72.9 43.2 -72.9 50.35 -72.0 51.1 -71.9 52.45 -71.65 54.65 -71.1 55.45 -70.85 Q60.35 -68.9 62.95 -68.85 L63.5 -68.7 72.15 -66.35 79.0 -64.2 82.6 -62.8 Q85.25 -61.55 87.8 -59.8 L88.15 -59.55 90.2 -57.95 92.5 -55.9 99.6 -48.85 104.65 -44.0 108.9 -39.95 111.4 -37.15 Q112.2 -36.05 112.8 -34.75 L116.5 -26.9 117.25 -25.4 117.4 -24.95 Q110.6 -26.3 106.35 -31.6 101.95 -37.05 101.95 -43.45 L91.5 -51.55 Q83.6 -58.0 81.7 -60.9 L72.15 -64.15 Q18.3 -78.25 -0.15 -78.25 L-17.05 -76.45 -25.35 -75.5 Q-27.25 -75.15 -27.25 -74.15 -27.25 -72.75 -41.5 -69.7 -56.5 -66.5 -57.6 -65.45 -60.25 -62.8 -74.45 -56.35 -79.7 -54.0 -84.45 -52.15 -87.8 -50.65 -94.15 -46.55 L-94.45 -46.3 -97.6 -41.55 -102.6 -34.45 Q-103.4 -32.95 -113.25 -26.7 L-115.65 -25.2" fill="#d89812" fill-rule="evenodd" stroke="none"/>
    <path d="M117.25 -25.4 L116.5 -26.9 112.8 -34.75 Q112.2 -36.05 111.4 -37.15 L108.9 -39.95 104.65 -44.0 99.6 -48.85 92.5 -55.9 90.2 -57.95 88.15 -59.55 87.8 -59.8 Q85.25 -61.55 82.6 -62.8 L79.0 -64.2 72.15 -66.35 63.5 -68.7 62.95 -68.85 Q60.35 -68.9 55.45 -70.85 L54.65 -71.1 52.45 -71.65 51.1 -71.9 50.35 -72.0 43.2 -72.9 42.3 -72.9 41.25 -73.1 40.6 -73.15 40.65 -73.2 22.7 -76.35 Q4.7 -79.45 -4.45 -79.9 L-9.4 -79.4 -17.4 -78.25 -22.65 -77.15 -31.2 -76.1 Q-36.1 -75.45 -40.45 -73.45 L-45.15 -71.6 Q-47.6 -70.7 -50.15 -70.05 L-56.75 -68.85 -66.25 -66.75 -71.5 -65.15 Q-74.1 -64.2 -76.5 -62.75 L-82.7 -58.5 Q-84.95 -56.85 -87.3 -55.3 -89.05 -54.15 -90.9 -53.1 L-96.5 -48.4 -100.7 -44.9 -105.1 -39.95 -107.65 -37.0 -108.4 -35.95 -108.65 -35.6 -113.2 -28.65 Q-114.35 -26.85 -115.65 -25.2 L-115.7 -25.15 -117.7 -22.9 Q-120.2 -20.45 -121.6 -17.65 -122.6 -15.65 -123.05 -13.25 -123.9 -8.55 -123.1 -3.7 -122.35 0.95 -120.1 5.15 L-118.5 8.45 -118.95 4.25 -118.05 9.1 -118.0 9.55 -117.25 14.45 -117.05 16.1 -116.0 22.95 -114.85 27.65 -113.7 30.0 -111.2 33.3 -107.25 37.4 -103.45 40.95 Q-102.2 42.15 -101.1 43.5 L-101.1 43.55 -100.75 43.9 -100.6 44.15 -98.2 47.5 -96.05 50.65 Q-94.9 52.25 -92.95 53.25 -87.65 55.95 -82.15 57.75 -77.75 59.15 -73.45 60.85 -69.2 62.55 -64.95 64.4 L-60.95 65.75 -55.65 67.15 -50.6 67.95 -44.5 69.3 -43.4 69.65 -39.95 70.85 -36.35 72.45 -33.45 73.55 -26.4 75.15 -8.5 78.15 Q-0.55 79.5 7.55 79.8 L15.65 80.1 22.35 79.05 Q25.15 78.45 27.85 77.4 L33.95 75.0 Q41.4 71.55 49.85 70.8 L50.7 71.0 43.6 73.0 45.95 72.9 48.55 72.8 52.25 72.6 56.6 71.6 Q58.25 71.3 59.75 70.55 L62.3 69.15 62.7 68.85 63.45 68.4 64.55 67.55 Q65.95 66.55 67.4 65.65 L69.35 64.65 69.65 64.55 70.6 64.15 79.65 60.85 86.5 58.25 Q88.95 57.3 91.25 56.05 L95.9 53.4 Q99.2 51.25 101.65 48.15 103.15 46.2 104.05 44.05 L104.25 43.65 105.4 41.1 107.15 37.65 Q108.75 34.7 110.7 31.9 L111.0 31.5 112.4 29.5 117.05 22.55 Q119.5 18.9 121.0 14.65 L122.3 10.4 122.9 7.5 123.1 5.95 122.9 5.55 123.2 3.35 121.95 2.0 123.5 2.5 123.15 -3.1 123.15 -3.45 122.4 -12.45 121.9 -14.9 120.75 -17.9 117.25 -25.4 M54.1 -72.3 Q59.75 -70.4 63.3 -69.55 L64.45 -69.3 72.15 -67.55 Q76.6 -66.7 80.95 -64.7 84.85 -62.95 88.3 -60.4 91.55 -57.95 94.45 -54.95 L100.55 -48.85 Q103.65 -45.85 106.9 -43.0 L111.6 -38.3 Q112.7 -37.05 113.45 -35.5 L116.7 -28.9 120.95 -20.6 Q123.1 -16.5 123.6 -11.75 L124.5 -1.9 Q124.9 3.0 124.15 7.95 123.35 12.9 121.15 17.2 L117.05 24.6 112.15 32.8 Q109.85 36.6 107.7 40.5 L105.85 44.1 Q103.7 48.35 100.25 51.55 96.95 54.55 93.1 56.85 90.4 58.5 87.45 59.6 83.05 61.05 78.75 62.75 L69.65 66.75 61.45 71.05 Q59.05 72.3 56.85 72.95 53.65 73.85 50.15 73.9 L41.5 74.55 Q39.15 74.8 36.9 75.6 L28.35 78.8 Q23.95 80.45 19.25 80.8 L12.35 81.3 3.05 80.9 -6.25 79.9 -11.1 79.2 -16.2 78.35 -25.55 76.45 -33.95 74.2 -42.0 71.8 -50.8 69.9 -57.6 68.1 -66.9 65.3 Q-70.6 64.2 -74.25 62.45 -77.75 60.65 -81.4 59.25 L-89.4 56.15 Q-94.2 54.45 -97.25 50.4 L-99.7 46.8 Q-101.65 43.45 -104.7 41.2 L-111.3 35.65 Q-112.5 34.5 -113.25 33.05 -115.25 29.45 -116.75 25.7 -117.65 23.4 -117.9 21.0 -118.3 17.55 -118.25 14.1 -118.2 10.65 -119.85 7.45 -122.0 3.4 -123.7 -0.85 -124.25 -2.2 -124.4 -3.65 L-124.65 -9.3 Q-124.6 -13.85 -122.55 -17.85 -121.0 -20.75 -118.85 -23.45 L-113.95 -30.25 -109.55 -36.35 -104.9 -41.95 -99.85 -46.9 -99.75 -47.0 -97.6 -49.15 Q-94.5 -52.2 -89.9 -54.65 L-87.7 -56.15 -84.15 -58.65 -80.85 -61.15 -76.0 -64.85 -73.35 -66.3 Q-70.35 -67.35 -67.2 -68.05 L-62.6 -69.1 -52.95 -70.15 Q-49.25 -70.75 -45.95 -72.4 -41.5 -74.5 -36.65 -75.7 L-27.8 -77.7 -19.85 -79.3 -11.3 -80.8 -7.3 -81.25 -4.65 -80.95 -2.2 -81.1 Q29.3 -76.6 44.05 -73.65 50.05 -73.65 54.1 -72.3" fill="#764701" fill-rule="evenodd" stroke="none"/>
    <path d="M123.15 -3.45 L123.15 -3.1 123.5 2.5 121.95 2.0 123.2 3.35 122.9 5.55 123.1 5.95 122.9 7.5 122.3 10.4 121.0 14.65 Q119.5 18.9 117.05 22.55 L112.4 29.5 111.95 29.45 111.0 31.5 110.7 31.9 Q108.75 34.7 107.15 37.65 L105.4 41.1 104.25 43.65 104.05 44.05 Q103.15 46.2 101.65 48.15 99.2 51.25 95.9 53.4 L91.25 56.05 Q88.95 57.3 86.5 58.25 L79.65 60.85 70.6 64.15 69.65 64.55 69.35 64.65 67.4 65.65 Q65.95 66.55 64.55 67.55 L63.45 68.4 62.8 68.7 61.9 68.9 62.3 69.15 59.75 70.55 Q58.25 71.3 56.6 71.6 L52.25 72.6 48.55 72.8 Q48.1 72.45 47.4 72.45 L46.7 72.85 45.95 72.9 43.6 73.0 50.7 71.0 49.85 70.8 Q41.4 71.55 33.95 75.0 L27.85 77.4 Q25.15 78.45 22.35 79.05 L15.65 80.1 7.55 79.8 Q-0.55 79.5 -8.5 78.15 L-26.4 75.15 -33.45 73.55 -36.35 72.45 -39.95 70.85 -43.4 69.65 -43.45 69.6 Q-46.0 68.5 -50.6 67.95 L-55.65 67.15 -60.95 65.75 -64.95 64.4 Q-69.2 62.55 -73.45 60.85 -77.75 59.15 -82.15 57.75 -87.65 55.95 -92.95 53.25 -94.9 52.25 -96.05 50.65 L-98.2 47.5 -100.6 44.15 -100.75 43.9 -101.1 43.55 -101.1 43.5 Q-102.2 42.15 -103.45 40.95 L-107.25 37.4 -111.2 33.3 -113.7 30.0 -114.85 27.65 -116.0 22.95 -117.05 16.1 -117.25 14.45 -118.0 9.55 -118.05 9.1 Q-118.25 3.35 -119.8 0.45 L-119.45 0.45 Q-117.05 0.45 -115.6 8.6 -114.85 12.7 -114.6 16.8 L-114.6 17.05 Q-113.9 18.1 -113.3 19.55 -111.95 22.8 -110.55 29.2 -110.15 30.45 -103.35 36.75 L-103.85 35.3 -104.7 32.2 Q-104.7 31.7 -106.15 29.95 L-105.7 29.95 Q-105.5 29.95 -94.8 45.05 L-94.8 45.25 Q-92.6 48.1 -91.2 49.35 -89.55 50.85 -80.15 54.65 -70.35 58.65 -68.4 60.1 -65.3 62.4 -58.9 62.85 L-54.75 63.25 -51.55 62.8 Q-48.7 62.8 -43.15 63.95 -37.5 65.15 -35.25 66.25 L-41.25 65.95 -44.2 66.0 -32.4 70.25 Q-26.45 72.25 -9.1 75.65 L1.0 77.55 7.35 77.65 Q13.7 77.65 16.3 74.9 19.25 71.85 24.5 71.35 L25.6 71.45 26.25 72.0 Q23.2 72.95 21.25 74.8 L19.15 77.2 26.45 74.05 Q39.25 68.9 49.65 68.9 57.0 68.9 64.35 64.2 L69.55 60.65 70.55 60.0 Q71.3 58.5 72.6 57.35 76.9 53.5 87.65 51.85 L88.3 52.2 Q79.75 54.7 78.25 56.1 L79.4 56.3 Q84.2 56.75 89.2 52.65 89.95 52.0 92.25 50.75 L96.0 48.0 Q97.5 46.6 99.65 43.4 101.8 40.2 103.55 38.5 106.95 35.1 108.95 28.85 109.3 27.7 112.15 24.3 114.85 21.05 115.15 19.4 L115.25 19.4 Q118.55 12.55 121.25 4.85 121.4 1.65 123.15 -3.45 M-103.9 -16.3 L-103.75 -16.6 -101.9 -20.05 -101.4 -23.05 Q-100.7 -24.65 -99.5 -29.15 -98.2 -33.05 -96.3 -34.0 L-97.3 -31.35 Q-96.35 -32.25 -94.85 -32.85 -92.6 -33.8 -91.4 -35.95 L-91.15 -36.35 -91.05 -37.3 Q-91.05 -38.2 -89.6 -39.6 L-87.75 -41.05 -88.85 -39.55 -86.85 -40.95 -81.55 -44.1 -79.05 -46.75 -76.8 -49.45 Q-75.3 -50.7 -72.7 -50.75 -66.85 -50.85 -63.0 -54.3 -62.0 -55.2 -59.95 -56.05 -57.2 -57.2 -55.5 -58.25 L-52.15 -60.0 -52.45 -60.2 Q-53.95 -61.15 -53.95 -62.1 L-53.85 -62.8 -53.55 -62.8 Q-52.5 -60.95 -49.4 -60.95 L-49.35 -60.95 -49.1 -61.0 -42.0 -62.25 Q-26.5 -69.3 -21.75 -69.3 -17.95 -69.3 -14.1 -68.35 L-9.15 -67.4 1.4 -68.8 9.15 -69.8 10.45 -70.15 12.95 -70.7 Q14.8 -71.35 14.8 -72.1 L13.9 -73.4 14.0 -73.55 Q15.55 -72.85 15.55 -71.45 L15.35 -70.65 Q20.45 -70.3 29.55 -67.6 38.85 -64.85 42.9 -62.8 45.8 -61.4 53.6 -60.7 61.1 -60.1 63.35 -58.8 L64.3 -58.85 Q67.0 -58.85 72.05 -56.3 L73.15 -56.45 Q73.4 -57.4 74.4 -58.65 75.5 -59.95 75.95 -59.75 74.75 -57.65 74.75 -57.2 L74.85 -56.1 77.75 -53.8 79.35 -52.4 Q81.05 -51.6 82.4 -49.65 84.3 -47.05 85.95 -46.0 93.2 -41.35 94.55 -38.9 L94.9 -38.25 94.75 -38.9 94.65 -39.45 Q94.25 -41.9 93.3 -42.85 L93.3 -43.3 93.55 -43.3 Q94.85 -42.1 95.35 -39.75 95.95 -37.15 96.85 -36.0 L100.6 -31.0 102.8 -28.4 Q104.15 -26.3 104.15 -25.0 L105.2 -22.2 105.35 -22.95 106.65 -24.55 Q106.8 -24.9 106.8 -24.25 L105.95 -22.0 Q105.95 -21.3 108.9 -14.15 110.15 -11.0 110.9 -7.7 L110.35 -5.95 110.5 -4.85 110.45 -4.95 110.05 -7.3 109.05 -10.75 107.9 -13.85 Q105.15 -20.75 105.15 -21.4 L105.15 -21.5 Q103.4 -25.55 100.95 -29.2 99.6 -30.35 98.4 -32.2 L96.3 -35.35 95.45 -36.25 93.05 -39.95 Q91.75 -41.75 87.3 -43.6 84.7 -44.65 82.95 -47.25 80.85 -50.3 79.9 -51.0 77.8 -52.55 73.7 -54.0 68.4 -55.8 64.95 -57.15 61.0 -58.7 58.5 -58.9 52.9 -59.45 43.55 -61.35 40.35 -62.0 37.25 -63.85 34.5 -65.45 29.35 -66.15 L23.45 -68.1 Q18.3 -69.75 13.8 -69.75 L-9.1 -66.3 Q-10.9 -66.3 -14.2 -67.25 -17.5 -68.25 -21.75 -68.25 -25.5 -68.25 -32.6 -65.35 L-41.85 -61.25 Q-43.5 -60.55 -46.75 -60.35 L-51.25 -59.65 Q-51.85 -59.45 -55.05 -57.15 -61.45 -54.2 -62.5 -53.4 -65.6 -51.2 -65.85 -51.1 -67.85 -50.05 -71.6 -49.75 -74.55 -49.5 -76.1 -48.25 L-78.55 -45.65 Q-79.75 -44.45 -84.65 -41.15 L-85.15 -40.8 -87.3 -39.3 -88.3 -38.8 Q-88.95 -38.55 -89.35 -38.1 L-90.05 -37.2 -90.2 -36.65 Q-91.0 -32.95 -93.05 -32.6 L-93.7 -32.25 Q-96.9 -30.8 -97.95 -28.75 -98.35 -28.0 -98.85 -25.25 -100.25 -18.35 -103.2 -13.9 L-104.65 -11.9 -104.8 -12.8 -103.9 -16.3 M121.1 8.5 L121.1 8.6 120.8 9.8 Q121.55 9.1 121.1 8.5" fill="#b47400" fill-rule="evenodd" stroke="none"/>
    <path d="M-115.65 -25.2 L-113.25 -26.7 Q-103.4 -32.95 -102.6 -34.45 L-97.6 -41.55 -94.45 -46.3 -94.15 -46.55 Q-87.8 -50.65 -84.45 -52.15 -79.7 -54.0 -74.45 -56.35 -60.25 -62.8 -57.6 -65.45 -56.5 -66.5 -41.5 -69.7 -27.25 -72.75 -27.25 -74.15 -27.25 -75.15 -25.35 -75.5 L-17.05 -76.45 -0.15 -78.25 Q18.3 -78.25 72.15 -64.15 L81.7 -60.9 Q83.6 -58.0 91.5 -51.55 L101.95 -43.45 Q101.95 -37.05 106.35 -31.6 110.6 -26.3 117.4 -24.95 L117.25 -25.4 120.75 -17.9 121.9 -14.9 122.4 -12.45 123.15 -3.45 Q121.4 1.65 121.25 4.85 118.55 12.55 115.25 19.4 L115.15 19.4 Q114.85 21.05 112.15 24.3 109.3 27.7 108.95 28.85 106.95 35.1 103.55 38.5 101.8 40.2 99.65 43.4 97.5 46.6 96.0 48.0 L92.25 50.75 Q89.95 52.0 89.2 52.65 84.2 56.75 79.4 56.3 L78.25 56.1 Q79.75 54.7 88.3 52.2 L87.65 51.85 Q76.9 53.5 72.6 57.35 71.3 58.5 70.55 60.0 L69.55 60.65 64.35 64.2 Q57.0 68.9 49.65 68.9 39.25 68.9 26.45 74.05 L19.15 77.2 21.25 74.8 Q23.2 72.95 26.25 72.0 L25.6 71.45 24.5 71.35 Q19.25 71.85 16.3 74.9 13.7 77.65 7.35 77.65 L1.0 77.55 -9.1 75.65 Q-26.45 72.25 -32.4 70.25 L-44.2 66.0 -41.25 65.95 -35.25 66.25 Q-37.5 65.15 -43.15 63.95 -48.7 62.8 -51.55 62.8 L-54.75 63.25 -58.9 62.85 Q-65.3 62.4 -68.4 60.1 -70.35 58.65 -80.15 54.65 -89.55 50.85 -91.2 49.35 -92.6 48.1 -94.8 45.25 L-94.8 45.05 Q-105.5 29.95 -105.7 29.95 L-106.15 29.95 Q-104.7 31.7 -104.7 32.2 L-103.85 35.3 -103.35 36.75 Q-110.15 30.45 -110.55 29.2 -111.95 22.8 -113.3 19.55 -113.9 18.1 -114.6 17.05 L-114.6 16.8 Q-114.85 12.7 -115.6 8.6 -117.05 0.45 -119.45 0.45 L-119.8 0.45 Q-118.25 3.35 -118.05 9.1 L-118.95 4.25 -118.5 8.45 -120.1 5.15 Q-122.35 0.95 -123.1 -3.7 -123.9 -8.55 -123.05 -13.25 -122.6 -15.65 -121.6 -17.65 -120.2 -20.45 -117.7 -22.9 L-115.7 -25.15 -115.65 -25.2 M112.4 29.5 L111.0 31.5 111.95 29.45 112.4 29.5 M63.45 68.4 L62.7 68.85 62.3 69.15 61.9 68.9 62.8 68.7 63.45 68.4 M48.55 72.8 L45.95 72.9 46.7 72.85 47.4 72.45 Q48.1 72.45 48.55 72.8 M-43.4 69.65 L-44.5 69.3 -50.6 67.95 Q-46.0 68.5 -43.45 69.6 L-43.4 69.65 M94.55 -38.9 Q93.2 -41.35 85.95 -46.0 84.3 -47.05 82.4 -49.65 81.05 -51.6 79.35 -52.4 L77.75 -53.8 74.85 -56.1 74.75 -57.2 Q74.75 -57.65 75.95 -59.75 75.5 -59.95 74.4 -58.65 73.4 -57.4 73.15 -56.45 L72.05 -56.3 Q67.0 -58.85 64.3 -58.85 L63.35 -58.8 Q61.1 -60.1 53.6 -60.7 45.8 -61.4 42.9 -62.8 38.85 -64.85 29.55 -67.6 20.45 -70.3 15.35 -70.65 L15.55 -71.45 Q15.55 -72.85 14.0 -73.55 L13.9 -73.4 14.8 -72.1 Q14.8 -71.35 12.95 -70.7 L10.45 -70.15 9.15 -69.8 1.4 -68.8 -9.15 -67.4 -14.1 -68.35 Q-17.95 -69.3 -21.75 -69.3 -26.5 -69.3 -42.0 -62.25 L-49.1 -61.0 -49.35 -60.95 -49.4 -60.95 Q-52.5 -60.95 -53.55 -62.8 L-53.85 -62.8 -53.95 -62.1 Q-53.95 -61.15 -52.45 -60.2 L-52.15 -60.0 -55.5 -58.25 Q-57.2 -57.2 -59.95 -56.05 -62.0 -55.2 -63.0 -54.3 -66.85 -50.85 -72.7 -50.75 -75.3 -50.7 -76.8 -49.45 L-79.05 -46.75 -81.55 -44.1 -86.85 -40.95 -88.85 -39.55 -87.75 -41.05 -89.6 -39.6 Q-91.05 -38.2 -91.05 -37.3 L-91.15 -36.35 -91.4 -35.95 Q-92.6 -33.8 -94.85 -32.85 -96.35 -32.25 -97.3 -31.35 L-96.3 -34.0 Q-98.2 -33.05 -99.5 -29.15 -100.7 -24.65 -101.4 -23.05 L-101.9 -20.05 -103.75 -16.6 -103.9 -16.3 -104.5 -15.2 Q-104.75 -17.65 -105.65 -19.75 -106.6 -21.8 -108.15 -23.5 L-108.85 -24.35 -108.95 -24.25 -109.2 -24.5 -109.45 -24.35 Q-106.8 -20.05 -106.8 -15.8 L-106.9 -14.7 -107.4 -10.25 -107.45 -9.85 -107.85 -4.3 -107.8 -4.05 -107.8 -3.4 Q-107.8 -1.15 -106.25 2.25 -104.65 5.85 -104.5 8.65 -104.3 16.95 -99.95 20.8 -93.9 26.35 -89.6 33.0 -88.3 35.1 -82.1 39.1 -78.5 41.45 -75.85 42.6 -77.15 42.9 -78.25 43.45 L-78.3 43.5 -78.9 43.75 -79.1 43.85 Q-81.0 44.9 -81.0 45.85 -81.0 46.6 -80.85 46.15 L-78.35 44.9 Q-76.65 44.05 -74.5 44.05 -68.05 44.05 -60.65 47.9 -55.25 50.7 -52.2 51.45 -44.45 55.25 -39.35 56.65 L-28.05 58.35 Q-18.45 59.65 -16.8 60.65 -6.1 67.45 0.95 67.5 L0.4 67.1 Q-4.65 66.0 -9.25 63.6 L-12.4 61.8 Q-9.55 62.2 -4.35 63.35 2.15 64.75 11.2 64.75 22.95 64.75 35.5 61.05 48.05 57.35 55.5 57.35 L57.45 57.5 57.6 57.5 57.45 57.3 56.35 56.85 56.35 56.8 Q67.65 54.8 78.3 45.25 L82.4 41.45 Q85.05 39.05 87.55 37.85 98.05 32.8 99.4 30.85 101.0 28.55 101.9 23.4 102.7 18.65 105.15 16.0 109.5 11.2 110.75 8.35 111.35 6.9 111.6 4.8 112.25 3.1 112.15 1.15 112.05 -1.45 112.25 -3.75 112.65 -8.35 114.35 -11.9 112.6 -11.6 110.95 -7.45 L110.9 -7.7 Q110.15 -11.0 108.9 -14.15 105.95 -21.3 105.95 -22.0 L106.8 -24.25 Q106.8 -24.9 106.65 -24.55 L105.35 -22.95 105.2 -22.2 104.15 -25.0 Q104.15 -26.3 102.8 -28.4 L100.6 -31.0 96.85 -36.0 Q95.95 -37.15 95.35 -39.75 94.85 -42.1 93.55 -43.3 L93.3 -43.3 93.3 -42.85 Q94.25 -41.9 94.65 -39.45 L94.75 -38.9 94.55 -38.9 M121.1 8.5 Q121.55 9.1 120.8 9.8 L121.1 8.6 121.1 8.5" fill="#c68600" fill-rule="evenodd" stroke="none"/>
    <path d="M110.9 -7.7 L110.95 -7.45 Q112.6 -11.6 114.35 -11.9 112.65 -8.35 112.25 -3.75 112.05 -1.45 112.15 1.15 112.25 3.1 111.6 4.8 111.35 6.9 110.75 8.35 109.5 11.2 105.15 16.0 102.7 18.65 101.9 23.4 101.0 28.55 99.4 30.85 98.05 32.8 87.55 37.85 85.05 39.05 82.4 41.45 L78.3 45.25 Q67.65 54.8 56.35 56.8 L56.3 56.85 56.35 56.85 57.45 57.3 57.6 57.5 57.45 57.5 55.5 57.35 Q48.05 57.35 35.5 61.05 22.95 64.75 11.2 64.75 2.15 64.75 -4.35 63.35 -9.55 62.2 -12.4 61.8 L-9.25 63.6 Q-4.65 66.0 0.4 67.1 L0.95 67.5 Q-6.1 67.45 -16.8 60.65 -18.45 59.65 -28.05 58.35 L-39.35 56.65 Q-44.45 55.25 -52.2 51.45 -55.25 50.7 -60.65 47.9 -68.05 44.05 -74.5 44.05 -76.65 44.05 -78.35 44.9 L-80.85 46.15 Q-81.0 46.6 -81.0 45.85 -81.0 44.9 -79.1 43.85 L-78.9 43.75 -78.3 43.5 -78.25 43.45 Q-77.15 42.9 -75.85 42.6 -78.5 41.45 -82.1 39.1 -88.3 35.1 -89.6 33.0 -93.9 26.35 -99.95 20.8 -104.3 16.95 -104.5 8.65 -104.65 5.85 -106.25 2.25 -107.8 -1.15 -107.8 -3.4 L-107.8 -4.05 -107.85 -4.3 -107.45 -9.85 -107.4 -10.25 -106.9 -14.7 -106.8 -15.8 Q-106.8 -20.05 -109.45 -24.35 L-109.2 -24.5 -108.95 -24.25 -108.85 -24.35 -108.15 -23.5 Q-106.6 -21.8 -105.65 -19.75 -104.75 -17.65 -104.5 -15.2 L-103.9 -16.3 -104.8 -12.8 -104.65 -11.9 -105.1 -11.45 Q-105.2 -10.25 -105.75 -8.45 L-105.75 -8.4 -105.75 -8.35 -106.05 -7.4 Q-106.45 -5.7 -106.45 -3.45 -106.45 -1.9 -104.75 2.85 -103.1 7.55 -103.1 8.75 -103.1 16.25 -98.05 20.9 -95.5 23.3 -92.55 27.3 L-87.75 33.6 Q-82.2 39.95 -72.7 42.6 -66.6 42.75 -60.2 45.9 L-53.45 49.75 Q-41.4 54.85 -38.2 55.85 L-31.75 56.7 -24.5 57.3 -20.3 58.05 Q-18.7 58.35 -16.55 59.5 L-14.3 60.75 -10.2 60.4 Q-8.45 60.4 -2.4 61.95 3.6 63.5 8.65 63.5 22.65 63.5 35.4 60.0 L43.9 57.6 Q48.0 56.55 51.15 56.5 54.15 55.3 59.75 53.65 66.2 51.75 68.05 50.4 L73.75 46.7 Q76.7 44.9 78.1 43.25 79.85 41.25 89.65 35.85 98.3 31.1 99.3 28.05 100.45 22.9 101.3 20.15 102.9 15.4 106.6 12.25 109.55 9.8 110.35 2.55 L110.55 -0.65 110.6 -1.15 110.6 -3.15 110.6 -3.25 110.5 -4.85 110.35 -5.95 110.9 -7.7" fill="#885913" fill-rule="evenodd" stroke="none"/>
  </g>
</svg>
