<?xml version="1.0" encoding="UTF-8" standalone="no"?>
<svg xmlns:xlink="http://www.w3.org/1999/xlink" height="47.3px" width="106.5px" xmlns="http://www.w3.org/2000/svg">
  <g transform="matrix(1.0, 0.0, 0.0, 1.0, 52.9, 25.2)">
    <path d="M-51.1 -3.8 L-51.0 -2.55 Q-49.8 -1.95 -49.15 -1.1 -48.4 -0.25 -47.25 0.1 L-43.15 0.6 -42.75 0.6 Q-36.3 0.6 -30.05 -2.7 -25.0 -5.35 -23.3 -8.0 -20.45 -12.3 -18.85 -13.45 -16.3 -15.3 -11.5 -15.45 L-12.3 -15.45 -5.6 -15.75 0.75 -15.75 Q6.25 -15.15 11.6 -13.25 L23.85 -8.7 Q32.0 -5.9 41.35 -5.15 L43.5 -4.95 43.5 -5.0 Q43.95 -5.6 44.15 -7.2 44.3 -8.6 44.75 -8.85 46.25 -9.8 49.3 -10.4 L50.7 -8.5 Q53.6 -3.9 53.6 0.95 53.6 2.65 49.1 7.85 L48.35 8.75 Q44.1 7.65 42.55 7.5 L36.85 7.85 Q35.9 8.35 34.0 8.95 L30.7 10.35 Q27.6 11.5 25.2 11.5 L23.8 11.3 16.35 10.95 Q10.2 10.95 2.4 13.6 -0.2 13.35 -7.05 13.5 L-13.75 13.8 Q-23.6 13.8 -33.1 11.6 L-39.5 10.2 -37.6 10.05 -33.1 10.1 Q-30.9 10.15 -30.9 9.4 L-31.05 9.05 Q-34.2 7.7 -45.45 7.3 L-45.45 7.4 -47.65 7.55 Q-49.75 4.8 -50.75 0.6 L-51.1 -3.8 M27.75 -4.55 Q31.0 -1.45 36.85 -1.45 39.5 -1.45 41.2 -2.4 34.35 -2.8 27.75 -4.55 M45.85 11.5 L45.9 11.4 46.45 10.85 45.85 11.5 M-20.95 19.6 L-21.6 19.35 -20.85 19.45 -20.95 19.6" fill="#ff4d00" fill-rule="evenodd" stroke="none"/>
    <path d="M49.3 -10.4 Q46.25 -9.8 44.75 -8.85 44.3 -8.6 44.15 -7.2 43.95 -5.6 43.5 -5.0 L43.5 -4.95 41.35 -5.15 Q32.0 -5.9 23.85 -8.7 L11.6 -13.25 Q6.25 -15.15 0.75 -15.75 L-5.6 -15.75 -12.3 -15.45 -11.5 -15.45 Q-16.3 -15.3 -18.85 -13.45 -20.45 -12.3 -23.3 -8.0 -25.0 -5.35 -30.05 -2.7 -36.3 0.6 -42.75 0.6 L-43.15 0.6 -47.25 0.1 Q-48.4 -0.25 -49.15 -1.1 -49.8 -1.95 -51.0 -2.55 L-51.1 -3.8 -51.15 -4.25 -51.15 -4.45 Q-52.3 -4.8 -52.35 -5.5 L-52.2 -6.85 Q-52.2 -7.35 -52.9 -9.35 L-52.85 -9.85 -52.6 -10.05 -52.15 -10.15 Q-50.75 -10.15 -50.3 -8.65 L-50.05 -6.6 Q-47.25 -11.15 -38.5 -15.7 -29.2 -20.5 -18.3 -22.5 -18.2 -24.2 -16.55 -23.85 -15.1 -23.55 -15.35 -25.1 L-15.2 -25.2 Q-14.15 -24.75 -14.9 -23.85 L-13.35 -23.8 -6.75 -24.2 Q5.95 -24.2 21.55 -21.2 32.15 -19.2 39.2 -16.95 43.6 -15.55 46.75 -12.95 L49.3 -10.4 M27.75 -4.55 Q34.35 -2.8 41.2 -2.4 39.5 -1.45 36.85 -1.45 31.0 -1.45 27.75 -4.55" fill="#ff7528" fill-rule="evenodd" stroke="none"/>
    <path d="M-47.65 7.55 L-45.45 7.4 -45.45 7.3 Q-34.2 7.7 -31.05 9.05 L-30.9 9.4 Q-30.9 10.15 -33.1 10.1 L-37.6 10.05 -39.5 10.2 -33.1 11.6 Q-23.6 13.8 -13.75 13.8 L-7.05 13.5 Q-0.2 13.35 2.4 13.6 10.2 10.95 16.35 10.95 L23.8 11.3 25.2 11.5 Q27.6 11.5 30.7 10.35 L34.0 8.95 Q35.9 8.35 36.85 7.85 L42.55 7.5 Q44.1 7.65 48.35 8.75 L46.45 10.85 45.9 11.4 45.85 11.5 Q44.15 13.1 43.4 13.4 41.25 14.15 36.95 16.7 33.4 18.75 30.0 19.4 L20.65 21.45 14.65 22.1 -16.7 20.9 Q-18.7 20.55 -20.95 19.6 L-20.85 19.45 -21.6 19.35 Q-23.8 18.5 -25.95 18.0 -34.05 16.1 -36.4 15.2 -38.95 14.2 -40.5 13.15 L-44.2 10.7 -44.45 10.55 -45.75 9.55 -45.95 9.4 -47.65 7.55" fill="#ed3b00" fill-rule="evenodd" stroke="none"/>
  </g>
</svg>
