<?xml version="1.0" encoding="UTF-8" standalone="no"?>
<svg xmlns:xlink="http://www.w3.org/1999/xlink" height="50.3px" width="106.5px" xmlns="http://www.w3.org/2000/svg">
  <g transform="matrix(1.0, 0.0, 0.0, 1.0, 52.9, 26.1)">
    <path d="M-51.0 -2.35 L-51.1 -3.8 -51.0 -2.55 -51.0 -2.35 M-12.3 -15.45 L-11.65 -15.55 -11.5 -15.45 -12.3 -15.45 M-21.6 19.35 L-20.85 19.45 -20.95 19.6 -21.6 19.35" fill="#ff4d00" fill-rule="evenodd" stroke="none"/>
    <path d="M27.75 -4.55 Q34.35 -2.8 41.2 -2.4 39.5 -1.45 36.85 -1.45 31.0 -1.45 27.75 -4.55 M-12.4 -15.4 L-12.3 -15.45 -11.5 -15.45 -12.4 -15.4" fill="#ff7528" fill-rule="evenodd" stroke="none"/>
    <path d="M-51.0 -2.35 L-51.0 -2.55 -50.95 -2.5 -51.0 -2.35" fill="#990000" fill-rule="evenodd" stroke="none"/>
    <path d="M-49.0 -8.05 Q-47.15 -10.2 -44.75 -11.85 L-41.85 -13.75 -38.45 -15.6 -33.65 -17.75 -28.75 -19.65 -23.6 -21.3 -18.3 -22.5 -15.5 -24.0 -15.3 -24.4 -15.35 -25.1 -15.25 -25.05 -14.75 -24.9 -14.55 -24.6 -14.9 -23.85 -10.9 -23.85 -8.2 -24.1 -7.1 -24.15 -3.5 -24.1 3.25 -23.75 10.3 -23.0 26.65 -20.15 37.45 -17.45 Q42.8 -16.15 47.1 -12.65 L49.3 -10.4 Q46.25 -9.8 44.75 -8.85 44.3 -8.6 44.15 -7.2 43.95 -5.6 43.5 -5.0 L43.5 -4.95 41.35 -5.15 Q32.0 -5.9 23.85 -8.7 L11.6 -13.25 Q6.25 -15.15 0.75 -15.75 L-5.6 -15.75 -11.65 -15.55 -12.3 -15.45 -12.4 -15.4 Q-16.55 -15.15 -18.85 -13.45 -20.45 -12.3 -23.3 -8.0 -25.0 -5.35 -30.05 -2.7 -36.3 0.6 -42.75 0.6 L-43.15 0.6 -47.25 0.1 Q-48.4 -0.25 -49.15 -1.1 -49.8 -1.95 -50.95 -2.5 L-51.0 -2.55 -51.1 -3.8 -51.15 -4.25 -51.15 -4.45 Q-52.3 -4.8 -52.35 -5.5 L-52.2 -6.85 Q-52.2 -7.35 -52.9 -9.35 L-52.85 -9.85 -52.6 -10.05 -52.15 -10.15 Q-50.75 -10.15 -50.3 -8.65 L-50.05 -6.6 -49.0 -8.05" fill="#f40202" fill-rule="evenodd" stroke="none"/>
    <path d="M49.3 -10.4 L50.7 -8.5 Q53.6 -3.9 53.6 0.95 53.6 2.65 49.1 7.85 L48.35 8.75 45.7 8.1 42.55 7.5 36.85 7.85 Q35.9 8.35 34.0 8.95 L30.7 10.35 Q27.6 11.5 25.2 11.5 L23.8 11.3 16.35 10.95 Q10.2 10.95 2.4 13.6 -0.2 13.35 -7.05 13.5 L-13.75 13.8 Q-23.6 13.8 -33.1 11.6 L-39.5 10.2 -37.6 10.05 -33.1 10.1 Q-30.9 10.15 -30.9 9.4 L-31.05 9.05 Q-34.2 7.7 -45.45 7.3 L-45.45 7.4 -47.65 7.55 Q-49.75 4.8 -50.75 0.6 L-51.0 -2.35 -50.95 -2.5 Q-49.8 -1.95 -49.15 -1.1 -48.4 -0.25 -47.25 0.1 L-43.15 0.6 -42.75 0.6 Q-36.3 0.6 -30.05 -2.7 -25.0 -5.35 -23.3 -8.0 -20.45 -12.3 -18.85 -13.45 -16.55 -15.15 -12.4 -15.4 L-11.5 -15.45 -11.65 -15.55 -5.6 -15.75 0.75 -15.75 Q6.25 -15.15 11.6 -13.25 L23.85 -8.7 Q32.0 -5.9 41.35 -5.15 L43.5 -4.95 43.5 -5.0 Q43.95 -5.6 44.15 -7.2 44.3 -8.6 44.75 -8.85 46.25 -9.8 49.3 -10.4 M27.75 -4.55 Q31.0 -1.45 36.85 -1.45 39.5 -1.45 41.2 -2.4 34.35 -2.8 27.75 -4.55" fill="#c10202" fill-rule="evenodd" stroke="none"/>
    <path d="M-11.95 21.45 L-16.7 20.9 Q-18.35 20.6 -20.2 19.9 L-20.95 19.6 -20.85 19.45 -21.6 19.35 -24.7 18.3 -25.95 18.0 Q-34.05 16.1 -36.4 15.2 -38.95 14.2 -40.5 13.15 L-44.2 10.7 -44.45 10.55 -45.75 9.55 -45.95 9.4 -47.65 7.55 -45.45 7.4 -45.45 7.3 Q-34.2 7.7 -31.05 9.05 L-30.9 9.4 Q-30.9 10.15 -33.1 10.1 L-37.6 10.05 -39.5 10.2 -33.1 11.6 Q-23.6 13.8 -13.75 13.8 L-7.05 13.5 Q-0.2 13.35 2.4 13.6 10.2 10.95 16.35 10.95 L23.8 11.3 25.2 11.5 Q27.6 11.5 30.7 10.35 L34.0 8.95 Q35.9 8.35 36.85 7.85 L42.55 7.5 45.7 8.1 42.05 12.35 Q39.65 14.9 36.35 16.25 30.55 18.8 24.3 19.95 L4.2 21.9 4.05 21.9 4.7 22.05 -11.95 21.45" fill="#8f0101" fill-rule="evenodd" stroke="none"/>
    <path d="M-49.0 -8.05 L-48.45 -8.95 -46.75 -11.0 Q-44.7 -13.4 -42.15 -15.3 -40.1 -16.75 -37.85 -17.8 L-34.5 -19.1 -31.65 -19.95 -27.15 -21.25 Q-26.1 -21.45 -25.1 -21.8 -20.9 -23.0 -17.3 -24.8 L-14.65 -25.95 -13.7 -25.6 -12.55 -25.25 -9.5 -25.6 -6.1 -25.6 -1.4 -25.1 0.75 -25.3 2.85 -25.75 Q5.9 -26.45 8.8 -25.65 L13.0 -24.85 16.9 -24.1 21.95 -23.2 24.95 -22.55 29.9 -21.55 35.35 -20.1 Q37.8 -19.4 39.8 -18.2 L40.6 -17.65 Q41.7 -16.3 43.5 -15.45 44.65 -14.95 45.85 -14.4 47.1 -13.8 47.1 -12.65 42.8 -16.15 37.45 -17.45 L26.65 -20.15 10.3 -23.0 3.25 -23.75 -3.5 -24.1 -7.1 -24.15 -8.2 -24.1 -10.9 -23.85 -14.9 -23.85 -14.55 -24.6 -14.75 -24.9 -15.25 -25.05 -15.35 -25.1 -15.3 -24.4 -15.5 -24.0 -18.3 -22.5 -23.6 -21.3 -28.75 -19.65 -33.65 -17.75 -38.45 -15.6 -41.85 -13.75 -44.75 -11.85 Q-47.15 -10.2 -49.0 -8.05 M48.35 8.75 Q43.8 14.15 37.1 17.05 30.6 19.95 23.6 21.2 18.45 21.95 13.5 23.25 L0.4 23.65 -4.25 23.1 Q-8.2 22.95 -11.95 21.45 L4.7 22.05 4.05 21.9 4.2 21.9 24.3 19.95 Q30.55 18.8 36.35 16.25 39.65 14.9 42.05 12.35 L45.7 8.1 48.35 8.75 M-20.2 19.9 Q-23.55 19.35 -24.7 18.3 L-21.6 19.35 -20.95 19.6 -20.2 19.9" fill="#ff6600" fill-rule="evenodd" stroke="none"/>
  </g>
</svg>
