<?xml version="1.0" encoding="UTF-8" standalone="no"?>
<svg xmlns:xlink="http://www.w3.org/1999/xlink" height="19.8px" width="30.95px" xmlns="http://www.w3.org/2000/svg">
  <g transform="matrix(1.0, 0.0, 0.0, 1.0, 16.45, 10.55)">
    <path d="M-4.05 -6.25 L-4.6 -6.3 -3.6 -6.25 -4.05 -6.25 M-6.45 -6.95 L-9.8 -4.75 -9.65 -4.1 Q-0.05 3.2 7.6 -5.45 8.3 -6.2 7.6 -7.05 L6.3 -8.4 -0.25 -8.05 7.65 -10.05 Q12.05 -9.05 13.5 -4.5 15.45 1.75 9.55 5.45 -0.15 11.6 -10.8 6.35 -17.75 2.9 -15.3 -4.25 -14.65 -6.05 -12.65 -6.25 L-6.45 -6.95 M-10.05 5.6 Q3.05 12.7 11.95 1.45 -3.4 11.8 -14.9 -3.15 -14.75 -0.55 -13.7 1.75 -12.5 4.2 -10.05 5.6" fill="#cc0000" fill-rule="evenodd" stroke="none"/>
    <path d="M-4.05 -6.25 L-5.05 -5.25 Q-3.1 -2.1 0.5 -2.05 6.05 -2.0 6.15 -7.05 L5.8 -7.45 -3.6 -6.25 -4.6 -6.3 -4.05 -6.25 M-0.25 -8.05 L6.3 -8.4 7.6 -7.05 Q8.3 -6.2 7.6 -5.45 -0.05 3.2 -9.65 -4.1 L-9.8 -4.75 -6.45 -6.95 Q-3.75 -8.2 -0.25 -8.05 L-6.45 -6.95 -0.25 -8.05" fill="#f02424" fill-rule="evenodd" stroke="none"/>
    <path d="M-10.05 5.6 Q-12.5 4.2 -13.7 1.75 -14.75 -0.55 -14.9 -3.15 -3.4 11.8 11.95 1.45 3.05 12.7 -10.05 5.6" fill="#ad0000" fill-rule="evenodd" stroke="none"/>
    <path d="M-3.6 -6.25 L5.8 -7.45 6.15 -7.05 Q6.05 -2.0 0.5 -2.05 -3.1 -2.1 -5.05 -5.25 L-4.05 -6.25 -3.6 -6.25" fill="#ffc8c8" fill-rule="evenodd" stroke="none"/>
    <path d="M-6.45 -6.95 L-12.65 -6.25 Q-14.65 -6.05 -15.3 -4.25 -17.75 2.9 -10.8 6.35 -0.15 11.6 9.55 5.45 15.45 1.75 13.5 -4.5 12.05 -9.05 7.65 -10.05 L-0.25 -8.05 -6.45 -6.95 Z" fill="none" stroke="#000000" stroke-linecap="round" stroke-linejoin="round" stroke-width="1.0"/>
  </g>
</svg>
