<?xml version="1.0" encoding="UTF-8" standalone="no"?>
<svg xmlns:xlink="http://www.w3.org/1999/xlink" height="19.3px" width="29.6px" xmlns="http://www.w3.org/2000/svg">
  <g transform="matrix(1.0, 0.0, 0.0, 1.0, 15.05, 10.6)">
    <path d="M1.45 -7.05 L-7.4 -8.55 Q-10.65 -4.4 -6.0 -2.15 0.15 0.7 5.5 -3.3 L7.8 -5.3 7.35 -6.0 1.95 -6.95 1.45 -7.05 M12.2 -0.85 Q12.65 -2.1 12.65 -3.5 8.7 4.7 -0.8 4.9 -7.35 5.05 -12.8 0.95 -7.45 7.55 1.1 7.15 9.7 6.65 12.2 -0.85 M6.2 -7.9 Q11.6 -8.1 13.6 -3.45 14.4 -1.7 13.8 0.0 10.9 8.0 2.0 8.05 -3.4 8.75 -8.2 6.65 -15.25 3.55 -14.45 -3.85 L-13.8 -6.0 Q-10.65 -11.95 -4.7 -9.3 0.5 -6.95 6.2 -7.9" fill="#66cc00" fill-rule="evenodd" stroke="none"/>
    <path d="M12.2 -0.85 Q9.7 6.65 1.1 7.15 -7.45 7.55 -12.8 0.95 -7.35 5.05 -0.8 4.9 8.7 4.7 12.65 -3.5 12.65 -2.1 12.2 -0.85" fill="#47ad00" fill-rule="evenodd" stroke="none"/>
    <path d="M1.2 -6.45 Q-2.45 -6.6 -6.2 -7.65 -6.85 -7.9 -7.3 -7.25 -7.85 -4.1 -4.3 -3.2 0.1 -1.8 3.15 -4.65 3.15 -5.15 2.4 -6.05 L1.95 -6.95 7.35 -6.0 7.8 -5.3 5.5 -3.3 Q0.15 0.7 -6.0 -2.15 -10.65 -4.4 -7.4 -8.55 L1.45 -7.05 Q0.9 -6.6 1.2 -6.45" fill="#8af024" fill-rule="evenodd" stroke="none"/>
    <path d="M2.4 -6.05 Q3.15 -5.15 3.15 -4.65 0.1 -1.8 -4.3 -3.2 -7.85 -4.1 -7.3 -7.25 -6.85 -7.9 -6.2 -7.65 -2.45 -6.6 1.2 -6.45 1.85 -6.45 2.4 -6.05" fill="#ffffad" fill-rule="evenodd" stroke="none"/>
    <path d="M1.2 -6.45 Q0.9 -6.6 1.45 -7.05 L1.95 -6.95 2.4 -6.05 Q1.85 -6.45 1.2 -6.45" fill="#8af024" fill-rule="evenodd" stroke="none"/>
    <path d="M6.2 -7.9 Q0.5 -6.95 -4.7 -9.3 -10.65 -11.95 -13.8 -6.0 L-14.45 -3.85 Q-15.25 3.55 -8.2 6.65 -3.4 8.75 2.0 8.05 10.9 8.0 13.8 0.0 14.4 -1.7 13.6 -3.45 11.6 -8.1 6.2 -7.9 Z" fill="none" stroke="#000000" stroke-linecap="round" stroke-linejoin="round" stroke-width="1.0"/>
  </g>
</svg>
