<?xml version="1.0" encoding="UTF-8" standalone="no"?>
<svg xmlns:xlink="http://www.w3.org/1999/xlink" height="22.8px" width="24.55px" xmlns="http://www.w3.org/2000/svg">
  <g transform="matrix(1.0, 0.0, 0.0, 1.0, 12.75, 11.8)">
    <path d="M-3.75 -5.05 Q-7.0 -2.2 -8.5 1.8 -4.0 3.35 0.05 0.5 5.1 -3.0 3.1 -8.7 L1.9 -9.5 0.3 -8.85 Q2.8 -11.55 6.6 -11.3 11.8 -9.35 11.25 -3.55 10.75 1.75 6.55 5.25 2.5 8.65 -2.6 10.1 -8.15 11.65 -11.5 6.9 -12.8 5.1 -11.8 3.15 -9.45 -1.35 -4.85 -4.3 L-3.75 -5.05 M10.1 -4.85 Q9.9 -6.6 9.3 -4.65 7.05 2.5 -0.2 5.8 -6.45 8.75 -11.25 5.65 -8.0 11.1 -1.75 8.7 2.75 7.05 6.25 3.95 10.25 0.4 10.1 -4.85" fill="#0033ff" fill-rule="evenodd" stroke="none"/>
    <path d="M10.1 -4.85 Q10.25 0.4 6.25 3.95 2.75 7.05 -1.75 8.7 -8.0 11.1 -11.25 5.65 -6.45 8.75 -0.2 5.8 7.05 2.5 9.3 -4.65 9.9 -6.6 10.1 -4.85" fill="#0014e0" fill-rule="evenodd" stroke="none"/>
    <path d="M0.65 -8.15 L-5.45 -1.3 -4.5 -0.35 Q1.75 -1.1 2.5 -7.25 L0.65 -8.15 M0.3 -8.85 L1.9 -9.5 3.1 -8.7 Q5.1 -3.0 0.05 0.5 -4.0 3.35 -8.5 1.8 -7.0 -2.2 -3.75 -5.05 L0.3 -8.85" fill="#6497ff" fill-rule="evenodd" stroke="none"/>
    <path d="M0.65 -8.15 L2.5 -7.25 Q1.75 -1.1 -4.5 -0.35 L-5.45 -1.3 0.65 -8.15" fill="#c8fbff" fill-rule="evenodd" stroke="none"/>
    <path d="M-3.75 -5.05 L-4.85 -4.3 Q-9.45 -1.35 -11.8 3.15 -12.8 5.1 -11.5 6.9 -8.15 11.65 -2.6 10.1 2.5 8.65 6.55 5.25 10.75 1.75 11.25 -3.55 11.8 -9.35 6.6 -11.3 2.8 -11.55 0.3 -8.85 L-3.75 -5.05 Z" fill="none" stroke="#000000" stroke-linecap="round" stroke-linejoin="round" stroke-width="1.0"/>
  </g>
</svg>
