<?xml version="1.0" encoding="UTF-8" standalone="no"?>
<svg xmlns:xlink="http://www.w3.org/1999/xlink" height="61.75px" width="50.75px" xmlns="http://www.w3.org/2000/svg">
  <g transform="matrix(1.0, 0.0, 0.0, 1.0, 25.35, 30.9)">
    <path d="M22.5 -1.75 Q29.7 -0.5 18.9 18.85 8.05 38.15 0.0 26.4 -8.1 14.65 -19.5 6.5 -30.95 -1.65 -19.95 -4.1 -8.95 -6.6 -8.3 -20.25 -7.65 -33.95 0.7 -30.0 9.05 -26.05 12.15 -14.55 15.25 -3.05 22.5 -1.75 M12.75 -2.1 Q7.75 -11.75 3.0 -11.75 -11.75 -1.6 -11.75 3.75 -11.7 7.45 -9.7 10.9 -5.75 17.75 4.0 17.75 9.45 17.75 13.5 13.5 16.75 10.15 16.75 7.85 15.2 2.8 12.75 -2.1" fill="#ffb0d8" fill-rule="evenodd" stroke="none"/>
    <path d="M12.75 -2.1 Q15.2 2.8 16.75 7.85 16.75 10.15 13.5 13.5 9.45 17.75 4.0 17.75 -5.75 17.75 -9.7 10.9 -11.7 7.45 -11.75 3.75 -11.75 -1.6 3.0 -11.75 7.75 -11.75 12.75 -2.1" fill="#fff0f8" fill-rule="evenodd" stroke="none"/>
  </g>
</svg>
