<?xml version="1.0" encoding="UTF-8" standalone="no"?>
<svg xmlns:xlink="http://www.w3.org/1999/xlink" height="62.7px" width="51.4px" xmlns="http://www.w3.org/2000/svg">
  <g transform="matrix(1.0, 0.0, 0.0, 1.0, 26.0, 30.95)">
    <path d="M13.1 -5.55 Q8.45 -13.55 2.05 -13.45 -3.55 -10.65 -7.35 -7.05 -13.65 -1.3 -13.9 3.3 -14.0 7.7 -11.95 11.65 -11.15 13.35 -10.0 14.75 -6.15 19.35 0.95 20.0 L3.35 20.15 Q8.35 20.1 12.4 16.75 L14.15 15.1 Q17.6 11.45 17.9 8.5 L17.4 6.0 Q16.45 1.3 14.4 -3.15 L13.1 -5.55 M13.6 -14.75 Q17.05 -3.35 23.2 -0.6 29.25 2.05 18.55 20.25 7.75 38.45 -0.8 27.8 -9.55 17.1 -20.4 8.5 -31.2 0.1 -21.15 -3.7 -11.15 -7.45 -9.65 -20.6 -8.05 -33.85 0.7 -30.15 10.05 -26.35 13.6 -14.75" fill="#ffb0d8" fill-rule="evenodd" stroke="none"/>
    <path d="M13.1 -5.55 L14.4 -3.15 Q16.45 1.3 17.4 6.0 L17.9 8.5 Q17.6 11.45 14.15 15.1 L12.4 16.75 Q8.35 20.1 3.35 20.15 L0.95 20.0 Q-6.15 19.35 -10.0 14.75 -11.15 13.35 -11.95 11.65 -14.0 7.7 -13.9 3.3 -13.65 -1.3 -7.35 -7.05 -3.55 -10.65 2.05 -13.45 8.45 -13.55 13.1 -5.55" fill="#ffe9f4" fill-rule="evenodd" stroke="none"/>
  </g>
</svg>
