<?xml version="1.0" encoding="UTF-8" standalone="no"?>
<svg xmlns:xlink="http://www.w3.org/1999/xlink" height="63.6px" width="52.1px" xmlns="http://www.w3.org/2000/svg">
  <g transform="matrix(1.0, 0.0, 0.0, 1.0, 26.65, 31.0)">
    <path d="M14.65 -6.9 Q9.7 -15.35 1.9 -15.7 -4.5 -13.45 -9.0 -9.1 -15.55 -2.9 -16.0 2.85 -16.3 7.95 -14.25 12.45 -13.4 14.35 -12.15 16.0 -8.05 21.5 -0.05 22.4 L2.65 22.55 Q8.25 22.45 12.85 18.6 L14.8 16.65 Q18.45 12.75 19.05 9.2 L18.8 6.3 Q18.25 0.8 16.05 -4.15 L14.65 -6.9 M15.05 -14.95 Q18.9 -3.65 23.85 0.55 28.8 4.6 18.25 21.6 7.5 38.75 -1.6 29.2 -11.0 19.55 -21.25 10.55 -31.4 1.8 -22.4 -3.25 -13.35 -8.3 -11.0 -20.9 -8.5 -33.75 0.7 -30.25 11.05 -26.65 15.05 -14.95" fill="#ffb0d8" fill-rule="evenodd" stroke="none"/>
    <path d="M14.65 -6.9 L16.05 -4.15 Q18.25 0.8 18.8 6.3 L19.05 9.2 Q18.45 12.75 14.8 16.65 L12.85 18.6 Q8.25 22.45 2.65 22.55 L-0.05 22.4 Q-8.05 21.5 -12.15 16.0 -13.4 14.35 -14.25 12.45 -16.3 7.95 -16.0 2.85 -15.55 -2.9 -9.0 -9.1 -4.5 -13.45 1.9 -15.7 9.7 -15.35 14.65 -6.9" fill="#ffe2f1" fill-rule="evenodd" stroke="none"/>
  </g>
</svg>
