<?xml version="1.0" encoding="UTF-8" standalone="no"?>
<svg xmlns:xlink="http://www.w3.org/1999/xlink" height="52.25px" width="108.7px" xmlns="http://www.w3.org/2000/svg">
  <g transform="matrix(1.0, 0.0, 0.0, 1.0, 55.1, 27.6)">
    <path d="M-12.4 -15.4 L-12.3 -15.45 -11.5 -15.45 -12.4 -15.4" fill="#ff7528" fill-rule="evenodd" stroke="none"/>
    <path d="M-51.0 -2.35 L-51.1 -3.8 -51.0 -2.55 -51.0 -2.35 M-12.3 -15.45 L-11.65 -15.55 -11.5 -15.45 -12.3 -15.45" fill="#ff4d00" fill-rule="evenodd" stroke="none"/>
    <path d="M-51.1 -3.8 L-51.15 -4.25 -52.2 -5.15 -52.8 -9.45 -54.65 -8.75 -55.1 -8.75 Q-54.1 -10.25 -53.15 -10.25 L-52.15 -10.05 Q-51.6 -10.1 -51.05 -9.6 L-50.55 -8.9 -50.15 -8.35 -49.95 -8.0 Q-48.8 -9.65 -45.7 -12.0 L-46.0 -11.9 Q-43.05 -15.4 -39.85 -16.5 -38.25 -17.05 -37.5 -19.25 -37.0 -20.85 -36.05 -21.15 L-35.8 -20.9 -36.6 -21.55 -36.5 -21.75 Q-34.05 -21.8 -32.7 -20.0 L-31.95 -18.75 Q-30.1 -19.8 -22.75 -23.1 -22.6 -22.8 -22.9 -22.15 L-21.6 -22.05 -18.15 -22.8 -17.8 -23.65 -17.25 -23.7 -21.15 -24.25 -22.0 -24.4 Q-20.5 -25.5 -17.5 -25.05 -16.3 -25.05 -15.2 -25.9 -14.15 -26.8 -11.9 -26.8 -6.55 -25.9 -4.3 -24.5 -3.8 -25.3 1.6 -27.6 L4.6 -27.25 4.6 -26.8 1.85 -26.5 2.25 -25.0 2.0 -24.5 2.2 -24.75 6.3 -25.0 Q13.1 -25.0 21.6 -21.55 31.1 -20.45 34.75 -19.45 L36.35 -19.6 36.75 -19.7 36.75 -20.0 Q36.75 -21.8 37.8 -21.8 L38.5 -21.75 38.65 -22.0 39.25 -21.8 38.55 -21.65 38.95 -21.75 39.5 -21.65 38.2 -20.9 Q37.7 -20.8 38.0 -20.65 L38.6 -19.5 38.5 -18.8 39.55 -17.85 41.55 -15.8 Q43.4 -15.05 45.05 -14.0 L48.05 -11.65 49.3 -10.4 44.75 -8.85 43.5 -5.0 Q31.15 -5.6 19.8 -10.2 16.2 -11.65 12.55 -12.9 6.8 -15.05 0.75 -15.75 -5.4 -15.95 -11.65 -15.55 L-12.3 -15.45 -12.4 -15.4 Q-16.55 -15.15 -18.85 -13.45 -20.45 -12.3 -23.3 -8.0 -25.0 -5.35 -30.05 -2.7 -36.3 0.6 -42.75 0.6 L-43.15 0.6 -47.25 0.1 Q-48.4 -0.25 -49.15 -1.1 -49.8 -1.95 -51.0 -2.55 L-51.1 -3.8 M48.85 8.2 Q48.6 9.1 47.8 10.25 L46.3 11.75 46.7 11.9 47.4 12.15 Q49.45 12.95 50.0 13.4 L48.15 13.65 46.95 13.95 43.45 14.7 43.65 15.5 Q43.65 16.35 43.0 16.5 L43.6 17.1 43.5 17.25 Q41.5 16.1 39.8 15.8 L38.85 15.65 36.95 16.7 Q33.4 18.75 30.0 19.4 L22.35 21.05 23.5 20.8 25.5 21.35 26.65 21.15 27.7 21.25 28.0 21.1 29.25 21.3 29.3 21.75 Q29.9 22.15 30.15 22.8 L30.1 23.75 29.8 23.8 29.3 23.3 28.5 22.8 26.9 23.2 27.55 23.1 26.2 23.55 25.15 23.3 24.65 23.3 17.5 22.1 15.85 22.35 14.85 22.85 0.3 23.6 -5.15 23.05 Q-6.55 23.05 -7.2 23.55 -7.8 24.0 -8.8 24.0 -11.05 24.0 -13.85 22.4 -16.65 20.75 -21.0 20.75 -21.95 20.75 -23.25 21.55 -25.15 21.55 -28.3 19.6 -31.45 17.6 -32.35 17.6 -33.2 17.6 -33.5 19.05 -33.5 20.1 -32.85 21.05 -32.25 22.0 -32.25 22.55 -32.25 24.65 -34.25 24.65 -35.3 24.65 -35.3 23.75 -35.3 22.5 -33.9 22.4 -34.75 21.6 -34.75 19.25 -34.75 18.15 -33.25 16.85 L-32.6 16.35 -33.8 16.05 -36.1 15.4 -36.6 15.4 -37.05 15.4 -37.45 15.65 -39.25 16.3 -38.55 16.9 -38.75 17.5 Q-39.9 16.8 -39.9 16.2 L-39.8 15.65 -39.85 15.65 -40.1 15.35 Q-39.9 15.05 -39.25 14.7 -40.7 14.2 -42.8 12.95 -43.7 12.65 -44.65 11.75 L-46.5 11.9 -46.35 15.05 Q-46.35 16.1 -47.4 16.1 L-48.5 15.8 -48.6 15.0 Q-48.6 14.6 -48.0 14.05 -47.4 13.45 -47.3 12.4 -47.9 11.1 -46.1 10.7 L-47.75 9.45 Q-47.75 8.5 -47.15 8.2 L-47.65 7.55 -36.65 7.95 -32.15 9.05 Q-31.6 9.15 -31.05 9.5 L-39.5 10.2 -28.3 12.6 Q-20.75 14.05 -12.95 13.8 L1.6 12.75 8.15 12.05 Q14.5 10.6 20.9 11.25 25.4 11.95 29.8 10.55 L36.6 8.3 Q37.9 7.85 39.35 7.7 43.9 7.35 48.35 8.75 L48.5 8.55 48.85 8.15 48.85 8.2 M36.85 -1.45 Q31.0 -1.45 27.75 -4.55 34.35 -2.8 41.2 -2.4 39.5 -1.45 36.85 -1.45" fill="#552000" fill-rule="evenodd" stroke="none"/>
    <path d="M49.3 -10.4 L50.7 -8.5 Q53.6 -3.9 53.6 0.95 53.6 2.65 49.1 7.85 L48.85 8.2 48.85 8.15 48.5 8.55 48.35 8.75 Q43.9 7.35 39.35 7.7 37.9 7.85 36.6 8.3 L29.8 10.55 Q25.4 11.95 20.9 11.25 14.5 10.6 8.15 12.05 L1.6 12.75 -12.95 13.8 Q-20.75 14.05 -28.3 12.6 L-39.5 10.2 -31.05 9.5 Q-31.6 9.15 -32.15 9.05 L-36.65 7.95 -47.65 7.55 Q-49.75 4.8 -50.75 0.6 L-51.0 -2.35 -51.0 -2.55 Q-49.8 -1.95 -49.15 -1.1 -48.4 -0.25 -47.25 0.1 L-43.15 0.6 -42.75 0.6 Q-36.3 0.6 -30.05 -2.7 -25.0 -5.35 -23.3 -8.0 -20.45 -12.3 -18.85 -13.45 -16.55 -15.15 -12.4 -15.4 L-11.5 -15.45 -11.65 -15.55 Q-5.4 -15.95 0.75 -15.75 6.8 -15.05 12.55 -12.9 16.2 -11.65 19.8 -10.2 31.15 -5.6 43.5 -5.0 L44.75 -8.85 49.3 -10.4 M36.85 -1.45 Q39.5 -1.45 41.2 -2.4 34.35 -2.8 27.75 -4.55 31.0 -1.45 36.85 -1.45" fill="#933700" fill-rule="evenodd" stroke="none"/>
  </g>
</svg>
