<?xml version="1.0" encoding="UTF-8" standalone="no"?>
<svg xmlns:xlink="http://www.w3.org/1999/xlink" height="61.15px" width="37.0px" xmlns="http://www.w3.org/2000/svg">
  <g transform="matrix(1.0, 0.0, 0.0, 1.0, 20.8, 30.9)">
    <path d="M-8.7 9.1 Q-0.65 -3.95 5.8 -17.9 6.45 -19.35 6.25 -20.8 L10.25 -29.25 9.95 -30.05 11.45 -30.9 16.2 -28.6 Q14.1 -22.7 11.45 -16.7 0.35 8.65 -17.0 30.25 L-20.8 26.95 -14.15 17.6 -19.55 27.25 -18.4 28.1 -17.35 28.8 -15.3 25.35 -15.9 25.4 -13.9 24.05 Q-11.35 22.7 -11.2 19.75 L-11.9 19.75 -13.55 19.7 -11.5 19.1 -11.4 19.05 Q-7.2 17.15 -6.2 12.5 L-8.4 13.2 -9.0 13.35 -8.35 13.1 Q-2.6 10.95 -1.95 4.9 L-3.55 5.7 -5.45 6.45 -3.35 5.4 -3.0 5.2 Q0.6 3.0 1.95 -0.95 L1.35 -1.45 -1.0 -0.65 2.05 -2.65 Q4.25 -4.0 4.95 -6.45 L5.3 -7.65 5.3 -7.85 5.1 -7.7 4.4 -7.5 2.3 -6.9 4.75 -8.2 Q8.1 -10.45 9.15 -14.4 L9.3 -15.3 8.35 -15.0 6.7 -14.45 8.85 -15.9 10.65 -17.5 10.65 -17.55 11.15 -18.35 Q12.3 -20.3 12.25 -22.25 L10.55 -21.5 12.5 -23.05 Q15.5 -25.35 14.25 -28.8 L14.2 -28.9 12.7 -29.75 10.8 -30.0 Q4.3 -10.05 -7.6 7.45 L-8.7 9.1" fill="#000000" fill-rule="evenodd" stroke="none"/>
    <path d="M12.7 -29.75 L14.2 -28.9 Q14.5 -25.5 12.5 -23.05 L10.55 -21.5 12.25 -22.25 12.1 -22.15 Q11.0 -18.35 8.85 -15.9 L6.7 -14.45 8.35 -15.0 Q8.25 -11.75 4.75 -8.2 L2.3 -6.9 4.4 -7.5 1.6 -2.4 2.05 -2.65 -1.0 -0.65 1.35 -1.45 1.15 -1.3 Q0.15 2.8 -3.35 5.4 L-5.45 6.45 -3.55 5.7 Q-3.2 6.6 -4.1 8.7 -5.05 10.75 -8.35 13.1 L-9.0 13.35 -8.4 13.2 Q-6.65 13.75 -8.0 15.35 L-11.5 19.1 -13.55 19.7 -11.9 19.75 Q-11.45 21.7 -13.9 24.05 L-15.9 25.4 -15.3 25.35 -18.4 28.1 -19.55 27.25 Q-17.85 26.3 -16.75 24.55 L-13.85 19.95 Q-2.75 1.95 7.6 -16.5 11.1 -22.85 12.7 -29.75" fill="#ca022b" fill-rule="evenodd" stroke="none"/>
    <path d="M10.65 -17.55 L10.65 -17.5 10.6 -17.55 10.65 -17.55 M5.1 -7.7 L5.3 -7.85 5.3 -7.65 5.1 -7.7" fill="#ff668f" fill-rule="evenodd" stroke="none"/>
    <path d="M14.2 -28.9 L14.25 -28.8 Q15.5 -25.35 12.5 -23.05 14.5 -25.5 14.2 -28.9 M12.25 -22.25 Q12.3 -20.3 11.15 -18.35 L10.65 -17.55 10.6 -17.55 10.65 -17.5 8.85 -15.9 Q11.0 -18.35 12.1 -22.15 L12.25 -22.25 M8.35 -15.0 L9.3 -15.3 9.15 -14.4 Q8.1 -10.45 4.75 -8.2 8.25 -11.75 8.35 -15.0 M4.4 -7.5 L5.1 -7.7 5.3 -7.65 4.95 -6.45 Q4.25 -4.0 2.05 -2.65 L1.6 -2.4 4.4 -7.5 M1.35 -1.45 L1.95 -0.95 Q0.6 3.0 -3.0 5.2 L-3.35 5.4 Q0.15 2.8 1.15 -1.3 L1.35 -1.45 M-3.55 5.7 L-1.95 4.9 Q-2.6 10.95 -8.35 13.1 -5.05 10.75 -4.1 8.7 -3.2 6.6 -3.55 5.7 M-8.4 13.2 L-6.2 12.5 Q-7.2 17.15 -11.4 19.05 L-11.5 19.1 -8.0 15.35 Q-6.65 13.75 -8.4 13.2 M-11.9 19.75 L-11.2 19.75 Q-11.35 22.7 -13.9 24.05 -11.45 21.7 -11.9 19.75 M-15.3 25.35 L-17.35 28.8 -18.4 28.1 -15.3 25.35" fill="#ff668f" fill-rule="evenodd" stroke="none"/>
    <path d="M-8.7 9.1 L-7.6 7.45 Q4.3 -10.05 10.8 -30.0 L12.7 -29.75 Q11.1 -22.85 7.6 -16.5 -2.75 1.95 -13.85 19.95 L-16.75 24.55 Q-17.85 26.3 -19.55 27.25 L-14.15 17.6 -8.7 9.1" fill="#ab000c" fill-rule="evenodd" stroke="none"/>
  </g>
</svg>
