<?xml version="1.0" encoding="UTF-8" standalone="no"?>
<svg xmlns:xlink="http://www.w3.org/1999/xlink" height="64.55px" width="52.85px" xmlns="http://www.w3.org/2000/svg">
  <g transform="matrix(1.0, 0.0, 0.0, 1.0, 27.3, 31.05)">
    <path d="M16.15 -8.3 Q10.95 -17.2 1.75 -17.9 -5.5 -16.25 -10.65 -11.1 -17.4 -4.55 -18.15 2.4 -18.6 8.15 -16.5 13.2 L-14.35 17.2 Q-9.9 23.7 -1.05 24.75 L2.0 24.9 Q8.2 24.8 13.3 20.4 L15.45 18.25 Q19.35 14.0 20.2 9.85 L20.2 6.65 Q20.1 0.35 17.75 -5.2 L16.15 -8.3 M16.55 -15.2 Q20.7 -3.95 24.55 1.7 28.35 7.15 17.9 23.0 7.2 39.05 -2.35 30.6 -12.45 22.0 -22.15 12.55 -31.65 3.55 -23.6 -2.85 -15.55 -9.2 -12.35 -21.25 -8.9 -33.65 0.75 -30.4 12.05 -26.95 16.55 -15.2" fill="#ffb0d8" fill-rule="evenodd" stroke="none"/>
    <path d="M16.15 -8.3 L17.75 -5.2 Q20.1 0.35 20.2 6.65 L20.2 9.85 Q19.35 14.0 15.45 18.25 L13.3 20.4 Q8.2 24.8 2.0 24.9 L-1.05 24.75 Q-9.9 23.7 -14.35 17.2 L-16.5 13.2 Q-18.6 8.15 -18.15 2.4 -17.4 -4.55 -10.65 -11.1 -5.5 -16.25 1.75 -17.9 10.95 -17.2 16.15 -8.3" fill="#ffdbed" fill-rule="evenodd" stroke="none"/>
  </g>
</svg>
