<?xml version="1.0" encoding="UTF-8" standalone="no"?>
<svg xmlns:xlink="http://www.w3.org/1999/xlink" height="65.55px" width="53.7px" xmlns="http://www.w3.org/2000/svg">
  <g transform="matrix(1.0, 0.0, 0.0, 1.0, 27.95, 31.15)">
    <path d="M17.7 -9.65 Q12.2 -19.0 1.6 -20.1 -6.5 -19.05 -12.3 -13.15 -19.3 -6.2 -20.25 1.95 -20.9 8.4 -18.75 14.0 -17.9 16.35 -16.5 18.45 -11.75 25.85 -2.05 27.1 L1.3 27.3 Q8.1 27.15 13.75 22.2 L16.1 19.85 Q20.2 15.3 21.35 10.55 L21.6 6.95 Q21.9 -0.1 19.4 -6.2 L17.7 -9.65 M18.0 -15.4 L25.2 2.85 Q27.9 9.7 17.6 24.4 6.95 39.35 -3.15 32.0 -13.9 24.45 -23.0 14.55 -31.9 5.25 -24.8 -2.45 -17.75 -10.05 -13.7 -21.6 -9.3 -33.55 0.75 -30.55 13.05 -27.25 18.0 -15.4" fill="#ffb0d8" fill-rule="evenodd" stroke="none"/>
    <path d="M17.7 -9.65 L19.4 -6.2 Q21.9 -0.1 21.6 6.95 L21.35 10.55 Q20.2 15.3 16.1 19.85 L13.75 22.2 Q8.1 27.15 1.3 27.3 L-2.05 27.1 Q-11.75 25.85 -16.5 18.45 -17.9 16.35 -18.75 14.0 -20.9 8.4 -20.25 1.95 -19.3 -6.2 -12.3 -13.15 -6.5 -19.05 1.6 -20.1 12.2 -19.0 17.7 -9.65" fill="#ffd4ea" fill-rule="evenodd" stroke="none"/>
  </g>
</svg>
