<?xml version="1.0" encoding="UTF-8" standalone="no"?>
<svg xmlns:xlink="http://www.w3.org/1999/xlink" height="66.55px" width="54.7px" xmlns="http://www.w3.org/2000/svg">
  <g transform="matrix(1.0, 0.0, 0.0, 1.0, 28.6, 31.2)">
    <path d="M19.2 -11.0 Q13.5 -20.8 1.4 -22.35 -7.45 -21.8 -13.9 -15.15 -21.2 -7.8 -22.4 1.45 -23.2 8.65 -21.05 14.75 -20.1 17.4 -18.7 19.7 -13.65 28.05 -3.1 29.5 L0.65 29.7 Q8.0 29.55 14.15 24.05 L16.8 21.4 Q21.05 16.6 22.55 11.2 L23.0 7.3 Q23.7 -0.6 21.05 -7.25 L19.2 -11.0 M19.45 -15.6 Q24.35 -4.55 25.9 4.0 27.4 12.2 17.25 25.75 6.65 39.7 -3.95 33.35 -15.3 26.95 -23.9 16.6 -32.1 7.0 -26.05 -2.0 -19.95 -10.9 -15.1 -21.9 -9.75 -33.4 0.75 -30.65 14.1 -27.5 19.45 -15.6" fill="#ffb0d8" fill-rule="evenodd" stroke="none"/>
    <path d="M19.2 -11.0 L21.05 -7.25 Q23.7 -0.6 23.0 7.3 L22.55 11.2 Q21.05 16.6 16.8 21.4 L14.15 24.05 Q8.0 29.55 0.65 29.7 L-3.1 29.5 Q-13.65 28.05 -18.7 19.7 -20.1 17.4 -21.05 14.75 -23.2 8.65 -22.4 1.45 -21.2 -7.8 -13.9 -15.15 -7.45 -21.8 1.4 -22.35 13.5 -20.8 19.2 -11.0" fill="#ffcce6" fill-rule="evenodd" stroke="none"/>
  </g>
</svg>
