<?xml version="1.0" encoding="UTF-8" standalone="no"?>
<svg xmlns:xlink="http://www.w3.org/1999/xlink" height="67.5px" width="55.85px" xmlns="http://www.w3.org/2000/svg">
  <g transform="matrix(1.0, 0.0, 0.0, 1.0, 29.3, 31.25)">
    <path d="M20.75 -12.35 Q14.75 -22.6 1.25 -24.55 -8.45 -24.6 -15.55 -17.2 -23.1 -9.45 -24.5 1.0 -25.5 8.9 -23.3 15.55 -22.35 18.4 -20.85 20.95 -15.5 30.2 -4.1 31.85 L-0.05 32.1 Q7.9 31.9 14.6 25.85 L17.45 23.0 Q21.9 17.9 23.7 11.9 L24.4 7.6 Q25.5 -1.05 22.7 -8.25 21.9 -10.4 20.75 -12.35 M20.9 -15.8 Q26.2 -4.85 26.55 5.15 26.95 14.75 16.95 27.15 6.4 40.0 -4.75 34.75 -16.75 29.4 -24.75 18.6 -32.35 8.7 -27.25 -1.6 L-16.45 -22.25 Q-10.15 -33.3 0.75 -30.8 15.1 -27.8 20.9 -15.8" fill="#ffb0d8" fill-rule="evenodd" stroke="none"/>
    <path d="M20.75 -12.35 Q21.9 -10.4 22.7 -8.25 25.5 -1.05 24.4 7.6 L23.7 11.9 Q21.9 17.9 17.45 23.0 L14.6 25.85 Q7.9 31.9 -0.05 32.1 L-4.1 31.85 Q-15.5 30.2 -20.85 20.95 -22.35 18.4 -23.3 15.55 -25.5 8.9 -24.5 1.0 -23.1 -9.45 -15.55 -17.2 -8.45 -24.6 1.25 -24.55 14.75 -22.6 20.75 -12.35" fill="#ffc5e3" fill-rule="evenodd" stroke="none"/>
  </g>
</svg>
