<?xml version="1.0" encoding="UTF-8" standalone="no"?>
<svg xmlns:xlink="http://www.w3.org/1999/xlink" height="68.6px" width="57.35px" xmlns="http://www.w3.org/2000/svg">
  <g transform="matrix(1.0, 0.0, 0.0, 1.0, 30.0, 31.35)">
    <path d="M22.25 -13.75 Q16.0 -24.45 1.1 -26.75 -9.45 -27.4 -17.2 -19.2 -24.95 -11.1 -26.65 0.55 -27.8 9.1 -25.55 16.3 -24.6 19.4 -23.05 22.15 -17.35 32.4 -5.1 34.2 L-0.7 34.45 Q7.85 34.25 15.05 27.65 L18.1 24.6 Q22.8 19.15 24.85 12.55 L25.8 7.95 Q27.35 -1.5 24.4 -9.3 L22.25 -13.75 M22.4 -16.05 Q28.0 -5.15 27.25 6.3 26.5 17.3 16.6 28.55 6.1 40.3 -5.5 36.15 -18.2 31.85 -25.65 20.6 -32.6 10.45 -28.45 -1.2 -24.35 -12.65 -17.8 -22.6 -10.55 -33.2 0.8 -30.95 16.1 -28.1 22.4 -16.05" fill="#ffb0d8" fill-rule="evenodd" stroke="none"/>
    <path d="M22.25 -13.75 L24.4 -9.3 Q27.35 -1.5 25.8 7.95 L24.85 12.55 Q22.8 19.15 18.1 24.6 L15.05 27.65 Q7.85 34.25 -0.7 34.45 L-5.1 34.2 Q-17.35 32.4 -23.05 22.15 -24.6 19.4 -25.55 16.3 -27.8 9.1 -26.65 0.55 -24.95 -11.1 -17.2 -19.2 -9.45 -27.4 1.1 -26.75 16.0 -24.45 22.25 -13.75" fill="#ffbedf" fill-rule="evenodd" stroke="none"/>
  </g>
</svg>
