<?xml version="1.0" encoding="UTF-8" standalone="no"?>
<svg xmlns:xlink="http://www.w3.org/1999/xlink" height="69.65px" width="59.1px" xmlns="http://www.w3.org/2000/svg">
  <g transform="matrix(1.0, 0.0, 0.0, 1.0, 30.7, 31.4)">
    <path d="M23.8 -15.1 Q17.25 -26.25 0.95 -29.0 -10.4 -30.2 -18.85 -21.25 -26.85 -12.7 -28.75 0.1 -30.1 9.35 -27.85 17.1 -26.85 20.4 -25.2 23.4 -19.25 34.55 -6.1 36.6 L-1.4 36.85 Q7.75 36.6 15.5 29.5 L18.75 26.15 Q23.65 20.45 26.0 13.25 L27.2 8.25 Q29.15 -2.0 26.05 -10.3 25.15 -12.8 23.8 -15.1 M23.85 -16.25 Q29.85 -5.45 27.9 7.45 26.05 19.85 16.3 29.9 5.85 40.6 -6.3 37.55 -19.65 34.3 -26.5 22.65 -32.8 12.15 -29.7 -0.75 -26.55 -13.5 -19.15 -22.9 -11.0 -33.1 0.8 -31.05 17.1 -28.4 23.85 -16.25" fill="#ffb0d8" fill-rule="evenodd" stroke="none"/>
    <path d="M23.8 -15.1 Q25.15 -12.8 26.05 -10.3 29.15 -2.0 27.2 8.25 L26.0 13.25 Q23.65 20.45 18.75 26.15 L15.5 29.5 Q7.75 36.6 -1.4 36.85 L-6.1 36.6 Q-19.25 34.55 -25.2 23.4 -26.85 20.4 -27.85 17.1 -30.1 9.35 -28.75 0.1 -26.85 -12.7 -18.85 -21.25 -10.4 -30.2 0.95 -29.0 17.25 -26.25 23.8 -15.1" fill="#ffb7dc" fill-rule="evenodd" stroke="none"/>
  </g>
</svg>
