<?xml version="1.0" encoding="UTF-8" standalone="no"?>
<svg xmlns:xlink="http://www.w3.org/1999/xlink" height="38.05px" width="58.45px" xmlns="http://www.w3.org/2000/svg">
  <g transform="matrix(1.0, 0.0, 0.0, 1.0, 29.25, 19.0)">
    <path d="M18.9 -19.0 Q25.35 -18.75 28.65 1.35 31.95 21.4 14.85 17.45 -2.3 13.5 -13.0 17.9 -23.7 22.25 -27.6 10.35 -31.55 -1.55 -26.1 -11.65 -20.7 -21.75 -11.0 -15.3 -1.35 -8.85 5.55 -14.05 12.45 -19.3 18.9 -19.0 M13.0 -4.75 Q7.15 -1.75 0.3 -1.75 -6.55 -1.75 -7.9 -3.25 -9.25 -4.75 -14.0 -4.75 -20.75 -4.75 -20.75 2.5 -19.25 9.75 -11.5 9.75 L-9.0 9.3 Q-8.65 8.7 -4.2 7.85 L8.4 7.0 Q16.6 7.0 17.5 7.75 18.65 7.65 18.8 6.45 L18.75 2.1 Q19.25 0.2 18.8 -1.45 17.85 -4.75 13.0 -4.75" fill="#ffb0d8" fill-rule="evenodd" stroke="none"/>
    <path d="M13.0 -4.75 Q17.85 -4.75 18.8 -1.45 19.25 0.2 18.75 2.1 L18.8 6.45 Q18.65 7.65 17.5 7.75 16.6 7.0 8.4 7.0 L-4.2 7.85 Q-8.65 8.7 -9.0 9.3 L-11.5 9.75 Q-19.25 9.75 -20.75 2.5 -20.75 -4.75 -14.0 -4.75 -9.25 -4.75 -7.9 -3.25 -6.55 -1.75 0.3 -1.75 7.15 -1.75 13.0 -4.75" fill="#fff0f8" fill-rule="evenodd" stroke="none"/>
  </g>
</svg>
