<?xml version="1.0" encoding="UTF-8" standalone="no"?>
<svg xmlns:xlink="http://www.w3.org/1999/xlink" height="261.05px" width="761.0px" xmlns="http://www.w3.org/2000/svg">
  <g transform="matrix(1.0, 0.0, 0.0, 1.0, 380.5, 130.8)">
    <path d="M-380.0 -74.25 L-380.0 -130.3 380.0 -130.3 380.0 -74.25 -380.0 -74.25" fill="#666666" fill-rule="evenodd" stroke="none"/>
    <path d="M380.0 -74.25 L380.0 -60.0 -380.0 -60.0 -380.0 -74.25 380.0 -74.25" fill="#663300" fill-rule="evenodd" stroke="none"/>
    <path d="M380.0 -60.0 L380.0 105.35 -380.0 105.35 -380.0 -60.0 380.0 -60.0" fill="#cccccc" fill-rule="evenodd" stroke="none"/>
    <path d="M380.0 105.35 L380.0 130.25 -380.0 130.25 -380.0 105.35 380.0 105.35" fill="url(#gradient0)" fill-rule="evenodd" stroke="none"/>
    <path d="M-380.0 -130.3 L380.0 -130.3 M380.0 -74.25 L-380.0 -74.25 M380.0 -60.0 L-380.0 -60.0" fill="none" stroke="#000000" stroke-linecap="round" stroke-linejoin="round" stroke-width="1.0"/>
  </g>
  <defs>
    <linearGradient gradientTransform="matrix(0.0, -0.0148, 0.0152, 0.0, 1.0, 111.65)" gradientUnits="userSpaceOnUse" id="gradient0" spreadMethod="pad" x1="-819.2" x2="819.2">
      <stop offset="0.0" stop-color="#999999"/>
      <stop offset="1.0" stop-color="#cccccc"/>
    </linearGradient>
  </defs>
</svg>
