<?xml version="1.0" encoding="UTF-8" standalone="no"?>
<svg xmlns:xlink="http://www.w3.org/1999/xlink" height="165.0px" width="135.15px" xmlns="http://www.w3.org/2000/svg">
  <g transform="matrix(1.0, 0.0, 0.0, 1.0, 131.15, 80.5)">
    <path d="M-10.85 -11.1 L-11.05 -10.15 -10.85 -11.1 M-17.2 20.45 L-17.55 22.15 -17.55 22.1 -17.2 20.45" fill="url(#gradient0)" fill-rule="evenodd" stroke="none"/>
    <path d="M3.0 -79.5 L-1.2 -58.6 -11.25 -58.6 -12.45 -52.55 -2.45 -52.55 -4.1 -44.3 -7.15 -29.35 -17.15 -29.35 -18.4 -23.3 -8.35 -23.3 -10.85 -11.1 -11.05 -10.15 -11.2 -9.25 -13.6 2.55 -23.65 2.55 -24.85 8.6 -14.85 8.6 -17.2 20.45 -17.55 22.15 M-17.55 22.1 L-20.9 38.55 -30.9 38.55 -32.15 44.55 -22.1 44.55 -30.0 83.5 -130.15 83.5 M-10.85 -11.1 L-11.05 -10.15 M-17.2 20.45 L-17.55 22.1" fill="none" stroke="#999999" stroke-linecap="round" stroke-linejoin="round" stroke-width="2.0"/>
    <path d="M-11.25 -58.6 L-12.45 -52.55 -2.45 -52.55 -4.1 -44.3 -7.15 -29.35 -17.15 -29.35 -18.4 -23.3 -8.35 -23.3 -11.05 -10.15 -11.2 -9.25 -13.6 2.55 -23.65 2.55 -24.85 8.6 -14.85 8.6 -20.9 38.55 -30.9 38.55 -32.15 44.55 -22.1 44.55 -30.0 83.5 -130.15 83.5 Q-86.5 2.0 -70.0 -79.5 L3.0 -79.5 -1.2 -58.6 -11.25 -58.6" fill="url(#gradient1)" fill-rule="evenodd" stroke="none"/>
  </g>
  <defs>
    <linearGradient gradientTransform="matrix(0.0447, 0.0, -0.0201, 0.0995, -50.5, 0.8)" gradientUnits="userSpaceOnUse" id="gradient0" spreadMethod="pad" x1="-819.2" x2="819.2">
      <stop offset="0.0" stop-color="#cccccc"/>
      <stop offset="1.0" stop-color="#bbbbbb"/>
    </linearGradient>
    <linearGradient gradientTransform="matrix(0.0447, 0.0, -0.0201, 0.0995, -50.5, 0.8)" gradientUnits="userSpaceOnUse" id="gradient1" spreadMethod="pad" x1="-819.2" x2="819.2">
      <stop offset="0.0" stop-color="#cccccc"/>
      <stop offset="1.0" stop-color="#bbbbbb"/>
    </linearGradient>
  </defs>
</svg>
