<?xml version="1.0" encoding="UTF-8" standalone="no"?>
<svg xmlns:xlink="http://www.w3.org/1999/xlink" height="499.3px" width="791.65px" xmlns="http://www.w3.org/2000/svg">
  <g transform="matrix(1.0, 0.0, 0.0, 1.0, 335.9, 228.3)">
    <path d="M-329.0 211.45 L-329.0 -212.95 431.0 -212.95 431.0 267.05 -199.35 267.05 -329.0 267.05 -329.0 211.45 M-131.85 53.25 L-133.6 53.15 -135.3 58.45 -149.75 61.5 -143.85 95.95 -130.05 93.2 Q-128.5 89.3 -127.5 85.25 -126.8 82.4 -126.9 79.4 -127.2 70.6 -127.9 61.85 -128.1 59.4 -128.85 57.1 -129.2 55.9 -130.0 54.95 L-131.95 52.85 -130.55 54.4 -131.85 53.25" fill="#c5c5c5" fill-rule="evenodd" stroke="none"/>
    <path d="M-329.0 211.45 L-329.0 -212.95 431.0 -212.95 431.0 267.05 -199.35 267.05" fill="none" stroke="#ffffff" stroke-linecap="butt" stroke-linejoin="miter-clip" stroke-miterlimit="4.0" stroke-width="1.0"/>
    <path d="M-335.9 -219.65 L429.85 -219.4 429.85 260.6 -330.15 260.6 -335.5 -144.65 -335.9 -219.65 M-179.3 40.9 L-174.65 43.6 Q-159.55 45.9 -145.35 40.65 -142.05 39.35 -139.55 36.95 -136.25 33.75 -139.8 30.85 -137.5 31.25 -135.5 32.85 L-134.15 34.25 -133.35 35.35 -132.7 35.3 -132.0 36.05 Q-133.35 40.15 -137.1 41.85 L-137.65 42.05 Q-149.2 47.35 -161.8 47.65 -172.8 48.7 -181.15 41.75 L-181.15 41.05 -180.65 40.45 -179.9 40.4 -179.3 40.9 M-163.05 86.55 Q-162.45 89.0 -160.2 89.7 L-159.7 89.75 Q-156.4 86.45 -157.7 81.9 -155.25 84.65 -156.1 88.0 -156.9 91.1 -156.95 94.1 -155.45 93.1 -155.05 91.45 L-154.6 89.65 -154.15 89.6 -155.45 99.65 Q-155.55 100.45 -154.75 101.0 -154.0 101.5 -153.2 101.6 -153.3 96.85 -150.8 93.05 L-147.65 90.2 -150.15 96.55 -149.9 97.3 Q-148.9 94.55 -146.65 92.75 -146.05 98.7 -143.55 104.1 -141.65 108.3 -145.3 111.2 -146.5 112.4 -148.15 113.1 L-148.3 113.2 Q-154.1 115.8 -160.15 114.05 L-160.3 113.95 -160.55 113.9 -161.5 113.45 -166.25 114.5 Q-167.5 114.65 -167.7 115.45 -160.9 119.1 -153.0 118.95 -144.45 119.65 -136.75 115.9 -134.7 114.25 -134.75 111.0 -134.9 102.8 -138.8 95.75 L-143.55 96.15 -143.75 95.95 -130.05 93.2 Q-128.5 89.3 -127.5 85.25 -126.8 82.4 -126.9 79.4 -127.2 70.6 -127.9 61.85 -128.1 59.4 -128.85 57.1 -129.2 55.9 -130.0 54.95 L-131.95 52.85 -130.55 54.4 -131.85 53.25 -133.6 53.15 -133.8 53.8 -133.7 53.35 Q-131.95 46.0 -130.55 38.45 -130.25 36.8 -131.05 35.3 -133.4 31.1 -138.15 29.95 L-142.95 28.8 Q-156.95 27.65 -170.3 32.2 -175.15 33.75 -178.85 37.55 -181.6 40.4 -183.45 43.75 -180.7 50.4 -176.4 56.2 -171.25 63.2 -169.1 71.75 -168.35 75.25 -168.45 79.05 L-168.55 80.35 Q-170.1 93.8 -173.3 107.1 -173.55 108.15 -173.2 109.3 L-172.3 111.5 -171.6 112.3 -165.95 96.75 -164.45 92.3 -164.2 85.3 -163.05 86.55 M-155.5 67.1 L-156.3 65.85 -155.75 65.45 -155.25 66.8 -155.5 67.1 M-149.7 61.6 L-149.7 61.85 -149.75 61.6 -149.7 61.6 M-144.15 94.2 L-143.85 95.85 -144.1 95.65 -144.15 94.2 M-151.8 77.7 L-151.8 78.15 -152.85 75.8 -152.85 75.85 -152.8 75.5 -151.8 77.7" fill="url(#gradient0)" fill-rule="evenodd" stroke="none"/>
    <path d="M-137.1 41.85 Q-133.35 40.15 -132.0 36.05 L-132.7 35.3 -133.35 35.35 -134.15 34.25 -135.5 32.85 Q-137.5 31.25 -139.8 30.85 -136.25 33.75 -139.55 36.95 -142.05 39.35 -145.35 40.65 -159.55 45.9 -174.65 43.6 L-179.3 40.9 -177.1 39.4 Q-174.1 41.3 -170.45 41.9 -157.6 42.9 -146.0 37.3 -143.15 35.9 -141.7 33.2 -140.1 30.15 -142.95 28.8 L-138.15 29.95 Q-133.4 31.1 -131.05 35.3 -130.25 36.8 -130.55 38.45 -131.95 46.0 -133.7 53.35 L-133.8 53.8 -135.3 58.45 -136.05 58.6 -135.95 58.3 -135.95 58.2 Q-134.05 50.45 -133.4 42.45 -140.4 47.15 -148.8 48.75 -158.5 50.65 -168.1 50.15 L-167.9 50.8 -165.75 52.05 -167.0 52.0 -165.25 53.45 Q-159.35 58.65 -156.3 65.85 L-155.5 67.1 -155.75 67.4 -153.15 76.45 -153.2 76.75 Q-153.2 77.6 -152.8 78.8 L-152.35 79.9 -151.95 81.65 Q-150.3 87.25 -150.8 93.05 -153.3 96.85 -153.2 101.6 -154.0 101.5 -154.75 101.0 -155.55 100.45 -155.45 99.65 L-154.15 89.6 -154.6 89.65 -155.05 91.45 Q-155.45 93.1 -156.95 94.1 -156.9 91.1 -156.1 88.0 -155.25 84.65 -157.7 81.9 -156.4 86.45 -159.7 89.75 L-160.2 89.7 Q-162.45 89.0 -163.05 86.55 -162.2 81.6 -162.6 77.65 L-162.95 74.7 -162.85 74.7 -163.35 72.6 -163.35 72.45 -163.4 72.4 Q-164.3 68.85 -166.1 65.8 -172.0 55.95 -178.3 46.3 -170.9 49.55 -162.85 49.4 -151.9 49.2 -141.55 46.5 -139.3 46.0 -138.65 43.75 L-137.7 43.3 Q-136.45 42.55 -135.65 41.25 L-137.1 41.85" fill="#ed0000" fill-rule="evenodd" stroke="none"/>
    <path d="M-137.1 41.85 L-135.65 41.25 Q-136.45 42.55 -137.7 43.3 L-138.65 43.75 Q-139.3 46.0 -141.55 46.5 -151.9 49.2 -162.85 49.4 -170.9 49.55 -178.3 46.3 -172.0 55.95 -166.1 65.8 -164.3 68.85 -163.4 72.4 L-163.35 72.45 -163.35 72.6 -162.85 74.7 -162.95 74.7 -162.6 77.65 Q-162.2 81.6 -163.05 86.55 L-164.2 85.3 -164.45 92.3 -165.95 96.75 -171.6 112.3 -172.3 111.5 -173.2 109.3 Q-173.55 108.15 -173.3 107.1 -170.1 93.8 -168.55 80.35 L-168.45 79.05 Q-168.35 75.25 -169.1 71.75 -171.25 63.2 -176.4 56.2 -180.7 50.4 -183.45 43.75 -181.6 40.4 -178.85 37.55 -175.15 33.75 -170.3 32.2 -156.95 27.65 -142.95 28.8 -140.1 30.15 -141.7 33.2 -143.15 35.9 -146.0 37.3 -157.6 42.9 -170.45 41.9 -174.1 41.3 -177.1 39.4 L-179.3 40.9 -179.9 40.4 -180.65 40.45 -181.15 41.05 -181.15 41.75 Q-172.8 48.7 -161.8 47.65 -149.2 47.35 -137.65 42.05 L-137.1 41.85" fill="#fe6767" fill-rule="evenodd" stroke="none"/>
    <path d="M-150.8 93.05 Q-150.3 87.25 -151.95 81.65 L-152.35 79.9 -152.8 78.8 Q-153.2 77.6 -153.2 76.75 L-153.15 76.45 -155.75 67.4 -155.5 67.1 -155.25 66.8 -155.75 65.45 -156.3 65.85 Q-159.35 58.65 -165.25 53.45 L-167.0 52.0 -165.75 52.05 -167.9 50.8 -168.1 50.15 Q-158.5 50.65 -148.8 48.75 -140.4 47.15 -133.4 42.45 -134.05 50.45 -135.95 58.2 L-135.95 58.3 -136.05 58.6 -149.75 61.5 -149.7 61.6 -149.75 61.6 -149.7 61.85 -144.15 94.2 -144.1 95.65 -143.85 95.85 -143.85 95.95 -143.75 95.95 -143.55 96.15 -138.8 95.75 Q-134.9 102.8 -134.75 111.0 -134.7 114.25 -136.75 115.9 -144.45 119.65 -153.0 118.95 -160.9 119.1 -167.7 115.45 -167.5 114.65 -166.25 114.5 L-161.5 113.45 -160.55 113.9 -160.3 113.95 -160.15 114.05 Q-154.1 115.8 -148.3 113.2 L-148.15 113.1 Q-146.5 112.4 -145.3 111.2 -141.65 108.3 -143.55 104.1 -146.05 98.7 -146.65 92.75 -148.9 94.55 -149.9 97.3 L-150.15 96.55 -147.65 90.2 -150.8 93.05 M-151.8 77.7 L-152.8 75.5 -152.85 75.85 -152.85 75.8 -151.8 78.15 -151.8 77.7" fill="#990000" fill-rule="evenodd" stroke="none"/>
    <path d="M423.05 -215.0 L429.2 -215.0 429.2 194.5 Q425.95 203.85 421.4 220.0 413.55 243.0 404.0 243.0 390.95 243.0 391.45 232.45 391.65 228.95 393.4 223.7 L396.0 216.5 Q395.9 215.75 395.15 215.0 393.65 213.5 390.5 213.5 388.0 213.5 384.75 215.75 381.5 218.0 379.0 218.0 371.55 218.0 368.3 213.05 367.4 211.65 366.55 209.35 365.8 207.3 365.5 207.0 358.75 218.4 352.8 226.3 341.35 241.5 332.0 241.5 321.15 241.5 319.8 233.5 319.35 230.95 319.85 227.15 L320.5 222.5 Q320.5 221.0 320.0 220.0 318.1 222.75 315.2 224.45 312.5 226.1 309.55 226.45 302.7 231.85 296.0 235.5 L293.3 235.4 Q292.75 235.35 292.6 233.85 277.25 249.0 268.0 249.0 265.0 249.0 264.0 248.3 263.0 247.25 261.5 246.5 L261.25 245.55 Q261.0 244.95 261.0 242.0 261.0 241.5 267.65 233.75 240.85 255.65 222.85 264.7 210.25 271.0 202.0 271.0 195.25 271.0 193.45 266.65 192.9 265.25 192.9 263.5 L193.0 261.75 Q193.0 259.85 197.65 256.1 200.5 253.85 210.6 246.85 L212.5 245.55 212.55 245.5 Q207.3 245.25 205.4 243.45 L202.0 238.0 209.05 232.7 Q228.05 218.15 245.55 203.25 L276.4 164.15 Q340.85 80.5 368.7 25.4 372.75 17.4 376.0 10.0 389.5 -20.45 398.5 -43.1 L405.0 -60.2 410.7 -89.4 416.45 -121.35 417.65 -138.05 421.6 -197.9 423.1 -212.15 423.05 -215.0 M-335.9 -220.15 L-257.7 -220.15 -263.0 -200.2 Q-269.45 -169.2 -272.7 -144.65 -276.0 -119.75 -276.0 -101.5 -276.0 -50.85 -263.2 -0.65 L-261.1 7.35 Q-252.55 38.55 -239.65 67.0 -227.25 89.5 -211.0 111.5 -211.45 112.9 -212.55 113.55 -213.2 113.95 -214.2 114.2 L-214.0 114.5 -215.6 116.65 Q-216.65 117.65 -218.0 118.0 L-223.0 113.95 -225.4 113.35 -226.0 115.0 -227.5 116.0 Q-229.0 117.0 -232.0 117.0 -236.1 117.0 -240.7 114.5 -234.0 130.8 -234.0 136.25 L-235.0 140.0 -235.8 141.0 Q-236.95 142.0 -240.0 142.0 -251.7 142.0 -262.5 128.5 -278.8 128.25 -291.15 114.5 L-292.0 114.5 Q-299.2 114.5 -305.5 109.15 -305.75 112.85 -307.9 115.05 -309.8 117.0 -312.0 117.0 -323.8 117.0 -332.0 97.75 L-335.9 -100.55 -335.9 -220.15" fill="#a53800" fill-opacity="0.8" fill-rule="evenodd" stroke="none"/>
    <path d="M257.9 -223.65 L258.5 -226.8 259.15 -226.75 259.4 -223.6 261.2 -223.0 Q262.8 -222.4 264.45 -221.95 L265.45 -222.65 265.85 -222.4 265.8 -220.55 268.35 -222.95 268.95 -222.5 269.6 -223.75 270.8 -223.4 273.0 -224.3 273.95 -221.05 274.9 -221.5 276.0 -225.45 276.05 -220.45 Q276.65 -206.6 282.6 -194.4 286.4 -186.6 294.1 -183.45 L296.4 -183.55 297.85 -181.3 Q286.7 -180.15 278.6 -187.9 265.8 -200.2 265.1 -218.1 L265.1 -212.75 Q264.8 -201.2 272.2 -192.25 272.75 -186.95 276.4 -182.95 278.3 -180.85 280.4 -179.0 284.65 -175.5 290.2 -175.3 L287.1 -172.75 Q275.7 -172.75 267.85 -180.85 259.35 -189.6 258.3 -201.6 257.3 -212.6 257.9 -223.65 M290.8 -220.15 L291.8 -220.4 294.7 -218.85 Q295.8 -221.3 298.8 -220.5 299.0 -219.45 299.25 -219.75 L300.1 -220.8 300.8 -220.45 301.2 -219.2 Q300.4 -216.7 300.7 -214.2 L300.8 -213.4 300.75 -213.3 300.8 -213.3 Q298.05 -198.15 306.55 -185.45 309.9 -180.35 315.15 -177.25 325.1 -171.5 336.65 -172.3 351.95 -172.75 363.95 -182.2 L361.95 -178.8 Q356.4 -175.0 350.15 -172.7 341.65 -169.35 332.7 -168.75 320.7 -167.4 310.35 -173.75 307.1 -175.75 304.05 -177.9 299.95 -180.95 297.5 -185.45 288.65 -201.7 290.8 -220.15 M430.35 -194.25 L432.45 -199.4 432.85 -199.55 434.25 -198.65 Q433.85 -197.25 433.75 -195.8 433.5 -192.45 432.4 -189.45 L436.15 -185.3 435.2 -183.6 435.8 -182.8 434.75 -179.75 435.75 -178.6 435.5 -177.1 437.05 -176.7 437.15 -176.2 Q437.4 -174.15 435.95 -172.85 L435.5 -172.45 437.25 -172.85 436.0 -168.3 Q432.5 -162.4 427.25 -157.65 420.05 -151.15 412.1 -145.95 408.15 -143.45 403.6 -142.35 389.7 -138.8 375.35 -140.55 364.45 -141.95 354.8 -147.15 342.2 -153.8 338.65 -167.4 L344.0 -168.7 Q344.7 -160.1 352.45 -155.7 L357.7 -152.75 Q372.6 -144.6 388.8 -149.15 392.9 -150.2 396.45 -152.35 414.05 -162.95 424.7 -180.55 428.6 -186.95 430.35 -194.25 M365.35 200.4 Q363.55 202.75 360.7 201.15 358.3 199.75 355.65 199.0 L359.75 198.75 Q363.1 198.25 365.2 197.35 L365.35 200.4 M342.5 196.7 L334.6 196.15 342.5 196.7 M299.65 192.2 L261.55 186.75 260.05 186.5 235.85 183.4 237.9 182.05 Q238.15 181.75 238.45 181.6 243.75 184.05 261.55 186.5 L286.8 189.35 Q290.1 189.6 298.35 191.85 L299.65 192.2 M215.15 181.15 L209.65 180.4 218.0 178.15 Q214.95 180.15 214.95 180.6 L215.15 181.15 M304.3 -121.75 Q287.15 -132.8 267.9 -139.8 258.25 -143.35 247.85 -143.75 256.3 -148.55 264.4 -153.9 282.45 -165.7 298.95 -179.6 L302.3 -176.45 Q297.85 -167.45 289.75 -161.65 282.05 -156.15 273.3 -151.85 273.4 -150.6 274.5 -150.35 L274.9 -150.4 Q276.05 -150.65 275.65 -150.05 L275.1 -149.65 279.65 -150.85 Q290.3 -155.6 301.2 -164.15 L301.4 -164.15 301.4 -164.3 Q305.65 -167.4 309.05 -171.5 L313.65 -169.25 Q307.5 -152.45 295.5 -138.8 L293.9 -136.55 294.25 -135.45 303.05 -139.45 Q317.2 -148.35 324.15 -163.35 L325.6 -166.5 326.1 -166.5 331.1 -166.4 334.6 -165.3 331.3 -160.7 Q316.9 -142.35 305.3 -122.0 L304.3 -121.75 M237.3 -137.05 Q239.75 -129.75 244.35 -123.3 L245.7 -121.4 243.1 -120.2 Q240.3 -123.05 238.35 -126.7 235.55 -131.8 237.3 -137.05 M267.35 -43.75 Q267.3 -53.75 259.1 -59.25 265.2 -53.0 265.7 -44.15 249.95 -47.6 234.1 -44.65 231.85 -48.45 231.45 -53.1 229.9 -48.45 232.55 -44.3 L223.15 -41.3 Q221.55 -45.75 220.8 -50.4 218.8 -63.4 225.3 -74.65 227.1 -77.8 230.35 -79.3 234.75 -81.4 237.8 -77.7 L237.9 -76.65 Q238.1 -75.2 238.9 -74.15 L238.65 -75.55 Q243.0 -79.25 248.45 -78.5 251.15 -78.15 253.75 -77.15 266.4 -72.3 270.5 -59.45 273.3 -50.6 267.35 -43.75 M352.1 -146.35 L354.5 -144.95 347.95 -131.1 Q338.7 -110.7 336.1 -88.55 L332.7 -94.5 Q335.95 -107.7 339.8 -120.75 343.9 -134.6 352.1 -146.35 M346.75 -167.75 L346.85 -167.6 Q346.25 -167.65 346.75 -167.75 M395.8 -139.3 L398.65 -140.0 Q393.7 -134.55 386.95 -132.0 368.75 -125.25 350.45 -131.9 L351.6 -134.55 Q362.05 -129.8 373.5 -130.35 384.55 -130.9 393.8 -137.1 395.15 -137.95 395.8 -139.3 M253.2 26.05 Q256.55 34.2 265.65 35.0 269.9 35.15 273.5 33.05 277.05 38.1 277.15 44.35 277.3 53.55 275.55 62.5 274.4 68.3 270.8 73.3 251.7 69.05 232.35 67.05 L234.2 64.75 Q248.65 47.9 253.2 26.05 M278.05 74.9 L278.2 74.4 278.35 75.0 278.05 74.9 M289.95 78.25 L289.7 76.0 290.6 78.5 289.95 78.25" fill="#ffffff" fill-rule="evenodd" stroke="none"/>
    <path d="M257.9 -223.65 Q257.3 -212.6 258.3 -201.6 259.35 -189.6 267.85 -180.85 275.7 -172.75 287.1 -172.75 L290.2 -175.3 294.3 -179.0 290.25 -179.55 Q279.1 -182.7 272.2 -192.25 264.8 -201.2 265.1 -212.75 L265.1 -218.1 Q265.8 -200.2 278.6 -187.9 286.7 -180.15 297.85 -181.3 L296.4 -183.55 295.6 -185.05 Q287.25 -201.1 289.7 -219.25 L290.6 -220.9 290.8 -220.15 Q288.65 -201.7 297.5 -185.45 299.95 -180.95 304.05 -177.9 307.1 -175.75 310.35 -173.75 320.7 -167.4 332.7 -168.75 341.65 -169.35 350.15 -172.7 356.4 -175.0 361.95 -178.8 L365.1 -180.65 Q357.85 -172.8 347.6 -169.8 345.95 -169.2 344.0 -168.7 L338.65 -167.4 Q342.2 -153.8 354.8 -147.15 364.45 -141.95 375.35 -140.55 389.7 -138.8 403.6 -142.35 408.15 -143.45 412.1 -145.95 420.05 -151.15 427.25 -157.65 432.5 -162.4 436.0 -168.3 L436.6 -167.7 Q437.0 -166.3 436.2 -165.25 431.6 -158.95 425.5 -153.55 414.8 -144.25 401.3 -140.55 393.25 -129.45 379.55 -127.25 364.2 -124.8 349.75 -130.3 343.05 -114.65 340.25 -97.85 352.0 -90.9 357.0 -78.2 361.7 -66.4 361.55 -53.8 361.5 -49.3 360.3 -44.9 L359.05 -40.65 Q362.1 -61.35 353.4 -80.65 350.85 -86.3 346.75 -91.1 343.85 -94.5 340.15 -97.45 339.3 -89.55 337.5 -81.9 337.2 -80.7 336.3 -79.55 L335.1 -78.2 Q341.8 -62.0 345.85 -45.1 347.75 -37.15 350.2 -29.3 353.2 -19.9 357.3 -10.65 358.0 -9.1 359.1 -7.8 366.3 1.3 375.25 8.8 400.95 30.55 424.0 54.95 435.2 66.75 443.75 80.35 449.4 89.4 453.9 99.2 455.3 102.25 455.65 105.35 456.1 109.25 454.8 113.25 454.1 115.35 452.55 116.9 446.75 122.8 439.3 126.65 415.45 138.85 389.2 144.7 392.0 150.25 391.6 156.8 L391.05 165.75 391.0 166.85 Q389.5 186.55 384.75 205.65 L383.4 205.5 383.8 201.2 Q387.65 185.55 389.3 169.4 L389.55 166.85 Q390.1 159.1 389.5 151.25 380.3 157.4 374.85 166.85 373.6 168.95 372.6 171.2 367.15 183.35 367.1 196.75 L366.9 201.0 Q366.4 201.5 365.65 201.2 L365.35 200.4 365.2 197.35 Q365.5 180.95 373.1 166.85 375.45 162.45 378.5 158.25 381.9 153.6 386.7 150.8 388.05 150.15 389.35 149.75 389.15 146.45 388.0 145.15 L387.85 144.95 386.35 145.35 Q371.35 148.6 356.05 150.15 L352.55 150.45 350.7 150.7 Q337.6 151.5 324.5 150.6 L322.1 150.3 Q321.3 149.75 319.75 149.95 308.15 148.65 299.6 141.65 296.55 139.1 293.85 135.85 290.6 131.85 289.1 126.5 287.95 122.3 287.7 116.2 287.6 114.1 288.2 112.15 288.8 109.9 290.0 109.0 L291.9 108.4 294.95 108.55 296.6 109.1 296.75 109.2 298.7 110.55 299.6 111.2 303.95 114.4 310.45 119.8 Q326.2 119.1 340.95 113.2 335.1 110.6 331.5 105.35 L331.3 105.1 Q323.5 93.5 320.45 80.35 318.5 71.8 318.55 62.6 318.65 41.3 326.9 22.0 332.3 9.25 341.95 -0.8 347.3 -6.35 354.4 -9.5 L355.3 -8.8 353.3 -14.95 352.05 -17.6 349.45 -17.4 Q339.6 -16.4 332.1 -10.1 320.0 1.2 313.8 16.8 309.0 28.9 305.8 41.65 300.9 60.85 298.5 80.35 L298.5 80.4 297.95 82.7 293.45 81.35 290.25 80.35 Q271.75 74.75 252.75 71.6 243.1 69.9 233.5 68.95 224.8 69.35 216.6 67.25 L216.6 66.25 219.45 37.0 220.6 31.35 Q221.1 28.25 222.85 25.45 L216.6 23.75 214.95 23.05 211.85 21.5 208.25 29.5 Q205.15 36.65 203.75 44.4 201.95 54.4 200.3 64.5 198.75 74.2 191.2 80.5 L189.35 82.25 189.9 82.05 Q178.55 92.65 168.6 105.25 155.75 121.6 145.25 139.65 L144.5 141.15 144.45 141.2 144.5 141.2 143.75 142.7 141.8 146.35 141.2 147.45 Q136.1 157.75 132.0 168.6 L131.9 168.8 129.4 175.3 128.1 174.75 Q133.7 156.0 143.35 139.1 162.05 106.45 189.2 80.15 175.2 79.55 161.85 75.85 127.2 65.85 98.5 44.0 96.75 42.7 95.45 41.0 87.25 30.75 85.75 17.7 L84.65 8.55 Q81.6 -18.25 86.15 -44.75 88.6 -58.95 95.0 -71.85 L98.3 -77.9 Q99.8 -80.35 101.8 -82.45 109.9 -90.75 121.5 -89.75 120.9 -95.35 119.5 -100.85 118.55 -104.5 118.6 -108.25 118.65 -110.25 119.8 -112.1 123.5 -118.15 129.85 -121.1 140.5 -125.8 152.2 -125.1 166.45 -124.45 178.2 -116.3 186.55 -110.6 189.3 -100.75 L189.65 -97.55 Q189.5 -91.1 184.9 -85.95 181.2 -81.8 178.3 -77.4 176.15 -74.2 174.45 -70.7 166.35 -54.0 167.3 -35.2 167.5 -31.0 168.35 -26.9 170.15 -18.0 166.9 -9.7 164.6 -3.95 158.7 -1.6 148.65 2.3 137.7 -0.1 L140.75 8.1 150.9 9.5 161.1 10.65 Q180.35 13.5 198.85 8.4 192.4 -4.9 198.2 -18.4 203.8 -31.45 216.35 -38.1 210.7 -48.15 209.25 -59.4 207.0 -76.55 214.8 -91.9 223.9 -109.75 241.5 -119.4 L236.9 -125.3 Q228.65 -121.45 222.9 -114.2 213.85 -102.65 209.7 -88.4 211.65 -100.45 217.95 -110.9 224.55 -121.75 236.4 -126.35 234.9 -128.9 234.65 -131.9 234.05 -139.3 240.95 -143.05 263.6 -155.35 284.6 -170.6 275.6 -171.4 268.65 -177.2 265.4 -179.95 263.25 -183.45 255.7 -195.6 255.75 -209.8 L255.5 -217.65 Q255.25 -221.1 257.35 -223.6 L257.9 -223.65 M185.3 -106.15 Q176.65 -118.35 161.85 -122.15 145.3 -126.2 129.85 -119.45 121.4 -115.7 119.95 -107.1 L120.45 -104.1 Q122.4 -97.45 123.25 -90.5 L123.25 -89.4 Q127.3 -88.35 131.05 -86.5 135.7 -84.1 138.95 -80.1 L139.75 -79.15 140.15 -78.5 Q143.35 -73.55 138.7 -70.1 136.5 -68.45 134.1 -67.85 125.7 -65.5 117.0 -65.2 L116.9 -64.85 Q113.05 -52.7 105.25 -42.45 99.25 -34.5 98.8 -25.0 L98.8 -23.9 Q100.7 -16.3 107.4 -11.9 112.35 -8.6 117.8 -6.4 L118.05 -7.3 118.25 -8.3 Q112.35 -10.2 108.7 -15.5 105.1 -20.65 108.3 -25.9 L107.65 -26.6 Q108.25 -29.8 111.1 -31.4 122.75 -37.8 135.8 -35.15 152.0 -32.05 161.1 -18.2 160.65 -22.3 157.85 -25.4 153.45 -30.35 147.3 -32.95 132.7 -39.15 116.95 -36.15 108.25 -34.2 100.15 -30.9 L103.8 -33.2 Q106.9 -35.0 110.1 -36.3 115.05 -38.15 120.2 -38.55 L123.7 -38.85 Q137.35 -39.95 149.65 -33.85 158.7 -29.3 163.15 -19.95 L163.25 -19.75 Q165.5 -12.75 160.4 -7.4 155.75 -2.6 149.15 -1.95 L140.6 -1.5 Q152.3 0.6 161.9 -5.45 163.95 -6.8 165.0 -9.05 167.1 -13.3 166.8 -18.15 166.05 -29.35 165.65 -40.75 165.55 -43.55 165.7 -46.35 166.55 -65.4 178.15 -80.1 L185.7 -90.4 Q188.45 -94.5 187.9 -99.35 187.5 -102.9 185.3 -106.15 M136.4 -80.75 Q135.2 -81.7 134.1 -82.7 126.7 -88.55 117.55 -87.9 106.95 -87.25 100.9 -78.5 99.0 -75.8 97.5 -72.85 88.75 -55.7 87.1 -36.65 85.25 -15.6 86.4 5.5 87.15 18.65 91.5 30.95 93.45 36.45 97.4 40.85 L108.05 48.7 Q126.4 60.85 146.75 68.8 166.55 76.7 187.7 78.15 L191.2 78.3 Q195.95 74.95 196.9 69.55 198.7 59.45 200.65 49.5 203.55 34.4 210.3 20.6 L208.3 19.25 203.05 14.45 199.9 10.2 Q189.2 12.85 178.2 13.35 159.55 13.85 141.4 10.1 L143.8 18.8 144.35 20.95 144.9 23.25 135.55 -0.7 Q132.25 6.8 129.25 14.4 127.15 19.75 121.45 20.35 120.15 20.2 119.15 19.65 115.8 17.8 115.85 13.35 116.0 4.35 117.5 -4.55 106.85 -7.9 100.3 -16.95 98.95 -18.75 98.1 -20.8 96.0 -25.75 97.5 -31.0 98.35 -34.05 100.0 -36.5 109.2 -50.15 115.6 -65.1 L107.65 -65.75 111.8 -66.1 120.0 -66.55 Q128.2 -66.7 135.35 -70.25 137.1 -71.15 138.45 -72.55 140.95 -75.1 138.45 -78.2 137.75 -79.65 136.4 -80.75 M109.05 -26.85 Q118.75 -33.95 130.8 -33.5 144.1 -32.6 152.7 -22.3 L153.85 -20.15 Q156.2 -13.3 150.9 -8.35 149.1 -6.7 146.7 -5.9 142.2 -4.2 137.4 -5.0 L136.9 -3.2 137.05 -2.8 Q144.15 -1.3 151.15 -3.0 157.85 -4.6 160.35 -11.1 L160.65 -12.55 Q160.7 -17.9 157.0 -21.7 147.85 -30.95 135.2 -33.7 128.3 -35.4 121.4 -33.85 114.35 -32.4 108.7 -28.3 L108.6 -27.0 109.05 -26.85 M111.6 -26.85 Q108.65 -24.5 108.3 -20.8 L108.35 -19.5 Q109.0 -21.9 110.85 -23.5 112.4 -24.75 114.85 -25.55 114.45 -25.65 114.5 -26.1 L115.25 -29.15 Q113.1 -28.15 111.6 -26.85 M117.95 -26.2 L118.1 -26.2 118.0 -26.25 124.5 -26.75 126.45 -31.6 Q121.4 -31.9 116.7 -29.8 L115.65 -25.75 117.95 -26.2 M112.45 -22.95 L112.35 -22.9 Q108.65 -20.5 110.1 -16.6 110.9 -14.45 112.7 -13.0 115.4 -10.9 118.45 -9.55 L118.75 -11.2 118.9 -11.85 Q120.0 -14.75 123.15 -15.6 L128.85 -15.9 Q132.65 -15.55 135.35 -13.1 138.55 -10.1 137.2 -5.85 L140.6 -5.65 Q144.1 -5.6 147.6 -6.85 149.75 -7.65 151.4 -9.35 151.65 -11.45 150.35 -13.5 145.65 -21.0 137.05 -22.95 129.35 -25.15 121.3 -25.15 116.55 -25.15 112.45 -22.95 M122.1 -13.25 Q121.15 -13.25 120.5 -12.0 119.85 -10.75 119.85 -9.0 L117.6 10.95 117.8 13.75 117.95 13.45 119.5 13.0 Q120.5 12.85 121.45 13.0 L123.95 14.15 125.5 15.95 Q126.95 15.1 128.05 12.65 132.45 2.8 135.5 -7.35 136.2 -9.75 134.45 -11.6 131.6 -13.95 127.85 -14.35 L127.45 -14.45 123.6 -14.1 122.1 -13.25 M144.2 -27.3 Q144.3 -24.7 143.2 -22.3 L148.55 -18.95 149.7 -22.55 Q148.95 -24.35 146.75 -25.75 L144.2 -27.3 M126.0 -26.55 L131.55 -25.8 133.6 -31.0 127.5 -31.7 126.0 -26.55 M132.65 -25.7 Q137.55 -24.65 142.0 -22.75 L143.15 -27.55 Q140.65 -29.45 136.75 -30.35 L134.7 -30.85 132.65 -25.7 M153.15 -13.25 Q153.45 -15.75 152.65 -18.25 L150.65 -21.75 149.5 -18.0 Q152.2 -15.5 152.9 -12.05 L153.15 -13.25 M302.3 -176.45 L298.95 -179.6 Q282.45 -165.7 264.4 -153.9 256.3 -148.55 247.85 -143.75 258.25 -143.35 267.9 -139.8 287.15 -132.8 304.3 -121.75 319.7 -110.9 331.45 -96.1 L332.7 -94.5 336.1 -88.55 Q338.7 -110.7 347.95 -131.1 L354.5 -144.95 352.1 -146.35 Q348.8 -148.05 346.05 -150.7 L344.3 -152.55 Q334.45 -139.55 328.3 -124.5 L324.9 -116.75 Q329.9 -137.25 342.75 -154.25 339.85 -157.6 338.4 -161.55 337.5 -163.9 337.1 -166.25 L337.0 -166.9 331.1 -166.4 326.1 -166.5 324.9 -166.6 325.6 -166.5 324.15 -163.35 Q317.2 -148.35 303.05 -139.45 316.55 -150.5 322.9 -166.85 L317.4 -168.0 Q315.5 -168.55 313.65 -169.25 L309.05 -171.5 Q305.65 -167.4 301.4 -164.3 L301.2 -164.15 Q290.3 -155.6 279.65 -150.85 L275.1 -149.65 275.65 -150.05 292.85 -160.6 Q300.95 -165.35 306.55 -172.95 L302.3 -176.45 M250.8 -123.35 Q271.65 -129.45 292.05 -122.15 302.95 -118.25 311.75 -110.6 326.25 -97.95 334.1 -80.35 L334.75 -80.95 Q335.4 -85.5 332.7 -89.6 314.15 -117.15 283.75 -130.75 274.4 -135.0 264.35 -138.15 255.9 -140.75 247.2 -141.35 L247.1 -141.35 244.6 -141.15 Q240.5 -140.95 237.9 -137.9 L237.3 -137.05 Q235.55 -131.8 238.35 -126.7 240.3 -123.05 243.1 -120.2 L245.7 -121.4 250.8 -123.35 M238.8 -93.2 Q240.05 -100.25 247.65 -100.85 L253.6 -100.55 Q256.3 -99.95 256.85 -98.05 L253.6 -98.6 Q244.1 -101.15 238.8 -93.2 M326.2 -90.65 L323.9 -94.1 Q312.95 -110.45 295.2 -118.6 276.05 -127.25 255.5 -122.35 245.0 -119.95 236.3 -113.7 218.3 -101.0 212.65 -79.8 206.95 -58.5 217.95 -39.4 219.4 -39.15 221.15 -40.45 L221.55 -40.65 Q215.95 -55.4 221.1 -70.4 223.6 -77.45 230.45 -80.95 234.15 -82.85 237.25 -80.5 L238.25 -79.4 Q241.95 -85.95 249.35 -86.15 253.8 -86.25 258.15 -85.0 272.45 -81.0 283.15 -70.7 286.6 -67.3 288.7 -62.85 293.65 -52.15 288.6 -41.55 287.4 -39.05 285.5 -37.15 300.45 -28.6 306.25 -12.5 309.9 -2.3 305.15 7.15 302.55 12.3 297.1 13.95 L293.5 14.95 Q294.3 31.2 290.45 47.0 289.5 51.0 289.25 55.15 288.55 67.4 292.75 79.0 L296.5 80.6 296.55 80.6 296.6 80.35 Q300.05 47.45 312.15 16.55 316.95 4.3 325.15 -5.7 334.3 -16.85 348.5 -19.0 L351.6 -19.1 343.65 -45.45 343.25 -46.75 Q339.6 -61.5 333.85 -75.65 331.05 -82.55 327.25 -88.95 L326.2 -90.65 M232.35 -91.5 Q226.05 -96.0 219.65 -91.05 L219.9 -91.75 Q221.2 -94.9 224.4 -95.35 228.15 -95.7 230.95 -93.1 L232.35 -91.5 M238.65 -75.55 L238.9 -74.15 Q238.1 -75.2 237.9 -76.65 L237.8 -77.7 Q234.75 -81.4 230.35 -79.3 227.1 -77.8 225.3 -74.65 218.8 -63.4 220.8 -50.4 221.55 -45.75 223.15 -41.3 L232.55 -44.3 Q229.9 -48.45 231.45 -53.1 231.85 -48.45 234.1 -44.65 249.95 -47.6 265.7 -44.15 265.2 -53.0 259.1 -59.25 267.3 -53.75 267.35 -43.75 274.5 -42.0 281.25 -39.3 L283.65 -38.15 Q290.1 -44.75 289.1 -54.2 287.95 -65.0 279.35 -72.0 266.4 -82.5 249.85 -84.6 247.8 -84.6 246.0 -83.95 239.6 -81.8 238.65 -75.55 M303.9 -13.5 Q299.1 -26.4 287.05 -33.7 268.55 -44.85 246.65 -44.2 224.2 -43.55 207.4 -28.85 199.45 -21.85 197.75 -11.35 195.65 2.0 204.0 12.55 L207.1 15.85 Q216.05 23.9 228.25 24.05 243.05 24.2 255.8 16.95 256.5 19.55 258.25 21.75 260.55 24.65 264.1 22.9 269.45 20.1 274.8 17.55 282.2 14.05 290.45 14.0 297.65 13.45 302.2 8.05 303.55 6.5 304.4 4.65 307.05 -1.5 305.35 -7.85 304.85 -10.75 303.9 -13.5 M253.95 -7.85 L247.95 -0.95 253.4 0.85 Q261.3 3.7 264.35 11.4 L265.1 10.9 265.6 6.75 Q266.9 2.5 270.0 -0.4 L271.65 -1.95 Q280.25 -9.1 291.25 -8.7 L289.95 -10.3 Q285.15 -16.05 278.0 -17.6 264.15 -19.65 255.0 -8.95 L253.95 -7.85 M269.4 -19.4 Q280.0 -21.2 288.5 -14.6 295.25 -9.3 297.25 -1.0 297.6 0.45 297.25 1.85 296.2 6.0 292.05 6.6 281.6 6.8 271.65 9.65 264.55 11.6 259.9 17.15 L263.0 12.35 Q261.15 8.25 257.65 5.35 252.9 1.35 246.65 0.5 243.3 4.7 238.1 7.0 235.1 8.35 231.7 8.85 236.15 7.45 239.85 4.5 241.7 3.15 243.2 1.4 250.5 -7.2 258.9 -14.7 263.55 -18.3 269.4 -19.4 M293.65 -5.2 Q285.1 -3.7 279.45 3.1 283.7 -4.3 292.1 -6.6 285.35 -7.7 279.2 -4.7 270.35 -0.65 267.1 8.2 L266.5 10.15 Q279.3 5.3 292.85 3.9 293.6 4.05 294.2 3.5 296.25 1.5 295.15 -1.5 L293.65 -5.2 M351.6 -134.55 L350.45 -131.9 Q368.75 -125.25 386.95 -132.0 393.7 -134.55 398.65 -140.0 L395.8 -139.3 Q376.45 -135.65 358.4 -143.15 L356.15 -144.15 351.6 -134.55 M372.45 8.25 L357.05 -5.45 357.3 -5.0 354.05 -8.05 Q346.85 -2.85 340.4 3.5 338.3 5.55 336.7 8.05 325.1 26.4 321.6 47.85 318.9 64.4 322.65 80.35 323.8 85.25 325.55 90.05 327.7 96.0 331.0 101.65 L333.65 105.35 Q337.7 109.95 343.85 112.1 L361.75 104.25 Q347.55 94.05 332.4 85.35 L332.4 85.0 332.7 85.1 Q349.55 91.45 363.25 103.3 374.5 98.25 385.65 92.85 398.55 86.75 412.6 85.15 L419.05 85.55 416.45 85.75 414.7 85.9 416.45 86.0 Q397.65 88.45 380.85 97.2 372.55 101.45 364.05 105.35 353.7 110.1 343.15 114.25 L338.25 116.15 Q325.65 120.85 312.35 121.7 L313.6 123.1 313.95 123.85 Q308.1 119.45 302.0 115.4 L297.4 111.95 Q295.4 110.5 292.95 110.25 L292.05 110.25 Q291.2 110.45 290.35 111.2 289.95 111.55 289.7 113.3 288.4 128.0 298.75 138.8 L299.6 139.65 Q302.05 142.05 305.0 143.6 314.0 148.2 324.15 148.9 339.4 149.85 354.6 148.3 375.9 146.1 396.75 140.95 415.9 136.1 433.75 127.4 441.2 123.75 447.9 118.75 454.95 113.55 453.65 105.35 L453.6 105.0 Q450.7 95.4 445.5 86.9 L441.35 80.35 Q432.15 66.55 420.75 54.5 L419.5 53.2 416.85 50.3 Q410.15 43.4 403.25 36.85 388.05 22.25 372.45 8.25 M289.7 76.0 Q286.0 61.55 288.95 47.0 292.15 31.2 292.15 15.2 277.3 16.65 264.3 24.45 L262.65 25.0 Q257.0 24.4 254.8 19.2 L253.5 19.9 253.2 26.05 Q248.65 47.9 234.2 64.75 L232.35 67.05 Q251.7 69.05 270.8 73.3 L278.05 74.9 278.35 75.0 289.95 78.25 290.6 78.5 289.7 76.0 M228.65 26.0 L223.9 25.65 Q218.3 45.7 218.2 66.55 L229.5 66.8 Q246.2 49.55 251.3 26.0 251.85 23.35 251.65 20.85 244.85 23.9 237.35 25.3 L228.75 26.0 228.65 26.0 M256.9 127.0 L264.1 139.25 Q272.95 153.6 276.85 169.85 277.6 172.95 275.2 175.1 272.1 177.8 268.0 178.4 264.6 178.7 261.55 177.4 L259.0 176.0 Q233.05 177.75 207.25 174.45 199.3 173.7 192.8 169.0 191.4 168.05 191.3 166.35 191.15 164.25 192.55 162.55 L197.15 158.65 Q216.45 143.95 238.65 134.6 239.1 129.95 242.15 126.45 243.7 124.65 245.9 123.8 252.45 121.4 256.9 127.0 M263.0 85.4 L250.5 81.85 241.9 79.65 241.8 79.65 Q237.2 78.5 232.1 78.05 L219.3 76.5 214.9 76.2 204.5 76.5 204.95 75.6 207.05 75.35 Q217.4 74.75 227.75 75.85 L234.45 76.75 Q248.2 79.4 261.55 83.55 267.7 85.5 273.8 87.75 291.15 94.3 305.6 105.35 L311.1 109.8 303.6 105.35 301.65 104.15 Q283.45 92.35 263.0 85.4 M240.5 135.6 L240.3 136.1 Q228.4 139.7 217.95 146.35 207.45 152.95 197.45 160.15 194.35 162.4 193.35 165.85 193.2 166.35 193.4 167.0 196.3 168.9 199.8 168.95 L222.0 168.95 Q230.55 172.5 239.65 169.75 L244.45 169.4 252.45 169.9 252.95 170.4 Q251.05 171.4 248.1 170.9 239.55 170.35 231.0 172.1 227.85 172.7 225.0 171.5 222.4 170.4 219.45 170.15 L207.55 170.7 198.75 170.25 198.55 170.2 198.5 170.2 198.55 170.25 198.75 170.35 204.35 172.2 211.6 173.65 Q233.2 175.35 254.7 174.8 L257.8 174.75 Q258.55 174.7 257.95 174.35 L257.7 174.15 257.85 167.85 Q256.1 165.55 253.4 163.9 250.55 162.2 249.7 159.0 249.5 158.25 249.55 157.35 L249.85 151.75 249.7 151.3 243.05 143.05 Q242.5 142.05 242.25 140.9 L242.2 140.4 Q241.5 136.45 245.1 132.35 L245.95 132.3 246.2 132.5 Q242.85 136.95 245.3 141.55 247.95 146.5 251.6 150.95 L251.6 151.0 Q249.7 156.45 252.65 161.2 253.65 162.75 255.45 163.65 260.0 165.9 258.85 170.75 260.1 169.25 261.55 168.4 264.25 166.75 267.65 167.25 268.85 167.4 270.0 167.9 L270.1 168.0 Q266.6 167.95 262.75 169.0 262.1 169.15 261.55 169.45 260.45 170.1 259.9 171.45 258.75 174.4 261.55 175.8 L261.75 175.9 Q265.65 177.6 270.1 176.1 273.85 174.95 275.7 171.65 276.35 170.55 276.05 169.25 274.35 162.15 270.75 155.5 L262.9 140.7 261.55 138.0 Q258.45 132.0 254.15 126.8 251.75 123.95 248.15 125.1 240.55 127.55 240.5 135.6 M232.9 163.2 Q230.6 163.1 229.2 161.8 228.05 160.75 229.2 159.45 231.9 156.3 236.15 156.4 L238.5 156.8 Q239.6 157.25 240.05 158.3 240.6 160.65 238.35 161.95 235.8 163.25 232.9 163.2 M228.75 147.1 Q233.85 150.2 237.65 146.0 L236.1 143.4 Q231.25 142.3 228.25 146.2 L228.75 147.1 M238.5 145.1 Q238.95 148.55 235.8 149.55 232.15 150.65 229.15 148.5 225.3 145.8 229.3 142.95 232.75 141.2 236.4 142.4 238.25 143.0 238.5 145.1 M235.45 157.3 Q231.4 157.45 229.6 161.1 235.1 163.7 239.15 159.35 238.2 156.85 235.45 157.3 M211.15 155.45 Q212.85 155.15 213.9 156.5 214.15 159.7 210.8 160.8 207.7 161.9 205.65 159.7 205.2 159.2 205.05 158.45 206.95 154.95 211.15 155.45 M206.3 158.7 L206.2 159.2 Q210.25 161.55 212.75 157.55 L212.6 156.85 Q208.7 155.55 206.3 158.7 M124.1 16.55 Q121.4 13.05 117.9 15.85 L118.5 17.1 Q120.7 20.2 123.8 17.95 L124.1 16.55" fill="#000000" fill-rule="evenodd" stroke="none"/>
    <path d="M290.2 -175.3 Q284.65 -175.5 280.4 -179.0 278.3 -180.85 276.4 -182.95 272.75 -186.95 272.2 -192.25 279.1 -182.7 290.25 -179.55 L294.3 -179.0 290.2 -175.3 M296.4 -183.55 L294.1 -183.45 Q286.4 -186.6 282.6 -194.4 276.65 -206.6 276.05 -220.45 L276.8 -220.8 277.35 -220.25 278.2 -221.0 280.05 -219.45 Q281.85 -220.35 283.9 -219.95 L284.0 -220.4 284.95 -220.9 285.7 -220.15 286.2 -220.1 286.55 -220.5 287.35 -220.35 288.3 -221.3 289.05 -220.85 289.45 -221.25 289.7 -219.25 Q287.25 -201.1 295.6 -185.05 L296.4 -183.55 M301.2 -219.2 L302.4 -223.8 303.0 -223.8 Q304.1 -223.55 304.6 -222.65 L304.8 -222.65 305.25 -223.25 305.95 -223.4 306.6 -223.2 306.9 -223.5 309.45 -223.35 309.6 -223.25 311.7 -225.2 312.8 -224.4 312.9 -223.6 314.8 -223.25 316.0 -223.55 316.75 -225.35 318.25 -224.75 319.1 -226.15 320.45 -225.9 321.6 -226.8 322.5 -226.25 324.0 -226.65 324.25 -224.75 324.65 -226.25 Q324.9 -227.3 325.85 -227.75 L326.65 -227.25 326.35 -223.35 328.7 -227.3 330.0 -227.4 330.6 -226.3 332.05 -225.8 332.2 -225.6 333.0 -223.75 335.9 -222.4 Q356.1 -227.6 376.85 -227.15 379.45 -227.1 381.4 -225.25 L382.55 -228.1 383.65 -227.4 386.1 -228.3 386.65 -227.75 Q387.35 -226.95 387.55 -225.85 L389.35 -224.7 389.85 -225.35 Q390.7 -226.6 392.25 -227.0 L394.0 -225.4 Q395.65 -226.7 397.35 -225.85 398.5 -225.2 399.8 -225.0 402.1 -226.7 404.6 -225.3 407.5 -223.7 407.9 -220.5 408.55 -222.55 410.5 -223.9 L411.45 -224.25 Q416.85 -225.2 421.05 -222.1 425.05 -224.75 429.5 -223.6 L430.15 -222.9 Q431.85 -218.8 431.25 -214.4 433.4 -212.45 432.95 -209.25 L432.5 -204.9 Q432.1 -199.4 430.35 -194.25 428.6 -186.95 424.7 -180.55 414.05 -162.95 396.45 -152.35 392.9 -150.2 388.8 -149.15 372.6 -144.6 357.7 -152.75 L352.45 -155.7 Q344.7 -160.1 344.0 -168.7 345.95 -169.2 347.6 -169.8 357.85 -172.8 365.1 -180.65 L361.95 -178.8 363.95 -182.2 Q351.95 -172.75 336.65 -172.3 325.1 -171.5 315.15 -177.25 309.9 -180.35 306.55 -185.45 298.05 -198.15 300.8 -213.3 L300.8 -213.4 300.7 -214.2 Q300.4 -216.7 301.2 -219.2 M184.15 177.85 L182.8 177.8 184.05 177.8 184.15 177.85 M304.3 -121.75 L305.3 -122.0 Q316.9 -142.35 331.3 -160.7 L334.6 -165.3 331.1 -166.4 337.0 -166.9 337.1 -166.25 Q337.5 -163.9 338.4 -161.55 339.85 -157.6 342.75 -154.25 329.9 -137.25 324.9 -116.75 L328.3 -124.5 Q334.45 -139.55 344.3 -152.55 L346.05 -150.7 Q348.8 -148.05 352.1 -146.35 343.9 -134.6 339.8 -120.75 335.95 -107.7 332.7 -94.5 L331.45 -96.1 Q319.7 -110.9 304.3 -121.75 M303.05 -139.45 L294.25 -135.45 293.9 -136.55 295.5 -138.8 Q307.5 -152.45 313.65 -169.25 315.5 -168.55 317.4 -168.0 L322.9 -166.85 Q316.55 -150.5 303.05 -139.45 M275.65 -150.05 Q276.05 -150.65 274.9 -150.4 L274.5 -150.35 Q273.4 -150.6 273.3 -151.85 282.05 -156.15 289.75 -161.65 297.85 -167.45 302.3 -176.45 L306.55 -172.95 Q300.95 -165.35 292.85 -160.6 L275.65 -150.05 M244.6 -141.15 Q243.2 -138.75 244.25 -136.35 247.15 -129.7 250.8 -123.35 L245.7 -121.4 244.35 -123.3 Q239.75 -129.75 237.3 -137.05 L237.9 -137.9 Q240.5 -140.95 244.6 -141.15 M346.75 -167.75 Q346.25 -167.65 346.85 -167.6 L346.75 -167.75 M351.6 -134.55 L356.15 -144.15 358.4 -143.15 Q376.45 -135.65 395.8 -139.3 395.15 -137.95 393.8 -137.1 384.55 -130.9 373.5 -130.35 362.05 -129.8 351.6 -134.55 M221.65 120.1 L221.6 119.75 221.7 120.1 221.65 120.1 M213.45 89.25 L213.45 88.7 213.65 89.2 213.45 89.25" fill="#dbdbdb" fill-rule="evenodd" stroke="none"/>
    <path d="M131.05 -86.5 Q127.3 -88.35 123.25 -89.4 L123.25 -90.5 Q122.4 -97.45 120.45 -104.1 L119.95 -107.1 Q121.4 -115.7 129.85 -119.45 145.3 -126.2 161.85 -122.15 176.65 -118.35 185.3 -106.15 L184.35 -105.9 Q183.15 -106.4 182.25 -107.4 172.7 -118.35 158.25 -120.6 L158.2 -120.6 158.15 -120.65 158.05 -120.55 Q145.65 -122.3 134.25 -117.5 132.55 -116.8 131.1 -115.7 L128.15 -113.45 Q130.9 -104.9 132.25 -96.1 133.0 -91.05 131.05 -86.5 M110.1 -36.3 Q106.9 -35.0 103.8 -33.2 L100.15 -30.9 Q108.25 -34.2 116.95 -36.15 L117.75 -35.85 Q113.05 -34.9 108.8 -32.3 102.95 -28.85 103.15 -22.1 103.2 -20.35 104.35 -18.8 109.8 -11.5 118.05 -7.3 L117.8 -6.4 Q112.35 -8.6 107.4 -11.9 100.7 -16.3 98.8 -23.9 L98.8 -25.0 Q99.25 -34.5 105.25 -42.45 113.05 -52.7 116.9 -64.85 121.85 -64.0 121.7 -59.3 121.65 -57.35 120.95 -55.45 117.0 -45.1 110.1 -36.3 M111.6 -26.85 L112.45 -26.85 110.85 -23.5 Q109.0 -21.9 108.35 -19.5 L108.3 -20.8 Q108.65 -24.5 111.6 -26.85 M112.35 -22.9 L112.5 -22.85 112.45 -22.95 Q116.55 -25.15 121.3 -25.15 129.35 -25.15 137.05 -22.95 L136.65 -22.3 Q126.8 -24.6 117.05 -22.25 120.4 -17.5 117.3 -12.55 L118.75 -11.2 118.45 -9.55 Q115.4 -10.9 112.7 -13.0 110.9 -14.45 110.1 -16.6 108.65 -20.5 112.35 -22.9 M119.85 -9.0 Q119.85 -10.75 120.5 -12.0 121.15 -13.25 122.1 -13.25 120.8 -12.15 119.85 -9.0" fill="#ff8236" fill-rule="evenodd" stroke="none"/>
    <path d="M163.15 -19.95 Q158.7 -29.3 149.65 -33.85 137.35 -39.95 123.7 -38.85 132.25 -46.9 134.35 -58.45 L135.45 -63.4 Q127.5 -62.4 119.7 -64.65 L119.65 -65.25 117.95 -65.2 117.0 -65.2 Q125.7 -65.5 134.1 -67.85 136.5 -68.45 138.7 -70.1 143.35 -73.55 140.15 -78.5 148.65 -78.25 157.05 -78.4 160.8 -78.5 163.8 -80.35 165.0 -77.9 168.2 -78.95 L169.9 -79.4 Q171.95 -82.35 170.7 -86.2 L167.2 -97.6 Q165.7 -103.05 160.55 -104.1 159.6 -104.3 158.75 -103.75 156.25 -102.0 157.75 -99.95 L153.7 -97.9 Q152.5 -102.25 149.55 -104.15 148.0 -105.25 146.1 -105.45 144.6 -109.55 142.15 -112.9 L140.4 -115.2 140.25 -116.25 Q152.1 -120.5 164.2 -115.95 171.5 -113.25 177.3 -108.3 182.75 -103.5 185.95 -96.8 183.5 -88.75 177.9 -82.6 162.0 -65.15 161.35 -41.35 161.1 -32.5 163.35 -23.85 163.8 -22.2 163.7 -20.15 163.7 -19.8 163.3 -19.75 L163.15 -19.95 M148.45 -97.35 L148.5 -97.25 148.4 -97.25 148.45 -97.35 M109.05 -26.85 L108.6 -27.0 108.7 -28.3 Q114.35 -32.4 121.4 -33.85 128.3 -35.4 135.2 -33.7 147.85 -30.95 157.0 -21.7 160.7 -17.9 160.65 -12.55 L160.35 -11.1 Q157.85 -4.6 151.15 -3.0 144.15 -1.3 137.05 -2.8 L136.9 -3.2 137.4 -5.0 Q142.2 -4.2 146.7 -5.9 149.1 -6.7 150.9 -8.35 156.2 -13.3 153.85 -20.15 L152.7 -22.3 Q144.1 -32.6 130.8 -33.5 118.75 -33.95 109.05 -26.85 M140.6 -5.65 L137.2 -5.85 Q138.55 -10.1 135.35 -13.1 132.65 -15.55 128.85 -15.9 L123.15 -15.6 123.1 -18.8 120.45 -21.85 Q123.85 -23.05 127.7 -22.6 138.75 -21.75 147.0 -14.95 148.1 -14.1 148.6 -12.6 149.05 -11.1 148.7 -9.65 145.45 -6.15 140.6 -5.65 M127.45 -14.45 L127.85 -14.35 Q131.6 -13.95 134.45 -11.6 133.0 -0.15 127.8 10.45 126.45 13.1 123.95 14.15 L121.45 13.0 Q123.4 6.85 125.6 0.9 128.3 -6.4 127.1 -14.05 L127.45 -14.45 M132.65 -25.7 L134.7 -30.85 136.75 -30.35 Q140.65 -29.45 143.15 -27.55 L142.0 -22.75 Q137.55 -24.65 132.65 -25.7 M126.0 -26.55 L127.5 -31.7 133.6 -31.0 131.55 -25.8 126.0 -26.55 M144.2 -27.3 L146.75 -25.75 Q148.95 -24.35 149.7 -22.55 L148.55 -18.95 143.2 -22.3 Q144.3 -24.7 144.2 -27.3" fill="#c91600" fill-rule="evenodd" stroke="none"/>
    <path d="M131.05 -86.5 Q133.0 -91.05 132.25 -96.1 130.9 -104.9 128.15 -113.45 L131.1 -115.7 Q132.55 -116.8 134.25 -117.5 145.65 -122.3 158.05 -120.55 L158.2 -120.6 158.45 -120.45 158.25 -120.6 Q172.7 -118.35 182.25 -107.4 183.15 -106.4 184.35 -105.9 L185.3 -106.15 Q187.5 -102.9 187.9 -99.35 188.45 -94.5 185.7 -90.4 L178.15 -80.1 Q166.55 -65.4 165.7 -46.35 165.55 -43.55 165.65 -40.75 166.05 -29.35 166.8 -18.15 167.1 -13.3 165.0 -9.05 163.95 -6.8 161.9 -5.45 152.3 0.6 140.6 -1.5 L149.15 -1.95 Q155.75 -2.6 160.4 -7.4 165.5 -12.75 163.25 -19.75 L163.3 -19.75 Q163.7 -19.8 163.7 -20.15 163.8 -22.2 163.35 -23.85 161.1 -32.5 161.35 -41.35 162.0 -65.15 177.9 -82.6 183.5 -88.75 185.95 -96.8 182.75 -103.5 177.3 -108.3 171.5 -113.25 164.2 -115.95 152.1 -120.5 140.25 -116.25 L140.4 -115.2 142.15 -112.9 Q144.6 -109.55 146.1 -105.45 137.85 -105.15 134.65 -97.55 131.9 -90.9 136.95 -86.05 139.3 -83.8 142.6 -83.85 L139.75 -79.15 138.95 -80.1 Q135.7 -84.1 131.05 -86.5 M123.7 -38.85 L120.2 -38.55 Q115.05 -38.15 110.1 -36.3 117.0 -45.1 120.95 -55.45 121.65 -57.35 121.7 -59.3 121.85 -64.0 116.9 -64.85 L117.0 -65.2 117.95 -65.2 119.7 -64.65 Q127.5 -62.4 135.45 -63.4 L134.35 -58.45 Q132.25 -46.9 123.7 -38.85 M116.95 -36.15 Q132.7 -39.15 147.3 -32.95 153.45 -30.35 157.85 -25.4 160.65 -22.3 161.1 -18.2 152.0 -32.05 135.8 -35.15 122.75 -37.8 111.1 -31.4 108.25 -29.8 107.65 -26.6 L108.3 -25.9 Q105.1 -20.65 108.7 -15.5 112.35 -10.2 118.25 -8.3 L118.05 -7.3 Q109.8 -11.5 104.35 -18.8 103.2 -20.35 103.15 -22.1 102.95 -28.85 108.8 -32.3 113.05 -34.9 117.75 -35.85 L116.95 -36.15 M110.85 -23.5 L112.45 -26.85 111.6 -26.85 Q113.1 -28.15 115.25 -29.15 L114.5 -26.1 Q114.45 -25.65 114.85 -25.55 112.4 -24.75 110.85 -23.5 M118.0 -26.25 L117.95 -26.3 117.95 -26.2 115.65 -25.75 116.7 -29.8 Q121.4 -31.9 126.45 -31.6 L124.5 -26.75 118.0 -26.25 M137.05 -22.95 Q145.65 -21.0 150.35 -13.5 151.65 -11.45 151.4 -9.35 149.75 -7.65 147.6 -6.85 144.1 -5.6 140.6 -5.65 145.45 -6.15 148.7 -9.65 149.05 -11.1 148.6 -12.6 148.1 -14.1 147.0 -14.95 138.75 -21.75 127.7 -22.6 123.85 -23.05 120.45 -21.85 L123.1 -18.8 123.15 -15.6 Q120.0 -14.75 118.9 -11.85 L118.75 -11.2 117.3 -12.55 Q120.4 -17.5 117.05 -22.25 126.8 -24.6 136.65 -22.3 L137.05 -22.95 M123.6 -14.1 L127.45 -14.45 127.1 -14.05 Q128.3 -6.4 125.6 0.9 123.4 6.85 121.45 13.0 120.5 12.85 119.5 13.0 L120.05 12.85 Q121.85 10.4 123.15 0.55 L124.25 -12.35 Q124.05 -14.1 123.6 -14.1 M134.45 -11.6 Q136.2 -9.75 135.5 -7.35 132.45 2.8 128.05 12.65 126.95 15.1 125.5 15.95 L123.95 14.15 Q126.45 13.1 127.8 10.45 133.0 -0.15 134.45 -11.6 M117.95 13.45 L117.8 13.75 117.6 10.95 117.95 13.45" fill="#ff4c00" fill-rule="evenodd" stroke="none"/>
    <path d="M138.7 -101.5 L141.55 -101.7 Q142.7 -102.7 143.95 -103.1 L145.3 -103.35 145.3 -103.05 143.95 -101.45 Q146.0 -101.55 146.5 -100.8 141.5 -100.65 139.0 -96.3 L138.4 -96.6 Q138.1 -98.9 140.25 -100.4 L138.85 -100.95 138.7 -101.5 M154.15 -95.4 Q156.65 -97.35 158.65 -94.8 157.9 -93.6 155.55 -91.95 L153.6 -90.6 Q154.45 -93.0 154.15 -95.4 M155.5 -86.05 L156.05 -85.85 Q155.5 -81.4 153.55 -81.1 152.95 -81.05 152.0 -81.6 150.95 -82.15 150.8 -82.65 L155.5 -86.05 M160.65 -82.05 L160.05 -82.25 160.55 -85.45 160.6 -87.75 Q162.55 -86.05 162.55 -83.4 L160.65 -82.05" fill="#5bad42" fill-rule="evenodd" stroke="none"/>
    <path d="M138.7 -101.5 L138.85 -100.95 140.25 -100.4 Q138.1 -98.9 138.4 -96.6 L139.0 -96.3 Q141.5 -100.65 146.5 -100.8 146.0 -101.55 143.95 -101.45 L145.3 -103.05 145.3 -103.35 143.95 -103.1 Q142.7 -102.7 141.55 -101.7 L138.7 -101.5 M146.1 -105.45 Q148.0 -105.25 149.55 -104.15 152.5 -102.25 153.7 -97.9 L154.15 -95.4 Q154.45 -93.0 153.6 -90.6 L152.1 -87.75 Q151.0 -86.25 149.25 -85.4 147.35 -84.0 145.0 -84.4 L145.35 -84.15 142.6 -83.85 Q139.3 -83.8 136.95 -86.05 131.9 -90.9 134.65 -97.55 137.85 -105.15 146.1 -105.45 M148.45 -97.35 L148.45 -97.5 148.4 -97.25 148.5 -97.25 148.45 -97.35" fill="#b2000c" fill-rule="evenodd" stroke="none"/>
    <path d="M158.05 -120.55 L158.15 -120.65 158.2 -120.6 158.25 -120.6 158.45 -120.45 158.2 -120.6 158.05 -120.55 M163.25 -19.75 L163.15 -19.95 163.3 -19.75 163.25 -19.75 M119.7 -64.65 L117.95 -65.2 119.65 -65.25 119.7 -64.65 M117.95 -26.2 L117.95 -26.3 118.0 -26.25 118.1 -26.2 117.95 -26.2 M153.15 -13.25 L152.9 -12.05 Q152.2 -15.5 149.5 -18.0 L150.65 -21.75 152.65 -18.25 Q153.45 -15.75 153.15 -13.25" fill="#db2800" fill-rule="evenodd" stroke="none"/>
    <path d="M140.15 -78.5 L139.75 -79.15 142.6 -83.85 145.35 -84.15 145.0 -84.4 Q147.35 -84.0 149.25 -85.4 149.9 -84.15 151.25 -85.1 152.75 -86.15 152.9 -87.65 L152.1 -87.75 153.6 -90.6 155.55 -91.95 Q157.9 -93.6 158.65 -94.8 156.65 -97.35 154.15 -95.4 L153.7 -97.9 157.75 -99.95 158.65 -99.95 Q166.55 -91.55 163.8 -80.35 160.8 -78.5 157.05 -78.4 148.65 -78.25 140.15 -78.5 M159.6 -91.8 L159.3 -92.3 Q156.75 -91.5 156.65 -88.7 L157.75 -87.35 Q160.55 -88.65 159.6 -91.8 M146.2 -81.05 Q148.8 -82.5 145.8 -83.1 144.4 -83.0 143.65 -81.9 143.35 -81.5 143.4 -81.0 L146.2 -81.05 M160.65 -82.05 L162.55 -83.4 Q162.55 -86.05 160.6 -87.75 L160.55 -85.45 160.05 -82.25 160.65 -82.05 M155.5 -86.05 L150.8 -82.65 Q150.95 -82.15 152.0 -81.6 152.95 -81.05 153.55 -81.1 155.5 -81.4 156.05 -85.85 L155.5 -86.05" fill="#ff9800" fill-rule="evenodd" stroke="none"/>
    <path d="M157.75 -99.95 Q156.25 -102.0 158.75 -103.75 159.6 -104.3 160.55 -104.1 165.7 -103.05 167.2 -97.6 L170.7 -86.2 Q171.95 -82.35 169.9 -79.4 L168.2 -78.95 Q165.0 -77.9 163.8 -80.35 166.55 -91.55 158.65 -99.95 L157.75 -99.95" fill="#8e4a02" fill-rule="evenodd" stroke="none"/>
    <path d="M152.1 -87.75 L152.9 -87.65 Q152.75 -86.15 151.25 -85.1 149.9 -84.15 149.25 -85.4 151.0 -86.25 152.1 -87.75 M159.6 -91.8 Q160.55 -88.65 157.75 -87.35 L156.65 -88.7 Q156.75 -91.5 159.3 -92.3 L159.6 -91.8 M146.2 -81.05 L143.4 -81.0 Q143.35 -81.5 143.65 -81.9 144.4 -83.0 145.8 -83.1 148.8 -82.5 146.2 -81.05" fill="#e37302" fill-rule="evenodd" stroke="none"/>
    <path d="M148.4 -97.25 L148.45 -97.5 148.45 -97.35 148.4 -97.25 M293.65 -5.2 L295.15 -1.5 Q296.25 1.5 294.2 3.5 293.6 4.05 292.85 3.9 279.3 5.3 266.5 10.15 L267.1 8.2 Q270.35 -0.65 279.2 -4.7 285.35 -7.7 292.1 -6.6 283.7 -4.3 279.45 3.1 285.1 -3.7 293.65 -5.2" fill="#cc0000" fill-rule="evenodd" stroke="none"/>
    <path d="M112.35 -22.9 L112.45 -22.95 112.5 -22.85 112.35 -22.9 M119.85 -9.0 Q120.8 -12.15 122.1 -13.25 L123.6 -14.1 Q124.05 -14.1 124.25 -12.35 L123.15 0.55 Q121.85 10.4 120.05 12.85 L119.5 13.0 117.95 13.45 117.6 10.95 119.85 -9.0" fill="#ff792d" fill-rule="evenodd" stroke="none"/>
    <path d="M250.8 -123.35 Q247.15 -129.7 244.25 -136.35 243.2 -138.75 244.6 -141.15 L247.1 -141.35 247.1 -141.3 247.2 -141.35 Q255.9 -140.75 264.35 -138.15 274.4 -135.0 283.75 -130.75 314.15 -117.15 332.7 -89.6 335.4 -85.5 334.75 -80.95 L334.1 -80.35 Q326.25 -97.95 311.75 -110.6 302.95 -118.25 292.05 -122.15 271.65 -129.45 250.8 -123.35" fill="#b7b7b7" fill-rule="evenodd" stroke="none"/>
    <path d="M238.8 -93.2 L238.8 -93.1 238.7 -93.05 238.75 -93.15 238.8 -93.2 M338.25 116.15 L343.15 114.25 Q353.7 110.1 364.05 105.35 372.55 101.45 380.85 97.2 L378.05 98.8 Q371.7 102.25 365.15 105.35 352.05 111.5 338.25 116.15 M332.4 85.0 L332.4 85.35 331.9 85.25 332.4 85.0" fill="#0099cc" fill-rule="evenodd" stroke="none"/>
    <path d="M204.0 12.55 Q195.65 2.0 197.75 -11.35 199.45 -21.85 207.4 -28.85 224.2 -43.55 246.65 -44.2 268.55 -44.85 287.05 -33.7 299.1 -26.4 303.9 -13.5 299.85 -20.6 288.85 -27.5 271.7 -38.25 253.75 -38.25 234.3 -38.25 219.25 -28.75 201.75 -17.65 201.75 1.0 201.75 4.65 202.85 8.95 203.35 10.95 204.0 12.55" fill="#ffdc31" fill-rule="evenodd" stroke="none"/>
    <path d="M315.35 -55.1 L315.5 -54.3 Q314.95 -49.1 318.0 -44.9 L317.7 -43.85 Q316.3 -43.75 315.45 -44.8 311.45 -49.95 315.35 -55.1 M314.65 -82.6 L314.65 -82.3 Q309.95 -77.0 311.7 -70.05 L311.5 -69.65 310.75 -69.45 Q308.3 -71.95 309.1 -75.6 310.2 -80.6 314.65 -82.6 M405.1 47.3 L410.25 48.15 Q412.0 47.75 411.85 49.0 407.6 51.7 402.25 50.3 398.8 49.55 400.55 46.85 L401.1 46.7 Q403.25 46.6 405.1 47.3 M370.85 11.7 Q373.55 10.45 373.85 12.05 L372.9 13.5 370.4 16.1 369.15 17.3 368.05 17.1 367.85 16.8 Q367.05 13.0 370.85 11.7 M382.05 47.3 Q383.9 47.1 384.2 48.95 384.45 51.3 384.25 53.7 383.9 57.95 388.0 57.95 390.05 57.95 391.45 57.05 391.8 57.8 391.25 58.35 390.15 59.45 388.6 60.05 384.9 61.35 382.4 58.2 380.2 55.3 379.45 51.45 378.85 48.35 381.6 47.05 L382.05 47.3 M364.6 34.25 Q364.4 35.4 365.15 36.2 367.05 38.15 367.05 40.6 364.85 42.4 361.9 41.1 360.1 40.15 359.9 38.2 359.05 30.9 365.25 26.9 367.5 25.4 369.5 25.4 L366.85 29.15 Q365.1 31.45 364.6 34.25 M325.05 166.85 L325.0 168.1 Q325.05 171.6 326.55 174.7 328.4 178.4 332.3 178.4 L331.65 178.65 330.95 179.05 327.35 179.4 Q323.5 178.9 323.0 175.2 322.5 171.85 323.35 168.75 L323.75 166.85 Q324.0 164.55 323.3 162.45 322.35 159.55 320.75 157.1 318.75 154.05 321.85 151.7 L322.6 151.55 Q321.9 155.15 323.25 158.2 325.05 162.25 325.05 166.85 M191.4 86.8 L189.05 87.35 187.45 87.05 Q189.7 83.55 198.55 83.45 207.25 83.55 207.7 86.5 207.75 87.05 207.4 87.5 207.0 88.05 206.25 88.15 L204.85 87.7 203.9 88.0 191.4 86.8 M207.0 119.45 L208.65 119.05 209.05 117.7 208.15 116.2 Q203.1 114.2 198.7 111.1 194.5 108.3 193.15 103.75 L193.75 103.35 Q199.45 109.45 207.3 111.35 211.2 112.35 213.7 115.5 214.6 116.6 214.1 117.95 212.25 122.8 207.15 121.25 L206.7 119.8 207.0 119.45 M188.2 141.3 Q187.9 141.0 187.9 140.55 187.9 140.1 188.2 139.8 188.5 139.5 188.95 139.5 L189.7 139.8 190.0 140.55 189.7 141.3 188.95 141.6 Q188.5 141.6 188.2 141.3 M196.75 129.3 Q197.1 128.45 197.65 129.3 200.2 133.3 199.6 137.95 198.95 143.1 194.15 143.4 L193.7 142.7 Q193.15 141.2 193.85 139.8 196.25 134.8 196.75 129.3 M162.85 141.55 Q165.45 141.15 165.75 143.05 165.95 143.95 165.75 144.35 165.35 145.1 163.7 145.35 161.5 145.7 160.75 144.8 160.5 144.55 160.35 143.6 160.15 141.9 162.85 141.55" fill="#ff9548" fill-rule="evenodd" stroke="none"/>
    <path d="M327.25 -88.95 Q331.05 -82.55 333.85 -75.65 339.6 -61.5 343.25 -46.75 338.85 -45.2 334.15 -46.4 326.05 -48.5 320.05 -42.4 319.15 -41.45 318.2 -40.95 313.7 -41.15 312.3 -46.05 311.3 -49.65 312.05 -53.4 313.55 -61.25 308.95 -67.8 307.9 -69.35 307.5 -71.3 305.95 -78.45 312.05 -83.05 314.5 -85.0 317.35 -86.0 L319.3 -86.6 Q323.8 -86.25 327.25 -88.95 M314.65 -82.6 Q310.2 -80.6 309.1 -75.6 308.3 -71.95 310.75 -69.45 L311.5 -69.65 311.7 -70.05 Q309.95 -77.0 314.65 -82.3 L314.65 -82.6 M315.35 -55.1 Q311.45 -49.95 315.45 -44.8 316.3 -43.75 317.7 -43.85 L318.0 -44.9 Q314.95 -49.1 315.5 -54.3 L315.35 -55.1 M332.35 -63.6 L331.1 -64.5 Q324.5 -61.35 325.8 -54.4 326.1 -52.7 327.2 -51.3 322.8 -49.45 320.45 -45.05 330.1 -51.45 341.0 -47.9 342.05 -54.55 337.2 -59.55 L338.25 -54.2 337.55 -53.65 Q335.55 -56.1 332.45 -57.15 333.2 -59.25 331.85 -60.9 L332.35 -62.85 332.35 -63.6 M322.1 150.3 L324.5 150.6 Q337.6 151.5 350.7 150.7 354.05 156.45 358.8 161.35 361.25 163.9 360.3 166.85 359.75 168.6 358.15 169.3 L356.75 169.9 Q351.0 170.55 345.55 172.6 343.5 173.3 341.8 174.75 L338.7 177.9 Q335.45 181.85 330.15 181.85 322.85 181.5 321.45 174.4 321.05 172.25 321.3 169.9 L321.45 166.85 Q321.4 161.5 319.2 156.5 318.3 154.55 319.45 152.55 320.4 151.0 322.1 150.3 M416.85 50.3 L419.5 53.2 417.4 54.95 Q413.7 56.55 409.5 56.7 406.4 57.25 403.85 58.75 398.95 61.4 394.85 65.5 392.0 68.35 387.95 67.05 386.4 66.65 385.55 65.6 379.8 58.85 376.95 50.55 379.75 53.85 381.05 58.05 381.85 60.8 384.2 62.1 389.55 65.0 393.55 60.45 L396.85 56.7 Q398.15 55.05 400.3 54.4 407.35 52.55 414.35 51.55 L416.85 50.3 M370.7 21.55 Q367.45 23.65 364.9 20.75 363.5 19.25 364.15 17.2 364.9 14.95 366.65 13.4 366.6 15.6 366.85 17.8 L367.35 18.25 Q370.35 18.9 370.7 21.55 M375.7 44.35 L376.05 46.55 375.1 47.7 Q369.0 45.1 362.05 46.3 361.05 46.4 360.15 45.95 357.65 44.9 357.1 42.0 355.6 33.75 361.7 28.15 358.3 33.55 358.2 39.7 358.2 40.95 359.55 41.45 365.75 44.05 372.6 43.9 L375.7 44.35 M325.05 166.85 Q325.05 162.25 323.25 158.2 321.9 155.15 322.6 151.55 L321.85 151.7 Q318.75 154.05 320.75 157.1 322.35 159.55 323.3 162.45 324.0 164.55 323.75 166.85 L323.35 168.75 Q322.5 171.85 323.0 175.2 323.5 178.9 327.35 179.4 L330.95 179.05 331.65 178.65 332.3 178.4 Q328.4 178.4 326.55 174.7 325.05 171.6 325.0 168.1 L325.05 166.85 M145.25 139.65 Q151.15 140.05 154.3 144.6 155.65 146.5 157.65 147.35 163.0 149.5 168.45 146.95 178.5 142.35 189.0 146.1 195.15 148.4 200.95 145.45 200.5 147.75 198.65 149.25 197.75 149.95 196.6 150.25 190.75 150.55 185.15 148.95 180.6 147.85 176.15 148.95 168.15 151.0 159.85 151.8 154.95 151.85 152.1 147.65 149.2 143.35 144.55 141.15 L144.5 141.15 145.25 139.65 M209.65 85.15 L210.7 86.2 211.55 87.4 211.85 88.0 Q211.5 91.05 210.25 93.7 209.8 94.7 208.7 95.15 L209.45 94.85 199.0 103.5 199.0 103.9 198.85 104.55 198.75 104.4 198.3 102.8 Q197.6 98.65 201.25 96.3 L206.85 92.55 Q211.35 89.75 209.65 85.15 M218.55 115.75 Q220.25 118.25 219.6 121.35 218.5 126.3 213.35 127.6 207.5 128.95 201.9 130.8 L201.55 130.3 Q201.55 127.05 204.5 126.15 210.1 124.45 215.4 122.05 219.45 120.3 218.55 115.75" fill="#db2900" fill-rule="evenodd" stroke="none"/>
    <path d="M343.65 -45.45 L343.75 -45.0 340.1 -44.15 330.95 -44.9 Q328.8 -45.3 326.7 -44.35 322.95 -42.75 319.85 -40.25 318.2 -38.9 316.3 -39.45 311.7 -41.1 310.6 -45.95 309.85 -49.35 310.55 -52.85 311.55 -58.1 309.3 -62.95 L307.05 -67.35 Q302.5 -75.4 308.9 -82.0 312.25 -85.55 316.75 -87.65 L317.7 -88.1 322.0 -88.65 Q324.5 -88.85 326.2 -90.65 L327.25 -88.95 Q323.8 -86.25 319.3 -86.6 L317.35 -86.0 Q314.5 -85.0 312.05 -83.05 305.95 -78.45 307.5 -71.3 307.9 -69.35 308.95 -67.8 313.55 -61.25 312.05 -53.4 311.3 -49.65 312.3 -46.05 313.7 -41.15 318.2 -40.95 319.15 -41.45 320.05 -42.4 326.05 -48.5 334.15 -46.4 338.85 -45.2 343.25 -46.75 L343.65 -45.45 M319.75 149.95 Q321.3 149.75 322.1 150.3 320.4 151.0 319.45 152.55 318.3 154.55 319.2 156.5 321.4 161.5 321.45 166.85 L321.3 169.9 Q321.05 172.25 321.45 174.4 322.85 181.5 330.15 181.85 335.45 181.85 338.7 177.9 L341.8 174.75 Q343.5 173.3 345.55 172.6 351.0 170.55 356.75 169.9 L358.15 169.3 Q359.75 168.6 360.3 166.85 361.25 163.9 358.8 161.35 354.05 156.45 350.7 150.7 L352.55 150.45 Q355.15 155.35 359.0 159.15 361.1 161.25 362.25 163.85 362.95 165.45 362.6 166.85 362.2 168.25 360.8 169.4 356.95 172.4 351.9 172.35 347.15 172.35 343.65 175.6 341.2 177.9 339.05 180.25 338.05 181.35 336.7 182.1 331.9 184.6 326.55 183.35 323.4 182.45 321.65 179.55 318.75 174.65 319.75 168.8 L319.95 166.85 Q320.05 162.95 318.15 159.3 315.2 153.8 319.75 149.95 M419.5 53.2 L420.75 54.5 418.95 56.4 Q417.4 57.75 415.9 58.25 L407.45 58.6 404.4 59.15 402.9 60.35 396.4 67.2 Q392.55 71.15 387.35 68.9 385.45 68.15 384.1 66.55 379.0 60.7 375.75 53.65 374.75 51.55 373.25 49.85 370.8 47.15 367.15 47.9 364.0 48.6 360.8 47.8 356.9 46.75 355.5 42.7 354.65 40.15 355.3 37.55 357.5 29.0 364.2 22.75 L363.5 21.6 Q360.9 16.05 365.8 12.0 L368.85 9.9 370.85 11.7 Q367.05 13.0 367.85 16.8 L368.05 17.1 369.15 17.3 370.4 16.1 Q385.85 29.45 400.75 43.15 L405.1 47.3 Q403.25 46.6 401.1 46.7 L400.55 46.85 Q398.8 49.55 402.25 50.3 407.6 51.7 411.85 49.0 L414.35 51.55 Q407.35 52.55 400.3 54.4 398.15 55.05 396.85 56.7 L393.55 60.45 Q389.55 65.0 384.2 62.1 381.85 60.8 381.05 58.05 379.75 53.85 376.95 50.55 379.8 58.85 385.55 65.6 386.4 66.65 387.95 67.05 392.0 68.35 394.85 65.5 398.95 61.4 403.85 58.75 406.4 57.25 409.5 56.7 413.7 56.55 417.4 54.95 L419.5 53.2 M370.7 21.55 Q370.35 18.9 367.35 18.25 L366.85 17.8 Q366.6 15.6 366.65 13.4 364.9 14.95 364.15 17.2 363.5 19.25 364.9 20.75 367.45 23.65 370.7 21.55 M364.6 34.25 Q365.1 31.45 366.85 29.15 L369.5 25.4 Q367.5 25.4 365.25 26.9 359.05 30.9 359.9 38.2 360.1 40.15 361.9 41.1 364.85 42.4 367.05 40.6 367.05 38.15 365.15 36.2 364.4 35.4 364.6 34.25 M382.05 47.3 L381.6 47.05 Q378.85 48.35 379.45 51.45 380.2 55.3 382.4 58.2 384.9 61.35 388.6 60.05 390.15 59.45 391.25 58.35 391.8 57.8 391.45 57.05 390.05 57.95 388.0 57.95 383.9 57.95 384.25 53.7 384.45 51.3 384.2 48.95 383.9 47.1 382.05 47.3 M375.7 44.35 L372.6 43.9 Q365.75 44.05 359.55 41.45 358.2 40.95 358.2 39.7 358.3 33.55 361.7 28.15 355.6 33.75 357.1 42.0 357.65 44.9 360.15 45.95 361.05 46.4 362.05 46.3 369.0 45.1 375.1 47.7 L376.05 46.55 375.7 44.35 M189.9 82.05 L190.8 81.65 Q200.4 78.55 209.7 83.4 212.8 85.1 213.45 88.7 L213.45 89.25 Q212.45 96.35 205.9 100.25 202.95 102.0 201.15 104.45 201.95 106.45 204.2 107.55 L214.8 111.25 Q220.75 113.55 221.6 119.75 L221.65 120.1 Q220.75 122.7 219.5 125.2 218.1 128.05 214.8 128.95 L205.45 131.35 Q202.8 131.85 202.95 134.65 L203.0 135.95 Q203.3 140.6 202.6 145.3 201.55 151.1 195.8 151.8 L185.5 151.15 178.15 150.45 Q173.45 151.05 169.05 152.55 163.75 154.25 158.1 153.55 153.4 152.7 150.65 148.6 147.95 144.7 143.75 142.7 L144.5 141.2 144.55 141.15 Q149.2 143.35 152.1 147.65 154.95 151.85 159.85 151.8 168.15 151.0 176.15 148.95 180.6 147.85 185.15 148.95 190.75 150.55 196.6 150.25 197.75 149.95 198.65 149.25 200.5 147.75 200.95 145.45 195.15 148.4 189.0 146.1 178.5 142.35 168.45 146.95 163.0 149.5 157.65 147.35 155.65 146.5 154.3 144.6 151.15 140.05 145.25 139.65 155.75 121.6 168.6 105.25 178.55 92.65 189.9 82.05 M191.4 86.8 L203.9 88.0 204.85 87.7 206.25 88.15 Q207.0 88.05 207.4 87.5 207.75 87.05 207.7 86.5 207.25 83.55 198.55 83.45 189.7 83.55 187.45 87.05 L189.05 87.35 191.4 86.8 M209.65 85.15 Q211.35 89.75 206.85 92.55 L201.25 96.3 Q197.6 98.65 198.3 102.8 L198.75 104.4 198.85 104.55 199.0 103.9 199.0 103.5 209.45 94.85 208.7 95.15 Q209.8 94.7 210.25 93.7 211.5 91.05 211.85 88.0 L211.55 87.4 210.7 86.2 209.65 85.15 M207.0 119.45 L206.7 119.8 207.15 121.25 Q212.25 122.8 214.1 117.95 214.6 116.6 213.7 115.5 211.2 112.35 207.3 111.35 199.45 109.45 193.75 103.35 L193.15 103.75 Q194.5 108.3 198.7 111.1 203.1 114.2 208.15 116.2 L209.05 117.7 208.65 119.05 207.0 119.45 M218.55 115.75 Q219.45 120.3 215.4 122.05 210.1 124.45 204.5 126.15 201.55 127.05 201.55 130.3 L201.9 130.8 Q207.5 128.95 213.35 127.6 218.5 126.3 219.6 121.35 220.25 118.25 218.55 115.75 M162.85 141.55 Q160.15 141.9 160.35 143.6 160.5 144.55 160.75 144.8 161.5 145.7 163.7 145.35 165.35 145.1 165.75 144.35 165.95 143.95 165.75 143.05 165.45 141.15 162.85 141.55 M196.75 129.3 Q196.25 134.8 193.85 139.8 193.15 141.2 193.7 142.7 L194.15 143.4 Q198.95 143.1 199.6 137.95 200.2 133.3 197.65 129.3 197.1 128.45 196.75 129.3 M188.2 141.3 Q188.5 141.6 188.95 141.6 L189.7 141.3 190.0 140.55 189.7 139.8 188.95 139.5 Q188.5 139.5 188.2 139.8 187.9 140.1 187.9 140.55 187.9 141.0 188.2 141.3" fill="#ff4d00" fill-rule="evenodd" stroke="none"/>
    <path d="M267.35 -43.75 Q273.3 -50.6 270.5 -59.45 266.4 -72.3 253.75 -77.15 251.15 -78.15 248.45 -78.5 243.0 -79.25 238.65 -75.55 239.6 -81.8 246.0 -83.95 247.8 -84.6 249.85 -84.6 266.4 -82.5 279.35 -72.0 287.95 -65.0 289.1 -54.2 290.1 -44.75 283.65 -38.15 L281.25 -39.3 Q274.5 -42.0 267.35 -43.75 M253.2 26.05 L253.5 19.9 254.8 19.2 Q257.0 24.4 262.65 25.0 L264.3 24.45 Q277.3 16.65 292.15 15.2 292.15 31.2 288.95 47.0 286.0 61.55 289.7 76.0 L289.95 78.25 278.35 75.0 278.2 74.4 278.05 74.9 270.8 73.3 Q274.4 68.3 275.55 62.5 277.3 53.55 277.15 44.35 277.05 38.1 273.5 33.05 269.9 35.15 265.65 35.0 256.55 34.2 253.2 26.05" fill="#cdcdcd" fill-rule="evenodd" stroke="none"/>
    <path d="M265.6 6.75 Q264.6 1.95 261.9 -1.9 258.7 -6.45 253.95 -7.85 L255.0 -8.95 Q264.15 -19.65 278.0 -17.6 270.65 -12.1 271.45 -3.1 L271.65 -1.95 270.0 -0.4 Q266.9 2.5 265.6 6.75" fill="#330000" fill-rule="evenodd" stroke="none"/>
    <path d="M265.6 6.75 L265.1 10.9 264.35 11.4 Q261.3 3.7 253.4 0.85 L247.95 -0.95 253.95 -7.85 Q258.7 -6.45 261.9 -1.9 264.6 1.95 265.6 6.75" fill="#451212" fill-rule="evenodd" stroke="none"/>
    <path d="M278.0 -17.6 Q285.15 -16.05 289.95 -10.3 L291.25 -8.7 Q280.25 -9.1 271.65 -1.95 L271.45 -3.1 Q270.65 -12.1 278.0 -17.6" fill="#210000" fill-rule="evenodd" stroke="none"/>
    <path d="M305.35 -7.85 Q307.05 -1.5 304.4 4.65 303.55 6.5 302.2 8.05 297.65 13.45 290.45 14.0 282.2 14.05 274.8 17.55 269.45 20.1 264.1 22.9 260.55 24.65 258.25 21.75 256.5 19.55 255.8 16.95 243.05 24.2 228.25 24.05 216.05 23.9 207.1 15.85 210.7 15.25 214.2 13.9 216.45 13.15 218.4 11.8 231.3 2.5 241.15 -9.9 248.2 -18.85 258.7 -23.5 268.5 -27.85 278.75 -25.35 295.2 -21.5 305.35 -7.85 M269.4 -19.4 Q263.55 -18.3 258.9 -14.7 250.5 -7.2 243.2 1.4 241.7 3.15 239.85 4.5 236.15 7.45 231.7 8.85 235.1 8.35 238.1 7.0 243.3 4.7 246.65 0.5 252.9 1.35 257.65 5.35 261.15 8.25 263.0 12.35 L259.9 17.15 Q264.55 11.6 271.65 9.65 281.6 6.8 292.05 6.6 296.2 6.0 297.25 1.85 297.6 0.45 297.25 -1.0 295.25 -9.3 288.5 -14.6 280.0 -21.2 269.4 -19.4" fill="#f99108" fill-rule="evenodd" stroke="none"/>
    <path d="M204.0 12.55 Q203.35 10.95 202.85 8.95 201.75 4.65 201.75 1.0 201.75 -17.65 219.25 -28.75 234.3 -38.25 253.75 -38.25 271.7 -38.25 288.85 -27.5 299.85 -20.6 303.9 -13.5 304.85 -10.75 305.35 -7.85 295.2 -21.5 278.75 -25.35 268.5 -27.85 258.7 -23.5 248.2 -18.85 241.15 -9.9 231.3 2.5 218.4 11.8 216.45 13.15 214.2 13.9 210.7 15.25 207.1 15.85 L204.0 12.55" fill="#ffb409" fill-rule="evenodd" stroke="none"/>
    <path d="M332.35 -63.6 L332.35 -62.85 331.85 -60.9 Q333.2 -59.25 332.45 -57.15 335.55 -56.1 337.55 -53.65 L338.25 -54.2 337.2 -59.55 Q342.05 -54.55 341.0 -47.9 330.1 -51.45 320.45 -45.05 322.8 -49.45 327.2 -51.3 326.1 -52.7 325.8 -54.4 324.5 -61.35 331.1 -64.5 L332.35 -63.6" fill="#c91700" fill-rule="evenodd" stroke="none"/>
    <path d="M135.6 170.9 L132.0 168.95 132.0 168.6 Q136.1 157.75 141.2 147.45 L141.8 146.35 154.75 154.7 Q158.8 157.3 163.5 156.75 168.1 156.05 172.35 154.2 178.4 151.65 184.7 153.55 192.15 155.95 198.8 152.45 203.15 150.1 202.6 145.3 203.3 140.6 203.0 135.95 L202.95 134.65 203.0 135.3 Q204.75 134.85 205.6 132.95 213.85 132.6 219.5 127.05 222.6 124.05 221.7 120.1 L221.6 119.75 Q220.75 113.55 214.8 111.25 L204.2 107.55 204.35 106.3 Q209.5 101.05 213.6 95.2 215.7 92.3 213.65 89.2 L213.45 88.7 Q212.8 85.1 209.7 83.4 200.4 78.55 190.8 81.65 L191.2 80.5 Q198.75 74.2 200.3 64.5 201.95 54.4 203.75 44.4 205.15 36.65 208.25 29.5 L211.85 21.5 214.95 23.05 Q210.65 33.25 209.9 44.35 209.45 51.45 208.4 58.4 207.5 64.25 207.45 70.15 207.45 72.95 205.7 74.75 L204.45 75.15 205.1 75.2 204.25 75.5 204.95 75.6 204.5 76.5 214.9 76.2 216.6 76.7 219.3 76.5 232.1 78.05 Q237.2 78.5 241.8 79.65 L241.85 79.75 241.9 79.65 250.5 81.85 Q255.85 85.8 259.5 91.2 260.75 93.0 261.55 95.0 L262.3 97.2 Q265.35 108.45 261.55 118.45 259.9 122.85 256.9 127.0 252.45 121.4 245.9 123.8 243.7 124.65 242.15 126.45 239.1 129.95 238.65 134.6 216.45 143.95 197.15 158.65 L192.55 162.55 192.25 162.9 Q179.1 165.7 165.8 163.9 154.45 162.2 145.6 155.0 143.75 157.15 142.05 159.45 138.2 164.7 135.6 170.9 M332.1 -10.1 Q332.55 -10.05 332.3 -9.7 L317.25 15.45 Q314.0 20.95 312.1 27.05 306.0 46.85 302.45 67.3 301.25 74.0 299.5 80.35 L299.3 81.05 298.5 80.4 298.5 80.35 Q300.9 60.85 305.8 41.65 309.0 28.9 313.8 16.8 320.0 1.2 332.1 -10.1 M293.45 81.35 L292.3 81.55 283.7 80.35 280.5 79.85 229.25 71.85 211.0 71.0 210.7 70.05 210.95 69.6 Q213.4 68.15 216.1 67.15 L216.6 67.25 Q224.8 69.35 233.5 68.95 243.1 69.9 252.75 71.6 271.75 74.75 290.25 80.35 L293.45 81.35" fill="#fe3e3e" fill-rule="evenodd" stroke="none"/>
    <path d="M182.8 177.8 L178.95 177.4 Q156.95 175.95 135.6 170.9 138.2 164.7 142.05 159.45 143.75 157.15 145.6 155.0 154.45 162.2 165.8 163.9 179.1 165.7 192.25 162.9 L192.55 162.55 Q191.15 164.25 191.3 166.35 191.4 168.05 192.8 169.0 199.3 173.7 207.25 174.45 L207.35 174.9 Q195.85 177.8 184.05 177.8 L182.8 177.8 M132.0 168.95 L131.9 168.8 132.0 168.6 132.0 168.95 M298.5 80.4 L299.3 81.05 299.5 80.35 Q301.25 74.0 302.45 67.3 306.0 46.85 312.1 27.05 314.0 20.95 317.25 15.45 L332.3 -9.7 Q332.55 -10.05 332.1 -10.1 339.6 -16.4 349.45 -17.4 L352.05 -17.6 353.3 -14.95 Q338.05 -12.0 328.9 0.7 L324.55 6.75 Q321.0 11.5 318.65 16.95 314.1 27.55 310.7 38.45 310.05 40.6 309.7 42.95 L305.4 68.8 Q304.65 73.1 304.5 77.5 L304.3 80.35 Q303.35 88.75 298.85 95.75 281.75 85.85 263.05 80.35 L256.8 78.65 249.25 76.6 Q227.7 70.6 205.7 74.75 207.45 72.95 207.45 70.15 207.5 64.25 208.4 58.4 209.45 51.45 209.9 44.35 210.65 33.25 214.95 23.05 L216.6 23.75 Q210.1 43.5 213.85 63.75 214.25 65.95 216.1 67.15 213.4 68.15 210.95 69.6 L210.7 70.05 211.0 71.0 229.25 71.85 280.5 79.85 283.7 80.35 292.3 81.55 293.45 81.35 297.95 82.7 298.5 80.4 M386.35 145.35 L387.85 144.95 388.0 145.15 Q389.15 146.45 389.35 149.75 388.05 150.15 386.7 150.8 387.4 149.7 387.2 148.25 L386.35 145.35 M256.9 127.0 Q259.9 122.85 261.55 118.45 265.35 108.45 262.3 97.2 L261.55 95.0 Q260.75 93.0 259.5 91.2 255.85 85.8 250.5 81.85 L263.0 85.4 Q269.4 90.5 271.5 98.3 274.55 109.8 271.85 121.45 269.6 131.05 264.1 139.25 L256.9 127.0 M241.9 79.65 L241.85 79.75 241.8 79.65 241.9 79.65 M204.95 75.6 L204.25 75.5 205.1 75.2 207.05 75.35 204.95 75.6 M190.8 81.65 L189.9 82.05 189.35 82.25 191.2 80.5 190.8 81.65" fill="#db1b1b" fill-rule="evenodd" stroke="none"/>
    <path d="M355.65 199.0 L354.1 198.6 Q348.35 197.0 342.5 196.7 L334.6 196.15 299.65 192.2 298.35 191.85 Q290.1 189.6 286.8 189.35 L261.55 186.5 Q243.75 184.05 238.45 181.6 238.15 181.75 237.9 182.05 L235.85 183.4 215.15 181.15 214.95 180.6 Q214.95 180.15 218.0 178.15 L209.65 180.4 184.15 177.85 184.05 177.8 Q195.85 177.8 207.35 174.9 L207.25 174.45 Q233.05 177.75 259.0 176.0 L261.55 177.4 Q264.6 178.7 268.0 178.4 272.1 177.8 275.2 175.1 277.6 172.95 276.85 169.85 272.95 153.6 264.1 139.25 269.6 131.05 271.85 121.45 274.55 109.8 271.5 98.3 269.4 90.5 263.0 85.4 283.45 92.35 301.65 104.15 L303.6 105.35 311.1 109.8 305.6 105.35 Q291.15 94.3 273.8 87.75 267.7 85.5 261.55 83.55 248.2 79.4 234.45 76.75 L227.75 75.85 Q217.4 74.75 207.05 75.35 L205.1 75.2 204.45 75.15 205.7 74.75 Q227.7 70.6 249.25 76.6 L256.8 78.65 263.05 80.35 Q281.75 85.85 298.85 95.75 303.35 88.75 304.3 80.35 L304.5 77.5 Q304.65 73.1 305.4 68.8 L309.7 42.95 Q310.05 40.6 310.7 38.45 314.1 27.55 318.65 16.95 321.0 11.5 324.55 6.75 L328.9 0.7 Q338.05 -12.0 353.3 -14.95 L355.3 -8.8 354.4 -9.5 Q347.3 -6.35 341.95 -0.8 332.3 9.25 326.9 22.0 318.65 41.3 318.55 62.6 318.5 71.8 320.45 80.35 323.5 93.5 331.3 105.1 L331.5 105.35 Q335.1 110.6 340.95 113.2 326.2 119.1 310.45 119.8 L303.95 114.4 299.6 111.2 298.7 110.55 296.75 109.2 296.6 109.1 294.95 108.55 291.9 108.4 290.0 109.0 Q288.8 109.9 288.2 112.15 287.6 114.1 287.7 116.2 287.95 122.3 289.1 126.5 290.6 131.85 293.85 135.85 296.55 139.1 299.6 141.65 308.15 148.65 319.75 149.95 315.2 153.8 318.15 159.3 320.05 162.95 319.95 166.85 L319.75 168.8 Q318.75 174.65 321.65 179.55 323.4 182.45 326.55 183.35 331.9 184.6 336.7 182.1 338.05 181.35 339.05 180.25 341.2 177.9 343.65 175.6 347.15 172.35 351.9 172.35 356.95 172.4 360.8 169.4 362.2 168.25 362.6 166.85 362.95 165.45 362.25 163.85 361.1 161.25 359.0 159.15 355.15 155.35 352.55 150.45 L356.05 150.15 Q371.35 148.6 386.35 145.35 L387.2 148.25 Q387.4 149.7 386.7 150.8 381.9 153.6 378.5 158.25 375.45 162.45 373.1 166.85 365.5 180.95 365.2 197.35 363.1 198.25 359.75 198.75 L355.65 199.0 M216.1 67.15 Q214.25 65.95 213.85 63.75 210.1 43.5 216.6 23.75 L222.85 25.45 Q221.1 28.25 220.6 31.35 L219.45 37.0 216.6 66.25 216.6 67.25 216.1 67.15 M219.3 76.5 L216.6 76.7 214.9 76.2 219.3 76.5 M143.75 142.7 Q147.95 144.7 150.65 148.6 153.4 152.7 158.1 153.55 163.75 154.25 169.05 152.55 173.45 151.05 178.15 150.45 L185.5 151.15 195.8 151.8 Q201.55 151.1 202.6 145.3 203.15 150.1 198.8 152.45 192.15 155.95 184.7 153.55 178.4 151.65 172.35 154.2 168.1 156.05 163.5 156.75 158.8 157.3 154.75 154.7 L141.8 146.35 143.75 142.7 M202.95 134.65 Q202.8 131.85 205.45 131.35 L214.8 128.95 Q218.1 128.05 219.5 125.2 220.75 122.7 221.65 120.1 L221.7 120.1 Q222.6 124.05 219.5 127.05 213.85 132.6 205.6 132.95 204.75 134.85 203.0 135.3 L202.95 134.65 M204.2 107.55 Q201.95 106.45 201.15 104.45 202.95 102.0 205.9 100.25 212.45 96.35 213.45 89.25 L213.65 89.2 Q215.7 92.3 213.6 95.2 209.5 101.05 204.35 106.3 L204.2 107.55" fill="#a90000" fill-rule="evenodd" stroke="none"/>
    <path d="M372.45 8.25 Q388.05 22.25 403.25 36.85 410.15 43.4 416.85 50.3 L414.35 51.55 411.85 49.0 Q412.0 47.75 410.25 48.15 L405.1 47.3 400.75 43.15 Q385.85 29.45 370.4 16.1 L372.9 13.5 373.85 12.05 Q373.55 10.45 370.85 11.7 L368.85 9.9 372.45 8.25" fill="#ff5f12" fill-rule="evenodd" stroke="none"/>
    <path d="M416.45 86.0 L414.7 85.9 416.45 85.75 416.45 86.0 M433.45 87.6 L433.05 88.0 433.2 87.5 433.45 87.6" fill="#28c1f4" fill-rule="evenodd" stroke="none"/>
    <path d="M296.5 80.6 L296.6 80.35 296.55 80.6 296.5 80.6 M228.75 26.0 L228.65 26.4 228.65 26.0 228.75 26.0" fill="#00679a" fill-rule="evenodd" stroke="none"/>
    <path d="M222.0 168.95 L199.8 168.95 Q196.3 168.9 193.4 167.0 193.2 166.35 193.35 165.85 194.35 162.4 197.45 160.15 207.45 152.95 217.95 146.35 228.4 139.7 240.3 136.1 L240.5 135.6 242.05 140.45 242.25 140.9 Q242.5 142.05 243.05 143.05 241.9 143.2 242.65 144.45 244.85 148.0 246.25 151.85 L246.6 153.75 240.05 158.3 Q239.6 157.25 238.5 156.8 L236.15 156.4 Q231.9 156.3 229.2 159.45 228.05 160.75 229.2 161.8 230.6 163.1 232.9 163.2 L222.0 168.95 M238.5 145.1 Q238.25 143.0 236.4 142.4 232.75 141.2 229.3 142.95 225.3 145.8 229.15 148.5 232.15 150.65 235.8 149.55 238.95 148.55 238.5 145.1 M198.55 170.25 L198.55 170.2 198.75 170.25 198.75 170.35 198.55 170.25 M211.15 155.45 Q206.95 154.95 205.05 158.45 205.2 159.2 205.65 159.7 207.7 161.9 210.8 160.8 214.15 159.7 213.9 156.5 212.85 155.15 211.15 155.45 M249.7 151.3 L249.85 151.75 249.8 151.8 249.7 151.3" fill="#fdd7aa" fill-rule="evenodd" stroke="none"/>
    <path d="M228.75 147.1 L228.25 146.2 Q231.25 142.3 236.1 143.4 L237.65 146.0 Q233.85 150.2 228.75 147.1 M235.45 157.3 Q238.2 156.85 239.15 159.35 235.1 163.7 229.6 161.1 231.4 157.45 235.45 157.3 M206.3 158.7 Q208.7 155.55 212.6 156.85 L212.75 157.55 Q210.25 161.55 206.2 159.2 L206.3 158.7" fill="#bc250a" fill-rule="evenodd" stroke="none"/>
    <path d="M246.6 153.75 L246.25 151.85 Q244.85 148.0 242.65 144.45 241.9 143.2 243.05 143.05 L249.7 151.3 249.8 151.8 Q248.25 152.6 246.6 153.75 M242.25 140.9 L242.05 140.45 242.2 140.4 242.25 140.9 M198.75 170.25 L207.55 170.7 219.45 170.15 211.6 173.65 204.35 172.2 198.75 170.35 198.75 170.25" fill="#ebc598" fill-rule="evenodd" stroke="none"/>
    <path d="M242.05 140.45 L240.5 135.6 Q240.55 127.55 248.15 125.1 251.75 123.95 254.15 126.8 258.45 132.0 261.55 138.0 L262.9 140.7 261.55 142.35 Q258.3 146.1 254.0 149.0 253.4 149.35 252.85 149.8 250.35 145.4 246.6 141.65 244.9 139.9 245.75 137.35 246.7 134.6 246.2 132.5 L245.95 132.3 245.1 132.35 Q241.5 136.45 242.2 140.4 L242.05 140.45 M249.55 157.35 Q249.5 158.25 249.7 159.0 L249.35 158.6 249.55 157.35" fill="#c68600" fill-rule="evenodd" stroke="none"/>
    <path d="M222.0 168.95 L232.9 163.2 Q235.8 163.25 238.35 161.95 240.6 160.65 240.05 158.3 L246.6 153.75 Q248.25 152.6 249.8 151.8 L249.85 151.75 249.55 157.35 249.35 158.6 249.7 159.0 Q250.55 162.2 253.4 163.9 256.1 165.55 257.85 167.85 L257.7 174.15 257.8 174.75 254.7 174.8 Q233.2 175.35 211.6 173.65 L219.45 170.15 Q222.4 170.4 225.0 171.5 227.85 172.7 231.0 172.1 239.55 170.35 248.1 170.9 251.05 171.4 252.95 170.4 L252.45 169.9 244.45 169.4 239.65 169.75 Q230.55 172.5 222.0 168.95 M251.6 151.0 L251.6 150.95 251.85 150.8 251.6 151.0" fill="#d9b386" fill-rule="evenodd" stroke="none"/>
    <path d="M251.6 150.95 Q247.95 146.5 245.3 141.55 242.85 136.95 246.2 132.5 246.7 134.6 245.75 137.35 244.9 139.9 246.6 141.65 250.35 145.4 252.85 149.8 L251.85 150.8 251.6 150.95" fill="#b47400" fill-rule="evenodd" stroke="none"/>
    <path d="M262.9 140.7 L270.75 155.5 Q274.35 162.15 276.05 169.25 276.35 170.55 275.7 171.65 273.85 174.95 270.1 176.1 265.65 177.6 261.75 175.9 L261.55 175.8 Q258.75 174.4 259.9 171.45 260.45 170.1 261.55 169.45 262.1 169.15 262.75 169.0 266.6 167.95 270.1 168.0 L270.0 167.9 Q268.85 167.4 267.65 167.25 264.25 166.75 261.55 168.4 260.1 169.25 258.85 170.75 260.0 165.9 255.45 163.65 253.65 162.75 252.65 161.2 249.7 156.45 251.6 151.0 L251.85 150.8 252.85 149.8 Q253.4 149.35 254.0 149.0 258.3 146.1 261.55 142.35 L262.9 140.7" fill="#a26200" fill-rule="evenodd" stroke="none"/>
    <path d="M124.1 16.55 L123.8 17.95 Q120.7 20.2 118.5 17.1 L117.9 15.85 Q121.4 13.05 124.1 16.55" fill="#ed3a00" fill-rule="evenodd" stroke="none"/>
    <path d="M126.4 -133.2 L121.1 -130.9 Q129.9 -138.55 141.75 -139.75 154.45 -141.25 166.55 -136.65 171.7 -134.65 176.25 -131.55 178.05 -130.35 178.6 -128.75 168.6 -134.45 156.9 -137.15 140.95 -140.6 126.4 -133.2" fill="#000000" fill-rule="evenodd" stroke="none"/>
    <path d="M136.05 -147.8 Q142.55 -152.35 150.75 -152.95 160.6 -153.8 169.95 -150.3 176.85 -147.75 180.95 -141.7 L178.45 -143.45 Q167.0 -151.2 153.1 -151.4 144.45 -150.35 136.05 -147.8" fill="#000000" fill-rule="evenodd" stroke="none"/>
    <path d="M69.55 -42.7 L64.65 -11.85 Q63.0 -0.9 64.3 10.1 66.0 24.75 74.45 36.8 70.2 33.8 67.7 29.15 65.95 25.8 64.95 22.2 59.55 2.5 63.4 -17.65 65.8 -30.35 69.55 -42.7" fill="#000000" fill-rule="evenodd" stroke="none"/>
    <path d="M48.4 -7.3 Q43.3 14.7 53.05 34.9 56.55 42.1 62.65 47.3 L62.3 47.75 Q53.05 42.7 49.2 32.6 41.65 12.8 48.1 -7.4 48.5 -7.65 48.4 -7.3" fill="#000000" fill-rule="evenodd" stroke="none"/>
    <path d="M207.75 -102.15 Q207.6 -115.25 216.6 -125.05 222.6 -131.6 231.25 -133.65 228.85 -131.15 225.7 -129.7 222.0 -128.0 219.45 -125.25 210.2 -115.55 207.75 -102.15" fill="#000000" fill-rule="evenodd" stroke="none"/>
    <path d="M345.45 -66.75 Q343.0 -72.2 340.0 -77.0 353.55 -61.6 351.75 -40.8 L351.45 -38.45 Q350.75 -46.05 349.5 -53.55 348.35 -60.45 345.45 -66.75" fill="#000000" fill-rule="evenodd" stroke="none"/>
    <path d="M362.45 -15.7 Q362.25 -29.45 372.8 -37.9 375.05 -39.75 377.65 -38.35 L378.6 -37.3 Q379.9 -34.9 378.2 -32.75 371.1 -23.8 362.95 -15.5 L362.45 -15.7 M366.7 -27.5 Q371.75 -30.65 373.35 -36.3 L373.4 -36.6 Q371.2 -35.9 369.45 -33.2 367.6 -30.35 366.7 -27.5 M377.9 -36.0 Q378.1 -38.0 375.9 -37.95 372.15 -28.65 364.9 -21.65 363.5 -20.25 363.4 -18.35 370.0 -24.75 376.05 -31.8 377.65 -33.65 377.9 -36.0" fill="#ff4d00" fill-rule="evenodd" stroke="none"/>
    <path d="M366.7 -27.5 Q367.6 -30.35 369.45 -33.2 371.2 -35.9 373.4 -36.6 L373.35 -36.3 Q371.75 -30.65 366.7 -27.5" fill="#ff9548" fill-rule="evenodd" stroke="none"/>
    <path d="M377.9 -36.0 Q377.65 -33.65 376.05 -31.8 370.0 -24.75 363.4 -18.35 363.5 -20.25 364.9 -21.65 372.15 -28.65 375.9 -37.95 378.1 -38.0 377.9 -36.0" fill="#db2900" fill-rule="evenodd" stroke="none"/>
    <path d="M375.45 200.15 L375.35 201.2 372.25 200.05 375.45 200.15" fill="#0099cc" fill-rule="evenodd" stroke="none"/>
    <path d="M371.75 199.9 L369.4 199.0 370.4 197.25 Q370.6 198.8 371.65 199.8 L371.75 199.9" fill="#0099cc" fill-rule="evenodd" stroke="none"/>
  </g>
  <defs>
    <radialGradient cx="0" cy="0" gradientTransform="matrix(0.6301, -0.014, 0.0145, 0.6542, 114.35, -110.7)" gradientUnits="userSpaceOnUse" id="gradient0" r="819.2" spreadMethod="pad">
      <stop offset="0.0" stop-color="#fce3ad"/>
      <stop offset="1.0" stop-color="#981f01"/>
    </radialGradient>
  </defs>
</svg>
