<?xml version="1.0" encoding="UTF-8" standalone="no"?>
<svg xmlns:xlink="http://www.w3.org/1999/xlink" height="39.7px" width="56.55px" xmlns="http://www.w3.org/2000/svg">
  <g transform="matrix(1.0, 0.0, 0.0, 1.0, 29.15, 19.25)">
    <path d="M12.5 -5.15 Q7.45 -4.45 1.1 -4.85 L-2.55 -5.1 Q-6.65 -5.45 -8.1 -6.25 -9.85 -7.3 -14.8 -6.7 -21.65 -5.75 -21.9 2.2 L-21.8 2.45 Q-20.7 9.95 -13.2 11.55 L-10.65 11.6 -5.4 11.05 -1.0 10.8 8.65 10.15 12.25 9.75 18.15 9.4 Q19.25 9.15 19.45 7.9 L19.8 3.05 20.0 1.95 Q20.25 0.45 20.0 -0.95 19.2 -4.8 14.6 -5.55 L12.5 -5.15 M20.0 -15.95 Q25.4 -14.2 27.25 4.7 29.0 23.55 12.4 19.85 -4.4 16.1 -14.6 18.65 -24.75 21.3 -27.95 9.15 -31.25 -2.95 -25.5 -12.95 -19.65 -23.0 -9.7 -17.05 0.8 -11.05 7.75 -14.3 14.6 -17.8 20.0 -15.95" fill="#ffb0d8" fill-rule="evenodd" stroke="none"/>
    <path d="M12.5 -5.15 L14.6 -5.55 Q19.2 -4.8 20.0 -0.95 20.25 0.45 20.0 1.95 L19.8 3.05 19.45 7.9 Q19.25 9.15 18.15 9.4 L12.25 9.75 8.65 10.15 -1.0 10.8 -5.4 11.05 -10.65 11.6 -13.2 11.55 Q-20.7 9.95 -21.8 2.45 L-21.9 2.2 Q-21.65 -5.75 -14.8 -6.7 -9.85 -7.3 -8.1 -6.25 -6.65 -5.45 -2.55 -5.1 L1.1 -4.85 Q7.45 -4.45 12.5 -5.15" fill="#ffe9f4" fill-rule="evenodd" stroke="none"/>
  </g>
</svg>
