<?xml version="1.0" encoding="UTF-8" standalone="no"?>
<svg xmlns:xlink="http://www.w3.org/1999/xlink" height="10.25px" width="6.95px" xmlns="http://www.w3.org/2000/svg">
  <g transform="matrix(1.0, 0.0, 0.0, 1.0, -0.4, 0.0)">
    <path d="M7.3 2.6 Q7.5 4.65 6.7 7.0 L5.05 10.05 4.85 10.25 2.65 7.95 0.4 5.8 0.7 4.85 Q1.55 2.45 3.0 1.15 4.55 -0.35 5.8 0.1 7.05 0.55 7.3 2.6" fill="#000000" fill-rule="evenodd" stroke="none"/>
    <path d="M5.8 4.5 Q5.35 5.0 4.75 4.95 4.15 4.9 3.7 4.3 3.35 3.8 3.4 3.1 3.45 2.4 3.9 1.8 4.45 1.35 5.05 1.4 5.65 1.45 6.0 2.0 6.4 2.65 6.35 3.35 L5.8 4.5" fill="#ffffff" fill-rule="evenodd" stroke="none"/>
  </g>
</svg>
