<?xml version="1.0" encoding="UTF-8" standalone="no"?>
<svg xmlns:xlink="http://www.w3.org/1999/xlink" height="325.85px" width="367.9px" xmlns="http://www.w3.org/2000/svg">
  <g transform="matrix(1.0, 0.0, 0.0, 1.0, 0.0, 0.0)">
    <path d="M145.0 31.0 Q142.2 28.4 138.45 28.75 135.25 29.2 133.95 32.35 L133.7 33.05 Q140.1 28.1 146.4 32.6 L145.0 31.0 M169.55 1.75 Q190.1 -3.15 209.25 5.5 227.0 13.65 237.95 30.0 L240.25 33.45 Q238.55 35.25 236.05 35.45 L231.75 36.0 Q231.25 36.2 230.8 36.45 226.3 38.55 222.95 42.1 216.55 48.7 221.1 56.75 L223.35 61.15 Q225.6 66.0 224.6 71.25 223.9 74.75 224.65 78.15 225.75 83.0 230.35 84.65 232.25 85.2 233.9 83.85 237.0 81.35 240.75 79.75 242.85 78.8 245.0 79.2 L254.15 79.95 257.8 79.1 257.7 78.65 265.65 105.0 262.55 105.1 Q248.35 107.25 239.2 118.4 231.0 128.4 226.2 140.65 214.1 171.55 210.65 204.45 L210.55 204.7 206.8 203.1 Q202.6 191.5 203.3 179.25 203.55 175.1 204.5 171.1 208.35 155.3 207.55 139.05 L211.15 138.05 Q216.6 136.4 219.2 131.25 223.95 121.8 220.3 111.6 214.5 95.5 199.55 86.95 201.45 85.05 202.65 82.55 207.7 71.95 202.75 61.25 200.65 56.8 197.2 53.4 186.5 43.1 172.2 39.1 167.85 37.85 163.4 37.95 156.0 38.15 152.3 44.7 L151.3 43.6 Q148.2 41.25 144.5 43.15 137.65 46.65 135.15 53.7 130.0 68.7 135.6 83.45 L135.2 83.65 Q133.45 84.95 132.0 84.7 121.0 65.6 126.7 44.3 132.35 23.1 150.35 10.4 159.05 4.15 169.55 1.75 M167.65 23.55 L161.7 23.25 Q154.1 23.85 152.85 30.9 L152.8 30.95 152.75 31.05 152.85 31.0 152.85 30.9 Q158.15 22.95 167.65 25.5 L170.9 26.05 Q170.35 24.15 167.65 23.55 M52.5 45.9 Q55.0 49.0 52.5 51.55 51.15 52.95 49.4 53.85 42.25 57.4 34.05 57.55 L25.85 58.0 21.7 58.35 29.65 59.0 Q23.25 73.95 14.05 87.6 12.4 90.05 11.55 93.1 10.05 98.35 12.15 103.3 13.0 105.35 14.35 107.15 20.9 116.2 31.55 119.55 30.05 128.45 29.9 137.45 29.85 141.9 33.2 143.75 34.2 144.3 35.5 144.45 41.2 143.85 43.3 138.5 46.3 130.9 49.6 123.4 L58.95 147.35 58.4 145.05 57.85 142.9 55.45 134.2 Q73.6 137.95 92.25 137.45 103.25 136.95 113.95 134.3 L117.1 138.55 122.35 143.35 124.35 144.7 Q117.6 158.5 114.7 173.6 112.75 183.55 110.95 193.65 110.0 199.05 105.25 202.4 L101.75 202.25 Q80.6 200.8 60.8 192.9 40.45 184.95 22.1 172.8 L11.45 164.95 Q7.5 160.55 5.55 155.05 1.2 142.75 0.45 129.6 -0.7 108.5 1.15 87.45 2.8 68.4 11.55 51.25 13.05 48.3 14.95 45.6 21.0 36.85 31.6 36.2 40.75 35.55 48.15 41.4 L50.45 43.35 Q51.8 44.45 52.5 45.9 M271.1 118.65 L286.5 132.35 282.9 134.0 279.85 136.1 Q274.95 140.15 277.55 145.7 L278.25 146.85 Q271.55 153.1 269.35 161.65 268.7 164.25 269.55 166.8 270.95 170.85 274.85 171.9 278.05 172.7 281.2 172.0 284.85 171.25 287.3 173.95 288.8 175.65 289.8 177.75 293.05 184.8 298.15 190.65 299.5 192.25 301.4 193.0 306.6 195.25 310.45 191.3 L316.95 184.45 Q317.6 183.75 318.45 183.25 319.85 182.7 321.5 182.7 L329.95 182.35 Q331.45 181.85 333.0 180.5 L334.8 178.6 Q346.2 190.65 355.4 204.45 L359.55 211.0 Q364.75 219.5 367.65 229.1 L367.7 229.45 Q369.0 237.65 361.95 242.85 355.25 247.85 347.8 251.5 329.95 260.2 310.8 265.05 289.95 270.2 268.65 272.4 253.45 273.95 238.2 273.0 228.05 272.3 219.05 267.7 216.1 266.15 213.65 263.75 L212.8 262.9 Q202.45 252.1 203.75 237.4 204.0 235.65 204.4 235.3 205.25 234.55 206.1 234.35 L207.0 234.35 Q209.45 234.6 211.45 236.05 L216.05 239.5 Q222.15 243.55 228.0 247.95 L227.65 247.2 226.4 245.8 Q239.7 244.95 252.3 240.25 266.1 235.6 279.2 229.45 285.75 226.35 292.1 222.9 L294.9 221.3 Q311.7 212.55 330.5 210.1 L330.5 209.85 333.1 209.65 326.65 209.25 Q312.6 210.85 299.7 216.95 288.55 222.35 277.3 227.4 263.6 215.55 246.75 209.2 L246.45 209.1 245.95 209.35 246.45 209.45 Q261.6 218.15 275.8 228.35 L257.9 236.2 Q251.75 234.05 247.7 229.45 L245.05 225.75 Q241.75 220.1 239.6 214.15 237.85 209.35 236.7 204.45 232.95 188.5 235.65 171.95 239.15 150.5 250.75 132.15 252.35 129.65 254.45 127.6 260.9 121.25 268.1 116.05 L271.35 119.1 271.1 118.65 M165.7 144.95 Q165.9 147.45 165.35 150.1 160.25 173.65 143.55 190.9 L132.25 190.65 Q132.35 169.8 137.95 149.75 L142.7 150.1 142.7 150.5 142.8 150.1 151.4 149.4 Q158.9 148.0 165.7 144.95 M281.15 320.85 Q281.2 307.45 286.65 295.3 287.65 293.05 288.9 290.95 294.35 281.5 303.55 275.35 304.15 283.2 303.6 290.95 L303.35 293.5 Q301.7 309.65 297.85 325.3 L297.25 325.45 Q293.25 326.35 289.4 325.3 L289.5 324.25 286.3 324.15 285.8 324.0 285.7 323.9 Q284.65 322.9 284.45 321.35 L283.45 323.1 282.7 322.7 Q281.55 322.0 281.15 320.85 M347.25 211.6 L347.1 212.1 347.5 211.7 347.25 211.6" fill="#ffffff" fill-rule="evenodd" stroke="none"/>
  </g>
</svg>
