<?xml version="1.0" encoding="UTF-8" standalone="no"?>
<svg xmlns:xlink="http://www.w3.org/1999/xlink" height="325.85px" width="367.9px" xmlns="http://www.w3.org/2000/svg">
  <g transform="matrix(1.0, 0.0, 0.0, 1.0, -85.95, 124.1)">
    <path d="M134.1 -82.7 Q134.25 -79.65 130.9 -79.1 L124.5 -78.1 118.2 -77.6 Q111.6 -77.6 105.85 -80.2 101.25 -76.55 99.1 -71.1 91.75 -52.45 90.3 -32.4 89.15 -16.65 89.15 -0.75 89.2 20.95 97.4 40.85 93.45 36.45 91.5 30.95 87.15 18.65 86.4 5.5 85.25 -15.6 87.1 -36.65 88.75 -55.7 97.5 -72.85 99.0 -75.8 100.9 -78.5 106.95 -87.25 117.55 -87.9 126.7 -88.55 134.1 -82.7 M295.2 -118.6 Q312.95 -110.45 323.9 -94.1 312.65 -107.4 297.15 -115.25 286.8 -120.45 275.2 -120.9 253.1 -122.0 236.0 -107.95 229.35 -102.45 224.4 -95.35 221.2 -94.9 219.9 -91.75 L219.65 -91.05 Q226.05 -96.0 232.35 -91.5 L227.7 -92.05 Q224.25 -92.3 221.35 -90.35 211.75 -71.95 214.9 -51.45 215.85 -45.25 217.95 -39.4 206.95 -58.5 212.65 -79.8 218.3 -101.0 236.3 -113.7 245.0 -119.95 255.5 -122.35 276.05 -127.25 295.2 -118.6 M238.8 -93.2 Q244.1 -101.15 253.6 -98.6 L256.85 -98.05 260.0 -95.5 Q249.15 -97.9 238.8 -93.1 L238.7 -93.05 238.8 -93.2 M357.3 -5.0 L357.05 -5.45 372.45 8.25 368.85 9.9 365.8 12.0 351.1 -1.7 355.25 -7.05 357.3 -5.0 M422.0 64.6 L415.9 58.25 Q417.4 57.75 418.95 56.4 L420.75 54.5 Q432.15 66.55 441.35 80.35 L445.5 86.9 Q450.7 95.4 453.6 105.0 451.5 101.25 447.85 98.45 441.8 89.15 435.05 80.35 428.8 72.25 422.0 64.6 M425.1 85.85 Q429.6 86.25 433.45 87.6 L433.05 88.0 425.75 87.8 Q420.75 87.7 415.75 89.45 L407.7 92.35 Q401.0 94.8 394.6 98.05 387.1 101.85 379.5 105.35 367.3 111.0 354.85 115.95 335.1 123.6 313.6 123.1 L312.35 121.7 Q325.65 120.85 338.25 116.15 352.05 111.5 365.15 105.35 371.7 102.25 378.05 98.8 L380.85 97.2 Q397.65 88.45 416.45 86.0 L414.7 85.9 419.05 85.55 425.1 85.85 M228.75 26.0 L237.35 25.3 Q231.55 36.75 228.65 49.25 227.8 53.05 224.7 54.65 L223.55 53.15 223.8 49.85 Q225.05 38.0 228.65 26.4 L228.75 26.0 M178.2 13.35 Q189.2 12.85 199.9 10.2 L203.05 14.45 Q190.8 18.1 178.05 19.6 L171.35 20.0 143.8 18.8 141.4 10.1 Q159.55 13.85 178.2 13.35" fill="#ffffff" fill-opacity="0.3019608" fill-rule="evenodd" stroke="none"/>
    <path d="M228.75 26.0 L228.65 26.4 Q225.05 38.0 223.8 49.85 L223.55 53.15 223.05 66.7 218.2 66.55 Q218.3 45.7 223.9 25.65 L228.75 26.0 M389.55 166.85 L389.3 169.4 Q387.65 185.55 383.8 201.2 L383.2 201.35 Q379.2 202.25 375.35 201.2 L375.45 200.15 372.25 200.05 371.75 199.9 371.65 199.8 Q370.6 198.8 370.4 197.25 L369.4 199.0 368.65 198.6 Q367.5 197.9 367.1 196.75 367.15 183.35 372.6 171.2 373.6 168.95 374.85 166.85 380.3 157.4 389.5 151.25 390.1 159.1 389.55 166.85 M410.3 96.7 Q418.4 93.1 427.15 92.1 438.7 91.5 447.85 98.45 451.5 101.25 453.6 105.0 L453.65 105.35 Q454.95 113.55 447.9 118.75 441.2 123.75 433.75 127.4 415.9 136.1 396.75 140.95 375.9 146.1 354.6 148.3 339.4 149.85 324.15 148.9 314.0 148.2 305.0 143.6 302.05 142.05 299.6 139.65 L298.75 138.8 Q288.4 128.0 289.7 113.3 292.15 119.1 297.8 122.25 L299.6 123.3 303.2 125.4 Q309.25 128.95 316.25 127.8 L330.5 125.75 Q341.9 124.1 352.95 121.2 361.9 118.8 370.25 114.9 380.5 110.05 390.85 105.35 L410.3 96.7 M355.25 -7.05 L351.1 -1.7 Q344.4 7.55 339.55 18.0 334.3 29.45 334.6 41.9 334.8 48.7 338.9 54.2 348.0 66.3 360.0 75.7 363.4 78.35 367.2 80.35 371.2 82.5 375.65 83.95 378.2 84.9 380.8 85.25 391.65 86.0 402.1 83.25 407.25 82.0 412.2 83.25 L412.75 84.0 412.6 85.15 Q398.55 86.75 385.65 92.85 374.5 98.25 363.25 103.3 349.55 91.45 332.7 85.1 L332.4 85.0 331.9 85.25 332.4 85.35 Q347.55 94.05 361.75 104.25 L343.85 112.1 Q337.7 109.95 333.65 105.35 L331.0 101.65 Q327.7 96.0 325.55 90.05 323.8 85.25 322.65 80.35 318.9 64.4 321.6 47.85 325.1 26.4 336.7 8.05 338.3 5.55 340.4 3.5 346.85 -2.85 354.05 -8.05 L355.25 -7.05 M249.55 -109.0 Q262.15 -117.25 277.25 -116.95 288.2 -115.9 297.5 -110.0 306.9 -104.05 312.2 -94.2 314.05 -90.75 316.75 -87.65 312.25 -85.55 308.9 -82.0 302.5 -75.4 307.05 -67.35 L309.3 -62.95 Q311.55 -58.1 310.55 -52.85 309.85 -49.35 310.6 -45.95 311.7 -41.1 316.3 -39.45 318.2 -38.9 319.85 -40.25 322.95 -42.75 326.7 -44.35 328.8 -45.3 330.95 -44.9 L340.1 -44.15 Q345.45 -32.3 348.4 -19.5 L348.5 -19.0 Q334.3 -16.85 325.15 -5.7 316.95 4.3 312.15 16.55 300.05 47.45 296.6 80.35 L296.55 80.6 292.75 79.0 Q288.55 67.4 289.25 55.15 289.5 51.0 290.45 47.0 294.3 31.2 293.5 14.95 L297.1 13.95 Q302.55 12.3 305.15 7.15 309.9 -2.3 306.25 -12.5 300.45 -28.6 285.5 -37.15 287.4 -39.05 288.6 -41.55 293.65 -52.15 288.7 -62.85 286.6 -67.3 283.15 -70.7 272.45 -81.0 258.15 -85.0 253.8 -86.25 249.35 -86.15 241.95 -85.95 238.25 -79.4 L237.25 -80.5 Q234.15 -82.85 230.45 -80.95 223.6 -77.45 221.1 -70.4 221.45 -79.1 228.35 -84.15 230.85 -85.95 233.9 -85.25 236.2 -84.9 237.2 -83.35 235.45 -90.0 238.5 -96.35 242.25 -104.25 249.55 -109.0 M253.6 -100.55 L247.65 -100.85 Q240.05 -100.25 238.8 -93.2 L238.7 -93.05 238.8 -93.1 Q249.15 -97.9 260.0 -95.5 L256.85 -98.05 Q256.3 -99.95 253.6 -100.55 M127.9 -74.45 Q133.7 -75.1 138.45 -78.2 140.95 -75.1 138.45 -72.55 137.1 -71.15 135.35 -70.25 128.2 -66.7 120.0 -66.55 L111.8 -66.1 107.65 -65.75 115.6 -65.1 Q109.2 -50.15 100.0 -36.5 98.35 -34.05 97.5 -31.0 96.0 -25.75 98.1 -20.8 98.95 -18.75 100.3 -16.95 106.85 -7.9 117.5 -4.55 116.0 4.35 115.85 13.35 115.8 17.8 119.15 19.65 120.15 20.2 121.45 20.35 127.15 19.75 129.25 14.4 132.25 6.8 135.55 -0.7 L144.9 23.25 144.35 20.95 Q146.2 23.6 149.05 24.95 160.5 29.95 173.25 28.9 L184.6 27.05 Q196.85 24.05 208.3 19.25 L210.3 20.6 Q203.55 34.4 200.65 49.5 198.7 59.45 196.9 69.55 195.95 74.95 191.2 78.3 L187.7 78.15 Q166.55 76.7 146.75 68.8 126.4 60.85 108.05 48.7 102.7 40.95 100.15 31.7 L99.45 29.05 99.85 28.9 Q90.55 -4.15 95.9 -38.05 98.75 -55.9 108.0 -71.7 109.3 -73.9 111.65 -74.5 119.8 -74.3 127.9 -74.45" fill="#000000" fill-opacity="0.3019608" fill-rule="evenodd" stroke="none"/>
  </g>
</svg>
