<?xml version="1.0" encoding="UTF-8" standalone="no"?>
<svg xmlns:xlink="http://www.w3.org/1999/xlink" height="38.6px" width="64.3px" xmlns="http://www.w3.org/2000/svg">
  <g transform="matrix(1.0, 0.0, 0.0, 1.0, 323.2, -12.25)">
    <path d="M-282.75 14.6 Q-279.75 15.9 -276.15 17.9 -273.05 19.65 -270.5 21.3 -267.8 20.5 -263.9 24.65 -261.6 27.1 -260.65 29.05 -259.35 28.8 -259.0 30.2 L-258.9 32.2 -259.8 33.15 Q-259.45 34.3 -259.45 35.4 L-260.0 35.9 -260.6 34.45 -260.75 34.8 -261.2 34.85 Q-261.3 34.75 -261.35 34.75 L-261.35 34.7 -261.5 34.8 Q-278.6 50.85 -298.4 50.85 -306.15 50.85 -309.7 49.0 -311.35 48.15 -314.2 45.45 L-313.7 45.85 Q-308.7 49.6 -298.45 49.6 -287.5 49.6 -279.5 45.85 -275.25 43.9 -271.2 40.9 -269.45 40.1 -264.95 36.6 L-267.05 37.35 -277.6 40.5 Q-282.35 42.3 -289.6 44.35 -298.4 46.85 -301.4 46.85 -308.05 46.85 -313.75 44.3 L-316.4 43.0 -315.3 44.4 -317.15 42.55 -317.6 42.2 Q-317.2 37.1 -315.45 32.3 -313.9 28.05 -311.35 24.5 -308.75 20.8 -304.9 18.35 -300.7 15.55 -295.9 14.65 L-286.75 14.1 -282.75 14.6 M-275.55 20.0 Q-278.15 17.95 -281.35 16.55 L-283.15 15.85 -275.55 20.0" fill="#232323" fill-rule="evenodd" stroke="none"/>
    <path d="M-317.6 42.2 L-317.65 47.1 -323.0 45.0 -323.2 42.65 Q-323.35 37.35 -321.7 32.25 -319.95 26.75 -316.3 22.2 -311.65 16.4 -304.8 14.1 -299.55 12.45 -293.85 12.3 L-284.35 12.8 Q-283.25 12.9 -282.3 13.45 L-282.75 14.6 -286.75 14.1 -295.9 14.65 Q-300.7 15.55 -304.9 18.35 -308.75 20.8 -311.35 24.5 -313.9 28.05 -315.45 32.3 -317.2 37.1 -317.6 42.2 M-321.45 44.3 L-319.1 45.3 -319.15 43.45 Q-319.15 32.85 -312.65 23.6 -311.05 21.35 -309.1 19.55 -307.35 17.9 -305.35 16.7 -303.35 15.45 -301.1 14.55 -304.3 15.25 -307.0 16.55 -309.3 17.65 -311.2 19.15 -314.1 21.65 -316.3 24.75 -319.25 28.9 -320.4 33.75 -321.7 38.95 -321.45 44.3" fill="#000000" fill-rule="evenodd" stroke="none"/>
    <path d="M-309.1 19.55 Q-311.05 21.35 -312.65 23.6 -319.15 32.85 -319.15 43.45 L-319.1 45.3 -321.45 44.3 Q-320.35 36.3 -318.2 30.6 -315.55 23.6 -311.2 19.15 L-309.1 19.55 M-307.0 16.55 Q-304.3 15.25 -301.1 14.55 -303.35 15.45 -305.35 16.7 L-307.0 16.55" fill="#bababa" fill-rule="evenodd" stroke="none"/>
    <path d="M-309.1 19.55 L-311.2 19.15 Q-315.55 23.6 -318.2 30.6 -320.35 36.3 -321.45 44.3 -321.7 38.95 -320.4 33.75 -319.25 28.9 -316.3 24.75 -314.1 21.65 -311.2 19.15 -309.3 17.65 -307.0 16.55 L-305.35 16.7 Q-307.35 17.9 -309.1 19.55" fill="#dedede" fill-rule="evenodd" stroke="none"/>
  </g>
</svg>
