<?xml version="1.0" encoding="UTF-8" standalone="no"?>
<svg xmlns:xlink="http://www.w3.org/1999/xlink" height="23.7px" width="34.1px" xmlns="http://www.w3.org/2000/svg">
  <g transform="matrix(1.0, 0.0, 0.0, 1.0, 0.0, 0.0)">
    <path d="M14.4 10.7 L13.1 9.9 12.2 11.25 31.3 22.15 32.4 21.65 23.05 15.95 14.4 10.7 M33.2 20.35 Q33.9 20.85 34.1 21.6 L34.05 21.75 Q33.7 22.9 32.5 23.25 L31.2 23.7 11.0 12.35 9.05 13.25 6.85 13.7 Q5.1 13.85 3.6 12.9 0.95 11.4 0.2 8.2 -0.45 5.5 1.15 3.1 2.6 1.0 4.95 0.3 7.45 -0.4 9.6 0.6 14.0 2.75 13.8 7.7 L13.9 8.6 Q21.35 12.9 28.8 17.45 L33.2 20.35 M6.85 12.2 Q9.65 12.25 11.35 9.8 12.6 8.1 12.15 5.8 11.75 3.75 10.0 2.45 8.85 1.65 7.45 1.55 5.05 1.55 3.35 2.7 1.65 3.8 1.65 5.4 0.85 8.45 3.05 10.65 4.6 12.2 6.85 12.2" fill="#000000" fill-rule="evenodd" stroke="none"/>
    <path d="M23.05 15.95 L32.4 21.65 31.3 22.15 12.2 11.25 13.1 9.9 14.4 10.7 14.15 11.45 Q18.15 14.15 23.05 15.95" fill="#848484" fill-rule="evenodd" stroke="none"/>
    <path d="M10.0 2.45 Q11.75 3.75 12.15 5.8 12.6 8.1 11.35 9.8 9.65 12.25 6.85 12.2 L7.55 11.25 Q10.5 7.35 10.0 2.45" fill="#b70000" fill-rule="evenodd" stroke="none"/>
    <path d="M23.05 15.95 Q18.15 14.15 14.15 11.45 L14.4 10.7 23.05 15.95" fill="#cccccc" fill-rule="evenodd" stroke="none"/>
    <path d="M1.65 5.4 Q1.65 3.8 3.35 2.7 5.05 1.55 7.45 1.55 7.45 3.15 5.75 4.3 4.05 5.4 1.65 5.4" fill="#ff6363" fill-rule="evenodd" stroke="none"/>
    <path d="M6.85 12.2 Q4.6 12.2 3.05 10.65 0.85 8.45 1.65 5.4 4.05 5.4 5.75 4.3 7.45 3.15 7.45 1.55 8.85 1.65 10.0 2.45 10.5 7.35 7.55 11.25 L6.85 12.2" fill="#db1b1b" fill-rule="evenodd" stroke="none"/>
  </g>
</svg>
