<?xml version="1.0" encoding="UTF-8" standalone="no"?>
<svg xmlns:xlink="http://www.w3.org/1999/xlink" height="37.55px" width="59.45px" xmlns="http://www.w3.org/2000/svg">
  <g transform="matrix(1.0, 0.0, 0.0, 1.0, 315.3, -12.7)">
    <path d="M-277.95 23.85 L-277.55 23.15 -276.8 24.95 -275.75 24.7 Q-276.85 23.0 -276.45 21.05 L-278.25 21.05 -281.15 23.7 -282.6 23.4 -282.7 25.5 -282.65 27.2 -278.05 27.15 -279.55 26.0 -280.05 25.0 -277.6 26.2 -276.95 25.45 Q-277.75 25.05 -277.95 23.85 M-277.95 28.55 L-278.1 27.75 -283.35 27.35 -283.35 26.75 Q-283.8 24.8 -282.95 22.95 L-280.8 22.85 Q-280.05 21.05 -278.2 20.55 -276.6 20.1 -275.85 21.15 L-275.5 24.0 -275.2 24.45 Q-271.45 24.6 -269.75 27.8 L-269.25 28.05 -264.4 27.7 -264.35 28.35 Q-264.5 30.45 -266.4 31.25 L-266.55 31.7 -265.8 34.15 -269.55 36.4 -270.1 36.4 -271.65 32.9 -274.1 32.1 -276.3 30.65 -277.95 28.55 M-273.35 18.85 L-278.3 18.25 Q-281.1 18.25 -284.4 19.0 -297.25 21.9 -302.55 32.85 -305.65 39.3 -305.75 47.1 L-305.7 47.8 -289.95 43.45 -275.8 39.5 -259.65 34.85 -261.25 30.35 Q-263.05 25.45 -267.05 22.05 -269.7 19.9 -272.95 18.95 L-273.35 18.85 M-268.65 16.7 L-267.35 17.35 Q-264.25 18.95 -262.1 21.55 -259.8 24.4 -258.3 27.65 -257.05 30.35 -256.3 33.25 L-255.85 35.15 -309.0 50.25 -314.95 48.0 Q-315.7 43.75 -314.85 39.7 L-313.65 35.25 Q-312.6 32.05 -311.1 29.15 -309.55 26.15 -307.65 23.4 L-304.9 20.2 Q-301.05 16.35 -295.95 14.5 -291.35 12.85 -286.6 12.7 L-278.65 14.15 -268.65 16.7 M-266.85 32.6 L-267.4 31.3 -265.1 29.35 -264.95 28.2 -269.3 29.15 -266.65 29.95 -269.65 29.75 -270.1 30.9 -269.75 31.65 -268.7 33.5 Q-269.05 33.95 -269.4 33.3 L-270.4 31.4 -270.95 31.85 Q-271.5 32.8 -269.9 35.7 L-269.0 34.8 -266.75 34.25 Q-266.05 33.9 -266.55 33.05 L-266.85 32.6 M-277.2 27.85 Q-276.95 29.65 -275.45 30.8 -273.75 32.0 -271.75 31.6 L-270.2 29.75 -270.15 28.45 Q-270.55 26.7 -272.05 25.95 -273.5 25.1 -275.2 25.4 -276.35 25.5 -276.85 26.45 L-277.2 27.85 M-258.75 34.5 L-258.65 34.7 -257.5 34.35 Q-260.2 26.55 -262.45 23.6 -268.1 16.1 -278.75 16.05 L-284.75 16.6 -291.3 18.45 -291.8 18.65 -292.05 18.75 Q-293.75 19.45 -295.2 20.35 -301.4 24.05 -304.85 30.95 -308.5 38.3 -308.5 47.5 L-308.5 48.55 -306.7 48.05 -306.75 47.1 Q-306.75 39.2 -303.45 32.4 -299.55 24.4 -291.9 20.55 -288.6 18.9 -284.65 18.0 -281.2 17.25 -278.3 17.25 -268.25 17.25 -262.65 25.55 -259.8 29.75 -258.75 34.5 M-296.95 16.45 Q-299.75 17.8 -302.4 19.9 -306.15 22.8 -308.65 26.8 -311.25 30.95 -312.55 35.45 -314.15 41.1 -313.7 46.95 L-312.7 47.35 -309.95 48.4 -310.0 47.5 Q-310.0 37.95 -306.2 30.3 -303.05 24.0 -297.75 20.2 -294.8 18.05 -291.15 16.75 L-282.4 14.75 -286.6 14.15 Q-292.1 14.2 -296.95 16.45 M-295.75 27.3 L-295.75 27.95 Q-293.25 29.4 -291.45 31.45 L-289.1 33.95 Q-287.8 35.25 -286.2 34.55 L-285.75 33.05 -286.2 32.2 Q-288.0 32.3 -288.3 33.9 L-288.5 33.9 -288.65 33.85 -288.8 33.75 -288.45 32.45 -286.55 31.6 Q-288.75 29.05 -291.55 26.75 -292.9 25.6 -294.6 25.5 L-295.55 26.05 -295.75 27.3 M-293.5 34.95 Q-294.35 35.6 -295.45 35.45 -295.95 35.35 -296.2 34.9 -296.4 34.35 -295.95 34.0 L-294.9 33.55 -294.1 33.65 -293.95 33.65 -293.25 34.2 Q-293.1 34.6 -293.5 34.95 M-301.8 38.85 L-302.0 39.35 Q-298.95 39.3 -295.4 37.8 -293.6 37.0 -289.35 34.5 L-289.7 34.1 Q-292.0 31.15 -295.0 29.0 L-295.9 28.45 -298.05 31.3 -298.05 31.35 -301.8 38.85 M-297.5 37.0 L-298.4 37.45 -299.8 36.5 -298.6 35.2 -297.25 35.85 -297.5 37.0 M-285.5 34.0 Q-285.75 35.3 -287.05 35.7 L-288.9 35.25 Q-291.35 36.05 -293.55 37.45 -297.75 40.0 -302.65 39.95 -302.5 38.45 -301.85 37.1 -299.55 32.2 -296.45 28.05 L-296.35 27.85 Q-296.5 26.95 -296.05 26.05 -295.35 24.55 -293.8 24.95 -292.0 25.45 -290.5 26.85 L-287.3 29.85 Q-285.85 31.1 -285.45 32.95 L-285.5 34.0 M-297.6 31.5 L-295.9 30.15 -294.45 30.85 Q-294.45 32.35 -296.05 32.55 -297.35 32.85 -297.6 31.5 M-295.9 30.75 Q-296.55 31.0 -296.9 31.4 -297.15 31.7 -296.8 31.9 L-296.15 31.95 Q-295.35 31.75 -295.05 31.2 -294.9 30.9 -295.3 30.8 L-295.9 30.75 M-298.5 35.7 L-298.55 35.7 Q-299.05 35.9 -299.2 36.45 -298.4 37.3 -297.9 36.6 -297.3 35.95 -298.5 35.7 M-293.8 34.35 L-293.85 34.3 -294.05 34.25 -294.75 34.2 -295.45 34.4 -295.6 34.75 -295.15 34.9 -293.95 34.65 Q-293.7 34.5 -293.8 34.35" fill="#000000" fill-rule="evenodd" stroke="none"/>
    <path d="M-275.5 24.0 L-275.85 21.15 Q-276.6 20.1 -278.2 20.55 -280.05 21.05 -280.8 22.85 L-282.95 22.95 Q-283.8 24.8 -283.35 26.75 L-283.35 27.35 -278.1 27.75 -277.95 28.55 Q-280.15 32.15 -282.95 35.75 -286.1 39.85 -289.95 43.45 L-305.7 47.8 -305.75 47.1 Q-305.65 39.3 -302.55 32.85 -297.25 21.9 -284.4 19.0 -281.1 18.25 -278.3 18.25 L-273.35 18.85 -275.5 24.0 M-285.5 34.0 L-285.45 32.95 Q-285.85 31.1 -287.3 29.85 L-290.5 26.85 Q-292.0 25.45 -293.8 24.95 -295.35 24.55 -296.05 26.05 -296.5 26.95 -296.35 27.85 L-296.45 28.05 Q-299.55 32.2 -301.85 37.1 -302.5 38.45 -302.65 39.95 -297.75 40.0 -293.55 37.45 -291.35 36.05 -288.9 35.25 L-287.05 35.7 Q-285.75 35.3 -285.5 34.0" fill="#ffffff" fill-rule="evenodd" stroke="none"/>
    <path d="M-288.45 32.45 L-291.35 29.7 Q-293.7 27.4 -295.75 27.3 L-295.55 26.05 -294.6 25.5 Q-292.9 25.6 -291.55 26.75 -288.75 29.05 -286.55 31.6 L-288.45 32.45 M-298.05 31.35 L-298.05 31.3 -297.6 31.5 -298.05 31.35" fill="#b58517" fill-rule="evenodd" stroke="none"/>
    <path d="M-293.5 34.95 Q-293.1 34.6 -293.25 34.2 L-293.95 33.65 -294.1 33.65 -294.9 33.55 -295.95 34.0 Q-296.4 34.35 -296.2 34.9 -295.95 35.35 -295.45 35.45 -294.35 35.6 -293.5 34.95 M-289.7 34.1 L-297.5 37.0 -297.25 35.85 -298.6 35.2 -299.8 36.5 -298.4 37.45 -301.8 38.85 -298.05 31.35 -297.6 31.5 -298.05 31.3 -295.9 28.45 -295.0 29.0 Q-292.0 31.15 -289.7 34.1 M-297.6 31.5 Q-297.35 32.85 -296.05 32.55 -294.45 32.35 -294.45 30.85 L-295.9 30.15 -297.6 31.5" fill="#fdd7aa" fill-rule="evenodd" stroke="none"/>
    <path d="M-282.7 25.5 L-282.6 23.4 -281.15 23.7 -278.25 21.05 -276.45 21.05 Q-276.85 23.0 -275.75 24.7 L-276.8 24.95 -277.55 23.15 -277.95 23.85 -278.4 24.6 -277.6 26.2 -280.05 25.0 -279.55 26.0 Q-280.75 25.45 -281.9 25.35 L-282.7 25.5 M-269.75 31.65 L-270.1 30.9 -269.65 29.75 -266.65 29.95 -269.3 29.15 -264.95 28.2 -265.1 29.35 -267.4 31.3 -266.85 32.6 -269.75 31.65 M-266.75 34.25 L-269.0 34.8 -269.95 34.05 Q-270.85 33.15 -270.95 31.85 L-270.4 31.4 -269.4 33.3 Q-269.05 33.95 -268.7 33.5 L-266.75 34.25 M-270.15 28.45 Q-270.7 29.9 -272.25 29.85 -275.3 30.15 -277.2 27.85 L-276.85 26.45 Q-276.65 27.25 -273.95 27.75 -273.05 27.75 -272.45 27.35 -271.85 26.95 -271.85 26.35 L-272.05 25.95 Q-270.55 26.7 -270.15 28.45" fill="#e400c4" fill-rule="evenodd" stroke="none"/>
    <path d="M-295.9 30.75 L-295.3 30.8 Q-294.9 30.9 -295.05 31.2 -295.35 31.75 -296.15 31.95 L-296.8 31.9 Q-297.15 31.7 -296.9 31.4 -296.55 31.0 -295.9 30.75 M-298.5 35.7 Q-297.3 35.95 -297.9 36.6 -298.4 37.3 -299.2 36.45 -299.05 35.9 -298.55 35.7 L-298.5 35.7 M-293.8 34.35 Q-293.7 34.5 -293.95 34.65 L-295.15 34.9 -295.6 34.75 -295.45 34.4 -294.75 34.2 -294.05 34.25 -293.85 34.3 -293.8 34.35" fill="#bc250a" fill-rule="evenodd" stroke="none"/>
    <path d="M-277.95 28.55 L-276.3 30.65 -274.1 32.1 -271.65 32.9 -275.8 39.5 -289.95 43.45 Q-286.1 39.85 -282.95 35.75 -280.15 32.15 -277.95 28.55 M-269.25 28.05 L-269.75 27.8 Q-271.45 24.6 -275.2 24.45 L-275.5 24.0 -273.35 18.85 -272.95 18.95 Q-269.7 19.9 -267.05 22.05 L-269.25 28.05" fill="#ededed" fill-rule="evenodd" stroke="none"/>
    <path d="M-271.65 32.9 L-270.1 36.4 -269.55 36.4 -265.8 34.15 -266.55 31.7 -266.4 31.25 Q-264.5 30.45 -264.35 28.35 L-264.4 27.7 -269.25 28.05 -267.05 22.05 Q-263.05 25.45 -261.25 30.35 L-259.65 34.85 -275.8 39.5 -271.65 32.9" fill="#dbdbdb" fill-rule="evenodd" stroke="none"/>
    <path d="M-312.7 47.35 Q-311.5 29.6 -302.35 20.8 L-301.4 19.95 -297.75 20.2 Q-303.05 24.0 -306.2 30.3 -310.0 37.95 -310.0 47.5 L-309.95 48.4 -312.7 47.35 M-291.15 16.75 L-296.95 16.45 Q-292.1 14.2 -286.6 14.15 L-282.4 14.75 -291.15 16.75" fill="#bababa" fill-rule="evenodd" stroke="none"/>
    <path d="M-258.75 34.5 Q-259.8 29.75 -262.65 25.55 -268.25 17.25 -278.3 17.25 -281.2 17.25 -284.65 18.0 -288.6 18.9 -291.9 20.55 -299.55 24.4 -303.45 32.4 -306.75 39.2 -306.75 47.1 L-306.7 48.05 -308.5 48.55 -308.5 47.5 Q-308.5 38.3 -304.85 30.95 -301.4 24.05 -295.2 20.35 -293.75 19.45 -292.05 18.75 L-291.8 18.65 -291.3 18.45 -284.75 16.6 -278.75 16.05 Q-268.1 16.1 -262.45 23.6 -260.2 26.55 -257.5 34.35 L-258.65 34.7 -258.75 34.5" fill="#848484" fill-rule="evenodd" stroke="none"/>
    <path d="M-312.7 47.35 L-313.7 46.95 Q-314.15 41.1 -312.55 35.45 -311.25 30.95 -308.65 26.8 -306.15 22.8 -302.4 19.9 -299.75 17.8 -296.95 16.45 L-291.15 16.75 Q-294.8 18.05 -297.75 20.2 L-301.4 19.95 -302.35 20.8 Q-311.5 29.6 -312.7 47.35" fill="#dedede" fill-rule="evenodd" stroke="none"/>
    <path d="M-282.7 25.5 L-281.9 25.35 Q-280.75 25.45 -279.55 26.0 L-278.05 27.15 -282.65 27.2 -282.7 25.5 M-277.6 26.2 L-278.4 24.6 -277.95 23.85 Q-277.75 25.05 -276.95 25.45 L-277.6 26.2 M-269.75 31.65 L-266.85 32.6 -266.55 33.05 Q-266.05 33.9 -266.75 34.25 L-268.7 33.5 -269.75 31.65 M-269.0 34.8 L-269.9 35.7 Q-271.5 32.8 -270.95 31.85 -270.85 33.15 -269.95 34.05 L-269.0 34.8 M-277.2 27.85 Q-275.3 30.15 -272.25 29.85 -270.7 29.9 -270.15 28.45 L-270.2 29.75 -271.75 31.6 Q-273.75 32.0 -275.45 30.8 -276.95 29.65 -277.2 27.85" fill="#c000a0" fill-rule="evenodd" stroke="none"/>
    <path d="M-272.05 25.95 L-271.85 26.35 Q-271.85 26.95 -272.45 27.35 -273.05 27.75 -273.95 27.75 -276.65 27.25 -276.85 26.45 -276.35 25.5 -275.2 25.4 -273.5 25.1 -272.05 25.95" fill="#ff6cff" fill-rule="evenodd" stroke="none"/>
    <path d="M-288.45 32.45 L-288.8 33.75 -288.65 33.85 -288.5 33.9 -288.3 33.9 Q-288.0 32.3 -286.2 32.2 L-285.75 33.05 -286.2 34.55 Q-287.8 35.25 -289.1 33.95 L-291.45 31.45 Q-293.25 29.4 -295.75 27.95 L-295.75 27.3 Q-293.7 27.4 -291.35 29.7 L-288.45 32.45" fill="#916100" fill-rule="evenodd" stroke="none"/>
    <path d="M-289.7 34.1 L-289.35 34.5 Q-293.6 37.0 -295.4 37.8 -298.95 39.3 -302.0 39.35 L-301.8 38.85 -298.4 37.45 -297.5 37.0 -289.7 34.1" fill="#d9b386" fill-rule="evenodd" stroke="none"/>
    <path d="M-276.6 37.4 L-275.0 38.8 Q-273.3 42.0 -275.35 45.05 -276.0 46.0 -276.8 46.5 -277.95 47.25 -279.65 47.25 -282.55 46.9 -284.3 44.45 -285.0 43.55 -285.05 42.4 L-285.1 40.7 -288.4 39.15 -289.25 41.8 -292.9 36.05 -286.65 34.2 -286.0 34.75 -287.35 36.75 -284.05 38.35 Q-281.8 36.0 -278.7 36.55 -277.55 36.7 -276.6 37.4 M-275.55 40.15 L-275.85 39.3 Q-276.9 37.5 -278.95 37.25 -281.85 37.15 -283.7 39.5 L-288.6 37.0 -287.65 35.45 -291.75 36.2 -289.55 39.9 -289.0 38.0 -284.05 40.3 Q-284.75 43.65 -281.75 45.5 -280.9 45.95 -279.9 46.25 -276.8 46.25 -275.6 43.55 -274.85 41.8 -275.55 40.15" fill="#000000" fill-rule="evenodd" stroke="none"/>
    <path d="M-275.55 40.15 Q-274.85 41.8 -275.6 43.55 -276.8 46.25 -279.9 46.25 -280.9 45.95 -281.75 45.5 -284.75 43.65 -284.05 40.3 L-289.0 38.0 -289.55 39.9 -291.75 36.2 -287.65 35.45 -288.6 37.0 -283.7 39.5 Q-281.85 37.15 -278.95 37.25 -276.9 37.5 -275.85 39.3 L-275.55 40.15" fill="#db1b1b" fill-rule="evenodd" stroke="none"/>
  </g>
</svg>
