<?xml version="1.0" encoding="UTF-8" standalone="no"?>
<svg xmlns:xlink="http://www.w3.org/1999/xlink" height="43.6px" width="55.0px" xmlns="http://www.w3.org/2000/svg">
  <g transform="matrix(1.0, 0.0, 0.0, 1.0, 29.15, 20.75)">
    <path d="M14.1 -6.55 L1.85 -8.0 -2.1 -8.35 -8.3 -9.3 Q-10.6 -9.95 -15.6 -8.65 -22.55 -6.75 -23.0 1.85 L-22.95 2.1 Q-22.25 10.45 -14.85 13.35 L-12.25 13.95 -6.6 14.25 -1.75 14.35 8.9 13.3 12.7 12.45 Q17.55 11.65 18.75 11.05 19.85 10.65 20.15 9.35 L20.8 4.05 21.1 2.75 Q21.4 1.1 21.15 -0.4 20.6 -4.8 16.2 -6.35 L14.1 -6.55 M21.05 -12.85 Q25.4 -9.6 25.85 8.0 26.1 25.75 9.95 22.25 -6.5 18.65 -16.2 19.4 -25.8 20.4 -28.35 7.95 -30.95 -4.4 -24.85 -14.25 -18.65 -24.25 -8.4 -18.85 2.95 -13.25 9.95 -14.6 16.7 -16.3 21.05 -12.85" fill="#ffb0d8" fill-rule="evenodd" stroke="none"/>
    <path d="M14.1 -6.55 L16.2 -6.35 Q20.6 -4.8 21.15 -0.4 21.4 1.1 21.1 2.75 L20.8 4.05 20.15 9.35 Q19.85 10.65 18.75 11.05 17.55 11.65 12.7 12.45 L8.9 13.3 -1.75 14.35 -6.6 14.25 -12.25 13.95 -14.85 13.35 Q-22.25 10.45 -22.95 2.1 L-23.0 1.85 Q-22.55 -6.75 -15.6 -8.65 -10.6 -9.95 -8.3 -9.3 L-2.1 -8.35 1.85 -8.0 14.1 -6.55" fill="#ffe2f1" fill-rule="evenodd" stroke="none"/>
  </g>
</svg>
