<?xml version="1.0" encoding="UTF-8" standalone="no"?>
<svg xmlns:xlink="http://www.w3.org/1999/xlink" height="258.25px" width="753.4px" xmlns="http://www.w3.org/2000/svg">
  <g transform="matrix(1.0, 0.0, 0.0, 1.0, 286.9, -25.3)">
    <path d="M447.75 205.55 L32.7 139.0 29.45 138.45 -105.55 116.8 -105.8 118.0 -106.55 122.05 -106.8 122.7 -141.6 147.3 -142.9 147.95 -143.8 146.75 -140.05 143.75 -113.4 124.8 -113.25 121.95 -134.85 118.2 -134.95 118.35 -135.55 119.1 Q-139.0 122.55 -143.9 123.2 L-145.55 123.45 Q-145.4 125.7 -145.85 127.8 L-146.65 131.45 Q-147.25 134.3 -149.85 135.0 -151.3 135.2 -152.45 134.1 -155.75 130.85 -156.45 125.9 L-156.8 123.9 Q-162.15 123.65 -165.95 119.9 L-168.0 117.95 -168.15 117.45 Q-171.65 115.75 -173.85 112.5 L-174.8 111.15 -229.65 101.5 -229.8 101.55 -234.35 103.5 Q-235.05 111.65 -240.9 117.3 L-246.75 122.85 -247.7 123.55 -248.15 123.75 Q-248.7 123.8 -249.0 123.45 -243.9 117.55 -238.95 111.1 -237.9 109.75 -237.25 108.15 -235.9 104.75 -236.45 101.15 L-237.05 99.5 Q-240.15 92.5 -247.5 89.4 L-268.6 79.75 -272.35 76.3 Q-274.2 73.55 -273.75 70.65 -272.15 60.6 -266.6 51.9 L-268.9 51.65 -269.4 52.35 -270.0 53.0 Q-277.1 62.25 -276.5 74.0 -276.4 75.75 -275.45 77.0 L-273.95 79.05 Q-265.4 85.45 -255.3 89.2 -247.85 92.0 -242.3 97.35 -240.2 99.35 -239.85 102.15 -239.15 107.2 -242.2 111.55 -244.35 114.7 -247.0 117.15 -249.8 119.8 -253.25 121.6 L-255.05 122.1 -255.55 121.55 -255.55 120.95 -250.35 117.1 Q-245.2 113.45 -242.2 107.95 L-241.8 106.7 -242.75 107.2 -243.1 107.3 -266.75 117.75 -271.25 119.55 -272.05 118.6 -271.45 117.65 -241.35 104.4 -242.5 99.85 -243.8 98.15 -280.8 113.95 -282.85 114.85 Q-284.5 115.9 -286.15 116.0 L-286.45 115.9 -286.9 114.7 -286.35 114.25 -245.7 96.55 Q-253.4 91.65 -261.8 88.45 L-262.75 88.05 Q-269.95 85.3 -275.5 80.0 -278.0 77.7 -278.3 74.2 -278.95 67.45 -276.75 61.05 -274.8 55.4 -270.8 50.95 -273.85 48.9 -274.45 45.4 L-284.9 43.25 Q-287.5 41.35 -285.65 38.6 -285.05 37.7 -284.15 37.15 L-283.9 36.95 -283.8 36.85 -273.2 38.9 -270.6 37.35 Q-266.15 34.5 -261.4 36.55 L-260.7 37.0 Q-258.4 39.05 -258.0 42.05 L-248.75 43.05 -249.3 37.65 Q-245.95 31.25 -239.35 28.15 L-237.9 27.7 Q-222.15 23.1 -206.3 27.25 -205.9 27.25 -205.7 27.75 -204.15 31.45 -203.85 35.4 -203.15 44.0 -203.15 52.4 L-206.75 53.95 -207.25 53.65 -207.8 53.7 Q-210.0 52.1 -212.8 52.5 L-221.45 53.55 -220.7 64.6 Q-227.75 67.1 -235.55 66.7 L-236.95 66.65 Q-243.15 66.2 -246.55 61.05 L-247.85 50.85 Q-253.7 50.7 -259.3 49.2 -261.05 51.75 -264.2 51.85 -269.8 59.8 -271.55 69.55 L-271.8 71.0 Q-272.15 74.2 -269.65 76.25 -264.7 80.3 -258.75 82.6 -253.15 84.65 -247.7 87.0 -242.5 89.4 -238.45 93.4 L-237.95 93.35 -175.1 103.45 Q-173.4 98.25 -172.1 92.85 L-171.45 90.2 Q-168.2 77.0 -173.75 64.9 -176.0 59.95 -179.1 55.6 -182.6 50.65 -184.9 45.15 -185.25 44.3 -185.0 43.4 L-184.05 40.95 Q-178.8 31.9 -168.45 29.25 -158.5 26.7 -148.2 26.5 -138.25 26.0 -130.75 32.15 -127.7 34.7 -128.4 38.55 -129.7 45.85 -131.7 53.1 L-131.95 52.85 -131.7 53.15 -131.75 53.35 -131.85 53.25 -133.6 53.15 -133.8 53.8 -133.7 53.35 Q-131.95 46.0 -130.55 38.45 -130.25 36.8 -131.05 35.3 -133.4 31.1 -138.15 29.95 L-142.95 28.8 Q-156.95 27.65 -170.3 32.2 -175.15 33.75 -178.85 37.55 -181.6 40.4 -183.45 43.75 -180.7 50.4 -176.4 56.2 -171.25 63.2 -169.1 71.75 -168.35 75.25 -168.45 79.05 L-168.55 80.35 Q-170.1 93.8 -173.3 107.1 -173.55 108.15 -173.2 109.3 L-172.3 111.5 Q-171.15 113.1 -169.15 114.5 L-167.7 115.45 Q-160.9 119.1 -153.0 118.95 -144.45 119.65 -136.75 115.9 -132.5 113.85 -132.2 109.1 -131.75 101.75 -135.75 95.55 L-138.8 95.75 -143.55 96.15 -143.75 95.95 -130.25 93.25 Q-131.65 94.5 -133.85 94.85 -129.15 102.2 -130.25 110.85 L-112.1 113.75 -105.65 68.25 -127.1 73.3 -126.8 80.8 Q-126.55 86.2 -128.7 91.0 L-129.95 92.95 Q-128.45 89.15 -127.5 85.25 -126.8 82.4 -126.9 79.4 -127.1 73.05 -127.55 66.75 L-103.85 61.35 Q-104.55 58.45 -103.05 56.3 -101.8 54.35 -99.4 54.45 L-98.75 54.65 Q-95.55 55.7 -95.2 59.1 L-105.2 114.85 461.4 205.7 462.05 206.2 Q462.4 206.95 461.9 207.4 L461.65 207.6 447.75 205.55 M222.25 229.55 L220.7 231.65 Q220.15 232.4 219.4 231.85 218.55 231.3 219.15 230.55 L253.75 182.05 Q254.1 181.6 254.7 181.7 L439.65 214.4 441.0 215.2 434.0 279.45 433.6 280.25 432.25 279.9 432.05 279.15 438.95 216.25 255.0 183.75 222.25 229.55 M244.8 180.8 L244.9 181.3 208.15 229.6 207.55 229.7 206.85 229.2 206.8 228.15 242.0 181.65 55.2 150.3 54.5 150.15 20.7 184.0 18.9 185.4 18.65 185.25 18.2 185.05 Q17.7 184.55 18.0 184.05 L53.5 148.4 54.3 148.15 243.95 180.0 244.8 180.8 M9.65 183.5 L8.65 183.7 8.1 183.15 8.3 182.05 43.85 148.4 -99.5 124.3 -101.5 125.4 -127.95 144.8 -134.9 149.9 Q-135.7 150.4 -136.3 149.7 -136.85 148.9 -136.1 148.25 L-100.65 122.4 Q-100.35 122.15 -99.85 122.2 L46.15 146.8 Q46.7 146.95 46.9 147.55 L46.95 148.05 46.65 148.5 9.65 183.5 M-133.35 35.35 L-132.7 35.3 -132.0 36.05 Q-133.35 40.15 -137.1 41.85 L-137.65 42.05 Q-149.2 47.35 -161.8 47.65 -172.8 48.7 -181.15 41.75 L-181.15 41.05 -180.65 40.45 -179.9 40.4 -179.3 40.9 -174.65 43.6 Q-167.75 45.3 -160.65 45.35 -148.5 45.4 -137.85 39.95 -134.9 38.4 -133.35 35.35 M-128.85 57.1 Q-129.2 55.9 -130.0 54.95 L-130.9 53.9 Q-129.05 55.3 -128.45 57.8 -127.45 62.2 -127.55 66.65 L-127.9 61.85 Q-128.1 59.4 -128.85 57.1 M-130.55 54.4 L-131.7 53.4 -131.15 53.7 -130.55 54.4 M-127.25 71.05 L-127.2 71.3 -126.3 71.15 Q-113.7 68.6 -101.25 64.9 L-101.25 63.95 -101.5 62.75 -104.15 63.4 -127.35 68.9 -127.25 70.35 -127.25 71.05 M-149.7 61.6 L-149.65 61.85 -149.75 61.6 -149.7 61.6 M-144.15 94.2 L-143.85 95.85 -144.1 95.65 -144.15 94.2 M-97.35 58.4 L-98.85 56.5 Q-100.95 55.95 -101.7 57.95 -102.35 59.65 -101.75 60.85 L-100.5 60.75 Q-99.8 61.6 -99.45 62.6 -98.25 65.8 -101.35 67.05 L-103.65 67.8 -111.45 123.55 -110.6 122.95 -110.45 122.85 -108.5 121.45 -97.35 58.4 M-112.6 117.75 L-112.3 115.65 -131.0 112.75 -131.9 114.25 -133.9 116.35 -112.95 120.05 -112.6 117.75 M-140.3 120.05 L-137.45 118.45 Q-146.85 121.85 -156.8 120.75 -160.35 120.35 -163.35 119.45 L-163.9 119.35 -163.4 119.6 -162.2 120.25 Q-151.3 124.25 -140.3 120.05 M-152.5 130.6 L-150.65 133.2 -150.0 133.2 Q-147.2 128.95 -147.5 123.7 L-148.6 123.85 -152.1 124.1 -154.75 124.1 -154.2 126.05 -152.5 130.6 M-224.0 46.75 L-224.05 46.25 Q-233.75 46.45 -241.85 41.65 L-242.9 40.7 Q-245.15 37.45 -242.35 34.5 -239.05 30.95 -234.1 29.95 -224.65 27.75 -214.9 28.55 -211.2 28.9 -209.95 29.6 -209.35 30.0 -208.95 30.75 L-208.85 31.05 Q-206.1 41.25 -206.6 51.9 L-205.55 51.5 -205.15 51.35 -205.2 50.1 -205.4 43.3 -206.65 30.65 -206.75 30.3 -207.3 28.6 -210.05 27.9 Q-222.7 26.2 -234.95 28.9 -243.0 30.8 -247.3 37.95 -246.1 49.55 -243.95 61.05 L-243.65 61.75 -240.4 63.8 -238.3 64.4 -234.05 64.7 -233.7 64.7 -232.2 64.65 -225.6 63.95 -222.8 63.45 -224.0 46.75 M-242.0 38.6 Q-240.75 41.1 -237.8 41.9 -230.2 44.1 -222.45 44.55 L-221.6 51.6 Q-215.15 49.7 -208.55 51.0 -208.45 46.4 -208.6 41.8 -208.75 36.05 -211.2 31.15 L-226.6 30.65 Q-231.5 31.15 -236.25 32.45 -241.1 34.0 -242.0 38.6 M-175.8 106.85 L-175.55 105.35 -236.7 95.6 -235.75 97.2 -234.5 101.4 -229.65 99.5 -175.65 108.95 -175.8 106.85 M-273.85 40.7 L-273.85 40.65 -273.9 40.7 -275.45 40.35 -283.15 38.75 -283.9 39.35 -284.45 40.2 -284.1 41.35 -274.5 43.25 -274.4 42.4 -273.85 40.7 M-263.6 37.8 Q-267.05 37.25 -269.65 39.2 -274.1 42.6 -271.55 47.55 -270.5 49.35 -268.05 49.8 -264.15 51.0 -261.15 48.3 L-261.6 47.9 Q-264.05 44.85 -260.6 43.0 L-259.95 42.6 Q-260.4 39.1 -263.6 37.8 M-260.3 45.0 Q-261.0 45.45 -260.8 46.0 L-260.65 46.2 Q-254.65 49.0 -248.05 48.75 L-248.15 47.85 -248.4 45.95 -248.55 45.05 Q-254.3 43.75 -260.0 44.8 L-260.3 45.0" fill="#000000" fill-rule="evenodd" stroke="none"/>
    <path d="M-137.1 41.85 Q-133.35 40.15 -132.0 36.05 L-132.7 35.3 -133.35 35.35 -134.15 34.25 -135.5 32.85 Q-137.5 31.25 -139.8 30.85 -136.25 33.75 -139.55 36.95 -142.05 39.35 -145.35 40.65 -159.55 45.9 -174.65 43.6 L-179.3 40.9 -177.1 39.4 Q-174.1 41.3 -170.45 41.9 -157.6 42.9 -146.0 37.3 -143.15 35.9 -141.7 33.2 -140.1 30.15 -142.95 28.8 L-138.15 29.95 Q-133.4 31.1 -131.05 35.3 -130.25 36.8 -130.55 38.45 -131.95 46.0 -133.7 53.35 L-133.8 53.8 -135.3 58.45 -136.05 58.6 -135.95 58.3 -135.95 58.2 Q-134.05 50.45 -133.4 42.45 -140.4 47.15 -148.8 48.75 -158.5 50.65 -168.1 50.15 L-167.9 50.8 -165.75 52.05 -167.0 52.0 -165.25 53.45 Q-159.35 58.65 -156.3 65.85 -159.2 69.55 -159.1 74.35 -159.05 76.85 -157.95 78.85 -155.95 82.35 -152.4 79.8 L-151.95 81.65 Q-150.3 87.25 -150.8 93.05 -153.3 96.85 -153.2 101.6 -154.0 101.5 -154.75 101.0 -155.55 100.45 -155.45 99.65 L-154.15 89.6 -154.6 89.65 -155.05 91.45 Q-155.45 93.1 -156.95 94.1 -156.9 91.1 -156.1 88.0 -155.25 84.65 -157.7 81.9 -156.4 86.45 -159.7 89.75 L-160.2 89.7 Q-162.45 89.0 -163.05 86.55 -162.2 81.6 -162.6 77.65 L-162.95 74.7 -162.4 74.6 -162.05 81.95 -160.75 82.1 Q-159.55 80.0 -159.9 77.3 L-160.5 69.85 Q-160.65 65.9 -162.5 63.6 L-162.3 72.75 -163.4 72.4 Q-164.3 68.85 -166.1 65.8 -172.0 55.95 -178.3 46.3 -170.9 49.55 -162.85 49.4 -151.9 49.2 -141.55 46.5 -139.3 46.0 -138.65 43.75 L-137.7 43.3 Q-136.45 42.55 -135.65 41.25 L-137.1 41.85 M-138.8 95.75 L-135.75 95.55 Q-131.75 101.75 -132.2 109.1 -132.5 113.85 -136.75 115.9 -134.7 114.25 -134.75 111.0 -134.9 102.8 -138.8 95.75 M-167.7 115.45 L-169.15 114.5 Q-171.15 113.1 -172.3 111.5 L-171.6 112.3 -165.95 96.75 -166.8 100.5 Q-168.45 107.5 -163.25 112.25 L-161.5 113.45 -166.25 114.5 Q-167.5 114.65 -167.7 115.45 M-155.75 67.4 L-153.1 76.75 Q-153.65 78.75 -155.75 78.95 L-156.1 78.9 Q-158.5 73.15 -155.75 67.4 M-156.8 120.75 Q-149.15 122.25 -141.6 120.45 L-140.3 120.05 Q-151.3 124.25 -162.2 120.25 L-163.4 119.6 -163.35 119.45 Q-160.35 120.35 -156.8 120.75 M-148.6 123.85 L-147.5 123.7 Q-147.2 128.95 -150.0 133.2 L-150.65 133.2 -152.5 130.6 Q-152.55 128.05 -154.15 126.0 L-154.2 126.05 -154.75 124.1 -152.1 124.1 Q-152.4 128.0 -150.95 131.35 L-149.7 131.2 -149.0 129.9 Q-147.5 126.95 -148.6 123.85" fill="#ed0000" fill-rule="evenodd" stroke="none"/>
    <path d="M-105.8 118.0 L-89.8 121.5 -73.8 124.35 -42.35 129.1 23.95 139.65 24.55 139.3 52.55 143.9 94.5 150.8 164.4 162.55 175.5 164.3 190.6 166.7 Q209.4 170.5 228.25 173.4 L263.05 178.7 273.75 180.35 296.4 184.05 352.3 192.65 382.2 197.15 395.9 199.3 Q419.6 202.45 443.0 207.2 445.7 207.7 448.25 206.7 L448.3 206.2 447.75 205.55 461.65 207.6 461.9 207.4 Q462.4 206.95 462.05 206.2 463.95 206.65 465.2 208.25 466.35 209.8 466.5 211.1 454.9 279.35 435.7 283.2 438.05 274.25 439.1 264.9 439.45 261.45 440.4 258.15 444.15 244.9 443.85 231.15 443.75 226.5 443.9 221.85 444.1 217.05 441.25 213.4 L439.65 214.4 254.7 181.7 Q254.1 181.6 253.75 182.05 L219.15 230.55 Q218.55 231.3 219.4 231.85 220.15 232.4 220.7 231.65 L222.25 229.55 Q223.05 232.25 226.2 232.45 L233.0 233.25 259.4 240.0 262.0 240.65 303.55 250.95 Q321.6 255.65 339.9 259.0 347.4 260.5 354.6 262.8 375.15 269.15 396.2 273.0 L431.45 279.35 431.95 283.55 Q412.2 283.85 337.8 266.3 256.15 246.05 244.45 244.0 236.5 242.65 222.85 238.75 L203.0 232.75 202.85 232.7 Q178.0 224.9 159.1 223.05 127.45 220.15 110.0 216.5 95.85 213.6 68.45 205.05 19.85 189.9 -12.0 181.7 -57.9 169.85 -106.7 161.9 -121.95 159.4 -155.55 151.7 -189.9 143.75 -207.35 140.75 -219.5 139.05 -246.05 132.3 -282.65 123.0 -283.25 117.15 -283.35 115.9 -282.85 114.85 L-280.8 113.95 -281.05 115.4 -280.05 115.7 -280.85 116.5 -280.05 116.6 -279.35 116.1 -277.0 116.2 Q-260.0 107.5 -242.5 99.85 L-241.35 104.4 -271.45 117.65 -272.05 118.6 -271.25 119.55 -266.75 117.75 -266.35 118.2 Q-262.75 120.15 -258.65 120.55 L-258.5 121.9 Q-257.15 122.8 -255.8 121.75 L-255.55 121.55 -255.05 122.1 Q-254.25 123.8 -252.3 123.05 L-251.7 122.65 -251.55 122.6 -251.4 122.6 -251.0 123.05 -251.45 123.5 -251.85 124.55 -249.8 124.15 -249.0 123.45 Q-248.7 123.8 -248.15 123.75 L-247.7 123.55 -246.75 122.85 -245.9 123.05 Q-245.45 124.0 -244.5 123.75 L-244.15 123.7 -243.75 123.8 Q-237.75 125.5 -233.05 125.0 -232.35 124.95 -232.05 124.3 -231.75 123.9 -231.8 123.35 L-231.6 123.4 Q-230.75 124.5 -229.25 124.85 L-228.55 125.0 -227.4 126.45 -226.5 124.2 -224.4 127.9 -223.25 127.05 -223.2 126.1 -221.65 125.35 Q-203.85 130.65 -185.5 134.1 -165.0 137.65 -145.0 142.55 L-140.05 143.75 -143.8 146.75 -142.9 147.95 -141.6 147.3 Q-138.35 146.85 -136.0 144.55 -134.9 144.65 -134.2 144.1 L-118.0 132.45 Q-112.65 128.8 -107.95 124.45 -106.75 123.4 -106.15 122.0 -105.95 121.45 -106.55 122.05 L-105.8 118.0 M32.7 139.0 L29.5 138.75 29.45 138.45 32.7 139.0 M206.85 229.2 L207.05 230.75 208.7 230.85 Q210.25 232.35 211.65 230.55 221.0 218.4 229.55 206.0 231.4 203.3 233.55 200.7 238.75 194.35 243.55 187.65 245.45 185.05 245.9 182.0 L245.65 181.55 245.75 180.75 244.8 180.8 243.95 180.0 54.3 148.15 53.5 148.4 18.0 184.05 Q17.7 184.55 18.2 185.05 L18.65 185.25 18.9 185.4 20.7 184.0 Q22.25 185.45 32.85 187.3 L33.9 187.5 36.95 187.95 39.55 188.4 42.1 188.85 56.9 191.5 59.95 192.1 Q79.95 195.95 99.9 198.4 L109.7 200.05 Q130.35 203.6 150.4 209.35 171.1 215.35 192.15 220.6 197.1 221.85 200.75 225.0 203.5 227.35 206.8 228.15 L206.85 229.2 M9.65 183.5 Q10.55 184.4 11.9 183.3 31.35 167.35 47.85 148.5 L47.75 147.7 46.95 148.05 46.9 147.55 Q46.7 146.95 46.15 146.8 L-99.85 122.2 Q-100.35 122.15 -100.65 122.4 L-136.1 148.25 Q-136.85 148.9 -136.3 149.7 -135.7 150.4 -134.9 149.9 L-127.95 144.8 Q-127.95 145.75 -127.25 146.45 -126.55 147.15 -125.55 147.15 L-123.2 148.1 -119.55 149.4 -117.8 150.0 Q-110.85 152.1 -104.45 155.75 -100.45 158.1 -96.0 159.1 -90.1 160.8 -81.7 162.25 L-63.85 165.65 Q-54.25 168.15 8.3 182.05 L8.1 183.15 8.65 183.7 9.65 183.5 M-127.25 71.05 L-126.3 71.15 -127.2 71.3 -127.25 71.05 M-101.25 63.95 Q-112.75 67.2 -124.3 69.25 -126.0 69.6 -127.25 70.35 L-127.35 68.9 Q-115.4 67.85 -104.2 63.6 L-104.15 63.4 -101.5 62.75 -101.25 63.95 M-98.85 56.5 L-97.35 58.4 -97.65 58.15 Q-100.3 58.0 -100.5 60.75 L-101.75 60.85 -98.85 56.5 M-110.45 122.85 L-110.6 122.95 Q-106.95 101.4 -103.85 79.5 -103.1 74.1 -103.2 68.75 -103.2 68.05 -103.65 67.8 L-101.35 67.05 -110.45 122.85 M-112.6 117.75 L-112.95 120.05 -133.9 116.35 -131.9 114.25 -112.6 117.75 M-175.8 106.85 L-175.65 108.95 -229.65 99.5 -234.5 101.4 -235.75 97.2 Q-228.6 98.95 -206.9 101.65 L-189.45 104.65 -175.8 106.85 M-243.1 107.3 L-242.75 107.2 -243.0 107.3 -243.1 107.3 M-229.8 101.55 L-229.65 101.5 -229.7 102.1 -229.8 101.55" fill="#898989" fill-rule="evenodd" stroke="none"/>
    <path d="M-249.8 124.15 L-251.85 124.55 -251.45 123.5 -250.5 123.45 -249.8 124.15 M-251.55 122.6 L-251.7 122.65 Q-253.25 122.75 -253.35 121.9 L-253.25 121.6 Q-249.8 119.8 -247.0 117.15 -244.35 114.7 -242.2 111.55 -239.15 107.2 -239.85 102.15 -240.2 99.35 -242.3 97.35 -247.85 92.0 -255.3 89.2 -265.4 85.45 -273.95 79.05 -277.65 72.25 -274.75 64.65 -273.85 62.2 -272.6 60.0 -270.7 56.75 -270.0 53.0 L-269.4 52.35 -268.3 52.95 Q-273.9 60.95 -274.45 70.7 -274.65 74.25 -272.35 76.3 L-268.6 79.75 -269.95 79.1 Q-260.0 86.8 -247.5 89.4 -240.15 92.5 -237.05 99.5 L-236.45 101.15 Q-237.7 98.1 -240.0 95.8 -242.5 93.15 -245.7 91.6 -242.45 94.1 -240.05 97.6 -237.6 101.1 -237.95 105.45 -238.2 108.1 -239.7 110.35 -244.15 117.0 -250.55 121.85 L-251.55 122.6 M-225.6 63.95 L-232.2 64.65 -232.75 49.3 -227.05 49.55 -225.6 63.95 M-233.7 64.7 L-234.05 64.7 -233.95 64.45 -233.7 64.7 M-240.4 63.8 L-243.65 61.75 -246.25 38.7 -245.7 38.0 Q-245.15 40.55 -243.15 42.35 L-241.35 43.6 Q-233.8 46.55 -225.45 46.8 L-226.2 47.55 Q-236.45 47.35 -245.3 42.85 -244.0 46.4 -239.6 47.45 L-239.6 47.9 -240.4 47.8 -240.4 63.8 M-210.05 27.9 L-207.3 28.6 Q-208.0 28.6 -208.45 29.25 -208.95 29.85 -208.95 30.75 -209.35 30.0 -209.95 29.6 -211.2 28.9 -214.9 28.55 L-210.75 28.7 Q-209.75 28.7 -210.05 27.9 M-206.75 30.3 L-206.65 30.65 Q-206.85 30.5 -207.0 30.45 L-206.75 30.3 M-205.2 50.1 L-205.15 51.35 -205.55 51.5 -205.2 50.1 M-273.85 40.7 L-274.4 42.4 Q-275.65 41.75 -279.55 40.8 -283.15 39.9 -284.45 40.2 L-283.9 39.35 Q-279.9 40.7 -275.6 40.65 L-275.45 40.35 -273.9 40.7 -273.85 40.7 M-271.55 47.55 Q-272.05 44.2 -270.1 41.45 -267.8 38.25 -263.6 37.8 -260.4 39.1 -259.95 42.6 L-260.6 43.0 Q-260.7 40.85 -262.5 39.85 -265.2 38.5 -267.55 40.6 -272.3 44.85 -268.05 49.8 -270.5 49.35 -271.55 47.55 M-260.65 46.2 L-260.8 46.0 Q-261.0 45.45 -260.3 45.0 L-248.4 45.95 -248.15 47.85 -248.25 47.3 Q-254.4 46.0 -260.55 46.05 L-260.65 46.2 M-249.85 89.9 L-241.75 96.45 Q-244.25 92.65 -249.0 90.35 -249.45 90.15 -249.85 89.9" fill="#3096ca" fill-rule="evenodd" stroke="none"/>
    <path d="M-244.15 123.7 L-244.5 123.75 Q-245.45 124.0 -245.9 123.05 -245.1 123.3 -244.15 123.7 M-251.0 123.05 L-251.4 122.6 -250.55 121.85 -250.25 122.3 -251.0 123.05 M-251.7 122.65 L-252.3 123.05 Q-254.25 123.8 -255.05 122.1 L-253.25 121.6 -253.35 121.9 Q-253.25 122.75 -251.7 122.65 M-255.55 121.55 L-255.8 121.75 Q-257.15 122.8 -258.5 121.9 L-258.65 120.55 -255.55 120.95 -255.55 121.55 M-242.75 107.2 L-241.8 106.7 -242.2 107.95 -242.1 107.5 -243.0 107.3 -242.75 107.2" fill="#656565" fill-rule="evenodd" stroke="none"/>
    <path d="M-140.05 143.75 L-145.0 142.55 Q-165.0 137.65 -185.5 134.1 -203.85 130.65 -221.65 125.35 L-223.2 126.1 -223.25 127.05 -224.4 127.9 -226.5 124.2 -229.7 102.1 -229.65 101.5 -174.8 111.15 -173.85 112.5 Q-171.65 115.75 -168.15 117.45 L-168.0 117.95 -165.95 119.9 Q-162.15 123.65 -156.8 123.9 L-156.45 125.9 Q-155.75 130.85 -152.45 134.1 -151.3 135.2 -149.85 135.0 -147.25 134.3 -146.65 131.45 L-145.85 127.8 Q-145.4 125.7 -145.55 123.45 L-143.9 123.2 Q-139.0 122.55 -135.55 119.1 L-134.95 118.35 -134.85 118.2 -113.25 121.95 -113.4 124.8 -140.05 143.75 M431.45 279.35 L396.2 273.0 Q375.15 269.15 354.6 262.8 347.4 260.5 339.9 259.0 321.6 255.65 303.55 250.95 L262.0 240.65 257.9 206.25 Q256.9 196.9 256.6 192.2 256.5 187.7 255.0 183.75 L438.95 216.25 432.05 279.15 431.45 279.35 M259.4 240.0 L233.0 233.25 234.55 230.65 235.05 231.8 Q237.75 232.5 238.65 229.25 L239.7 224.35 240.15 225.5 Q242.35 226.35 243.6 224.1 245.4 220.9 246.0 217.35 248.3 219.1 249.3 215.95 250.3 212.75 250.3 209.35 L250.3 205.65 Q254.1 202.8 254.85 198.0 256.3 219.05 259.4 240.0 M206.8 228.15 Q203.5 227.35 200.75 225.0 197.1 221.85 192.15 220.6 171.1 215.35 150.4 209.35 130.35 203.6 109.7 200.05 L99.9 198.4 Q79.95 195.95 59.95 192.1 58.55 172.75 55.75 153.55 L55.2 150.3 242.0 181.65 206.8 228.15 M56.9 191.5 L42.1 188.85 45.2 185.1 47.1 187.8 Q47.8 188.85 48.85 189.1 L51.6 188.0 52.3 189.8 53.55 189.8 53.85 188.9 Q54.05 187.7 53.7 186.65 L55.8 185.5 56.3 184.4 56.9 191.5 M39.55 188.4 L36.95 187.95 39.9 185.05 39.55 188.4 M33.9 187.5 L32.85 187.3 33.35 186.7 33.9 187.5 M8.3 182.05 Q-54.25 168.15 -63.85 165.65 L-81.7 162.25 Q-90.1 160.8 -96.0 159.1 -97.3 141.9 -99.35 124.75 L-99.5 124.3 43.85 148.4 8.3 182.05 M-117.8 150.0 L-119.55 149.4 -118.85 148.55 -117.75 149.55 -117.8 150.0 M-123.2 148.1 L-125.55 147.15 -123.7 146.0 -123.2 148.1 M-126.3 71.15 L-127.25 71.05 -127.25 70.35 Q-126.0 69.6 -124.3 69.25 -112.75 67.2 -101.25 63.95 L-101.25 64.9 Q-113.7 68.6 -126.3 71.15 M-97.35 58.4 L-108.5 121.45 -110.45 122.85 -101.35 67.05 Q-98.25 65.8 -99.45 62.6 -99.8 61.6 -100.5 60.75 -100.3 58.0 -97.65 58.15 L-97.35 58.4" fill="#6f6f6f" fill-rule="evenodd" stroke="none"/>
    <path d="M-226.5 124.2 L-227.4 126.45 -228.55 125.0 -229.25 124.85 Q-230.75 124.5 -231.6 123.4 L-231.8 123.35 Q-231.75 123.9 -232.05 124.3 -232.35 124.95 -233.05 125.0 -237.75 125.5 -243.75 123.8 L-244.15 123.7 Q-245.1 123.3 -245.9 123.05 L-246.75 122.85 -240.9 117.3 Q-235.05 111.65 -234.35 103.5 L-229.8 101.55 -229.7 102.1 -226.5 124.2 M-258.65 120.55 Q-262.75 120.15 -266.35 118.2 L-266.75 117.75 -243.1 107.3 -243.0 107.3 -242.1 107.5 -242.2 107.95 Q-245.2 113.45 -250.35 117.1 L-255.55 120.95 -258.65 120.55 M262.0 240.65 L259.4 240.0 Q256.3 219.05 254.85 198.0 254.1 202.8 250.3 205.65 L250.3 209.35 Q250.3 212.75 249.3 215.95 248.3 219.1 246.0 217.35 245.4 220.9 243.6 224.1 242.35 226.35 240.15 225.5 L239.7 224.35 238.65 229.25 Q237.75 232.5 235.05 231.8 L234.55 230.65 233.0 233.25 226.2 232.45 Q223.05 232.25 222.25 229.55 L255.0 183.75 Q256.5 187.7 256.6 192.2 256.9 196.9 257.9 206.25 L262.0 240.65 M59.95 192.1 L56.9 191.5 56.3 184.4 55.8 185.5 53.7 186.65 Q54.05 187.7 53.85 188.9 L53.55 189.8 52.3 189.8 51.6 188.0 48.85 189.1 Q47.8 188.85 47.1 187.8 L45.2 185.1 42.1 188.85 39.55 188.4 39.9 185.05 36.95 187.95 33.9 187.5 33.35 186.7 32.85 187.3 Q22.25 185.45 20.7 184.0 L54.5 150.15 55.2 150.3 55.75 153.55 Q58.55 172.75 59.95 192.1 M-96.0 159.1 Q-100.45 158.1 -104.45 155.75 -110.85 152.1 -117.8 150.0 L-117.75 149.55 -118.85 148.55 -119.55 149.4 -123.2 148.1 -123.7 146.0 -125.55 147.15 Q-126.55 147.15 -127.25 146.45 -127.95 145.75 -127.95 144.8 L-101.5 125.4 -99.5 124.3 -99.35 124.75 Q-97.3 141.9 -96.0 159.1" fill="#595959" fill-rule="evenodd" stroke="none"/>
    <path d="M447.75 205.55 L448.3 206.2 448.25 206.7 Q445.7 207.7 443.0 207.2 419.6 202.45 395.9 199.3 L382.2 197.15 352.3 192.65 296.4 184.05 273.75 180.35 263.05 178.7 228.25 173.4 Q209.4 170.5 190.6 166.7 L175.5 164.3 164.4 162.55 94.5 150.8 52.55 143.9 24.55 139.3 23.95 139.65 -42.35 129.1 -73.8 124.35 -89.8 121.5 -105.8 118.0 -105.55 116.8 29.45 138.45 29.5 138.75 32.7 139.0 447.75 205.55 M-106.55 122.05 Q-105.95 121.45 -106.15 122.0 -106.75 123.4 -107.95 124.45 -112.65 128.8 -118.0 132.45 L-134.2 144.1 Q-134.9 144.65 -136.0 144.55 -138.35 146.85 -141.6 147.3 L-106.8 122.7 -106.55 122.05 M-242.5 99.85 Q-260.0 107.5 -277.0 116.2 L-279.35 116.1 -280.05 116.6 -280.85 116.5 -280.05 115.7 -281.05 115.4 -280.8 113.95 -243.8 98.15 -242.5 99.85 M431.95 283.55 L431.45 279.35 432.05 279.15 432.25 279.9 433.6 280.25 434.0 279.45 441.0 215.2 439.65 214.4 441.25 213.4 Q444.1 217.05 443.9 221.85 443.75 226.5 443.85 231.15 444.15 244.9 440.4 258.15 439.45 261.45 439.1 264.9 438.05 274.25 435.7 283.2 L431.95 283.55 M244.8 180.8 L245.75 180.75 245.65 181.55 245.9 182.0 Q245.45 185.05 243.55 187.65 238.75 194.35 233.55 200.7 231.4 203.3 229.55 206.0 221.0 218.4 211.65 230.55 210.25 232.35 208.7 230.85 L207.05 230.75 206.85 229.2 207.55 229.7 208.15 229.6 244.9 181.3 244.8 180.8 M46.95 148.05 L47.75 147.7 47.85 148.5 Q31.35 167.35 11.9 183.3 10.55 184.4 9.65 183.5 L46.65 148.5 46.95 148.05 M-127.35 68.9 L-104.15 63.4 -104.2 63.6 Q-115.4 67.85 -127.35 68.9 M-110.6 122.95 L-111.45 123.55 -103.65 67.8 Q-103.2 68.05 -103.2 68.75 -103.1 74.1 -103.85 79.5 -106.95 101.4 -110.6 122.95 M-101.75 60.85 Q-102.35 59.65 -101.7 57.95 -100.95 55.95 -98.85 56.5 L-101.75 60.85 M-131.9 114.25 L-131.0 112.75 -112.3 115.65 -112.6 117.75 -131.9 114.25 M-235.75 97.2 L-236.7 95.6 -175.55 105.35 -175.8 106.85 -189.45 104.65 -206.9 101.65 Q-228.6 98.95 -235.75 97.2" fill="#bfbfbf" fill-rule="evenodd" stroke="none"/>
    <path d="M-249.0 123.45 L-249.8 124.15 -250.5 123.45 -251.45 123.5 -251.0 123.05 -250.25 122.3 -250.55 121.85 -251.4 122.6 -251.55 122.6 -250.55 121.85 Q-244.15 117.0 -239.7 110.35 -238.2 108.1 -237.95 105.45 -237.6 101.1 -240.05 97.6 -242.45 94.1 -245.7 91.6 -242.5 93.15 -240.0 95.8 -237.7 98.1 -236.45 101.15 -235.9 104.75 -237.25 108.15 -237.9 109.75 -238.95 111.1 -243.9 117.55 -249.0 123.45 M-224.0 46.75 L-222.8 63.45 -225.6 63.95 -227.05 49.55 -232.75 49.3 -232.2 64.65 -233.7 64.7 -233.95 64.45 -234.05 64.7 -238.3 64.4 Q-238.2 56.05 -239.6 47.9 L-239.6 47.45 Q-244.0 46.4 -245.3 42.85 -236.45 47.35 -226.2 47.55 L-225.45 46.8 -224.0 46.75 M-207.3 28.6 L-206.75 30.3 -207.0 30.45 Q-206.85 30.5 -206.65 30.65 L-205.4 43.3 -205.2 50.1 -205.55 51.5 -206.6 51.9 Q-206.1 41.25 -208.85 31.05 L-208.95 30.75 Q-208.95 29.85 -208.45 29.25 -208.0 28.6 -207.3 28.6 M-242.0 38.6 Q-241.1 34.0 -236.25 32.45 -231.5 31.15 -226.6 30.65 L-211.2 31.15 Q-208.75 36.05 -208.6 41.8 -208.45 46.4 -208.55 51.0 -215.15 49.7 -221.6 51.6 L-222.45 44.55 Q-230.2 44.1 -237.8 41.9 -240.75 41.1 -242.0 38.6 M-274.4 42.4 L-274.5 43.25 -284.1 41.35 -284.45 40.2 Q-283.15 39.9 -279.55 40.8 -275.65 41.75 -274.4 42.4 M-260.6 43.0 Q-264.05 44.85 -261.6 47.9 L-261.15 48.3 Q-264.15 51.0 -268.05 49.8 -272.3 44.85 -267.55 40.6 -265.2 38.5 -262.5 39.85 -260.7 40.85 -260.6 43.0 M-248.15 47.85 L-248.05 48.75 Q-254.65 49.0 -260.65 46.2 L-260.55 46.05 Q-254.4 46.0 -248.25 47.3 L-248.15 47.85 M-269.4 52.35 L-268.9 51.65 -266.6 51.9 Q-272.15 60.6 -273.75 70.65 -274.2 73.55 -272.35 76.3 -274.65 74.25 -274.45 70.7 -273.9 60.95 -268.3 52.95 L-269.4 52.35" fill="#0c72a6" fill-rule="evenodd" stroke="none"/>
    <path d="M-214.9 28.55 Q-224.65 27.75 -234.1 29.95 -239.05 30.95 -242.35 34.5 -245.15 37.45 -242.9 40.7 L-241.85 41.65 Q-233.75 46.45 -224.05 46.25 L-224.0 46.75 -225.45 46.8 Q-233.8 46.55 -241.35 43.6 L-243.15 42.35 Q-245.15 40.55 -245.7 38.0 L-246.25 38.7 -243.65 61.75 -243.95 61.05 Q-246.1 49.55 -247.3 37.95 -243.0 30.8 -234.95 28.9 -222.7 26.2 -210.05 27.9 -209.75 28.7 -210.75 28.7 L-214.9 28.55 M-238.3 64.4 L-240.4 63.8 -240.4 47.8 -239.6 47.9 Q-238.2 56.05 -238.3 64.4 M-283.9 39.35 L-283.15 38.75 -275.45 40.35 -275.6 40.65 Q-279.9 40.7 -283.9 39.35 M-271.55 47.55 Q-274.1 42.6 -269.65 39.2 -267.05 37.25 -263.6 37.8 -267.8 38.25 -270.1 41.45 -272.05 44.2 -271.55 47.55 M-260.3 45.0 L-260.0 44.8 Q-254.3 43.75 -248.55 45.05 L-248.4 45.95 -260.3 45.0 M-268.6 79.75 L-247.5 89.4 Q-260.0 86.8 -269.95 79.1 L-268.6 79.75 M-270.0 53.0 Q-270.7 56.75 -272.6 60.0 -273.85 62.2 -274.75 64.65 -277.65 72.25 -273.95 79.05 L-275.45 77.0 Q-276.4 75.75 -276.5 74.0 -277.1 62.25 -270.0 53.0 M-249.85 89.9 Q-249.45 90.15 -249.0 90.35 -244.25 92.65 -241.75 96.45 L-249.85 89.9" fill="#78deff" fill-rule="evenodd" stroke="none"/>
    <path d="M-150.8 93.05 Q-150.3 87.25 -151.95 81.65 L-152.4 79.8 Q-149.55 75.9 -150.75 70.85 -151.4 68.1 -153.1 66.15 -153.6 65.55 -154.15 65.3 -153.6 67.0 -153.65 68.95 -152.05 72.0 -152.9 75.95 L-153.1 76.75 -155.75 67.4 -155.5 67.1 -155.9 65.55 -156.3 65.85 Q-159.35 58.65 -165.25 53.45 L-167.0 52.0 -165.75 52.05 -167.9 50.8 -168.1 50.15 Q-158.5 50.65 -148.8 48.75 -140.4 47.15 -133.4 42.45 -134.05 50.45 -135.95 58.2 L-135.95 58.3 -136.05 58.6 -149.75 61.5 -149.7 61.6 -149.75 61.6 -149.65 61.85 -149.05 65.45 Q-150.55 65.45 -151.2 66.8 L-151.0 67.35 -148.75 67.35 -147.75 73.0 -148.2 82.4 -147.15 82.45 Q-146.65 81.7 -146.45 80.75 L-144.15 94.2 -144.1 95.65 -143.85 95.85 -143.85 95.95 -143.75 95.95 -143.55 96.15 -138.8 95.75 Q-134.9 102.8 -134.75 111.0 -134.7 114.25 -136.75 115.9 -144.45 119.65 -153.0 118.95 -160.9 119.1 -167.7 115.45 -167.5 114.65 -166.25 114.5 L-161.5 113.45 -160.55 113.9 -160.3 113.95 -160.15 114.05 Q-154.1 115.8 -148.3 113.2 L-148.15 113.1 Q-146.5 112.4 -145.3 111.2 -141.65 108.3 -143.55 104.1 -146.05 98.7 -146.65 92.75 -148.9 94.55 -149.9 97.3 L-150.15 96.55 -147.65 90.2 -150.8 93.05 M-174.65 43.6 Q-159.55 45.9 -145.35 40.65 -142.05 39.35 -139.55 36.95 -136.25 33.75 -139.8 30.85 -137.5 31.25 -135.5 32.85 L-134.15 34.25 -133.35 35.35 Q-134.9 38.4 -137.85 39.95 -148.5 45.4 -160.65 45.35 -167.75 45.3 -174.65 43.6 M-140.3 120.05 L-141.6 120.45 Q-149.15 122.25 -156.8 120.75 -146.85 121.85 -137.45 118.45 L-140.3 120.05 M-148.6 123.85 Q-147.5 126.95 -149.0 129.9 L-149.7 131.2 -150.95 131.35 Q-152.4 128.0 -152.1 124.1 L-148.6 123.85" fill="#990000" fill-rule="evenodd" stroke="none"/>
    <path d="M-137.1 41.85 L-135.65 41.25 Q-136.45 42.55 -137.7 43.3 L-138.65 43.75 Q-139.3 46.0 -141.55 46.5 -151.9 49.2 -162.85 49.4 -170.9 49.55 -178.3 46.3 -172.0 55.95 -166.1 65.8 -164.3 68.85 -163.4 72.4 L-167.25 72.0 -167.55 69.65 Q-168.2 65.45 -170.4 61.8 L-170.9 62.85 -169.1 71.75 Q-171.25 63.2 -176.4 56.2 -180.7 50.4 -183.45 43.75 -181.6 40.4 -178.85 37.55 -175.15 33.75 -170.3 32.2 -156.95 27.65 -142.95 28.8 -140.1 30.15 -141.7 33.2 -143.15 35.9 -146.0 37.3 -157.6 42.9 -170.45 41.9 -174.1 41.3 -177.1 39.4 L-179.3 40.9 -179.9 40.4 -180.65 40.45 -181.15 41.05 -181.15 41.75 Q-172.8 48.7 -161.8 47.65 -149.2 47.35 -137.65 42.05 L-137.1 41.85 M-162.95 74.7 L-162.6 77.65 Q-162.2 81.6 -163.05 86.55 L-164.2 85.3 -164.45 92.3 -165.95 96.75 -171.6 112.3 -172.3 111.5 -173.2 109.3 Q-173.55 108.15 -173.3 107.1 -170.1 93.8 -168.55 80.35 L-167.75 80.55 Q-166.6 79.75 -166.7 77.85 L-167.1 73.6 -162.95 74.7 M-154.2 126.05 L-154.15 126.0 Q-152.55 128.05 -152.5 130.6 L-154.2 126.05" fill="#fe6767" fill-rule="evenodd" stroke="none"/>
    <path d="M-163.05 86.55 Q-162.45 89.0 -160.2 89.7 L-159.7 89.75 Q-156.4 86.45 -157.7 81.9 -155.25 84.65 -156.1 88.0 -156.9 91.1 -156.95 94.1 -155.45 93.1 -155.05 91.45 L-154.6 89.65 -154.15 89.6 -155.45 99.65 Q-155.55 100.45 -154.75 101.0 -154.0 101.5 -153.2 101.6 -153.3 96.85 -150.8 93.05 L-147.65 90.2 -150.15 96.55 -149.9 97.3 Q-148.9 94.55 -146.65 92.75 -146.05 98.7 -143.55 104.1 -141.65 108.3 -145.3 111.2 -144.3 109.0 -145.25 106.4 -146.0 104.3 -146.35 102.1 L-146.65 99.95 Q-148.15 100.9 -148.4 102.6 L-149.05 101.6 -149.7 99.3 -151.25 105.65 -152.95 106.55 Q-156.75 105.95 -157.95 102.4 -158.4 101.0 -158.4 99.4 L-159.45 101.95 -162.45 93.5 Q-164.45 100.75 -164.55 107.85 -164.55 108.95 -164.15 110.05 L-163.25 112.25 Q-168.45 107.5 -166.8 100.5 L-165.95 96.75 -164.45 92.3 -164.2 85.3 -163.05 86.55 M-160.15 114.05 L-160.3 113.95 -160.1 113.8 -160.15 114.05" fill="#ffff00" fill-rule="evenodd" stroke="none"/>
    <path d="M-145.3 111.2 Q-146.5 112.4 -148.15 113.1 -147.75 112.5 -148.45 111.9 L-148.8 111.6 Q-146.85 108.3 -149.1 105.2 -148.65 109.65 -152.65 110.85 -156.05 111.8 -157.9 108.8 L-158.3 110.05 Q-160.55 108.6 -161.05 105.5 -163.35 109.55 -160.55 113.9 L-161.5 113.45 -163.25 112.25 -164.15 110.05 Q-164.55 108.95 -164.55 107.85 -164.45 100.75 -162.45 93.5 L-159.45 101.95 -158.4 99.4 Q-158.4 101.0 -157.95 102.4 -156.75 105.95 -152.95 106.55 L-151.25 105.65 -149.7 99.3 -149.05 101.6 -148.4 102.6 Q-148.15 100.9 -146.65 99.95 L-146.35 102.1 Q-146.0 104.3 -145.25 106.4 -144.3 109.0 -145.3 111.2" fill="#fefdbc" fill-rule="evenodd" stroke="none"/>
    <path d="M-148.15 113.1 L-148.3 113.2 Q-154.1 115.8 -160.15 114.05 L-160.1 113.8 -160.3 113.95 -160.55 113.9 Q-163.35 109.55 -161.05 105.5 -160.55 108.6 -158.3 110.05 L-157.9 108.8 Q-156.05 111.8 -152.65 110.85 -148.65 109.65 -149.1 105.2 -146.85 108.3 -148.8 111.6 L-148.45 111.9 Q-147.75 112.5 -148.15 113.1" fill="#ffffff" fill-rule="evenodd" stroke="none"/>
    <path d="M411.35 215.35 Q409.65 211.8 404.9 210.3 L403.25 209.95 Q406.65 208.9 409.75 210.65 412.55 212.35 411.35 215.35 M398.9 212.4 L402.7 212.7 Q404.7 216.3 405.15 220.35 405.35 222.1 405.8 223.7 406.5 226.45 409.2 225.75 413.5 221.4 411.45 215.85 412.75 216.4 413.15 217.75 414.85 223.8 409.2 227.05 409.0 230.65 406.7 233.25 404.85 233.45 404.35 231.55 L403.8 231.5 Q402.6 231.15 402.35 230.05 L401.7 231.2 Q402.2 227.6 399.45 225.95 L398.8 226.05 Q397.75 226.65 397.3 227.75 L394.15 235.2 Q392.2 239.35 387.6 239.65 L386.3 238.65 Q385.2 238.55 385.05 239.9 384.95 241.2 385.85 242.05 384.95 242.5 384.95 243.45 L385.0 244.05 385.15 244.65 386.15 245.1 386.45 245.75 Q387.0 245.95 387.5 245.75 L390.3 244.35 Q388.65 245.9 386.7 246.15 382.65 246.15 383.3 242.05 L382.05 243.15 381.55 241.5 381.15 241.3 Q379.25 241.45 378.2 243.25 375.9 239.3 370.95 239.75 365.2 240.0 364.6 245.25 L366.75 247.8 Q367.3 251.2 364.45 253.7 361.95 256.05 359.0 257.55 360.65 259.8 363.5 261.0 365.45 261.75 365.7 263.7 L366.2 266.95 Q364.05 268.7 361.8 267.4 358.7 265.75 357.25 262.6 352.5 265.6 347.05 267.05 343.5 268.1 342.3 265.05 341.95 264.15 341.95 263.15 337.4 265.05 335.25 261.15 334.9 260.5 335.1 259.85 335.7 257.8 337.3 256.1 344.35 248.6 353.65 244.1 L362.25 239.7 Q367.55 236.9 372.3 233.7 375.4 231.65 374.7 227.95 369.85 231.2 364.45 233.05 L361.95 233.45 Q359.75 233.45 357.95 232.45 L355.0 235.2 Q356.6 232.35 355.65 228.9 L355.35 228.35 Q352.25 228.0 352.55 231.1 352.75 232.95 351.8 234.7 351.15 235.9 349.95 236.05 347.7 236.5 345.85 234.95 344.15 236.4 343.5 238.5 343.25 239.25 342.45 239.5 339.3 240.55 335.85 239.4 333.95 238.75 331.95 238.9 333.15 242.55 337.55 242.65 L342.95 242.35 344.2 241.55 346.45 239.4 351.75 238.05 Q345.4 243.5 344.8 243.55 343.05 243.75 338.85 246.55 334.7 249.35 330.35 249.8 330.25 249.8 324.5 252.55 L322.1 253.75 Q322.9 251.85 321.25 250.1 L320.75 249.45 323.75 243.55 Q322.65 237.05 315.75 236.5 312.4 236.0 309.35 237.5 L331.45 219.5 329.25 217.35 330.6 217.7 Q335.4 218.4 338.95 215.1 L340.6 215.9 Q346.05 213.85 349.5 209.1 352.25 205.35 351.3 201.15 352.35 202.5 352.3 204.4 354.1 204.2 355.1 205.75 355.5 206.4 355.15 206.95 353.6 209.5 351.15 210.8 335.05 219.55 323.35 233.8 L323.8 234.2 328.35 230.55 Q331.1 228.5 333.85 230.5 L335.3 229.5 Q342.6 223.1 352.25 222.75 354.55 214.75 362.45 212.25 367.2 210.9 370.1 214.75 L371.7 214.6 Q373.6 214.3 375.25 213.65 378.15 212.5 381.05 213.0 385.7 213.95 386.55 218.65 L388.45 220.1 388.55 220.45 Q389.2 223.15 386.6 223.9 388.6 220.9 385.5 219.35 L385.0 219.3 Q384.05 215.5 380.95 213.25 378.1 213.6 378.9 216.6 379.85 220.05 376.85 222.0 371.55 225.3 367.0 221.2 L365.55 220.05 Q362.85 224.05 358.5 226.05 359.4 228.75 362.15 228.5 369.85 227.95 377.15 226.15 380.05 225.4 382.7 223.8 L383.2 224.0 384.1 225.15 Q381.0 226.5 379.5 229.35 383.05 227.55 386.65 226.3 387.6 225.95 388.4 226.65 L389.75 228.3 389.65 229.1 Q387.8 231.3 384.7 232.3 382.45 233.1 380.35 234.2 L378.45 235.35 379.5 236.95 Q380.1 238.1 379.7 239.1 L380.4 238.65 Q382.95 237.5 383.9 240.15 387.85 229.2 397.55 223.15 L398.85 222.65 Q395.5 217.7 398.9 212.4 M381.85 244.65 Q383.45 245.7 384.35 247.35 385.2 249.05 383.9 250.9 379.5 256.95 373.55 261.7 373.25 259.0 374.85 257.15 379.6 251.8 381.85 244.65 M372.1 264.35 Q372.35 265.15 373.6 265.55 375.1 266.2 375.2 267.3 375.45 269.6 372.75 269.85 370.4 270.1 368.75 267.55 370.1 266.4 370.4 264.3 L370.5 263.75 372.1 264.35 M320.85 254.25 Q317.15 256.75 313.7 254.2 L312.45 253.4 Q309.75 255.35 306.9 254.2 305.4 253.65 305.0 251.9 303.2 243.95 308.85 238.0 L309.2 239.85 Q307.9 240.45 307.55 241.95 308.6 243.35 310.6 243.2 314.4 242.85 317.25 244.9 318.2 245.55 318.15 246.55 318.1 248.05 317.4 249.4 317.2 249.7 317.15 250.15 318.55 252.6 320.85 254.25 M328.85 215.55 Q328.75 210.8 332.05 207.0 339.25 198.8 349.55 200.1 347.3 202.95 346.7 206.5 342.9 209.45 338.5 207.3 336.6 208.35 337.15 210.45 337.6 212.0 336.6 213.25 333.65 216.65 328.85 215.55 M428.25 235.15 L428.7 236.3 428.75 239.0 427.8 237.4 428.25 235.15 M426.5 244.6 L422.15 249.0 422.2 247.75 Q420.0 245.15 416.6 245.1 L416.1 245.15 Q415.1 247.45 415.9 249.95 416.05 250.45 415.7 250.95 415.15 251.95 414.2 252.25 410.65 252.15 408.4 254.45 409.1 257.3 412.35 256.6 L415.25 256.0 Q419.15 254.45 421.35 250.8 L421.35 251.75 421.4 253.3 Q423.4 252.65 423.6 254.7 412.75 270.2 407.05 270.8 405.8 270.9 405.15 270.1 400.05 274.7 397.75 274.9 395.5 275.15 394.75 273.35 L394.65 272.55 Q396.5 271.9 397.85 270.2 L402.4 264.8 Q402.25 266.85 404.1 266.8 405.6 266.8 406.45 265.5 408.6 262.15 408.15 258.5 L406.25 257.9 406.75 257.05 Q405.85 255.6 404.2 255.8 402.5 255.5 401.0 256.5 400.4 256.9 400.2 257.55 398.15 265.55 391.9 271.1 L392.35 272.3 Q388.95 273.05 387.1 270.55 386.65 269.95 386.85 269.0 387.4 266.65 389.05 265.0 400.9 253.15 413.75 242.1 412.3 240.55 413.15 238.45 414.95 234.0 418.45 230.6 422.45 233.5 422.75 238.3 419.95 239.65 419.45 242.4 L419.8 242.8 Q422.5 246.1 426.5 244.6 M321.4 212.6 Q324.3 213.95 326.2 216.8 327.3 218.45 327.25 220.45 L326.8 221.6 Q323.5 224.95 319.05 223.05 322.7 222.3 323.0 218.6 323.25 215.3 321.4 212.6 M315.35 222.75 L313.0 223.75 313.95 222.05 315.35 222.75 M310.7 224.2 Q307.65 225.25 304.7 224.2 299.55 222.25 296.0 218.0 296.45 213.25 300.05 210.25 304.9 206.1 310.9 207.4 316.25 208.55 320.6 212.1 315.45 215.45 309.7 213.9 305.85 217.15 300.65 216.8 L300.7 217.85 303.15 218.9 Q303.0 220.0 303.45 221.15 303.75 222.0 304.65 222.45 307.5 223.75 310.7 224.2 M340.7 258.75 Q342.2 258.7 343.15 257.7 344.25 256.55 344.3 255.8 L340.7 258.75 M370.75 260.95 L372.1 256.7 371.4 260.9 370.75 260.95 M245.35 196.55 Q248.65 192.75 253.45 194.8 258.3 196.95 259.9 201.65 259.3 202.2 258.65 202.1 252.65 202.7 246.9 199.9 245.2 199.15 245.1 197.3 245.05 196.85 245.35 196.55 M276.1 198.0 Q279.45 195.9 283.25 195.45 286.4 195.0 286.95 198.05 L286.85 199.35 286.55 200.15 Q287.9 203.35 284.95 205.8 L283.15 207.35 Q280.55 209.45 277.25 208.3 271.1 213.65 268.4 221.75 L278.15 211.25 279.3 211.55 279.45 212.05 279.55 212.95 278.9 214.85 280.9 213.6 282.4 214.25 282.55 215.1 275.85 223.7 Q280.35 218.6 285.95 214.6 287.0 215.1 287.55 216.0 288.85 218.15 290.95 217.1 L292.7 216.15 294.35 216.6 294.55 217.6 290.7 221.95 290.1 226.05 291.05 226.15 292.45 226.7 Q293.0 227.1 293.2 228.0 295.95 227.7 298.05 229.05 299.35 229.85 299.55 231.15 299.75 232.35 299.55 233.35 301.25 234.0 301.8 235.65 302.75 238.65 299.95 240.3 301.45 239.65 303.0 239.15 305.45 238.4 306.0 241.0 301.7 247.1 295.05 249.15 297.15 243.55 296.9 237.95 296.85 237.0 296.05 236.6 295.0 236.15 293.9 236.0 L293.2 234.55 291.05 234.6 290.6 235.15 Q290.55 238.85 286.45 239.8 L281.95 240.15 Q280.6 240.1 279.55 241.0 281.0 243.9 284.4 243.6 287.9 243.55 290.5 241.4 L291.4 246.2 Q291.9 248.7 294.3 249.4 L292.05 249.6 291.5 247.65 Q289.45 249.1 287.2 248.3 279.2 245.4 271.5 241.95 L269.75 243.2 Q268.15 244.15 266.4 244.25 264.2 243.9 263.8 241.7 L265.05 239.55 262.25 239.65 261.3 239.05 Q260.3 238.5 260.0 237.45 L266.15 219.0 264.1 219.6 Q261.45 220.55 260.4 222.95 L258.8 222.6 258.65 222.1 Q259.5 218.75 260.85 215.4 262.9 210.15 267.1 206.45 L269.75 203.7 Q272.05 200.6 275.3 198.5 L276.35 199.85 277.7 199.7 Q277.6 198.65 276.6 198.2 L276.1 198.0 M284.75 224.45 L282.4 221.75 274.1 230.3 274.2 231.05 Q277.2 232.25 279.7 230.25 281.2 228.95 281.85 227.15 L284.35 230.15 Q283.0 233.15 280.95 235.5 281.1 237.9 283.35 237.55 286.5 236.8 288.95 234.75 289.4 234.3 289.3 233.45 288.8 228.3 285.2 224.6 L284.75 224.45 M237.05 224.7 Q239.05 221.55 242.4 220.5 L240.7 223.75 Q239.4 226.5 236.85 226.35 L236.7 225.2 237.05 224.7 M267.95 204.8 L267.45 205.35 267.15 204.95 Q260.15 210.1 255.35 216.85 L253.4 216.95 Q250.6 216.65 249.1 214.25 250.8 207.0 258.15 205.75 L258.65 205.3 259.8 204.8 261.3 204.9 262.05 205.9 267.9 203.6 267.95 204.8" fill="#ffe6e6" fill-rule="evenodd" stroke="none"/>
    <path d="M411.35 215.35 L411.45 215.85 Q413.5 221.4 409.2 225.75 406.5 226.45 405.8 223.7 405.35 222.1 405.15 220.35 404.7 216.3 402.7 212.7 L398.9 212.4 403.25 209.95 404.9 210.3 Q409.65 211.8 411.35 215.35 M401.7 231.2 L401.3 231.8 Q396.5 238.85 390.3 244.35 L387.5 245.75 Q387.0 245.95 386.45 245.75 L386.15 245.1 385.15 244.65 385.0 244.05 384.95 243.45 Q384.95 242.5 385.85 242.05 384.95 241.2 385.05 239.9 385.2 238.55 386.3 238.65 L387.6 239.65 Q392.2 239.35 394.15 235.2 L397.3 227.75 Q397.75 226.65 398.8 226.05 L399.45 225.95 Q402.2 227.6 401.7 231.2 M382.05 243.15 L381.0 244.15 381.85 244.65 Q379.6 251.8 374.85 257.15 373.25 259.0 373.55 261.7 L372.1 264.35 370.5 263.75 370.4 264.3 Q370.1 266.4 368.75 267.55 L367.9 266.0 366.2 266.95 365.7 263.7 Q365.45 261.75 363.5 261.0 360.65 259.8 359.0 257.55 361.95 256.05 364.45 253.7 367.3 251.2 366.75 247.8 L364.6 245.25 Q365.2 240.0 370.95 239.75 375.9 239.3 378.2 243.25 379.25 241.45 381.15 241.3 L381.55 241.5 382.05 243.15 M355.0 235.2 L351.75 238.05 346.45 239.4 344.2 241.55 342.95 242.35 337.55 242.65 Q333.15 242.55 331.95 238.9 333.95 238.75 335.85 239.4 339.3 240.55 342.45 239.5 343.25 239.25 343.5 238.5 344.15 236.4 345.85 234.95 347.7 236.5 349.95 236.05 351.15 235.9 351.8 234.7 352.75 232.95 352.55 231.1 352.25 228.0 355.35 228.35 L355.65 228.9 Q356.6 232.35 355.0 235.2 M322.1 253.75 L320.85 254.25 Q318.55 252.6 317.15 250.15 317.2 249.7 317.4 249.4 318.1 248.05 318.15 246.55 318.2 245.55 317.25 244.9 314.4 242.85 310.6 243.2 308.6 243.35 307.55 241.95 307.9 240.45 309.2 239.85 L308.85 238.0 309.35 237.5 Q312.4 236.0 315.75 236.5 322.65 237.05 323.75 243.55 L320.75 249.45 321.25 250.1 Q322.9 251.85 322.1 253.75 M329.25 217.35 L328.85 215.55 Q333.65 216.65 336.6 213.25 337.6 212.0 337.15 210.45 336.6 208.35 338.5 207.3 342.9 209.45 346.7 206.5 347.3 202.95 349.55 200.1 L351.3 201.15 Q352.25 205.35 349.5 209.1 346.05 213.85 340.6 215.9 L338.95 215.1 Q335.4 218.4 330.6 217.7 L329.25 217.35 M386.6 223.9 L384.1 225.15 383.2 224.0 382.7 223.8 Q380.05 225.4 377.15 226.15 369.85 227.95 362.15 228.5 359.4 228.75 358.5 226.05 362.85 224.05 365.55 220.05 L367.0 221.2 Q371.55 225.3 376.85 222.0 379.85 220.05 378.9 216.6 378.1 213.6 380.95 213.25 384.05 215.5 385.0 219.3 L385.5 219.35 Q388.6 220.9 386.6 223.9 M418.45 230.6 Q420.2 229.25 422.4 230.25 426.0 231.85 428.25 235.15 L427.8 237.4 428.75 239.0 Q428.45 241.7 426.9 243.9 L426.5 244.6 Q422.5 246.1 419.8 242.8 L419.45 242.4 Q419.95 239.65 422.75 238.3 422.45 233.5 418.45 230.6 M422.15 249.0 L421.35 250.8 Q419.15 254.45 415.25 256.0 L412.35 256.6 Q409.1 257.3 408.4 254.45 410.65 252.15 414.2 252.25 415.15 251.95 415.7 250.95 416.05 250.45 415.9 249.95 415.1 247.45 416.1 245.15 L416.6 245.1 Q420.0 245.15 422.2 247.75 L422.15 249.0 M394.65 272.55 L394.4 271.4 392.35 272.3 391.9 271.1 Q398.15 265.55 400.2 257.55 400.4 256.9 401.0 256.5 402.5 255.5 404.2 255.8 405.85 255.6 406.75 257.05 L406.25 257.9 408.15 258.5 Q408.6 262.15 406.45 265.5 405.6 266.8 404.1 266.8 402.25 266.85 402.4 264.8 L397.85 270.2 Q396.5 271.9 394.65 272.55 M321.4 212.6 Q323.25 215.3 323.0 218.6 322.7 222.3 319.05 223.05 L317.4 220.8 315.35 222.75 313.95 222.05 313.0 223.75 310.7 224.2 Q307.5 223.75 304.65 222.45 303.75 222.0 303.45 221.15 303.0 220.0 303.15 218.9 L300.7 217.85 300.65 216.8 Q305.85 217.15 309.7 213.9 315.45 215.45 320.6 212.1 L321.4 212.6 M370.75 260.95 L371.4 260.9 372.1 256.7 370.75 260.95 M276.1 198.0 L276.6 198.2 Q277.6 198.65 277.7 199.7 L276.35 199.85 275.3 198.5 276.1 198.0 M294.3 249.4 Q291.9 248.7 291.4 246.2 L290.5 241.4 Q287.9 243.55 284.4 243.6 281.0 243.9 279.55 241.0 280.6 240.1 281.95 240.15 L286.45 239.8 Q290.55 238.85 290.6 235.15 L291.05 234.6 293.2 234.55 293.9 236.0 Q295.0 236.15 296.05 236.6 296.85 237.0 296.9 237.95 297.15 243.55 295.05 249.15 L294.95 249.45 294.3 249.4 M284.75 224.45 L285.2 224.6 Q288.8 228.3 289.3 233.45 289.4 234.3 288.95 234.75 286.5 236.8 283.35 237.55 281.1 237.9 280.95 235.5 283.0 233.15 284.35 230.15 L281.85 227.15 Q281.2 228.95 279.7 230.25 277.2 232.25 274.2 231.05 L274.1 230.3 282.4 221.75 284.75 224.45" fill="#edd4d4" fill-rule="evenodd" stroke="none"/>
  </g>
</svg>
