<?xml version="1.0" encoding="UTF-8" standalone="no"?>
<svg xmlns:xlink="http://www.w3.org/1999/xlink" height="43.85px" width="43.25px" xmlns="http://www.w3.org/2000/svg">
  <g transform="matrix(1.0, 0.0, 0.0, 1.0, 21.6, 21.4)">
    <path d="M17.35 -11.25 L17.8 -10.95 18.0 -10.8 18.65 -10.2 19.65 -8.95 19.75 -8.8 19.75 -9.05 19.75 -11.25 19.45 -12.65 19.45 -12.7 19.2 -13.3 15.7 -16.95 15.6 -17.05 14.75 -17.55 14.7 -17.55 14.4 -17.7 Q11.8 -19.05 8.55 -19.55 L4.6 -19.95 3.95 -20.0 Q1.25 -20.05 -0.6 -19.3 L-2.0 -18.65 -2.05 -18.6 -2.2 -18.55 -2.35 -18.45 -3.0 -18.0 -4.65 -16.6 Q-5.6 -15.65 -5.1 -15.3 L-4.95 -15.25 -3.15 -15.3 -1.05 -15.8 1.05 -15.6 Q2.5 -14.9 4.5 -15.35 L7.4 -15.75 7.75 -15.75 Q8.3 -15.65 8.3 -15.05 8.45 -11.3 10.15 -10.65 10.85 -10.35 10.7 -9.7 L10.65 -9.5 10.6 -9.5 Q10.2 -8.8 9.0 -8.05 L7.15 -6.8 6.7 -6.25 6.15 -5.55 5.15 -4.25 3.15 -1.8 Q1.45 -0.1 -1.25 0.85 L-1.55 0.95 -1.65 1.0 -1.7 1.0 -2.0 1.1 -2.1 1.15 -4.8 1.8 -5.35 1.95 -6.15 2.1 -6.35 2.15 Q-11.05 3.15 -13.3 4.2 -16.9 5.85 -18.5 9.0 L-18.65 9.35 -18.9 9.95 -19.05 10.3 -19.1 10.45 -19.4 11.45 -19.5 12.0 -19.55 12.65 -19.55 13.1 -19.4 14.45 -18.8 15.8 -18.75 15.9 Q-17.7 17.65 -15.95 18.85 L-15.85 18.9 -15.3 19.25 -13.15 20.2 -10.85 20.85 -10.75 20.85 -9.85 21.0 -7.15 20.95 -6.0 20.75 -4.85 20.45 -0.2 17.4 0.55 16.35 0.6 16.3 0.75 16.0 1.55 14.35 2.15 12.35 2.4 10.9 2.45 10.8 2.5 9.8 2.55 8.05 2.55 7.7 2.65 7.35 3.05 7.15 Q3.6 7.15 3.65 7.7 L3.7 8.65 3.25 13.25 3.2 13.45 3.0 14.1 Q8.3 12.5 11.85 8.3 13.2 6.7 13.8 5.15 13.55 4.55 14.1 4.3 14.65 2.0 13.55 -0.15 L13.45 -0.3 12.8 -1.35 12.65 -1.55 12.3 -2.0 Q12.0 -2.4 12.35 -2.75 L12.4 -2.8 13.05 -2.75 13.85 -2.0 14.05 -1.75 15.8 2.05 15.8 2.2 15.85 2.4 15.85 2.55 15.85 2.65 15.85 2.75 15.85 2.95 15.8 3.3 16.25 3.0 18.05 1.25 Q19.75 -0.75 20.1 -3.25 L20.0 -5.05 19.75 -6.45 19.6 -6.6 19.55 -6.7 Q18.7 -8.85 17.3 -9.9 15.65 -11.2 13.7 -10.4 13.25 -10.25 13.05 -10.75 12.85 -11.2 13.25 -11.4 L14.4 -11.8 Q15.9 -12.15 17.35 -11.25 M4.15 -13.7 L1.4 -13.8 -0.3 -14.2 -2.0 -14.05 -4.4 -13.6 -5.2 -13.6 Q-5.4 -11.95 -6.5 -10.05 -7.65 -8.15 -9.3 -6.75 -10.8 -5.45 -12.45 -5.15 -14.5 -4.8 -15.6 -6.4 -16.6 -7.9 -15.05 -9.75 L-17.4 -10.1 Q-21.65 -11.25 -21.6 -14.0 -21.55 -18.7 -15.45 -18.95 -11.05 -19.15 -6.35 -17.45 L-6.0 -17.25 Q-2.3 -21.05 2.0 -21.35 7.75 -21.7 12.5 -20.15 18.25 -18.2 20.65 -13.85 21.3 -12.7 21.25 -11.0 L21.1 -8.1 21.55 -5.45 Q21.8 -3.95 21.55 -2.85 20.2 2.7 15.4 5.25 14.8 7.05 13.35 9.0 11.3 11.9 8.15 13.8 5.1 15.65 2.35 15.75 L1.9 16.6 Q-0.4 20.85 -5.1 22.0 -8.95 22.95 -12.8 22.0 -17.05 20.95 -19.35 18.0 -21.95 14.7 -20.9 10.35 -19.9 6.1 -16.25 3.75 -13.6 2.1 -8.85 1.05 L-1.2 -0.95 Q0.8 -1.7 2.5 -3.65 L5.4 -7.25 7.5 -8.75 8.75 -9.65 Q7.8 -10.35 7.4 -11.45 L6.9 -13.6 6.85 -14.65 Q6.75 -15.5 6.85 -14.3 L4.15 -13.7 M-7.2 -15.55 L-7.0 -16.05 -13.7 -17.6 Q-18.55 -18.1 -19.8 -15.5 -20.3 -14.55 -20.1 -13.75 -19.8 -12.5 -17.75 -11.75 -14.55 -10.55 -12.7 -12.05 L-12.15 -12.15 -7.2 -14.9 -7.2 -15.55 M-6.8 -12.55 L-6.45 -13.75 -10.5 -11.45 -12.9 -9.85 Q-14.55 -8.6 -14.55 -7.6 -14.55 -7.1 -14.05 -6.8 L-13.65 -6.6 -12.25 -6.55 Q-10.8 -7.1 -9.5 -8.55 -7.6 -10.65 -6.8 -12.55" fill="#000000" fill-rule="evenodd" stroke="none"/>
    <path d="M13.4 -13.2 L12.9 -14.55 Q12.15 -15.9 10.75 -15.9 9.25 -15.9 9.25 -13.9 9.15 -13.05 9.35 -12.3 9.75 -10.75 11.35 -10.75 L12.7 -11.55 Q13.4 -12.4 13.4 -13.2 M14.4 -17.7 Q14.25 -17.45 14.25 -17.0 L14.35 -16.5 14.4 -16.5 Q15.25 -16.45 15.95 -15.7 L16.05 -15.6 Q17.35 -13.95 17.35 -12.4 L17.35 -11.25 Q15.9 -12.15 14.4 -11.8 12.75 -12.25 12.75 -10.35 12.75 -9.65 15.3 -8.2 L15.85 -6.5 Q15.85 -5.25 14.25 -3.15 L13.55 -2.3 13.6 -2.25 13.85 -2.0 13.05 -2.75 12.4 -2.8 Q11.25 -4.0 11.25 -1.9 L11.5 -0.7 11.75 0.5 Q11.35 2.35 10.35 4.2 L9.8 5.15 7.15 7.55 5.45 7.85 3.7 7.95 3.7 8.65 3.65 7.7 Q3.6 7.15 3.05 7.15 L2.65 7.35 2.95 7.15 Q2.75 5.7 2.05 5.6 L1.3 4.3 Q0.0 2.4 0.0 4.65 L-0.5 10.1 Q-1.25 11.35 -3.6 13.05 -7.6 16.0 -12.65 16.0 -15.3 16.0 -17.5 14.35 L-19.5 12.65 -19.55 12.65 -19.5 12.0 Q-18.7 13.0 -16.0 13.0 -10.95 13.0 -7.65 11.3 -5.85 10.45 -4.3 8.75 -2.0 6.15 -2.0 4.3 L-2.25 3.2 -2.25 3.15 -2.45 2.5 -2.35 2.5 Q3.35 2.5 5.85 -0.5 7.35 -2.25 7.5 -4.75 L7.6 -4.75 Q9.2 -4.75 10.65 -5.95 12.0 -7.1 12.0 -7.95 12.0 -9.75 10.7 -9.7 10.85 -10.35 10.15 -10.65 8.45 -11.3 8.3 -15.05 8.3 -15.65 7.75 -15.75 L7.4 -15.75 Q6.4 -16.95 1.25 -17.05 -4.55 -17.25 -5.1 -15.3 -5.6 -15.65 -4.65 -16.6 L-3.0 -18.0 -2.5 -17.3 -2.4 -17.35 -2.25 -17.25 -1.4 -17.75 2.5 -18.3 Q4.85 -18.3 4.85 -19.05 L4.6 -19.95 8.55 -19.55 Q11.8 -19.05 14.4 -17.7 M18.65 -10.2 L18.85 -10.55 Q19.15 -10.55 19.25 -10.75 L19.35 -11.05 19.25 -11.6 19.45 -12.65 19.75 -11.25 19.75 -9.05 19.65 -8.95 18.65 -10.2 M-4.8 1.8 L-4.8 1.85 -5.35 1.95 -4.8 1.8 M16.25 3.0 L15.8 3.3 15.85 2.95 16.25 3.0 M2.4 10.9 L2.15 12.35 2.3 11.65 2.2 11.7 2.4 10.9 M1.55 14.35 L0.75 16.0 0.6 16.3 1.4 14.3 1.55 14.35" fill="#ffe6e6" fill-rule="evenodd" stroke="none"/>
    <path d="M-7.2 -15.55 L-7.75 -15.7 Q-8.95 -15.95 -12.5 -15.75 -16.45 -15.35 -18.65 -14.5 L-20.1 -13.75 Q-20.3 -14.55 -19.8 -15.5 -18.55 -18.1 -13.7 -17.6 L-7.0 -16.05 -7.2 -15.55 M-14.05 -6.8 Q-14.55 -7.1 -14.55 -7.6 -14.55 -8.6 -12.9 -9.85 L-10.5 -11.45 -6.45 -13.75 -6.8 -12.55 Q-8.9 -11.9 -11.4 -9.7 L-14.05 -6.8" fill="#cc3333" fill-rule="evenodd" stroke="none"/>
    <path d="M17.35 -11.25 L17.35 -12.4 Q17.35 -13.95 16.05 -15.6 L15.95 -15.7 Q15.25 -16.45 14.4 -16.5 L14.35 -16.5 14.25 -17.0 Q14.25 -17.45 14.4 -17.7 L14.7 -17.55 14.75 -17.55 15.6 -17.05 15.7 -16.95 19.2 -13.3 19.45 -12.7 19.45 -12.65 19.25 -11.6 19.35 -11.05 19.25 -10.75 Q19.15 -10.55 18.85 -10.55 L18.65 -10.2 18.0 -10.8 17.8 -10.95 17.35 -11.25 M-5.1 -15.3 Q-4.55 -17.25 1.25 -17.05 6.4 -16.95 7.4 -15.75 L4.5 -15.35 Q2.5 -14.9 1.05 -15.6 L-1.05 -15.8 -3.15 -15.3 -4.95 -15.25 -5.1 -15.3 M-19.55 12.65 L-19.5 12.65 -17.5 14.35 Q-15.3 16.0 -12.65 16.0 -7.6 16.0 -3.6 13.05 -1.25 11.35 -0.5 10.1 L0.0 4.65 Q0.0 2.4 1.3 4.3 L2.05 5.6 Q2.75 5.7 2.95 7.15 L2.65 7.35 2.55 7.7 2.55 8.05 2.5 9.8 2.45 10.8 2.4 10.9 2.2 11.7 2.3 11.65 2.15 12.35 1.55 14.35 1.4 14.3 0.6 16.3 0.55 16.35 -0.2 17.4 -4.85 20.45 -6.0 20.75 -7.15 20.95 -9.85 21.0 -10.75 20.85 -10.85 20.85 -13.15 20.2 -15.3 19.25 -15.85 18.9 -15.95 18.85 Q-17.7 17.65 -18.75 15.9 L-18.8 15.8 -19.4 14.45 -19.55 13.1 -19.55 12.65 M3.7 8.65 L3.7 7.95 5.45 7.85 7.15 7.55 9.8 5.15 10.35 4.2 Q11.35 2.35 11.75 0.5 L11.5 -0.7 11.25 -1.9 Q11.25 -4.0 12.4 -2.8 L12.35 -2.75 Q12.0 -2.4 12.3 -2.0 L12.65 -1.55 12.8 -1.35 13.45 -0.3 13.55 -0.15 Q14.65 2.0 14.1 4.3 13.55 4.55 13.8 5.15 13.2 6.7 11.85 8.3 8.3 12.5 3.0 14.1 L3.2 13.45 3.25 13.25 3.7 8.65 M13.85 -2.0 L13.6 -2.25 13.55 -2.3 14.25 -3.15 Q15.85 -5.25 15.85 -6.5 L15.3 -8.2 Q12.75 -9.65 12.75 -10.35 12.75 -12.25 14.4 -11.8 L13.25 -11.4 Q12.85 -11.2 13.05 -10.75 13.25 -10.25 13.7 -10.4 15.65 -11.2 17.3 -9.9 18.7 -8.85 19.55 -6.7 L19.6 -6.6 19.75 -6.45 20.0 -5.05 20.1 -3.25 Q19.75 -0.75 18.05 1.25 L16.25 3.0 15.85 2.95 15.85 2.75 15.85 2.65 15.85 2.55 15.85 2.4 15.8 2.2 15.8 2.05 14.05 -1.75 13.85 -2.0" fill="#edd4d4" fill-rule="evenodd" stroke="none"/>
    <path d="M13.4 -13.2 Q13.4 -12.4 12.7 -11.55 L11.35 -10.75 Q9.75 -10.75 9.35 -12.3 9.15 -13.05 9.25 -13.9 9.25 -15.9 10.75 -15.9 12.15 -15.9 12.9 -14.55 L13.4 -13.2 M4.6 -19.95 L4.85 -19.05 Q4.85 -18.3 2.5 -18.3 L-1.4 -17.75 -2.25 -17.25 -2.4 -17.35 -2.5 -17.3 -3.0 -18.0 -2.35 -18.45 -2.2 -18.55 -2.05 -18.6 -2.0 -18.65 -0.6 -19.3 Q1.25 -20.05 3.95 -20.0 L4.6 -19.95 M10.7 -9.7 Q12.0 -9.75 12.0 -7.95 12.0 -7.1 10.65 -5.95 9.2 -4.75 7.6 -4.75 L7.5 -4.75 Q7.35 -2.25 5.85 -0.5 3.35 2.5 -2.35 2.5 L-2.45 2.5 -2.25 3.15 -2.25 3.2 -2.0 4.3 Q-2.0 6.15 -4.3 8.75 -5.85 10.45 -7.65 11.3 -10.95 13.0 -16.0 13.0 -18.7 13.0 -19.5 12.0 L-19.4 11.45 -19.1 10.45 -19.05 10.3 -18.9 9.95 -18.65 9.35 -18.5 9.0 Q-16.9 5.85 -13.3 4.2 -11.05 3.15 -6.35 2.15 L-6.15 2.1 -5.35 1.95 -4.8 1.85 -4.8 1.8 -2.1 1.15 -2.0 1.1 -1.7 1.0 -1.65 1.0 -1.55 0.95 -1.25 0.85 Q1.45 -0.1 3.15 -1.8 L5.15 -4.25 6.15 -5.55 6.7 -6.25 7.15 -6.8 9.0 -8.05 Q10.2 -8.8 10.6 -9.5 L10.65 -9.5 10.7 -9.7" fill="#fff8f8" fill-rule="evenodd" stroke="none"/>
    <path d="M-20.1 -13.75 L-18.65 -14.5 Q-16.45 -15.35 -12.5 -15.75 -8.95 -15.95 -7.75 -15.7 L-7.2 -15.55 -7.2 -14.9 -12.15 -12.15 -12.7 -12.05 Q-14.55 -10.55 -17.75 -11.75 -19.8 -12.5 -20.1 -13.75 M-6.8 -12.55 Q-7.6 -10.65 -9.5 -8.55 -10.8 -7.1 -12.25 -6.55 L-13.65 -6.6 -14.05 -6.8 -11.4 -9.7 Q-8.9 -11.9 -6.8 -12.55" fill="#a80f0f" fill-rule="evenodd" stroke="none"/>
  </g>
</svg>
