<?xml version="1.0" encoding="UTF-8" standalone="no"?>
<svg xmlns:xlink="http://www.w3.org/1999/xlink" height="49.6px" width="37.6px" xmlns="http://www.w3.org/2000/svg">
  <g transform="matrix(1.0, 0.0, 0.0, 1.0, 18.65, 24.2)">
    <path d="M13.35 -15.55 L12.4 -15.9 Q9.8 -16.75 7.9 -15.15 7.15 -15.0 7.3 -15.75 L7.6 -16.5 Q8.15 -17.25 9.15 -17.45 L8.25 -19.05 Q6.45 -21.6 3.0 -22.6 L-4.2 -22.3 -5.8 -21.4 -3.7 -20.2 -3.2 -19.8 -1.5 -18.35 Q-1.1 -17.95 -1.5 -17.55 -1.7 -17.35 -1.9 -17.3 L-4.2 -18.95 -6.3 -20.2 Q-8.1 -20.9 -9.9 -20.25 L-10.05 -20.15 Q-15.65 -17.6 -17.15 -11.45 L-17.4 -10.05 -17.5 -8.85 Q-17.5 -6.05 -16.15 -4.1 L-15.35 -3.15 Q-11.95 0.15 -7.85 -1.85 L-7.1 -2.25 Q-5.15 -3.45 -4.5 -5.45 -4.4 -11.1 -3.25 -11.85 -2.1 -12.65 -1.5 -12.45 L0.15 -12.35 4.0 -11.25 4.85 -10.8 7.25 -8.75 8.3 -7.1 Q9.05 -5.5 9.15 -3.45 L8.4 2.45 7.2 7.3 6.0 7.9 3.55 9.2 Q1.5 10.65 1.35 12.1 1.35 13.3 1.9 14.15 2.45 15.0 3.25 15.0 7.2 17.15 10.05 14.15 11.3 12.8 11.15 10.95 11.0 9.45 11.0 6.9 L11.9 7.85 12.45 9.85 12.5 10.15 12.75 10.0 Q17.3 7.1 17.2 1.6 17.15 -2.7 13.45 -5.0 L13.55 -5.55 Q13.7 -5.75 13.95 -5.7 L15.05 -5.1 16.05 -4.35 16.1 -4.9 Q17.25 -10.5 14.05 -14.85 L13.35 -15.55 M16.85 -12.75 Q19.0 -8.1 17.05 -3.3 21.05 2.9 16.7 8.85 15.2 10.85 12.6 11.5 12.45 15.2 9.1 16.75 L5.85 17.1 Q4.35 21.7 0.8 24.7 -0.5 25.9 -2.1 25.1 -4.9 23.65 -3.7 20.5 -7.5 21.4 -7.9 17.35 -8.1 15.6 -6.35 14.8 -3.25 13.6 0.1 12.75 1.7 8.45 6.1 6.5 7.6 1.8 7.65 -3.4 7.65 -6.95 4.45 -9.2 1.0 -11.45 -3.0 -10.7 -1.95 -5.15 -6.2 -1.55 -10.5 1.95 -15.2 -1.55 L-16.6 -2.9 Q-17.55 -4.1 -18.0 -5.65 -20.4 -14.0 -13.7 -19.55 -11.8 -21.15 -9.4 -21.8 L-8.35 -22.05 Q-6.95 -22.25 -5.65 -22.9 L-3.75 -23.65 Q0.3 -24.9 4.55 -23.35 8.15 -21.9 9.95 -18.4 L10.35 -17.55 Q14.85 -17.05 16.85 -12.75 M2.0 15.7 L1.15 15.0 0.4 13.85 -4.25 15.2 Q-7.8 16.45 -7.25 17.9 L-7.05 18.3 Q-5.1 20.35 -2.45 18.75 L-1.3 18.25 Q0.95 17.2 2.15 15.85 L2.0 15.7 M-2.9 23.4 Q0.5 25.25 2.5 21.5 3.7 19.25 4.35 16.8 L3.25 16.4 0.75 18.7 Q-0.55 19.5 -2.25 20.1 L-2.35 20.35 Q-3.5 22.55 -2.9 23.4" fill="#000000" fill-rule="evenodd" stroke="none"/>
    <path d="M11.05 -16.0 Q9.05 -16.3 9.05 -13.25 9.05 -12.6 9.35 -11.8 9.85 -10.45 10.9 -10.45 11.75 -10.45 12.4 -11.5 13.0 -12.45 13.0 -13.4 13.0 -15.65 11.05 -16.0 M7.9 -15.15 Q9.8 -16.75 12.4 -15.9 L13.35 -15.55 Q12.6 -13.5 13.7 -11.6 14.1 -10.85 14.05 -9.95 14.0 -7.7 13.45 -5.7 L13.55 -5.55 13.45 -5.0 13.75 -1.25 Q13.85 0.5 13.4 2.2 12.55 5.55 10.0 7.55 9.8 11.65 6.75 14.5 L3.25 15.0 Q2.45 15.0 1.9 14.15 1.35 13.3 1.35 12.1 2.9 13.9 5.1 12.5 7.35 11.0 6.65 8.25 L6.0 7.9 7.2 7.3 8.4 2.45 Q8.75 3.5 9.95 3.5 12.4 3.5 12.65 -0.55 12.65 -4.5 10.5 -4.3 9.65 -4.2 9.15 -3.45 9.05 -5.5 8.3 -7.1 L7.25 -8.75 Q8.05 -9.05 7.7 -10.25 7.2 -11.8 6.95 -13.5 L7.9 -15.15 M16.1 -4.9 L16.05 -4.35 15.05 -5.1 15.55 -4.75 16.1 -4.9 M12.75 10.0 L12.5 10.15 12.45 9.85 12.75 10.0 M4.85 -10.8 L4.0 -11.25 4.9 -11.75 4.85 -10.8 M0.15 -12.35 L-1.5 -12.45 -1.45 -13.1 Q-0.95 -12.7 0.05 -12.7 L0.15 -12.35 M-4.5 -5.45 Q-5.15 -3.45 -7.1 -2.25 L-4.5 -5.45 M-15.35 -3.15 L-16.15 -4.1 Q-17.5 -6.05 -17.5 -8.85 L-17.4 -10.05 Q-16.9 -8.75 -15.3 -8.75 L-14.35 -8.85 Q-12.1 -9.5 -10.3 -13.1 -8.65 -16.5 -8.65 -18.25 -8.65 -20.1 -9.9 -20.25 -8.1 -20.9 -6.3 -20.2 L-4.2 -18.95 Q-6.0 -18.05 -5.75 -15.8 -4.95 -8.65 -11.1 -5.55 -11.8 -5.2 -12.6 -5.0 -14.85 -5.05 -15.35 -3.15 M-1.9 -17.3 Q-1.7 -17.35 -1.5 -17.55 -1.1 -17.95 -1.5 -18.35 L-3.2 -19.8 Q0.85 -18.25 3.7 -20.8 L4.0 -21.15 3.0 -22.6 Q6.45 -21.6 8.25 -19.05 L9.15 -17.45 Q8.15 -17.25 7.6 -16.5 L6.55 -16.9 Q3.55 -15.4 0.3 -15.5 L-1.9 -17.3 M-3.7 -20.2 L-5.8 -21.4 -4.2 -22.3 Q-4.65 -21.15 -3.85 -20.35 L-3.7 -20.2" fill="#ffe6e6" fill-rule="evenodd" stroke="none"/>
    <path d="M13.35 -15.55 L14.05 -14.85 Q17.25 -10.5 16.1 -4.9 L15.55 -4.75 15.05 -5.1 13.95 -5.7 Q13.7 -5.75 13.55 -5.55 L13.45 -5.7 Q14.0 -7.7 14.05 -9.95 14.1 -10.85 13.7 -11.6 12.6 -13.5 13.35 -15.55 M13.45 -5.0 Q17.15 -2.7 17.2 1.6 17.3 7.1 12.75 10.0 L12.45 9.85 11.9 7.85 11.0 6.9 Q11.0 9.45 11.15 10.95 11.3 12.8 10.05 14.15 7.2 17.15 3.25 15.0 L6.75 14.5 Q9.8 11.65 10.0 7.55 12.55 5.55 13.4 2.2 13.85 0.5 13.75 -1.25 L13.45 -5.0 M7.25 -8.75 L4.85 -10.8 4.9 -11.75 4.0 -11.25 0.15 -12.35 0.05 -12.7 Q-0.95 -12.7 -1.45 -13.1 L-1.5 -12.45 Q-2.1 -12.65 -3.25 -11.85 -4.4 -11.1 -4.5 -5.45 L-7.1 -2.25 -7.85 -1.85 Q-11.95 0.15 -15.35 -3.15 -14.85 -5.05 -12.6 -5.0 -11.8 -5.2 -11.1 -5.55 -4.95 -8.65 -5.75 -15.8 -6.0 -18.05 -4.2 -18.95 L-1.9 -17.3 0.3 -15.5 Q3.55 -15.4 6.55 -16.9 L7.6 -16.5 7.3 -15.75 Q7.15 -15.0 7.9 -15.15 L6.95 -13.5 Q7.2 -11.8 7.7 -10.25 8.05 -9.05 7.25 -8.75" fill="#edd4d4" fill-rule="evenodd" stroke="none"/>
    <path d="M11.05 -16.0 Q13.0 -15.65 13.0 -13.4 13.0 -12.45 12.4 -11.5 11.75 -10.45 10.9 -10.45 9.85 -10.45 9.35 -11.8 9.05 -12.6 9.05 -13.25 9.05 -16.3 11.05 -16.0 M1.35 12.1 Q1.5 10.65 3.55 9.2 L6.0 7.9 6.65 8.25 Q7.35 11.0 5.1 12.5 2.9 13.9 1.35 12.1 M8.4 2.45 L9.15 -3.45 Q9.65 -4.2 10.5 -4.3 12.65 -4.5 12.65 -0.55 12.4 3.5 9.95 3.5 8.75 3.5 8.4 2.45 M-17.4 -10.05 L-17.15 -11.45 Q-15.65 -17.6 -10.05 -20.15 L-9.9 -20.25 Q-8.65 -20.1 -8.65 -18.25 -8.65 -16.5 -10.3 -13.1 -12.1 -9.5 -14.35 -8.85 L-15.3 -8.75 Q-16.9 -8.75 -17.4 -10.05 M-3.2 -19.8 L-3.7 -20.2 -3.85 -20.35 Q-4.65 -21.15 -4.2 -22.3 L3.0 -22.6 4.0 -21.15 3.7 -20.8 Q0.85 -18.25 -3.2 -19.8" fill="#fff8f8" fill-rule="evenodd" stroke="none"/>
    <path d="M2.0 15.7 L2.15 15.85 Q0.95 17.2 -1.3 18.25 1.6 16.4 2.0 15.7 M-7.05 18.3 L-7.25 17.9 Q-7.8 16.45 -4.25 15.2 L0.4 13.85 1.15 15.0 -3.1 16.2 Q-6.15 17.25 -7.05 18.3 M0.75 18.7 L-2.9 23.4 Q-3.5 22.55 -2.35 20.35 L-2.25 20.1 Q-0.55 19.5 0.75 18.7" fill="#cc3333" fill-rule="evenodd" stroke="none"/>
    <path d="M1.15 15.0 L2.0 15.7 Q1.6 16.4 -1.3 18.25 L-2.45 18.75 Q-5.1 20.35 -7.05 18.3 -6.15 17.25 -3.1 16.2 L1.15 15.0 M0.75 18.7 L3.25 16.4 4.35 16.8 Q3.7 19.25 2.5 21.5 0.5 25.25 -2.9 23.4 L0.75 18.7" fill="#a80f0f" fill-rule="evenodd" stroke="none"/>
  </g>
</svg>
