<?xml version="1.0" encoding="UTF-8" standalone="no"?>
<svg xmlns:xlink="http://www.w3.org/1999/xlink" height="160.95px" width="511.1px" xmlns="http://www.w3.org/2000/svg">
  <g transform="matrix(1.0, 0.0, 0.0, 1.0, 119.05, -117.8)">
    <path d="M360.1 197.55 Q363.45 200.35 363.15 205.05 363.1 205.65 363.35 206.3 364.4 209.35 363.3 212.5 361.95 216.3 358.55 218.4 356.2 226.6 348.2 229.6 L346.85 229.95 Q344.25 237.1 336.5 237.7 330.3 238.55 325.9 234.3 323.35 231.85 323.55 228.15 323.95 221.25 330.45 218.45 334.75 216.5 339.15 215.1 344.3 213.4 346.9 208.55 348.25 206.1 350.55 204.5 L349.25 202.75 348.55 201.2 348.25 200.1 Q345.8 201.4 342.95 201.15 339.95 200.85 337.15 201.85 L336.5 202.05 Q335.85 208.35 330.15 210.8 328.25 211.6 327.15 210.05 326.05 208.4 327.25 206.75 322.1 207.5 320.8 203.15 320.55 202.2 320.85 201.25 321.7 198.7 324.6 198.15 329.8 197.0 335.0 198.35 337.75 195.75 341.9 194.2 L344.3 193.5 Q353.3 191.95 360.1 197.55 M356.25 196.4 L355.15 195.9 353.35 195.45 Q344.2 193.3 336.8 198.95 L336.35 200.2 Q338.4 200.65 340.45 199.6 L341.45 199.5 Q344.25 200.1 346.95 199.05 348.25 198.45 349.4 198.75 349.6 201.75 351.75 203.35 L352.4 203.8 Q351.65 206.05 349.25 207.55 348.75 208.1 348.05 209.4 346.35 212.8 343.4 214.9 L343.2 215.05 338.5 217.05 Q332.35 218.35 327.65 222.65 326.05 224.15 325.5 226.2 324.65 228.95 325.5 231.05 L326.2 232.25 Q327.0 233.35 328.15 234.1 L328.4 234.4 Q335.9 238.7 342.7 233.45 346.3 230.7 346.55 226.15 L346.65 221.5 Q347.85 221.9 347.85 223.5 347.9 225.75 347.4 227.85 L347.3 228.3 348.05 227.95 Q353.45 223.95 357.0 218.45 L356.9 218.0 357.2 217.6 357.0 216.25 Q356.4 213.35 354.8 210.85 355.05 210.55 355.35 210.7 357.7 212.2 358.5 214.85 L358.75 215.85 358.75 216.45 360.0 215.25 Q363.35 211.3 361.5 206.6 360.2 203.15 356.75 202.8 L355.35 203.25 354.6 202.6 Q355.95 201.35 358.0 201.75 L359.3 202.25 361.15 203.85 361.3 204.1 361.4 204.2 361.4 203.95 361.35 203.35 Q360.95 198.45 356.5 196.45 L356.25 196.4 M383.25 233.7 Q379.8 233.2 378.7 234.85 378.5 235.15 378.1 235.0 377.65 234.8 377.8 234.45 378.25 233.0 379.7 232.5 378.8 230.8 377.3 229.65 370.85 225.45 364.4 229.25 L363.5 229.9 366.45 231.5 368.55 233.1 367.95 233.8 366.35 232.8 Q361.65 229.55 357.45 233.1 350.75 238.85 353.05 247.15 L353.35 247.85 Q355.7 252.15 360.4 252.05 365.05 251.35 366.2 246.9 366.8 244.65 366.2 242.3 365.85 241.1 366.5 240.25 L366.8 239.95 367.2 239.65 Q368.95 238.4 371.5 238.75 377.75 239.55 380.25 245.05 381.55 247.8 381.25 250.75 L380.45 258.55 Q377.85 260.1 375.75 262.2 374.0 263.95 375.25 265.9 376.3 267.5 378.2 267.8 380.9 268.75 383.0 267.0 386.6 263.8 384.2 259.3 L385.0 258.75 385.1 258.8 385.95 260.65 386.15 261.35 386.85 260.7 Q389.55 258.35 390.35 255.05 391.25 251.5 389.3 248.8 387.65 246.6 385.55 244.75 L386.25 244.45 388.35 245.5 Q388.7 242.0 387.8 238.5 386.85 234.7 383.25 233.7 M372.35 226.35 Q378.5 226.8 380.85 232.3 385.1 231.9 387.4 235.2 390.95 240.3 389.5 246.55 393.05 251.05 391.7 256.4 390.55 260.8 386.35 262.65 386.75 265.7 384.45 267.8 382.5 269.55 379.75 269.35 379.15 274.8 374.9 278.0 372.65 279.8 370.8 277.4 370.1 276.6 370.1 275.6 L370.2 273.95 Q367.75 274.95 366.0 273.0 L364.95 271.7 Q366.55 267.7 370.85 266.1 L373.45 265.35 Q374.85 260.8 379.1 258.15 381.1 250.55 377.7 243.85 377.05 242.65 375.85 241.85 372.1 239.4 367.8 241.15 368.85 246.75 364.95 250.85 361.2 254.8 356.35 252.25 351.55 249.8 351.1 244.35 350.55 237.4 355.7 232.75 357.2 231.4 359.1 230.55 L366.55 227.2 Q369.35 226.05 372.35 226.35 M322.2 203.85 Q327.35 207.3 332.0 202.85 333.0 201.9 334.15 201.1 L334.45 199.8 333.9 199.7 Q329.3 198.6 324.8 199.55 321.2 200.45 322.2 203.85 M329.1 209.75 Q330.6 209.9 331.65 208.9 334.45 206.15 335.25 202.0 L332.55 203.85 Q330.6 205.25 328.65 207.05 327.5 208.15 328.25 209.4 L329.1 209.75 M366.1 271.6 Q367.4 274.15 371.35 272.05 374.55 270.35 375.9 268.3 L375.7 268.2 Q374.4 267.5 373.85 266.4 370.85 267.45 369.0 268.3 365.35 270.05 366.1 271.6 M378.35 269.2 L377.05 268.8 Q375.5 271.55 371.65 273.35 L371.65 273.4 371.55 273.6 Q370.2 277.05 372.1 277.4 374.65 277.75 376.1 275.5 376.9 274.3 377.55 272.15 L378.35 269.2 M83.9 199.1 L83.45 199.1 Q83.45 196.9 82.55 195.15 L80.8 192.85 Q75.7 188.05 78.4 181.7 79.45 179.3 77.9 177.2 L76.25 174.7 Q79.05 172.3 81.1 172.2 L85.0 171.8 90.15 171.2 Q92.15 173.65 92.0 176.85 95.55 174.8 99.4 174.95 L100.65 175.05 100.4 174.5 100.35 174.35 Q99.85 172.25 99.8 170.3 99.6 164.1 104.1 159.35 105.2 158.2 106.7 157.5 110.65 155.65 115.1 156.25 119.05 156.9 121.1 153.8 121.7 152.85 121.35 151.6 L119.75 145.8 119.9 145.4 131.3 145.95 Q135.85 146.95 136.8 151.35 137.25 153.45 136.3 155.3 134.75 158.35 131.5 159.5 127.05 161.05 123.2 163.7 120.15 165.75 119.85 169.55 119.45 174.7 120.15 179.85 L124.0 178.7 124.25 178.6 124.15 178.05 Q124.15 174.85 125.0 173.2 L125.8 171.4 128.3 167.2 133.6 168.8 137.6 169.75 149.45 169.85 Q156.1 170.6 160.2 175.9 L162.65 179.5 166.1 179.2 Q164.55 172.35 168.75 166.85 170.45 164.65 173.15 164.65 176.25 165.15 179.2 164.55 182.3 163.85 182.6 160.7 182.85 157.75 183.35 155.0 191.7 155.65 198.1 161.25 L197.95 161.95 Q194.95 163.9 192.95 167.1 L191.5 168.55 Q188.1 170.5 184.35 171.7 181.4 172.8 180.2 175.8 189.4 175.45 196.5 181.15 L206.35 181.45 Q209.95 181.0 209.85 177.25 209.75 171.95 214.9 170.85 217.2 170.55 219.6 170.85 226.45 171.3 231.9 174.85 232.7 175.4 233.2 176.3 235.45 180.25 233.1 183.85 L232.0 184.65 Q227.95 185.6 223.6 185.65 219.6 185.65 217.7 189.1 225.7 188.5 230.7 194.9 232.8 188.25 239.3 186.45 L240.5 186.3 Q245.9 181.4 252.85 183.9 256.55 185.15 257.95 188.7 264.85 188.8 266.05 195.75 266.6 198.85 265.95 202.05 270.25 207.2 266.85 213.4 265.5 215.8 263.05 216.95 263.75 221.0 259.95 222.55 L257.05 223.1 254.9 228.7 Q254.0 230.95 251.9 231.8 249.55 232.7 248.25 230.5 247.3 228.95 248.05 227.4 244.8 228.55 243.2 225.6 242.35 224.0 243.85 222.85 247.0 220.5 250.95 219.45 250.65 216.65 253.05 215.0 L256.1 212.9 256.25 212.75 Q257.3 207.85 256.95 202.95 256.65 199.25 253.5 197.65 250.05 196.0 246.2 196.25 L245.6 196.75 Q246.4 200.1 245.15 203.4 244.05 206.3 241.3 207.55 236.25 209.85 232.9 205.55 230.1 201.95 229.9 197.45 228.35 193.6 224.8 191.85 L224.1 191.5 Q222.35 190.75 220.8 190.5 L219.15 190.4 216.65 190.75 214.65 194.45 199.65 196.3 200.8 198.9 Q207.9 196.2 215.5 198.3 L217.8 198.9 220.05 199.6 Q222.9 200.55 224.9 202.9 L225.75 204.05 225.55 204.9 Q225.3 205.25 224.95 205.25 223.0 202.7 220.05 201.5 211.3 197.85 201.8 199.95 L201.6 200.0 201.8 200.25 Q209.55 207.3 220.15 208.15 L221.05 208.7 221.6 209.15 Q225.25 213.55 222.45 218.75 220.65 222.0 217.85 224.55 L217.15 224.55 Q216.15 221.5 213.7 219.5 213.0 219.05 212.2 218.75 L209.35 218.3 206.1 218.25 198.0 217.9 196.75 217.4 196.6 217.4 193.55 214.5 192.45 215.6 190.2 214.8 181.65 211.7 Q183.75 214.35 184.5 217.5 L184.85 218.7 185.4 221.95 Q185.3 222.4 184.8 222.5 184.3 222.6 184.0 222.1 183.1 216.35 180.05 211.7 L180.05 211.45 180.1 211.3 179.75 211.25 Q171.6 209.8 164.3 214.15 162.8 215.05 161.15 215.75 L159.35 216.25 157.45 216.55 Q156.75 216.55 156.6 215.95 L156.6 215.4 162.3 213.45 166.85 211.5 169.75 210.3 Q173.0 209.0 176.4 209.15 L177.5 209.3 179.05 209.5 179.6 209.6 Q185.05 210.9 189.85 212.95 L191.9 213.75 Q194.55 209.0 196.0 203.95 L196.0 203.6 195.7 203.5 189.75 200.35 189.3 205.8 188.5 206.1 180.0 202.8 Q174.1 201.95 169.65 198.1 L168.45 197.15 164.0 198.15 Q163.2 198.4 162.4 198.95 L157.9 203.1 Q153.7 207.7 147.3 208.65 L146.25 208.8 145.7 208.85 146.05 209.2 151.05 213.7 151.15 213.8 Q151.75 214.25 151.3 214.85 L150.7 215.3 149.3 214.4 139.8 206.1 Q136.95 204.15 134.35 203.7 L134.1 203.75 131.6 203.5 Q124.5 203.95 117.7 206.15 L116.75 206.35 116.55 206.4 Q114.7 206.95 114.05 205.85 114.0 205.75 114.1 205.6 L119.6 204.2 125.95 202.45 131.05 201.85 Q129.95 197.65 127.2 194.55 L125.65 193.05 123.7 193.05 118.35 193.0 118.2 193.0 117.2 192.85 106.35 189.65 105.5 189.55 105.45 189.55 102.9 189.15 102.05 189.3 101.3 189.4 99.4 189.9 Q97.05 190.7 95.1 192.45 96.35 196.35 96.75 200.4 L96.9 202.4 96.25 202.25 Q95.9 202.25 95.65 202.05 L95.35 201.55 Q95.4 198.5 94.6 195.65 L94.35 194.8 92.15 190.2 91.05 188.55 90.05 186.7 Q89.15 184.35 89.8 181.95 L90.15 180.5 Q91.25 177.4 90.2 174.3 L90.1 174.1 Q87.15 171.9 83.35 173.35 L82.55 173.65 78.25 175.2 79.6 177.1 80.0 178.05 Q80.85 180.25 79.9 182.45 77.95 185.6 79.45 188.8 L79.7 189.35 80.9 190.85 83.0 193.05 83.85 194.2 Q84.65 195.45 84.7 196.8 L84.15 198.95 83.9 199.1 M195.05 162.05 L195.9 161.4 Q190.65 157.75 184.55 156.5 L184.55 157.35 184.15 160.95 Q183.95 163.35 182.3 165.15 L182.2 165.25 Q180.75 166.5 178.55 166.5 L178.35 166.5 Q174.55 165.9 171.1 167.05 L170.45 167.4 Q169.05 168.35 168.35 170.1 167.75 171.6 167.45 173.35 L167.4 179.2 Q174.0 179.55 178.4 184.55 177.55 179.6 178.55 174.75 179.4 172.05 181.75 170.7 L181.85 170.65 185.85 169.3 189.25 168.2 192.05 165.9 192.7 165.25 195.05 162.05 M182.55 177.25 L179.9 177.1 Q179.5 179.45 179.9 183.4 L180.2 184.95 180.2 186.05 180.2 186.25 180.6 186.65 181.2 187.15 181.85 187.7 183.4 188.8 184.7 186.6 185.05 186.2 Q188.4 183.1 193.0 182.05 L194.65 181.7 185.4 177.8 184.1 177.55 182.55 177.25 M182.1 189.85 Q178.45 186.1 173.7 182.9 L173.05 182.55 Q170.4 181.3 167.3 181.1 L163.4 181.05 156.7 182.8 154.9 183.65 152.95 187.25 Q151.3 190.15 151.15 193.4 L151.2 193.5 151.25 193.5 Q152.1 192.75 153.1 192.25 153.25 192.1 153.45 192.05 154.15 192.0 154.55 191.6 157.05 190.65 159.75 191.0 L160.25 191.05 162.25 191.45 Q164.9 192.2 167.45 194.05 171.45 197.6 176.25 199.65 L177.2 200.05 185.45 202.6 187.25 203.5 187.85 203.8 188.05 201.1 189.25 191.7 187.75 191.85 Q185.35 191.9 183.2 190.65 L182.1 189.85 M195.4 183.05 L193.85 183.35 Q191.45 183.95 189.4 184.9 185.65 186.65 184.4 189.35 187.3 190.7 190.05 189.75 L190.95 189.9 Q191.35 190.25 191.2 190.7 190.55 193.15 190.15 196.3 L196.9 194.9 200.75 194.35 212.65 193.2 213.6 192.95 218.0 185.85 220.35 184.4 223.5 183.7 228.15 183.45 232.15 182.95 Q233.5 176.6 227.8 174.4 L224.05 173.25 220.1 172.35 217.3 172.05 213.9 172.75 212.65 173.6 Q212.15 174.05 211.8 175.2 L211.35 177.2 211.3 177.6 Q211.3 179.85 210.15 181.45 209.0 183.0 207.35 183.0 L197.55 182.7 196.8 182.8 195.4 183.05 M243.55 188.8 Q242.35 188.1 241.4 187.85 239.55 187.3 237.85 188.15 232.45 191.15 231.65 197.45 L231.5 198.85 231.6 200.05 Q231.95 203.5 234.25 205.45 237.9 208.4 241.75 205.95 L242.4 205.45 Q244.15 204.1 244.6 202.05 244.2 198.3 245.9 195.65 246.2 195.15 246.85 194.9 L248.5 194.85 252.4 195.55 253.25 195.9 255.8 197.65 257.0 199.15 Q257.9 200.65 258.15 202.7 L258.05 208.5 257.6 213.15 256.25 214.1 Q254.65 215.05 254.0 215.6 252.15 217.25 252.15 218.65 252.15 219.75 252.8 220.55 253.4 221.3 254.25 221.3 257.3 222.75 259.85 220.8 261.05 219.9 261.25 218.6 261.65 216.0 261.4 213.3 L262.75 215.35 262.85 215.65 263.05 215.45 Q266.6 212.55 266.8 208.05 267.05 203.0 262.25 200.7 L262.3 200.2 Q262.65 199.95 262.9 200.0 L263.8 200.45 264.9 201.1 264.85 200.55 Q265.45 194.85 261.85 191.0 L261.1 190.4 Q258.15 189.2 256.0 191.2 L255.8 191.3 255.1 191.1 255.35 190.05 Q255.85 189.25 256.75 188.95 254.8 185.35 250.25 184.55 246.75 183.85 243.6 185.35 L243.25 185.5 241.75 186.6 243.75 187.45 244.5 187.85 246.55 189.55 246.0 190.2 243.55 188.8 M26.2 156.15 Q28.1 154.75 30.3 154.35 L31.6 154.25 Q32.75 157.85 36.3 159.05 41.6 160.8 42.65 166.15 L43.8 171.45 Q44.0 172.25 44.8 172.55 48.75 174.2 52.8 174.1 L56.65 173.55 Q54.9 169.85 55.15 165.95 55.25 164.6 54.85 163.3 54.35 161.65 53.45 160.35 52.15 158.6 50.1 157.55 46.9 155.85 46.1 152.2 45.3 148.5 43.85 145.0 L44.65 144.4 57.4 144.8 Q56.95 151.15 61.1 155.65 62.9 157.7 63.15 160.35 L63.15 160.75 66.25 158.7 75.0 162.15 75.4 163.15 Q71.3 164.9 69.45 168.65 68.05 171.5 69.3 174.35 71.6 179.8 67.15 183.25 66.3 183.9 65.2 184.1 L63.95 184.45 56.6 186.35 Q53.85 188.05 54.0 191.7 54.0 192.4 53.3 192.45 L52.8 192.4 52.55 191.85 52.55 190.25 53.7 187.05 55.6 185.35 57.65 184.55 59.6 184.25 Q63.55 183.4 67.1 181.55 L67.7 181.05 Q69.2 177.2 67.45 173.05 L67.4 172.9 Q66.85 170.55 67.35 169.0 67.7 167.85 68.35 166.9 70.0 164.75 72.4 163.35 L73.25 162.9 Q71.8 161.95 69.3 160.9 66.8 159.9 66.4 160.1 L62.0 162.75 Q59.65 163.5 58.0 165.2 L57.55 165.75 Q56.45 167.15 56.8 169.0 L57.4 170.75 57.95 171.75 Q59.6 174.85 57.65 177.4 55.4 178.85 52.8 179.45 L49.1 179.95 47.3 180.3 46.45 180.5 46.0 180.65 44.7 181.05 43.65 181.45 43.0 181.7 Q41.95 182.2 40.95 182.95 L39.8 183.95 38.8 185.0 38.6 185.2 37.25 187.35 36.7 187.8 Q35.85 186.25 37.75 183.85 39.0 182.25 40.75 181.1 36.15 178.9 34.7 173.95 32.8 167.3 26.5 164.55 L26.35 164.45 Q23.0 162.5 21.35 159.15 L21.4 158.85 23.05 157.75 24.85 156.85 25.15 156.65 26.2 156.15 M50.8 145.8 L45.9 145.9 46.15 146.4 46.75 148.15 47.45 151.1 Q47.45 153.0 48.35 154.35 49.25 155.65 50.5 155.65 L52.9 157.05 54.0 158.25 55.65 161.5 56.45 164.2 56.55 164.7 57.5 163.75 61.65 161.25 61.15 158.55 59.95 156.6 58.05 154.35 57.4 153.5 Q56.35 152.15 56.15 150.55 L56.05 149.55 55.9 148.1 55.5 145.95 50.8 145.8 M34.95 160.4 L32.1 158.45 31.25 157.3 30.6 155.8 Q26.25 157.1 23.55 160.25 L24.05 160.9 25.7 162.3 29.2 164.4 30.6 165.4 31.9 166.35 Q33.65 167.45 34.2 169.6 L34.5 170.7 Q35.25 174.55 38.15 177.45 L38.5 177.65 42.4 180.2 52.8 177.55 54.15 177.2 Q56.25 176.75 56.95 174.8 L54.15 175.4 52.8 175.65 Q47.55 176.3 43.4 173.35 41.05 170.5 41.3 166.55 L41.3 165.45 Q40.55 163.25 38.7 162.1 L38.6 162.05 36.35 160.95 34.95 160.4 M134.6 149.75 Q131.1 146.25 126.0 146.9 L121.65 146.8 122.0 148.0 Q122.7 150.4 122.8 152.15 122.8 154.3 121.95 155.85 121.05 157.35 119.85 157.35 L111.6 157.65 Q109.65 157.5 107.9 158.3 L105.05 160.0 Q103.8 161.0 103.05 162.2 102.05 163.8 101.6 165.9 L101.1 173.75 101.15 175.0 101.15 175.15 Q108.75 177.65 116.55 179.55 L117.6 179.8 118.5 179.75 Q117.85 173.65 118.65 167.5 119.6 164.15 122.2 162.05 L125.1 160.4 128.15 159.25 Q132.65 158.2 134.95 154.35 L135.3 153.6 Q135.85 151.6 134.6 149.75 M102.2 176.8 L101.05 176.55 100.85 176.5 99.4 176.4 99.0 176.4 97.35 176.55 Q96.0 176.7 94.6 177.2 L91.9 178.35 Q89.5 184.9 93.75 190.15 L94.15 190.65 94.2 190.85 94.3 190.8 98.4 188.1 99.4 187.8 101.35 187.4 105.15 187.65 106.45 187.95 106.55 188.0 Q109.85 188.8 115.4 190.8 L116.55 191.05 118.9 191.4 125.0 191.3 125.5 191.2 127.3 190.95 131.15 189.85 Q134.2 187.8 132.5 184.65 L130.1 180.2 129.7 179.4 128.6 178.9 127.55 179.0 123.6 180.75 122.75 181.0 122.55 181.0 116.85 181.4 102.2 176.8 M153.05 172.65 Q151.5 172.1 149.65 171.9 L146.85 171.55 137.25 171.15 134.2 170.7 130.1 169.45 129.95 169.4 Q129.45 169.1 128.95 168.85 L128.4 169.85 125.15 177.3 125.15 177.65 125.05 178.25 126.75 177.45 128.45 177.3 Q130.15 177.5 131.3 178.85 L132.25 180.4 132.4 180.75 132.6 180.7 134.3 180.65 138.5 182.7 137.55 177.15 Q140.6 175.8 144.45 175.7 L146.35 175.7 147.95 175.8 Q152.3 176.25 154.0 178.7 L155.05 181.45 155.05 182.0 155.55 181.65 160.9 179.8 Q160.0 177.6 158.2 175.85 L156.35 174.25 153.05 172.65 M152.2 179.2 Q151.35 178.15 149.85 177.8 144.65 176.35 139.2 177.85 L139.55 178.9 Q140.25 182.35 140.05 185.8 L139.95 187.1 139.95 192.95 140.4 198.75 140.65 201.3 140.75 204.75 140.8 204.8 144.4 207.65 Q147.5 207.25 150.65 205.8 L153.9 204.15 152.4 199.8 150.75 197.15 149.3 192.7 Q149.45 189.45 151.4 186.7 L152.15 185.65 Q154.5 182.8 152.75 179.95 L152.2 179.2 M127.95 192.95 L129.3 194.55 Q131.7 197.75 132.65 201.85 136.15 202.3 139.35 203.9 138.55 199.25 138.35 194.55 138.1 189.7 138.5 184.85 137.8 184.45 137.25 183.9 135.55 182.15 133.2 182.3 L133.05 182.3 133.1 182.45 Q134.75 185.55 134.2 188.75 134.0 189.85 132.95 190.55 130.75 192.15 128.05 192.55 L127.6 192.65 127.95 192.95 M156.95 201.3 Q161.05 196.55 167.05 195.95 159.8 190.25 151.7 194.95 154.1 198.85 155.25 203.1 L156.95 201.3 M278.85 212.85 L278.9 215.5 278.45 215.55 277.8 213.0 Q277.45 210.9 277.65 208.95 L277.7 208.75 277.55 208.85 Q272.7 211.35 270.1 216.0 269.4 217.15 269.1 218.35 L268.8 219.55 Q269.05 219.95 268.7 220.3 268.6 222.9 270.35 224.95 L271.65 226.5 270.75 226.85 268.75 225.3 267.2 221.7 267.2 221.6 267.1 221.75 Q263.65 225.1 264.45 229.9 L264.65 230.65 Q265.7 233.0 268.0 234.55 L268.45 234.8 272.5 234.95 Q270.0 237.55 266.75 235.0 L265.75 234.15 Q266.35 240.9 273.5 242.0 280.4 243.25 286.85 240.6 290.1 239.25 290.95 235.7 L288.4 236.45 278.25 238.6 277.5 236.95 Q277.5 235.9 277.05 235.2 276.6 234.45 276.0 234.45 L274.8 233.95 274.5 232.95 Q276.35 231.4 277.35 229.2 280.0 223.15 285.65 220.05 L287.95 219.1 Q294.55 217.35 298.35 211.7 301.6 206.95 297.9 202.6 295.8 200.6 292.3 200.0 L292.2 200.0 Q283.5 198.8 279.65 206.5 L279.25 207.5 Q278.5 209.9 278.85 212.85 M294.5 217.8 L286.95 221.4 Q285.6 222.0 284.45 222.85 283.25 223.8 282.55 225.1 280.0 229.5 276.3 232.85 L277.15 233.5 Q278.7 234.9 279.0 236.9 L282.25 235.75 Q286.55 236.1 290.2 234.1 291.15 231.1 292.55 228.1 293.8 225.4 296.8 225.0 300.8 224.9 299.4 228.6 303.25 228.0 305.95 230.7 306.45 231.25 306.45 232.25 306.55 236.15 302.75 237.15 297.5 238.7 292.3 237.7 288.75 242.2 283.3 243.4 275.05 245.2 267.7 241.0 266.45 240.25 265.9 238.9 L263.75 233.2 Q261.45 226.85 265.5 221.65 L266.65 219.45 Q269.5 210.65 278.0 207.1 278.7 204.8 280.45 202.85 285.55 197.35 293.1 198.6 297.75 199.25 300.2 203.25 302.5 207.05 300.9 211.1 299.0 215.8 294.5 217.8 M297.2 229.3 Q298.4 228.1 298.5 226.65 L298.5 226.55 Q298.3 226.0 297.55 225.9 L296.45 225.95 Q294.0 227.3 292.95 230.0 L292.4 231.15 291.8 234.05 297.2 229.3 M293.55 234.4 L292.6 235.2 292.7 236.2 Q297.4 236.85 302.0 236.05 305.45 235.25 305.1 231.75 303.05 229.1 299.55 230.45 296.3 231.85 293.55 234.4 M253.1 222.15 L252.2 221.55 251.35 220.45 246.95 222.25 Q243.55 223.85 244.25 225.25 L244.5 225.6 Q246.5 227.45 249.1 225.6 249.6 225.25 250.15 225.0 252.25 223.7 253.25 222.3 L253.1 222.15 M249.05 230.2 Q252.8 231.45 254.25 227.5 L255.5 223.35 255.5 222.95 254.4 222.65 252.2 225.15 249.4 226.85 249.3 227.15 Q248.45 229.4 249.05 230.2 M216.15 208.85 L215.65 208.7 214.65 208.5 Q207.25 207.2 201.6 202.15 L200.15 200.75 198.35 196.55 190.2 198.0 189.95 198.95 197.65 202.65 Q197.0 207.95 194.4 212.65 196.05 215.5 199.1 216.3 L207.05 216.55 210.15 216.45 Q211.85 216.55 213.25 217.2 L214.8 218.0 214.85 218.05 Q216.9 219.55 217.85 222.05 219.9 220.1 221.3 217.3 223.45 212.85 219.75 209.85 L216.45 208.9 216.15 208.85" fill="#000000" fill-rule="evenodd" stroke="none"/>
    <path d="M213.7 219.5 Q212.55 222.8 210.05 225.3 207.25 228.25 203.0 226.85 206.75 223.1 209.3 218.55 L209.35 218.3 212.2 218.75 Q213.0 219.05 213.7 219.5 M198.65 225.85 L191.6 223.9 194.55 221.45 198.0 217.9 206.1 218.25 Q204.85 219.1 203.05 220.85 199.95 224.05 198.65 225.85 M138.1 211.4 L132.3 210.05 Q133.25 208.0 134.1 203.75 L134.35 203.7 Q136.95 204.15 139.8 206.1 L138.1 211.4 M128.75 209.4 L123.95 208.45 Q118.95 207.45 116.75 206.35 L117.7 206.15 Q124.5 203.95 131.6 203.5 L130.95 204.4 Q128.75 207.85 128.75 209.4 M114.1 205.6 L109.5 204.75 107.3 195.75 107.15 194.55 106.55 191.95 Q106.1 190.5 105.45 189.55 L105.5 189.55 106.35 189.65 117.2 192.85 117.2 194.55 Q117.4 199.2 119.3 203.55 L119.6 204.2 114.1 205.6 M96.25 202.25 Q92.35 204.95 89.2 201.25 L87.8 201.35 Q84.8 201.95 83.9 199.1 L84.15 198.95 95.35 201.55 95.65 202.05 Q95.9 202.25 96.25 202.25 M84.7 196.8 Q84.65 195.45 83.85 194.2 L83.0 193.05 Q87.25 192.1 91.35 190.65 L92.15 190.2 94.35 194.8 Q87.5 195.5 84.75 196.6 L84.7 196.8 M80.9 190.85 L79.7 189.35 90.05 186.7 91.05 188.55 80.9 190.85 M79.9 182.45 Q80.85 180.25 80.0 178.05 L79.6 177.1 79.75 177.25 82.55 176.7 Q86.5 175.75 90.1 174.1 L90.2 174.3 Q91.25 177.4 90.15 180.5 88.5 179.95 83.2 181.45 L82.55 181.65 79.9 182.45 M184.55 157.35 L195.05 162.05 192.7 165.25 193.1 164.6 Q188.95 162.05 184.15 160.95 L184.55 157.35 M189.25 168.2 L185.85 169.3 Q184.5 168.3 179.45 166.8 L178.35 166.5 178.55 166.5 Q180.75 166.5 182.2 165.25 L189.25 168.2 M181.85 170.65 L181.75 170.7 Q179.4 172.05 178.55 174.75 173.4 173.5 168.3 173.3 L167.45 173.35 Q167.75 171.6 168.35 170.1 169.05 168.35 170.45 167.4 L181.85 170.65 M180.2 184.95 L179.9 183.4 Q179.5 179.45 179.9 177.1 L182.55 177.25 Q181.0 180.55 180.35 183.95 L180.2 184.95 M184.1 177.55 L185.4 177.8 181.85 187.7 181.2 187.15 180.7 186.65 181.0 186.1 Q183.3 182.1 184.1 177.55 M185.05 186.2 L184.7 186.6 184.8 186.2 185.05 186.2 M173.05 182.55 L167.45 194.05 Q164.9 192.2 162.25 191.45 165.45 186.8 167.25 181.5 L167.3 181.1 Q170.4 181.3 173.05 182.55 M177.2 200.05 L182.1 189.85 183.2 190.65 Q185.35 191.9 187.75 191.85 185.45 196.85 185.3 202.0 185.3 202.3 185.45 202.6 L177.2 200.05 M188.05 201.1 L187.85 203.8 187.25 203.5 188.05 201.1 M163.4 181.05 L159.45 190.15 160.25 191.05 159.75 191.0 Q157.05 190.65 154.55 191.6 L156.7 182.8 163.4 181.05 M193.85 183.35 Q194.05 189.1 196.55 194.2 L196.9 194.9 190.15 196.3 Q190.55 193.15 191.2 190.7 191.35 190.25 190.95 189.9 L190.05 189.75 Q187.3 190.7 184.4 189.35 185.65 186.65 189.4 184.9 191.45 183.95 193.85 183.35 M200.75 194.35 L197.55 182.7 207.35 183.0 212.65 193.2 200.75 194.35 M196.8 182.8 Q196.4 183.2 196.25 183.75 L195.4 183.05 196.8 182.8 M217.3 172.05 L220.1 172.35 224.05 173.25 Q225.35 178.25 227.8 182.85 L228.15 183.45 223.5 183.7 217.3 172.05 M220.35 184.4 L218.0 185.85 Q216.7 179.9 212.25 175.6 L211.8 175.2 Q212.15 174.05 212.65 173.6 L213.9 172.75 Q216.3 178.8 220.05 184.0 L220.35 184.4 M220.8 190.5 Q222.35 190.75 224.1 191.5 221.25 194.85 219.55 198.95 L220.05 199.6 217.8 198.9 Q218.75 197.7 220.5 194.4 L222.25 190.85 220.8 190.5 M215.5 198.3 Q207.9 196.2 200.8 198.9 L199.65 196.3 214.65 194.45 216.65 190.75 219.15 190.4 215.5 198.3 M39.8 183.95 L40.95 182.95 Q41.95 182.2 43.0 181.7 L43.65 181.45 44.7 181.05 45.3 181.4 49.25 183.15 50.25 183.55 52.8 184.45 55.6 185.35 53.7 187.05 54.0 186.6 52.8 186.15 Q48.75 184.75 44.6 184.25 L39.8 183.95 M47.3 180.3 L49.1 179.95 52.8 179.45 Q55.4 178.85 57.65 177.4 L58.25 177.8 Q62.55 181.2 67.7 181.05 L67.1 181.55 Q63.55 183.4 59.6 184.25 L57.65 184.55 Q57.45 183.95 55.8 183.15 L52.8 181.95 51.05 181.3 47.3 180.3 M57.4 170.75 L56.8 169.0 Q56.45 167.15 57.55 165.75 L58.0 165.2 Q59.65 163.5 62.0 162.75 L61.95 163.3 Q64.9 165.75 68.35 166.9 67.7 167.85 67.35 169.0 66.85 170.55 67.4 172.9 L64.15 171.85 Q58.6 170.2 57.4 170.75 M46.15 146.4 L45.9 145.9 50.8 145.8 46.15 146.4 M55.9 148.1 L56.05 149.55 47.45 151.1 46.75 148.15 55.9 148.1 M57.4 153.5 L58.05 154.35 Q54.1 155.95 52.9 157.05 L50.5 155.65 Q53.3 154.2 56.4 153.7 L57.4 153.5 M59.95 156.6 L61.15 158.55 55.65 161.5 54.0 158.25 54.35 158.75 59.95 156.6 M57.5 163.75 L56.55 164.7 56.45 164.2 57.5 163.75 M34.95 160.4 L36.35 160.95 Q33.25 162.5 30.9 165.0 L30.6 165.4 29.2 164.4 34.95 160.4 M38.6 162.05 L38.7 162.1 Q40.55 163.25 41.3 165.45 L34.5 170.7 34.2 169.6 Q33.65 167.45 31.9 166.35 34.8 165.3 37.25 163.1 L38.6 162.05 M43.4 173.35 Q47.55 176.3 52.8 175.65 L54.15 175.4 56.95 174.8 Q56.25 176.75 54.15 177.2 L52.8 177.55 42.4 180.2 38.5 177.65 43.4 173.35 M25.7 162.3 L24.05 160.9 31.25 157.3 32.1 158.45 25.7 162.3 M122.0 148.0 L134.6 149.75 Q135.85 151.6 135.3 153.6 L129.6 152.6 122.8 152.15 Q122.7 150.4 122.0 148.0 M128.15 159.25 L125.1 160.4 Q125.8 160.0 124.35 159.85 L107.9 158.3 Q109.65 157.5 111.6 157.65 L119.85 157.35 128.15 159.25 M122.2 162.05 Q119.6 164.15 118.65 167.5 L112.05 166.55 101.6 165.9 Q102.05 163.8 103.05 162.2 103.8 161.0 105.05 160.0 112.3 161.7 119.85 161.9 L122.2 162.05 M99.0 176.4 L101.35 187.4 99.4 187.8 98.4 188.1 95.1 177.05 94.6 177.2 Q96.0 176.7 97.35 176.55 L99.0 176.4 M105.15 187.65 Q104.5 182.45 102.5 177.6 L102.2 176.8 116.85 181.4 Q117.0 186.25 118.8 190.95 L118.9 191.4 116.55 191.05 115.4 190.8 Q109.85 188.8 106.55 188.0 L106.45 187.95 105.15 187.65 M123.6 180.75 L127.55 179.0 Q128.3 184.35 130.75 189.15 L131.15 189.85 127.3 190.95 123.6 180.75 M94.15 190.65 L94.3 190.8 94.2 190.85 94.15 190.65 M123.7 193.05 L125.65 193.05 127.2 194.55 Q129.95 197.65 131.05 201.85 L125.95 202.45 123.4 193.45 123.7 193.05 M149.65 171.9 Q151.5 172.1 153.05 172.65 L156.2 174.25 154.0 178.7 Q152.3 176.25 147.95 175.8 L149.65 171.9 M146.35 175.7 L144.45 175.7 Q140.6 175.8 137.55 177.15 L138.5 182.7 134.3 180.65 137.45 171.2 137.25 171.15 146.85 171.55 Q145.75 173.5 146.15 175.6 L146.35 175.7 M131.3 178.85 Q130.15 177.5 128.45 177.3 L126.75 177.45 Q127.85 175.25 129.9 169.45 L130.1 169.45 134.2 170.7 Q131.65 174.25 131.25 178.65 L131.3 178.85 M139.55 178.9 L144.25 179.7 150.55 180.3 Q152.05 180.15 152.2 179.2 L152.75 179.95 Q154.5 182.8 152.15 185.65 146.35 185.8 140.65 186.85 L139.95 187.1 140.05 185.8 Q140.25 182.35 139.55 178.9 M149.3 192.7 L150.75 197.15 140.8 198.25 140.75 198.25 140.4 198.75 139.95 192.95 149.3 192.7 M152.4 199.8 L153.9 204.15 150.65 205.8 Q147.5 207.25 144.4 207.65 L140.8 204.8 140.75 204.75 140.65 201.3 140.8 201.3 151.85 200.05 152.4 199.8 M127.95 192.95 L127.6 192.65 128.05 192.55 127.95 192.95 M151.25 193.5 L151.2 193.5 151.15 193.4 151.25 193.5 M153.45 192.05 Q153.25 192.1 153.1 192.25 L153.1 192.05 153.45 192.05 M157.9 203.1 L162.4 198.95 Q163.3 205.15 166.3 210.7 L166.85 211.5 162.3 213.45 162.8 213.15 157.9 203.1 M164.0 198.15 L168.45 197.15 169.65 198.1 Q174.1 201.95 180.0 202.8 178.0 205.55 177.45 209.05 L177.5 209.3 176.4 209.15 Q173.0 209.0 169.75 210.3 L164.95 198.05 164.65 198.7 164.0 198.15 M151.15 213.8 L151.05 213.7 151.2 213.75 151.15 213.8 M216.15 208.85 L215.4 209.2 215.65 208.7 216.15 208.85 M214.65 208.5 Q209.85 211.4 206.95 216.0 L207.05 216.55 199.1 216.3 Q196.05 215.5 194.4 212.65 197.0 207.95 197.65 202.65 199.1 202.45 199.85 201.15 L200.15 200.75 201.6 202.15 Q207.25 207.2 214.65 208.5 M210.15 216.45 L216.55 209.6 216.45 208.9 219.75 209.85 Q218.25 210.8 215.8 213.85 L213.25 217.2 Q211.85 216.55 210.15 216.45 M214.85 218.05 L214.8 218.0 214.9 217.9 214.85 218.05 M201.8 199.95 L201.8 200.25 201.6 200.0 201.8 199.95 M184.85 218.7 L184.5 217.5 Q183.75 214.35 181.65 211.7 L190.2 214.8 184.85 218.7" fill="#52a001" fill-rule="evenodd" stroke="none"/>
    <path d="M356.25 196.4 L355.3 196.6 Q357.4 198.4 358.0 201.0 L358.0 201.75 Q355.95 201.35 354.6 202.6 L355.35 203.25 356.75 202.8 Q358.4 205.15 358.7 208.0 L358.65 208.4 Q357.4 209.85 355.35 210.7 355.05 210.55 354.8 210.85 L353.15 210.0 Q353.05 211.15 353.45 212.1 354.4 214.55 354.0 217.05 353.3 221.6 348.55 222.0 L344.4 219.1 343.75 219.7 Q344.0 227.1 337.55 230.45 331.85 233.55 325.5 231.05 324.65 228.95 325.5 226.2 326.75 228.2 329.55 227.85 332.5 227.95 335.2 226.7 338.5 225.1 339.45 221.4 340.15 218.8 338.5 217.05 L343.2 215.05 Q344.05 217.55 346.9 216.45 351.55 214.55 350.3 209.9 L348.05 209.4 Q348.75 208.1 349.25 207.55 351.5 210.05 353.9 207.7 356.15 205.5 354.15 203.0 L351.75 203.35 Q349.6 201.75 349.4 198.75 348.25 198.45 346.95 199.05 344.25 200.1 341.45 199.5 L340.45 199.6 Q338.4 200.65 336.35 200.2 L336.8 198.95 337.35 199.35 Q340.2 196.9 344.0 197.0 L346.4 196.6 352.6 196.4 Q354.1 196.9 355.15 195.9 L356.25 196.4 M361.15 203.85 L361.35 203.35 361.4 203.95 361.3 204.1 361.15 203.85 M377.3 229.65 Q378.8 230.8 379.7 232.5 378.25 233.0 377.8 234.45 377.65 234.8 378.1 235.0 378.5 235.15 378.7 234.85 379.8 233.2 383.25 233.7 L383.15 234.65 384.6 237.9 Q385.95 241.0 384.6 243.95 386.7 247.55 387.1 251.5 387.55 255.6 385.1 258.8 L385.0 258.75 384.55 257.85 384.15 257.7 Q381.7 259.95 381.95 263.5 L381.6 264.55 Q380.3 266.3 378.35 266.85 L378.2 267.8 Q376.3 267.5 375.25 265.9 374.0 263.95 375.75 262.2 377.85 260.1 380.45 258.55 L381.25 250.75 Q381.55 247.8 380.25 245.05 377.75 239.55 371.5 238.75 375.1 237.1 374.0 233.4 L373.7 232.5 Q371.0 233.9 369.05 236.5 L362.35 235.4 361.45 236.0 361.35 236.55 Q361.65 238.95 363.0 241.15 362.25 246.2 357.65 247.95 L355.35 248.45 353.35 247.85 353.05 247.15 354.55 247.35 Q355.6 247.3 356.25 246.5 360.55 240.8 360.15 233.4 L360.85 232.9 365.75 233.55 366.35 232.8 367.95 233.8 368.55 233.1 366.45 231.5 Q371.2 229.2 376.15 231.9 L376.5 231.9 377.4 231.15 377.3 229.65 M386.85 260.7 L386.15 261.35 385.95 260.65 386.85 260.7 M366.8 239.95 L366.5 240.25 366.35 240.0 366.8 239.95 M381.85 235.6 Q380.45 234.85 378.95 235.35 377.7 238.5 380.85 239.9 382.25 239.95 382.9 238.8 384.2 236.7 381.85 235.6 M360.0 215.25 L358.75 216.45 358.75 215.85 360.0 215.25 M348.05 227.95 L347.3 228.3 347.4 227.85 348.05 227.95 M328.4 234.4 L328.15 234.1 328.4 234.1 328.4 234.4 M385.35 249.75 Q385.05 246.75 383.05 247.35 381.05 247.85 381.4 251.25 L381.55 252.75 Q382.0 254.15 383.4 254.0 384.35 253.9 384.95 252.25 385.5 250.85 385.35 249.75 M380.0 260.85 L378.85 260.75 Q376.0 261.75 376.1 264.8 L376.85 265.8 Q379.2 266.6 380.2 264.35 381.7 262.35 380.0 260.85 M237.85 188.15 Q239.55 187.3 241.4 187.85 242.35 188.1 243.55 188.8 L242.6 189.45 242.4 195.95 Q242.15 200.6 238.2 202.7 L236.7 203.3 Q234.55 203.55 234.25 205.45 231.95 203.5 231.6 200.05 L231.5 198.85 Q232.15 200.1 233.75 199.95 236.5 199.65 238.2 195.2 239.45 191.65 239.3 189.95 239.1 188.15 237.85 188.15 M246.0 190.2 L246.55 189.55 244.5 187.85 Q248.3 188.95 251.35 186.25 L251.15 185.2 250.25 184.55 Q254.8 185.35 256.75 188.95 255.85 189.25 255.35 190.05 L254.3 189.75 Q251.55 191.3 248.5 191.9 L246.0 190.2 M243.75 187.45 L241.75 186.6 243.25 185.5 243.75 187.45 M255.8 191.3 L256.0 191.2 Q258.15 189.2 261.1 190.4 260.85 191.35 261.0 192.25 260.05 189.65 257.7 190.65 256.55 192.7 257.55 194.4 L258.15 194.85 Q261.1 195.8 261.05 192.5 L261.65 193.9 Q263.35 196.55 262.05 199.35 L262.3 200.2 262.25 200.7 262.8 207.4 Q262.85 211.1 260.15 213.35 L259.75 216.1 Q259.3 221.2 254.25 221.3 253.4 221.3 252.8 220.55 252.15 219.75 252.15 218.65 254.5 220.45 256.45 218.2 258.45 215.9 256.25 214.1 L257.6 213.15 258.05 208.5 Q258.5 209.5 259.65 209.4 262.05 209.15 261.9 205.15 261.5 201.3 259.45 201.7 258.6 201.9 258.15 202.7 257.9 200.65 257.0 199.15 L255.8 197.65 Q256.55 196.05 255.25 193.7 L255.1 193.35 255.8 191.3 M264.85 200.55 L264.9 201.1 263.8 200.45 264.35 200.75 264.85 200.55 M263.05 215.45 L262.85 215.65 262.75 215.35 263.05 215.45 M253.25 195.9 L252.4 195.55 253.2 194.95 253.25 195.9 M248.5 194.85 L246.85 194.9 246.85 194.3 248.35 194.5 248.5 194.85 M244.6 202.05 Q244.15 204.1 242.4 205.45 L244.6 202.05 M297.9 202.6 L296.8 202.15 Q296.25 202.45 296.35 203.1 296.85 207.1 294.85 210.45 293.4 212.85 290.6 213.5 285.4 214.55 280.45 212.75 L278.85 212.85 Q278.5 209.9 279.25 207.5 283.0 210.45 287.75 208.2 291.3 206.55 292.65 203.0 293.25 201.5 292.2 200.0 L292.3 200.0 Q295.8 200.6 297.9 202.6 M278.9 215.5 Q281.2 219.1 278.5 222.2 L277.5 223.0 Q274.85 224.4 271.8 223.65 L270.4 224.3 270.35 224.95 Q268.6 222.9 268.7 220.3 269.05 219.95 268.8 219.55 L269.1 218.35 Q270.3 220.15 272.2 219.35 276.25 217.4 277.8 213.0 L278.45 215.55 278.9 215.5 M270.75 226.85 Q272.1 230.1 269.9 232.6 268.95 233.6 268.45 234.8 L268.0 234.55 Q265.7 233.0 264.65 230.65 268.75 229.8 268.95 225.5 L268.75 225.3 270.75 226.85 M272.5 234.95 Q273.7 234.65 274.8 233.95 L276.0 234.45 Q272.9 235.0 273.95 238.1 274.3 239.15 275.25 238.85 276.9 238.6 277.5 236.95 L278.25 238.6 288.4 236.45 Q284.05 240.75 278.25 239.6 277.95 239.7 277.7 239.85 L277.25 240.75 273.6 240.6 273.2 240.95 273.05 241.4 273.5 242.0 Q266.35 240.9 265.75 234.15 L266.75 235.0 Q270.0 237.55 272.5 234.95 M285.65 220.05 L286.25 218.95 287.95 219.1 285.65 220.05 M277.65 208.95 L277.55 208.85 277.7 208.75 277.65 208.95 M267.1 221.75 L267.2 221.6 267.2 221.7 267.1 221.75" fill="#ffe6e6" fill-rule="evenodd" stroke="none"/>
    <path d="M333.9 199.7 L326.55 201.6 Q323.25 202.7 322.2 203.85 321.2 200.45 324.8 199.55 329.3 198.6 333.9 199.7 M329.1 209.75 L328.25 209.4 Q327.5 208.15 328.65 207.05 330.6 205.25 332.55 203.85 L329.1 209.75 M298.5 226.55 L298.5 226.65 Q298.4 228.1 297.2 229.3 L298.5 226.55 M292.4 231.15 L292.95 230.0 Q294.0 227.3 296.45 225.95 295.6 229.05 292.75 230.85 L292.4 231.15 M305.1 231.75 Q299.6 231.5 294.7 233.85 L293.55 234.4 Q296.3 231.85 299.55 230.45 303.05 229.1 305.1 231.75 M253.1 222.15 L253.25 222.3 Q252.25 223.7 250.15 225.0 252.8 222.85 253.1 222.15 M244.5 225.6 L244.25 225.25 Q243.55 223.85 246.95 222.25 L251.35 220.45 252.2 221.55 Q250.05 222.3 248.2 223.15 245.3 224.45 244.5 225.6 M252.2 225.15 L249.05 230.2 Q248.45 229.4 249.3 227.15 L249.4 226.85 252.2 225.15" fill="#cc3333" fill-rule="evenodd" stroke="none"/>
    <path d="M358.0 201.75 L358.0 201.0 Q357.4 198.4 355.3 196.6 L356.25 196.4 356.5 196.45 Q360.95 198.45 361.35 203.35 L361.15 203.85 359.3 202.25 358.0 201.75 M325.5 231.05 Q331.85 233.55 337.55 230.45 344.0 227.1 343.75 219.7 L344.4 219.1 348.55 222.0 Q353.3 221.6 354.0 217.05 354.4 214.55 353.45 212.1 353.05 211.15 353.15 210.0 L354.8 210.85 Q356.4 213.35 357.0 216.25 L357.2 217.6 356.9 218.0 357.0 218.45 Q353.45 223.95 348.05 227.95 L347.4 227.85 Q347.9 225.75 347.85 223.5 347.85 221.9 346.65 221.5 L346.55 226.15 Q346.3 230.7 342.7 233.45 335.9 238.7 328.4 234.4 L328.4 234.1 328.15 234.1 Q327.0 233.35 326.2 232.25 L325.5 231.05 M355.35 210.7 Q357.4 209.85 358.65 208.4 L358.7 208.0 Q358.4 205.15 356.75 202.8 360.2 203.15 361.5 206.6 363.35 211.3 360.0 215.25 L358.75 215.85 358.5 214.85 Q357.7 212.2 355.35 210.7 M383.25 233.7 Q386.85 234.7 387.8 238.5 388.7 242.0 388.35 245.5 L386.25 244.45 385.55 244.75 Q387.65 246.6 389.3 248.8 391.25 251.5 390.35 255.05 389.55 258.35 386.85 260.7 L385.95 260.65 385.1 258.8 Q387.55 255.6 387.1 251.5 386.7 247.55 384.6 243.95 385.95 241.0 384.6 237.9 L383.15 234.65 383.25 233.7 M385.0 258.75 L384.2 259.3 Q386.6 263.8 383.0 267.0 380.9 268.75 378.2 267.8 L378.35 266.85 Q380.3 266.3 381.6 264.55 L381.95 263.5 Q381.7 259.95 384.15 257.7 L384.55 257.85 385.0 258.75 M371.5 238.75 Q368.95 238.4 367.2 239.65 L366.8 239.95 366.35 240.0 366.5 240.25 Q365.85 241.1 366.2 242.3 366.8 244.65 366.2 246.9 365.05 251.35 360.4 252.05 355.7 252.15 353.35 247.85 L355.35 248.45 357.65 247.95 Q362.25 246.2 363.0 241.15 361.65 238.95 361.35 236.55 L361.45 236.0 362.35 235.4 369.05 236.5 Q371.0 233.9 373.7 232.5 L374.0 233.4 Q375.1 237.1 371.5 238.75 M234.25 205.45 Q234.55 203.55 236.7 203.3 L238.2 202.7 Q242.15 200.6 242.4 195.95 L242.6 189.45 243.55 188.8 246.0 190.2 248.5 191.9 Q251.55 191.3 254.3 189.75 L255.35 190.05 255.1 191.1 255.8 191.3 255.1 193.35 255.25 193.7 Q256.55 196.05 255.8 197.65 L253.25 195.9 253.2 194.95 252.4 195.55 248.5 194.85 248.35 194.5 246.85 194.3 246.85 194.9 Q246.2 195.15 245.9 195.65 244.2 198.3 244.6 202.05 L242.4 205.45 241.75 205.95 Q237.9 208.4 234.25 205.45 M261.1 190.4 L261.85 191.0 Q265.45 194.85 264.85 200.55 L264.35 200.75 263.8 200.45 262.9 200.0 Q262.65 199.95 262.3 200.2 L262.05 199.35 Q263.35 196.55 261.65 193.9 L261.05 192.5 261.0 192.25 Q260.85 191.35 261.1 190.4 M262.25 200.7 Q267.05 203.0 266.8 208.05 266.6 212.55 263.05 215.45 L262.75 215.35 261.4 213.3 Q261.65 216.0 261.25 218.6 261.05 219.9 259.85 220.8 257.3 222.75 254.25 221.3 259.3 221.2 259.75 216.1 L260.15 213.35 Q262.85 211.1 262.8 207.4 L262.25 200.7 M278.85 212.85 L280.45 212.75 Q285.4 214.55 290.6 213.5 293.4 212.85 294.85 210.45 296.85 207.1 296.35 203.1 296.25 202.45 296.8 202.15 L297.9 202.6 Q301.6 206.95 298.35 211.7 294.55 217.35 287.95 219.1 L286.25 218.95 285.65 220.05 Q280.0 223.15 277.35 229.2 276.35 231.4 274.5 232.95 L274.8 233.95 Q273.7 234.65 272.5 234.95 L268.45 234.8 Q268.95 233.6 269.9 232.6 272.1 230.1 270.75 226.85 L271.65 226.5 270.35 224.95 270.4 224.3 271.8 223.65 Q274.85 224.4 277.5 223.0 L278.5 222.2 Q281.2 219.1 278.9 215.5 L278.85 212.85 M288.4 236.45 L290.95 235.7 Q290.1 239.25 286.85 240.6 280.4 243.25 273.5 242.0 L273.05 241.4 273.2 240.95 273.6 240.6 277.25 240.75 277.7 239.85 Q277.95 239.7 278.25 239.6 284.05 240.75 288.4 236.45" fill="#edd4d4" fill-rule="evenodd" stroke="none"/>
    <path d="M355.15 195.9 Q354.1 196.9 352.6 196.4 L346.4 196.6 344.0 197.0 Q340.2 196.9 337.35 199.35 L336.8 198.95 Q344.2 193.3 353.35 195.45 L355.15 195.9 M351.75 203.35 L354.15 203.0 Q356.15 205.5 353.9 207.7 351.5 210.05 349.25 207.55 351.65 206.05 352.4 203.8 L351.75 203.35 M348.05 209.4 L350.3 209.9 Q351.55 214.55 346.9 216.45 344.05 217.55 343.2 215.05 L343.4 214.9 Q346.35 212.8 348.05 209.4 M338.5 217.05 Q340.15 218.8 339.45 221.4 338.5 225.1 335.2 226.7 332.5 227.95 329.55 227.85 326.75 228.2 325.5 226.2 326.05 224.15 327.65 222.65 332.35 218.35 338.5 217.05 M353.05 247.15 Q350.75 238.85 357.45 233.1 361.65 229.55 366.35 232.8 L365.75 233.55 360.85 232.9 360.15 233.4 Q360.55 240.8 356.25 246.5 355.6 247.3 354.55 247.35 L353.05 247.15 M366.45 231.5 L363.5 229.9 364.4 229.25 Q370.85 225.45 377.3 229.65 L377.4 231.15 376.5 231.9 376.15 231.9 Q371.2 229.2 366.45 231.5 M381.85 235.6 Q384.2 236.7 382.9 238.8 382.25 239.95 380.85 239.9 377.7 238.5 378.95 235.35 380.45 234.85 381.85 235.6 M385.35 249.75 Q385.5 250.85 384.95 252.25 384.35 253.9 383.4 254.0 382.0 254.15 381.55 252.75 L381.4 251.25 Q381.05 247.85 383.05 247.35 385.05 246.75 385.35 249.75 M380.0 260.85 Q381.7 262.35 380.2 264.35 379.2 266.6 376.85 265.8 L376.1 264.8 Q376.0 261.75 378.85 260.75 L380.0 260.85 M237.85 188.15 Q239.1 188.15 239.3 189.95 239.45 191.65 238.2 195.2 236.5 199.65 233.75 199.95 232.15 200.1 231.5 198.85 L231.65 197.45 Q232.45 191.15 237.85 188.15 M244.5 187.85 L243.75 187.45 243.25 185.5 243.6 185.35 Q246.75 183.85 250.25 184.55 L251.15 185.2 251.35 186.25 Q248.3 188.95 244.5 187.85 M252.15 218.65 Q252.15 217.25 254.0 215.6 254.65 215.05 256.25 214.1 258.45 215.9 256.45 218.2 254.5 220.45 252.15 218.65 M258.05 208.5 L258.15 202.7 Q258.6 201.9 259.45 201.7 261.5 201.3 261.9 205.15 262.05 209.15 259.65 209.4 258.5 209.5 258.05 208.5 M261.05 192.5 Q261.1 195.8 258.15 194.85 L257.55 194.4 Q256.55 192.7 257.7 190.65 260.05 189.65 261.0 192.25 L261.05 192.5 M292.2 200.0 Q293.25 201.5 292.65 203.0 291.3 206.55 287.75 208.2 283.0 210.45 279.25 207.5 L279.65 206.5 Q283.5 198.8 292.2 200.0 M277.55 208.85 L277.65 208.95 Q277.45 210.9 277.8 213.0 276.25 217.4 272.2 219.35 270.3 220.15 269.1 218.35 269.4 217.15 270.1 216.0 272.7 211.35 277.55 208.85 M267.1 221.75 L267.2 221.7 268.75 225.3 268.95 225.5 Q268.75 229.8 264.65 230.65 L264.45 229.9 Q263.65 225.1 267.1 221.75 M277.5 236.95 Q276.9 238.6 275.25 238.85 274.3 239.15 273.95 238.1 272.9 235.0 276.0 234.45 276.6 234.45 277.05 235.2 277.5 235.9 277.5 236.95" fill="#fff8f8" fill-rule="evenodd" stroke="none"/>
    <path d="M333.9 199.7 L334.45 199.8 334.15 201.1 Q333.0 201.9 332.0 202.85 327.35 207.3 322.2 203.85 323.25 202.7 326.55 201.6 L333.9 199.7 M332.55 203.85 L335.25 202.0 Q334.45 206.15 331.65 208.9 330.6 209.9 329.1 209.75 L332.55 203.85 M298.5 226.55 L297.2 229.3 291.8 234.05 292.4 231.15 292.75 230.85 Q295.6 229.05 296.45 225.95 L297.55 225.9 Q298.3 226.0 298.5 226.55 M305.1 231.75 Q305.45 235.25 302.0 236.05 297.4 236.85 292.7 236.2 L292.6 235.2 293.55 234.4 294.7 233.85 Q299.6 231.5 305.1 231.75 M252.2 221.55 L253.1 222.15 Q252.8 222.85 250.15 225.0 249.6 225.25 249.1 225.6 246.5 227.45 244.5 225.6 245.3 224.45 248.2 223.15 250.05 222.3 252.2 221.55 M252.2 225.15 L254.4 222.65 255.5 222.95 255.5 223.35 254.25 227.5 Q252.8 231.45 249.05 230.2 L252.2 225.15" fill="#a80f0f" fill-rule="evenodd" stroke="none"/>
    <path d="M26.2 156.15 L25.15 156.65 22.35 155.4 24.85 156.85 23.05 157.75 22.5 157.35 Q21.25 156.6 20.2 157.05 L19.8 158.4 21.4 158.85 21.35 159.15 Q23.0 162.5 26.35 164.45 L25.95 164.75 26.3 164.85 26.0 165.25 Q22.2 169.5 17.75 173.15 L11.2 172.55 17.6 173.25 13.9 176.85 Q10.25 175.35 6.3 175.4 L4.4 175.5 3.8 176.25 1.6 173.4 1.05 173.7 1.0 174.45 2.9 176.35 Q8.2 176.25 13.35 177.35 L11.2 179.5 4.2 178.05 4.65 179.15 Q5.5 181.2 4.3 182.75 L3.8 181.5 2.4 181.85 Q1.9 178.7 -0.7 177.25 -0.5 179.0 -1.4 180.65 L-3.6 177.35 -10.35 175.05 Q-7.9 176.95 -8.35 179.95 L-12.3 177.15 -14.05 179.1 -15.15 178.1 -14.85 177.1 -23.8 173.65 -24.35 175.4 -27.0 177.05 Q-28.4 174.95 -30.45 173.8 L-31.35 175.35 Q-36.8 170.7 -42.95 166.9 L-43.85 166.9 -43.0 167.5 Q-41.5 168.55 -40.7 170.0 -40.2 170.65 -39.9 171.65 -39.65 172.6 -40.0 173.5 L-40.25 174.2 -41.95 173.0 -41.8 173.05 -42.55 172.2 -42.7 172.15 Q-45.15 169.0 -48.4 167.1 -51.3 165.4 -54.85 164.7 L-55.35 165.5 -53.75 165.1 -52.15 165.7 Q-48.4 167.3 -49.25 170.55 L-49.4 170.5 -54.25 166.7 -55.2 168.5 -56.9 168.95 Q-59.05 169.05 -60.45 167.45 L-61.05 167.95 Q-65.25 164.75 -70.15 162.8 L-68.65 162.3 Q-67.1 161.8 -65.65 162.75 L-66.8 161.4 -70.75 160.95 -70.0 161.85 -70.15 162.65 -70.75 162.85 -71.95 164.5 -73.3 162.75 -74.6 162.7 Q-79.7 162.25 -82.9 159.45 L-79.65 159.15 -82.5 157.45 -86.9 157.65 -86.65 159.1 -85.4 160.5 Q-84.9 161.2 -84.55 162.05 L-85.05 162.5 -85.5 162.55 Q-90.35 158.3 -96.7 157.35 L-97.6 159.3 -99.0 157.2 -98.9 158.25 -99.3 158.95 -100.8 158.65 -102.7 155.4 -103.0 156.55 Q-104.95 156.1 -106.8 153.6 L-107.55 154.0 -117.4 147.9 -118.1 148.25 -118.95 147.45 -112.05 142.7 -112.55 142.75 Q-110.85 141.9 -109.15 142.5 L-106.2 141.15 Q-108.95 140.4 -111.35 140.5 L-112.6 141.4 -116.8 140.9 -117.0 140.05 Q-114.85 138.8 -112.3 139.3 L-111.7 137.6 -110.95 137.95 Q-106.75 137.45 -102.9 135.5 L-100.2 136.7 -97.8 134.75 -100.4 133.65 -99.05 133.65 Q-98.15 133.55 -97.3 132.45 -98.1 131.8 -99.05 131.4 -97.4 131.45 -95.65 132.95 L-95.0 133.6 -94.4 133.5 -95.95 131.7 -94.9 131.7 Q-94.1 130.6 -95.35 129.8 -98.4 127.65 -102.35 127.6 -104.3 127.55 -105.75 128.7 L-106.7 128.3 -106.6 127.65 -103.8 126.9 -101.45 127.45 -104.95 122.85 -104.9 122.15 -103.25 122.45 -99.2 126.95 -98.95 127.65 -98.35 127.9 Q-94.35 126.45 -89.8 127.3 -89.0 127.55 -89.7 126.75 L-88.9 126.85 -94.35 122.9 -97.45 122.7 -98.0 121.3 -97.9 121.15 Q-94.8 122.9 -91.25 122.9 L-91.15 122.15 -91.75 121.25 -89.6 122.5 -86.0 125.55 -85.55 123.9 -82.4 119.7 -81.9 119.6 -84.5 126.4 -83.85 126.95 -82.4 124.7 -82.85 126.4 -82.1 125.75 Q-76.85 120.95 -69.9 121.05 L-69.5 121.7 -69.2 121.15 Q-68.3 119.1 -66.3 117.8 L-66.05 118.65 -68.85 124.45 -69.3 124.65 -69.45 125.45 -69.55 125.5 Q-68.3 126.75 -67.25 125.9 L-67.45 126.55 Q-64.3 124.6 -60.75 123.5 -57.8 122.55 -57.1 124.9 L-65.2 127.9 Q-68.05 126.05 -71.45 126.0 -73.55 126.0 -74.7 127.25 L-74.6 128.25 Q-69.35 129.4 -64.1 129.4 L-64.1 128.85 -65.15 127.9 -64.15 127.85 -64.35 127.9 Q-60.05 128.95 -56.8 132.0 L-56.3 130.1 -56.05 130.3 -54.9 127.75 Q-53.5 127.25 -53.15 125.3 L-53.3 125.3 -51.7 123.3 Q-51.15 123.45 -51.2 124.1 -51.55 127.25 -53.3 129.9 -54.05 131.05 -53.3 131.0 L-53.65 131.65 -51.35 131.1 -48.05 126.5 -43.4 122.8 -42.5 123.3 -47.9 129.65 Q-45.7 130.75 -43.7 132.2 -42.2 133.4 -41.15 135.1 L-36.55 131.55 Q-37.65 132.5 -37.75 133.45 L-36.5 133.6 Q-31.4 132.15 -30.45 130.35 -32.5 129.25 -34.5 130.1 -31.35 128.15 -27.55 128.3 L-27.05 128.85 Q-26.1 129.8 -26.25 131.05 L-28.3 131.2 Q-31.95 131.65 -33.8 133.0 L-35.2 133.95 -33.7 134.05 Q-30.05 134.3 -27.65 136.55 L-27.85 138.45 -24.65 137.5 -23.2 138.4 Q-20.65 137.6 -17.9 137.55 -15.4 135.4 -12.05 134.85 L-8.0 135.05 -7.45 134.3 -7.15 134.4 -4.8 136.9 Q-8.6 136.55 -8.45 138.3 L-8.4 138.75 -7.15 139.25 -8.95 139.3 -5.7 139.65 5.1 141.85 5.5 140.8 5.35 140.45 Q3.75 138.0 0.4 137.9 4.75 137.35 8.85 138.6 L8.9 135.25 10.65 137.75 9.25 138.15 10.75 139.25 10.3 142.65 12.9 144.55 13.45 146.75 14.75 146.55 15.0 146.85 14.75 146.9 Q10.85 147.6 9.4 148.35 8.25 149.0 8.35 149.8 8.45 150.9 9.75 150.75 L17.15 149.7 17.85 150.65 Q19.9 149.5 22.0 149.35 L19.3 149.25 Q23.3 148.35 23.25 147.9 23.2 147.45 22.6 147.15 L22.45 147.35 25.25 141.55 Q25.8 142.45 25.7 143.55 25.55 145.4 25.8 146.55 L24.35 150.2 29.3 150.55 29.65 150.9 27.75 152.35 Q23.8 150.9 19.75 152.4 L18.95 152.7 Q22.15 152.3 25.25 153.35 L26.2 156.15 M-1.25 137.45 L-3.5 137.05 -3.3 135.75 -3.15 136.3 -2.55 129.75 -2.25 129.35 -0.7 130.9 -0.6 131.8 Q-0.3 134.75 -1.25 137.45 M-3.65 137.0 L-4.7 136.85 -4.25 136.75 -3.65 137.0 M-3.95 135.3 Q-5.35 131.45 -9.2 131.0 L-9.25 131.3 -10.0 130.35 -10.25 129.75 -10.15 128.95 -9.2 129.3 -3.9 134.1 -3.95 135.3 M16.5 146.3 Q17.55 144.85 17.9 143.1 18.35 140.75 19.9 140.7 L19.9 141.05 Q19.9 143.9 18.75 146.35 L19.75 146.25 21.35 146.8 16.35 146.55 16.5 146.3 M-113.0 132.5 L-114.2 131.25 -114.45 130.85 Q-114.5 130.15 -114.2 129.8 L-105.9 134.25 -105.3 133.0 -105.0 133.5 -102.5 133.65 -104.55 134.35 -105.9 134.25 -108.85 134.95 -113.0 132.5 M-21.75 133.05 L-21.5 132.55 -19.7 132.1 -19.6 132.3 Q-16.5 131.5 -16.2 133.5 -18.45 132.05 -21.75 133.05 M-16.7 134.2 L-17.0 134.55 -17.85 134.75 -16.7 134.2 M22.35 166.95 L21.7 166.8 21.8 167.55 22.75 167.7 22.35 166.95 M24.0 164.2 L25.2 164.5 Q24.3 163.5 22.85 162.7 L24.0 164.2 M12.75 160.75 L10.15 160.7 12.3 162.35 13.95 162.35 12.75 160.75 M16.65 160.55 L15.8 160.45 17.15 162.95 17.8 163.0 17.5 162.1 17.0 162.0 16.6 161.6 16.65 160.55 M19.75 154.45 L20.1 154.85 21.15 155.0 19.75 154.45 M6.95 148.5 Q3.4 144.75 -1.85 144.15 L-1.7 145.3 6.6 151.6 7.6 149.55 6.95 148.5 M2.05 153.85 Q0.35 150.2 -5.9 147.5 -12.2 144.75 -11.9 147.95 -11.95 147.5 -5.7 151.05 0.8 154.9 1.3 154.85 2.0 154.75 1.95 154.45 L2.05 153.85 M2.5 159.6 Q-0.6 155.35 -5.9 154.2 -7.75 153.75 -8.35 154.45 L1.9 160.0 2.5 159.6 M7.1 162.15 L7.0 162.05 Q6.5 161.9 7.1 162.15 M2.8 156.55 L4.2 157.25 Q6.9 157.5 9.7 157.2 L6.4 156.25 5.6 156.8 2.8 156.55 M4.0 166.25 L3.15 167.5 4.3 167.7 4.75 166.55 4.0 166.25 M3.6 164.3 L1.5 164.15 Q1.85 165.35 3.6 165.3 L3.8 165.2 3.6 164.3 M16.5 168.5 Q16.45 167.5 16.35 168.35 L16.5 168.5 M10.9 167.25 L13.5 167.7 Q12.75 166.45 11.25 165.15 L9.4 164.95 10.9 167.25 M17.55 166.3 L15.55 165.7 16.25 167.45 19.3 167.25 18.9 166.25 17.55 166.3 M2.9 169.4 L3.7 169.9 4.45 169.75 2.9 169.4 M-108.5 146.55 L-110.25 144.95 -114.15 147.2 -111.2 148.25 -110.75 146.95 -108.5 146.55 M-103.75 139.5 L-104.65 138.85 -106.35 139.05 -103.65 139.95 -103.75 139.5 M-109.1 144.9 Q-105.1 145.3 -100.65 144.85 -98.75 144.65 -98.35 143.8 -102.45 141.9 -106.1 142.1 -109.55 142.3 -109.35 143.95 L-109.1 144.9 M-103.1 145.95 L-103.95 146.65 -101.35 146.5 -101.85 146.1 -103.1 145.95 M-87.7 133.0 L-88.75 132.15 -91.35 131.85 -90.8 133.6 -87.7 133.0 M-77.15 133.05 L-81.15 130.65 -81.45 133.3 -75.15 136.05 -75.85 134.3 Q-73.95 136.25 -71.45 137.2 L-71.2 137.15 Q-74.0 132.3 -78.9 129.2 -74.7 130.55 -72.55 134.35 L-69.95 134.5 Q-70.35 133.1 -71.45 132.1 -73.55 130.15 -76.2 129.65 -78.85 129.85 -79.8 127.6 L-79.7 128.95 Q-80.8 128.75 -81.65 129.35 -80.1 130.15 -77.15 133.05 M-91.0 134.5 Q-93.0 134.75 -92.4 136.75 L-83.65 137.0 -83.0 136.7 Q-83.4 135.05 -85.1 134.6 -87.95 133.75 -91.0 134.5 M-95.15 127.55 L-95.75 128.65 -89.9 128.8 Q-89.75 127.9 -91.5 127.65 L-95.15 127.55 M-91.3 145.05 L-89.0 146.0 -89.25 145.0 -90.4 144.4 -91.35 144.35 -91.3 145.05 M-100.8 148.4 L-99.25 148.4 -92.85 146.3 -98.25 145.8 -100.8 148.4 M-96.15 140.2 L-97.8 141.1 -82.55 146.7 Q-87.35 141.6 -94.25 140.25 L-96.15 140.2 M-76.45 146.45 L-73.95 146.15 Q-76.85 142.8 -81.2 141.85 -83.85 141.15 -86.35 139.95 L-87.9 140.1 Q-82.9 142.0 -78.65 145.55 L-78.85 146.3 -75.55 148.95 -74.85 148.8 Q-74.5 147.9 -75.7 146.95 L-76.45 146.45 M-82.45 153.35 Q-80.2 154.7 -77.95 154.15 L-77.95 153.15 Q-79.8 151.85 -81.95 152.15 L-82.45 153.35 M-90.8 148.65 L-87.0 150.5 -86.0 150.05 -88.45 148.2 -90.8 148.65 M-82.95 153.05 L-83.65 152.45 -84.3 152.9 -82.95 153.05 M-88.9 155.6 Q-86.25 157.55 -83.1 157.25 L-81.85 156.25 Q-82.6 155.4 -85.0 154.95 L-88.0 154.7 Q-88.55 154.75 -88.9 155.6 M-98.15 152.15 L-100.55 153.0 -97.7 153.1 -97.15 154.45 -93.65 155.05 -92.9 153.95 -98.6 150.95 -98.15 152.15 M-36.5 134.95 L-36.2 134.1 -35.1 133.4 -39.0 135.65 -33.75 136.1 -36.5 134.95 M-38.0 144.9 L-36.6 145.5 Q-31.15 147.0 -25.95 149.0 L-25.65 148.1 Q-30.55 143.05 -37.45 144.45 L-38.0 144.9 M-37.9 141.8 L-30.3 141.0 -29.9 139.95 -30.85 139.3 Q-35.6 137.1 -39.0 141.0 L-37.9 141.8 M-22.5 142.45 L-21.8 142.6 -19.35 140.75 -23.35 141.5 -22.5 142.45 M-20.45 146.45 L-20.85 146.7 -12.4 147.3 Q-16.25 146.05 -20.3 145.95 L-20.45 146.45 M-20.2 145.25 Q-13.55 146.05 -7.35 143.85 -11.5 141.45 -16.05 142.35 -18.35 142.9 -20.15 144.2 L-20.2 145.25 M-17.75 138.95 L-9.95 137.55 -10.0 136.85 Q-12.85 135.15 -16.0 136.45 -18.35 137.3 -17.75 138.95 M-78.1 123.2 Q-80.9 124.9 -80.7 126.6 L-79.85 127.45 Q-78.3 126.9 -75.3 125.35 -71.45 123.5 -71.0 122.75 -74.9 121.25 -78.1 123.2 M-70.2 123.5 L-70.1 123.15 -71.5 123.3 -70.15 123.55 -70.2 123.5 M-64.65 134.55 L-64.6 134.55 -64.65 134.5 -64.65 134.55 M-64.4 132.9 Q-66.3 131.1 -68.85 131.85 -67.0 133.35 -64.6 133.7 L-64.1 133.3 -64.4 132.9 M-73.1 139.45 Q-73.15 136.7 -76.2 136.95 -77.8 137.15 -78.9 138.55 L-75.8 139.95 -76.95 140.2 -76.75 140.95 -72.35 142.25 -72.7 142.55 -67.1 145.5 -66.45 145.4 Q-67.05 143.0 -69.8 142.3 -71.7 140.15 -74.9 139.95 L-73.1 139.45 M-62.05 142.7 L-60.95 143.85 -52.5 144.35 -54.85 141.2 Q-58.05 140.45 -60.85 141.85 L-62.05 142.7 M-65.6 138.75 Q-58.95 139.5 -52.45 138.55 L-53.05 137.15 Q-56.35 135.8 -59.85 136.2 -61.15 134.5 -63.15 135.15 -65.95 136.1 -65.6 138.75 M-44.45 134.85 L-45.1 135.05 Q-45.55 135.7 -44.3 135.8 L-44.45 134.85 M-48.05 133.9 Q-51.45 130.95 -54.75 133.85 -52.15 135.4 -49.15 134.9 L-48.05 133.9 M-53.8 147.9 L-56.95 148.15 -56.55 148.7 -53.8 147.9 M-57.15 145.25 Q-62.8 143.35 -68.1 146.5 L-56.95 146.2 -56.8 145.5 -57.15 145.25 M-45.0 140.3 L-41.65 142.5 -40.95 142.4 Q-41.3 141.05 -42.85 140.1 -43.7 139.55 -44.65 139.15 L-45.0 140.3 M-46.85 139.9 Q-48.95 138.0 -51.4 139.3 L-49.2 140.5 -46.75 141.0 -46.85 139.9 M-48.8 144.35 Q-48.0 146.5 -45.5 148.1 L-44.45 148.85 -46.15 149.75 -42.05 150.85 Q-40.5 152.7 -39.0 152.8 L-39.65 150.75 -39.2 150.05 Q-42.0 148.65 -44.6 146.55 -46.55 145.05 -48.8 144.35 M-50.3 157.45 L-41.8 156.95 -41.3 156.1 Q-43.0 154.2 -45.85 154.9 -49.55 154.5 -50.3 157.45 M-55.45 153.05 L-54.3 152.8 Q-51.4 152.6 -49.25 151.45 -53.0 150.6 -56.75 152.05 L-55.45 153.05 M-59.6 152.1 Q-63.25 149.35 -67.85 149.6 L-67.6 150.05 -59.7 153.2 Q-58.55 152.9 -59.6 152.1 M-59.2 155.95 L-58.8 155.35 Q-65.4 149.3 -74.2 150.05 L-74.35 151.6 -66.05 154.15 -68.6 155.3 Q-63.85 157.95 -58.55 158.55 L-59.2 155.95 M-52.7 157.85 Q-54.05 155.15 -57.0 154.4 L-58.15 155.45 -52.95 158.65 -52.7 157.85 M-46.9 160.95 L-46.7 161.6 -38.1 163.95 -39.5 160.95 -46.9 160.95 M-50.25 162.15 Q-54.85 159.05 -57.3 159.85 -56.65 162.05 -52.3 164.55 L-48.4 166.45 -46.1 167.55 Q-45.8 167.25 -45.85 166.65 -45.95 165.4 -48.4 163.5 L-50.25 162.15 M-75.8 156.1 Q-74.25 158.4 -70.95 158.35 L-70.4 158.25 Q-71.35 155.9 -74.35 156.0 L-75.8 156.1 M-73.6 164.7 L-73.6 164.75 -73.4 165.2 -73.1 165.6 -73.05 165.7 -73.05 166.15 Q-76.2 167.5 -77.65 164.25 L-77.85 163.5 Q-75.35 163.15 -73.6 164.7 M-80.55 157.4 L-79.7 157.6 -80.05 157.35 -80.55 157.4 M-9.3 151.0 Q-12.25 148.9 -15.25 150.95 -12.3 152.55 -8.75 153.15 L-8.2 152.75 Q-8.35 151.6 -9.3 151.0 M-15.95 153.35 L-19.2 152.25 -19.45 153.7 -15.95 153.35 M-2.9 159.25 Q-5.45 156.6 -9.45 156.25 L-5.15 159.0 -2.55 159.6 -2.9 159.25 M-10.0 163.35 L-12.35 162.75 -10.25 163.35 -12.85 164.15 -13.15 165.55 -3.15 165.1 Q-3.3 163.7 -5.35 163.6 L-10.0 163.35 M-17.75 163.4 L-15.75 163.85 Q-16.6 161.05 -19.25 159.7 -22.2 158.1 -25.25 157.05 -27.1 156.3 -28.65 157.05 -28.2 158.05 -26.45 158.65 -25.5 159.7 -24.9 160.95 L-24.2 162.8 -23.85 164.0 -22.4 164.0 -17.75 163.4 M-15.0 169.8 L-13.1 171.6 -9.4 171.85 -10.75 171.0 Q-12.55 169.7 -15.0 169.8 M-5.4 161.35 Q-6.3 158.3 -9.4 157.6 -14.0 154.55 -19.3 155.2 L-6.0 162.25 -5.3 161.95 -5.4 161.35 M-9.5 167.35 L-10.8 166.75 Q-10.65 167.85 -9.5 167.35 M-24.4 150.5 L-31.6 149.95 -21.5 152.65 Q-22.25 151.1 -24.4 150.5 M-35.4 150.75 L-30.95 149.6 -36.9 148.7 -35.4 150.75 M-34.75 151.55 L-31.35 154.05 -26.4 154.25 -31.7 152.7 -32.85 152.8 -33.35 152.1 -34.75 151.55 M-28.65 162.05 L-30.05 160.95 -32.75 159.45 -33.35 160.15 -32.65 160.95 Q-30.7 163.2 -28.9 165.6 -26.4 168.95 -23.7 171.2 L-23.55 170.95 Q-22.7 168.45 -24.6 166.35 L-22.4 166.35 -17.95 166.4 -24.9 166.0 -25.55 165.3 -25.35 164.8 -28.5 161.35 -29.35 161.35 -28.65 162.05 M-28.35 170.45 Q-29.45 166.8 -33.15 165.7 -32.45 169.7 -29.05 172.1 L-28.05 171.8 -28.35 170.45" fill="#ffffcc" fill-rule="evenodd" stroke="none"/>
    <path d="M25.15 156.65 L24.85 156.85 22.35 155.4 25.15 156.65 M23.05 157.75 L21.4 158.85 19.8 158.4 20.2 157.05 Q21.25 156.6 22.5 157.35 L23.05 157.75 M26.35 164.45 L26.5 164.55 26.3 164.85 25.95 164.75 26.35 164.45 M-0.75 137.8 Q-1.75 138.45 -1.4 137.75 L-1.25 137.45 Q-0.3 134.75 -0.6 131.8 L-0.7 130.9 -0.3 132.2 Q0.0 135.25 -0.75 137.8 M-3.5 137.05 L-3.65 137.0 -4.25 136.75 -4.8 136.65 -4.85 136.2 -3.95 135.3 -3.9 134.1 -3.3 135.75 -3.5 137.05 M-9.25 131.3 L-7.15 134.4 -7.45 134.3 -10.0 130.35 -9.25 131.3 M-7.15 139.25 L-4.4 139.75 -5.7 139.65 -8.95 139.3 -7.15 139.25 M8.9 135.25 L10.15 135.15 Q12.05 136.1 11.75 138.2 11.45 140.5 11.5 142.85 L12.9 144.55 10.3 142.65 10.75 139.25 10.65 137.75 8.9 135.25 M14.75 146.55 L16.5 146.3 16.35 146.55 15.0 146.85 14.75 146.55 M19.9 140.7 Q20.25 141.15 20.4 142.65 20.5 143.65 19.75 146.25 L18.75 146.35 Q19.9 143.9 19.9 141.05 L19.9 140.7 M25.25 141.55 L25.4 141.7 Q26.95 143.9 25.8 146.55 25.55 145.4 25.7 143.55 25.8 142.45 25.25 141.55 M27.75 152.35 L25.25 153.35 Q22.15 152.3 18.95 152.7 L19.75 152.4 Q23.8 150.9 27.75 152.35 M17.15 149.7 Q16.8 149.3 17.4 149.3 L19.3 149.25 22.0 149.35 Q19.9 149.5 17.85 150.65 L17.15 149.7 M17.75 173.15 L17.6 173.25 11.2 172.55 17.75 173.15 M13.9 176.85 L13.35 177.35 Q8.2 176.25 2.9 176.35 L1.0 174.45 1.05 173.7 1.6 173.4 3.8 176.25 4.4 175.5 6.3 175.4 Q10.25 175.35 13.9 176.85 M11.2 179.5 Q8.65 183.1 4.7 183.0 L4.3 182.75 Q5.5 181.2 4.65 179.15 L4.2 178.05 11.2 179.5 M2.4 181.85 L-0.55 182.25 Q-8.3 181.3 -15.95 179.1 -19.05 180.9 -22.4 180.7 L-25.85 179.95 -32.4 178.05 -40.8 176.65 -46.9 175.15 -48.4 174.7 Q-63.95 169.65 -80.0 166.75 -84.75 166.05 -89.4 166.85 -96.55 166.45 -103.45 164.9 -105.75 164.4 -107.65 163.2 -112.65 160.05 -112.3 153.85 -116.25 152.8 -117.8 149.75 L-117.9 149.75 Q-119.4 149.05 -118.95 147.45 L-118.1 148.25 -117.4 147.9 -107.55 154.0 -106.8 153.6 Q-104.95 156.1 -103.0 156.55 L-102.7 155.4 -100.8 158.65 Q-104.3 158.2 -107.3 156.5 L-108.8 155.7 Q-108.85 160.3 -104.4 161.2 -96.9 162.45 -89.4 161.15 L-97.6 159.3 -96.7 157.35 Q-90.35 158.3 -85.5 162.55 L-85.05 162.5 -84.55 162.05 Q-84.9 161.2 -85.4 160.5 L-86.65 159.1 -86.9 157.65 -82.5 157.45 -79.65 159.15 -82.9 159.45 Q-79.7 162.25 -74.6 162.7 L-73.3 162.75 -71.95 164.5 -70.75 162.85 -70.15 162.65 -70.0 161.85 -70.75 160.95 -66.8 161.4 -65.65 162.75 Q-67.1 161.8 -68.65 162.3 L-70.15 162.8 Q-65.25 164.75 -61.05 167.95 L-60.45 167.45 Q-59.05 169.05 -56.9 168.95 L-55.2 168.5 -54.25 166.7 -49.4 170.5 -49.25 170.55 Q-48.4 167.3 -52.15 165.7 L-53.75 165.1 -55.35 165.5 -54.85 164.7 Q-51.3 165.4 -48.4 167.1 -45.15 169.0 -42.7 172.15 L-42.55 172.2 -41.8 173.05 -41.95 173.0 -40.25 174.2 -40.0 173.5 Q-39.65 172.6 -39.9 171.65 -40.2 170.65 -40.7 170.0 -41.5 168.55 -43.0 167.5 L-43.85 166.9 -42.95 166.9 Q-36.8 170.7 -31.35 175.35 L-30.45 173.8 Q-28.4 174.95 -27.0 177.05 L-24.35 175.4 -23.8 173.65 -14.85 177.1 -15.15 178.1 -14.05 179.1 -12.3 177.15 -8.35 179.95 Q-7.9 176.95 -10.35 175.05 L-3.6 177.35 -1.4 180.65 Q-0.5 179.0 -0.7 177.25 1.9 178.7 2.4 181.85 M-112.55 142.75 L-115.75 142.5 Q-118.1 142.45 -117.0 140.05 L-116.8 140.9 -112.6 141.4 -111.35 140.5 Q-108.95 140.4 -106.2 141.15 L-109.15 142.5 Q-110.85 141.9 -112.55 142.75 M-109.7 135.7 L-113.0 132.5 -108.85 134.95 -107.85 135.6 -108.25 135.95 -108.8 135.6 -109.7 135.7 M-114.2 131.25 L-114.9 130.6 Q-115.0 129.75 -114.2 129.8 -114.5 130.15 -114.45 130.85 L-114.2 131.25 M-102.0 131.05 L-101.15 130.7 -106.9 129.25 -106.7 128.3 -105.75 128.7 -95.95 131.7 -94.4 133.5 -95.0 133.6 -95.65 132.95 Q-97.4 131.45 -99.05 131.4 L-102.0 131.05 M-103.8 126.9 Q-103.35 126.5 -104.15 125.4 -105.55 123.5 -104.75 121.45 L-103.25 122.45 -104.9 122.15 -104.95 122.85 -101.45 127.45 -103.8 126.9 M-99.2 126.95 L-98.35 127.9 -98.95 127.65 -99.2 126.95 M-89.7 126.75 L-90.05 126.35 Q-93.35 123.9 -97.45 122.7 L-94.35 122.9 -88.9 126.85 -89.7 126.75 M-98.0 121.3 L-97.75 120.4 -97.25 120.7 -97.9 121.15 -98.0 121.3 M-89.6 122.5 Q-87.55 123.8 -86.25 125.15 L-85.55 123.9 -86.0 125.55 -89.6 122.5 M-81.9 119.6 Q-81.45 119.65 -81.35 120.65 L-82.4 124.7 -83.85 126.95 -84.5 126.4 -81.9 119.6 M-69.9 121.05 L-69.2 121.15 -69.5 121.7 -69.9 121.05 M-66.05 118.65 Q-65.45 122.5 -67.25 125.9 -68.3 126.75 -69.55 125.5 L-69.45 125.45 -69.3 124.65 -68.85 124.45 -66.05 118.65 M-57.1 124.9 Q-57.2 125.75 -58.6 126.1 L-64.15 127.85 -65.15 127.9 -65.2 127.9 -57.1 124.9 M-56.3 130.1 Q-55.7 128.2 -54.35 126.1 -52.55 123.15 -51.7 123.3 L-53.3 125.3 -54.9 127.75 -56.05 130.3 -56.3 130.1 M-53.3 131.0 L-52.1 131.0 -48.05 126.5 -51.35 131.1 -53.65 131.65 -53.3 131.0 M-26.25 131.05 L-26.3 131.35 Q-29.9 131.75 -33.8 133.0 -31.95 131.65 -28.3 131.2 L-26.25 131.05 M-21.5 132.55 Q-21.8 130.6 -21.3 129.65 L-19.7 132.1 -21.5 132.55 M-17.0 134.55 L-19.3 136.8 -17.8 137.1 Q-15.35 135.05 -12.05 134.85 -15.4 135.4 -17.9 137.55 -20.65 137.6 -23.2 138.4 L-24.65 137.5 Q-23.3 135.8 -20.4 135.35 L-17.85 134.75 -17.0 134.55 M-10.25 129.75 L-10.25 128.85 -9.2 129.3 -10.15 128.95 -10.25 129.75 M-2.55 129.75 L-2.55 129.35 -2.25 129.35 -2.55 129.75 M24.0 164.2 L22.85 162.7 Q24.3 163.5 25.2 164.5 L24.0 164.2 M22.35 166.95 L22.75 167.7 21.8 167.55 21.7 166.8 22.35 166.95 M19.75 154.45 L21.15 155.0 20.1 154.85 19.75 154.45 M16.65 160.55 L16.6 161.6 17.0 162.0 17.5 162.1 17.8 163.0 17.15 162.95 15.8 160.45 16.65 160.55 M12.75 160.75 L13.95 162.35 12.3 162.35 10.15 160.7 12.75 160.75 M2.8 156.55 L5.6 156.8 6.4 156.25 9.7 157.2 Q6.9 157.5 4.2 157.25 L2.8 156.55 M7.1 162.15 Q6.5 161.9 7.0 162.05 L7.1 162.15 M2.9 169.4 L4.45 169.75 3.7 169.9 2.9 169.4 M17.55 166.3 L18.9 166.25 19.3 167.25 16.25 167.45 15.55 165.7 17.55 166.3 M10.9 167.25 L9.4 164.95 11.25 165.15 Q12.75 166.45 13.5 167.7 L10.9 167.25 M16.5 168.5 L16.35 168.35 Q16.45 167.5 16.5 168.5 M-100.4 133.65 L-97.8 134.75 -100.2 136.7 -102.9 135.5 -105.5 135.1 -105.7 134.45 -104.55 134.35 -102.5 133.65 -100.4 133.65 M-103.75 139.5 L-103.65 139.95 -106.35 139.05 -104.65 138.85 -103.75 139.5 M-108.5 146.55 L-110.75 146.95 -111.2 148.25 -114.15 147.2 -110.25 144.95 -108.5 146.55 M-87.7 133.0 L-90.8 133.6 -91.35 131.85 -88.75 132.15 -87.7 133.0 M-75.85 134.3 L-75.15 136.05 -81.45 133.3 -81.15 130.65 -77.15 133.05 -75.85 134.3 M-79.7 128.95 L-79.8 127.6 Q-78.85 129.85 -76.2 129.65 -73.55 130.15 -71.45 132.1 -70.35 133.1 -69.95 134.5 L-72.55 134.35 Q-74.7 130.55 -78.9 129.2 L-79.7 128.95 M-100.8 148.4 L-98.25 145.8 -92.85 146.3 -99.25 148.4 -100.8 148.4 M-78.65 145.55 Q-82.9 142.0 -87.9 140.1 L-86.35 139.95 Q-83.85 141.15 -81.2 141.85 -76.85 142.8 -73.95 146.15 L-76.45 146.45 -77.5 146.75 -78.65 145.55 M-82.95 153.05 L-84.3 152.9 -83.65 152.45 -82.95 153.05 M-90.8 148.65 L-88.45 148.2 -86.0 150.05 -87.0 150.5 -90.8 148.65 M-99.3 158.95 L-98.9 158.25 -99.0 157.2 -97.6 159.3 -99.3 158.95 M-98.15 152.15 L-98.6 150.95 -92.9 153.95 -93.65 155.05 -97.15 154.45 -97.7 153.1 -98.15 152.15 M-36.5 134.95 L-33.75 136.1 -39.0 135.65 -35.1 133.4 -36.2 134.1 -36.5 134.95 M-20.45 146.45 L-20.3 145.95 Q-16.25 146.05 -12.4 147.3 L-20.85 146.7 -20.45 146.45 M-22.5 142.45 L-23.35 141.5 -19.35 140.75 -21.8 142.6 -22.5 142.45 M-18.1 143.95 L-18.35 143.95 Q-18.95 143.45 -18.1 143.95 M-70.2 123.5 L-70.15 123.55 -71.5 123.3 -70.1 123.15 -70.2 123.5 M-64.65 134.55 L-64.65 134.5 -64.6 134.55 -64.65 134.55 M-62.05 142.7 L-60.85 141.85 Q-58.05 140.45 -54.85 141.2 L-52.5 144.35 -60.95 143.85 -62.05 142.7 M-53.8 147.9 L-56.55 148.7 -56.95 148.15 -53.8 147.9 M-55.45 153.05 L-56.75 152.05 Q-53.0 150.6 -49.25 151.45 -51.4 152.6 -54.3 152.8 L-55.45 153.05 M-46.9 160.95 L-39.5 160.95 -38.1 163.95 -46.7 161.6 -46.9 160.95 M-80.55 157.4 L-80.05 157.35 -79.7 157.6 -80.55 157.4 M-73.6 164.7 Q-75.35 163.15 -77.85 163.5 L-77.65 164.25 Q-76.2 167.5 -73.05 166.15 L-73.05 165.7 -73.1 165.6 -73.4 165.2 -73.6 164.75 -73.6 164.7 M-2.9 159.25 L-2.55 159.6 -5.15 159.0 -9.45 156.25 Q-5.45 156.6 -2.9 159.25 M-15.95 153.35 L-19.45 153.7 -19.2 152.25 -15.95 153.35 M-10.25 163.35 L-12.35 162.75 -10.0 163.35 -8.75 163.6 -10.25 163.35 M-26.45 158.65 L-20.05 160.7 -19.35 162.1 -18.85 161.3 -18.65 162.85 -17.7 163.35 -16.95 162.95 -17.75 163.4 -22.4 164.0 -23.85 164.0 -24.2 162.8 -24.9 160.95 Q-25.5 159.7 -26.45 158.65 M-15.0 169.8 Q-12.55 169.7 -10.75 171.0 L-9.4 171.85 -13.1 171.6 -15.0 169.8 M-9.5 167.35 Q-10.65 167.85 -10.8 166.75 L-9.5 167.35 M-34.75 151.55 L-33.35 152.1 -32.85 152.8 -31.7 152.7 -26.4 154.25 -31.35 154.05 -34.75 151.55 M-35.4 150.75 L-36.9 148.7 -30.95 149.6 -35.4 150.75 M-24.6 166.35 L-24.9 166.0 -17.95 166.4 -22.4 166.35 -24.6 166.35 M-25.55 165.3 L-28.65 162.05 -29.35 161.35 -28.5 161.35 -25.35 164.8 -25.55 165.3" fill="#ffe68a" fill-rule="evenodd" stroke="none"/>
    <path d="M0.4 137.9 Q3.75 138.0 5.35 140.45 L5.5 140.8 5.1 141.85 -5.7 139.65 -4.4 139.75 -7.15 139.25 -8.4 138.75 -8.45 138.3 Q-8.6 136.55 -4.8 136.9 L-7.15 134.4 -9.25 131.3 -9.2 131.0 Q-5.35 131.45 -3.95 135.3 L-4.85 136.2 -4.8 136.65 -4.25 136.75 -4.7 136.85 -3.65 137.0 -3.5 137.05 -1.25 137.45 -1.4 137.75 Q-1.75 138.45 -0.75 137.8 L-0.8 138.0 0.4 137.9 M21.35 146.8 L22.45 147.35 22.6 147.15 Q23.2 147.45 23.25 147.9 23.3 148.35 19.3 149.25 L17.4 149.3 Q16.8 149.3 17.15 149.7 L9.75 150.75 Q8.45 150.9 8.35 149.8 8.25 149.0 9.4 148.35 10.85 147.6 14.75 146.9 L15.0 146.85 16.35 146.55 21.35 146.8 M10.65 137.75 L10.75 139.25 9.25 138.15 10.65 137.75 M-111.7 137.6 L-111.05 137.05 Q-109.75 136.45 -109.7 135.7 L-108.8 135.6 -108.25 135.95 -107.85 135.6 -108.85 134.95 -105.9 134.25 -104.55 134.35 -105.7 134.45 -105.5 135.1 -102.9 135.5 Q-106.75 137.45 -110.95 137.95 L-111.7 137.6 M-105.3 133.0 L-102.0 131.05 -99.05 131.4 Q-98.1 131.8 -97.3 132.45 -98.15 133.55 -99.05 133.65 L-100.4 133.65 -102.5 133.65 -105.0 133.5 -105.3 133.0 M-97.75 120.4 Q-97.35 119.75 -96.15 119.7 -94.4 119.8 -91.75 121.25 L-91.15 122.15 -91.25 122.9 Q-94.8 122.9 -97.9 121.15 L-97.25 120.7 -97.75 120.4 M-36.55 131.55 L-34.5 130.1 Q-32.5 129.25 -30.45 130.35 -31.4 132.15 -36.5 133.6 L-37.75 133.45 Q-37.65 132.5 -36.55 131.55 M-27.65 136.55 Q-25.25 134.3 -22.15 133.15 L-21.75 133.05 Q-18.45 132.05 -16.2 133.5 L-16.35 134.0 -16.7 134.2 -17.85 134.75 -20.4 135.35 Q-23.3 135.8 -24.65 137.5 L-27.85 138.45 -27.65 136.55 M2.5 159.6 L1.9 160.0 -8.35 154.45 Q-7.75 153.75 -5.9 154.2 -0.6 155.35 2.5 159.6 M2.05 153.85 L1.95 154.45 Q2.0 154.75 1.3 154.85 0.8 154.9 -5.7 151.05 -11.95 147.5 -11.9 147.95 -12.2 144.75 -5.9 147.5 0.35 150.2 2.05 153.85 M6.95 148.5 L7.6 149.55 6.6 151.6 -1.7 145.3 -1.85 144.15 Q3.4 144.75 6.95 148.5 M3.6 164.3 L3.8 165.2 3.6 165.3 Q1.85 165.35 1.5 164.15 L3.6 164.3 M4.0 166.25 L4.75 166.55 4.3 167.7 3.15 167.5 4.0 166.25 M-105.75 128.7 Q-104.3 127.55 -102.35 127.6 -98.4 127.65 -95.35 129.8 -94.1 130.6 -94.9 131.7 L-95.95 131.7 -105.75 128.7 M-103.1 145.95 L-101.85 146.1 -101.35 146.5 -103.95 146.65 -103.1 145.95 M-109.1 144.9 L-109.35 143.95 Q-109.55 142.3 -106.1 142.1 -102.45 141.9 -98.35 143.8 -98.75 144.65 -100.65 144.85 -105.1 145.3 -109.1 144.9 M-75.85 134.3 L-77.15 133.05 Q-80.1 130.15 -81.65 129.35 -80.8 128.75 -79.7 128.95 L-78.9 129.2 Q-74.0 132.3 -71.2 137.15 L-71.45 137.2 Q-73.95 136.25 -75.85 134.3 M-95.15 127.55 L-91.5 127.65 Q-89.75 127.9 -89.9 128.8 L-95.75 128.65 -95.15 127.55 M-91.0 134.5 Q-87.95 133.75 -85.1 134.6 -83.4 135.05 -83.0 136.7 L-83.65 137.0 -92.4 136.75 Q-93.0 134.75 -91.0 134.5 M-91.3 145.05 L-91.35 144.35 -90.4 144.4 -89.25 145.0 -89.0 146.0 -91.3 145.05 M-96.15 140.2 L-94.25 140.25 Q-87.35 141.6 -82.55 146.7 L-97.8 141.1 -96.15 140.2 M-78.65 145.55 L-77.5 146.75 -76.45 146.45 -75.7 146.95 Q-74.5 147.9 -74.85 148.8 L-75.55 148.95 -78.85 146.3 -78.65 145.55 M-82.45 153.35 L-81.95 152.15 Q-79.8 151.85 -77.95 153.15 L-77.95 154.15 Q-80.2 154.7 -82.45 153.35 M-88.9 155.6 Q-88.55 154.75 -88.0 154.7 L-85.0 154.95 Q-82.6 155.4 -81.85 156.25 L-83.1 157.25 Q-86.25 157.55 -88.9 155.6 M-97.7 153.1 L-100.55 153.0 -98.15 152.15 -97.7 153.1 M-37.9 141.8 L-39.0 141.0 Q-35.6 137.1 -30.85 139.3 L-29.9 139.95 -30.3 141.0 -37.9 141.8 M-38.0 144.9 L-37.45 144.45 Q-30.55 143.05 -25.65 148.1 L-25.95 149.0 Q-31.15 147.0 -36.6 145.5 L-38.0 144.9 M-20.2 145.25 L-20.15 144.2 Q-18.35 142.9 -16.05 142.35 -11.5 141.45 -7.35 143.85 -13.55 146.05 -20.2 145.25 M-18.1 143.95 Q-18.95 143.45 -18.35 143.95 L-18.1 143.95 M-17.75 138.95 Q-18.35 137.3 -16.0 136.45 -12.85 135.15 -10.0 136.85 L-9.95 137.55 -17.75 138.95 M-78.1 123.2 Q-74.9 121.25 -71.0 122.75 -71.45 123.5 -75.3 125.35 -78.3 126.9 -79.85 127.45 L-80.7 126.6 Q-80.9 124.9 -78.1 123.2 M-65.2 127.9 L-65.15 127.9 -64.1 128.85 -64.1 129.4 Q-69.35 129.4 -74.6 128.25 L-74.7 127.25 Q-73.55 126.0 -71.45 126.0 -68.05 126.05 -65.2 127.9 M-64.4 132.9 L-64.1 133.3 -64.6 133.7 Q-67.0 133.35 -68.85 131.85 -66.3 131.1 -64.4 132.9 M-73.1 139.45 L-74.9 139.95 Q-71.7 140.15 -69.8 142.3 -67.05 143.0 -66.45 145.4 L-67.1 145.5 -72.7 142.55 -72.35 142.25 -76.75 140.95 -76.95 140.2 -75.8 139.95 -78.9 138.55 Q-77.8 137.15 -76.2 136.95 -73.15 136.7 -73.1 139.45 M-48.05 133.9 L-49.15 134.9 Q-52.15 135.4 -54.75 133.85 -51.45 130.95 -48.05 133.9 M-44.45 134.85 L-44.3 135.8 Q-45.55 135.7 -45.1 135.05 L-44.45 134.85 M-65.6 138.75 Q-65.95 136.1 -63.15 135.15 -61.15 134.5 -59.85 136.2 -56.35 135.8 -53.05 137.15 L-52.45 138.55 Q-58.95 139.5 -65.6 138.75 M-54.9 127.75 L-53.3 125.3 -53.15 125.3 Q-53.5 127.25 -54.9 127.75 M-48.8 144.35 Q-46.55 145.05 -44.6 146.55 -42.0 148.65 -39.2 150.05 L-39.65 150.75 -39.0 152.8 Q-40.5 152.7 -42.05 150.85 L-46.15 149.75 -44.45 148.85 -45.5 148.1 Q-48.0 146.5 -48.8 144.35 M-46.85 139.9 L-46.75 141.0 -49.2 140.5 -51.4 139.3 Q-48.95 138.0 -46.85 139.9 M-45.0 140.3 L-44.65 139.15 Q-43.7 139.55 -42.85 140.1 -41.3 141.05 -40.95 142.4 L-41.65 142.5 -45.0 140.3 M-57.15 145.25 L-56.8 145.5 -56.95 146.2 -68.1 146.5 Q-62.8 143.35 -57.15 145.25 M-50.3 157.45 Q-49.55 154.5 -45.85 154.9 -43.0 154.2 -41.3 156.1 L-41.8 156.95 -50.3 157.45 M-52.7 157.85 L-52.95 158.65 -58.15 155.45 -57.0 154.4 Q-54.05 155.15 -52.7 157.85 M-59.2 155.95 L-58.55 158.55 Q-63.85 157.95 -68.6 155.3 L-66.05 154.15 -74.35 151.6 -74.2 150.05 Q-65.4 149.3 -58.8 155.35 L-59.2 155.95 M-59.6 152.1 Q-58.55 152.9 -59.7 153.2 L-67.6 150.05 -67.85 149.6 Q-63.25 149.35 -59.6 152.1 M-75.8 156.1 L-74.35 156.0 Q-71.35 155.9 -70.4 158.25 L-70.95 158.35 Q-74.25 158.4 -75.8 156.1 M-50.25 162.15 L-48.4 163.5 Q-45.95 165.4 -45.85 166.65 -45.8 167.25 -46.1 167.55 L-48.4 166.45 -52.3 164.55 Q-56.65 162.05 -57.3 159.85 -54.85 159.05 -50.25 162.15 M-9.3 151.0 Q-8.35 151.6 -8.2 152.75 L-8.75 153.15 Q-12.3 152.55 -15.25 150.95 -12.25 148.9 -9.3 151.0 M-10.25 163.35 L-8.75 163.6 -10.0 163.35 -5.35 163.6 Q-3.3 163.7 -3.15 165.1 L-13.15 165.55 -12.85 164.15 -10.25 163.35 M-17.75 163.4 L-16.95 162.95 -17.7 163.35 -18.65 162.85 -18.85 161.3 -19.35 162.1 -20.05 160.7 -26.45 158.65 Q-28.2 158.05 -28.65 157.05 -27.1 156.3 -25.25 157.05 -22.2 158.1 -19.25 159.7 -16.6 161.05 -15.75 163.85 L-17.75 163.4 M-5.4 161.35 L-5.3 161.95 -6.0 162.25 -19.3 155.2 Q-14.0 154.55 -9.4 157.6 -6.3 158.3 -5.4 161.35 M-24.4 150.5 Q-22.25 151.1 -21.5 152.65 L-31.6 149.95 -24.4 150.5 M-24.6 166.35 Q-22.7 168.45 -23.55 170.95 L-23.7 171.2 Q-26.4 168.95 -28.9 165.6 -30.7 163.2 -32.65 160.95 L-33.35 160.15 -32.75 159.45 -30.05 160.95 -28.65 162.05 -25.55 165.3 -24.9 166.0 -24.6 166.35 M-28.35 170.45 L-28.05 171.8 -29.05 172.1 Q-32.45 169.7 -33.15 165.7 -29.45 166.8 -28.35 170.45" fill="#ffffff" fill-rule="evenodd" stroke="none"/>
    <path d="M229.9 197.45 L225.75 204.05 224.9 202.9 Q222.9 200.55 220.05 199.6 L219.55 198.95 Q221.25 194.85 224.1 191.5 L224.8 191.85 Q228.35 193.6 229.9 197.45 M224.95 205.25 L222.0 208.8 221.6 209.15 221.05 208.7 220.15 208.15 Q209.55 207.3 201.8 200.25 L201.8 199.95 Q211.3 197.85 220.05 201.5 223.0 202.7 224.95 205.25 M191.6 223.9 L184.4 222.95 183.65 222.75 Q177.0 219.65 169.85 218.4 L165.95 217.7 164.0 217.35 160.3 216.4 159.35 216.25 161.15 215.75 Q162.8 215.05 164.3 214.15 171.6 209.8 179.75 211.25 L180.1 211.3 180.05 211.45 180.05 211.7 Q183.1 216.35 184.0 222.1 184.3 222.6 184.8 222.5 185.3 222.4 185.4 221.95 L184.85 218.7 190.2 214.8 192.45 215.6 193.55 214.5 196.6 217.4 196.75 217.4 198.0 217.9 194.55 221.45 191.6 223.9 M156.6 215.95 L151.3 214.85 Q151.75 214.25 151.15 213.8 L151.2 213.75 151.05 213.7 146.05 209.2 145.7 208.85 146.25 208.8 147.3 208.65 Q153.7 207.7 157.9 203.1 L162.8 213.15 162.3 213.45 156.6 215.4 156.6 215.95 M149.3 214.4 L138.1 211.4 139.8 206.1 149.3 214.4 M109.5 204.75 L96.9 202.4 96.75 200.4 Q96.35 196.35 95.1 192.45 97.05 190.7 99.4 189.9 L101.3 189.4 102.05 189.3 102.9 189.15 105.45 189.55 Q106.1 190.5 106.55 191.95 L107.15 194.55 107.3 195.75 109.5 204.75 M84.15 198.95 L84.7 196.8 84.75 196.6 Q87.5 195.5 94.35 194.8 L94.6 195.65 Q95.4 198.5 95.35 201.55 L84.15 198.95 M79.7 189.35 L79.45 188.8 Q77.95 185.6 79.9 182.45 L82.55 181.65 83.2 181.45 Q88.5 179.95 90.15 180.5 L89.8 181.95 Q89.15 184.35 90.05 186.7 L79.7 189.35 M192.7 165.25 L192.05 165.9 189.25 168.2 182.2 165.25 182.3 165.15 Q183.95 163.35 184.15 160.95 188.95 162.05 193.1 164.6 L192.7 165.25 M178.55 174.75 Q177.55 179.6 178.4 184.55 174.0 179.55 167.4 179.2 L167.45 173.35 168.3 173.3 Q173.4 173.5 178.55 174.75 M185.4 177.8 L194.65 181.7 193.0 182.05 Q188.4 183.1 185.05 186.2 L184.8 186.2 184.7 186.6 183.4 188.8 181.85 187.7 185.4 177.8 M181.2 187.15 L180.6 186.65 180.7 186.65 181.2 187.15 M173.05 182.55 L173.7 182.9 Q178.45 186.1 182.1 189.85 L177.2 200.05 176.25 199.65 Q171.45 197.6 167.45 194.05 L173.05 182.55 M224.05 173.25 L227.8 174.4 Q233.5 176.6 232.15 182.95 L228.15 183.45 227.8 182.85 Q225.35 178.25 224.05 173.25 M218.0 185.85 L213.6 192.95 212.65 193.2 207.35 183.0 Q209.0 183.0 210.15 181.45 211.3 179.85 211.3 177.6 L211.35 177.2 211.8 175.2 212.25 175.6 Q216.7 179.9 218.0 185.85 M36.7 187.8 L37.25 187.35 38.6 185.2 38.8 185.0 39.8 183.95 44.6 184.25 Q48.75 184.75 52.8 186.15 L54.0 186.6 53.7 187.05 52.55 190.25 Q52.0 191.75 50.65 192.05 48.95 192.4 48.4 190.65 L46.25 191.35 45.05 191.75 44.6 191.85 Q41.75 192.35 39.5 190.2 L38.85 189.75 Q37.95 189.75 37.35 189.2 36.7 188.6 36.7 187.8 M57.65 177.4 Q59.6 174.85 57.95 171.75 L57.4 170.75 Q58.6 170.2 64.15 171.85 L67.4 172.9 67.45 173.05 Q69.2 177.2 67.7 181.05 62.55 181.2 58.25 177.8 L57.65 177.4 M56.05 149.55 L56.15 150.55 Q56.35 152.15 57.4 153.5 L56.4 153.7 Q53.3 154.2 50.5 155.65 49.25 155.65 48.35 154.35 47.45 153.0 47.45 151.1 L56.05 149.55 M61.15 158.55 L61.65 161.25 57.5 163.75 56.45 164.2 55.65 161.5 61.15 158.55 M32.1 158.45 L34.95 160.4 29.2 164.4 25.7 162.3 32.1 158.45 M41.3 165.45 L41.3 166.55 Q41.05 170.5 43.4 173.35 L38.5 177.65 38.15 177.45 Q35.25 174.55 34.5 170.7 L41.3 165.45 M135.3 153.6 L134.95 154.35 Q132.65 158.2 128.15 159.25 L119.85 157.35 Q121.05 157.35 121.95 155.85 122.8 154.3 122.8 152.15 L129.6 152.6 135.3 153.6 M118.65 167.5 Q117.85 173.65 118.5 179.75 L117.6 179.8 116.55 179.55 Q108.75 177.65 101.15 175.15 L101.15 175.0 101.1 173.75 101.6 165.9 112.05 166.55 118.65 167.5 M116.85 181.4 L122.55 181.0 122.75 181.0 123.6 180.75 127.3 190.95 125.5 191.2 125.0 191.3 118.9 191.4 118.8 190.95 Q117.0 186.25 116.85 181.4 M94.6 177.2 L95.1 177.05 98.4 188.1 94.3 190.8 94.15 190.65 93.75 190.15 Q89.5 184.9 91.9 178.35 L94.6 177.2 M117.2 192.85 L118.2 193.0 118.35 193.0 123.7 193.05 123.4 193.45 125.95 202.45 119.6 204.2 119.3 203.55 Q117.4 199.2 117.2 194.55 L117.2 192.85 M156.35 174.25 L158.2 175.85 Q160.0 177.6 160.9 179.8 L155.55 181.65 155.05 182.0 155.05 181.45 154.0 178.7 156.2 174.25 156.35 174.25 M134.3 180.65 L132.6 180.7 132.4 180.75 132.25 180.4 131.3 178.85 131.25 178.65 Q131.65 174.25 134.2 170.7 L137.25 171.15 137.45 171.2 134.3 180.65 M152.15 185.65 L151.4 186.7 Q149.45 189.45 149.3 192.7 L139.95 192.95 139.95 187.1 140.65 186.85 Q146.35 185.8 152.15 185.65 M128.05 192.55 Q130.75 192.15 132.95 190.55 134.0 189.85 134.2 188.75 134.75 185.55 133.1 182.45 L133.05 182.3 133.2 182.3 Q135.55 182.15 137.25 183.9 137.8 184.45 138.5 184.85 138.1 189.7 138.35 194.55 138.55 199.25 139.35 203.9 136.15 202.3 132.65 201.85 131.7 197.75 129.3 194.55 L127.95 192.95 128.05 192.55 M151.15 193.4 Q151.3 190.15 152.95 187.25 L154.9 183.65 156.7 182.8 154.55 191.6 Q154.15 192.0 153.45 192.05 L153.1 192.05 153.1 192.25 Q152.1 192.75 151.25 193.5 L151.15 193.4 M156.95 201.3 L155.25 203.1 Q154.1 198.85 151.7 194.95 159.8 190.25 167.05 195.95 161.05 196.55 156.95 201.3 M180.0 202.8 L188.5 206.1 189.3 205.8 189.75 200.35 195.7 203.5 196.0 203.6 196.0 203.95 Q194.55 209.0 191.9 213.75 L189.85 212.95 Q185.05 210.9 179.6 209.6 L179.05 209.5 177.5 209.3 177.45 209.05 Q178.0 205.55 180.0 202.8 M219.75 209.85 Q223.45 212.85 221.3 217.3 219.9 220.1 217.85 222.05 216.9 219.55 214.85 218.05 L214.9 217.9 214.8 218.0 213.25 217.2 215.8 213.85 Q218.25 210.8 219.75 209.85 M200.15 200.75 L199.85 201.15 Q199.1 202.45 197.65 202.65 L189.95 198.95 190.2 198.0 198.35 196.55 200.15 200.75" fill="#208600" fill-rule="evenodd" stroke="none"/>
    <path d="M203.0 226.85 L198.65 225.85 Q199.95 224.05 203.05 220.85 204.85 219.1 206.1 218.25 L209.35 218.3 209.3 218.55 Q206.75 223.1 203.0 226.85 M132.3 210.05 L128.75 209.4 Q128.75 207.85 130.95 204.4 L131.6 203.5 134.1 203.75 Q133.25 208.0 132.3 210.05 M83.0 193.05 L80.9 190.85 91.05 188.55 92.15 190.2 91.35 190.65 Q87.25 192.1 83.0 193.05 M79.6 177.1 L78.25 175.2 82.55 173.65 83.35 173.35 Q87.15 171.9 90.1 174.1 86.5 175.75 82.55 176.7 L79.75 177.25 79.6 177.1 M184.55 157.35 L184.55 156.5 Q190.65 157.75 195.9 161.4 L195.05 162.05 184.55 157.35 M185.85 169.3 L181.85 170.65 170.45 167.4 171.1 167.05 Q174.55 165.9 178.35 166.5 L179.45 166.8 Q184.5 168.3 185.85 169.3 M180.2 184.95 L180.35 183.95 Q181.0 180.55 182.55 177.25 L184.1 177.55 Q183.3 182.1 181.0 186.1 L180.7 186.65 180.6 186.65 180.2 186.25 180.2 186.05 180.2 184.95 M187.75 191.85 L189.25 191.7 188.05 201.1 187.25 203.5 185.45 202.6 Q185.3 202.3 185.3 202.0 185.45 196.85 187.75 191.85 M163.4 181.05 L167.3 181.1 167.25 181.5 Q165.45 186.8 162.25 191.45 L160.25 191.05 159.45 190.15 163.4 181.05 M193.85 183.35 L195.4 183.05 196.25 183.75 Q196.4 183.2 196.8 182.8 L197.55 182.7 200.75 194.35 196.9 194.9 196.55 194.2 Q194.05 189.1 193.85 183.35 M223.5 183.7 L220.35 184.4 220.05 184.0 Q216.3 178.8 213.9 172.75 L217.3 172.05 223.5 183.7 M219.15 190.4 L220.8 190.5 222.25 190.85 220.5 194.4 Q218.75 197.7 217.8 198.9 L215.5 198.3 219.15 190.4 M44.7 181.05 L46.0 180.65 46.45 180.5 47.3 180.3 51.05 181.3 52.8 181.95 55.8 183.15 Q57.45 183.95 57.65 184.55 L55.6 185.35 52.8 184.45 50.25 183.55 49.25 183.15 45.3 181.4 44.7 181.05 M62.0 162.75 L66.4 160.1 Q66.8 159.9 69.3 160.9 71.8 161.95 73.25 162.9 L72.4 163.35 Q70.0 164.75 68.35 166.9 64.9 165.75 61.95 163.3 L62.0 162.75 M46.15 146.4 L50.8 145.8 55.5 145.95 55.9 148.1 46.75 148.15 46.15 146.4 M58.05 154.35 L59.95 156.6 54.35 158.75 54.0 158.25 52.9 157.05 Q54.1 155.95 58.05 154.35 M36.35 160.95 L38.6 162.05 37.25 163.1 Q34.8 165.3 31.9 166.35 L30.6 165.4 30.9 165.0 Q33.25 162.5 36.35 160.95 M24.05 160.9 L23.55 160.25 Q26.25 157.1 30.6 155.8 L31.25 157.3 24.05 160.9 M122.0 148.0 L121.65 146.8 126.0 146.9 Q131.1 146.25 134.6 149.75 L122.0 148.0 M125.1 160.4 L122.2 162.05 119.85 161.9 Q112.3 161.7 105.05 160.0 L107.9 158.3 124.35 159.85 Q125.8 160.0 125.1 160.4 M99.0 176.4 L99.4 176.4 100.85 176.5 101.05 176.55 102.2 176.8 102.5 177.6 Q104.5 182.45 105.15 187.65 L101.35 187.4 99.0 176.4 M127.55 179.0 L128.6 178.9 129.7 179.4 130.1 180.2 132.5 184.65 Q134.2 187.8 131.15 189.85 L130.75 189.15 Q128.3 184.35 127.55 179.0 M147.95 175.8 L146.35 175.7 146.15 175.6 Q145.75 173.5 146.85 171.55 L149.65 171.9 147.95 175.8 M126.75 177.45 L125.05 178.25 125.15 177.65 125.15 177.3 128.4 169.85 128.95 168.85 Q129.45 169.1 129.95 169.4 L129.9 169.45 Q127.85 175.25 126.75 177.45 M139.55 178.9 L139.2 177.85 Q144.65 176.35 149.85 177.8 151.35 178.15 152.2 179.2 152.05 180.15 150.55 180.3 L144.25 179.7 139.55 178.9 M150.75 197.15 L152.4 199.8 151.85 200.05 140.8 201.3 140.65 201.3 140.4 198.75 140.75 198.25 140.8 198.25 150.75 197.15 M162.4 198.95 Q163.2 198.4 164.0 198.15 L164.65 198.7 164.95 198.05 169.75 210.3 166.85 211.5 166.3 210.7 Q163.3 205.15 162.4 198.95 M215.65 208.7 L215.4 209.2 216.15 208.85 216.45 208.9 216.55 209.6 210.15 216.45 207.05 216.55 206.95 216.0 Q209.85 211.4 214.65 208.5 L215.65 208.7" fill="#64b213" fill-rule="evenodd" stroke="none"/>
  </g>
</svg>
