<?xml version="1.0" encoding="UTF-8" standalone="no"?>
<svg xmlns:xlink="http://www.w3.org/1999/xlink" height="529.4px" width="887.8px" xmlns="http://www.w3.org/2000/svg">
  <g transform="matrix(1.0, 0.0, 0.0, 1.0, 428.45, 123.15)">
    <path d="M-346.15 99.4 L440.8 280.75 441.5 281.65 441.05 282.65 427.95 279.85 186.25 224.25 159.55 260.35 174.2 263.95 174.5 265.05 168.2 273.1 152.1 269.15 134.85 291.75 148.25 295.4 150.45 296.05 150.75 296.95 144.8 304.65 129.2 301.15 117.25 316.85 110.95 325.05 126.45 326.65 Q127.15 326.8 127.4 327.5 L121.3 335.95 121.1 336.05 120.55 336.05 103.4 333.9 86.2 356.45 101.9 358.4 Q102.85 358.7 102.8 359.55 L97.15 367.2 83.8 365.7 96.05 365.3 99.95 360.15 83.6 357.65 83.55 356.6 102.15 332.25 102.55 331.95 120.2 334.05 124.5 328.45 108.5 326.6 108.2 326.2 114.5 317.15 128.45 299.15 128.5 299.1 128.6 299.15 144.1 302.65 148.15 297.35 143.8 296.2 132.5 293.1 132.2 292.6 132.35 291.7 150.95 267.45 151.4 267.1 167.45 271.0 171.8 265.25 157.05 261.55 157.05 260.4 184.3 223.7 50.8 193.2 17.95 223.35 33.65 226.9 33.9 227.9 26.25 234.8 8.8 230.8 -12.3 249.55 4.4 254.65 -2.7 261.4 -19.75 257.85 -37.9 274.05 -42.3 277.95 -26.95 282.75 -26.65 283.5 -30.25 286.95 -34.45 290.65 -51.45 285.2 -72.65 304.05 -56.8 310.05 -64.15 316.75 -80.8 311.4 -115.3 342.35 -115.95 342.95 -102.1 349.55 -55.9 371.6 -55.4 372.2 Q-55.25 372.55 -55.45 372.95 L-56.0 373.45 -56.75 373.4 -98.8 353.35 -116.25 345.0 -116.55 348.05 -106.85 352.7 -39.1 385.0 -38.6 385.6 -39.2 386.85 -39.95 386.8 -107.0 354.8 -215.65 302.95 -214.5 304.4 Q-208.8 311.8 -209.9 320.9 -211.2 328.85 -218.45 332.95 -223.5 335.75 -229.2 335.6 -242.65 334.95 -253.4 326.65 -260.7 321.0 -263.35 312.0 -265.65 304.25 -261.0 297.6 L-260.7 297.2 Q-254.95 290.7 -246.5 289.65 L-244.15 289.4 -275.6 274.4 Q-267.35 282.5 -268.4 293.9 -268.9 297.05 -270.55 299.65 -275.65 307.8 -285.25 308.45 -291.05 308.75 -296.7 307.4 -306.25 304.8 -313.6 298.2 -319.55 292.95 -321.85 285.25 -324.55 276.15 -318.25 269.15 -311.1 262.1 -300.85 262.35 L-300.8 262.35 -367.45 230.55 -411.05 209.75 -411.65 208.85 -410.55 207.85 -380.65 222.1 -328.9 246.75 -328.95 243.55 -404.7 207.4 -427.85 196.35 -428.45 195.45 -427.75 194.5 -403.25 205.9 -403.95 205.55 -374.45 185.8 -373.9 185.65 -362.95 189.4 -360.05 187.4 -369.95 183.35 -369.35 182.7 Q-362.9 178.15 -355.55 175.15 L-366.85 182.95 -356.85 187.0 -362.6 191.5 -373.75 187.7 -374.25 188.05 -401.7 206.65 -369.6 221.95 -329.0 241.35 -299.6 219.75 -286.2 223.8 -282.7 221.15 -294.4 217.2 -294.65 216.45 -274.2 201.35 -261.1 205.35 -257.15 202.4 -262.6 200.85 -268.0 199.0 -268.8 198.45 -268.45 197.45 -247.65 182.3 -247.2 182.1 -234.15 186.15 -230.4 183.45 -242.85 178.8 -243.0 177.85 -222.6 163.0 -209.3 167.3 -205.3 164.35 -217.0 160.5 -217.25 160.0 -216.9 159.05 -188.7 137.75 -274.75 117.9 -274.95 117.9 -274.8 118.0 -274.75 119.05 -299.2 136.45 -289.2 140.25 -289.25 141.1 -295.3 145.25 -304.3 142.0 Q-300.25 141.4 -295.6 143.15 L-292.3 140.95 -302.0 137.3 -302.3 136.9 -302.25 136.4 -301.9 135.95 -276.2 117.75 -275.9 117.65 -276.15 117.6 -349.0 100.75 -349.4 100.1 -348.95 99.05 -346.15 99.4 M72.35 374.6 L48.35 405.9 47.7 406.25 46.95 406.05 Q46.25 405.45 46.75 404.7 L70.2 374.05 Q73.5 369.85 77.5 367.8 L72.35 374.6 M-39.95 273.15 L-20.5 256.05 -3.3 259.4 1.5 255.15 -15.3 250.25 -15.0 249.35 8.05 228.95 25.65 232.75 25.7 232.7 30.85 228.15 15.2 224.7 14.9 224.2 15.25 223.2 48.8 192.45 -76.6 163.55 -105.9 188.6 -92.5 192.1 -92.15 192.75 -94.2 195.1 -99.4 199.15 -114.4 195.1 -133.4 210.8 -126.0 212.95 -119.05 215.15 -118.8 216.0 -125.6 221.7 -140.5 218.05 -141.2 218.75 -160.45 234.75 -147.35 237.9 -147.1 238.85 -154.15 244.6 -169.05 241.2 -187.95 256.8 -174.4 260.35 -174.25 261.4 -180.85 266.8 -195.7 263.3 -227.5 289.75 -134.2 334.25 -117.8 341.35 -113.55 338.0 -81.7 309.6 -80.8 309.55 -76.7 310.85 -72.65 312.1 -70.2 312.9 -68.55 313.4 -64.55 314.7 -59.75 310.35 -75.3 305.15 -75.2 303.75 -52.3 283.35 -51.85 283.15 -34.9 288.5 -32.3 286.2 -29.7 283.85 -45.0 279.1 Q-45.45 278.35 -44.85 277.75 L-39.95 273.15 M-122.55 216.0 L-136.15 211.9 -136.05 210.45 -115.3 193.3 -114.9 193.05 -99.65 197.05 -95.2 193.4 -108.7 189.9 -108.95 189.4 -108.65 188.4 -78.95 163.0 -186.35 138.45 -214.15 159.5 -202.3 163.4 -202.15 164.45 -208.7 169.4 -222.35 164.95 -240.05 177.85 -227.55 182.5 -227.4 183.55 -233.95 188.3 -246.9 184.15 -265.65 197.9 -254.2 201.4 -254.1 202.7 -260.95 207.5 -273.95 203.35 -291.45 216.25 -279.7 220.1 -279.55 221.1 -285.45 225.65 -299.05 221.8 -326.95 242.3 -229.45 288.8 -196.6 261.5 -196.1 261.3 -181.3 264.85 -177.3 261.5 -183.75 259.85 -190.55 257.8 -191.0 257.5 -190.7 256.55 -169.95 239.35 -169.45 239.15 -154.65 242.8 -150.25 239.1 -163.6 235.45 -154.8 227.5 Q-148.1 221.45 -140.75 216.2 L-127.1 219.4 -125.95 219.65 -125.45 219.25 -123.65 217.75 -121.85 216.2 -122.55 216.0 M-310.4 143.75 L-321.8 151.5 -311.45 155.75 -311.35 156.75 -317.05 160.7 -328.1 156.9 -344.2 167.95 -334.75 171.15 -334.6 172.25 -340.6 176.4 -349.5 173.35 Q-345.5 172.75 -340.9 174.3 L-337.8 172.15 -347.3 168.7 -347.35 167.85 -328.4 154.85 -317.3 158.6 -314.35 156.55 -324.65 152.35 -324.8 151.35 -324.4 150.95 Q-317.7 146.35 -310.4 143.75 M-229.9 290.95 L-327.0 244.45 -326.95 247.7 -230.2 293.85 -229.9 290.95 M-228.3 294.75 L-118.45 347.15 -118.15 344.1 -227.95 291.7 -228.3 294.75 M-231.65 295.35 Q-237.0 293.25 -242.5 291.95 L-246.8 291.65 Q-250.35 292.3 -253.3 293.65 -257.3 295.45 -259.35 298.3 -262.25 302.4 -262.15 307.25 L-262.0 309.9 -261.15 313.15 Q-256.8 325.2 -244.75 329.75 -237.55 332.55 -229.65 333.35 -221.75 334.3 -216.25 329.05 -210.1 323.2 -212.05 315.15 -213.35 309.9 -216.3 305.3 -217.75 303.05 -219.8 301.35 -220.7 300.65 -221.7 300.05 L-231.65 295.35 M-286.0 269.45 Q-293.8 266.4 -302.05 265.4 L-306.05 265.15 Q-313.6 265.9 -317.75 272.15 -321.8 278.25 -319.95 285.35 L-318.75 288.6 Q-315.2 293.9 -310.7 298.4 L-309.3 299.45 Q-300.25 305.05 -289.75 306.4 -285.4 306.8 -281.4 305.75 -275.6 304.25 -272.35 299.25 -269.0 294.25 -270.45 288.25 -273.2 277.25 -282.6 271.05 L-286.0 269.45 M-280.35 291.15 Q-283.1 292.6 -285.7 290.7 -289.3 288.05 -287.6 284.1 -286.4 281.25 -283.1 281.05 -279.4 281.0 -277.9 284.6 -276.7 288.4 -279.85 290.85 L-280.35 291.15 M-282.0 282.5 Q-285.4 281.45 -286.55 284.55 L-286.8 285.4 Q-287.1 290.05 -282.45 290.1 -280.0 290.15 -279.4 287.75 -278.4 283.9 -282.0 282.5 M-248.4 299.3 Q-248.5 303.1 -244.8 303.95 -242.7 304.25 -241.65 302.55 -239.5 298.95 -242.7 296.2 L-244.0 295.3 Q-247.7 295.15 -248.4 299.3 M-249.6 300.25 Q-250.0 296.65 -246.95 295.0 -244.1 293.5 -241.65 295.35 -238.85 297.4 -239.2 300.95 -239.65 305.1 -243.95 305.3 -249.0 305.25 -249.6 300.25" fill="#000000" fill-rule="evenodd" stroke="none"/>
    <path d="M-262.0 309.9 Q-260.75 305.55 -258.25 301.75 -257.75 306.4 -253.9 309.15 -248.5 313.05 -242.15 311.65 -234.3 310.1 -231.1 302.65 -229.25 298.35 -232.75 295.05 L-231.65 295.35 -221.7 300.05 Q-219.5 303.4 -219.15 307.55 -218.55 315.4 -225.35 319.95 -230.05 323.1 -236.05 323.35 -243.4 324.25 -250.5 321.9 -257.55 319.45 -261.15 313.15 L-262.0 309.9 M-246.8 291.65 Q-252.55 293.15 -257.2 296.55 L-259.35 298.3 Q-257.3 295.45 -253.3 293.65 -250.35 292.3 -246.8 291.65 M-319.95 285.35 Q-319.65 283.9 -319.95 282.25 -320.25 280.45 -319.55 278.75 L-318.55 276.45 Q-317.05 281.2 -311.85 281.95 -302.7 283.5 -294.4 279.85 -291.4 278.55 -289.65 275.75 -287.9 273.0 -287.9 269.8 L-286.0 269.45 -282.6 271.05 Q-278.0 276.5 -277.95 283.7 L-277.9 284.6 Q-279.4 281.0 -283.1 281.05 -286.4 281.25 -287.6 284.1 -289.3 288.05 -285.7 290.7 -283.1 292.6 -280.35 291.15 -283.9 295.05 -289.2 296.0 -297.6 297.75 -305.95 295.95 -313.25 294.3 -318.35 288.45 L-318.75 288.6 -319.95 285.35" fill="#cccccc" fill-rule="evenodd" stroke="none"/>
    <path d="M-74.3 183.4 Q-70.05 178.3 -63.6 178.45 -58.95 178.55 -54.85 180.45 -54.0 181.05 -53.75 181.7 L-53.65 182.15 Q-54.55 186.05 -58.75 186.5 L-65.7 187.55 Q-69.05 188.1 -72.35 187.0 -75.4 186.15 -74.3 183.4 M-71.0 183.55 Q-65.7 181.25 -59.9 181.65 L-60.7 181.25 Q-66.35 178.9 -70.85 183.1 L-71.0 183.55 M-73.25 184.35 Q-73.35 186.15 -71.45 186.1 -63.75 186.9 -56.65 184.15 -55.1 183.55 -55.1 181.9 L-56.75 180.85 Q-59.0 183.65 -62.55 184.35 -67.8 185.3 -73.25 184.35 M-200.6 244.35 Q-200.4 247.45 -202.8 249.15 -204.25 250.25 -206.05 250.5 -216.25 252.3 -225.2 257.7 -231.6 261.5 -239.05 260.95 -242.65 260.45 -244.15 256.95 -245.5 253.85 -248.65 252.9 -250.8 252.45 -252.6 251.45 -254.0 250.65 -254.3 249.1 L-253.9 247.45 Q-255.55 248.6 -255.0 250.65 L-254.2 251.85 Q-251.4 254.05 -248.15 255.85 -246.15 256.85 -245.15 259.0 -243.15 263.15 -238.6 263.65 -231.3 263.7 -224.95 259.9 -215.45 254.1 -204.55 252.15 -201.55 251.8 -199.5 249.55 -198.0 247.9 -199.05 246.05 -199.65 244.9 -200.6 244.35 M-240.95 242.55 L-245.05 244.15 Q-248.2 245.6 -250.85 247.85 -247.55 246.25 -243.95 244.9 -237.4 242.55 -230.85 244.75 -224.4 247.0 -217.55 246.2 L-209.1 245.45 Q-206.15 245.3 -204.5 247.2 L-204.75 247.65 -204.15 247.6 -203.45 245.75 Q-204.9 244.2 -207.1 244.05 L-216.4 244.9 -224.4 245.15 -229.8 243.3 Q-235.2 240.9 -240.95 242.55 M-256.7 248.55 Q-249.8 241.4 -239.95 239.7 -235.45 238.75 -231.1 239.75 -218.4 242.75 -205.5 241.6 -203.05 241.8 -200.85 242.6 -197.4 244.05 -197.05 247.65 -196.7 250.9 -199.8 252.15 -203.5 253.9 -207.65 254.7 -211.55 255.6 -215.2 257.3 -224.3 261.6 -233.7 264.95 -237.9 266.35 -241.8 264.35 -244.2 263.15 -245.75 260.9 -248.3 257.35 -252.15 255.5 -256.45 253.35 -256.7 248.55 M-104.25 277.35 Q-104.75 279.55 -106.1 281.35 -109.2 285.6 -114.5 286.3 -123.9 286.55 -130.8 280.05 -131.4 279.5 -132.15 279.3 -134.0 278.8 -136.05 279.6 -139.5 280.65 -142.25 283.15 -146.35 286.9 -151.6 287.6 -155.0 287.75 -158.3 287.5 -164.45 286.5 -165.75 280.1 -164.6 271.7 -156.55 269.05 L-151.9 267.2 Q-148.5 265.7 -147.2 262.35 -144.5 255.15 -137.25 252.85 -132.45 251.35 -127.35 251.65 L-119.9 251.95 -105.95 250.6 Q-101.95 250.6 -99.15 253.15 -96.85 257.75 -99.9 262.15 L-103.55 266.75 Q-105.3 268.65 -105.0 271.25 L-104.25 277.35 M-67.65 266.4 L-63.3 266.2 Q-59.4 266.0 -58.1 269.6 -57.65 270.85 -58.6 271.75 -62.95 275.75 -69.0 274.5 L-70.2 274.3 -72.0 273.95 Q-74.55 273.4 -75.35 271.15 -75.35 269.2 -73.1 267.8 -71.8 267.0 -70.2 266.65 L-67.65 266.4 M-59.25 269.45 L-60.8 268.05 -60.35 268.95 -60.9 269.55 Q-65.4 271.95 -70.2 271.7 L-73.8 271.15 Q-73.75 271.75 -73.05 272.1 L-70.2 273.15 Q-64.55 274.55 -59.65 270.85 L-59.25 269.45 M-70.9 270.2 L-70.2 269.9 -67.85 269.45 -61.85 268.85 -70.2 268.35 -71.25 268.5 Q-71.75 268.7 -72.15 269.2 L-72.4 269.75 Q-72.05 270.8 -70.9 270.2 M-136.0 256.45 Q-143.15 259.85 -146.4 267.15 -147.0 268.5 -148.6 269.1 L-158.45 273.15 Q-161.6 274.5 -162.05 277.55 -158.2 273.8 -152.9 272.35 -146.55 270.9 -143.65 265.35 -142.85 263.8 -141.65 262.5 -137.15 257.6 -130.5 256.65 L-129.4 256.75 Q-119.6 258.05 -109.95 255.55 L-103.6 255.7 -103.2 255.7 -103.15 254.9 Q-106.3 252.75 -110.05 253.75 -115.95 255.4 -122.0 256.2 L-127.1 255.7 Q-131.7 254.35 -136.0 256.45 M-157.55 283.6 Q-161.65 281.9 -163.55 277.65 -164.65 282.15 -160.9 284.85 -156.95 287.7 -152.35 286.45 -147.05 284.9 -142.85 281.65 -138.9 278.6 -134.05 277.4 -131.55 276.65 -129.75 278.35 -125.6 282.35 -120.05 284.05 -115.35 285.5 -110.7 283.6 -109.35 283.0 -108.3 281.6 -104.85 277.4 -106.7 272.3 -107.2 270.9 -106.45 269.65 L-100.5 259.6 Q-99.6 258.0 -99.5 256.35 -99.4 254.05 -101.8 253.05 L-101.1 253.7 Q-101.05 255.45 -101.5 257.15 -102.1 259.25 -103.8 260.95 -109.4 266.45 -107.7 274.05 -107.35 275.45 -108.1 276.6 -111.15 280.9 -116.7 281.0 L-119.7 280.55 Q-125.65 279.05 -131.7 276.95 -134.4 276.1 -136.85 277.25 -141.5 279.3 -146.1 281.9 -149.7 283.85 -153.75 283.8 L-157.55 283.6" fill="#ff4d00" fill-rule="evenodd" stroke="none"/>
    <path d="M-37.9 274.05 Q-30.4 277.95 -22.85 282.0 -12.8 287.35 -1.85 290.95 5.85 293.6 13.75 295.85 21.8 298.05 30.25 299.55 47.4 302.2 64.7 303.3 L98.7 305.1 104.5 304.6 Q116.55 302.35 128.45 299.15 L114.5 317.15 114.35 317.15 Q79.3 320.75 41.6 312.8 9.55 306.05 -20.9 291.8 L-30.45 287.2 -30.25 286.95 -26.65 283.5 -26.95 282.75 -42.3 277.95 -37.9 274.05 M128.6 299.15 Q136.1 297.4 143.8 296.2 L148.15 297.35 144.1 302.65 128.6 299.15 M117.25 316.85 L129.2 301.15 144.8 304.65 150.75 296.95 150.45 296.05 148.25 295.4 152.35 294.3 Q156.45 293.25 160.3 291.6 176.0 285.25 192.6 282.4 193.75 282.15 194.75 281.6 203.0 277.9 208.85 270.7 L203.4 274.1 201.3 272.55 Q204.3 267.7 209.2 264.6 212.65 262.35 214.2 258.75 L214.25 257.5 Q213.5 255.05 214.75 252.9 218.65 253.15 220.9 256.3 222.0 257.85 222.15 259.8 222.4 263.8 221.1 267.55 219.65 271.9 216.4 275.2 208.0 283.85 197.8 290.05 183.8 298.45 168.65 304.2 153.65 310.0 137.6 312.55 133.4 313.2 129.45 314.5 123.5 316.5 117.25 316.85 M-39.95 273.15 L-44.85 277.75 Q-45.45 278.35 -45.0 279.1 L-29.7 283.85 -32.3 286.2 Q-43.1 281.05 -53.8 275.7 L-58.5 273.2 Q-60.4 274.85 -62.9 275.3 L-70.2 275.5 -72.35 275.0 Q-75.3 274.25 -75.35 271.15 -74.55 273.4 -72.0 273.95 L-70.2 274.3 -69.0 274.5 Q-62.95 275.75 -58.6 271.75 -57.65 270.85 -58.1 269.6 -59.4 266.0 -63.3 266.2 L-67.65 266.4 -70.2 264.3 Q-75.55 259.5 -79.75 253.5 -82.25 249.9 -83.2 245.6 -84.25 240.95 -80.65 238.2 L-77.35 235.85 -77.0 236.55 -75.95 236.8 -75.7 238.0 Q-79.55 242.35 -76.95 247.25 -74.3 252.25 -70.2 255.95 -67.9 258.0 -65.1 259.65 L-58.05 263.85 Q-49.3 269.1 -39.95 273.15 M-118.8 216.0 L-119.05 215.15 -126.0 212.95 -120.15 214.4 Q-118.65 214.75 -118.8 216.0 M-99.4 199.15 L-94.2 195.1 -95.05 195.95 Q-97.05 198.1 -99.4 199.15 M-122.55 216.0 L-121.85 216.2 -123.65 217.75 -122.3 216.45 -122.55 216.0 M-125.45 219.25 L-125.95 219.65 -127.1 219.4 -126.05 219.55 -125.45 219.25 M-74.3 183.4 Q-75.4 186.15 -72.35 187.0 -69.05 188.1 -65.7 187.55 L-58.75 186.5 Q-54.55 186.05 -53.65 182.15 -53.2 185.85 -56.8 187.85 -64.3 191.8 -72.75 190.2 L-73.8 189.55 Q-76.6 186.6 -74.3 183.4 M-53.75 181.7 Q-54.0 181.05 -54.85 180.45 L-54.6 180.55 Q-54.05 180.75 -53.75 181.7 M-199.8 252.15 Q-200.6 253.8 -204.85 255.35 L-216.55 259.75 -223.75 264.15 Q-229.35 267.3 -234.1 267.8 -238.2 268.2 -248.0 260.6 -257.2 253.45 -257.35 251.7 -257.6 249.65 -256.9 248.7 L-256.7 248.55 Q-256.45 253.35 -252.15 255.5 -248.3 257.35 -245.75 260.9 -244.2 263.15 -241.8 264.35 -237.9 266.35 -233.7 264.95 -224.3 261.6 -215.2 257.3 -211.55 255.6 -207.65 254.7 -203.5 253.9 -199.8 252.15 M-104.25 277.35 Q-103.2 281.2 -106.55 283.85 -108.3 285.3 -110.5 286.1 -116.8 288.6 -123.5 286.4 L-132.7 283.5 -134.3 283.7 Q-143.6 287.05 -152.6 290.75 L-155.05 291.25 Q-160.45 290.85 -164.55 287.4 -165.45 286.6 -165.9 285.4 -167.0 282.35 -165.8 279.2 L-165.75 280.1 Q-164.45 286.5 -158.3 287.5 -155.0 287.75 -151.6 287.6 -146.35 286.9 -142.25 283.15 -139.5 280.65 -136.05 279.6 -134.0 278.8 -132.15 279.3 -131.4 279.5 -130.8 280.05 -123.9 286.55 -114.5 286.3 -109.2 285.6 -106.1 281.35 -104.75 279.55 -104.25 277.35 M-99.15 253.15 Q-96.65 253.9 -96.35 257.2 -96.05 259.8 -98.9 264.9 -101.45 269.6 -105.0 271.25 -105.3 268.65 -103.55 266.75 L-99.9 262.15 Q-96.85 257.75 -99.15 253.15 M-324.2 209.65 L-324.25 209.65 -324.25 209.6 -324.2 209.65" fill="#808080" fill-rule="evenodd" stroke="none"/>
    <path d="M-73.25 184.35 Q-67.8 185.3 -62.55 184.35 -59.0 183.65 -56.75 180.85 L-55.1 181.9 Q-55.1 183.55 -56.65 184.15 -63.75 186.9 -71.45 186.1 -73.35 186.15 -73.25 184.35 M-200.6 244.35 Q-199.65 244.9 -199.05 246.05 -198.0 247.9 -199.5 249.55 -201.55 251.8 -204.55 252.15 -215.45 254.1 -224.95 259.9 -231.3 263.7 -238.6 263.65 -243.15 263.15 -245.15 259.0 -246.15 256.85 -248.15 255.85 -251.4 254.05 -254.2 251.85 L-255.0 250.65 Q-255.55 248.6 -253.9 247.45 L-254.3 249.1 Q-254.0 250.65 -252.6 251.45 -250.8 252.45 -248.65 252.9 -245.5 253.85 -244.15 256.95 -242.65 260.45 -239.05 260.95 -231.6 261.5 -225.2 257.7 -216.25 252.3 -206.05 250.5 -204.25 250.25 -202.8 249.15 -200.4 247.45 -200.6 244.35 M-59.25 269.45 L-59.65 270.85 Q-64.55 274.55 -70.2 273.15 L-73.05 272.1 Q-73.75 271.75 -73.8 271.15 L-70.2 271.7 Q-65.4 271.95 -60.9 269.55 L-60.35 268.95 -60.8 268.05 -59.25 269.45 M-157.55 283.6 L-153.75 283.8 Q-149.7 283.85 -146.1 281.9 -141.5 279.3 -136.85 277.25 -134.4 276.1 -131.7 276.95 -125.65 279.05 -119.7 280.55 L-116.7 281.0 Q-111.15 280.9 -108.1 276.6 -107.35 275.45 -107.7 274.05 -109.4 266.45 -103.8 260.95 -102.1 259.25 -101.5 257.15 -101.05 255.45 -101.1 253.7 L-101.8 253.05 Q-99.4 254.05 -99.5 256.35 -99.6 258.0 -100.5 259.6 L-106.45 269.65 Q-107.2 270.9 -106.7 272.3 -104.85 277.4 -108.3 281.6 -109.35 283.0 -110.7 283.6 -115.35 285.5 -120.05 284.05 -125.6 282.35 -129.75 278.35 -131.55 276.65 -134.05 277.4 -138.9 278.6 -142.85 281.65 -147.05 284.9 -152.35 286.45 -156.95 287.7 -160.9 284.85 -164.65 282.15 -163.55 277.65 -161.65 281.9 -157.55 283.6" fill="#db2900" fill-rule="evenodd" stroke="none"/>
    <path d="M-71.0 183.55 L-70.85 183.1 Q-66.35 178.9 -60.7 181.25 L-59.9 181.65 Q-65.7 181.25 -71.0 183.55 M-240.95 242.55 Q-235.2 240.9 -229.8 243.3 L-224.4 245.15 -216.4 244.9 -207.1 244.05 Q-204.9 244.2 -203.45 245.75 L-204.15 247.6 -204.75 247.65 -204.5 247.2 Q-206.15 245.3 -209.1 245.45 L-217.55 246.2 Q-224.4 247.0 -230.85 244.75 -237.4 242.55 -243.95 244.9 -247.55 246.25 -250.85 247.85 -248.2 245.6 -245.05 244.15 L-240.95 242.55 M-70.9 270.2 Q-72.05 270.8 -72.4 269.75 L-72.15 269.2 Q-71.75 268.7 -71.25 268.5 L-70.2 268.35 -61.85 268.85 -67.85 269.45 -70.2 269.9 -70.9 270.2 M-136.0 256.45 Q-131.7 254.35 -127.1 255.7 L-122.0 256.2 Q-115.95 255.4 -110.05 253.75 -106.3 252.75 -103.15 254.9 L-103.2 255.7 -103.6 255.7 -109.95 255.55 Q-119.6 258.05 -129.4 256.75 L-130.5 256.65 Q-137.15 257.6 -141.65 262.5 -142.85 263.8 -143.65 265.35 -146.55 270.9 -152.9 272.35 -158.2 273.8 -162.05 277.55 -161.6 274.5 -158.45 273.15 L-148.6 269.1 Q-147.0 268.5 -146.4 267.15 -143.15 259.85 -136.0 256.45" fill="#ff9548" fill-rule="evenodd" stroke="none"/>
    <path d="M-286.8 285.4 Q-285.55 287.55 -283.35 286.5 -280.75 285.35 -282.0 282.5 -278.4 283.9 -279.4 287.75 -280.0 290.15 -282.45 290.1 -287.1 290.05 -286.8 285.4 M-248.4 299.3 Q-246.8 300.9 -244.6 300.0 -242.1 298.9 -242.7 296.2 -239.5 298.95 -241.65 302.55 -242.7 304.25 -244.8 303.95 -248.5 303.1 -248.4 299.3" fill="#c6c6c6" fill-rule="evenodd" stroke="none"/>
    <path d="M-123.15 359.75 L-123.8 359.75 -123.85 359.45 -123.15 359.75 M-260.85 297.15 L-260.7 297.2 -261.0 297.6 -260.85 297.15" fill="#bababa" fill-rule="evenodd" stroke="none"/>
    <path d="M-261.15 313.15 Q-257.55 319.45 -250.5 321.9 -243.4 324.25 -236.05 323.35 -230.05 323.1 -225.35 319.95 -218.55 315.4 -219.15 307.55 -219.5 303.4 -221.7 300.05 -220.7 300.65 -219.8 301.35 -217.75 303.05 -216.3 305.3 -213.35 309.9 -212.05 315.15 -210.1 323.2 -216.25 329.05 -221.75 334.3 -229.65 333.35 -237.55 332.55 -244.75 329.75 -256.8 325.2 -261.15 313.15 M-318.75 288.6 L-318.35 288.45 Q-313.25 294.3 -305.95 295.95 -297.6 297.75 -289.2 296.0 -283.9 295.05 -280.35 291.15 L-279.85 290.85 Q-276.7 288.4 -277.9 284.6 L-277.95 283.7 Q-278.0 276.5 -282.6 271.05 -273.2 277.25 -270.45 288.25 -269.0 294.25 -272.35 299.25 -275.6 304.25 -281.4 305.75 -285.4 306.8 -289.75 306.4 -300.25 305.05 -309.3 299.45 L-310.7 298.4 Q-315.2 293.9 -318.75 288.6" fill="#a8a8a8" fill-rule="evenodd" stroke="none"/>
    <path d="M-231.65 295.35 L-232.75 295.05 Q-229.25 298.35 -231.1 302.65 -234.3 310.1 -242.15 311.65 -248.5 313.05 -253.9 309.15 -257.75 306.4 -258.25 301.75 -260.75 305.55 -262.0 309.9 L-262.15 307.25 Q-262.25 302.4 -259.35 298.3 L-257.2 296.55 Q-252.55 293.15 -246.8 291.65 L-242.5 291.95 Q-237.0 293.25 -231.65 295.35 M-286.0 269.45 L-287.9 269.8 Q-287.9 273.0 -289.65 275.75 -291.4 278.55 -294.4 279.85 -302.7 283.5 -311.85 281.95 -317.05 281.2 -318.55 276.45 L-319.55 278.75 Q-320.25 280.45 -319.95 282.25 -319.65 283.9 -319.95 285.35 -321.8 278.25 -317.75 272.15 -313.6 265.9 -306.05 265.15 L-302.05 265.4 Q-293.8 266.4 -286.0 269.45 M-249.6 300.25 Q-249.0 305.25 -243.95 305.3 -239.65 305.1 -239.2 300.95 -238.85 297.4 -241.65 295.35 -244.1 293.5 -246.95 295.0 -250.0 296.65 -249.6 300.25" fill="#e8e8e8" fill-rule="evenodd" stroke="none"/>
    <path d="M-98.8 353.35 L-104.25 350.95 -104.85 351.35 -106.7 350.4 -106.85 352.7 -116.55 348.05 -116.25 345.0 -98.8 353.35 M-107.0 354.8 Q-107.6 357.6 -110.4 358.25 -116.6 359.95 -123.15 359.75 L-123.85 359.45 Q-139.1 353.25 -154.0 346.55 L-183.05 333.4 -209.9 320.9 Q-208.8 311.8 -214.5 304.4 L-215.65 302.95 -107.0 354.8 M-359.7 245.7 L-359.95 245.3 Q-364.25 238.35 -367.45 230.55 L-300.8 262.35 -300.85 262.35 Q-311.1 262.1 -318.25 269.15 L-350.9 251.2 -359.7 245.7 M-268.4 293.9 Q-267.35 282.5 -275.6 274.4 L-244.15 289.4 -246.5 289.65 Q-254.95 290.7 -260.7 297.2 L-260.85 297.15 -268.4 293.9" fill="#848484" fill-rule="evenodd" stroke="none"/>
    <path d="M-123.8 359.75 Q-148.5 360.8 -183.4 356.8 L-199.35 354.75 -213.6 352.7 -232.15 350.0 -240.0 349.25 Q-241.45 352.25 -245.7 352.6 -252.65 353.3 -259.6 352.5 -259.75 353.15 -260.15 353.55 -261.35 354.55 -262.6 353.7 L-263.45 352.8 -263.6 352.75 -264.5 352.8 -264.5 352.9 Q-263.95 353.9 -264.45 354.7 -265.5 356.8 -267.25 355.15 L-268.8 353.2 -269.5 353.6 -270.35 353.6 -271.45 353.7 Q-270.85 354.65 -270.8 355.65 -270.7 357.4 -272.35 357.45 -274.15 357.6 -274.8 355.8 -274.6 356.7 -275.25 357.35 -276.65 358.85 -278.0 357.15 -278.7 356.2 -279.0 355.05 L-279.2 355.3 -279.55 355.85 Q-280.0 356.3 -280.6 356.4 L-280.95 356.55 -281.25 358.45 Q-281.4 360.15 -283.15 360.4 -284.9 360.55 -285.15 358.9 L-285.9 359.15 -287.85 359.1 -288.75 358.5 Q-291.3 361.75 -291.95 357.6 -292.5 353.55 -292.7 349.45 L-293.3 342.45 Q-293.55 339.95 -294.25 337.7 -306.65 330.8 -313.15 317.75 -320.8 302.5 -332.5 285.4 L-351.5 258.45 -357.9 248.7 -359.7 245.7 -350.9 251.2 -318.25 269.15 Q-324.55 276.15 -321.85 285.25 -319.55 292.95 -313.6 298.2 -306.25 304.8 -296.7 307.4 -291.05 308.75 -285.25 308.45 -275.65 307.8 -270.55 299.65 -268.9 297.05 -268.4 293.9 L-260.85 297.15 -261.0 297.6 Q-265.65 304.25 -263.35 312.0 -260.7 321.0 -253.4 326.65 -242.65 334.95 -229.2 335.6 -223.5 335.75 -218.45 332.95 -211.2 328.85 -209.9 320.9 L-183.05 333.4 -154.0 346.55 Q-139.1 353.25 -123.85 359.45 L-123.8 359.75" fill="#a4a4a4" fill-rule="evenodd" stroke="none"/>
    <path d="M-286.8 285.4 L-286.55 284.55 Q-285.4 281.45 -282.0 282.5 -280.75 285.35 -283.35 286.5 -285.55 287.55 -286.8 285.4 M-242.7 296.2 Q-242.1 298.9 -244.6 300.0 -246.8 300.9 -248.4 299.3 -247.7 295.15 -244.0 295.3 L-242.7 296.2" fill="#eaeaea" fill-rule="evenodd" stroke="none"/>
    <path d="M442.45 276.25 Q442.5 275.1 443.5 274.8 443.55 272.3 445.1 269.95 L446.1 269.7 446.15 268.0 447.7 266.6 447.7 265.3 Q447.9 263.2 449.95 263.35 449.75 261.25 451.3 260.1 L452.8 260.0 453.35 260.6 Q453.55 257.8 452.8 254.9 452.4 253.45 453.75 252.55 453.15 250.7 454.85 249.85 L455.5 250.0 Q456.7 251.05 456.4 252.45 457.6 253.6 457.75 255.25 L459.1 268.75 Q459.55 272.9 459.15 276.9 458.95 279.3 456.6 278.9 455.75 280.65 453.9 280.65 L453.05 279.15 452.0 279.15 Q451.5 280.1 450.4 280.3 L447.55 280.8 Q443.05 282.3 440.25 279.1 440.9 277.65 442.5 276.75 L442.45 276.25" fill="#898989" fill-rule="evenodd" stroke="none"/>
    <path d="M427.95 279.85 Q429.35 281.2 429.6 283.35 429.8 285.65 429.15 286.65 428.2 288.1 425.05 289.0 419.1 290.75 394.9 292.4 L397.15 296.1 Q398.75 298.6 398.95 300.15 399.5 305.55 395.6 307.7 391.7 309.85 378.05 311.75 L338.2 316.7 Q304.05 321.0 268.1 326.9 239.45 331.6 222.85 335.6 L219.0 336.55 Q202.9 341.3 188.9 344.45 L137.35 359.7 133.65 360.8 Q90.25 373.6 81.1 374.55 75.65 375.1 72.35 374.6 L77.5 367.8 Q78.65 367.15 79.9 366.75 L83.8 365.7 97.15 367.2 102.8 359.55 Q102.85 358.7 101.9 358.4 L86.2 356.45 103.4 333.9 120.55 336.05 121.1 336.05 121.3 335.95 127.4 327.5 Q127.15 326.8 126.45 326.65 L110.95 325.05 117.25 316.85 Q123.5 316.5 129.45 314.5 133.4 313.2 137.6 312.55 153.65 310.0 168.65 304.2 183.8 298.45 197.8 290.05 208.0 283.85 216.4 275.2 219.65 271.9 221.1 267.55 222.4 263.8 222.15 259.8 222.0 257.85 220.9 256.3 218.65 253.15 214.75 252.9 213.5 255.05 214.25 257.5 L214.2 258.75 Q212.65 262.35 209.2 264.6 204.3 267.7 201.3 272.55 L203.4 274.1 208.85 270.7 Q203.0 277.9 194.75 281.6 193.75 282.15 192.6 282.4 176.0 285.25 160.3 291.6 156.45 293.25 152.35 294.3 L148.25 295.4 134.85 291.75 152.1 269.15 168.2 273.1 174.5 265.05 174.2 263.95 159.55 260.35 186.25 224.25 427.95 279.85" fill="url(#gradient0)" fill-rule="evenodd" stroke="none"/>
    <path d="M70.2 374.05 Q67.65 373.2 65.7 370.9 63.3 367.75 61.5 366.05 58.25 362.95 53.25 360.8 41.75 356.1 17.45 352.1 -5.65 348.2 -30.05 346.45 -51.6 344.95 -70.2 345.55 L-90.0 346.8 -96.05 347.7 -103.65 348.7 -115.3 342.35 -80.8 311.4 -64.15 316.75 -56.8 310.05 -72.65 304.05 -51.45 285.2 -34.45 290.65 -30.25 286.95 -30.45 287.2 -20.9 291.8 Q9.55 306.05 41.6 312.8 79.3 320.75 114.35 317.15 L114.5 317.15 108.2 326.2 108.5 326.6 124.5 328.45 120.2 334.05 102.55 331.95 102.15 332.25 83.55 356.6 83.6 357.65 99.95 360.15 96.05 365.3 83.8 365.7 79.9 366.75 Q78.65 367.15 77.5 367.8 73.5 369.85 70.2 374.05 M-37.9 274.05 L-19.75 257.85 -2.7 261.4 4.4 254.65 -12.3 249.55 8.8 230.8 26.25 234.8 33.9 227.9 33.65 226.9 17.95 223.35 50.8 193.2 184.3 223.7 157.05 260.4 157.05 261.55 171.8 265.25 167.45 271.0 151.4 267.1 150.95 267.45 132.35 291.7 132.2 292.6 132.5 293.1 143.8 296.2 Q136.1 297.4 128.6 299.15 L128.5 299.1 128.45 299.15 Q116.55 302.35 104.5 304.6 L98.7 305.1 64.7 303.3 Q47.4 302.2 30.25 299.55 21.8 298.05 13.75 295.85 5.85 293.6 -1.85 290.95 -12.8 287.35 -22.85 282.0 -30.4 277.95 -37.9 274.05" fill="url(#gradient1)" fill-rule="evenodd" stroke="none"/>
    <path d="M-94.2 195.1 L-92.15 192.75 -92.5 192.1 -105.9 188.6 -76.6 163.55 48.8 192.45 15.25 223.2 14.9 224.2 15.2 224.7 30.85 228.15 25.7 232.7 25.65 232.75 8.05 228.95 -15.0 249.35 -15.3 250.25 1.5 255.15 -3.3 259.4 -20.5 256.05 -39.95 273.15 Q-49.3 269.1 -58.05 263.85 L-65.1 259.65 Q-67.9 258.0 -70.2 255.95 -74.3 252.25 -76.95 247.25 -79.55 242.35 -75.7 238.0 L-75.95 236.8 -77.0 236.55 -77.35 235.85 -80.65 238.2 Q-84.25 240.95 -83.2 245.6 -82.25 249.9 -79.75 253.5 -75.55 259.5 -70.2 264.3 L-67.65 266.4 -70.2 266.65 Q-71.8 267.0 -73.1 267.8 -75.35 269.2 -75.35 271.15 -75.3 274.25 -72.35 275.0 L-70.2 275.5 -62.9 275.3 Q-60.4 274.85 -58.5 273.2 L-53.8 275.7 Q-43.1 281.05 -32.3 286.2 L-34.9 288.5 -51.85 283.15 -52.3 283.35 -75.2 303.75 -75.3 305.15 -59.75 310.35 -64.55 314.7 -68.55 313.4 -70.2 312.9 -72.65 312.1 -76.7 310.85 -80.8 309.55 -81.7 309.6 -113.55 338.0 -117.8 341.35 -134.2 334.25 -227.5 289.75 -195.7 263.3 -180.85 266.8 -174.25 261.4 -174.4 260.35 -187.95 256.8 -169.05 241.2 -154.15 244.6 -147.1 238.85 -147.35 237.9 -160.45 234.75 -141.2 218.75 -140.5 218.05 -125.6 221.7 -118.8 216.0 Q-118.65 214.75 -120.15 214.4 L-126.0 212.95 -133.4 210.8 -114.4 195.1 -99.4 199.15 Q-97.05 198.1 -95.05 195.95 L-94.2 195.1 M-54.85 180.45 Q-58.95 178.55 -63.6 178.45 -70.05 178.3 -74.3 183.4 -76.6 186.6 -73.8 189.55 L-72.75 190.2 Q-64.3 191.8 -56.8 187.85 -53.2 185.85 -53.65 182.15 L-53.75 181.7 Q-54.05 180.75 -54.6 180.55 L-54.85 180.45 M-165.75 280.1 L-165.8 279.2 Q-167.0 282.35 -165.9 285.4 -165.45 286.6 -164.55 287.4 -160.45 290.85 -155.05 291.25 L-152.6 290.75 Q-143.6 287.05 -134.3 283.7 L-132.7 283.5 -123.5 286.4 Q-116.8 288.6 -110.5 286.1 -108.3 285.3 -106.55 283.85 -103.2 281.2 -104.25 277.35 L-105.0 271.25 Q-101.45 269.6 -98.9 264.9 -96.05 259.8 -96.35 257.2 -96.65 253.9 -99.15 253.15 -101.95 250.6 -105.95 250.6 L-119.9 251.95 -127.35 251.65 Q-132.45 251.35 -137.25 252.85 -144.5 255.15 -147.2 262.35 -148.5 265.7 -151.9 267.2 L-156.55 269.05 Q-164.6 271.7 -165.75 280.1" fill="url(#gradient2)" fill-rule="evenodd" stroke="none"/>
    <path d="M-127.1 219.4 L-140.75 216.2 Q-148.1 221.45 -154.8 227.5 L-163.6 235.45 -150.25 239.1 -154.65 242.8 -169.45 239.15 -169.95 239.35 -190.7 256.55 -191.0 257.5 -190.55 257.8 -183.75 259.85 -177.3 261.5 -181.3 264.85 -196.1 261.3 -196.6 261.5 -229.45 288.8 -326.95 242.3 -299.05 221.8 -285.45 225.65 -279.55 221.1 -279.7 220.1 -291.45 216.25 -273.95 203.35 -260.95 207.5 -254.1 202.7 -254.2 201.4 -265.65 197.9 -246.9 184.15 -233.95 188.3 -227.4 183.55 -227.55 182.5 -240.05 177.85 -222.35 164.95 -208.7 169.4 -202.15 164.45 -202.3 163.4 -214.15 159.5 -186.35 138.45 -78.95 163.0 -108.65 188.4 -108.95 189.4 -108.7 189.9 -95.2 193.4 -99.65 197.05 -114.9 193.05 -115.3 193.3 -136.05 210.45 -136.15 211.9 -122.55 216.0 -122.3 216.45 -123.65 217.75 -125.45 219.25 -126.05 219.55 -127.1 219.4 M-199.8 252.15 Q-196.7 250.9 -197.05 247.65 -197.4 244.05 -200.85 242.6 -203.05 241.8 -205.5 241.6 -218.4 242.75 -231.1 239.75 -235.45 238.75 -239.95 239.7 -249.8 241.4 -256.7 248.55 L-256.9 248.7 Q-257.6 249.65 -257.35 251.7 -257.2 253.45 -248.0 260.6 -238.2 268.2 -234.1 267.8 -229.35 267.3 -223.75 264.15 L-216.55 259.75 -204.85 255.35 Q-200.6 253.8 -199.8 252.15" fill="url(#gradient3)" fill-rule="evenodd" stroke="none"/>
    <path d="M-304.3 142.0 L-295.3 145.25 -289.25 141.1 -289.2 140.25 -299.2 136.45 -274.75 119.05 -274.8 118.0 -274.75 117.9 -188.7 137.75 -216.9 159.05 -217.25 160.0 -217.0 160.5 -205.3 164.35 -209.3 167.3 -222.6 163.0 -243.0 177.85 -242.85 178.8 -230.4 183.45 -234.15 186.15 -247.2 182.1 -247.65 182.3 -268.45 197.45 -268.8 198.45 -268.0 199.0 -262.6 200.85 -257.15 202.4 -261.1 205.35 -274.2 201.35 -294.65 216.45 -294.4 217.2 -282.7 221.15 -286.2 223.8 -299.6 219.75 -329.0 241.35 -369.6 221.95 -370.4 221.55 -373.15 211.85 Q-376.25 200.1 -374.25 188.05 L-373.75 187.7 -362.6 191.5 -356.85 187.0 -366.85 182.95 -355.55 175.15 -349.5 173.35 -340.6 176.4 -334.6 172.25 -334.75 171.15 -344.2 167.95 -328.1 156.9 -317.05 160.7 -311.35 156.75 -311.45 155.75 -321.8 151.5 -310.4 143.75 -306.65 141.15 -304.3 142.0 M-324.2 209.65 L-324.25 209.6 -324.25 209.65 -324.2 209.65" fill="url(#gradient4)" fill-rule="evenodd" stroke="none"/>
    <path d="M-373.9 185.65 L-371.85 173.25 Q-368.4 154.6 -365.95 147.9 -363.7 141.8 -361.85 134.05 L-358.85 120.45 Q-355.75 105.8 -351.3 98.9 -349.35 95.75 -347.95 96.0 -346.6 96.2 -346.15 99.4 L-348.95 99.05 -349.4 100.1 -349.0 100.75 -276.15 117.6 -276.2 117.75 -301.9 135.95 -302.25 136.4 -302.3 136.9 -302.0 137.3 -292.3 140.95 -295.6 143.15 Q-300.25 141.4 -304.3 142.0 L-306.65 141.15 -310.4 143.75 Q-317.7 146.35 -324.4 150.95 L-324.8 151.35 -324.65 152.35 -314.35 156.55 -317.3 158.6 -328.4 154.85 -347.35 167.85 -347.3 168.7 -337.8 172.15 -340.9 174.3 Q-345.5 172.75 -349.5 173.35 L-355.55 175.15 Q-362.9 178.15 -369.35 182.7 L-369.95 183.35 -360.05 187.4 -362.95 189.4 -373.9 185.65" fill="url(#gradient5)" fill-rule="evenodd" stroke="none"/>
    <path d="M-380.65 222.1 L-404.7 207.4 -328.95 243.55 -328.9 246.75 -380.65 222.1 M-228.3 294.75 L-227.95 291.7 -118.15 344.1 -118.45 347.15 -228.3 294.75 M-229.9 290.95 L-230.2 293.85 -326.95 247.7 -327.0 244.45 -229.9 290.95" fill="#727272" fill-rule="evenodd" stroke="none"/>
    <path d="M-103.65 348.7 L-102.1 349.55 -115.95 342.95 -115.3 342.35 -103.65 348.7" fill="#bdbdbd" fill-rule="evenodd" stroke="none"/>
    <path d="M-62.25 225.8 Q-57.7 213.25 -44.5 209.55 L-22.15 203.2 Q-17.2 201.6 -12.15 200.3 8.5 195.2 29.35 194.2 L40.95 195.45 Q51.6 197.55 62.55 198.35 L74.75 198.35 Q85.05 198.55 94.35 203.05 L108.65 209.8 Q115.05 212.9 122.05 213.8 L146.0 214.85 Q155.55 215.05 164.8 217.65 179.8 221.75 191.05 231.4 L192.55 232.7 Q197.25 237.0 201.25 242.3 L201.7 241.65 202.0 241.2 204.15 238.65 204.25 239.3 201.95 243.6 202.0 243.65 200.25 246.1 Q196.0 250.5 191.05 253.7 183.9 258.4 175.2 260.6 159.15 264.7 143.35 269.15 130.15 272.75 121.0 283.0 L123.0 282.8 126.55 282.45 Q136.9 281.55 147.2 282.8 L147.6 282.9 Q148.0 283.0 147.9 283.45 L147.9 283.5 Q147.85 284.1 147.35 283.85 129.25 282.6 111.4 285.5 L106.3 286.0 Q96.15 286.1 86.1 284.05 74.8 281.95 63.15 282.0 L44.0 281.85 Q21.55 281.45 4.05 267.6 -2.7 262.25 -10.3 258.0 -23.8 250.6 -39.2 251.6 -48.05 252.15 -56.25 249.5 L-56.65 249.4 -57.6 248.55 -53.05 249.3 -49.15 250.0 -46.95 250.25 Q-50.3 244.9 -54.85 240.6 -58.2 237.45 -60.55 233.45 L-60.95 232.7 Q-62.7 229.15 -62.25 225.85 L-62.25 225.8 M216.55 240.45 Q215.3 236.45 212.45 232.7 L212.3 232.5 210.95 230.85 Q207.3 226.65 201.95 222.95 183.95 211.75 163.2 206.95 L121.9 197.4 Q101.35 192.75 80.4 189.5 59.05 186.45 37.35 186.05 17.25 185.7 -2.75 187.65 -24.05 189.65 -44.45 196.3 -54.6 199.6 -62.75 206.25 -67.05 209.8 -70.75 213.85 -74.3 217.75 -77.3 222.1 L-79.1 224.5 Q-81.75 228.6 -82.1 233.35 L-82.05 236.6 Q-81.4 243.8 -76.9 249.65 -73.85 253.65 -70.2 257.0 -66.8 260.15 -62.9 262.75 -45.15 274.6 -25.7 283.4 -7.35 291.7 12.0 297.55 32.05 303.45 52.8 306.15 65.75 307.85 78.85 308.0 L79.15 308.0 Q100.3 308.45 120.75 304.25 140.75 300.2 159.75 293.15 163.7 291.65 168.4 290.4 180.05 287.4 191.05 282.15 L193.15 281.1 Q204.65 275.3 211.8 264.7 216.25 258.15 217.45 250.3 L217.55 248.65 Q217.8 244.55 216.65 240.75 L216.55 240.45 M173.65 222.45 Q153.9 215.05 132.7 216.1 122.05 216.2 111.95 212.8 105.7 210.85 99.95 207.35 84.95 198.2 67.4 199.4 L61.15 199.8 Q48.8 198.4 36.65 196.2 L26.3 195.75 Q5.7 196.5 -14.05 202.4 L-24.4 205.55 Q-34.35 208.75 -44.35 211.05 -49.65 212.25 -53.85 215.85 -56.9 218.45 -58.1 220.65 -59.35 222.8 -60.1 225.05 -60.85 227.3 -59.65 230.7 L-58.95 232.7 -57.9 235.1 -55.5 237.6 Q-50.1 243.1 -45.8 249.4 L-45.65 249.65 -45.35 250.3 -44.45 250.35 Q-32.4 249.65 -20.65 252.3 -10.4 254.7 -2.0 261.2 3.9 265.7 10.1 269.7 24.15 278.95 40.75 280.05 54.45 280.4 68.2 280.3 80.3 280.25 92.2 282.95 104.15 285.55 116.05 283.6 L118.85 283.25 Q126.95 272.95 139.45 268.6 150.55 264.75 162.0 262.25 173.85 259.7 185.2 255.0 188.3 253.7 191.05 252.0 196.25 248.65 200.2 243.7 196.25 237.45 191.05 232.75 L191.05 232.7 Q183.65 226.0 173.65 222.45 M76.95 187.0 Q89.8 188.75 105.15 191.85 L133.15 198.0 157.0 203.4 Q170.75 206.7 180.4 210.3 191.95 214.55 199.3 218.85 208.35 224.25 213.5 230.85 L214.7 232.5 214.85 232.7 Q220.4 240.85 218.95 251.0 217.75 260.15 211.15 268.8 205.1 276.75 195.05 282.3 L191.05 284.35 Q184.4 287.5 175.45 290.25 L165.8 292.95 Q160.05 294.6 156.2 295.95 138.25 302.35 127.85 304.75 96.5 311.85 62.45 308.95 30.45 306.15 -1.7 294.7 -35.65 282.55 -57.95 267.85 -65.1 263.1 -70.2 258.7 -75.65 253.9 -78.75 249.5 -84.4 241.5 -83.6 233.35 -83.25 229.95 -81.75 226.5 L-78.85 221.35 -72.9 213.85 -67.2 207.65 Q-59.05 199.65 -49.95 196.15 -35.55 190.6 -17.5 187.85 -3.8 185.7 15.85 184.65 47.6 183.0 76.95 187.0" fill="#000000" fill-rule="evenodd" stroke="none"/>
    <path d="M201.7 241.65 Q202.7 237.25 199.45 234.15 L197.95 232.7 195.9 230.85 Q191.05 226.55 185.7 222.85 167.6 210.35 145.55 208.95 L137.45 207.8 Q122.05 207.05 107.05 204.35 105.5 203.95 104.05 203.25 96.45 200.0 88.8 197.0 85.1 195.6 81.3 195.4 67.4 195.0 53.35 194.75 L43.95 193.0 Q30.65 190.0 17.25 192.15 L8.85 192.85 Q-3.75 192.8 -15.6 196.85 -26.5 200.55 -37.7 203.9 L-43.75 205.5 Q-53.85 207.85 -59.8 216.6 -62.8 220.9 -62.25 225.8 L-62.25 225.85 Q-62.7 229.15 -60.95 232.7 L-60.55 233.45 -61.3 232.7 Q-63.3 230.8 -65.75 229.6 L-66.95 229.2 Q-66.55 231.2 -65.15 232.7 L-64.8 233.05 Q-56.25 240.9 -49.15 250.0 L-53.05 249.3 Q-60.15 241.35 -68.1 234.05 -68.7 233.5 -69.4 233.1 L-70.2 232.75 -71.15 232.45 -71.05 233.35 Q-70.85 235.4 -71.35 237.7 -71.9 240.35 -74.1 240.1 L-75.05 239.5 Q-77.25 236.6 -78.3 233.35 -79.65 229.25 -79.1 224.5 L-77.3 222.1 -71.25 216.6 -73.15 222.55 Q-73.7 224.2 -73.6 226.05 -70.85 223.3 -69.4 219.9 -68.55 217.8 -68.15 215.45 -67.8 213.1 -66.1 211.4 -62.9 208.15 -59.1 205.7 -56.05 203.85 -52.6 202.9 -43.05 200.0 -33.25 197.65 -29.95 196.75 -26.85 195.3 -12.7 188.5 3.05 189.25 15.15 189.95 27.0 188.0 L31.95 187.65 Q49.2 189.65 66.55 189.7 74.2 189.7 81.75 191.15 86.85 192.25 91.8 194.0 106.75 199.6 122.7 201.35 L133.05 202.5 Q157.8 205.8 180.7 215.65 189.15 219.35 196.5 225.1 198.95 227.0 200.9 229.4 L202.15 230.85 203.8 232.7 209.05 238.05 Q209.15 240.2 208.15 242.15 L206.65 244.3 Q205.55 245.5 205.0 247.05 L205.5 246.95 Q206.6 246.5 207.3 245.25 209.45 241.35 210.8 237.15 L208.85 234.55 207.5 232.7 206.25 230.85 Q203.75 227.0 201.95 222.95 207.3 226.65 210.95 230.85 L212.3 232.5 212.45 232.7 Q215.3 236.45 216.55 240.45 212.9 248.85 206.05 254.4 204.05 256.05 201.55 257.05 196.15 259.25 191.05 261.9 183.5 265.8 176.6 270.75 183.3 268.95 190.4 269.45 172.95 276.0 157.45 286.6 131.3 287.1 105.35 290.85 L89.6 291.65 Q82.2 290.85 75.7 286.9 L75.25 286.95 Q78.5 294.4 86.45 297.65 89.8 299.1 93.3 299.8 87.7 300.45 82.55 298.3 78.7 296.7 74.7 295.5 62.7 291.8 50.25 293.5 37.55 294.9 26.15 289.0 31.1 296.1 39.1 299.3 17.05 294.45 -0.2 280.05 5.75 282.15 11.8 283.25 11.25 280.65 9.15 279.1 -2.8 269.95 -15.9 263.15 -20.05 260.95 -24.6 259.95 -33.7 258.3 -43.0 258.4 -47.85 257.7 -52.3 255.4 -58.35 252.3 -62.45 247.05 L-56.65 249.4 -56.25 249.5 Q-48.35 253.8 -38.85 253.7 L-30.1 254.15 Q-17.2 256.1 -6.05 262.85 0.0 266.6 5.55 270.8 15.6 278.4 27.4 282.25 L33.05 284.05 Q39.45 285.8 45.85 286.95 59.05 289.3 71.9 285.65 73.35 285.35 74.85 285.65 L79.35 286.7 Q90.9 289.9 102.75 288.3 L110.3 287.7 139.6 285.8 145.95 285.45 146.0 286.0 149.6 285.7 150.4 284.4 147.9 283.5 147.9 283.45 Q148.0 283.0 147.6 282.9 151.9 283.9 155.7 282.35 L156.15 281.9 Q147.9 278.75 138.9 278.6 131.85 278.45 125.8 282.05 L126.55 282.45 123.0 282.8 Q128.45 277.1 136.3 275.8 143.15 274.4 150.3 274.3 156.35 274.2 162.05 271.9 168.2 269.35 173.7 265.9 176.6 264.2 179.9 263.0 186.0 260.75 191.05 257.1 196.8 252.85 201.2 246.8 L201.4 246.45 202.4 245.0 202.8 244.35 204.3 241.85 204.45 241.6 204.55 241.35 Q205.35 239.95 204.9 239.5 L204.25 239.3 204.15 238.65 202.0 241.2 201.7 241.65 M33.75 189.05 L34.25 188.45 34.1 188.0 33.2 188.05 33.1 188.5 33.3 189.05 33.75 189.05 M52.85 192.35 L54.4 192.3 54.45 191.35 53.6 190.6 52.75 191.75 52.85 192.35 M65.05 193.15 L65.95 192.1 65.6 191.5 64.0 191.9 65.05 193.15 M70.15 192.05 L71.05 192.8 71.95 191.85 71.65 191.15 70.7 191.2 70.2 191.3 70.1 191.6 70.15 192.05 M121.5 203.2 Q120.55 202.9 120.15 203.45 119.85 203.85 119.9 204.25 L120.95 205.0 121.75 204.6 121.85 203.95 121.65 203.35 121.5 203.2 M109.6 201.7 Q109.15 201.8 109.2 202.35 L109.4 202.95 109.95 203.05 110.8 202.3 110.55 201.55 109.6 201.7 M157.35 276.8 L156.5 276.85 155.9 277.5 Q156.05 277.85 156.75 278.0 157.3 277.95 157.7 277.3 L157.35 276.8 M19.6 284.35 Q18.4 283.95 17.95 284.7 17.7 285.1 17.7 285.55 L17.8 286.1 18.0 286.25 18.75 286.35 Q20.0 285.95 19.9 285.0 L19.75 284.5 19.6 284.35 M11.0 277.1 Q10.9 276.25 10.2 276.1 L9.65 276.3 Q9.55 276.5 9.6 277.0 L10.35 277.85 11.0 277.1 M27.35 286.0 Q27.4 286.45 27.6 286.6 L28.15 286.85 28.95 286.35 Q29.2 286.45 29.1 285.75 L28.9 285.15 28.45 285.05 Q27.3 285.4 27.35 286.0 M44.05 291.3 L44.4 290.7 44.0 290.25 42.85 290.4 42.85 290.85 43.05 291.5 43.65 291.55 44.05 291.3 M71.45 292.6 L72.45 292.6 72.45 291.65 71.45 291.65 71.45 292.6 M78.85 308.0 L78.85 307.55 79.15 308.0 78.85 308.0 M217.45 250.3 L216.55 250.75 217.55 248.65 217.45 250.3 M210.85 246.55 L211.45 246.6 212.1 246.35 212.3 246.15 212.3 245.45 Q212.2 244.8 211.2 244.6 210.1 244.45 210.2 245.4 L210.45 246.35 210.85 246.55 M201.6 252.45 L200.8 253.1 200.9 254.05 Q202.1 254.35 202.25 253.35 L202.25 253.0 201.6 252.45 M172.45 272.2 L172.95 271.55 172.7 271.15 Q172.0 271.4 171.75 271.85 171.95 272.1 172.45 272.2 M167.3 275.4 L167.0 275.0 165.8 275.1 165.8 275.5 Q165.9 276.25 166.0 275.85 L166.6 275.95 167.15 275.75 167.3 275.4 M-46.75 203.7 L-46.95 204.3 -46.05 205.1 Q-45.35 204.8 -45.15 204.25 L-45.35 203.85 -46.2 203.45 -46.75 203.7 M-60.65 209.5 L-61.0 210.3 -60.65 211.15 -59.8 211.45 -58.95 211.15 Q-58.6 210.8 -58.6 210.3 -58.6 209.8 -58.95 209.5 -59.3 209.15 -59.8 209.15 -60.3 209.15 -60.65 209.5 M-53.45 207.05 L-52.75 206.35 Q-52.8 205.6 -53.6 205.3 L-54.1 205.6 -54.15 206.25 -53.95 206.9 -53.45 207.05 M-62.3 215.3 L-62.35 214.8 Q-62.45 213.5 -63.6 213.65 -64.75 213.8 -64.65 214.95 L-64.6 215.3 Q-64.35 215.95 -63.3 215.85 L-62.4 215.55 -62.3 215.3 M-66.9 222.35 L-66.7 222.85 -66.25 222.8 Q-65.7 222.7 -65.4 222.25 L-65.85 221.85 -66.9 221.85 -66.9 222.35 M-45.3 259.5 Q-44.6 259.2 -45.4 259.65 L-45.3 259.5 M-27.0 257.7 L-26.1 256.95 -26.85 256.4 -27.7 257.4 -27.0 257.7 M-32.75 257.15 L-32.6 256.75 -32.8 256.3 -33.75 256.95 -32.75 257.15 M-11.05 276.6 L-10.8 276.05 Q-10.3 276.15 -9.9 276.4 L-11.05 276.6" fill="#c68600" fill-rule="evenodd" stroke="none"/>
    <path d="M-45.65 249.65 L-44.45 250.35 -45.35 250.3 -45.65 249.65 M116.05 283.6 Q96.5 279.1 76.6 277.55 L64.5 277.45 Q51.1 276.8 38.0 274.45 18.45 271.1 2.4 259.15 -2.05 255.9 -6.85 253.2 -11.8 250.55 -16.85 248.1 L0.75 250.25 14.85 252.25 14.6 251.8 -12.9 245.6 -13.2 245.15 Q-24.9 243.6 -36.05 240.0 -41.7 238.15 -46.6 234.9 L-49.1 232.7 Q-51.2 230.3 -51.65 226.9 -45.8 219.95 -37.45 216.25 -16.9 207.25 5.35 203.0 13.85 201.5 22.45 201.4 40.95 201.2 59.4 203.4 L71.85 204.6 Q80.2 205.75 87.85 208.7 L95.5 211.75 Q103.5 215.45 112.05 217.0 L125.15 218.8 158.35 219.85 Q166.05 220.7 173.65 222.45 183.65 226.0 191.05 232.7 L191.05 232.75 Q196.25 237.45 200.2 243.7 196.25 248.65 191.05 252.0 188.3 253.7 185.2 255.0 173.85 259.7 162.0 262.25 150.55 264.75 139.45 268.6 126.95 272.95 118.85 283.25 L116.05 283.6 M156.1 233.0 L154.45 232.75 Q154.55 233.55 155.35 233.9 L156.1 233.0 M89.4 232.9 L86.35 233.7 Q102.2 237.5 118.4 239.15 L122.5 239.75 Q143.6 244.65 165.2 243.2 171.35 243.2 176.75 240.8 L176.55 240.3 Q151.6 241.9 127.3 236.2 L116.75 233.25 114.85 232.7 Q102.55 229.45 90.15 232.7 L89.4 232.9 M96.1 266.65 L106.35 267.7 136.2 267.25 Q118.05 265.05 99.8 265.2 L86.6 264.65 Q81.85 264.2 77.35 265.3 80.0 266.5 83.35 266.1 L96.1 266.65 M100.1 250.3 Q90.25 246.9 86.9 245.5 82.2 243.75 67.4 242.95 52.0 242.15 52.25 244.55 52.4 246.15 52.5 245.3 63.65 246.1 85.65 251.8 102.4 256.1 112.0 254.25 L100.1 250.3 M159.95 252.3 L161.85 253.45 162.85 253.1 162.65 251.25 162.25 250.8 161.6 250.65 Q160.3 250.8 159.95 252.3 M76.2 222.7 L78.1 224.3 79.95 223.65 79.55 221.3 76.4 221.9 76.2 222.7 M51.55 213.6 L53.55 213.6 53.55 210.95 51.55 210.95 51.55 213.6 M59.2 233.25 Q66.6 235.7 73.05 238.1 74.7 237.9 74.9 237.1 L74.55 236.6 Q70.6 233.9 68.05 232.7 L67.0 232.25 Q62.65 230.55 53.65 231.45 L57.55 232.7 59.2 233.25 M24.2 213.1 L25.6 212.35 23.65 211.8 24.2 213.1 M9.85 221.9 Q16.0 222.95 21.9 225.15 29.2 227.8 36.95 227.65 27.85 224.85 19.9 219.55 17.9 218.3 15.65 217.5 11.1 215.9 6.2 215.65 -6.8 214.65 -19.0 219.2 L-20.4 219.7 3.2 221.2 9.85 221.9 M6.5 238.95 Q19.95 240.75 33.15 243.3 L35.6 243.4 Q21.7 236.2 6.15 237.2 L6.1 238.25 Q6.15 239.65 6.5 238.95 M5.05 231.45 Q6.5 231.15 6.8 230.7 5.25 229.75 4.75 230.55 L5.05 231.45 M37.6 223.45 Q38.3 223.35 38.45 223.0 36.8 222.35 36.55 223.2 36.85 223.5 37.6 223.45 M28.55 255.5 L29.75 256.2 30.75 255.0 30.35 254.25 Q29.4 253.9 28.55 255.5 M54.9 258.5 L54.35 258.75 54.6 259.2 58.95 259.35 59.25 259.25 59.0 258.1 Q56.8 257.7 54.9 258.5 M176.0 233.7 L175.8 232.7 Q174.95 232.4 174.35 232.7 L174.0 232.9 Q174.15 234.3 175.2 234.55 L176.0 233.7 M-39.7 245.0 L-39.75 245.0 -39.75 244.95 -39.7 245.0 M-12.55 231.1 L-11.05 231.2 -9.9 230.05 -10.45 229.0 -12.75 229.1 -12.55 231.1" fill="#f4cb93" fill-rule="evenodd" stroke="none"/>
    <path d="M-62.25 225.8 Q-62.8 220.9 -59.8 216.6 -53.85 207.85 -43.75 205.5 L-37.7 203.9 Q-26.5 200.55 -15.6 196.85 -3.75 192.8 8.85 192.85 L17.25 192.15 Q30.65 190.0 43.95 193.0 L53.35 194.75 Q67.4 195.0 81.3 195.4 85.1 195.6 88.8 197.0 96.45 200.0 104.05 203.25 105.5 203.95 107.05 204.35 122.05 207.05 137.45 207.8 L145.55 208.95 Q167.6 210.35 185.7 222.85 191.05 226.55 195.9 230.85 L197.95 232.7 199.45 234.15 Q202.7 237.25 201.7 241.65 L201.25 242.3 Q197.25 237.0 192.55 232.7 L191.05 231.4 Q179.8 221.75 164.8 217.65 155.55 215.05 146.0 214.85 L122.05 213.8 Q115.05 212.9 108.65 209.8 L94.35 203.05 Q85.05 198.55 74.75 198.35 L62.55 198.35 Q51.6 197.55 40.95 195.45 L29.35 194.2 Q8.5 195.2 -12.15 200.3 -17.2 201.6 -22.15 203.2 L-44.5 209.55 Q-57.7 213.25 -62.25 225.8 M126.55 282.45 L125.8 282.05 Q131.85 278.45 138.9 278.6 147.9 278.75 156.15 281.9 L155.7 282.35 Q151.9 283.9 147.6 282.9 L147.2 282.8 Q136.9 281.55 126.55 282.45 M-56.65 249.4 L-62.45 247.05 Q-58.35 252.3 -52.3 255.4 -47.85 257.7 -43.0 258.4 -33.7 258.3 -24.6 259.95 -20.05 260.95 -15.9 263.15 -2.8 269.95 9.15 279.1 11.25 280.65 11.8 283.25 5.75 282.15 -0.2 280.05 17.05 294.45 39.1 299.3 31.1 296.1 26.15 289.0 37.55 294.9 50.25 293.5 62.7 291.8 74.7 295.5 78.7 296.7 82.55 298.3 87.7 300.45 93.3 299.8 89.8 299.1 86.45 297.65 78.5 294.4 75.25 286.95 L75.7 286.9 Q82.2 290.85 89.6 291.65 L105.35 290.85 Q131.3 287.1 157.45 286.6 172.95 276.0 190.4 269.45 183.3 268.95 176.6 270.75 183.5 265.8 191.05 261.9 196.15 259.25 201.55 257.05 204.05 256.05 206.05 254.4 212.9 248.85 216.55 240.45 L216.65 240.75 Q217.8 244.55 217.55 248.65 L216.55 250.75 217.45 250.3 Q216.25 258.15 211.8 264.7 204.65 275.3 193.15 281.1 L191.05 282.15 Q180.05 287.4 168.4 290.4 163.7 291.65 159.75 293.15 140.75 300.2 120.75 304.25 100.3 308.45 79.15 308.0 L78.85 307.55 78.85 308.0 Q65.75 307.85 52.8 306.15 32.05 303.45 12.0 297.55 -7.35 291.7 -25.7 283.4 -45.15 274.6 -62.9 262.75 -66.8 260.15 -70.2 257.0 -73.85 253.65 -76.9 249.65 -81.4 243.8 -82.05 236.6 L-82.1 233.35 Q-81.75 228.6 -79.1 224.5 -79.65 229.25 -78.3 233.35 -77.25 236.6 -75.05 239.5 L-74.1 240.1 Q-71.9 240.35 -71.35 237.7 -70.85 235.4 -71.05 233.35 L-71.15 232.45 -70.2 232.75 -69.4 233.1 Q-68.7 233.5 -68.1 234.05 -60.15 241.35 -53.05 249.3 L-57.6 248.55 -56.65 249.4 M-45.3 259.5 L-45.4 259.65 Q-44.6 259.2 -45.3 259.5 M-11.05 276.6 L-9.9 276.4 Q-10.3 276.15 -10.8 276.05 L-11.05 276.6" fill="#b47400" fill-rule="evenodd" stroke="none"/>
    <path d="M204.25 239.3 L204.9 239.5 Q205.35 239.95 204.55 241.35 L204.45 241.6 204.3 241.85 202.8 244.35 202.4 245.0 201.4 246.45 201.2 246.8 Q196.8 252.85 191.05 257.1 186.0 260.75 179.9 263.0 176.6 264.2 173.7 265.9 168.2 269.35 162.05 271.9 156.35 274.2 150.3 274.3 143.15 274.4 136.3 275.8 128.45 277.1 123.0 282.8 L121.0 283.0 Q130.15 272.75 143.35 269.15 159.15 264.7 175.2 260.6 183.9 258.4 191.05 253.7 196.0 250.5 200.25 246.1 L202.0 243.65 201.95 243.6 204.25 239.3 M147.9 283.5 L150.4 284.4 149.6 285.7 146.0 286.0 145.95 285.45 139.6 285.8 110.3 287.7 102.75 288.3 Q90.9 289.9 79.35 286.7 L74.85 285.65 Q73.35 285.35 71.9 285.65 59.05 289.3 45.85 286.95 39.45 285.8 33.05 284.05 L27.4 282.25 Q15.6 278.4 5.55 270.8 0.0 266.6 -6.05 262.85 -17.2 256.1 -30.1 254.15 L-38.85 253.7 Q-48.35 253.8 -56.25 249.5 -48.05 252.15 -39.2 251.6 -23.8 250.6 -10.3 258.0 -2.7 262.25 4.05 267.6 21.55 281.45 44.0 281.85 L63.15 282.0 Q74.8 281.95 86.1 284.05 96.15 286.1 106.3 286.0 L111.4 285.5 Q129.25 282.6 147.35 283.85 147.85 284.1 147.9 283.5 M201.95 222.95 Q203.75 227.0 206.25 230.85 L207.5 232.7 208.85 234.55 210.8 237.15 Q209.45 241.35 207.3 245.25 206.6 246.5 205.5 246.95 L205.0 247.05 Q205.55 245.5 206.65 244.3 L208.15 242.15 Q209.15 240.2 209.05 238.05 L203.8 232.7 202.15 230.85 200.9 229.4 Q198.95 227.0 196.5 225.1 189.15 219.35 180.7 215.65 157.8 205.8 133.05 202.5 L122.7 201.35 Q106.75 199.6 91.8 194.0 86.85 192.25 81.75 191.15 74.2 189.7 66.55 189.7 49.2 189.65 31.95 187.65 L27.0 188.0 Q15.15 189.95 3.05 189.25 -12.7 188.5 -26.85 195.3 -29.95 196.75 -33.25 197.65 -43.05 200.0 -52.6 202.9 -56.05 203.85 -59.1 205.7 -62.9 208.15 -66.1 211.4 -67.8 213.1 -68.15 215.45 -68.55 217.8 -69.4 219.9 -70.85 223.3 -73.6 226.05 -73.7 224.2 -73.15 222.55 L-71.25 216.6 -77.3 222.1 Q-74.3 217.75 -70.75 213.85 -67.05 209.8 -62.75 206.25 -54.6 199.6 -44.45 196.3 -24.05 189.65 -2.75 187.65 17.25 185.7 37.35 186.05 59.05 186.45 80.4 189.5 101.35 192.75 121.9 197.4 L163.2 206.95 Q183.95 211.75 201.95 222.95 M-49.15 250.0 Q-56.25 240.9 -64.8 233.05 L-65.15 232.7 Q-66.55 231.2 -66.95 229.2 L-65.75 229.6 Q-63.3 230.8 -61.3 232.7 L-60.55 233.45 Q-58.2 237.45 -54.85 240.6 -50.3 244.9 -46.95 250.25 L-49.15 250.0 M70.15 192.05 L70.1 191.6 70.2 191.3 70.7 191.2 71.65 191.15 71.95 191.85 71.05 192.8 70.15 192.05 M65.05 193.15 L64.0 191.9 65.6 191.5 65.95 192.1 65.05 193.15 M52.85 192.35 L52.75 191.75 53.6 190.6 54.45 191.35 54.4 192.3 52.85 192.35 M33.75 189.05 L33.3 189.05 33.1 188.5 33.2 188.05 34.1 188.0 34.25 188.45 33.75 189.05 M121.5 203.2 L121.65 203.35 121.85 203.95 121.75 204.6 120.95 205.0 119.9 204.25 Q119.85 203.85 120.15 203.45 120.55 202.9 121.5 203.2 M109.6 201.7 L110.55 201.55 110.8 202.3 109.95 203.05 109.4 202.95 109.2 202.35 Q109.15 201.8 109.6 201.7 M157.35 276.8 L157.7 277.3 Q157.3 277.95 156.75 278.0 156.05 277.85 155.9 277.5 L156.5 276.85 157.35 276.8 M27.35 286.0 Q27.3 285.4 28.45 285.05 L28.9 285.15 29.1 285.75 Q29.2 286.45 28.95 286.35 L28.15 286.85 27.6 286.6 Q27.4 286.45 27.35 286.0 M11.0 277.1 L10.35 277.85 9.6 277.0 Q9.55 276.5 9.65 276.3 L10.2 276.1 Q10.9 276.25 11.0 277.1 M19.6 284.35 L19.75 284.5 19.9 285.0 Q20.0 285.95 18.75 286.35 L18.0 286.25 17.8 286.1 17.7 285.55 Q17.7 285.1 17.95 284.7 18.4 283.95 19.6 284.35 M71.45 292.6 L71.45 291.65 72.45 291.65 72.45 292.6 71.45 292.6 M44.05 291.3 L43.65 291.55 43.05 291.5 42.85 290.85 42.85 290.4 44.0 290.25 44.4 290.7 44.05 291.3 M210.85 246.55 L210.45 246.35 210.2 245.4 Q210.1 244.45 211.2 244.6 212.2 244.8 212.3 245.45 L212.3 246.15 212.1 246.35 211.45 246.6 210.85 246.55 M167.3 275.4 L167.15 275.75 166.6 275.95 166.0 275.85 Q165.9 276.25 165.8 275.5 L165.8 275.1 167.0 275.0 167.3 275.4 M172.45 272.2 Q171.95 272.1 171.75 271.85 172.0 271.4 172.7 271.15 L172.95 271.55 172.45 272.2 M201.6 252.45 L202.25 253.0 202.25 253.35 Q202.1 254.35 200.9 254.05 L200.8 253.1 201.6 252.45 M-66.9 222.35 L-66.9 221.85 -65.85 221.85 -65.4 222.25 Q-65.7 222.7 -66.25 222.8 L-66.7 222.85 -66.9 222.35 M-62.3 215.3 L-62.4 215.55 -63.3 215.85 Q-64.35 215.95 -64.6 215.3 L-64.65 214.95 Q-64.75 213.8 -63.6 213.65 -62.45 213.5 -62.35 214.8 L-62.3 215.3 M-53.45 207.05 L-53.95 206.9 -54.15 206.25 -54.1 205.6 -53.6 205.3 Q-52.8 205.6 -52.75 206.35 L-53.45 207.05 M-60.65 209.5 Q-60.3 209.15 -59.8 209.15 -59.3 209.15 -58.95 209.5 -58.6 209.8 -58.6 210.3 -58.6 210.8 -58.95 211.15 L-59.8 211.45 -60.65 211.15 -61.0 210.3 -60.65 209.5 M-46.75 203.7 L-46.2 203.45 -45.35 203.85 -45.15 204.25 Q-45.35 204.8 -46.05 205.1 L-46.95 204.3 -46.75 203.7 M-32.75 257.15 L-33.75 256.95 -32.8 256.3 -32.6 256.75 -32.75 257.15 M-27.0 257.7 L-27.7 257.4 -26.85 256.4 -26.1 256.95 -27.0 257.7" fill="#d89812" fill-rule="evenodd" stroke="none"/>
    <path d="M-45.65 249.65 L-45.8 249.4 Q-50.1 243.1 -55.5 237.6 L-57.9 235.1 -58.95 232.7 -59.65 230.7 Q-60.85 227.3 -60.1 225.05 -59.35 222.8 -58.1 220.65 -56.9 218.45 -53.85 215.85 -49.65 212.25 -44.35 211.05 -34.35 208.75 -24.4 205.55 L-14.05 202.4 Q5.7 196.5 26.3 195.75 L36.65 196.2 Q48.8 198.4 61.15 199.8 L67.4 199.4 Q84.95 198.2 99.95 207.35 105.7 210.85 111.95 212.8 122.05 216.2 132.7 216.1 153.9 215.05 173.65 222.45 166.05 220.7 158.35 219.85 L125.15 218.8 112.05 217.0 Q103.5 215.45 95.5 211.75 L87.85 208.7 Q80.2 205.75 71.85 204.6 L59.4 203.4 Q40.95 201.2 22.45 201.4 13.85 201.5 5.35 203.0 -16.9 207.25 -37.45 216.25 -45.8 219.95 -51.65 226.9 -51.2 230.3 -49.1 232.7 L-46.6 234.9 Q-41.7 238.15 -36.05 240.0 -24.9 243.6 -13.2 245.15 L-12.9 245.6 14.6 251.8 14.85 252.25 0.75 250.25 -16.85 248.1 Q-11.8 250.55 -6.85 253.2 -2.05 255.9 2.4 259.15 18.45 271.1 38.0 274.45 51.1 276.8 64.5 277.45 L76.6 277.55 Q96.5 279.1 116.05 283.6 104.15 285.55 92.2 282.95 80.3 280.25 68.2 280.3 54.45 280.4 40.75 280.05 24.15 278.95 10.1 269.7 3.9 265.7 -2.0 261.2 -10.4 254.7 -20.65 252.3 -32.4 249.65 -44.45 250.35 L-45.65 249.65 M156.1 233.0 L155.35 233.9 Q154.55 233.55 154.45 232.75 L156.1 233.0 M96.1 266.65 L83.35 266.1 Q80.0 266.5 77.35 265.3 81.85 264.2 86.6 264.65 L99.8 265.2 Q118.05 265.05 136.2 267.25 L106.35 267.7 96.1 266.65 M89.4 232.9 L90.15 232.7 Q102.55 229.45 114.85 232.7 L116.75 233.25 127.3 236.2 Q151.6 241.9 176.55 240.3 L176.75 240.8 Q171.35 243.2 165.2 243.2 143.6 244.65 122.5 239.75 L118.4 239.15 Q102.2 237.5 86.35 233.7 L89.4 232.9 M159.95 252.3 Q160.3 250.8 161.6 250.65 L162.25 250.8 162.65 251.25 162.85 253.1 161.85 253.45 159.95 252.3 M100.1 250.3 L112.0 254.25 Q102.4 256.1 85.65 251.8 63.65 246.1 52.5 245.3 52.4 246.15 52.25 244.55 52.0 242.15 67.4 242.95 82.2 243.75 86.9 245.5 90.25 246.9 100.1 250.3 M28.55 255.5 Q29.4 253.9 30.35 254.25 L30.75 255.0 29.75 256.2 28.55 255.5 M37.6 223.45 Q36.85 223.5 36.55 223.2 36.8 222.35 38.45 223.0 38.3 223.35 37.6 223.45 M5.05 231.45 L4.75 230.55 Q5.25 229.75 6.8 230.7 6.5 231.15 5.05 231.45 M6.5 238.95 Q6.15 239.65 6.1 238.25 L6.15 237.2 Q21.7 236.2 35.6 243.4 L33.15 243.3 Q19.95 240.75 6.5 238.95 M9.85 221.9 L3.2 221.2 -20.4 219.7 -19.0 219.2 Q-6.8 214.65 6.2 215.65 11.1 215.9 15.65 217.5 17.9 218.3 19.9 219.55 27.85 224.85 36.95 227.65 29.2 227.8 21.9 225.15 16.0 222.95 9.85 221.9 M24.2 213.1 L23.65 211.8 25.6 212.35 24.2 213.1 M59.2 233.25 L57.55 232.7 53.65 231.45 Q62.65 230.55 67.0 232.25 L68.05 232.7 Q70.6 233.9 74.55 236.6 L74.9 237.1 Q74.7 237.9 73.05 238.1 66.6 235.7 59.2 233.25 M51.55 213.6 L51.55 210.95 53.55 210.95 53.55 213.6 51.55 213.6 M76.2 222.7 L76.4 221.9 79.55 221.3 79.95 223.65 78.1 224.3 76.2 222.7 M54.9 258.5 Q56.8 257.7 59.0 258.1 L59.25 259.25 58.95 259.35 54.6 259.2 54.35 258.75 54.9 258.5 M176.0 233.7 L175.2 234.55 Q174.15 234.3 174.0 232.9 L174.35 232.7 Q174.95 232.4 175.8 232.7 L176.0 233.7 M-12.55 231.1 L-12.75 229.1 -10.45 229.0 -9.9 230.05 -11.05 231.2 -12.55 231.1 M-39.7 245.0 L-39.75 244.95 -39.75 245.0 -39.7 245.0" fill="#d0a76f" fill-rule="evenodd" stroke="none"/>
    <path d="M124.45 19.6 L124.7 22.4 Q125.25 25.25 126.6 36.65 127.95 48.05 132.6 65.3 137.25 82.5 140.1 97.25 142.4 109.1 142.5 121.2 142.55 127.25 137.4 130.65 133.75 133.1 129.85 131.2 128.65 130.65 127.9 129.65 124.2 124.6 121.75 118.5 121.25 124.5 122.15 130.6 L124.15 143.25 Q127.2 160.9 128.75 178.85 129.45 187.25 127.25 195.5 126.45 198.45 123.4 199.65 120.7 200.6 118.45 199.1 114.95 196.6 113.7 192.2 L109.55 177.8 Q108.65 179.0 108.0 180.35 105.55 185.25 105.15 190.75 104.8 195.7 104.9 200.9 105.05 210.35 103.0 219.4 101.65 225.25 96.95 229.05 92.75 232.5 87.5 232.7 82.25 232.15 78.55 228.5 76.05 225.9 74.7 222.4 L71.15 212.2 Q70.85 211.3 69.95 210.85 65.3 208.95 61.25 212.6 L55.15 218.45 46.5 227.2 Q43.5 230.25 40.15 232.7 34.8 236.6 28.45 239.0 24.2 240.6 20.05 238.9 15.6 237.15 13.3 233.4 L12.9 232.7 Q9.55 226.7 10.55 219.8 11.75 211.75 14.9 204.15 21.85 187.45 31.5 172.2 35.9 165.15 40.4 158.4 50.0 144.05 58.45 129.05 62.2 122.3 60.4 115.3 53.25 118.85 45.3 116.55 43.25 115.95 42.65 113.75 42.3 112.5 42.55 111.35 43.5 106.45 47.4 103.15 56.1 95.65 65.4 89.0 71.95 84.2 76.25 77.4 69.3 77.6 63.4 74.25 60.7 72.75 61.55 69.7 62.55 66.2 65.25 63.5 80.55 48.1 97.55 34.9 104.05 29.85 109.7 23.85 L113.7 19.45 116.65 16.9 118.3 15.3 Q119.45 14.45 120.65 14.5 L119.9 21.75 Q119.75 24.55 119.9 27.4 L120.35 32.35 123.2 55.95 Q125.55 77.7 131.0 98.9 L131.75 102.95 Q132.6 109.6 132.6 116.15 132.6 119.15 130.85 121.4 130.35 121.8 129.7 121.8 L128.8 121.35 128.25 121.1 127.15 120.4 125.9 119.35 124.45 118.0 123.5 117.85 Q125.75 123.25 128.8 128.2 130.45 130.75 133.35 130.0 137.8 129.0 139.95 125.05 141.85 121.4 141.35 117.1 139.05 96.8 133.5 77.1 126.55 52.55 124.8 27.4 L124.5 21.75 124.45 19.6 M135.7 38.9 Q140.55 41.55 145.4 44.75 148.55 46.8 150.1 50.15 151.05 52.2 150.9 54.3 150.65 57.5 147.35 57.5 146.5 57.5 146.0 57.0 138.8 49.55 135.35 39.5 L135.7 38.9 M139.85 46.8 L141.85 50.55 Q143.95 54.2 145.2 54.05 146.35 53.85 146.15 52.4 146.0 51.35 143.8 48.75 141.25 45.9 139.9 46.2 L139.85 46.8 M111.0 27.4 Q94.5 40.15 79.9 55.0 L73.95 61.45 Q74.1 63.6 76.2 63.35 78.95 62.75 81.15 60.8 98.2 45.85 111.8 27.4 L112.75 26.05 111.0 27.4 M87.7 68.8 Q85.3 69.8 82.65 70.4 77.5 71.6 72.15 70.6 66.7 69.55 67.15 63.95 64.7 66.1 63.5 69.05 62.2 72.3 65.4 73.5 69.2 75.1 73.5 75.35 82.55 76.5 87.7 68.8 M149.1 52.2 Q147.45 47.6 142.9 45.35 147.25 50.15 147.8 56.4 150.1 54.9 149.1 52.2 M32.4 90.65 L34.15 88.25 16.95 99.7 Q20.55 99.9 23.75 98.05 28.7 95.05 32.4 90.65 M52.9 78.15 Q43.55 91.85 31.95 103.75 L28.85 106.4 Q24.0 109.9 18.2 109.85 14.3 109.8 13.35 106.4 13.0 105.2 13.25 104.0 14.05 99.7 17.45 96.85 31.25 86.35 47.2 79.8 L52.75 77.5 52.9 78.15 M64.35 93.65 Q53.4 102.35 52.75 106.4 L53.55 107.1 Q54.1 107.5 55.1 107.35 58.85 106.85 67.75 97.9 77.1 88.6 79.2 82.7 69.5 89.4 64.35 93.65 M38.5 88.25 Q29.65 96.1 19.85 102.85 17.35 104.6 14.9 102.7 13.25 105.15 15.3 107.05 15.8 107.5 16.6 107.65 20.1 108.8 23.6 107.25 30.05 104.55 34.5 99.1 L49.95 79.8 38.5 88.25 M70.6 104.8 Q61.0 110.55 49.95 110.4 46.65 109.8 47.05 106.35 44.65 108.45 44.0 111.3 43.35 114.1 46.1 114.8 53.55 116.6 60.7 113.3 L61.4 113.5 Q67.95 110.95 72.0 105.35 L70.6 104.8 M63.9 126.05 Q57.9 134.6 52.2 143.2 33.0 172.3 19.3 204.3 16.85 209.95 19.2 215.7 21.1 220.4 26.25 219.6 29.75 218.85 31.85 216.45 L31.7 214.35 Q28.85 216.1 26.85 213.65 25.9 212.45 25.95 210.95 26.15 202.6 29.95 195.15 L37.3 180.7 Q42.2 171.0 47.7 161.85 57.9 144.85 63.9 126.05 M124.6 102.15 Q124.05 107.95 125.15 113.65 125.8 117.25 129.05 116.25 L128.8 113.2 Q127.9 108.35 126.4 103.5 126.05 102.45 125.05 102.0 L124.6 102.15 M160.35 123.85 Q160.35 124.9 160.25 123.9 L160.35 123.85 M117.55 122.1 L117.55 128.45 Q117.75 138.15 119.3 147.7 120.95 158.1 121.6 168.7 122.1 177.15 120.0 185.15 115.9 186.4 113.7 182.4 L112.25 180.2 Q113.5 188.05 117.45 195.05 118.25 196.55 119.75 197.6 121.95 199.2 123.7 197.25 127.0 193.3 126.95 188.0 126.85 170.3 123.65 152.6 120.8 137.05 119.65 121.3 119.45 118.6 120.85 116.3 L121.75 116.0 120.75 115.7 Q117.6 117.95 117.55 122.1 M105.25 170.9 L108.05 169.8 109.7 170.35 Q110.85 170.85 111.4 171.95 113.15 175.65 114.1 179.6 115.0 183.25 117.95 182.5 117.95 174.35 111.8 168.75 111.0 168.05 109.75 168.0 106.5 168.3 105.25 170.9 M109.0 175.35 Q103.65 177.4 101.7 183.05 97.65 194.7 98.1 207.2 98.45 216.75 89.55 220.65 84.45 222.95 79.5 220.5 76.5 219.0 76.15 215.55 75.7 211.45 72.85 208.5 69.55 205.1 65.1 206.35 L61.0 207.5 Q56.7 208.8 53.2 211.5 46.3 216.7 38.85 221.2 31.55 225.65 22.9 226.3 L19.8 226.5 Q14.65 221.35 15.9 214.05 16.2 212.25 15.95 210.4 L15.75 209.1 15.25 208.55 Q10.05 218.75 13.35 229.4 13.9 231.25 14.85 232.7 16.8 235.75 20.4 237.15 22.65 238.05 25.15 237.7 31.75 236.75 36.95 232.7 L38.5 231.4 42.5 227.75 Q49.1 221.7 55.3 215.2 58.75 211.6 63.25 209.3 67.3 207.15 71.1 209.4 73.45 210.8 73.8 213.5 74.8 221.95 80.8 227.55 L83.35 229.4 Q89.55 232.55 94.9 228.4 100.75 223.95 101.95 216.85 103.0 210.8 102.8 204.7 102.3 191.35 106.65 179.0 107.3 177.25 108.6 175.95 L109.95 175.95 109.0 175.35 M144.4 149.65 Q144.95 149.6 145.1 150.25 145.75 152.5 154.75 169.9 162.05 186.35 155.95 187.15 144.95 188.4 143.0 173.2 141.8 164.2 143.85 150.85 L143.75 150.6 144.4 149.65 M147.15 162.95 Q146.4 160.6 144.25 160.2 L144.35 169.35 Q144.6 173.9 145.9 178.15 L146.5 180.0 Q149.7 176.05 148.95 170.9 148.4 166.85 147.15 162.95 M149.4 168.35 Q152.2 174.8 150.45 181.2 L147.4 181.55 Q149.6 185.0 153.6 185.7 156.95 186.45 157.2 183.05 157.3 181.55 156.85 180.2 152.25 166.2 144.85 153.35 146.25 161.15 149.4 168.35 M91.15 209.05 Q88.6 213.65 83.8 211.7 81.75 210.85 80.85 208.7 78.7 203.5 74.4 200.0 73.65 199.4 72.65 199.15 66.2 199.15 61.0 202.95 L61.4 203.25 Q65.6 200.75 69.9 202.8 72.9 204.1 74.7 207.0 76.8 210.4 78.45 214.1 79.05 215.45 80.45 216.15 84.75 218.25 88.7 215.7 92.2 213.55 91.75 209.55 L91.15 209.05" fill="#ff4d00" fill-rule="evenodd" stroke="none"/>
    <path d="M120.65 14.5 Q122.7 14.75 123.5 15.8 124.25 16.85 123.8 16.4 L124.45 19.6 124.5 21.75 124.8 27.4 Q126.55 52.55 133.5 77.1 139.05 96.8 141.35 117.1 141.85 121.4 139.95 125.05 137.8 129.0 133.35 130.0 130.45 130.75 128.8 128.2 125.75 123.25 123.5 117.85 L124.45 118.0 125.9 119.35 127.15 120.4 128.25 121.1 128.8 121.35 129.7 121.8 Q130.35 121.8 130.85 121.4 132.6 119.15 132.6 116.15 132.6 109.6 131.75 102.95 L131.0 98.9 Q125.55 77.7 123.2 55.95 L120.35 32.35 119.9 27.4 Q119.75 24.55 119.9 21.75 L120.65 14.5 M87.7 68.8 Q82.55 76.5 73.5 75.35 69.2 75.1 65.4 73.5 62.2 72.3 63.5 69.05 64.7 66.1 67.15 63.95 66.7 69.55 72.15 70.6 77.5 71.6 82.65 70.4 85.3 69.8 87.7 68.8 M149.1 52.2 Q150.1 54.9 147.8 56.4 147.25 50.15 142.9 45.35 147.45 47.6 149.1 52.2 M70.6 104.8 L72.0 105.35 Q67.95 110.95 61.4 113.5 L60.7 113.3 Q53.55 116.6 46.1 114.8 43.35 114.1 44.0 111.3 44.65 108.45 47.05 106.35 46.65 109.8 49.95 110.4 61.0 110.55 70.6 104.8 M38.5 88.25 L49.95 79.8 34.5 99.1 Q30.05 104.55 23.6 107.25 20.1 108.8 16.6 107.65 15.8 107.5 15.3 107.05 13.25 105.15 14.9 102.7 17.35 104.6 19.85 102.85 29.65 96.1 38.5 88.25 M117.55 122.1 Q117.6 117.95 120.75 115.7 L121.75 116.0 120.85 116.3 Q119.45 118.6 119.65 121.3 120.8 137.05 123.65 152.6 126.85 170.3 126.95 188.0 127.0 193.3 123.7 197.25 121.95 199.2 119.75 197.6 118.25 196.55 117.45 195.05 113.5 188.05 112.25 180.2 L113.7 182.4 Q115.9 186.4 120.0 185.15 122.1 177.15 121.6 168.7 120.95 158.1 119.3 147.7 117.75 138.15 117.55 128.45 L117.55 122.1 M109.0 175.35 L109.95 175.95 108.6 175.95 Q107.3 177.25 106.65 179.0 102.3 191.35 102.8 204.7 103.0 210.8 101.95 216.85 100.75 223.95 94.9 228.4 89.55 232.55 83.35 229.4 L80.8 227.55 Q74.8 221.95 73.8 213.5 73.45 210.8 71.1 209.4 67.3 207.15 63.25 209.3 58.75 211.6 55.3 215.2 49.1 221.7 42.5 227.75 L38.5 231.4 36.95 232.7 Q31.75 236.75 25.15 237.7 22.65 238.05 20.4 237.15 16.8 235.75 14.85 232.7 13.9 231.25 13.35 229.4 10.05 218.75 15.25 208.55 L15.75 209.1 15.95 210.4 Q16.2 212.25 15.9 214.05 14.65 221.35 19.8 226.5 L22.9 226.3 Q31.55 225.65 38.85 221.2 46.3 216.7 53.2 211.5 56.7 208.8 61.0 207.5 L65.1 206.35 Q69.55 205.1 72.85 208.5 75.7 211.45 76.15 215.55 76.5 219.0 79.5 220.5 84.45 222.95 89.55 220.65 98.45 216.75 98.1 207.2 97.65 194.7 101.7 183.05 103.65 177.4 109.0 175.35 M149.4 168.35 Q146.25 161.15 144.85 153.35 152.25 166.2 156.85 180.2 157.3 181.55 157.2 183.05 156.95 186.45 153.6 185.7 149.6 185.0 147.4 181.55 L150.45 181.2 Q152.2 174.8 149.4 168.35" fill="#db2900" fill-rule="evenodd" stroke="none"/>
    <path d="M111.0 27.4 L112.75 26.05 111.8 27.4 Q98.2 45.85 81.15 60.8 78.95 62.75 76.2 63.35 74.1 63.6 73.95 61.45 L79.9 55.0 Q94.5 40.15 111.0 27.4 M139.85 46.8 L139.9 46.2 Q141.25 45.9 143.8 48.75 146.0 51.35 146.15 52.4 146.35 53.85 145.2 54.05 143.95 54.2 141.85 50.55 L139.85 46.8 M32.4 90.65 Q28.7 95.05 23.75 98.05 20.55 99.9 16.95 99.7 L34.15 88.25 32.4 90.65 M64.35 93.65 Q69.5 89.4 79.2 82.7 77.1 88.6 67.75 97.9 58.85 106.85 55.1 107.35 54.1 107.5 53.55 107.1 L52.75 106.4 Q53.4 102.35 64.35 93.65 M63.9 126.05 Q57.9 144.85 47.7 161.85 42.2 171.0 37.3 180.7 L29.95 195.15 Q26.15 202.6 25.95 210.95 25.9 212.45 26.85 213.65 28.85 216.1 31.7 214.35 L31.85 216.45 Q29.75 218.85 26.25 219.6 21.1 220.4 19.2 215.7 16.85 209.95 19.3 204.3 33.0 172.3 52.2 143.2 57.9 134.6 63.9 126.05 M124.6 102.15 L125.05 102.0 Q126.05 102.45 126.4 103.5 127.9 108.35 128.8 113.2 L129.05 116.25 Q125.8 117.25 125.15 113.65 124.05 107.95 124.6 102.15 M105.25 170.9 Q106.5 168.3 109.75 168.0 111.0 168.05 111.8 168.75 117.95 174.35 117.95 182.5 115.0 183.25 114.1 179.6 113.15 175.65 111.4 171.95 110.85 170.85 109.7 170.35 L108.05 169.8 105.25 170.9 M147.15 162.95 Q148.4 166.85 148.95 170.9 149.7 176.05 146.5 180.0 L145.9 178.15 Q144.6 173.9 144.35 169.35 L144.25 160.2 Q146.4 160.6 147.15 162.95 M91.15 209.05 L91.75 209.55 Q92.2 213.55 88.7 215.7 84.75 218.25 80.45 216.15 79.05 215.45 78.45 214.1 76.8 210.4 74.7 207.0 72.9 204.1 69.9 202.8 65.6 200.75 61.4 203.25 L61.0 202.95 Q66.2 199.15 72.65 199.15 73.65 199.4 74.4 200.0 78.7 203.5 80.85 208.7 81.75 210.85 83.8 211.7 88.6 213.65 91.15 209.05" fill="#ff9548" fill-rule="evenodd" stroke="none"/>
    <path d="M63.7 -120.45 Q56.55 -123.0 50.35 -117.95 47.75 -115.9 46.75 -112.6 L46.55 -108.5 Q46.75 -106.75 47.45 -104.9 L49.1 -101.45 48.35 -101.05 47.0 -103.1 45.4 -107.6 Q39.9 -101.9 39.95 -93.85 L40.25 -93.45 40.1 -93.0 40.25 -92.55 40.55 -91.85 Q41.1 -90.65 42.15 -89.75 L42.45 -89.45 Q44.5 -88.95 45.1 -87.4 L45.05 -87.15 42.15 -87.9 Q40.15 -89.0 39.2 -90.9 L39.1 -91.1 Q36.95 -87.75 38.15 -83.45 L40.15 -80.35 Q42.35 -78.6 45.3 -78.3 46.45 -78.4 47.5 -79.3 L48.2 -79.9 48.8 -79.4 Q46.8 -76.15 43.0 -77.55 L41.65 -78.15 Q43.35 -73.1 48.8 -72.8 58.45 -72.35 65.5 -79.05 68.0 -81.4 67.65 -84.5 65.35 -84.1 63.75 -82.25 L63.25 -81.75 Q60.65 -81.4 58.75 -79.85 L58.1 -79.25 55.55 -77.85 Q54.15 -79.85 52.1 -81.05 L51.3 -81.35 50.8 -81.35 Q49.55 -82.75 50.85 -84.5 52.7 -86.95 52.8 -90.35 52.85 -92.75 53.95 -94.65 55.1 -96.6 56.55 -98.25 L57.95 -99.5 Q63.0 -103.2 66.3 -108.55 67.4 -110.35 67.6 -112.65 68.05 -117.9 63.7 -120.45 M53.95 -122.05 Q58.45 -123.85 62.95 -122.65 67.85 -121.15 69.1 -116.1 70.6 -109.8 66.05 -104.95 61.95 -100.6 57.55 -96.6 56.05 -95.35 55.4 -93.35 54.3 -89.8 53.55 -86.15 53.2 -84.45 52.25 -83.1 L54.7 -81.15 56.4 -79.15 56.35 -79.95 Q58.85 -82.55 62.35 -83.25 63.2 -83.35 63.9 -84.0 L66.65 -86.35 Q64.9 -92.6 69.1 -97.55 L70.35 -98.4 Q74.4 -98.55 73.8 -94.7 77.25 -96.6 80.7 -94.9 82.25 -94.2 82.4 -92.5 82.7 -88.15 78.6 -86.15 75.4 -84.5 72.1 -83.8 L69.25 -83.4 Q67.3 -76.45 60.65 -73.5 55.7 -71.35 50.35 -71.25 42.7 -71.05 39.85 -77.9 L39.2 -79.1 Q33.95 -85.9 38.5 -93.2 37.4 -103.1 45.2 -109.3 45.2 -118.5 53.95 -122.05 M68.8 -88.1 Q71.45 -91.7 72.5 -95.95 L72.4 -96.25 Q72.1 -97.2 70.85 -97.15 68.3 -95.5 67.9 -92.25 L67.65 -90.05 67.7 -88.3 67.95 -86.75 68.8 -88.1 M69.05 -86.0 L69.45 -84.9 Q73.8 -85.7 77.9 -87.7 81.65 -89.45 80.75 -93.3 78.7 -95.2 75.7 -94.05 74.95 -93.8 74.5 -93.25 71.6 -90.0 69.05 -86.0 M-47.9 31.65 Q-47.1 32.1 -46.4 32.65 -45.3 33.5 -44.5 34.7 L-43.6 36.25 Q-43.05 37.2 -43.0 37.9 L-43.1 39.5 -43.25 41.0 -44.55 36.4 Q-45.25 34.85 -46.4 33.6 L-47.9 32.25 -49.5 31.2 -47.9 31.65 M-43.15 31.5 Q-40.6 32.7 -40.6 34.2 -40.65 35.7 -41.15 34.5 -41.7 33.3 -43.9 31.25 L-43.15 31.5 M-50.85 37.6 Q-53.35 40.1 -52.35 43.85 L-51.85 46.45 Q-51.35 48.85 -49.3 54.4 -48.35 57.75 -49.05 60.6 L-50.45 64.6 Q-52.15 68.05 -52.85 71.85 -53.4 74.6 -51.7 76.7 L-49.75 78.05 Q-47.45 79.25 -45.2 78.95 L-42.4 78.05 -42.0 78.3 -41.95 78.9 Q-46.2 81.45 -50.55 79.05 -52.6 77.95 -53.3 75.95 -55.05 71.1 -52.5 66.35 -49.95 61.5 -50.5 56.15 -50.65 54.45 -51.35 52.9 -53.2 48.55 -53.65 43.85 L-53.7 43.3 Q-54.0 38.9 -52.4 37.3 L-51.6 36.7 Q-50.25 35.85 -48.75 36.7 -47.5 37.35 -46.4 38.9 L-46.15 39.3 -44.45 42.05 Q-41.25 47.25 -35.8 50.35 -29.15 54.25 -22.75 58.75 -21.65 59.55 -20.9 60.7 -17.2 66.25 -21.85 70.95 -21.1 73.8 -20.0 76.45 -17.65 81.95 -11.35 81.3 -6.3 81.15 -5.9 76.4 L-5.65 74.35 Q-2.85 77.7 -3.5 80.55 -4.15 83.4 -6.2 85.5 -11.55 90.95 -19.0 88.6 -18.05 89.95 -15.8 91.3 -10.95 94.3 -3.75 95.5 -4.7 96.9 -7.15 97.45 -17.2 100.25 -25.25 93.6 -25.35 103.1 -33.35 108.5 -37.2 111.0 -41.15 109.05 -33.45 101.2 -34.75 90.6 -36.6 93.0 -39.3 94.55 -46.65 98.75 -53.9 94.75 L-54.2 94.0 Q-48.35 92.45 -44.3 88.15 -40.2 83.85 -41.95 78.3 L-42.15 77.95 -43.95 75.2 -43.25 75.15 -42.1 76.3 Q-40.25 78.25 -40.15 81.1 -40.35 84.35 -42.45 87.1 L-43.35 88.4 -47.65 92.35 -51.4 94.5 -50.1 94.95 Q-42.7 96.35 -37.05 91.0 L-35.05 89.0 -35.35 87.25 -36.9 83.4 Q-36.75 82.7 -36.3 83.05 L-36.0 83.3 -35.3 84.3 -34.15 87.8 -33.85 90.15 Q-31.75 99.9 -38.25 107.3 L-39.35 108.45 -37.85 108.6 Q-33.35 108.5 -30.05 103.65 -26.75 98.7 -26.4 92.5 L-27.35 91.55 Q-30.95 87.9 -30.65 82.95 -30.6 81.65 -29.7 81.8 L-29.55 81.85 -29.75 83.2 -29.8 83.55 -29.55 85.8 -28.8 87.75 -27.85 89.2 -26.9 90.4 -25.3 92.1 Q-18.65 98.0 -9.75 96.95 L-6.35 95.95 Q-13.15 95.3 -18.7 91.0 -22.35 88.2 -21.0 84.05 L-20.75 83.0 -20.15 84.85 -20.05 86.7 Q-13.4 89.85 -7.45 85.2 -3.85 82.35 -4.85 78.05 L-4.95 77.75 -5.0 78.1 Q-5.55 81.1 -8.6 81.95 -13.9 83.4 -18.6 80.4 -21.2 78.7 -21.6 75.55 -22.15 71.6 -25.1 69.0 L-26.95 67.35 Q-33.4 67.25 -39.15 70.35 -43.65 72.85 -46.9 75.8 -40.1 66.15 -28.1 66.0 -25.0 65.55 -22.8 67.35 L-25.0 67.5 -22.55 69.95 -20.95 67.85 Q-19.3 63.55 -22.65 60.5 -24.05 59.2 -25.65 58.25 L-34.75 52.7 Q-41.85 48.75 -45.75 41.9 L-46.4 40.9 Q-49.45 36.75 -50.85 37.6 M-56.25 68.45 L-56.5 70.3 Q-58.25 75.9 -53.45 80.15 -56.05 80.25 -57.2 77.7 -58.95 73.85 -57.45 70.3 L-56.25 68.45 M-58.85 80.6 Q-62.35 79.25 -61.4 75.6 L-60.45 73.5 Q-61.65 76.85 -59.35 79.45 L-56.9 81.15 -58.85 80.6" fill="#000000" fill-rule="evenodd" stroke="none"/>
    <path d="M46.75 -112.6 Q48.25 -110.15 51.7 -110.15 54.6 -110.15 59.4 -114.9 61.75 -117.25 63.0 -119.1 64.8 -113.1 59.85 -109.1 56.7 -106.5 52.95 -105.35 50.35 -104.65 48.7 -102.35 L51.2 -99.25 Q50.6 -94.9 46.55 -92.3 L42.45 -89.45 42.15 -89.75 Q41.85 -91.45 40.55 -91.85 L40.25 -92.55 Q42.45 -92.5 43.6 -94.75 45.65 -98.8 47.0 -103.1 L48.35 -101.05 49.1 -101.45 47.45 -104.9 47.55 -105.75 Q47.55 -107.9 46.55 -108.5 L46.75 -112.6 M57.95 -99.5 L56.55 -98.25 56.0 -99.65 57.95 -99.5 M50.8 -81.35 L51.3 -81.35 Q50.85 -77.35 54.85 -77.6 L55.55 -77.85 58.1 -79.25 Q61.25 -77.35 62.9 -80.9 L63.25 -81.75 63.75 -82.25 Q65.35 -84.1 67.65 -84.5 65.8 -83.0 64.75 -81.15 62.45 -77.2 57.7 -76.75 L45.95 -76.1 46.4 -75.0 Q47.1 -73.3 48.8 -72.8 43.35 -73.1 41.65 -78.15 L43.0 -77.55 Q46.8 -76.15 48.8 -79.4 L48.2 -79.9 47.5 -79.3 Q46.45 -78.4 45.3 -78.3 42.35 -78.6 40.15 -80.35 L38.15 -83.45 Q41.45 -83.1 41.95 -86.6 L42.15 -87.9 45.05 -87.15 47.45 -87.3 47.4 -83.55 Q47.65 -79.65 50.8 -81.35" fill="#ffe6e6" fill-rule="evenodd" stroke="none"/>
    <path d="M70.85 -97.15 L67.65 -90.05 67.9 -92.25 Q68.3 -95.5 70.85 -97.15 M67.7 -88.3 L68.8 -88.1 67.95 -86.75 67.7 -88.3 M80.75 -93.3 Q77.85 -92.85 73.25 -89.55 L69.05 -86.0 Q71.6 -90.0 74.5 -93.25 74.95 -93.8 75.7 -94.05 78.7 -95.2 80.75 -93.3" fill="#cc3333" fill-rule="evenodd" stroke="none"/>
    <path d="M63.0 -119.1 L63.7 -120.45 Q68.05 -117.9 67.6 -112.65 67.4 -110.35 66.3 -108.55 63.0 -103.2 57.95 -99.5 L56.0 -99.65 56.55 -98.25 Q55.1 -96.6 53.95 -94.65 52.85 -92.75 52.8 -90.35 52.7 -86.95 50.85 -84.5 49.55 -82.75 50.8 -81.35 47.65 -79.65 47.4 -83.55 L47.45 -87.3 45.05 -87.15 45.1 -87.4 Q44.5 -88.95 42.45 -89.45 L46.55 -92.3 Q50.6 -94.9 51.2 -99.25 L48.7 -102.35 Q50.35 -104.65 52.95 -105.35 56.7 -106.5 59.85 -109.1 64.8 -113.1 63.0 -119.1 M67.65 -84.5 Q68.0 -81.4 65.5 -79.05 58.45 -72.35 48.8 -72.8 47.1 -73.3 46.4 -75.0 L45.95 -76.1 57.7 -76.75 Q62.45 -77.2 64.75 -81.15 65.8 -83.0 67.65 -84.5" fill="#edd4d4" fill-rule="evenodd" stroke="none"/>
    <path d="M46.75 -112.6 Q47.75 -115.9 50.35 -117.95 56.55 -123.0 63.7 -120.45 L63.0 -119.1 Q61.75 -117.25 59.4 -114.9 54.6 -110.15 51.7 -110.15 48.25 -110.15 46.75 -112.6 M51.3 -81.35 L52.1 -81.05 Q54.15 -79.85 55.55 -77.85 L54.85 -77.6 Q50.85 -77.35 51.3 -81.35 M58.1 -79.25 L58.75 -79.85 Q60.65 -81.4 63.25 -81.75 L62.9 -80.9 Q61.25 -77.35 58.1 -79.25 M38.15 -83.45 Q36.95 -87.75 39.1 -91.1 L39.2 -90.9 Q40.15 -89.0 42.15 -87.9 L41.95 -86.6 Q41.45 -83.1 38.15 -83.45 M42.15 -89.75 Q41.1 -90.65 40.55 -91.85 41.85 -91.45 42.15 -89.75 M40.25 -92.55 L40.1 -93.0 40.25 -93.45 39.95 -93.85 Q39.9 -101.9 45.4 -107.6 L47.0 -103.1 Q45.65 -98.8 43.6 -94.75 42.45 -92.5 40.25 -92.55 M47.45 -104.9 Q46.75 -106.75 46.55 -108.5 47.55 -107.9 47.55 -105.75 L47.45 -104.9" fill="#fff8f8" fill-rule="evenodd" stroke="none"/>
    <path d="M70.85 -97.15 Q72.1 -97.2 72.4 -96.25 L72.5 -95.95 Q71.45 -91.7 68.8 -88.1 L67.7 -88.3 67.65 -90.05 70.85 -97.15 M69.05 -86.0 L73.25 -89.55 Q77.85 -92.85 80.75 -93.3 81.65 -89.45 77.9 -87.7 73.8 -85.7 69.45 -84.9 L69.05 -86.0" fill="#a80f0f" fill-rule="evenodd" stroke="none"/>
    <path d="M-51.7 76.7 Q-51.2 69.55 -45.7 65.2 -43.3 63.25 -42.0 60.35 -41.65 59.6 -41.85 58.8 -42.6 56.2 -44.65 54.25 L-45.6 53.15 Q-48.25 48.65 -50.2 43.85 L-50.75 42.55 Q-51.65 40.2 -50.85 37.6 -49.45 36.75 -46.4 40.9 L-45.75 41.9 Q-41.85 48.75 -34.75 52.7 L-25.65 58.25 Q-24.05 59.2 -22.65 60.5 -19.3 63.55 -20.95 67.85 -20.3 62.5 -25.35 59.8 -31.75 56.35 -37.6 52.2 -41.2 49.75 -43.85 46.25 L-46.4 42.9 -48.65 39.95 -49.4 40.6 -48.4 43.85 Q-46.95 48.05 -44.4 51.65 -42.6 54.1 -39.85 56.15 -37.65 57.75 -37.1 60.3 -36.8 61.7 -37.85 62.85 -46.3 65.5 -49.4 73.65 -50.1 75.55 -48.85 77.3 -47.55 79.0 -45.2 78.95 -47.45 79.25 -49.75 78.05 L-51.7 76.7 M-49.3 54.4 Q-47.4 59.6 -50.1 64.05 L-50.45 64.6 -49.05 60.6 Q-48.35 57.75 -49.3 54.4 M-42.0 78.3 L-42.4 78.05 -42.15 77.95 -41.95 78.3 -42.0 78.3 M-43.25 75.15 L-43.65 74.75 Q-41.85 72.1 -39.0 70.65 L-35.0 82.5 Q-34.65 83.65 -33.75 84.0 -31.9 86.7 -31.65 90.0 -31.0 98.95 -35.75 106.75 -33.25 106.9 -32.0 104.8 L-29.6 100.9 Q-26.85 96.6 -27.35 91.55 L-26.4 92.5 Q-26.75 98.7 -30.05 103.65 -33.35 108.5 -37.85 108.6 -31.45 99.75 -32.5 88.85 -32.8 86.0 -35.2 84.35 -35.4 83.45 -36.0 83.3 L-36.3 83.05 Q-36.75 82.7 -36.9 83.4 -38.85 86.9 -41.4 89.8 -42.8 91.35 -44.6 91.95 -40.85 87.55 -38.9 82.2 L-39.2 81.05 Q-39.3 80.5 -39.7 80.0 L-40.15 81.1 Q-40.25 78.25 -42.1 76.3 L-43.25 75.15 M-29.7 81.8 L-29.55 81.15 -28.85 80.6 -28.0 80.6 Q-26.5 85.0 -24.25 89.05 -21.6 93.8 -16.75 93.6 -18.15 93.35 -19.15 92.3 -20.7 90.65 -21.8 88.65 -23.3 85.8 -21.45 83.15 L-21.0 84.05 Q-22.35 88.2 -18.7 91.0 -13.15 95.3 -6.35 95.95 L-9.75 96.95 Q-21.55 96.5 -27.05 86.15 L-29.55 81.85 -29.7 81.8 M-20.15 84.85 Q-18.0 87.35 -14.25 86.7 -10.05 86.4 -7.4 83.6 L-7.1 82.8 Q-9.5 83.85 -12.3 84.05 -17.9 84.5 -21.35 80.0 -22.45 78.55 -22.8 76.4 -23.5 72.4 -25.75 69.15 L-25.1 69.0 Q-22.15 71.6 -21.6 75.55 -21.2 78.7 -18.6 80.4 -13.9 83.4 -8.6 81.95 -5.55 81.1 -5.0 78.1 L-4.95 77.75 -4.85 78.05 Q-3.85 82.35 -7.45 85.2 -13.4 89.85 -20.05 86.7 L-20.15 84.85 M-50.1 94.95 Q-48.8 94.95 -47.6 94.35 -40.45 93.65 -35.9 87.95 L-35.35 87.25 -35.05 89.0 -37.05 91.0 Q-42.7 96.35 -50.1 94.95 M-39.65 77.7 L-38.5 80.15 -38.2 79.7 Q-37.65 75.4 -41.5 73.75 L-40.65 75.75 -39.65 77.7 M-29.55 84.3 L-28.95 85.95 -28.8 87.75 -29.55 85.8 -29.55 84.3 M-27.5 89.55 L-26.9 90.4 -27.85 89.2 -27.5 89.55 M-29.65 83.7 L-29.8 83.55 -29.75 83.2 -29.65 83.7" fill="#2b91bb" fill-rule="evenodd" stroke="none"/>
    <path d="M-51.95 44.95 Q-50.1 50.1 -47.2 54.4 -46.95 54.75 -46.4 54.95 L-46.25 54.25 -51.5 43.95 -51.95 44.95 M-50.85 37.6 Q-51.65 40.2 -50.75 42.55 L-50.2 43.85 Q-48.25 48.65 -45.6 53.15 L-44.65 54.25 Q-42.6 56.2 -41.85 58.8 -41.65 59.6 -42.0 60.35 -43.3 63.25 -45.7 65.2 -51.2 69.55 -51.7 76.7 -53.4 74.6 -52.85 71.85 -52.15 68.05 -50.45 64.6 L-50.1 64.05 Q-47.4 59.6 -49.3 54.4 -51.35 48.85 -51.85 46.45 L-52.35 43.85 Q-53.35 40.1 -50.85 37.6 M-46.45 60.7 Q-46.25 61.2 -45.5 61.2 -45.0 61.2 -44.7 60.65 L-44.45 59.55 Q-44.45 58.05 -45.45 58.4 -46.5 58.7 -46.5 60.15 L-46.45 60.7 M-50.55 67.8 L-50.5 67.9 Q-48.75 67.35 -48.2 65.2 L-48.3 65.1 Q-50.35 65.75 -50.55 67.8 M-35.2 84.35 Q-32.8 86.0 -32.5 88.85 -31.45 99.75 -37.85 108.6 L-39.35 108.45 -38.25 107.3 Q-31.75 99.9 -33.85 90.15 L-33.5 90.55 -33.1 90.25 Q-32.85 88.5 -33.85 87.0 L-34.15 87.8 -35.3 84.3 -35.2 84.35 M-47.65 92.35 Q-45.85 92.35 -44.6 91.2 -43.35 90.05 -43.35 88.4 L-42.45 87.1 Q-40.35 84.35 -40.15 81.1 L-39.7 80.0 Q-39.3 80.5 -39.2 81.05 L-38.9 82.2 Q-40.85 87.55 -44.6 91.95 -46.1 93.6 -47.6 94.35 -48.8 94.95 -50.1 94.95 L-51.4 94.5 -47.65 92.35 M-40.65 75.75 L-41.5 73.75 Q-37.65 75.4 -38.2 79.7 L-38.5 80.15 -39.65 77.7 Q-37.9 77.1 -39.9 75.05 L-40.2 74.85 Q-40.8 75.0 -40.65 75.75 M-29.75 83.2 L-29.55 81.85 -27.05 86.15 Q-21.55 96.5 -9.75 96.95 -18.65 98.0 -25.3 92.1 L-26.9 90.4 -27.5 89.55 -23.65 92.9 Q-25.4 89.25 -27.8 86.1 -28.6 85.0 -28.95 85.95 L-29.55 84.3 -29.65 83.7 -29.75 83.2" fill="#5caccd" fill-rule="evenodd" stroke="none"/>
    <path d="M-45.2 78.95 Q-47.55 79.0 -48.85 77.3 -50.1 75.55 -49.4 73.65 -46.3 65.5 -37.85 62.85 -36.8 61.7 -37.1 60.3 -37.65 57.75 -39.85 56.15 -42.6 54.1 -44.4 51.65 -46.95 48.05 -48.4 43.85 L-49.4 40.6 -48.65 39.95 -46.4 42.9 -43.85 46.25 Q-41.2 49.75 -37.6 52.2 -31.75 56.35 -25.35 59.8 -20.3 62.5 -20.95 67.85 L-22.55 69.95 -25.0 67.5 -22.8 67.35 Q-25.0 65.55 -28.1 66.0 -40.1 66.15 -46.9 75.8 -43.65 72.85 -39.15 70.35 -33.4 67.25 -26.95 67.35 L-25.1 69.0 -25.75 69.15 Q-23.5 72.4 -22.8 76.4 -22.45 78.55 -21.35 80.0 -17.9 84.5 -12.3 84.05 -9.5 83.85 -7.1 82.8 L-7.4 83.6 Q-10.05 86.4 -14.25 86.7 -18.0 87.35 -20.15 84.85 L-20.75 83.0 -21.0 84.05 -21.45 83.15 Q-23.3 85.8 -21.8 88.65 -20.7 90.65 -19.15 92.3 -18.15 93.35 -16.75 93.6 -21.6 93.8 -24.25 89.05 -26.5 85.0 -28.0 80.6 L-28.85 80.6 -29.55 81.15 -29.7 81.8 Q-30.6 81.65 -30.65 82.95 -30.95 87.9 -27.35 91.55 -26.85 96.6 -29.6 100.9 L-32.0 104.8 Q-33.25 106.9 -35.75 106.75 -31.0 98.95 -31.65 90.0 -31.9 86.7 -33.75 84.0 -34.65 83.65 -35.0 82.5 L-39.0 70.65 Q-41.85 72.1 -43.65 74.75 L-43.25 75.15 -43.95 75.2 -42.15 77.95 -42.4 78.05 -45.2 78.95 M-44.6 91.95 Q-42.8 91.35 -41.4 89.8 -38.85 86.9 -36.9 83.4 L-35.35 87.25 -35.9 87.95 Q-40.45 93.65 -47.6 94.35 -46.1 93.6 -44.6 91.95 M-36.0 83.3 Q-35.4 83.45 -35.2 84.35 L-35.3 84.3 -36.0 83.3 M-29.55 84.3 L-29.55 85.8 -29.8 83.55 -29.65 83.7 -29.55 84.3" fill="#227ca2" fill-rule="evenodd" stroke="none"/>
    <path d="M-51.95 44.95 L-51.5 43.95 -46.25 54.25 -46.4 54.95 Q-46.95 54.75 -47.2 54.4 -50.1 50.1 -51.95 44.95 M-46.45 60.7 L-46.5 60.15 Q-46.5 58.7 -45.45 58.4 -44.45 58.05 -44.45 59.55 L-44.7 60.65 Q-45.0 61.2 -45.5 61.2 -46.25 61.2 -46.45 60.7 M-50.55 67.8 Q-50.35 65.75 -48.3 65.1 L-48.2 65.2 Q-48.75 67.35 -50.5 67.9 L-50.55 67.8 M-43.35 88.4 Q-43.35 90.05 -44.6 91.2 -45.85 92.35 -47.65 92.35 L-43.35 88.4 M-39.65 77.7 L-40.65 75.75 Q-40.8 75.0 -40.2 74.85 L-39.9 75.05 Q-37.9 77.1 -39.65 77.7 M-28.95 85.95 Q-28.6 85.0 -27.8 86.1 -25.4 89.25 -23.65 92.9 L-27.5 89.55 -27.85 89.2 -28.8 87.75 -28.95 85.95 M-34.15 87.8 L-33.85 87.0 Q-32.85 88.5 -33.1 90.25 L-33.5 90.55 -33.85 90.15 -34.15 87.8" fill="#92e2ff" fill-rule="evenodd" stroke="none"/>
  </g>
  <defs>
    <linearGradient gradientTransform="matrix(0.0863, 0.0707, -0.0718, 0.0876, 226.95, 325.45)" gradientUnits="userSpaceOnUse" id="gradient0" spreadMethod="pad" x1="-819.2" x2="819.2">
      <stop offset="0.0196078431372549" stop-color="#bdbdbd"/>
      <stop offset="0.28627450980392155" stop-color="#dddddd"/>
      <stop offset="1.0" stop-color="#919191"/>
    </linearGradient>
    <linearGradient gradientTransform="matrix(0.0648, 0.0618, -0.0973, 0.1021, 43.8, 291.35)" gradientUnits="userSpaceOnUse" id="gradient1" spreadMethod="pad" x1="-819.2" x2="819.2">
      <stop offset="0.0196078431372549" stop-color="#bdbdbd"/>
      <stop offset="0.28627450980392155" stop-color="#dddddd"/>
      <stop offset="1.0" stop-color="#919191"/>
    </linearGradient>
    <linearGradient gradientTransform="matrix(0.0389, 0.045, -0.0943, 0.0814, -81.65, 239.4)" gradientUnits="userSpaceOnUse" id="gradient2" spreadMethod="pad" x1="-819.2" x2="819.2">
      <stop offset="0.0196078431372549" stop-color="#bdbdbd"/>
      <stop offset="0.28627450980392155" stop-color="#dddddd"/>
      <stop offset="1.0" stop-color="#919191"/>
    </linearGradient>
    <linearGradient gradientTransform="matrix(0.0315, 0.04, -0.0855, 0.0673, -199.2, 206.8)" gradientUnits="userSpaceOnUse" id="gradient3" spreadMethod="pad" x1="-819.2" x2="819.2">
      <stop offset="0.0196078431372549" stop-color="#bdbdbd"/>
      <stop offset="0.28627450980392155" stop-color="#dddddd"/>
      <stop offset="1.0" stop-color="#919191"/>
    </linearGradient>
    <linearGradient gradientTransform="matrix(0.0255, 0.0355, -0.0776, 0.0557, -303.9, 179.3)" gradientUnits="userSpaceOnUse" id="gradient4" spreadMethod="pad" x1="-819.2" x2="819.2">
      <stop offset="0.0196078431372549" stop-color="#bdbdbd"/>
      <stop offset="0.28627450980392155" stop-color="#dddddd"/>
      <stop offset="1.0" stop-color="#919191"/>
    </linearGradient>
    <linearGradient gradientTransform="matrix(0.0134, 0.0189, -0.047, 0.0333, -344.7, 135.1)" gradientUnits="userSpaceOnUse" id="gradient5" spreadMethod="pad" x1="-819.2" x2="819.2">
      <stop offset="0.0196078431372549" stop-color="#bdbdbd"/>
      <stop offset="0.28627450980392155" stop-color="#dddddd"/>
      <stop offset="1.0" stop-color="#919191"/>
    </linearGradient>
  </defs>
</svg>
