<?xml version="1.0" encoding="UTF-8" standalone="no"?>
<svg xmlns:xlink="http://www.w3.org/1999/xlink" height="43.1px" width="22.85px" xmlns="http://www.w3.org/2000/svg">
  <g transform="matrix(1.0, 0.0, 0.0, 1.0, 0.0, 0.0)">
    <path d="M22.2 13.8 L22.2 13.9 22.25 14.45 22.35 15.95 22.85 26.55 Q22.95 29.55 22.25 32.4 21.3 36.3 19.8 40.1 L19.55 40.4 19.5 40.4 7.7 42.75 6.0 43.1 5.9 43.0 5.75 42.2 5.6 41.35 Q5.3 34.55 4.45 27.8 L3.5 21.0 2.65 18.05 2.15 16.1 0.1 9.0 0.05 8.75 13.65 5.95 14.85 5.45 15.95 0.95 16.15 0.3 17.9 0.4 19.2 1.55 18.6 0.85 18.85 1.05 19.75 2.1 Q20.55 3.05 20.9 4.25 21.65 6.55 21.85 9.0 L22.2 13.8 M18.05 0.3 L17.8 0.0 18.0 0.2 18.05 0.25 18.05 0.3 M20.4 16.0 Q21.0 9.8 18.55 4.15 L17.6 2.5 17.4 4.4 18.35 4.8 18.55 5.55 14.3 7.65 Q8.65 9.9 2.25 10.1 4.8 16.95 6.1 23.95 7.7 32.5 7.4 41.3 L9.7 41.05 15.35 40.1 Q17.95 39.65 19.6 37.65 L20.1 37.05 21.55 34.6 20.4 16.0" fill="#000000" fill-rule="evenodd" stroke="none"/>
    <path d="M22.2 13.8 L22.25 14.45 22.2 13.9 22.2 13.8 M19.8 40.1 L19.7 40.35 19.55 40.4 19.8 40.1 M0.05 9.0 L0.05 8.95 0.05 8.75 0.1 9.0 0.15 9.35 0.05 9.0 M19.2 1.55 L18.05 0.3 18.05 0.25 18.85 1.05 18.6 0.85 19.2 1.55 M2.15 16.1 L2.65 18.05 2.15 16.25 2.15 16.1" fill="url(#gradient0)" fill-rule="evenodd" stroke="none"/>
    <path d="M9.7 41.05 L7.4 41.3 Q7.7 32.5 6.1 23.95 4.8 16.95 2.25 10.1 8.65 9.9 14.3 7.65 L18.55 5.55 18.35 4.8 17.4 4.4 17.6 2.5 18.55 4.15 Q21.0 9.8 20.4 16.0 19.9 16.25 19.5 14.05 18.8 10.25 18.7 6.4 L16.9 8.1 Q15.4 9.1 13.25 9.75 L11.25 10.2 11.15 10.25 11.2 10.4 11.9 12.4 Q14.3 19.7 14.5 27.6 L14.55 29.55 14.6 36.9 14.15 36.95 Q12.45 26.35 10.15 15.85 L8.95 10.55 4.1 10.85 5.55 14.45 7.65 20.85 Q10.25 30.65 9.7 41.05" fill="#bfbfbf" fill-rule="evenodd" stroke="none"/>
    <path d="M13.7 5.75 L14.45 5.6 15.95 0.95 14.85 5.45 13.65 5.95 13.7 5.75" fill="#ed0000" fill-rule="evenodd" stroke="none"/>
    <path d="M6.0 43.1 L5.9 43.1 5.9 43.0 6.0 43.1 M5.6 41.35 L3.3 27.9 1.35 16.55 0.25 10.0 0.05 9.0 0.15 9.35 0.1 9.0 2.15 16.1 2.15 16.25 2.65 18.05 3.5 21.0 4.45 27.8 Q5.3 34.55 5.6 41.35 M0.0 8.7 L0.0 8.65 13.7 5.75 13.65 5.95 0.05 8.75 0.0 8.7" fill="#990000" fill-rule="evenodd" stroke="none"/>
    <path d="M20.4 16.0 L21.55 34.6 20.1 37.05 Q19.65 22.8 17.15 8.8 L16.9 8.1 18.7 6.4 Q18.8 10.25 19.5 14.05 19.9 16.25 20.4 16.0 M15.35 40.1 L9.7 41.05 Q10.25 30.65 7.65 20.85 L5.55 14.45 4.1 10.85 8.95 10.55 10.15 15.85 Q12.45 26.35 14.15 36.95 L14.6 36.9 14.55 29.55 15.35 40.1 M11.2 10.4 L11.15 10.25 11.25 10.2 11.2 10.4" fill="#898989" fill-rule="evenodd" stroke="none"/>
    <path d="M20.1 37.05 L19.6 37.65 Q17.95 39.65 15.35 40.1 L14.55 29.55 14.5 27.6 Q14.3 19.7 11.9 12.4 L11.2 10.4 11.25 10.2 13.25 9.75 Q15.4 9.1 16.9 8.1 L17.15 8.8 Q19.65 22.8 20.1 37.05" fill="#6f6f6f" fill-rule="evenodd" stroke="none"/>
    <path d="M5.9 43.1 L5.75 42.2 5.9 43.0 5.9 43.1 M0.05 8.95 L0.0 8.7 0.05 8.75 0.05 8.95" fill="#c5c5c5" fill-rule="evenodd" stroke="none"/>
  </g>
  <defs>
    <radialGradient cx="0" cy="0" gradientTransform="matrix(0.6301, -0.014, 0.0145, 0.6542, 264.1, -163.55)" gradientUnits="userSpaceOnUse" id="gradient0" r="819.2" spreadMethod="pad">
      <stop offset="0.0" stop-color="#fce3ad"/>
      <stop offset="1.0" stop-color="#981f01"/>
    </radialGradient>
  </defs>
</svg>
