<?xml version="1.0" encoding="UTF-8" standalone="no"?>
<svg xmlns:xlink="http://www.w3.org/1999/xlink" height="47.35px" width="53.8px" xmlns="http://www.w3.org/2000/svg">
  <g transform="matrix(1.0, 0.0, 0.0, 1.0, 29.15, 22.2)">
    <path d="M15.7 -8.0 Q10.5 -9.9 2.65 -11.1 L-1.7 -11.65 -8.55 -12.3 Q-11.3 -12.6 -16.45 -10.6 -23.45 -7.7 -24.15 1.55 L-24.05 1.75 Q-23.8 10.95 -16.55 15.2 L-13.9 16.25 Q-12.45 17.3 -7.75 17.45 L-2.55 17.85 Q3.05 18.15 9.15 16.45 L13.2 15.15 Q17.95 13.9 19.4 12.7 20.45 12.1 20.8 10.8 L21.85 5.0 22.15 3.6 Q22.5 1.8 22.35 0.1 21.95 -4.85 17.85 -7.15 L15.7 -8.0 M22.15 -9.8 Q25.45 -5.05 24.4 11.35 23.15 27.9 7.55 24.6 -8.55 21.25 -17.8 20.15 -26.8 19.45 -28.7 6.8 -30.6 -5.8 -24.25 -15.5 -17.6 -25.5 -7.05 -20.6 5.15 -15.45 12.15 -14.85 18.85 -14.8 22.15 -9.8" fill="#ffb0d8" fill-rule="evenodd" stroke="none"/>
    <path d="M15.7 -8.0 L17.85 -7.15 Q21.95 -4.85 22.35 0.1 22.5 1.8 22.15 3.6 L21.85 5.0 20.8 10.8 Q20.45 12.1 19.4 12.7 17.95 13.9 13.2 15.15 L9.15 16.45 Q3.05 18.15 -2.55 17.85 L-7.75 17.45 Q-12.45 17.3 -13.9 16.25 L-16.55 15.2 Q-23.8 10.95 -24.05 1.75 L-24.15 1.55 Q-23.45 -7.7 -16.45 -10.6 -11.3 -12.6 -8.55 -12.3 L-1.7 -11.65 2.65 -11.1 Q10.5 -9.9 15.7 -8.0" fill="#ffdbed" fill-rule="evenodd" stroke="none"/>
  </g>
</svg>
