<?xml version="1.0" encoding="UTF-8" standalone="no"?>
<svg xmlns:xlink="http://www.w3.org/1999/xlink" height="28.0px" width="28.0px" xmlns="http://www.w3.org/2000/svg">
  <g transform="matrix(1.0, 0.0, 0.0, 1.0, 14.0, 14.0)">
    <path d="M-9.15 9.1 L-10.25 8.15 Q-14.0 4.35 -14.0 -1.0 -14.0 -3.85 -12.9 -6.25 -12.0 -8.4 -10.25 -10.15 -8.55 -11.85 -6.6 -12.75 -4.05 -14.0 -1.0 -14.0 4.35 -14.0 8.1 -10.15 L9.1 -9.1 Q12.0 -5.65 12.0 -1.0 12.0 1.85 10.9 4.25 9.9 6.35 8.1 8.15 6.45 9.85 4.5 10.75 2.0 12.0 -1.0 12.0 -5.65 12.0 -9.15 9.1" fill="#000000" fill-opacity="0.2" fill-rule="evenodd" stroke="none"/>
    <path d="M9.1 -9.1 L10.1 -8.15 Q14.0 -4.35 14.0 1.0 14.0 3.85 12.9 6.25 11.9 8.35 10.1 10.15 8.45 11.85 6.5 12.75 4.0 14.0 1.0 14.0 -4.35 14.0 -8.25 10.15 L-9.15 9.1 Q-5.65 12.0 -1.0 12.0 2.0 12.0 4.5 10.75 6.45 9.85 8.1 8.15 9.9 6.35 10.9 4.25 12.0 1.85 12.0 -1.0 12.0 -5.65 9.1 -9.1" fill="#ffffff" fill-opacity="0.3019608" fill-rule="evenodd" stroke="none"/>
  </g>
</svg>
