<?xml version="1.0" encoding="UTF-8" standalone="no"?>
<svg xmlns:xlink="http://www.w3.org/1999/xlink" height="51.2px" width="53.55px" xmlns="http://www.w3.org/2000/svg">
  <g transform="matrix(1.0, 0.0, 0.0, 1.0, 29.25, 23.7)">
    <path d="M17.3 -9.4 Q12.0 -12.65 3.45 -14.2 L-1.3 -14.9 -8.75 -15.3 Q-12.0 -15.25 -17.25 -12.55 -24.35 -8.7 -25.25 1.25 L-25.2 1.4 Q-25.35 11.45 -18.2 17.0 L-15.5 18.6 Q-13.7 20.15 -8.95 20.65 L-3.3 21.35 Q2.95 21.85 9.4 19.6 L13.65 17.85 Q18.3 16.15 20.0 14.35 21.05 13.6 21.5 12.25 L22.9 6.0 23.25 4.45 Q23.6 2.45 23.55 0.6 23.35 -4.9 19.45 -7.95 L17.3 -9.4 M23.2 -6.75 Q25.45 -0.45 23.0 14.65 20.2 30.05 5.1 27.0 -10.65 23.85 -19.4 20.9 -27.85 18.55 -29.05 5.6 -30.3 -7.25 -23.6 -16.8 -16.55 -26.75 -5.75 -22.35 L14.35 -15.1 Q21.0 -13.3 23.2 -6.75" fill="#ffb0d8" fill-rule="evenodd" stroke="none"/>
    <path d="M17.3 -9.4 L19.45 -7.95 Q23.35 -4.9 23.55 0.6 23.6 2.45 23.25 4.45 L22.9 6.0 21.5 12.25 Q21.05 13.6 20.0 14.35 18.3 16.15 13.65 17.85 L9.4 19.6 Q2.95 21.85 -3.3 21.35 L-8.95 20.65 Q-13.7 20.15 -15.5 18.6 L-18.2 17.0 Q-25.35 11.45 -25.2 1.4 L-25.25 1.25 Q-24.35 -8.7 -17.25 -12.55 -12.0 -15.25 -8.75 -15.3 L-1.3 -14.9 3.45 -14.2 Q12.0 -12.65 17.3 -9.4" fill="#ffd4ea" fill-rule="evenodd" stroke="none"/>
  </g>
</svg>
