<?xml version="1.0" encoding="UTF-8" standalone="no"?>
<svg xmlns:xlink="http://www.w3.org/1999/xlink" height="206.9px" width="319.0px" xmlns="http://www.w3.org/2000/svg">
  <g transform="matrix(1.0, 0.0, 0.0, 1.0, 1.0, -11.95)">
    <path d="M237.5 176.0 L264.55 176.0 264.55 217.85 237.5 217.85 237.5 176.0 M76.55 176.0 L76.55 217.8 49.5 217.8 49.5 176.0 76.55 176.0" fill="#94a3b8" fill-rule="evenodd" stroke="none"/>
    <path d="M237.5 176.0 L237.5 217.85 264.55 217.85 264.55 176.0 237.5 176.0 M76.55 176.0 L76.55 217.8 49.5 217.8 49.5 176.0 76.55 176.0" fill="none" stroke="#000000" stroke-linecap="round" stroke-linejoin="round" stroke-width="2.0"/>
    <path d="M312.0 12.95 Q317.0 12.95 317.0 17.6 L317.0 171.4 Q317.0 176.0 312.0 176.0 L5.0 176.0 Q0.0 176.0 0.0 171.4 L0.0 17.6 Q0.0 12.95 5.0 12.95 L312.0 12.95 M308.3 20.4 L8.3 20.4 8.3 168.65 308.3 168.65 308.3 20.4 M311.05 55.15 L311.05 171.05 61.3 171.45 311.05 171.05 311.05 55.15 M3.75 132.2 L3.75 16.25 253.5 15.9 3.75 16.25 3.75 132.2" fill="#c1cad7" fill-rule="evenodd" stroke="none"/>
    <path d="M308.3 20.4 L308.3 168.65 8.3 168.65 8.3 20.4 308.3 20.4" fill="#ffffff" fill-rule="evenodd" stroke="none"/>
    <path d="M312.0 12.95 L5.0 12.95 Q0.0 12.95 0.0 17.6 L0.0 171.4 Q0.0 176.0 5.0 176.0 L312.0 176.0 Q317.0 176.0 317.0 171.4 L317.0 17.6 Q317.0 12.95 312.0 12.95" fill="none" stroke="#000000" stroke-linecap="round" stroke-linejoin="round" stroke-width="2.0"/>
    <path d="M61.3 171.45 L311.05 171.05 311.05 55.15" fill="none" stroke="#8e9eb5" stroke-linecap="round" stroke-linejoin="round" stroke-width="2.0"/>
    <path d="M308.3 20.4 L8.3 20.4 8.3 168.65 308.3 168.65 308.3 20.4" fill="none" stroke="#003366" stroke-linecap="round" stroke-linejoin="round" stroke-width="1.0"/>
    <path d="M253.5 15.9 L3.75 16.25 3.75 132.2" fill="none" stroke="#d6e7ed" stroke-linecap="round" stroke-linejoin="round" stroke-width="2.0"/>
  </g>
</svg>
