<?xml version="1.0" encoding="UTF-8" standalone="no"?>
<svg xmlns:xlink="http://www.w3.org/1999/xlink" height="60.5px" width="371.05px" xmlns="http://www.w3.org/2000/svg">
  <g transform="matrix(1.0, 0.0, 0.0, 1.0, 25.7, -170.7)">
    <path d="M-24.1 171.2 L-2.75 171.2 0.0 171.2 3.5 171.2 35.65 171.2 39.3 171.2 71.65 171.2 103.9 171.2 108.95 171.2 124.75 171.2 132.05 171.2 158.3 171.2 217.6 171.2 221.85 171.2 224.55 171.2 261.55 171.2 298.6 171.2 311.45 171.2 314.65 171.2 339.0 171.2 344.85 171.2 344.85 230.7 -25.2 230.7 -24.1 171.2" fill="#cccccc" fill-rule="evenodd" stroke="none"/>
    <path d="M-24.1 171.2 L-2.75 171.2 0.0 171.2 3.5 171.2 35.65 171.2 39.3 171.2 71.65 171.2 103.9 171.2 108.95 171.2 124.75 171.2 132.05 171.2 158.3 171.2 217.6 171.2 221.85 171.2 224.55 171.2 261.55 171.2 298.6 171.2 311.45 171.2 314.65 171.2 339.0 171.2 344.85 171.2 M344.85 230.7 L-25.2 230.7" fill="none" stroke="#000000" stroke-linecap="round" stroke-linejoin="round" stroke-width="1.0"/>
  </g>
</svg>
