<?xml version="1.0" encoding="UTF-8" standalone="no"?>
<svg xmlns:xlink="http://www.w3.org/1999/xlink" height="101.05px" width="82.2px" xmlns="http://www.w3.org/2000/svg">
  <g transform="matrix(1.0, 0.0, 0.0, 1.0, 19.85, 48.95)">
    <path d="M24.05 -45.35 Q21.95 -44.9 21.4 -42.85 L20.55 -31.4 Q40.55 -35.45 59.9 -29.85 59.9 -35.95 59.25 -42.2 L58.85 -43.1 Q55.9 -45.3 52.05 -46.0 37.95 -48.8 24.05 -45.35 M18.05 -38.45 L18.15 -39.65 2.8 -39.8 3.15 -38.6 3.2 -36.5 17.9 -36.3 18.05 -38.45 M-6.35 52.1 L-9.5 52.1 -9.05 25.7 Q-6.7 18.15 -3.7 10.75 -0.5 2.85 3.15 -4.9 -6.2 -10.1 -9.05 -12.45 -8.9 -18.1 -7.85 -23.75 L-6.1 -31.8 -8.5 -34.15 -19.55 -34.7 Q-20.1 -40.3 -19.6 -40.8 L-13.55 -41.7 -7.9 -41.75 Q-6.6 -42.8 -4.9 -43.5 -2.3 -44.55 0.1 -43.55 L2.85 -41.95 18.5 -42.0 19.05 -45.3 Q26.8 -48.1 34.9 -48.8 48.6 -49.85 61.2 -44.5 62.6 -38.4 62.3 -32.2 L61.9 -27.5 43.2 -29.85 Q31.1 -31.1 19.45 -28.05 L19.0 -28.2 Q17.9 -31.25 17.75 -34.25 L3.6 -34.3 0.9 -31.6 Q0.25 -24.15 0.65 -19.4 0.95 -15.7 3.75 -13.35 L13.05 -6.45 2.2 17.8 Q0.45 21.65 -0.3 25.9 L-1.1 52.1 -3.65 52.1 Q-4.05 42.9 -3.45 33.9 -2.95 26.95 -1.25 20.15 -0.55 17.4 0.65 14.85 L10.4 -5.9 Q-1.9 -13.8 -3.85 -15.7 L-1.3 -32.0 -4.05 -32.0 -6.85 -13.65 7.2 -5.85 Q2.9 1.25 -0.05 9.15 -7.8 29.95 -6.35 52.1 M0.35 -40.65 Q-0.9 -41.85 -2.6 -41.85 -4.3 -41.85 -5.5 -40.65 -6.75 -39.45 -6.75 -37.75 -6.75 -36.05 -5.5 -34.85 -4.3 -33.65 -2.6 -33.65 -0.9 -33.65 0.35 -34.85 1.55 -36.05 1.55 -37.75 1.55 -39.45 0.35 -40.65 M-8.0 -38.8 L-7.8 -39.75 -18.35 -39.65 -18.35 -36.8 -17.85 -36.8 -8.2 -36.65 -8.0 -38.8" fill="#000000" fill-rule="evenodd" stroke="none"/>
    <path d="M3.15 -38.6 L2.8 -39.8 18.15 -39.65 18.05 -38.45 3.15 -38.6 M-17.85 -36.8 L-18.35 -36.8 -18.35 -39.65 -7.8 -39.75 -8.0 -38.8 -16.8 -38.6 -17.85 -37.5 -17.85 -36.8 M0.35 -40.65 Q1.55 -39.45 1.55 -37.75 1.55 -36.05 0.35 -34.85 -0.9 -33.65 -2.6 -33.65 -4.3 -33.65 -5.5 -34.85 -6.75 -36.05 -6.75 -37.75 -6.75 -39.45 -5.5 -40.65 -4.3 -41.85 -2.6 -41.85 -0.9 -41.85 0.35 -40.65" fill="#66ccff" fill-rule="evenodd" stroke="none"/>
    <path d="M24.05 -45.35 Q37.95 -48.8 52.05 -46.0 55.9 -45.3 58.85 -43.1 L59.25 -42.2 Q59.9 -35.95 59.9 -29.85 40.55 -35.45 20.55 -31.4 L21.4 -42.85 Q21.95 -44.9 24.05 -45.35 M18.05 -38.45 L17.9 -36.3 3.2 -36.5 3.15 -38.6 18.05 -38.45 M-3.65 52.1 L-6.35 52.1 Q-7.8 29.95 -0.05 9.15 2.9 1.25 7.2 -5.85 L-6.85 -13.65 -4.05 -32.0 -1.3 -32.0 -3.85 -15.7 Q-1.9 -13.8 10.4 -5.9 L0.65 14.85 Q-0.55 17.4 -1.25 20.15 -2.95 26.95 -3.45 33.9 -4.05 42.9 -3.65 52.1 M-17.85 -36.8 L-17.85 -37.5 -16.8 -38.6 -8.0 -38.8 -8.2 -36.65 -17.85 -36.8" fill="#3399cc" fill-rule="evenodd" stroke="none"/>
  </g>
</svg>
