<?xml version="1.0" encoding="UTF-8" standalone="no"?>
<svg xmlns:xlink="http://www.w3.org/1999/xlink" height="127.25px" width="19.7px" xmlns="http://www.w3.org/2000/svg">
  <g transform="matrix(1.0, 0.0, 0.0, 1.0, 9.85, 61.25)">
    <path d="M7.2 66.0 L3.8 66.0 Q4.5 21.95 4.2 2.45 L4.25 -39.55 3.5 -59.25 7.4 -59.35 7.05 -17.7 6.85 22.1 Q6.8 44.05 7.2 66.0" fill="#999999" fill-rule="evenodd" stroke="none"/>
    <path d="M3.8 66.0 L1.55 66.0 1.65 14.5 -0.4 14.65 Q-0.7 16.6 -1.45 17.7 -2.4 19.15 -4.1 19.15 -4.75 19.15 -5.2 17.7 -5.7 16.05 -6.0 11.05 -7.2 6.05 -7.2 3.15 -7.2 2.0 -5.3 2.0 -2.35 2.0 -1.0 6.2 L-0.95 6.35 1.65 6.3 1.6 2.45 1.5 -24.1 1.45 -39.55 1.5 -44.7 -3.65 -44.65 Q-4.35 -39.85 -8.9 -39.3 L-9.5 -39.6 Q-10.55 -48.45 -8.55 -57.0 -8.45 -57.5 -7.7 -57.35 -3.8 -56.45 -3.6 -52.1 L1.7 -51.65 2.45 -60.6 2.95 -60.8 Q6.15 -61.8 9.05 -60.45 L9.4 -39.55 9.5 2.45 9.8 44.0 9.85 66.0 7.2 66.0 Q6.8 44.05 6.85 22.1 L7.05 -17.7 7.4 -59.35 3.5 -59.25 4.25 -39.55 4.2 2.45 Q4.5 21.95 3.8 66.0 M-5.6 -47.4 Q-5.0 -51.9 -7.2 -55.8 L-7.7 -42.6 Q-6.5 -43.95 -5.6 -47.4 M1.65 11.95 L1.65 8.9 -0.3 8.9 -0.3 11.95 1.65 11.95 M-3.25 -49.75 L-3.25 -46.6 1.55 -46.25 1.65 -50.0 -3.25 -49.75 M-4.65 4.4 L-4.5 5.15 Q-3.2 10.8 -3.2 16.75 -1.05 10.05 -4.65 4.4" fill="#000000" fill-rule="evenodd" stroke="none"/>
    <path d="M-3.25 -49.75 L1.65 -50.0 1.55 -46.25 -3.25 -46.6 -3.25 -49.75 M1.65 11.95 L-0.3 11.95 -0.3 8.9 1.65 8.9 1.65 11.95" fill="#7c9aad" fill-rule="evenodd" stroke="none"/>
    <path d="M-5.6 -47.4 Q-6.5 -43.95 -7.7 -42.6 L-7.2 -55.8 Q-5.0 -51.9 -5.6 -47.4 M-4.65 4.4 Q-1.05 10.05 -3.2 16.75 -3.2 10.8 -4.5 5.15 L-4.65 4.4" fill="#586774" fill-rule="evenodd" stroke="none"/>
  </g>
</svg>
