<?xml version="1.0" encoding="UTF-8" standalone="no"?>
<svg xmlns:xlink="http://www.w3.org/1999/xlink" height="21.95px" width="44.45px" xmlns="http://www.w3.org/2000/svg">
  <g transform="matrix(1.0, 0.0, 0.0, 1.0, 22.25, 10.95)">
    <path d="M11.35 -2.95 L11.35 8.15 11.4 8.15 13.95 7.6 Q17.0 6.4 19.85 4.55 L19.85 -6.0 19.95 -7.65 20.75 -8.2 11.1 -5.2 11.35 -2.95 M9.4 -2.55 L9.9 -6.2 21.25 -10.85 21.85 -10.0 Q22.75 -2.15 21.2 5.7 21.0 6.7 20.15 7.55 15.85 11.55 10.05 10.9 8.35 4.3 9.4 -2.55 M-9.7 -3.95 L-9.85 -5.0 Q-15.35 -4.85 -20.25 -7.75 L-19.95 0.7 -20.2 4.35 Q-17.15 6.95 -13.25 7.65 L-9.9 8.25 Q-8.85 2.2 -9.7 -3.95 M-7.05 -6.05 L-7.3 10.25 Q-14.05 11.9 -19.55 7.5 -20.7 6.6 -21.0 5.4 -23.1 -2.7 -21.7 -10.95 L-7.05 -6.05" fill="#000000" fill-rule="evenodd" stroke="none"/>
    <path d="M19.85 -6.0 L16.25 -5.15 Q15.45 -5.0 11.35 -2.95 L11.1 -5.2 20.75 -8.2 19.95 -7.65 19.85 -6.0 M-9.7 -3.95 L-15.2 -4.3 Q-17.45 -5.05 -18.45 -3.1 L-18.5 -3.0 Q-19.3 -1.7 -19.95 0.7 L-20.25 -7.75 Q-15.35 -4.85 -9.85 -5.0 L-9.7 -3.95" fill="#66ccff" fill-rule="evenodd" stroke="none"/>
    <path d="M11.35 -2.95 Q15.45 -5.0 16.25 -5.15 L19.85 -6.0 19.85 4.55 Q17.0 6.4 13.95 7.6 L11.4 8.15 11.35 8.15 11.35 -2.95 M-19.95 0.7 Q-19.3 -1.7 -18.5 -3.0 L-18.45 -3.1 Q-17.45 -5.05 -15.2 -4.3 L-9.7 -3.95 Q-8.85 2.2 -9.9 8.25 L-13.25 7.65 Q-17.15 6.95 -20.2 4.35 L-19.95 0.7" fill="#3399cc" fill-rule="evenodd" stroke="none"/>
  </g>
</svg>
