<?xml version="1.0" encoding="UTF-8" standalone="no"?>
<svg xmlns:xlink="http://www.w3.org/1999/xlink" height="48.5px" width="103.2px" xmlns="http://www.w3.org/2000/svg">
  <g transform="matrix(1.0, 0.0, 0.0, 1.0, 51.6, 26.0)">
    <path d="M7.45 -25.5 L7.1 -21.05 Q6.95 -17.1 10.5 -15.75 14.15 -14.35 18.1 -14.8 30.7 -16.25 39.5 -25.5 L51.1 -25.5 51.1 -19.2 Q29.75 -17.5 12.85 -4.45 -1.05 6.15 -8.35 22.0 L-37.2 22.0 Q-36.75 7.6 -30.8 -5.4 -29.2 -8.8 -26.6 -11.35 -17.8 -19.85 -6.8 -25.5 L7.45 -25.5 M51.1 -16.35 L51.1 22.0 15.15 22.0 Q13.95 5.85 25.9 -5.2 36.6 -15.15 51.1 -16.35 M-51.1 -8.75 L-51.1 -25.5 -19.75 -25.5 -24.4 -24.05 Q-39.45 -19.4 -51.1 -8.75" fill="#006600" fill-rule="evenodd" stroke="none"/>
    <path d="M39.5 -25.5 Q30.7 -16.25 18.1 -14.8 14.15 -14.35 10.5 -15.75 6.95 -17.1 7.1 -21.05 L7.45 -25.5 9.45 -25.5 36.1 -25.5 39.5 -25.5 M-6.8 -25.5 Q-17.8 -19.85 -26.6 -11.35 -29.2 -8.8 -30.8 -5.4 -36.75 7.6 -37.2 22.0 L-51.1 22.0 -51.1 -3.85 -51.1 -8.75 Q-39.45 -19.4 -24.4 -24.05 L-19.75 -25.5 -11.4 -25.5 -11.3 -25.5 -6.8 -25.5 M-8.35 22.0 Q-1.05 6.15 12.85 -4.45 29.75 -17.5 51.1 -19.2 L51.1 -16.35 Q36.6 -15.15 25.9 -5.2 13.95 5.85 15.15 22.0 L-8.35 22.0" fill="#339900" fill-rule="evenodd" stroke="none"/>
    <path d="M36.1 -25.5 L9.45 -25.5 M7.45 -25.5 L-6.8 -25.5 M-37.2 22.0 L-8.35 22.0 15.15 22.0 51.1 22.0 51.1 -16.35 51.1 -19.2 51.1 -25.5 39.5 -25.5 M-51.1 -8.75 L-51.1 -25.5 -19.75 -25.5 M-11.4 -25.5 L-11.3 -25.5 M-37.2 22.0 L-51.1 22.0 -51.1 -3.85" fill="none" stroke="#000000" stroke-linecap="round" stroke-linejoin="round" stroke-width="1.0"/>
    <path d="M39.5 -25.5 L36.1 -25.5 M9.45 -25.5 L7.45 -25.5 M-19.75 -25.5 L-11.4 -25.5 M-11.3 -25.5 L-6.8 -25.5 M-51.1 -3.85 L-51.1 -8.75" fill="none" stroke="#000000" stroke-linecap="round" stroke-linejoin="round" stroke-width="1.0"/>
  </g>
</svg>
