<?xml version="1.0" encoding="UTF-8" standalone="no"?>
<svg xmlns:xlink="http://www.w3.org/1999/xlink" height="48.2px" width="159.1px" xmlns="http://www.w3.org/2000/svg">
  <g transform="matrix(1.0, 0.0, 0.0, 1.0, 144.0, 20.75)">
    <path d="M14.6 -20.25 L11.8 -3.2 -140.65 -3.2 -143.5 -20.25 14.6 -20.25" fill="#dfbf9f" fill-rule="evenodd" stroke="none"/>
    <path d="M11.8 -3.2 L14.6 -20.25 14.6 26.95 11.8 26.95 11.8 -3.2 M-143.5 -20.25 L-140.65 -3.2 -140.65 26.95 -143.5 26.95 -143.5 -20.25" fill="#cc9966" fill-rule="evenodd" stroke="none"/>
    <path d="M-140.65 -3.2 L11.8 -3.2 11.8 26.95 -140.65 26.95 -140.65 -3.2" fill="#ac7339" fill-rule="evenodd" stroke="none"/>
    <path d="M14.6 -20.25 L-143.5 -20.25 -143.5 26.95 -140.65 26.95 11.8 26.95 14.6 26.95 14.6 -20.25 Z" fill="none" stroke="#000000" stroke-linecap="round" stroke-linejoin="round" stroke-width="1.0"/>
  </g>
</svg>
