<?xml version="1.0" encoding="UTF-8" standalone="no"?>
<svg xmlns:xlink="http://www.w3.org/1999/xlink" height="58.65px" width="154.9px" xmlns="http://www.w3.org/2000/svg">
  <g transform="matrix(1.0, 0.0, 0.0, 1.0, 142.5, 32.3)">
    <path d="M-18.6 -10.35 L-11.15 -7.65 Q-3.6 -10.75 4.45 -12.45 L-8.85 -5.65 -7.9 -4.75 Q-1.95 -7.0 4.25 -6.9 -0.55 -5.5 -4.9 -2.85 L1.5 -2.75 Q4.6 -5.35 8.45 -5.55 L3.8 -3.65 3.4 -2.3 Q8.3 -1.6 12.4 1.15 L12.4 2.05 6.15 0.2 7.2 0.95 7.3 2.05 8.15 2.5 6.95 2.7 9.6 3.6 6.7 5.1 7.45 5.7 Q9.25 7.2 10.1 9.25 7.1 10.7 3.75 9.9 2.6 9.7 1.5 10.45 L1.85 12.55 -8.25 11.35 Q-1.6 15.8 6.4 15.8 L-4.95 16.65 Q-0.4 18.7 4.35 19.0 L3.15 20.15 Q-5.2 19.55 -13.35 22.2 L3.65 23.8 1.0 24.45 Q4.25 24.35 7.4 25.4 L3.2 26.35 -124.0 26.35 -112.4 23.55 -129.0 24.35 -126.55 22.8 -128.65 23.05 Q-131.35 23.85 -134.1 23.65 L-129.95 21.25 -130.35 21.1 Q-134.2 20.3 -136.2 23.7 L-139.85 21.7 -140.25 20.35 Q-130.25 16.05 -119.4 15.4 L-124.55 17.75 -113.5 16.0 -108.6 15.8 Q-98.9 17.0 -89.3 14.6 L-98.3 14.95 Q-106.05 15.55 -113.3 12.8 L-113.4 13.35 -111.95 14.25 -134.4 15.15 -126.05 10.6 -132.55 11.5 -133.45 9.4 -134.65 8.9 -135.45 9.1 -134.65 8.1 -137.8 7.5 -132.3 5.65 -135.15 5.35 -116.05 5.95 Q-118.8 6.05 -121.45 7.0 L-123.2 7.95 Q-121.95 9.9 -119.2 9.15 -112.15 7.05 -104.85 5.8 -109.3 4.6 -113.85 5.35 L-116.45 4.25 Q-123.55 1.55 -131.35 1.5 -133.1 0.6 -134.9 0.15 -138.7 -0.65 -142.5 -2.0 L-139.75 -2.15 Q-133.6 -3.55 -128.3 -6.9 L-129.8 -7.65 Q-133.15 -9.0 -136.5 -8.05 L-137.15 -8.5 -135.75 -9.1 Q-130.85 -10.85 -125.9 -8.85 L-127.35 -10.75 -124.3 -11.45 -132.8 -12.6 -125.6 -13.2 Q-117.5 -14.55 -111.0 -9.3 L-104.75 -12.1 -106.1 -15.1 -105.6 -15.15 -102.65 -12.9 -99.8 -13.85 -118.3 -2.2 Q-117.95 -1.3 -116.45 -1.3 -106.7 -1.2 -98.6 3.8 -88.9 9.8 -77.65 11.1 -59.75 12.75 -42.35 8.6 L-28.55 8.15 Q-21.7 9.35 -15.0 7.9 L-13.9 7.45 -9.25 5.7 Q-11.8 3.3 -15.45 1.65 L-16.3 0.9 -19.1 -6.45 -17.2 -5.55 -13.9 -6.65 -14.75 -7.45 Q-16.8 -9.2 -19.4 -10.25 L-18.6 -10.35" fill="#e6e6b3" fill-rule="evenodd" stroke="none"/>
    <path d="M-18.6 -10.35 L-19.4 -10.25 -19.85 -10.5 -18.6 -10.35 M-131.35 1.5 Q-123.55 1.55 -116.45 4.25 L-113.85 5.35 Q-109.3 4.6 -104.85 5.8 -112.15 7.05 -119.2 9.15 -121.95 9.9 -123.2 7.95 L-121.45 7.0 Q-118.8 6.05 -116.05 5.95 L-135.15 5.35 Q-138.35 3.0 -141.7 1.2 L-140.1 0.95 -134.5 2.45 -134.6 2.35 -134.6 2.25 -134.4 2.15 -130.65 1.85 -131.35 1.5 M-135.45 9.1 L-134.65 8.9 -133.45 9.4 -132.55 11.5 -126.05 10.6 -134.4 15.15 -111.95 14.25 -113.4 13.35 -113.3 12.8 Q-106.05 15.55 -98.3 14.95 L-89.3 14.6 Q-98.9 17.0 -108.6 15.8 L-113.5 16.0 -124.55 17.75 -119.4 15.4 Q-130.25 16.05 -140.25 20.35 -140.45 18.1 -139.25 16.25 L-136.4 12.25 -141.95 12.05 -135.45 9.1 M-136.2 23.7 Q-134.2 20.3 -130.35 21.1 L-129.95 21.25 -134.1 23.65 Q-131.35 23.85 -128.65 23.05 L-126.55 22.8 -129.0 24.35 -112.4 23.55 -124.0 26.35 -138.9 25.05 Q-140.9 25.0 -142.3 23.5 L-142.3 23.0 -141.05 22.95 Q-138.35 25.4 -135.6 24.1 L-136.2 23.7 M3.65 23.8 L-13.35 22.2 Q-5.2 19.55 3.15 20.15 L4.35 19.0 Q-0.4 18.7 -4.95 16.65 L6.4 15.8 Q-1.6 15.8 -8.25 11.35 L1.85 12.55 1.5 10.45 Q2.6 9.7 3.75 9.9 7.1 10.7 10.1 9.25 L10.7 11.1 8.35 13.2 12.0 14.65 10.2 14.7 Q10.9 16.5 10.65 18.25 10.45 20.0 9.4 21.35 L11.7 21.6 11.25 21.8 Q7.7 23.7 3.65 23.8" fill="#dec487" fill-rule="evenodd" stroke="none"/>
    <path d="M-19.1 -6.45 L-16.3 0.9 -15.45 1.65 Q-11.8 3.3 -9.25 5.7 L-13.9 7.45 -15.0 7.9 Q-21.7 9.35 -28.55 8.15 L-42.35 8.6 Q-59.75 12.75 -77.65 11.1 -88.9 9.8 -98.6 3.8 -106.7 -1.2 -116.45 -1.3 -117.95 -1.3 -118.3 -2.2 L-99.8 -13.85 Q-92.8 -18.3 -91.4 -19.9 -88.7 -23.05 -75.0 -27.7 L-70.3 -29.25 -64.3 -31.05 Q-62.6 -32.2 -57.0 -32.3 -46.35 -32.05 -38.95 -29.25 -35.95 -28.15 -33.55 -26.25 -23.55 -18.5 -19.1 -6.45" fill="#ffffcc" fill-rule="evenodd" stroke="none"/>
  </g>
</svg>
