<?xml version="1.0" encoding="UTF-8" standalone="no"?>
<svg xmlns:xlink="http://www.w3.org/1999/xlink" height="49.0px" width="103.2px" xmlns="http://www.w3.org/2000/svg">
  <g transform="matrix(1.0, 0.0, 0.0, 1.0, 51.6, 26.5)">
    <path d="M-48.1 -10.0 L-51.1 -25.5 51.1 -25.5 48.1 -10.0 51.1 -25.5 -51.1 -25.5 -48.1 -10.0 -48.1 21.5 -51.1 21.5 -51.1 -25.5 -51.1 -26.0 51.1 -26.0 51.1 -25.5 51.1 21.5 48.1 21.5 48.1 -10.0 -48.1 -10.0" fill="#115191" fill-rule="evenodd" stroke="none"/>
    <path d="M-48.1 -10.0 L48.1 -10.0 48.1 21.5 -48.1 21.5 -48.1 -10.0" fill="#0c3763" fill-rule="evenodd" stroke="none"/>
    <path d="M48.1 -10.0 L51.1 -25.5 -51.1 -25.5 -48.1 -10.0 48.1 -10.0 48.1 21.5 51.1 21.5 51.1 -25.5 51.1 -26.0 -51.1 -26.0 -51.1 -25.5 -51.1 21.5 -48.1 21.5 -48.1 -10.0 M-51.1 21.5 L-51.1 22.0 -48.1 22.0 -48.1 21.5 48.1 21.5 48.1 22.0 51.1 22.0 51.1 21.5 M48.1 22.0 L-48.1 22.0" fill="none" stroke="#000000" stroke-linecap="round" stroke-linejoin="round" stroke-width="1.0"/>
  </g>
</svg>
