<?xml version="1.0" encoding="UTF-8" standalone="no"?>
<svg xmlns:xlink="http://www.w3.org/1999/xlink" height="62.85px" width="57.4px" xmlns="http://www.w3.org/2000/svg">
  <g transform="matrix(1.0, 0.0, 0.0, 1.0, 30.25, 28.3)">
    <path d="M25.4 -8.2 L25.45 -8.1 25.25 -8.55 25.4 -8.2" fill="#ffb0d8" fill-rule="evenodd" stroke="none"/>
    <path d="M25.45 -8.1 L25.65 -7.6 25.7 -7.2 26.5 -2.9 27.15 0.85 27.1 2.15 26.45 6.95 26.0 8.9 Q25.05 12.95 23.5 16.55 L21.9 19.25 21.15 20.35 18.75 24.65 Q11.4 36.55 -2.2 34.15 -16.9 31.6 -24.2 23.15 -30.95 15.75 -30.15 2.05 -29.35 -11.5 -21.75 -20.65 -13.45 -30.5 -1.8 -27.65 13.8 -24.3 20.9 -15.9 24.0 -12.5 25.4 -8.2 L25.25 -8.55 25.45 -8.1" fill="#ffbedf" fill-rule="evenodd" stroke="none"/>
  </g>
</svg>
