<?xml version="1.0" encoding="UTF-8" standalone="no"?>
<svg xmlns:xlink="http://www.w3.org/1999/xlink" height="27.6px" width="31.55px" xmlns="http://www.w3.org/2000/svg">
  <g transform="matrix(1.0, 0.0, 0.0, 1.0, -261.75, -168.55)">
    <path d="M265.4 169.75 Q268.25 171.1 270.65 173.05 L276.85 178.25 Q281.0 174.0 286.15 171.25 288.1 170.25 290.2 170.3 290.9 170.3 291.45 170.65 L292.1 171.6 Q292.35 172.15 292.25 172.7 292.2 173.5 291.5 173.9 289.55 175.1 287.1 175.8 285.6 176.2 284.25 176.9 281.4 178.2 278.9 180.0 285.2 185.65 290.1 192.65 L291.85 195.15 Q287.45 193.15 284.0 189.75 L280.1 186.15 276.75 183.55 276.65 183.65 276.1 183.0 Q274.5 184.05 273.5 185.8 L272.35 187.85 Q271.35 189.6 270.65 191.5 L269.2 194.0 Q268.6 194.7 267.7 194.75 265.55 194.75 264.8 192.7 264.15 190.9 265.5 189.3 269.15 184.85 273.85 181.35 268.0 177.8 263.4 172.8 262.35 171.7 263.0 170.4 263.45 169.6 264.35 169.55 L265.4 169.75" fill="#ff0000" fill-rule="evenodd" stroke="none"/>
    <path d="M265.4 169.75 Q268.25 171.1 270.65 173.05 L276.85 178.25 Q281.0 174.0 286.15 171.25 288.1 170.25 290.2 170.3 290.9 170.3 291.45 170.65 L292.1 171.6 Q292.35 172.15 292.25 172.7 292.2 173.5 291.5 173.9 289.55 175.1 287.1 175.8 285.6 176.2 284.25 176.9 281.4 178.2 278.9 180.0 285.2 185.65 290.1 192.65 L291.85 195.15 Q287.45 193.15 284.0 189.75 L280.1 186.15 276.75 183.55 276.65 183.65 276.1 183.0 Q274.5 184.05 273.5 185.8 L272.35 187.85 Q271.35 189.6 270.65 191.5 L269.2 194.0 Q268.6 194.7 267.7 194.75 265.55 194.75 264.8 192.7 264.15 190.9 265.5 189.3 269.15 184.85 273.85 181.35 268.0 177.8 263.4 172.8 262.35 171.7 263.0 170.4 263.45 169.6 264.35 169.55 L265.4 169.75 Z" fill="none" stroke="#000000" stroke-linecap="round" stroke-linejoin="round" stroke-width="2.0"/>
  </g>
</svg>
