<?xml version="1.0" encoding="UTF-8" standalone="no"?>
<svg xmlns:xlink="http://www.w3.org/1999/xlink" height="39.95px" width="45.7px" xmlns="http://www.w3.org/2000/svg">
  <g transform="matrix(1.0, 0.0, 0.0, 1.0, -368.4, -350.15)">
    <path d="M393.35 366.7 Q402.65 375.05 409.9 385.4 L412.5 389.1 Q405.95 386.15 400.9 381.1 398.1 378.35 395.1 375.75 392.7 373.7 390.15 371.9 L390.05 372.1 389.15 371.1 Q386.85 372.65 385.3 375.2 L383.65 378.25 Q382.2 380.85 381.1 383.7 380.3 385.75 379.0 387.35 378.1 388.4 376.7 388.45 373.6 388.45 372.5 385.45 371.5 382.8 373.45 380.4 378.85 373.85 385.85 368.65 377.2 363.35 370.4 356.0 368.8 354.35 369.8 352.45 370.45 351.3 371.8 351.15 L373.35 351.45 Q377.55 353.5 381.1 356.35 L390.3 364.05 Q396.4 357.8 404.1 353.7 406.95 352.2 410.1 352.25 411.05 352.25 411.9 352.85 L412.85 354.2 Q413.2 355.0 413.1 355.85 413.0 357.05 412.0 357.6 409.1 359.4 405.5 360.45 403.3 361.05 401.25 362.05 397.0 364.0 393.35 366.7" fill="#ff0000" fill-rule="evenodd" stroke="none"/>
    <path d="M393.35 366.7 Q402.65 375.05 409.9 385.4 L412.5 389.1 Q405.95 386.15 400.9 381.1 398.1 378.35 395.1 375.75 392.7 373.7 390.15 371.9 L390.05 372.1 389.15 371.1 Q386.85 372.65 385.3 375.2 L383.65 378.25 Q382.2 380.85 381.1 383.7 380.3 385.75 379.0 387.35 378.1 388.4 376.7 388.45 373.6 388.45 372.5 385.45 371.5 382.8 373.45 380.4 378.85 373.85 385.85 368.65 377.2 363.35 370.4 356.0 368.8 354.35 369.8 352.45 370.45 351.3 371.8 351.15 L373.35 351.45 Q377.55 353.5 381.1 356.35 L390.3 364.05 Q396.4 357.8 404.1 353.7 406.95 352.2 410.1 352.25 411.05 352.25 411.9 352.85 L412.85 354.2 Q413.2 355.0 413.1 355.85 413.0 357.05 412.0 357.6 409.1 359.4 405.5 360.45 403.3 361.05 401.25 362.05 397.0 364.0 393.35 366.7 Z" fill="none" stroke="#000000" stroke-linecap="round" stroke-linejoin="round" stroke-width="2.0"/>
  </g>
</svg>
