<?xml version="1.0" encoding="UTF-8" standalone="no"?>
<svg xmlns:xlink="http://www.w3.org/1999/xlink" height="64.0px" width="62.4px" xmlns="http://www.w3.org/2000/svg">
  <g transform="matrix(1.0, 0.0, 0.0, 1.0, 31.2, 34.8)">
    <path d="M27.3 -34.7 L30.2 -34.75 31.05 20.85 31.2 26.9 Q31.25 27.45 30.0 28.65 L22.3 28.9 18.5 28.65 Q-0.25 27.5 -19.05 28.85 -23.05 29.45 -26.45 27.85 -26.9 27.55 -27.05 25.45 L-29.1 25.45 Q-30.0 24.25 -29.75 22.55 -29.1 18.4 -30.4 14.2 L-30.5 13.65 -27.8 12.4 Q-27.15 -0.65 -27.75 -13.65 L-29.55 -13.65 -31.2 -22.25 -30.7 -23.45 -28.4 -24.05 -28.1 -32.2 -25.35 -32.6 -25.3 -32.6 -25.6 -24.3 -24.2 -24.3 -23.9 -32.65 -22.4 -32.75 -22.85 -21.0 -21.75 20.8 Q-21.75 21.65 -22.6 21.65 L-22.2 23.55 28.3 23.6 28.2 21.7 28.15 -2.85 27.55 -22.15 27.3 -34.7 M18.0 -21.9 Q17.65 -23.9 18.4 -25.1 19.3 -26.6 21.85 -26.9 23.7 -26.85 25.25 -25.9 L26.7 -24.4 Q27.2 -23.4 27.0 -22.05 L27.0 -21.95 27.0 -21.85 Q26.75 -20.7 25.9 -20.05 21.35 -17.95 18.3 -21.4 L18.0 -21.9 M22.6 -20.8 Q24.05 -20.65 25.2 -21.5 26.1 -23.5 24.6 -24.55 L23.7 -25.0 Q21.9 -25.7 20.15 -24.95 18.55 -23.25 20.5 -21.75 21.4 -21.1 22.6 -20.8 M24.9 26.3 L28.6 26.4 28.4 25.1 -22.75 25.05 -23.15 25.8 -19.0 26.1 Q2.95 24.55 24.9 26.3 M-24.35 12.65 L-23.5 14.55 -24.65 -14.15 -24.75 12.45 -24.35 12.65 M-27.6 13.9 Q-28.0 14.6 -27.55 13.9 L-27.6 13.9" fill="#666666" fill-rule="evenodd" stroke="none"/>
    <path d="M-25.3 -32.6 L-25.3 -32.8 -23.9 -32.8 -23.9 -32.65 -24.2 -24.3 -25.6 -24.3 -25.3 -32.6 M-22.4 -32.75 L-22.4 -32.8 27.3 -34.8 27.3 -34.7 27.55 -22.15 27.0 -21.95 27.0 -22.05 Q27.2 -23.4 26.7 -24.4 L25.25 -25.9 Q23.7 -26.85 21.85 -26.9 19.3 -26.6 18.4 -25.1 17.65 -23.9 18.0 -21.9 L18.3 -21.4 Q21.35 -17.95 25.9 -20.05 L26.45 -19.15 Q25.1 -16.2 21.7 -16.7 17.6 -17.5 17.2 -21.7 L18.0 -21.9 Q-2.35 -19.7 -22.85 -21.0 L-22.4 -32.75 M28.2 21.7 L28.3 23.6 -22.2 23.55 -22.6 21.65 Q-21.75 21.65 -21.75 20.8 L3.65 19.8 Q21.0 19.8 28.2 21.7 M24.9 26.3 Q2.95 24.55 -19.0 26.1 L-23.15 25.8 -22.75 25.05 28.4 25.1 28.6 26.4 24.9 26.3 M-24.35 12.65 L-24.75 12.45 -24.65 -14.15 -23.5 14.55 -24.35 12.65" fill="#ba8700" fill-rule="evenodd" stroke="none"/>
    <path d="M27.55 -22.15 L28.15 -2.85 28.2 21.7 Q21.0 19.8 3.65 19.8 L-21.75 20.8 -22.85 -21.0 Q-2.35 -19.7 18.0 -21.9 L17.2 -21.7 Q17.6 -17.5 21.7 -16.7 25.1 -16.2 26.45 -19.15 L25.9 -20.05 Q26.75 -20.7 27.0 -21.85 L27.0 -21.95 27.55 -22.15" fill="#cc9900" fill-rule="evenodd" stroke="none"/>
    <path d="M22.6 -20.8 Q21.4 -21.1 20.5 -21.75 18.55 -23.25 20.15 -24.95 21.9 -25.7 23.7 -25.0 L24.6 -24.55 Q26.1 -23.5 25.2 -21.5 24.05 -20.65 22.6 -20.8" fill="#6d4c00" fill-rule="evenodd" stroke="none"/>
  </g>
</svg>
