<?xml version="1.0" encoding="UTF-8" standalone="no"?>
<svg xmlns:xlink="http://www.w3.org/1999/xlink" height="71.85px" width="216.8px" xmlns="http://www.w3.org/2000/svg">
  <g transform="matrix(1.0, 0.0, 0.0, 1.0, 108.4, 35.9)">
    <path d="M-108.4 -31.0 Q-108.4 -33.25 -108.0 -34.95 L-107.7 -35.9 Q-106.85 -32.15 -103.95 -28.9 L-95.45 -19.95 Q-99.25 -21.35 -102.75 -21.4 L-103.0 -21.3 Q-102.05 -20.95 -98.95 -19.05 -97.55 -17.0 -96.85 -13.5 -95.8 -8.55 -94.95 -6.85 -91.1 1.05 -73.05 4.8 -71.55 5.1 -62.3 10.05 -52.85 15.2 -48.25 16.35 -46.45 16.8 -44.35 18.45 L-40.2 21.65 Q-33.7 25.8 -21.7 25.8 -15.3 25.8 -8.65 23.8 -2.05 21.75 4.25 21.75 6.4 21.75 14.4 24.1 22.45 26.4 34.7 26.4 41.25 26.4 53.35 22.4 65.05 18.55 67.55 15.9 69.5 13.75 76.25 8.15 78.5 5.9 89.05 1.2 L91.6 -0.8 Q88.0 0.3 83.0 1.2 L82.55 1.1 Q83.95 -0.2 91.25 -2.25 93.05 -2.75 94.7 -4.35 L95.85 -5.4 Q98.6 -8.8 101.85 -13.7 106.45 -20.55 108.4 -25.0 107.6 -17.75 104.65 -15.3 100.95 -12.15 99.35 -7.4 98.5 -4.65 97.35 0.5 96.35 3.55 87.7 8.3 77.9 13.7 76.15 15.7 74.75 17.35 71.8 19.15 L66.1 22.85 Q64.25 24.2 57.8 26.1 52.2 27.75 49.2 28.95 46.05 29.0 41.95 30.05 L33.45 32.45 Q20.7 35.95 6.7 35.95 1.65 35.95 -4.35 34.4 -10.4 32.85 -12.15 32.85 L-16.25 33.2 -18.5 31.95 Q-20.65 30.8 -22.25 30.5 L-26.45 29.75 -33.7 29.15 -40.15 28.3 Q-43.35 27.3 -55.4 22.2 -56.25 21.85 -62.15 18.35 -68.55 15.2 -74.65 15.05 -84.15 12.4 -89.7 6.05 L-94.5 -0.25 Q-97.45 -4.25 -100.0 -6.65 -105.05 -11.3 -105.05 -18.8 -105.05 -20.0 -106.7 -24.7 -108.4 -29.45 -108.4 -31.0" fill="#000000" fill-opacity="0.101960786" fill-rule="evenodd" stroke="none"/>
  </g>
</svg>
