<?xml version="1.0" encoding="UTF-8" standalone="no"?>
<svg xmlns:xlink="http://www.w3.org/1999/xlink" height="60.0px" width="30.0px" xmlns="http://www.w3.org/2000/svg">
  <g transform="matrix(1.0, 0.0, 0.0, 1.0, 15.0, 30.0)">
    <path d="M10.6 -21.25 Q15.0 -12.4 15.0 0.0 15.0 12.4 10.6 21.15 6.2 30.0 0.0 30.0 -6.2 30.0 -10.6 21.15 -15.0 12.4 -15.0 0.0 -15.0 -12.4 -10.6 -21.25 -6.2 -30.0 0.0 -30.0 6.2 -30.0 10.6 -21.25 M6.8 -7.6 Q5.85 -15.75 1.0 -15.75 -5.45 -15.75 -6.7 -7.25 -7.1 -4.5 -7.0 -0.75 L-6.75 3.6 Q-7.25 7.6 -6.75 11.35 -5.7 18.75 -0.5 18.75 5.55 18.75 6.75 11.0 7.1 8.5 6.95 5.0 L6.75 0.85 Q7.25 -3.45 6.8 -7.6" fill="#ffb0d8" fill-rule="evenodd" stroke="none"/>
    <path d="M6.8 -7.6 Q7.25 -3.45 6.75 0.85 L6.95 5.0 Q7.1 8.5 6.75 11.0 5.55 18.75 -0.5 18.75 -5.7 18.75 -6.75 11.35 -7.25 7.6 -6.75 3.6 L-7.0 -0.75 Q-7.1 -4.5 -6.7 -7.25 -5.45 -15.75 1.0 -15.75 5.85 -15.75 6.8 -7.6" fill="#fff0f8" fill-rule="evenodd" stroke="none"/>
  </g>
</svg>
