<?xml version="1.0" encoding="UTF-8" standalone="no"?>
<svg xmlns:xlink="http://www.w3.org/1999/xlink" height="48.25px" width="158.75px" xmlns="http://www.w3.org/2000/svg">
  <g transform="matrix(1.0, 0.0, 0.0, 1.0, 143.85, 21.0)">
    <path d="M-110.5 -17.0 L-139.4 -17.0 -139.4 23.0 -110.5 23.0 -63.4 23.15 -60.0 23.15 -55.6 23.15 -34.15 23.15 10.6 23.15 10.6 -17.0 -110.5 -17.0 M-33.75 16.3 L-34.2 16.65 -32.7 16.3 -32.95 15.15 -33.2 15.0 -35.6 15.15 -35.75 16.25 -33.75 16.3 M-36.9 18.5 L-36.95 18.5 -37.65 18.5 -38.5 13.5 -31.5 13.5 -29.5 18.5 -36.9 18.5 M-69.35 18.35 L-69.5 18.5 -69.8 18.5 -77.5 18.5 -75.85 13.55 -69.25 13.2 -69.35 18.35 M-42.1 14.0 L-42.5 13.5 Q-54.0 12.35 -65.5 13.5 L-66.1 14.25 -63.9 7.5 Q-53.3 6.0 -43.65 7.5 L-42.1 14.0 M-71.5 15.4 Q-72.35 14.65 -73.65 15.2 L-74.0 15.4 Q-74.0 15.95 -73.6 16.35 -73.25 16.75 -72.75 16.75 -71.25 16.75 -71.25 16.15 -71.25 15.7 -71.5 15.4 M-143.35 -20.5 L14.4 -20.5 14.4 26.75 -143.35 26.75 -143.35 -20.5" fill="#999999" fill-rule="evenodd" stroke="none"/>
    <path d="M-110.5 23.0 L-110.5 -17.0 10.6 -17.0 10.6 23.15 -34.15 23.15 -32.8 23.1 Q-34.75 19.9 -36.45 18.65 L-36.9 18.5 -29.5 18.5 -31.5 13.5 -38.5 13.5 -43.65 7.5 Q-53.3 6.0 -63.9 7.5 L-64.5 7.5 -65.65 8.95 -65.8 9.1 -69.25 13.2 -75.85 13.55 -77.5 18.5 -69.8 18.5 -67.25 20.85 Q-64.8 22.75 -63.4 23.15 L-110.5 23.0 M-55.6 23.15 L-60.0 23.15 -59.85 22.8 -55.6 23.15 M-32.95 15.15 L-33.2 15.85 -33.75 16.3 -35.75 16.25 -35.6 15.15 Q-35.1 16.15 -33.7 15.85 L-33.5 15.75 -33.2 15.0 -32.95 15.15 M-36.95 18.5 L-37.65 18.95 -63.0 18.35 -64.25 17.3 Q-65.6 16.25 -67.35 15.8 L-66.1 14.25 -65.5 13.5 Q-54.0 12.35 -42.5 13.5 L-42.1 14.0 -38.5 18.5 -37.65 18.5 -36.95 18.5 M-74.0 15.4 L-72.5 15.8 -71.5 15.4 -72.75 16.75 Q-73.25 16.75 -73.6 16.35 -74.0 15.95 -74.0 15.4" fill="#666666" fill-rule="evenodd" stroke="none"/>
    <path d="M-110.5 23.0 L-139.4 23.0 -139.4 -17.0 -110.5 -17.0 -110.5 23.0" fill="#0099ff" fill-rule="evenodd" stroke="none"/>
    <path d="M-67.35 15.8 L-67.75 16.3 -67.9 16.55 -69.35 18.35 -69.25 13.2 -65.8 9.1 -65.65 8.95 -64.5 7.5 -63.9 7.5 -66.1 14.25 -67.35 15.8" fill="#cccccc" fill-rule="evenodd" stroke="none"/>
    <path d="M-34.15 23.15 L-55.6 23.15 -59.85 22.8 -60.0 23.15 -63.4 23.15 Q-64.8 22.75 -67.25 20.85 L-69.8 18.5 -69.5 18.5 -69.35 18.35 -67.9 16.55 -67.75 16.3 -67.35 15.8 Q-65.6 16.25 -64.25 17.3 L-63.0 18.35 -37.65 18.95 -36.95 18.5 -36.9 18.5 -36.45 18.65 Q-34.75 19.9 -32.8 23.1 L-34.15 23.15 M-37.65 18.5 L-38.5 18.5 -42.1 14.0 -43.65 7.5 -38.5 13.5 -37.65 18.5" fill="#333333" fill-rule="evenodd" stroke="none"/>
    <path d="M-35.6 15.15 L-33.2 15.0 -33.5 15.75 -33.7 15.85 Q-35.1 16.15 -35.6 15.15" fill="#787878" fill-rule="evenodd" stroke="none"/>
    <path d="M-32.95 15.15 L-32.7 16.3 -34.2 16.65 -33.75 16.3 -33.2 15.85 -32.95 15.15" fill="#545454" fill-rule="evenodd" stroke="none"/>
    <path d="M-71.5 15.4 Q-71.25 15.7 -71.25 16.15 -71.25 16.75 -72.75 16.75 L-71.5 15.4" fill="#555555" fill-rule="evenodd" stroke="none"/>
    <path d="M-74.0 15.4 L-73.65 15.2 Q-72.35 14.65 -71.5 15.4 L-72.5 15.8 -74.0 15.4" fill="#8f8f8f" fill-rule="evenodd" stroke="none"/>
    <path d="M-110.5 -17.0 L10.6 -17.0 10.6 23.15 -34.15 23.15 -55.6 23.15 -60.0 23.15 -63.4 23.15 -110.5 23.0 M-67.35 15.8 L-67.75 16.3 M-67.9 16.55 L-69.35 18.35 -69.5 18.5 M-36.95 18.5 L-37.65 18.5 -38.5 18.5 -42.1 14.0 -42.5 13.5 Q-54.0 12.35 -65.5 13.5 L-66.1 14.25 -67.35 15.8 M-38.5 13.5 L-43.65 7.5 Q-53.3 6.0 -63.9 7.5 M-36.9 18.5 L-29.5 18.5 -31.5 13.5 -38.5 13.5 M-65.65 8.95 L-64.5 7.5 M-69.25 13.2 L-75.85 13.55 -77.5 18.5 -69.8 18.5 M-69.25 13.2 L-65.8 9.1 M-143.35 -20.5 L-143.35 26.75 14.4 26.75 14.4 -20.5 -143.35 -20.5" fill="none" stroke="#000000" stroke-linecap="round" stroke-linejoin="round" stroke-width="1.0"/>
    <path d="M-110.5 -17.0 L-139.4 -17.0 -139.4 23.0 -110.5 23.0 -110.5 -17.0 Z" fill="none" stroke="#000000" stroke-linecap="round" stroke-linejoin="round" stroke-width="1.0"/>
  </g>
</svg>
