<?xml version="1.0" encoding="UTF-8" standalone="no"?>
<svg xmlns:xlink="http://www.w3.org/1999/xlink" height="61.15px" width="33.25px" xmlns="http://www.w3.org/2000/svg">
  <g transform="matrix(1.0, 0.0, 0.0, 1.0, 16.75, 30.15)">
    <path d="M8.55 -9.0 Q6.95 -16.9 0.85 -17.5 -4.8 -17.6 -7.45 -12.25 -8.35 -10.45 -8.85 -8.15 -9.6 -5.0 -9.65 -0.7 L-9.5 4.4 Q-9.75 7.8 -9.2 10.95 L-8.75 13.35 Q-7.3 19.45 -2.95 20.75 L-0.65 21.05 Q4.35 21.0 6.95 16.4 7.9 14.7 8.45 12.45 9.25 9.55 9.35 4.95 L9.3 0.65 Q9.65 -3.25 9.0 -7.0 L8.55 -9.0 M12.25 -20.7 Q16.85 -11.65 16.5 0.95 16.2 13.5 11.2 22.3 6.15 31.2 -0.8 31.0 -7.85 30.75 -12.45 21.55 -17.0 12.55 -16.75 -0.05 -16.55 -12.6 -11.7 -21.45 -6.8 -30.35 0.1 -30.15 7.5 -29.85 12.25 -20.7" fill="#ffb0d8" fill-rule="evenodd" stroke="none"/>
    <path d="M8.55 -9.0 L9.0 -7.0 Q9.65 -3.25 9.3 0.65 L9.35 4.95 Q9.25 9.55 8.45 12.45 7.9 14.7 6.95 16.4 4.35 21.0 -0.65 21.05 L-2.95 20.75 Q-7.3 19.45 -8.75 13.35 L-9.2 10.95 Q-9.75 7.8 -9.5 4.4 L-9.65 -0.7 Q-9.6 -5.0 -8.85 -8.15 -8.35 -10.45 -7.45 -12.25 -4.8 -17.6 0.85 -17.5 6.95 -16.9 8.55 -9.0" fill="#ffe9f4" fill-rule="evenodd" stroke="none"/>
  </g>
</svg>
