<?xml version="1.0" encoding="UTF-8" standalone="no"?>
<svg xmlns:xlink="http://www.w3.org/1999/xlink" height="62.25px" width="36.7px" xmlns="http://www.w3.org/2000/svg">
  <g transform="matrix(1.0, 0.0, 0.0, 1.0, 18.6, 30.25)">
    <path d="M10.35 -10.4 Q8.0 -18.4 0.7 -19.2 -5.65 -19.5 -9.05 -13.6 -10.25 -11.6 -11.0 -9.05 -12.1 -5.45 -12.3 -0.65 -12.45 2.2 -12.2 5.2 -12.35 9.1 -11.5 12.65 L-10.7 15.3 Q-8.65 21.7 -3.5 23.0 L-0.8 23.3 Q4.8 23.25 8.05 18.25 9.35 16.4 10.15 13.95 11.35 10.6 11.75 5.4 L11.85 0.45 Q12.1 -4.05 11.05 -8.15 L10.35 -10.4 M13.85 -20.2 Q18.7 -10.9 18.0 1.9 17.35 14.6 11.8 23.4 6.05 32.4 -1.6 32.0 -9.5 31.5 -14.35 21.95 -19.0 12.75 -18.55 -0.1 -18.05 -12.85 -12.8 -21.7 -7.35 -30.65 0.2 -30.25 8.85 -29.7 13.85 -20.2" fill="#ffb0d8" fill-rule="evenodd" stroke="none"/>
    <path d="M10.35 -10.4 L11.05 -8.15 Q12.1 -4.05 11.85 0.45 L11.75 5.4 Q11.35 10.6 10.15 13.95 9.35 16.4 8.05 18.25 4.8 23.25 -0.8 23.3 L-3.5 23.0 Q-8.65 21.7 -10.7 15.3 L-11.5 12.65 Q-12.35 9.1 -12.2 5.2 -12.45 2.2 -12.3 -0.65 -12.1 -5.45 -11.0 -9.05 -10.25 -11.6 -9.05 -13.6 -5.65 -19.5 0.7 -19.2 8.0 -18.4 10.35 -10.4" fill="#ffe2f1" fill-rule="evenodd" stroke="none"/>
  </g>
</svg>
