<?xml version="1.0" encoding="UTF-8" standalone="no"?>
<svg xmlns:xlink="http://www.w3.org/1999/xlink" height="63.5px" width="40.1px" xmlns="http://www.w3.org/2000/svg">
  <g transform="matrix(1.0, 0.0, 0.0, 1.0, 20.4, 30.45)">
    <path d="M12.1 -11.8 Q9.05 -19.95 0.55 -20.95 -6.55 -21.35 -10.7 -15.0 -12.2 -12.8 -13.15 -10.0 -14.6 -5.95 -14.95 -0.6 -15.2 2.65 -14.95 6.0 -15.0 10.45 -13.75 14.4 L-12.7 17.3 Q-10.05 23.9 -4.0 25.3 L-1.0 25.6 Q5.2 25.45 9.2 20.15 10.8 18.05 11.85 15.4 13.5 11.65 14.15 5.85 14.5 3.15 14.35 0.3 14.6 -4.8 13.05 -9.35 L12.1 -11.8 M15.5 -19.65 Q20.55 -10.2 19.55 2.85 18.55 15.75 12.4 24.55 6.0 33.65 -2.35 33.0 -11.15 32.25 -16.2 22.3 -21.0 12.9 -20.3 -0.1 -19.6 -13.05 -13.9 -21.9 -7.95 -31.0 0.25 -30.4 10.15 -29.55 15.5 -19.65" fill="#ffb0d8" fill-rule="evenodd" stroke="none"/>
    <path d="M12.1 -11.8 L13.05 -9.35 Q14.6 -4.8 14.35 0.3 14.5 3.15 14.15 5.85 13.5 11.65 11.85 15.4 10.8 18.05 9.2 20.15 5.2 25.45 -1.0 25.6 L-4.0 25.3 Q-10.05 23.9 -12.7 17.3 L-13.75 14.4 Q-15.0 10.45 -14.95 6.0 -15.2 2.65 -14.95 -0.6 -14.6 -5.95 -13.15 -10.0 -12.2 -12.8 -10.7 -15.0 -6.55 -21.35 0.55 -20.95 9.05 -19.95 12.1 -11.8" fill="#ffdbed" fill-rule="evenodd" stroke="none"/>
  </g>
</svg>
