<?xml version="1.0" encoding="UTF-8" standalone="no"?>
<svg xmlns:xlink="http://www.w3.org/1999/xlink" height="64.65px" width="43.55px" xmlns="http://www.w3.org/2000/svg">
  <g transform="matrix(1.0, 0.0, 0.0, 1.0, 22.2, 30.6)">
    <path d="M13.85 -13.2 Q10.1 -21.45 0.4 -22.7 -7.45 -23.2 -12.35 -16.35 -14.1 -13.95 -15.3 -10.9 -17.1 -6.45 -17.6 -0.55 -17.95 3.15 -17.7 6.8 -17.6 11.75 -16.05 16.1 L-14.65 19.25 Q-11.4 26.1 -4.5 27.55 L-1.15 27.85 Q5.6 27.7 10.3 22.0 12.25 19.75 13.55 16.9 15.65 12.7 16.55 6.3 17.0 3.25 16.9 0.1 17.05 -5.6 15.1 -10.55 L13.85 -13.2 M17.15 -19.1 Q22.4 -9.45 21.05 3.8 19.7 16.85 13.0 25.65 5.9 34.85 -3.15 34.0 -12.8 33.0 -18.05 22.7 -23.0 13.05 -22.05 -0.15 -21.1 -13.25 -15.0 -22.15 -8.5 -31.35 0.35 -30.55 11.5 -29.4 17.15 -19.1" fill="#ffb0d8" fill-rule="evenodd" stroke="none"/>
    <path d="M13.85 -13.2 L15.1 -10.55 Q17.05 -5.6 16.9 0.1 17.0 3.25 16.55 6.3 15.65 12.7 13.55 16.9 12.25 19.75 10.3 22.0 5.6 27.7 -1.15 27.85 L-4.5 27.55 Q-11.4 26.1 -14.65 19.25 L-16.05 16.1 Q-17.6 11.75 -17.7 6.8 -17.95 3.15 -17.6 -0.55 -17.1 -6.45 -15.3 -10.9 -14.1 -13.95 -12.35 -16.35 -7.45 -23.2 0.4 -22.7 10.1 -21.45 13.85 -13.2" fill="#ffd4ea" fill-rule="evenodd" stroke="none"/>
  </g>
</svg>
