<?xml version="1.0" encoding="UTF-8" standalone="no"?>
<svg xmlns:xlink="http://www.w3.org/1999/xlink" height="67.05px" width="50.5px" xmlns="http://www.w3.org/2000/svg">
  <g transform="matrix(1.0, 0.0, 0.0, 1.0, 25.9, 30.95)">
    <path d="M17.4 -16.0 Q12.15 -24.5 0.05 -26.15 -9.2 -26.95 -15.6 -19.1 -17.95 -16.25 -19.6 -12.7 -22.1 -7.4 -22.95 -0.5 -23.5 4.1 -23.15 8.35 -22.85 14.35 -20.6 19.5 L-18.6 23.2 Q-14.15 30.55 -5.55 32.1 L-1.45 32.4 Q6.45 32.2 12.55 25.7 15.1 23.1 16.95 19.85 19.9 14.8 21.4 7.25 22.05 3.4 22.0 -0.3 22.0 -7.15 19.2 -12.9 L17.4 -16.0 M20.4 -18.05 Q26.1 -7.95 24.05 5.75 22.05 19.05 14.15 27.9 5.75 37.25 -4.75 35.95 -16.15 34.5 -21.8 23.5 -27.05 13.4 -25.6 -0.25 -24.15 -13.7 -17.2 -22.6 -9.65 -32.0 0.55 -30.8 14.15 -29.15 20.4 -18.05" fill="#ffb0d8" fill-rule="evenodd" stroke="none"/>
    <path d="M17.4 -16.0 L19.2 -12.9 Q22.0 -7.15 22.0 -0.3 22.05 3.4 21.4 7.25 19.9 14.8 16.95 19.85 15.1 23.1 12.55 25.7 6.45 32.2 -1.45 32.4 L-5.55 32.1 Q-14.15 30.55 -18.6 23.2 L-20.6 19.5 Q-22.85 14.35 -23.15 8.35 -23.5 4.1 -22.95 -0.5 -22.1 -7.4 -19.6 -12.7 -17.95 -16.25 -15.6 -19.1 -9.2 -26.95 0.05 -26.15 12.15 -24.5 17.4 -16.0" fill="#ffc5e3" fill-rule="evenodd" stroke="none"/>
  </g>
</svg>
