<?xml version="1.0" encoding="UTF-8" standalone="no"?>
<svg xmlns:xlink="http://www.w3.org/1999/xlink" height="486.7px" width="760.95px" xmlns="http://www.w3.org/2000/svg">
  <g transform="matrix(1.0, 0.0, 0.0, 1.0, 380.45, 243.35)">
    <path d="M268.65 73.8 L265.6 71.65 265.95 71.2 Q257.75 67.25 252.7 59.45 249.8 55.0 247.5 50.3 238.85 32.7 233.35 13.75 L230.4 3.6 Q225.95 -11.45 223.35 -26.9 222.5 -32.05 222.15 -37.2 220.8 -57.8 215.75 -77.8 216.6 -81.25 217.1 -84.7 218.4 -93.65 222.9 -101.3 L229.8 -105.55 237.65 -104.2 Q253.1 -103.05 266.75 -110.3 L272.7 -113.6 Q276.85 -116.0 278.15 -120.4 279.8 -120.05 281.1 -120.8 282.95 -121.65 283.3 -123.4 285.4 -133.3 283.8 -143.4 281.3 -159.45 271.75 -172.7 261.7 -186.75 244.45 -190.1 232.85 -192.45 221.15 -189.9 219.35 -202.7 208.8 -210.25 203.0 -214.45 195.9 -215.9 185.4 -217.95 174.9 -216.05 163.95 -214.15 154.9 -207.25 L154.65 -207.6 Q151.7 -205.15 149.4 -202.35 147.05 -199.45 145.4 -196.1 L143.8 -196.15 Q135.95 -201.3 126.8 -199.3 113.25 -196.35 100.05 -191.4 93.1 -188.75 90.15 -181.9 88.9 -178.95 89.0 -175.75 L88.95 -166.5 Q88.7 -160.5 91.9 -155.45 100.05 -142.55 114.35 -137.5 98.45 -124.4 79.3 -116.85 74.65 -115.0 69.6 -114.1 49.6 -110.1 29.5 -107.3 8.05 -104.05 -13.0 -98.55 8.35 -117.1 21.9 -132.35 48.45 -162.25 105.05 -216.5 L133.05 -243.35 380.5 -243.35 380.5 -59.9 Q373.25 -50.9 365.5 -40.6 344.1 -11.55 332.85 3.15 313.3 28.65 295.45 47.6 282.65 61.2 268.65 73.8 M-30.75 -83.65 Q-37.45 -71.0 -37.85 -56.35 -38.15 -44.35 -37.45 -32.25 -36.2 -10.05 -26.45 9.85 -21.9 19.25 -17.65 28.7 -13.0 33.5 -10.5 40.3 -7.05 49.55 -2.8 58.45 0.1 64.5 0.45 71.65 0.75 77.8 2.6 83.7 -7.95 108.4 -16.05 134.2 -22.65 155.15 -24.95 176.95 -25.45 181.55 -24.85 186.35 -22.55 205.05 -17.5 223.2 -15.4 230.85 -10.25 236.9 -8.1 239.45 -4.9 238.4 L-4.6 237.5 -3.05 239.55 -318.55 239.6 Q-312.45 229.9 -302.4 211.85 -300.35 209.7 -298.15 205.9 -296.25 202.55 -291.35 191.8 L-274.8 162.2 -269.75 153.75 Q-259.7 141.7 -243.95 125.25 -215.45 95.55 -205.95 82.15 L-202.6 77.45 -196.35 70.85 -168.95 41.65 Q-135.15 8.05 -110.75 -17.15 -99.85 -28.4 -91.45 -37.4 L-51.3 -67.45 Q-40.4 -75.8 -30.75 -83.65 M-1.65 118.35 L-0.8 116.2 -0.85 117.85 -1.65 118.35 M151.4 88.15 L150.85 88.15 150.9 87.95 151.4 88.15 M122.9 -135.5 L134.15 -135.2 Q131.9 -125.4 126.1 -117.7 L122.45 -113.5 Q123.35 -124.4 122.9 -135.5 M126.1 -107.8 L126.05 -107.7 125.8 -107.6 126.1 -107.8 M76.4 -45.35 L76.35 -44.5 75.15 -44.6 76.4 -45.35 M72.65 -48.65 Q71.95 -46.1 73.9 -44.65 L61.95 -44.35 Q61.3 -46.75 61.2 -49.1 60.9 -54.85 65.15 -58.55 80.55 -70.25 97.55 -79.55 L95.75 -76.6 Q86.7 -72.5 80.7 -64.8 75.0 -57.45 72.65 -48.65 M108.85 -6.3 L108.9 -6.2 108.85 -6.2 108.85 -6.3 M144.25 -11.1 L144.1 -10.05 143.25 -10.2 144.25 -11.1 M116.8 -95.95 L117.15 -95.2 116.35 -95.3 116.8 -95.95 M83.85 6.25 L82.35 5.75 83.85 5.45 83.85 6.25 M-380.45 -163.25 L-380.45 -167.15 -373.7 -166.6 -380.45 -163.25" fill="#eb8d46" fill-rule="evenodd" stroke="none"/>
    <path d="M204.55 -205.95 Q194.9 -211.75 183.65 -211.1 177.05 -211.2 170.6 -209.6 164.45 -207.95 159.2 -204.25 157.25 -202.9 155.0 -202.4 150.5 -197.75 148.9 -191.75 L147.3 -191.75 Q146.2 -189.15 143.35 -190.35 135.0 -193.6 125.95 -193.4 113.15 -192.9 103.35 -185.05 98.7 -181.25 96.4 -175.8 94.4 -171.0 93.55 -165.85 92.8 -157.05 100.1 -152.15 107.75 -147.05 116.2 -143.65 131.05 -137.5 146.9 -140.8 L146.55 -138.0 140.15 -135.85 Q140.1 -132.5 138.95 -129.5 L138.3 -127.9 Q137.8 -123.25 135.1 -119.7 L126.1 -107.8 125.8 -107.6 126.05 -107.7 123.35 -103.4 123.55 -101.5 122.45 -100.75 Q134.3 -86.6 151.8 -80.3 172.7 -72.95 194.85 -75.45 L208.1 -76.85 207.55 -78.1 208.65 -79.9 Q210.7 -84.9 211.1 -90.2 L211.9 -88.6 213.05 -92.65 Q215.6 -102.0 222.5 -108.3 L222.75 -108.45 221.15 -109.35 Q210.35 -116.15 205.6 -128.05 201.45 -126.8 197.15 -126.2 177.3 -124.65 158.85 -132.05 150.35 -135.55 147.5 -144.25 146.85 -147.85 147.65 -151.35 L150.55 -151.1 Q153.25 -142.65 160.55 -137.5 168.4 -131.9 178.2 -131.8 L187.65 -130.8 Q196.65 -130.0 205.6 -130.85 L205.95 -131.35 208.5 -131.5 Q214.05 -123.15 221.8 -117.0 228.55 -111.75 237.2 -110.85 251.7 -109.1 263.65 -117.35 L274.9 -125.35 276.15 -125.1 Q280.35 -136.2 276.55 -147.55 275.25 -154.45 271.4 -160.5 263.2 -173.55 249.05 -179.9 L242.85 -182.7 Q230.9 -188.05 218.15 -185.7 L217.55 -186.35 Q216.6 -187.95 216.05 -189.6 212.75 -199.65 204.55 -205.95 M-13.0 -98.55 Q8.05 -104.05 29.5 -107.3 49.6 -110.1 69.6 -114.1 74.65 -115.0 79.3 -116.85 98.45 -124.4 114.35 -137.5 100.05 -142.55 91.9 -155.45 88.7 -160.5 88.95 -166.5 L89.0 -175.75 Q88.9 -178.95 90.15 -181.9 93.1 -188.75 100.05 -191.4 113.25 -196.35 126.8 -199.3 135.95 -201.3 143.8 -196.15 L145.4 -196.1 Q147.05 -199.45 149.4 -202.35 151.7 -205.15 154.65 -207.6 L154.9 -207.25 Q163.95 -214.15 174.9 -216.05 185.4 -217.95 195.9 -215.9 203.0 -214.45 208.8 -210.25 219.35 -202.7 221.15 -189.9 232.85 -192.45 244.45 -190.1 261.7 -186.75 271.75 -172.7 281.3 -159.45 283.8 -143.4 285.4 -133.3 283.3 -123.4 282.95 -121.65 281.1 -120.8 279.8 -120.05 278.15 -120.4 276.85 -116.0 272.7 -113.6 L266.75 -110.3 Q253.1 -103.05 237.65 -104.2 L229.8 -105.55 222.9 -101.3 Q218.4 -93.65 217.1 -84.7 216.6 -81.25 215.75 -77.8 220.8 -57.8 222.15 -37.2 222.5 -32.05 223.35 -26.9 225.95 -11.45 230.4 3.6 L233.35 13.75 Q238.85 32.7 247.5 50.3 249.8 55.0 252.7 59.45 257.75 67.25 265.95 71.2 L265.6 71.65 268.65 73.8 286.25 86.05 300.15 95.9 Q318.1 108.35 329.75 126.5 337.55 138.65 345.95 150.3 353.8 161.2 356.75 174.05 358.5 182.3 363.7 197.75 367.9 210.25 367.9 220.15 367.9 225.2 367.45 227.3 366.35 232.0 362.9 232.0 360.95 232.0 359.9 231.25 359.65 232.25 357.4 232.25 357.15 232.25 346.05 218.05 L328.6 202.15 Q312.45 188.15 292.9 179.75 L288.8 178.0 Q291.35 201.3 291.0 224.8 L290.9 227.6 Q290.95 233.8 289.35 239.6 L288.7 240.1 Q288.6 242.15 287.35 243.35 L287.1 243.3 Q285.15 242.5 285.05 240.4 L284.45 239.9 283.3 215.4 Q282.3 194.3 278.15 173.7 247.6 163.25 219.55 147.05 199.3 135.3 181.65 119.75 179.25 117.6 177.6 114.9 175.9 112.2 174.85 109.1 L175.2 106.65 175.9 106.45 175.75 104.25 Q189.6 116.35 203.0 129.0 206.7 132.55 211.0 135.45 228.6 147.5 248.2 155.45 267.25 163.1 286.95 168.0 L287.25 169.25 Q303.95 176.6 319.5 185.9 L322.4 187.65 332.05 193.9 Q349.85 205.45 359.65 224.3 L360.55 221.35 Q360.7 219.45 360.4 217.65 358.4 205.15 354.75 192.95 348.35 171.5 337.95 151.75 L323.4 128.35 Q316.05 119.55 307.4 111.7 L298.55 104.3 256.4 72.15 Q253.65 70.05 251.3 67.55 240.55 55.95 236.0 40.6 L234.85 40.2 Q228.95 38.8 222.7 39.25 199.45 39.95 184.2 57.55 169.9 74.1 163.3 94.85 159.75 106.05 161.85 117.8 165.5 138.0 169.65 158.2 171.6 167.7 174.15 177.25 L174.65 177.25 Q182.1 210.45 199.7 239.5 L195.9 239.6 Q187.1 227.25 180.25 213.7 170.45 194.4 166.2 173.4 L164.0 162.6 Q159.6 141.8 157.35 120.9 155.75 106.0 159.7 91.7 165.85 69.35 182.15 52.65 193.2 41.3 208.75 37.45 221.55 34.15 234.6 35.4 L231.15 24.95 219.25 24.5 216.5 24.8 Q194.5 27.7 178.35 42.9 162.7 57.5 155.1 77.35 L150.9 87.95 150.85 88.15 151.4 88.15 Q154.6 89.95 153.75 93.1 L153.5 93.65 Q151.45 94.6 149.05 94.4 136.0 94.65 123.1 92.3 102.2 88.55 82.4 81.0 63.0 73.7 45.3 63.0 35.4 57.05 26.9 49.15 17.65 67.95 10.15 87.35 8.15 92.55 6.75 97.9 3.95 108.3 -0.85 117.85 L-0.8 116.2 -1.65 118.35 -8.35 142.8 Q-12.45 156.95 -13.95 171.55 -5.0 167.1 4.7 164.8 14.6 162.35 24.65 160.75 48.8 157.55 70.0 145.3 L68.9 142.85 67.95 143.3 68.3 142.0 Q70.65 134.4 78.65 134.0 81.75 134.1 84.35 135.4 L87.7 136.65 Q93.8 135.95 97.5 140.6 100.35 144.1 104.45 145.55 110.4 147.85 110.6 154.15 L113.7 157.25 Q119.65 163.65 120.25 172.35 L120.1 174.45 Q119.15 178.4 115.05 179.0 114.55 179.7 113.55 180.0 108.15 181.9 102.75 183.25 80.75 188.6 58.15 190.5 49.8 190.95 41.4 190.25 12.6 186.85 -14.2 175.4 L-11.35 174.45 -14.25 173.9 Q-14.95 186.55 -12.5 199.0 -8.45 219.65 -1.15 239.4 L-3.05 239.55 -4.6 237.5 -4.9 238.4 Q-8.1 239.45 -10.25 236.9 -15.4 230.85 -17.5 223.2 -22.55 205.05 -24.85 186.35 -25.45 181.55 -24.95 176.95 -22.65 155.15 -16.05 134.2 -7.95 108.4 2.6 83.7 0.75 77.8 0.45 71.65 0.1 64.5 -2.8 58.45 -7.05 49.55 -10.5 40.3 -13.0 33.5 -17.65 28.7 -21.9 19.25 -26.45 9.85 -36.2 -10.05 -37.45 -32.25 -38.15 -44.35 -37.85 -56.35 -37.45 -71.0 -30.75 -83.65 -29.95 -85.15 -28.7 -86.45 -22.85 -94.2 -13.0 -98.55 M115.9 -126.65 L114.95 -127.9 114.55 -128.05 Q107.45 -125.8 101.65 -121.2 97.95 -118.2 93.65 -115.9 L82.25 -109.85 Q78.95 -108.15 75.4 -107.05 54.95 -100.85 33.75 -98.05 13.4 -95.05 -6.5 -89.5 -18.3 -86.25 -27.1 -77.65 -28.55 -75.9 -29.15 -73.25 L-29.25 -72.6 Q-33.2 -51.1 -30.05 -29.5 -26.9 -7.9 -18.2 11.9 L-16.5 15.1 Q-5.4 32.8 3.35 51.8 5.15 55.65 6.0 59.8 L8.15 70.2 8.4 71.25 9.5 69.05 11.0 66.25 11.65 65.0 15.6 56.9 Q27.65 26.5 47.6 0.7 39.2 -4.4 36.3 -13.65 35.85 -15.15 35.95 -16.65 36.65 -28.6 45.65 -36.6 L54.65 -42.3 Q53.0 -51.8 58.7 -59.6 65.45 -68.85 74.65 -75.65 81.85 -81.05 90.0 -84.8 100.35 -89.55 108.2 -98.25 110.95 -101.25 112.45 -104.55 117.25 -115.0 115.9 -126.65 M72.7 -87.0 Q75.95 -84.0 74.75 -79.6 L74.3 -78.15 73.8 -78.05 72.55 -82.05 Q69.05 -81.8 65.7 -82.75 62.7 -84.45 65.3 -86.55 L66.4 -87.25 Q65.45 -86.65 65.1 -84.6 L71.6 -83.05 Q72.6 -82.25 72.6 -83.5 72.6 -84.6 71.3 -85.7 70.9 -87.0 69.2 -87.1 67.75 -87.85 66.85 -87.5 69.55 -88.8 72.7 -87.0 M122.9 -135.5 Q123.35 -124.4 122.45 -113.5 L126.1 -117.7 Q131.9 -125.4 134.15 -135.2 L122.9 -135.5 M76.35 -44.5 Q88.0 -46.1 99.3 -42.95 123.35 -36.0 137.5 -15.05 L139.25 -14.85 139.95 -14.65 140.55 -14.15 141.1 -13.65 Q145.75 -18.75 149.0 -25.0 150.5 -27.95 150.95 -31.1 153.4 -48.6 144.95 -64.3 142.05 -69.7 136.85 -72.95 135.7 -73.7 134.4 -73.95 123.8 -76.65 114.65 -70.35 110.5 -73.45 105.35 -73.5 97.5 -73.55 91.4 -68.5 80.25 -59.25 76.4 -45.35 L75.15 -44.6 76.35 -44.5 M72.65 -48.65 Q75.0 -57.45 80.7 -64.8 86.7 -72.5 95.75 -76.6 L97.55 -79.55 Q80.55 -70.25 65.15 -58.55 60.9 -54.85 61.2 -49.1 61.3 -46.75 61.95 -44.35 L73.9 -44.65 Q71.95 -46.1 72.65 -48.65 M42.5 -24.45 Q41.3 -22.95 40.65 -21.05 39.55 -18.05 41.1 -15.4 49.55 -0.65 66.75 0.3 88.6 1.35 108.85 -6.3 L108.85 -6.2 108.9 -6.2 112.55 -6.85 112.8 -7.2 Q122.5 -9.4 131.05 -4.35 135.7 8.65 130.85 21.6 129.75 24.45 126.8 23.9 L126.6 23.45 124.75 23.4 124.45 23.85 Q101.7 24.2 82.55 11.85 90.85 22.35 103.05 27.7 116.45 33.7 130.2 29.8 132.35 29.25 133.95 27.7 L134.3 27.2 134.95 26.05 Q138.9 18.6 139.25 9.95 L139.35 7.75 Q139.8 -0.65 137.1 -8.6 L136.9 -9.35 136.25 -9.45 Q128.9 -18.05 120.75 -26.2 117.8 -29.15 114.2 -31.25 100.8 -39.05 85.45 -40.65 L79.8 -40.4 Q64.65 -38.55 51.05 -31.6 45.2 -28.25 42.5 -24.45 M158.55 -81.85 Q158.55 -83.05 162.35 -85.8 166.25 -88.6 168.3 -88.6 172.7 -88.6 171.6 -85.6 171.6 -83.75 170.3 -83.05 167.8 -81.85 158.8 -81.3 158.55 -80.6 158.55 -81.85 M107.2 -77.1 Q110.4 -77.0 113.1 -75.15 L115.85 -73.0 Q121.2 -78.7 129.05 -78.65 137.05 -78.55 142.95 -73.0 153.1 -63.55 155.3 -49.9 157.1 -39.05 156.05 -28.05 155.9 -26.35 155.15 -24.85 151.15 -16.95 144.25 -11.1 L143.25 -10.2 142.7 -9.75 Q146.0 8.9 139.95 26.6 138.4 31.15 134.35 33.85 L134.5 45.95 Q134.3 67.15 139.95 87.4 L144.2 87.7 Q145.15 82.75 147.4 78.1 156.15 60.2 169.9 45.6 174.4 40.85 179.5 36.35 196.25 21.2 218.9 20.3 L229.55 20.15 221.7 -3.6 Q220.5 -7.0 219.8 -10.5 215.7 -30.4 214.1 -50.85 213.25 -61.75 209.35 -71.75 L203.25 -71.0 203.1 -71.0 196.65 -70.6 187.4 -70.25 Q165.5 -69.65 144.8 -76.25 131.45 -80.45 121.05 -89.85 119.55 -91.3 118.35 -92.85 118.1 -94.3 116.55 -94.3 115.9 -94.3 110.1 -87.3 104.3 -80.3 104.3 -79.45 104.3 -78.5 105.05 -78.0 L104.5 -77.25 107.2 -77.1 M203.55 -35.6 Q202.3 -35.55 201.45 -36.35 197.75 -40.0 193.2 -42.35 L193.45 -42.8 Q196.75 -46.25 201.6 -44.55 206.25 -43.5 206.2 -38.8 206.2 -35.85 203.55 -35.6 M116.8 -95.95 L116.35 -95.3 117.15 -95.2 116.8 -95.95 M110.4 -50.75 L110.45 -45.85 Q109.9 -42.35 106.9 -42.35 103.15 -42.35 102.4 -46.6 L102.4 -51.1 Q102.4 -55.55 102.65 -56.35 103.45 -59.1 106.9 -59.1 111.65 -59.1 110.4 -50.75 M119.65 -47.5 Q119.65 -58.35 124.9 -58.35 129.9 -58.35 130.15 -42.1 130.15 -39.85 129.65 -39.1 128.6 -37.6 124.9 -37.6 L120.65 -38.1 Q119.65 -45.0 119.65 -47.5 M129.35 0.6 L127.8 -3.35 Q121.4 -2.7 115.15 -1.3 107.4 0.25 99.85 2.55 91.95 4.55 84.6 5.5 L83.85 5.45 82.35 5.75 83.85 6.25 89.15 9.55 Q103.4 18.8 120.4 20.2 L127.75 19.75 Q130.15 15.1 130.5 9.9 L123.4 9.85 Q119.8 9.8 116.25 9.9 111.8 10.0 108.45 7.05 L108.7 6.7 130.75 7.4 130.75 6.5 Q130.75 3.4 129.35 0.6 M169.7 -86.65 L166.6 -86.7 163.3 -83.85 166.05 -83.6 Q170.55 -83.55 170.35 -86.35 L169.7 -86.65 M203.4 -41.95 Q200.75 -43.75 197.6 -43.6 L199.25 -42.35 203.2 -37.6 204.7 -39.3 204.1 -40.95 203.4 -41.95 M226.15 15.75 L226.25 14.85 226.35 16.15 226.15 15.75 M122.1 36.3 L117.0 35.65 Q111.1 35.7 105.7 33.5 87.55 25.9 74.85 10.7 L69.45 17.95 Q55.35 35.55 39.6 51.3 L39.05 53.1 Q50.0 61.7 62.9 66.9 74.4 71.6 85.0 77.65 87.35 79.05 89.95 79.7 111.3 85.95 133.7 86.9 125.45 61.7 130.25 35.45 126.2 36.85 122.1 36.3 M31.6 47.1 L36.8 51.05 34.9 49.5 Q50.85 25.7 72.3 7.0 L71.9 6.4 70.9 6.4 Q64.65 6.55 58.55 5.1 L51.75 2.9 Q51.6 7.1 49.2 10.8 42.45 21.0 36.0 31.2 31.9 37.65 29.2 44.9 L31.6 47.1 M80.1 146.65 Q83.0 146.7 83.95 149.1 L85.2 152.35 86.45 155.4 Q90.0 155.65 92.05 158.65 93.7 160.95 93.95 163.9 98.45 166.95 100.65 171.8 101.55 173.75 103.65 174.7 107.75 176.55 112.15 175.8 115.15 175.15 117.0 172.9 110.45 161.05 102.35 150.0 97.15 148.1 93.15 144.15 91.85 142.85 90.1 142.2 87.25 141.05 84.2 141.35 L80.95 139.05 Q79.1 137.8 76.7 138.2 L75.2 138.75 72.85 142.5 Q75.4 146.6 80.1 146.65 M71.4 146.65 Q64.25 153.05 55.15 156.25 58.95 157.4 60.1 161.05 60.7 163.0 60.15 165.05 56.55 166.1 53.1 167.85 51.35 168.7 50.05 170.2 48.3 170.35 46.9 169.2 46.3 168.7 45.55 168.45 L44.75 168.45 Q45.4 162.5 49.75 158.15 33.95 161.95 17.85 164.35 L8.1 166.15 Q-1.55 168.6 -10.75 172.3 -4.75 172.45 0.4 175.8 3.45 177.8 6.75 179.4 23.7 187.7 42.6 187.7 L71.1 186.75 Q90.35 183.95 109.35 179.45 100.4 179.7 95.75 171.85 L96.35 171.5 89.3 164.45 Q89.7 162.2 88.75 160.3 84.5 159.0 81.6 156.1 L81.35 155.4 Q81.5 151.85 79.3 149.05 77.35 147.25 74.5 147.35 L71.4 146.65 M31.05 170.65 L26.2 169.65 25.8 170.35 25.3 170.45 25.45 169.7 Q21.75 169.35 21.6 173.2 23.25 173.75 25.1 173.25 L28.35 172.4 31.2 174.0 31.1 170.75 31.1 170.65 31.05 170.65 M30.65 168.45 L31.45 168.7 Q33.5 169.5 32.85 171.85 33.0 174.15 31.15 175.5 L30.1 176.2 28.0 174.35 Q24.1 174.85 20.4 173.8 20.15 169.1 24.65 168.45 L30.65 168.45 M19.15 176.7 Q25.85 176.7 28.8 178.45 L30.3 179.1 35.8 179.45 Q54.6 179.45 70.55 177.65 L77.0 176.85 76.6 175.25 Q76.6 173.1 77.55 172.2 L78.15 172.65 Q80.9 172.4 81.85 171.05 82.8 169.7 87.3 169.7 92.15 169.7 92.3 175.9 92.3 180.2 90.55 180.2 84.4 180.2 83.85 179.4 83.05 178.15 81.35 177.4 L78.35 177.85 78.35 178.15 77.55 178.7 77.35 178.0 Q51.45 181.9 47.55 181.9 24.6 181.9 17.8 176.9 L19.15 176.7 M49.1 168.45 Q51.05 167.2 52.5 165.45 54.65 166.45 56.9 166.0 59.35 164.6 58.4 161.75 57.25 158.2 53.35 158.2 50.55 158.2 48.8 160.65 L49.85 162.9 47.05 167.2 49.1 168.45 M78.35 176.65 L85.85 175.75 84.05 176.4 Q86.35 180.2 90.45 178.2 91.35 174.65 88.5 172.1 86.0 170.45 83.5 172.1 L82.75 172.7 82.8 173.7 82.4 173.9 78.35 173.2 78.35 176.65 M183.65 216.75 L182.9 216.05 183.15 216.5 183.65 216.75" fill="#000000" fill-rule="evenodd" stroke="none"/>
    <path d="M93.55 -165.85 Q94.4 -171.0 96.4 -175.8 98.7 -181.25 103.35 -185.05 113.15 -192.9 125.95 -193.4 135.0 -193.6 143.35 -190.35 146.2 -189.15 147.3 -191.75 L148.9 -191.75 Q150.5 -197.75 155.0 -202.4 157.25 -202.9 159.2 -204.25 164.45 -207.95 170.6 -209.6 177.05 -211.2 183.65 -211.1 194.9 -211.75 204.55 -205.95 208.15 -203.0 210.3 -198.05 L215.05 -185.35 Q215.75 -185.35 217.55 -186.35 L218.15 -185.7 Q230.9 -188.05 242.85 -182.7 L249.05 -179.9 Q263.2 -173.55 271.4 -160.5 275.25 -154.45 276.55 -147.55 275.65 -132.25 263.65 -122.8 260.1 -119.95 255.65 -118.65 243.1 -114.95 230.55 -119.05 220.5 -122.2 215.55 -131.55 219.2 -132.85 222.4 -135.15 L223.2 -138.65 Q221.8 -139.9 220.15 -139.3 212.25 -136.3 204.0 -134.85 196.8 -133.45 189.65 -134.2 167.75 -137.15 150.55 -151.1 L147.65 -151.35 Q146.85 -147.85 147.5 -144.25 127.25 -140.15 109.1 -150.1 98.9 -155.7 94.1 -166.05 L93.55 -165.85 M138.3 -127.9 Q144.75 -130.0 150.1 -134.05 L151.4 -135.05 Q161.55 -124.5 175.75 -121.0 189.2 -117.85 202.95 -119.75 L210.95 -111.15 Q200.05 -94.35 194.05 -75.4 L194.85 -75.45 Q172.7 -72.95 151.8 -80.3 134.3 -86.6 122.45 -100.75 L123.55 -101.5 123.35 -103.4 126.05 -107.7 126.1 -107.8 135.1 -119.7 Q137.8 -123.25 138.3 -127.9 M222.5 -108.3 L221.15 -109.35 222.75 -108.45 222.5 -108.3 M71.3 -85.7 L69.3 -85.6 Q68.15 -86.15 66.8 -86.15 L69.2 -87.1 Q70.9 -87.0 71.3 -85.7 M76.35 -44.5 L76.4 -45.35 Q80.25 -59.25 91.4 -68.5 97.5 -73.55 105.35 -73.5 110.5 -73.45 114.65 -70.35 123.8 -76.65 134.4 -73.95 135.7 -73.7 136.85 -72.95 142.05 -69.7 144.95 -64.3 153.4 -48.6 150.95 -31.1 150.5 -27.95 149.0 -25.0 145.75 -18.75 141.1 -13.65 L140.55 -14.15 139.95 -14.65 139.25 -14.85 137.5 -15.05 Q123.35 -36.0 99.3 -42.95 88.0 -46.1 76.35 -44.5 M158.55 -81.85 Q158.55 -80.6 158.8 -81.3 167.8 -81.85 170.3 -83.05 171.6 -83.75 171.6 -85.6 172.7 -88.6 168.3 -88.6 166.25 -88.6 162.35 -85.8 158.55 -83.05 158.55 -81.85 M119.65 -47.5 Q119.65 -45.0 120.65 -38.1 L124.9 -37.6 Q128.6 -37.6 129.65 -39.1 130.15 -39.85 130.15 -42.1 129.9 -58.35 124.9 -58.35 119.65 -58.35 119.65 -47.5 M110.4 -50.75 Q111.65 -59.1 106.9 -59.1 103.45 -59.1 102.65 -56.35 102.4 -55.55 102.4 -51.1 L102.4 -46.6 Q103.15 -42.35 106.9 -42.35 109.9 -42.35 110.45 -45.85 L110.4 -50.75 M99.85 2.55 L105.6 2.7 118.3 1.95 Q123.95 2.4 129.35 0.6 130.75 3.4 130.75 6.5 L130.75 7.4 108.7 6.7 108.45 7.05 Q111.8 10.0 116.25 9.9 119.8 9.8 123.4 9.85 L130.5 9.9 Q130.15 15.1 127.75 19.75 L120.4 20.2 Q103.4 18.8 89.15 9.55 L83.85 6.25 83.85 5.45 84.6 5.5 Q91.95 4.55 99.85 2.55 M166.6 -86.7 L169.7 -86.65 Q167.8 -85.6 166.2 -85.6 L166.6 -86.7 M204.1 -40.95 L204.15 -40.45 Q204.15 -38.85 202.9 -38.85 202.4 -38.85 202.05 -39.35 202.8 -39.9 202.8 -40.35 201.85 -41.3 202.05 -41.85 L202.55 -42.1 203.4 -41.95 204.1 -40.95 M122.1 36.3 Q126.2 36.85 130.25 35.45 125.45 61.7 133.7 86.9 111.3 85.95 89.95 79.7 87.35 79.05 85.0 77.65 74.4 71.6 62.9 66.9 50.0 61.7 39.05 53.1 L39.6 51.3 Q55.35 35.55 69.45 17.95 L74.85 10.7 Q87.55 25.9 105.7 33.5 111.1 35.7 117.0 35.65 L122.1 36.3" fill="#ffffff" fill-rule="evenodd" stroke="none"/>
    <path d="M93.55 -165.85 L94.1 -166.05 Q98.9 -155.7 109.1 -150.1 127.25 -140.15 147.5 -144.25 150.35 -135.55 158.85 -132.05 177.3 -124.65 197.15 -126.2 201.45 -126.8 205.6 -128.05 210.35 -116.15 221.15 -109.35 L222.5 -108.3 Q215.6 -102.0 213.05 -92.65 L211.9 -88.6 211.1 -90.2 Q210.7 -84.9 208.65 -79.9 L207.55 -78.1 208.1 -76.85 194.85 -75.45 194.05 -75.4 Q200.05 -94.35 210.95 -111.15 L202.95 -119.75 Q189.2 -117.85 175.75 -121.0 161.55 -124.5 151.4 -135.05 L150.1 -134.05 Q144.75 -130.0 138.3 -127.9 L138.95 -129.5 Q140.1 -132.5 140.15 -135.85 L146.55 -138.0 146.9 -140.8 Q131.05 -137.5 116.2 -143.65 107.75 -147.05 100.1 -152.15 92.8 -157.05 93.55 -165.85 M150.55 -151.1 Q167.75 -137.15 189.65 -134.2 196.8 -133.45 204.0 -134.85 212.25 -136.3 220.15 -139.3 221.8 -139.9 223.2 -138.65 L222.4 -135.15 Q219.2 -132.85 215.55 -131.55 220.5 -122.2 230.55 -119.05 243.1 -114.95 255.65 -118.65 260.1 -119.95 263.65 -122.8 275.65 -132.25 276.55 -147.55 280.35 -136.2 276.15 -125.1 L274.9 -125.35 263.65 -117.35 Q251.7 -109.1 237.2 -110.85 228.55 -111.75 221.8 -117.0 214.05 -123.15 208.5 -131.5 L205.95 -131.35 205.6 -130.85 Q196.65 -130.0 187.65 -130.8 L178.2 -131.8 Q168.4 -131.9 160.55 -137.5 153.25 -142.65 150.55 -151.1 M217.55 -186.35 Q215.75 -185.35 215.05 -185.35 L210.3 -198.05 Q208.15 -203.0 204.55 -205.95 212.75 -199.65 216.05 -189.6 216.6 -187.95 217.55 -186.35 M99.85 2.55 Q107.4 0.25 115.15 -1.3 121.4 -2.7 127.8 -3.35 L129.35 0.6 Q123.95 2.4 118.3 1.95 L105.6 2.7 99.85 2.55" fill="#cdcdcd" fill-rule="evenodd" stroke="none"/>
    <path d="M133.05 -243.35 L105.05 -216.5 Q48.45 -162.25 21.9 -132.35 8.35 -117.1 -13.0 -98.55 -22.85 -94.2 -28.7 -86.45 -29.95 -85.15 -30.75 -83.65 -40.4 -75.8 -51.3 -67.45 L-91.45 -37.4 Q-99.85 -28.4 -110.75 -17.15 -135.15 8.05 -168.95 41.65 L-196.35 70.85 -202.6 77.45 -205.95 82.15 Q-215.45 95.55 -243.95 125.25 -259.7 141.7 -269.75 153.75 L-274.8 162.2 -291.35 191.8 Q-296.25 202.55 -298.15 205.9 -300.35 209.7 -302.4 211.85 -312.45 229.9 -318.55 239.6 L-377.1 239.6 -376.45 237.25 -380.45 235.8 -380.45 49.75 -377.55 43.6 Q-357.95 2.65 -353.2 -4.1 -312.45 -62.55 -276.7 -103.85 -256.8 -126.9 -226.55 -158.4 -192.35 -194.0 -160.55 -223.95 L-139.5 -243.35 133.05 -243.35 M-191.45 -120.35 Q-182.7 -127.35 -179.95 -130.85 -180.4 -132.15 -180.95 -131.6 L-191.45 -120.35 M-165.2 -99.6 Q-160.55 -103.3 -154.85 -109.6 L-155.1 -109.35 Q-163.35 -103.1 -164.95 -100.35 L-165.2 -99.6 M-202.5 -107.0 L-206.45 -102.1 Q-203.05 -104.8 -202.5 -107.0 M-284.2 8.9 Q-300.35 36.0 -303.45 42.65 -298.5 35.25 -283.95 8.65 L-284.2 8.9 M-277.7 53.4 L-274.95 49.65 -275.7 49.9 -277.7 53.4" fill="#f59750" fill-rule="evenodd" stroke="none"/>
    <path d="M199.7 239.5 Q182.1 210.45 174.65 177.25 L174.15 177.25 Q171.6 167.7 169.65 158.2 165.5 138.0 161.85 117.8 159.75 106.05 163.3 94.85 169.9 74.1 184.2 57.55 199.45 39.95 222.7 39.25 223.85 43.75 225.45 48.2 228.85 57.65 235.15 65.45 242.45 74.4 250.85 81.95 252.55 83.45 254.55 84.35 259.85 86.95 264.2 90.7 L281.6 105.05 Q291.4 112.8 300.35 121.7 L309.5 130.5 Q316.95 137.4 322.3 145.8 334.0 164.25 344.55 183.35 354.55 201.55 360.55 221.35 L359.65 224.3 Q349.85 205.45 332.05 193.9 L322.4 187.65 321.3 186.4 319.5 185.9 Q303.95 176.6 287.25 169.25 L286.95 168.0 Q267.25 163.1 248.2 155.45 228.6 147.5 211.0 135.45 206.7 132.55 203.0 129.0 189.6 116.35 175.75 104.25 L175.9 106.45 175.2 106.65 174.85 109.1 Q176.55 118.8 181.95 127.6 191.95 143.75 204.9 157.75 228.55 183.35 257.75 202.5 L257.65 204.35 Q257.0 221.8 258.0 239.35 L255.05 239.6 201.8 239.6 199.7 239.5 M114.55 -128.05 L114.95 -127.9 115.9 -126.65 Q114.0 -111.6 101.5 -102.7 99.35 -101.15 96.95 -100.25 84.1 -94.9 72.7 -87.0 69.55 -88.8 66.85 -87.5 L66.4 -87.25 65.3 -86.55 Q62.7 -84.45 65.7 -82.75 41.9 -67.6 41.9 -57.5 L43.2 -45.25 Q44.2 -39.55 45.65 -36.6 36.65 -28.6 35.95 -16.65 35.85 -15.15 36.3 -13.65 39.2 -4.4 47.6 0.7 27.65 26.5 15.6 56.9 16.55 50.5 14.3 44.45 9.1 30.3 1.9 16.95 -0.55 12.35 -2.2 7.65 -9.2 -12.4 -10.75 -33.65 -11.95 -50.15 -8.2 -66.4 L-5.6 -77.2 Q-4.8 -80.5 -2.85 -83.4 22.4 -92.55 48.9 -97.75 64.5 -101.0 79.7 -105.85 92.65 -110.1 104.6 -116.4 112.0 -120.2 114.55 -128.05 M11.65 65.0 L11.0 66.25 11.5 64.6 11.65 65.0 M9.5 69.05 L8.4 71.25 8.15 70.2 9.5 69.05 M-29.25 -72.6 L-29.15 -73.25 Q-28.55 -75.9 -27.1 -77.65 L-29.25 -72.6 M144.25 -11.1 Q151.15 -16.95 155.15 -24.85 155.9 -26.35 156.05 -28.05 157.1 -39.05 155.3 -49.9 153.1 -63.55 142.95 -73.0 137.05 -78.55 129.05 -78.65 121.2 -78.7 115.85 -73.0 L113.1 -75.15 Q110.4 -77.0 107.2 -77.1 L121.05 -89.85 Q131.45 -80.45 144.8 -76.25 165.5 -69.65 187.4 -70.25 L196.65 -70.6 Q196.3 -67.7 197.45 -63.75 200.1 -54.3 201.6 -44.55 196.75 -46.25 193.45 -42.8 L193.2 -42.35 Q197.75 -40.0 201.45 -36.35 202.3 -35.55 203.55 -35.6 L212.6 1.5 Q214.85 11.2 218.9 20.3 196.25 21.2 179.5 36.35 174.4 40.85 169.9 45.6 156.15 60.2 147.4 78.1 145.15 82.75 144.2 87.7 L139.95 87.4 Q134.3 67.15 134.5 45.95 L134.35 33.85 Q138.4 31.15 139.95 26.6 146.0 8.9 142.7 -9.75 L143.25 -10.2 144.1 -10.05 144.25 -11.1 M203.25 -71.0 L203.25 -70.85 203.1 -71.0 203.25 -71.0 M58.55 5.1 Q64.65 6.55 70.9 6.4 L71.9 6.4 72.3 7.0 Q50.85 25.7 34.9 49.5 L36.8 51.05 31.6 47.1 Q39.2 36.1 51.7 16.15 L58.55 5.1" fill="#0098cc" fill-rule="evenodd" stroke="none"/>
    <path d="M15.6 56.9 L11.65 65.0 11.5 64.6 11.0 66.25 9.5 69.05 8.15 70.2 6.0 59.8 Q5.15 55.65 3.35 51.8 -5.4 32.8 -16.5 15.1 L-18.2 11.9 Q-26.9 -7.9 -30.05 -29.5 -33.2 -51.1 -29.25 -72.6 L-27.1 -77.65 Q-18.3 -86.25 -6.5 -89.5 13.4 -95.05 33.75 -98.05 54.95 -100.85 75.4 -107.05 78.95 -108.15 82.25 -109.85 L93.65 -115.9 Q97.95 -118.2 101.65 -121.2 107.45 -125.8 114.55 -128.05 112.0 -120.2 104.6 -116.4 92.65 -110.1 79.7 -105.85 64.5 -101.0 48.9 -97.75 22.4 -92.55 -2.85 -83.4 -4.8 -80.5 -5.6 -77.2 L-8.2 -66.4 Q-11.95 -50.15 -10.75 -33.65 -9.2 -12.4 -2.2 7.65 -0.55 12.35 1.9 16.95 9.1 30.3 14.3 44.45 16.55 50.5 15.6 56.9 M121.05 -89.85 L107.2 -77.1 104.5 -77.25 105.05 -78.0 Q104.3 -78.5 104.3 -79.45 104.3 -80.3 110.1 -87.3 115.9 -94.3 116.55 -94.3 118.1 -94.3 118.35 -92.85 119.55 -91.3 121.05 -89.85 M58.55 5.1 L51.7 16.15 Q39.2 36.1 31.6 47.1 L29.2 44.9 Q31.9 37.65 36.0 31.2 42.45 21.0 49.2 10.8 51.6 7.1 51.75 2.9 L58.55 5.1" fill="#23bbef" fill-rule="evenodd" stroke="none"/>
    <path d="M222.7 39.25 Q228.95 38.8 234.85 40.2 L236.0 40.6 Q240.55 55.95 251.3 67.55 253.65 70.05 256.4 72.15 L298.55 104.3 307.4 111.7 Q316.05 119.55 323.4 128.35 L337.95 151.75 Q348.35 171.5 354.75 192.95 358.4 205.15 360.4 217.65 360.7 219.45 360.55 221.35 354.55 201.55 344.55 183.35 334.0 164.25 322.3 145.8 316.95 137.4 309.5 130.5 L300.35 121.7 Q291.4 112.8 281.6 105.05 L264.2 90.7 Q259.85 86.95 254.55 84.35 252.55 83.45 250.85 81.95 242.45 74.4 235.15 65.45 228.85 57.65 225.45 48.2 223.85 43.75 222.7 39.25 M174.85 109.1 Q175.9 112.2 177.6 114.9 179.25 117.6 181.65 119.75 199.3 135.3 219.55 147.05 247.6 163.25 278.15 173.7 282.3 194.3 283.3 215.4 L284.45 239.9 275.7 239.55 275.7 239.5 275.6 239.55 258.0 239.35 Q257.0 221.8 257.65 204.35 L257.75 202.5 Q228.55 183.35 204.9 157.75 191.95 143.75 181.95 127.6 176.55 118.8 174.85 109.1 M115.9 -126.65 Q117.25 -115.0 112.45 -104.55 110.95 -101.25 108.2 -98.25 100.35 -89.55 90.0 -84.8 81.85 -81.05 74.65 -75.65 65.45 -68.85 58.7 -59.6 53.0 -51.8 54.65 -42.3 L45.65 -36.6 Q44.2 -39.55 43.2 -45.25 L41.9 -57.5 Q41.9 -67.6 65.7 -82.75 69.05 -81.8 72.55 -82.05 L73.8 -78.05 74.3 -78.15 74.75 -79.6 Q75.95 -84.0 72.7 -87.0 84.1 -94.9 96.95 -100.25 99.35 -101.15 101.5 -102.7 114.0 -111.6 115.9 -126.65 M218.9 20.3 Q214.85 11.2 212.6 1.5 L203.55 -35.6 Q206.2 -35.85 206.2 -38.8 206.25 -43.5 201.6 -44.55 200.1 -54.3 197.45 -63.75 196.3 -67.7 196.65 -70.6 L203.1 -71.0 203.25 -70.85 203.25 -71.0 209.35 -71.75 Q213.25 -61.75 214.1 -50.85 215.7 -30.4 219.8 -10.5 220.5 -7.0 221.7 -3.6 L229.55 20.15 218.9 20.3 M226.15 15.75 L226.35 16.15 226.25 14.85 226.15 15.75" fill="#00669a" fill-rule="evenodd" stroke="none"/>
    <path d="M66.85 -87.5 Q67.75 -87.85 69.2 -87.1 L66.8 -86.15 Q68.15 -86.15 69.3 -85.6 L71.3 -85.7 Q72.6 -84.6 72.6 -83.5 72.6 -82.25 71.6 -83.05 L65.1 -84.6 Q65.45 -86.65 66.4 -87.25 L66.85 -87.5 M169.7 -86.65 L170.35 -86.35 Q170.55 -83.55 166.05 -83.6 L163.3 -83.85 166.6 -86.7 166.2 -85.6 Q167.8 -85.6 169.7 -86.65 M204.1 -40.95 L204.7 -39.3 203.2 -37.6 199.25 -42.35 197.6 -43.6 Q200.75 -43.75 203.4 -41.95 L202.55 -42.1 202.05 -41.85 Q201.85 -41.3 202.8 -40.35 202.8 -39.9 202.05 -39.35 202.4 -38.85 202.9 -38.85 204.15 -38.85 204.15 -40.45 L204.1 -40.95" fill="#33ccff" fill-rule="evenodd" stroke="none"/>
    <path d="M108.85 -6.3 Q88.6 1.35 66.75 0.3 49.55 -0.65 41.1 -15.4 39.55 -18.05 40.65 -21.05 41.3 -22.95 42.5 -24.45 L43.8 -20.0 Q52.65 -12.2 63.95 -9.45 73.65 -7.05 83.5 -7.85 96.35 -8.55 109.4 -8.6 L116.55 -8.5 121.95 -8.7 Q130.1 -8.2 134.05 -1.25 138.45 0.5 138.75 5.6 138.9 8.75 139.25 9.95 138.9 18.6 134.95 26.05 L134.3 27.2 133.6 27.45 133.95 27.7 Q132.35 29.25 130.2 29.8 116.45 33.7 103.05 27.7 90.85 22.35 82.55 11.85 101.7 24.2 124.45 23.85 L124.75 23.4 126.6 23.45 126.8 23.9 Q129.75 24.45 130.85 21.6 135.7 8.65 131.05 -4.35 122.5 -9.4 112.8 -7.2 L112.55 -6.85 108.9 -6.2 108.85 -6.3" fill="#f99108" fill-rule="evenodd" stroke="none"/>
    <path d="M133.95 27.7 L133.6 27.45 134.3 27.2 133.95 27.7 M139.25 9.95 Q138.9 8.75 138.75 5.6 138.45 0.5 134.05 -1.25 130.1 -8.2 121.95 -8.7 L116.55 -8.5 109.4 -8.6 Q96.35 -8.55 83.5 -7.85 73.65 -7.05 63.95 -9.45 52.65 -12.2 43.8 -20.0 L42.5 -24.45 Q45.2 -28.25 51.05 -31.6 72.45 -31.75 93.75 -29.4 102.95 -28.1 111.45 -24.6 125.5 -18.85 137.1 -8.6 139.8 -0.65 139.35 7.75 L139.25 9.95" fill="#ffb309" fill-rule="evenodd" stroke="none"/>
    <path d="M51.05 -31.6 Q64.65 -38.55 79.8 -40.4 L85.45 -40.65 Q100.8 -39.05 114.2 -31.25 117.8 -29.15 120.75 -26.2 128.9 -18.05 136.25 -9.45 L136.9 -9.35 137.1 -8.6 Q125.5 -18.85 111.45 -24.6 102.95 -28.1 93.75 -29.4 72.45 -31.75 51.05 -31.6" fill="#ffdc31" fill-rule="evenodd" stroke="none"/>
    <path d="M268.65 73.8 Q282.65 61.2 295.45 47.6 313.3 28.65 332.85 3.15 344.1 -11.55 365.5 -40.6 373.25 -50.9 380.5 -59.9 L380.5 142.75 Q372.2 155.3 356.75 174.05 353.8 161.2 345.95 150.3 337.55 138.65 329.75 126.5 318.1 108.35 300.15 95.9 L286.25 86.05 268.65 73.8 M322.4 187.65 L319.5 185.9 321.3 186.4 322.4 187.65 M291.0 224.8 Q291.35 201.3 288.8 178.0 L292.9 179.75 Q312.45 188.15 328.6 202.15 L323.9 205.8 Q308.8 217.5 291.0 224.8 M183.65 216.75 L183.15 216.5 182.9 216.05 183.65 216.75" fill="#d67831" fill-rule="evenodd" stroke="none"/>
    <path d="M289.35 239.6 Q290.95 233.8 290.9 227.6 L291.0 224.8 Q308.8 217.5 323.9 205.8 L328.6 202.15 346.05 218.05 Q357.15 232.25 357.4 232.25 359.65 232.25 359.9 231.25 360.95 232.0 362.9 232.0 366.35 232.0 367.45 227.3 367.9 225.2 367.9 220.15 367.9 210.25 363.7 197.75 358.5 182.3 356.75 174.05 372.2 155.3 380.5 142.75 L380.5 239.6 289.35 239.6 M275.6 239.55 L275.7 239.5 275.7 239.55 275.6 239.55" fill="#c76922" fill-rule="evenodd" stroke="none"/>
    <path d="M149.05 94.4 Q151.45 94.6 153.5 93.65 L153.75 93.1 Q154.6 89.95 151.4 88.15 L150.9 87.95 155.1 77.35 Q159.5 68.6 165.4 60.75 171.8 52.3 180.6 46.3 198.4 34.15 219.0 27.85 L219.25 24.5 231.15 24.95 234.6 35.4 Q221.55 34.15 208.75 37.45 193.2 41.3 182.15 52.65 165.85 69.35 159.7 91.7 155.75 106.0 157.35 120.9 159.6 141.8 164.0 162.6 L166.2 173.4 Q170.45 194.4 180.25 213.7 187.1 227.25 195.9 239.6 L80.75 239.6 Q96.9 224.55 109.15 206.45 121.2 188.65 129.85 168.95 136.15 154.6 140.45 139.35 L143.5 128.8 Q148.55 111.95 149.05 94.4" fill="#a90000" fill-rule="evenodd" stroke="none"/>
    <path d="M-1.15 239.4 Q-8.45 219.65 -12.5 199.0 -14.95 186.55 -14.25 173.9 L-11.35 174.45 -14.2 175.4 Q12.6 186.85 41.4 190.25 49.8 190.95 58.15 190.5 80.75 188.6 102.75 183.25 108.15 181.9 113.55 180.0 114.55 179.7 115.05 179.0 119.15 178.4 120.1 174.45 L120.25 172.35 Q119.65 163.65 113.7 157.25 L110.6 154.15 Q110.4 147.85 104.45 145.55 100.35 144.1 97.5 140.6 93.8 135.95 87.7 136.65 L84.35 135.4 Q81.75 134.1 78.65 134.0 70.65 134.4 68.3 142.0 L67.95 143.3 68.9 142.85 70.0 145.3 Q48.8 157.55 24.65 160.75 14.6 162.35 4.7 164.8 -5.0 167.1 -13.95 171.55 -12.45 156.95 -8.35 142.8 L-7.6 143.9 Q-1.7 134.4 2.5 123.95 L4.65 119.55 21.25 89.75 Q23.9 84.85 27.7 80.6 36.05 71.25 45.3 63.0 63.0 73.7 82.4 81.0 102.2 88.55 123.1 92.3 136.0 94.65 149.05 94.4 148.55 111.95 143.5 128.8 L140.45 139.35 Q136.15 154.6 129.85 168.95 121.2 188.65 109.15 206.45 96.9 224.55 80.75 239.6 L-1.15 239.4 M155.1 77.35 Q162.7 57.5 178.35 42.9 194.5 27.7 216.5 24.8 L219.25 24.5 219.0 27.85 Q198.4 34.15 180.6 46.3 171.8 52.3 165.4 60.75 159.5 68.6 155.1 77.35" fill="#db1b1b" fill-rule="evenodd" stroke="none"/>
    <path d="M-8.35 142.8 L-1.65 118.35 -0.85 117.85 Q3.95 108.3 6.75 97.9 8.15 92.55 10.15 87.35 17.65 67.95 26.9 49.15 35.4 57.05 45.3 63.0 36.05 71.25 27.7 80.6 23.9 84.85 21.25 89.75 L4.65 119.55 2.5 123.95 Q-1.7 134.4 -7.6 143.9 L-8.35 142.8" fill="#fe3e3e" fill-rule="evenodd" stroke="none"/>
    <path d="M71.4 146.65 L74.5 147.35 Q77.35 147.25 79.3 149.05 81.5 151.85 81.35 155.4 L81.6 156.1 Q84.5 159.0 88.75 160.3 89.7 162.2 89.3 164.45 L96.35 171.5 95.75 171.85 Q100.4 179.7 109.35 179.45 90.35 183.95 71.1 186.75 L42.6 187.7 Q23.7 187.7 6.75 179.4 3.45 177.8 0.4 175.8 -4.75 172.45 -10.75 172.3 -1.55 168.6 8.1 166.15 L17.85 164.35 Q33.95 161.95 49.75 158.15 45.4 162.5 44.75 168.45 L45.55 168.45 Q46.3 168.7 46.9 169.2 48.3 170.35 50.05 170.2 51.35 168.7 53.1 167.85 56.55 166.1 60.15 165.05 60.7 163.0 60.1 161.05 58.95 157.4 55.15 156.25 64.25 153.05 71.4 146.65 M32.85 171.85 Q36.2 172.15 39.15 170.55 41.6 169.3 41.55 166.75 41.55 166.15 41.15 165.8 38.1 163.35 34.1 164.4 30.9 165.4 30.65 168.45 L24.65 168.45 Q20.15 169.1 20.4 173.8 24.1 174.85 28.0 174.35 L30.1 176.2 31.15 175.5 Q33.0 174.15 32.85 171.85 M17.1 168.4 Q15.5 167.15 9.8 167.15 3.55 167.15 3.55 169.0 L4.1 171.45 Q5.6 173.65 10.3 173.65 17.55 173.65 17.55 169.65 17.9 169.05 17.1 168.4 M19.15 176.7 L17.8 176.9 Q24.6 181.9 47.55 181.9 51.45 181.9 77.35 178.0 L77.55 178.7 78.35 178.15 78.35 177.85 81.35 177.4 Q83.05 178.15 83.85 179.4 84.4 180.2 90.55 180.2 92.3 180.2 92.3 175.9 92.15 169.7 87.3 169.7 82.8 169.7 81.85 171.05 80.9 172.4 78.15 172.65 L77.55 172.2 Q76.6 173.1 76.6 175.25 L77.0 176.85 70.55 177.65 Q54.6 179.45 35.8 179.45 L30.3 179.1 28.8 178.45 Q25.85 176.7 19.15 176.7 M72.3 172.0 Q71.8 168.2 68.3 168.2 55.35 168.2 55.35 173.0 55.35 176.7 62.3 176.7 65.6 176.7 69.05 174.95 72.3 173.25 72.3 172.0 M74.1 159.2 Q76.1 157.75 76.1 156.0 76.35 152.15 70.8 152.15 66.95 152.15 64.65 153.45 62.55 154.6 62.55 156.25 62.55 160.7 69.05 160.7 72.0 160.7 74.1 159.2 M81.55 169.9 Q86.05 170.35 86.45 166.0 86.65 163.55 84.3 163.4 79.5 163.15 77.35 166.95 78.1 170.15 81.55 169.9" fill="#fdd7aa" fill-rule="evenodd" stroke="none"/>
    <path d="M80.1 146.65 Q75.4 146.6 72.85 142.5 L75.2 138.75 76.7 138.2 Q79.1 137.8 80.95 139.05 L84.2 141.35 Q87.25 141.05 90.1 142.2 91.85 142.85 93.15 144.15 97.15 148.1 102.35 150.0 110.45 161.05 117.0 172.9 115.15 175.15 112.15 175.8 107.75 176.55 103.65 174.7 101.55 173.75 100.65 171.8 98.45 166.95 93.95 163.9 93.7 160.95 92.05 158.65 90.0 155.65 86.45 155.4 L85.2 152.35 83.95 149.1 Q83.0 146.7 80.1 146.65" fill="#c68600" fill-rule="evenodd" stroke="none"/>
    <path d="M31.1 170.75 L31.2 174.0 28.35 172.4 25.1 173.25 Q23.25 173.75 21.6 173.2 21.75 169.35 25.45 169.7 L25.3 170.45 25.8 170.35 26.2 169.65 31.05 170.65 31.1 170.75 M78.35 176.65 L78.35 173.2 82.4 173.9 82.8 173.7 82.75 172.7 83.5 172.1 Q86.0 170.45 88.5 172.1 91.35 174.65 90.45 178.2 86.35 180.2 84.05 176.4 L85.85 175.75 78.35 176.65 M49.1 168.45 L47.05 167.2 49.85 162.9 48.8 160.65 Q50.55 158.2 53.35 158.2 57.25 158.2 58.4 161.75 59.35 164.6 56.9 166.0 54.65 166.45 52.5 165.45 51.05 167.2 49.1 168.45" fill="#ffffcc" fill-rule="evenodd" stroke="none"/>
    <path d="M31.05 170.65 L31.1 170.65 31.1 170.75 31.05 170.65 M30.65 168.45 Q30.9 165.4 34.1 164.4 38.1 163.35 41.15 165.8 41.55 166.15 41.55 166.75 41.6 169.3 39.15 170.55 36.2 172.15 32.85 171.85 33.5 169.5 31.45 168.7 L30.65 168.45 M17.1 168.4 Q17.9 169.05 17.55 169.65 17.55 173.65 10.3 173.65 5.6 173.65 4.1 171.45 L3.55 169.0 Q3.55 167.15 9.8 167.15 15.5 167.15 17.1 168.4 M74.1 159.2 Q72.0 160.7 69.05 160.7 62.55 160.7 62.55 156.25 62.55 154.6 64.65 153.45 66.95 152.15 70.8 152.15 76.35 152.15 76.1 156.0 76.1 157.75 74.1 159.2 M72.3 172.0 Q72.3 173.25 69.05 174.95 65.6 176.7 62.3 176.7 55.35 176.7 55.35 173.0 55.35 168.2 68.3 168.2 71.8 168.2 72.3 172.0 M81.55 169.9 Q78.1 170.15 77.35 166.95 79.5 163.15 84.3 163.4 86.65 163.55 86.45 166.0 86.05 170.35 81.55 169.9" fill="#990000" fill-rule="evenodd" stroke="none"/>
    <path d="M-380.45 -167.15 L-380.45 -243.35 -139.5 -243.35 -160.55 -223.95 Q-192.35 -194.0 -226.55 -158.4 -256.8 -126.9 -276.7 -103.85 -312.45 -62.55 -353.2 -4.1 -357.95 2.65 -377.55 43.6 L-380.45 49.75 -380.45 -163.25 -373.7 -166.6 -380.45 -167.15 M-202.5 -107.0 Q-203.05 -104.8 -206.45 -102.1 L-202.5 -107.0 M-165.2 -99.6 L-164.95 -100.35 Q-163.35 -103.1 -155.1 -109.35 L-154.85 -109.6 Q-160.55 -103.3 -165.2 -99.6 M-191.45 -120.35 L-180.95 -131.6 Q-180.4 -132.15 -179.95 -130.85 -182.7 -127.35 -191.45 -120.35 M-277.7 53.4 L-275.7 49.9 -274.95 49.65 -277.7 53.4 M-284.2 8.9 L-283.95 8.65 Q-298.5 35.25 -303.45 42.65 -300.35 36.0 -284.2 8.9 M-377.1 239.6 L-380.45 239.6 -380.45 235.8 -376.45 237.25 -377.1 239.6" fill="#fc9e57" fill-rule="evenodd" stroke="none"/>
    <path d="M146.85 -182.75 Q146.75 -183.6 147.3 -184.55 148.1 -185.75 149.65 -185.45 152.6 -182.3 151.0 -178.35 149.75 -175.3 146.45 -176.6 147.85 -178.5 147.85 -179.9 147.8 -182.2 146.85 -182.75 M143.85 -173.85 Q143.5 -172.7 142.8 -172.0 L140.45 -171.0 138.1 -171.35 Q141.05 -171.55 143.85 -173.85 M136.1 -174.45 L135.65 -178.6 Q135.65 -179.95 138.25 -181.45 140.45 -182.7 141.15 -182.7 142.65 -182.7 143.45 -181.4 L141.0 -179.55 Q137.45 -176.75 136.1 -174.45 M101.75 -179.65 Q98.6 -176.75 100.65 -173.2 L100.85 -172.9 101.85 -172.7 Q103.1 -172.55 103.85 -173.4 103.75 -176.4 106.2 -178.05 108.0 -179.3 109.9 -178.3 111.1 -177.6 111.7 -176.6 114.65 -171.9 118.35 -167.75 123.0 -167.5 124.6 -172.05 L126.55 -177.75 Q127.5 -180.8 129.8 -182.6 L128.9 -173.5 128.9 -172.5 Q129.55 -167.5 134.3 -165.75 139.0 -164.0 143.35 -166.9 L144.7 -166.2 Q142.65 -162.05 138.1 -161.35 133.3 -161.0 129.45 -159.3 L129.5 -158.15 133.8 -157.15 Q134.9 -155.9 134.9 -155.2 L134.8 -152.3 Q129.4 -151.1 124.6 -153.95 L123.1 -153.35 123.1 -152.2 123.6 -151.45 Q125.6 -148.95 129.0 -148.45 125.45 -148.2 123.5 -151.2 L123.2 -151.7 Q120.9 -149.35 118.3 -148.5 115.05 -145.75 111.4 -148.4 117.45 -147.05 121.9 -151.1 123.65 -152.7 122.8 -154.85 L121.1 -155.45 Q118.2 -153.7 115.1 -152.3 L113.65 -152.45 Q110.9 -154.25 110.75 -157.75 110.65 -161.1 110.15 -164.5 110.05 -165.4 109.45 -165.85 107.65 -167.25 105.15 -166.95 100.25 -166.75 99.3 -171.0 L98.0 -171.45 Q98.95 -174.2 99.3 -177.0 99.55 -179.05 101.75 -179.65 M106.0 -182.15 L104.6 -181.95 101.95 -179.75 102.15 -180.7 Q102.9 -181.9 106.0 -182.15 M138.15 -100.35 Q138.15 -102.0 139.2 -103.15 140.25 -104.3 141.7 -104.3 141.95 -101.35 145.6 -102.5 149.45 -103.8 150.1 -107.95 149.8 -105.35 151.0 -103.0 151.95 -101.3 153.9 -100.9 L157.85 -100.45 157.7 -95.95 Q152.8 -93.7 149.0 -97.75 144.45 -102.55 138.15 -100.35 M145.65 -110.25 L145.65 -110.95 147.05 -111.1 145.65 -110.25 M155.45 -106.15 Q157.7 -106.95 160.15 -106.95 163.05 -106.95 164.05 -105.25 L163.6 -105.55 Q159.8 -103.45 157.7 -104.05 156.4 -104.45 155.45 -106.15 M164.5 -102.65 L164.5 -102.6 Q163.3 -100.5 161.55 -101.2 L164.5 -102.65 M143.75 -96.05 L138.4 -97.45 138.2 -99.55 138.25 -98.9 Q139.55 -98.15 143.75 -96.05 M159.65 -111.45 Q159.35 -109.5 157.65 -108.7 L157.05 -108.9 Q155.9 -109.15 155.75 -110.25 L155.65 -111.0 Q155.45 -113.3 157.65 -113.45 159.15 -112.9 159.65 -111.45 M37.8 -42.55 Q37.4 -40.05 36.15 -38.55 L32.8 -36.6 31.8 -36.45 32.1 -36.2 30.65 -35.3 31.8 -36.45 37.8 -42.55 M32.85 -31.6 Q31.65 -29.9 29.7 -29.2 L28.35 -28.7 32.85 -31.6 M16.0 5.15 L15.2 5.0 Q14.0 1.8 13.75 -1.8 13.5 -6.15 13.75 -10.35 L13.8 -16.6 Q13.05 -11.9 10.05 -8.3 6.8 -8.95 7.75 -11.9 9.2 -16.55 11.4 -20.8 12.35 -22.7 11.95 -24.8 10.75 -31.4 4.2 -32.25 -0.15 -32.6 -2.7 -28.85 -4.35 -26.5 -6.6 -24.55 -9.3 -22.3 -12.25 -24.6 -13.5 -25.6 -13.5 -27.4 L-12.45 -27.5 Q-9.55 -34.3 -3.7 -39.1 -0.9 -41.35 -0.95 -45.2 -2.45 -47.05 -4.75 -46.05 L-9.95 -43.85 -11.4 -43.95 Q-12.95 -49.1 -7.75 -50.85 L-4.15 -50.95 Q1.45 -50.95 5.9 -53.9 6.75 -51.45 4.95 -49.05 3.95 -47.6 4.05 -45.65 9.25 -43.4 15.1 -44.75 L15.6 -46.55 14.2 -48.9 Q15.55 -52.2 14.85 -55.85 14.25 -59.15 11.3 -60.55 16.2 -61.7 16.2 -68.05 16.2 -69.35 14.3 -71.45 L15.95 -72.15 Q18.05 -73.0 19.0 -74.0 19.0 -71.8 21.2 -70.65 24.3 -69.1 26.6 -66.7 25.0 -65.1 23.0 -63.95 20.85 -62.6 19.0 -60.9 18.3 -60.2 18.05 -59.25 17.1 -55.9 20.3 -54.7 20.9 -54.5 21.5 -54.7 25.1 -56.1 28.35 -54.35 L28.1 -53.6 26.0 -52.75 Q22.35 -50.55 22.95 -46.35 25.15 -44.6 28.1 -45.0 L34.55 -45.2 30.0 -39.75 Q27.65 -37.05 29.75 -34.75 25.65 -32.3 22.15 -29.2 19.15 -26.65 19.3 -22.9 18.65 -22.55 18.65 -21.8 18.65 -18.75 20.1 -15.75 23.1 -9.5 24.45 -2.8 24.65 -1.85 24.05 -1.1 20.85 2.8 16.0 5.15 M3.8 -68.5 Q2.75 -69.3 1.85 -70.9 L0.6 -74.3 Q0.6 -75.6 1.7 -75.85 1.8 -73.9 2.75 -72.4 3.7 -70.85 3.8 -68.5 M18.0 -81.45 L19.1 -80.15 19.05 -77.7 17.7 -81.15 17.95 -81.2 18.0 -81.45 M33.7 -71.95 Q34.65 -70.0 33.15 -68.2 31.55 -66.25 30.9 -63.8 29.5 -68.25 32.7 -71.3 L33.7 -71.95 M1.8 -23.95 L1.1 -18.6 Q-1.35 -17.9 -3.8 -19.0 L-5.3 -19.55 -3.75 -21.45 Q-1.05 -24.45 1.1 -24.45 L1.8 -23.95 M-6.4 -15.85 Q-4.65 -14.6 0.6 -14.6 L0.65 -14.6 Q-0.3 -13.5 -1.75 -13.05 -5.95 -12.2 -6.4 -15.85 M4.15 -3.3 Q5.7 -1.05 4.8 1.65 1.5 2.65 0.55 -0.45 -0.35 -3.5 2.6 -4.1 3.65 -4.15 4.15 -3.3 M81.55 -19.3 Q92.05 -17.35 102.65 -19.35 L107.05 -19.0 Q105.7 -15.6 102.3 -14.5 94.25 -12.05 85.9 -12.85 80.65 -13.7 76.15 -16.0 L74.8 -16.3 Q71.0 -15.65 71.2 -11.75 71.3 -9.2 68.95 -8.15 67.3 -7.4 65.7 -8.2 66.5 -11.25 64.1 -13.65 61.9 -15.8 58.8 -15.45 55.55 -15.2 53.1 -12.85 50.35 -12.8 49.25 -15.35 L48.3 -18.05 Q50.55 -17.1 50.65 -19.45 L50.65 -22.95 Q50.5 -26.65 54.3 -27.65 L56.6 -28.25 Q57.95 -23.1 63.1 -21.2 70.25 -18.65 77.85 -19.4 L81.55 -19.3 M107.8 -12.0 Q106.15 -10.35 103.9 -9.5 96.6 -6.7 88.8 -8.3 100.15 -8.75 105.6 -10.95 106.8 -11.45 107.8 -12.0 M75.35 -11.7 L75.5 -11.35 Q76.5 -8.3 74.2 -6.25 75.8 -8.65 75.35 -11.5 L75.35 -11.7 M61.15 -10.85 Q59.6 -10.15 56.4 -9.95 58.0 -11.6 59.55 -11.6 60.65 -11.6 61.15 -10.85 M46.4 -11.35 L45.9 -11.95 Q45.25 -12.95 45.45 -14.15 L46.4 -11.35 M46.75 -19.1 Q45.35 -21.0 45.35 -23.05 45.35 -25.1 46.85 -26.75 46.25 -22.95 47.45 -19.3 L47.6 -18.85 46.75 -19.1 M166.0 -38.1 L163.65 -37.7 Q160.5 -37.7 160.4 -39.85 L160.9 -43.2 Q160.9 -45.9 159.75 -46.75 158.55 -47.55 158.55 -48.65 158.55 -51.6 161.4 -52.1 161.65 -49.6 163.05 -47.45 165.75 -43.15 166.0 -38.1 M158.75 -0.45 L159.85 -0.55 150.6 3.4 Q147.5 4.5 147.6 7.9 146.7 4.8 149.7 3.45 L158.75 -0.45 M144.05 42.35 Q143.55 41.15 143.55 39.1 143.55 30.5 152.95 19.95 L159.4 13.0 Q162.35 9.7 162.35 8.15 162.3 7.2 161.6 6.45 160.1 5.0 156.6 6.1 L157.3 5.7 Q165.0 3.4 166.15 2.55 166.85 2.0 166.85 -0.7 167.2 -2.05 166.8 -3.25 166.0 -5.65 162.1 -5.65 153.9 -5.65 153.8 -5.85 154.5 -7.05 152.35 -9.05 L165.8 -9.95 Q167.6 -10.05 167.95 -10.9 L169.1 -9.95 Q167.5 -9.25 166.9 -7.5 166.25 -5.75 167.15 -4.05 L175.6 -0.85 173.25 0.4 173.25 2.15 176.05 2.0 177.35 1.7 177.7 2.65 Q180.4 3.0 183.0 2.1 187.0 0.8 186.4 -3.5 182.35 -7.3 176.85 -8.1 178.15 -8.2 179.2 -9.1 180.8 -10.35 180.55 -12.6 L182.35 -12.05 Q183.65 -12.6 183.9 -14.1 L184.15 -16.1 185.0 -13.75 186.2 -13.0 186.15 -12.65 184.9 -12.05 185.05 -10.9 186.7 -10.55 Q189.85 -7.2 194.7 -6.6 200.3 -5.8 205.5 -3.6 207.95 -2.6 207.95 -0.15 207.9 3.05 204.75 4.1 198.45 5.9 192.4 8.55 195.65 10.2 199.45 10.4 194.2 10.7 189.7 8.05 L189.25 8.1 Q189.75 5.5 187.3 5.0 181.95 5.0 182.1 10.5 L182.2 13.25 Q182.3 16.1 179.25 16.55 176.95 17.1 175.15 18.4 L175.4 19.7 Q173.2 18.9 173.1 16.9 L173.8 13.95 Q175.45 11.65 172.9 10.8 L169.25 10.5 Q168.3 14.0 166.9 17.3 165.7 20.15 165.2 23.2 163.9 31.2 160.55 38.55 157.95 44.15 152.1 45.7 149.4 46.35 147.15 45.05 145.35 43.9 144.05 42.35 M147.95 -10.45 Q147.5 -6.75 149.75 -4.0 L150.1 -3.6 149.35 -4.15 Q146.1 -6.65 147.95 -10.45 M219.35 -153.7 L219.4 -155.05 Q219.4 -155.85 219.0 -156.0 218.5 -156.05 218.15 -156.2 L217.15 -154.5 216.25 -154.9 216.4 -158.45 221.0 -158.8 Q223.4 -158.7 224.2 -156.35 225.65 -151.9 221.65 -149.7 L220.3 -150.4 Q222.55 -150.95 222.55 -152.4 L219.35 -153.7 M214.5 -150.5 Q210.45 -143.45 202.65 -142.95 194.65 -143.0 188.4 -148.0 L186.75 -149.9 186.8 -150.9 Q191.3 -151.85 195.05 -149.3 195.5 -148.95 196.05 -148.75 199.4 -148.65 200.35 -151.85 201.0 -154.15 203.45 -154.05 209.2 -153.2 214.5 -150.5 M210.45 -140.2 Q212.75 -141.6 214.65 -143.9 213.45 -141.3 210.45 -140.2 M196.4 -155.4 L196.65 -156.0 Q197.1 -156.55 198.4 -156.85 L196.4 -155.4 M167.65 -53.8 L167.75 -54.05 167.65 -53.8 M168.5 -68.1 L172.4 -68.15 Q170.65 -67.85 170.8 -65.95 L174.35 -62.15 Q176.5 -59.75 179.3 -60.5 L177.5 -57.05 Q175.75 -52.9 171.4 -52.6 L169.0 -54.1 Q170.4 -54.8 170.4 -57.7 170.4 -58.35 169.4 -60.45 168.25 -62.8 167.3 -63.7 169.8 -66.2 169.8 -66.55 169.65 -67.7 168.5 -68.1 M182.85 -50.05 Q180.55 -49.7 180.15 -52.1 180.85 -54.2 182.9 -53.8 L183.4 -53.45 183.5 -50.7 182.85 -50.05 M194.35 -32.95 Q194.6 -27.85 189.9 -27.35 187.0 -27.4 187.65 -30.5 188.45 -34.55 192.65 -34.5 194.3 -34.5 194.35 -32.95 M197.35 -12.25 L196.85 -12.15 192.8 -13.6 Q193.55 -14.4 193.55 -15.8 L192.9 -19.35 Q197.65 -18.7 197.65 -15.95 197.65 -15.25 197.05 -13.7 196.9 -12.85 197.35 -12.25 M209.65 6.55 L208.9 7.65 Q207.75 8.95 205.45 9.65 207.95 8.65 209.65 6.55 M179.3 -42.45 L179.65 -42.45 Q183.35 -42.45 184.35 -38.65 182.65 -41.8 179.3 -42.45 M174.55 -40.4 Q174.55 -39.35 178.1 -37.45 181.65 -35.6 181.65 -32.05 181.65 -29.9 180.2 -27.75 177.8 -28.25 175.8 -27.15 L175.3 -26.85 175.35 -19.85 Q172.5 -22.4 168.5 -21.85 169.55 -29.95 175.9 -35.4 L175.3 -36.9 174.95 -37.05 Q173.1 -37.35 171.5 -36.55 L171.0 -35.7 Q172.6 -38.75 174.55 -40.4 M240.0 97.3 Q241.5 96.3 243.25 96.05 252.85 94.3 262.35 97.0 L265.15 104.45 Q259.45 105.9 253.6 105.0 245.55 103.45 238.9 108.3 L236.1 108.65 Q232.85 107.85 232.65 110.95 L232.5 116.55 Q232.5 117.45 231.9 118.1 L227.55 121.8 Q225.9 117.75 226.75 113.25 L225.3 113.1 224.8 112.4 Q220.05 111.05 217.8 115.85 215.85 119.95 211.05 119.95 L206.7 120.5 Q206.85 119.05 207.8 117.9 L211.25 114.85 210.8 115.25 Q212.4 114.25 212.4 113.05 212.4 111.1 210.15 111.1 205.55 113.2 203.15 113.2 L200.7 112.95 199.0 111.95 198.85 110.9 Q201.75 109.9 205.65 109.95 212.55 110.1 219.3 108.55 222.5 108.05 222.15 105.1 221.95 103.6 220.45 103.0 218.85 102.45 217.8 101.35 218.2 97.85 215.95 95.95 L222.15 94.7 Q223.25 94.7 224.05 99.7 224.85 104.7 226.65 104.7 227.75 104.7 228.3 103.8 L228.25 103.8 228.65 103.6 228.75 104.5 231.6 104.3 Q236.45 101.5 240.0 97.3 M270.6 102.5 Q270.75 103.4 270.2 104.1 269.55 101.8 268.9 100.25 L270.6 102.5 M190.4 16.2 Q190.4 14.15 193.15 14.15 199.3 14.15 199.3 18.35 199.3 22.05 195.9 22.05 192.75 22.05 191.3 19.4 190.4 17.8 190.4 16.2 M198.65 87.85 L198.65 89.45 200.7 88.6 Q203.6 90.1 206.0 88.25 L205.35 88.1 Q208.75 88.5 209.65 91.95 210.15 93.9 209.8 95.95 209.8 99.2 203.15 99.2 201.0 99.2 199.45 97.55 L196.65 95.0 197.05 94.35 193.9 91.85 Q192.5 88.3 196.2 87.75 L198.65 87.85 M215.9 85.8 Q215.9 86.8 214.65 87.3 L213.55 86.7 Q213.4 87.15 213.4 85.9 213.4 85.2 214.65 84.8 215.4 85.1 215.9 85.8 M214.75 95.9 Q213.9 96.0 213.6 96.7 L213.3 95.4 Q213.85 95.75 214.75 95.9 M237.3 83.45 L237.15 85.95 232.6 85.75 Q234.55 86.25 234.4 88.35 234.25 89.9 232.7 90.2 230.95 90.75 229.8 89.35 L230.15 86.05 232.2 85.7 232.2 84.5 Q233.6 82.85 236.0 83.15 L237.3 83.45 M239.05 122.6 Q239.05 124.8 237.15 124.8 236.0 124.8 235.55 123.8 L235.3 122.65 Q235.3 120.7 237.15 120.7 239.05 120.7 239.05 122.6 M207.3 123.75 L207.05 123.4 207.75 123.6 207.3 123.75 M214.8 111.95 L214.4 112.0 214.55 112.2 214.8 111.95 M243.65 115.25 L244.9 115.15 Q244.45 115.3 244.25 115.75 L243.65 115.25 M247.3 120.1 Q254.15 127.5 254.15 128.8 L253.25 131.7 Q249.7 124.15 247.3 120.1 M155.35 6.45 Q154.2 7.05 152.1 7.45 L151.8 6.95 155.35 6.45 M141.5 47.45 L138.5 47.4 138.7 44.75 140.1 44.3 141.5 47.45 M107.55 83.05 L115.6 75.35 118.3 76.0 Q117.5 80.55 114.25 83.8 L113.6 84.55 113.65 85.35 Q110.85 88.15 111.35 92.2 113.15 96.25 117.35 96.85 124.4 97.2 131.15 95.4 L132.1 95.8 Q132.4 99.7 129.2 101.9 127.75 102.9 126.5 104.0 L118.7 101.75 117.75 102.3 Q116.35 103.2 115.85 105.0 L115.1 104.2 Q110.2 109.55 113.8 115.65 L115.1 117.0 Q121.0 120.5 122.1 126.95 122.85 131.25 118.8 133.0 113.95 133.1 111.8 128.95 110.9 127.15 111.2 125.15 112.1 119.35 108.75 114.35 111.5 112.15 108.35 111.0 106.8 110.4 105.15 110.7 99.35 111.45 96.2 116.6 95.6 117.65 94.65 118.35 92.6 120.15 89.8 120.35 L89.7 119.65 89.6 119.85 Q87.45 119.5 87.1 118.85 L87.55 118.1 Q99.6 115.2 99.6 108.6 99.7 107.2 99.0 106.5 L99.8 106.05 Q100.05 102.85 96.1 102.95 87.2 103.1 79.4 106.7 L79.1 105.0 80.1 105.45 88.55 100.4 Q90.2 100.85 91.8 101.65 94.8 103.0 98.0 102.5 L98.3 101.45 94.65 99.4 95.15 98.75 Q92.45 95.75 88.6 94.95 L78.9 92.95 Q79.75 92.6 80.05 91.6 L74.0 88.0 73.95 87.15 73.35 87.15 75.3 82.05 Q76.55 83.45 80.3 86.05 87.0 90.7 93.8 90.95 L95.8 90.95 99.05 90.7 99.8 90.2 Q101.45 88.7 100.55 86.55 96.55 77.2 90.6 69.05 L88.6 69.45 Q88.65 68.05 89.1 67.1 89.15 67.75 89.35 67.95 98.5 70.05 100.8 78.35 L102.25 83.65 Q103.25 85.95 105.6 85.95 108.35 85.95 108.35 84.05 L107.55 83.05 M120.65 81.9 L119.5 83.15 121.1 80.35 Q121.2 81.2 120.65 81.9 M148.85 61.3 Q149.3 65.8 144.35 65.8 142.45 65.8 141.55 61.9 L141.05 57.85 Q141.05 52.45 145.1 52.45 152.1 52.45 153.35 56.65 153.35 57.45 152.1 59.15 150.55 61.15 148.85 61.3 M63.2 10.35 L62.55 10.5 Q63.35 13.3 65.55 15.4 65.95 15.75 66.0 16.35 66.15 19.0 64.25 21.3 L62.8 19.7 Q64.5 18.4 63.45 16.2 62.45 14.2 59.95 14.8 L59.95 14.5 Q59.95 10.8 63.2 10.35 M60.55 20.3 Q59.2 24.25 63.3 25.65 L68.7 27.55 Q72.1 28.8 70.7 32.45 70.25 33.65 68.95 34.2 66.0 35.25 62.85 34.8 61.6 32.8 59.6 31.95 58.4 32.05 57.95 33.2 57.4 34.6 58.05 35.7 60.75 39.95 64.05 43.5 L64.05 43.85 Q62.25 50.45 58.65 50.45 55.65 50.45 54.65 48.35 L53.65 43.7 Q52.35 36.95 43.1 36.95 L41.8 37.5 41.75 36.65 42.25 37.1 Q44.95 30.95 50.6 27.0 L52.25 25.2 Q54.5 21.2 51.2 18.1 L52.35 17.95 53.95 19.15 Q56.95 21.0 60.55 20.3 M73.8 34.7 Q74.7 33.1 74.8 31.2 L74.75 30.25 75.05 31.7 Q75.05 33.15 73.8 34.7 M73.1 22.65 Q74.6 19.3 78.2 20.2 82.15 21.35 79.2 24.5 L73.35 24.15 73.1 22.65 M58.35 54.5 L57.1 54.55 Q49.8 54.55 48.3 47.9 48.0 46.55 48.15 42.1 L48.7 41.95 48.8 45.05 Q48.85 47.65 49.45 49.25 51.15 53.85 58.35 54.5 M70.85 43.45 Q76.2 43.6 76.7 48.95 76.95 51.95 74.2 52.5 71.75 52.85 70.4 50.7 68.45 47.5 69.5 44.1 L70.85 43.45 M75.45 42.35 Q75.55 38.95 79.1 40.05 L79.25 41.9 Q77.85 43.4 75.5 42.55 L75.45 42.35 M66.55 103.25 Q67.55 100.3 64.6 99.5 L63.85 99.35 Q65.4 97.85 67.95 96.9 L68.6 97.1 68.9 96.45 Q69.3 97.2 70.35 97.85 72.1 99.05 72.1 100.35 72.1 101.1 70.8 102.6 70.8 102.95 71.55 103.55 L66.55 103.25 M72.85 104.8 Q72.3 105.35 72.3 106.6 L73.4 108.55 72.0 108.35 Q70.1 106.05 72.85 104.8 M53.95 118.65 Q58.35 121.2 63.15 122.6 64.1 122.9 64.6 123.65 65.1 124.45 64.85 125.3 64.25 127.6 61.55 127.2 57.25 126.7 53.0 125.25 L52.35 124.55 52.6 125.25 50.45 125.7 Q49.35 128.25 50.35 130.7 48.5 127.75 46.0 125.3 L46.3 123.8 50.95 121.1 49.6 119.7 Q39.1 122.05 30.6 128.65 L30.3 128.95 30.4 130.25 35.05 130.6 Q32.9 132.65 29.85 132.0 28.1 131.85 27.8 130.25 27.2 126.6 30.3 124.45 35.3 121.1 41.45 120.1 L42.0 118.95 41.45 118.35 42.7 118.05 Q42.45 115.85 43.55 114.1 43.95 113.45 44.7 113.05 L45.45 118.6 Q48.8 119.25 51.65 116.95 L52.85 117.9 53.95 118.65 M55.95 107.35 L56.8 108.45 Q58.2 110.1 58.25 112.5 L55.2 114.05 Q54.4 110.8 55.25 107.8 L55.95 107.35 M128.2 112.75 Q127.75 109.6 130.25 108.2 134.65 110.1 132.35 114.45 L131.25 115.0 Q128.6 115.4 128.2 112.75 M111.1 139.8 Q109.6 141.35 107.55 140.4 104.95 139.2 104.0 136.75 103.45 135.35 102.3 134.15 101.6 133.5 100.6 133.7 94.0 135.4 92.1 128.65 91.85 127.8 92.15 126.95 93.25 123.4 97.0 123.1 96.2 123.55 95.8 124.45 L101.7 127.9 Q105.8 130.7 107.35 134.35 108.3 136.6 111.1 139.8 M92.85 203.55 L93.6 204.1 97.5 199.7 100.1 196.15 Q103.35 192.35 107.85 190.6 L113.05 190.75 113.6 192.05 102.55 205.9 102.75 206.7 102.15 209.15 102.7 208.8 102.2 209.3 103.1 210.3 103.55 209.75 103.85 210.55 Q109.6 209.1 113.7 204.5 L123.75 202.55 Q123.6 206.1 120.5 207.4 116.3 209.2 112.8 211.65 L113.9 215.0 112.95 215.2 114.05 215.55 Q115.55 218.1 118.45 218.65 L122.35 219.65 Q127.0 220.8 126.85 225.3 L124.55 225.2 Q122.6 227.25 119.65 227.65 113.4 228.1 107.85 225.8 104.35 224.3 101.1 222.2 99.55 221.3 97.8 221.15 94.05 220.8 90.9 223.2 86.7 226.35 81.4 226.85 85.8 223.65 85.8 217.95 L84.8 217.4 Q85.0 216.15 83.9 215.7 79.5 214.0 75.55 217.0 72.85 219.05 69.3 219.05 63.55 218.6 58.15 217.0 57.4 215.35 57.3 213.05 L58.5 213.05 Q60.2 211.25 61.0 208.75 61.4 207.45 62.35 206.85 67.6 203.65 73.8 203.05 L75.8 203.85 Q77.4 204.65 78.9 206.05 L79.65 194.75 Q85.45 200.15 92.4 203.5 L92.85 203.55 M79.55 225.1 L79.5 224.5 Q79.6 221.95 81.3 219.8 L82.4 219.3 79.55 225.1 M100.1 211.7 L99.45 211.0 98.8 211.4 100.1 211.7 M53.25 200.35 Q53.3 201.55 52.8 202.9 L50.55 203.8 48.05 200.3 Q48.75 197.0 52.2 198.6 53.2 199.15 53.25 200.35 M34.4 213.8 L42.8 211.4 Q46.1 210.5 46.1 209.65 46.1 208.95 45.4 208.55 L45.65 208.6 Q48.35 209.9 48.95 212.75 L48.95 213.35 Q41.8 217.4 34.4 213.8 M40.9 208.3 L34.85 210.45 Q36.2 208.3 40.05 208.3 L40.9 208.3 M-3.3 -7.35 Q-3.3 -9.35 -1.15 -9.35 0.95 -9.35 0.95 -7.4 0.95 -5.6 -1.15 -5.6 -3.3 -5.6 -3.3 -7.35" fill="#ff4d00" fill-rule="evenodd" stroke="none"/>
    <path d="M146.85 -182.75 Q147.8 -182.2 147.85 -179.9 147.85 -178.5 146.45 -176.6 L145.6 -177.15 Q145.3 -180.2 146.85 -182.75 M143.45 -181.4 L143.75 -180.45 Q144.5 -177.2 143.85 -173.85 141.05 -171.55 138.1 -171.35 L136.4 -171.6 136.1 -174.45 Q137.45 -176.75 141.0 -179.55 L143.45 -181.4 M98.0 -171.45 L99.3 -171.0 Q100.25 -166.75 105.15 -166.95 107.65 -167.25 109.45 -165.85 110.05 -165.4 110.15 -164.5 110.65 -161.1 110.75 -157.75 110.9 -154.25 113.65 -152.45 L115.1 -152.3 Q118.2 -153.7 121.1 -155.45 L122.8 -154.85 Q123.65 -152.7 121.9 -151.1 117.45 -147.05 111.4 -148.4 107.25 -153.55 108.65 -160.0 L106.8 -161.95 Q103.6 -161.5 101.25 -163.35 97.35 -166.45 98.0 -171.45 M129.0 -148.45 Q125.6 -148.95 123.6 -151.45 L123.1 -152.2 123.1 -153.35 124.6 -153.95 Q129.4 -151.1 134.8 -152.3 134.25 -148.15 129.65 -148.45 L129.0 -148.45 M133.8 -157.15 L129.5 -158.15 129.45 -159.3 Q133.3 -161.0 138.1 -161.35 142.65 -162.05 144.7 -166.2 146.85 -164.05 145.85 -161.25 144.65 -157.85 141.05 -157.5 135.95 -157.4 131.2 -159.7 L133.8 -157.15 M164.5 -102.6 Q164.45 -98.7 160.7 -98.0 L159.5 -97.85 Q160.7 -95.0 158.85 -92.85 156.1 -91.7 153.2 -92.75 L143.75 -96.05 Q139.55 -98.15 138.25 -98.9 L138.2 -99.55 138.15 -100.35 Q144.45 -102.55 149.0 -97.75 152.8 -93.7 157.7 -95.95 L157.85 -100.45 Q159.45 -100.45 161.55 -101.2 163.3 -100.5 164.5 -102.6 M17.15 -84.6 Q21.3 -84.65 22.05 -81.0 22.7 -77.85 22.95 -74.55 23.05 -72.8 24.6 -71.75 26.2 -70.65 26.75 -68.9 27.65 -66.15 25.5 -64.1 21.9 -60.5 19.05 -56.35 22.6 -59.35 27.3 -59.25 31.05 -58.8 30.85 -55.05 30.65 -52.15 28.45 -50.35 26.7 -49.0 24.4 -48.95 L24.4 -48.4 26.35 -47.2 Q30.2 -49.4 34.9 -49.3 38.2 -48.8 38.0 -45.2 L37.8 -42.55 31.8 -36.45 30.65 -35.3 32.1 -36.2 32.6 -35.35 Q33.45 -33.55 32.85 -31.6 L28.35 -28.7 Q22.95 -26.0 22.85 -20.15 22.8 -18.2 23.25 -16.2 24.65 -10.1 25.55 -3.95 26.2 0.7 22.7 3.8 20.1 6.1 16.8 4.95 L16.0 5.15 Q20.85 2.8 24.05 -1.1 24.65 -1.85 24.45 -2.8 23.1 -9.5 20.1 -15.75 18.65 -18.75 18.65 -21.8 18.65 -22.55 19.3 -22.9 19.15 -26.65 22.15 -29.2 25.65 -32.3 29.75 -34.75 27.65 -37.05 30.0 -39.75 L34.55 -45.2 28.1 -45.0 Q25.15 -44.6 22.95 -46.35 22.35 -50.55 26.0 -52.75 L28.1 -53.6 28.35 -54.35 Q25.1 -56.1 21.5 -54.7 20.9 -54.5 20.3 -54.7 17.1 -55.9 18.05 -59.25 18.3 -60.2 19.0 -60.9 20.85 -62.6 23.0 -63.95 25.0 -65.1 26.6 -66.7 24.3 -69.1 21.2 -70.65 19.0 -71.8 19.0 -74.0 19.7 -74.8 19.7 -75.65 L19.05 -77.7 19.1 -80.15 18.0 -81.45 18.2 -82.55 Q17.95 -83.85 17.15 -84.6 M36.15 -38.55 Q34.9 -37.1 32.8 -36.6 L36.15 -38.55 M10.05 -8.3 Q8.25 -5.9 5.3 -6.95 L4.45 -7.45 Q4.9 -16.8 9.35 -25.15 8.15 -29.05 4.3 -30.1 0.05 -23.4 -7.35 -21.35 L-10.85 -21.55 Q-15.55 -23.3 -15.15 -28.35 -14.65 -27.45 -13.5 -27.4 -13.5 -25.6 -12.25 -24.6 -9.3 -22.3 -6.6 -24.55 -4.35 -26.5 -2.7 -28.85 -0.15 -32.6 4.2 -32.25 10.75 -31.4 11.95 -24.8 12.35 -22.7 11.4 -20.8 9.2 -16.55 7.75 -11.9 6.8 -8.95 10.05 -8.3 M30.9 -63.8 Q31.55 -66.25 33.15 -68.2 34.65 -70.0 33.7 -71.95 37.1 -72.9 37.35 -69.6 37.65 -65.85 34.65 -63.95 L30.9 -63.8 M-5.3 -19.55 L-3.8 -19.0 Q-1.35 -17.9 1.1 -18.6 L1.8 -23.95 2.2 -23.35 Q4.7 -18.65 0.65 -14.6 L0.6 -14.6 Q-4.65 -14.6 -6.4 -15.85 L-6.4 -16.8 Q-6.4 -17.95 -5.3 -19.55 M86.9 -25.2 Q88.2 -22.7 85.7 -21.25 82.95 -19.65 79.6 -19.7 L81.55 -19.3 77.85 -19.4 Q80.65 -20.05 84.6 -23.2 L86.9 -25.2 M107.05 -19.0 L108.0 -18.3 Q110.8 -15.25 107.8 -12.0 106.8 -11.45 105.6 -10.95 100.15 -8.75 88.8 -8.3 80.4 -9.9 72.65 -13.3 L75.35 -11.7 75.35 -11.5 Q75.8 -8.65 74.2 -6.25 70.75 -4.95 67.25 -5.15 63.2 -5.7 62.4 -9.45 62.15 -10.55 61.15 -10.85 60.65 -11.6 59.55 -11.6 58.0 -11.6 56.4 -9.95 L54.9 -9.85 Q50.3 -9.35 46.4 -11.35 L45.45 -14.15 47.7 -17.95 46.75 -19.1 47.6 -18.85 48.3 -18.05 49.25 -15.35 Q50.35 -12.8 53.1 -12.85 55.55 -15.2 58.8 -15.45 61.9 -15.8 64.1 -13.65 66.5 -11.25 65.7 -8.2 67.3 -7.4 68.95 -8.15 71.3 -9.2 71.2 -11.75 71.0 -15.65 74.8 -16.3 L76.15 -16.0 Q80.65 -13.7 85.9 -12.85 94.25 -12.05 102.3 -14.5 105.7 -15.6 107.05 -19.0 M166.0 -38.1 Q165.75 -43.15 163.05 -47.45 161.65 -49.6 161.4 -52.1 L162.65 -52.2 Q166.85 -52.2 168.05 -42.05 168.05 -39.05 166.0 -38.1 M149.6 48.3 L150.3 47.45 Q145.45 44.4 144.55 43.25 L144.05 42.35 Q145.35 43.9 147.15 45.05 149.4 46.35 152.1 45.7 157.95 44.15 160.55 38.55 163.9 31.2 165.2 23.2 165.7 20.15 166.9 17.3 168.3 14.0 169.25 10.5 L172.9 10.8 Q175.45 11.65 173.8 13.95 L173.8 12.1 173.4 11.8 Q170.4 19.0 169.05 26.85 167.75 34.6 165.15 41.65 163.9 45.0 160.95 47.05 155.85 50.5 149.6 48.3 M217.15 -154.5 L218.15 -156.2 Q218.5 -156.05 219.0 -156.0 219.4 -155.85 219.4 -155.05 L219.35 -153.7 217.15 -154.5 M214.75 -150.4 L215.15 -149.1 Q215.8 -146.45 214.65 -143.9 212.75 -141.6 210.45 -140.2 199.65 -137.55 189.25 -141.65 182.3 -144.5 182.55 -151.85 182.6 -145.45 187.65 -145.45 188.9 -145.45 188.65 -145.85 188.9 -145.7 188.9 -146.95 L188.4 -148.0 Q194.65 -143.0 202.65 -142.95 210.45 -143.45 214.5 -150.5 L214.75 -150.4 M172.4 -68.15 Q176.8 -66.65 177.05 -62.1 180.85 -63.45 183.15 -60.3 L182.9 -58.85 Q179.5 -57.65 178.05 -54.35 177.05 -52.0 175.0 -50.75 L173.65 -50.35 Q168.9 -49.45 167.65 -53.8 L167.75 -54.05 169.0 -54.1 171.4 -52.6 Q175.75 -52.9 177.5 -57.05 L179.3 -60.5 Q176.5 -59.75 174.35 -62.15 L170.8 -65.95 Q170.65 -67.85 172.4 -68.15 M184.35 -38.65 L184.7 -33.65 Q184.75 -29.85 181.9 -27.45 L180.2 -27.75 Q181.65 -29.9 181.65 -32.05 181.65 -35.6 178.1 -37.45 174.55 -39.35 174.55 -40.4 L179.3 -42.45 Q182.65 -41.8 184.35 -38.65 M185.05 -22.75 L186.0 -23.1 185.1 -22.45 185.05 -22.75 M189.5 -23.85 Q196.1 -24.55 200.0 -19.45 201.8 -17.1 200.4 -14.5 199.45 -12.7 197.35 -12.25 196.9 -12.85 197.05 -13.7 197.65 -15.25 197.65 -15.95 197.65 -18.7 192.9 -19.35 191.95 -22.4 189.9 -23.35 L189.5 -23.85 M196.85 -12.15 L190.1 -12.6 Q191.9 -12.75 192.8 -13.6 L196.85 -12.15 M187.25 -12.75 L186.15 -12.65 186.2 -13.0 187.25 -12.75 M186.7 -10.55 L198.85 -9.8 Q201.95 -9.25 204.6 -7.4 211.85 -2.2 209.65 6.55 207.95 8.65 205.45 9.65 L205.3 9.7 Q202.45 10.6 199.45 10.4 195.65 10.2 192.4 8.55 198.45 5.9 204.75 4.1 207.9 3.05 207.95 -0.15 207.95 -2.6 205.5 -3.6 200.3 -5.8 194.7 -6.6 189.85 -7.2 186.7 -10.55 M189.25 8.1 L183.55 7.9 Q184.8 11.05 184.8 13.55 184.8 20.15 178.9 20.15 L175.4 19.7 175.15 18.4 Q176.95 17.1 179.25 16.55 182.3 16.1 182.2 13.25 L182.1 10.5 Q181.95 5.0 187.3 5.0 189.75 5.5 189.25 8.1 M238.9 108.3 Q245.55 103.45 253.6 105.0 259.45 105.9 265.15 104.45 L262.35 97.0 Q252.85 94.3 243.25 96.05 241.5 96.3 240.0 97.3 243.4 94.7 247.65 94.35 L252.9 93.3 253.65 93.3 Q263.05 93.3 268.9 100.25 269.55 101.8 270.2 104.1 270.75 103.4 270.6 102.5 272.85 105.9 269.6 108.2 266.0 110.85 261.65 109.65 250.45 106.55 238.9 108.3 M228.25 103.8 L228.3 103.8 Q227.75 104.7 226.65 104.7 224.85 104.7 224.05 99.7 223.25 94.7 222.15 94.7 L215.95 95.95 214.75 95.9 Q213.85 95.75 213.3 95.4 213.85 91.4 217.9 91.55 222.65 91.15 225.55 94.8 226.25 95.65 226.5 96.85 227.2 100.3 226.3 103.85 L226.55 104.4 228.25 103.8 M200.7 112.95 L203.15 113.2 Q205.55 113.2 210.15 111.1 212.4 111.1 212.4 113.05 212.4 114.25 210.8 115.25 L211.25 114.85 211.8 114.2 Q204.6 115.65 197.65 114.55 L200.9 113.2 200.7 112.95 M206.7 120.5 L211.05 119.95 Q215.85 119.95 217.8 115.85 220.05 111.05 224.8 112.4 L225.3 113.1 Q220.45 113.75 218.1 118.2 L215.3 122.5 Q211.8 126.95 207.3 123.75 L207.75 123.6 207.05 123.4 206.7 120.5 M227.55 121.8 L231.9 118.1 Q232.5 117.45 232.5 116.55 L232.65 110.95 Q232.85 107.85 236.1 108.65 L235.7 109.0 236.3 110.05 Q235.65 115.55 233.15 120.5 231.05 124.65 227.55 121.8 M210.05 121.5 Q210.15 120.25 209.65 120.7 L210.05 121.5 M244.9 115.15 Q249.15 115.95 252.8 120.95 256.4 125.9 256.4 128.6 L256.3 131.05 Q255.8 132.65 253.75 132.8 L253.25 131.7 254.15 128.8 Q254.15 127.5 247.3 120.1 245.45 116.85 244.25 115.75 244.45 115.3 244.9 115.15 M141.5 47.45 L140.1 44.3 Q140.85 44.35 141.3 44.85 L140.7 44.45 141.85 46.35 141.95 46.9 141.5 47.45 M89.1 67.1 Q89.85 65.35 92.0 64.85 L92.05 64.85 95.65 65.05 Q99.75 67.3 103.75 81.75 105.25 83.1 106.75 83.55 L107.55 83.05 108.35 84.05 Q108.35 85.95 105.6 85.95 103.25 85.95 102.25 83.65 L100.8 78.35 Q98.5 70.05 89.35 67.95 89.15 67.75 89.1 67.1 M115.6 75.35 Q118.85 72.9 121.95 75.4 122.55 75.9 122.8 76.8 123.65 79.6 121.8 81.9 118.6 85.75 114.15 87.85 L113.85 90.7 Q115.65 94.8 119.85 94.8 L131.15 95.4 Q124.4 97.2 117.35 96.85 113.15 96.25 111.35 92.2 110.85 88.15 113.65 85.35 L113.6 84.55 114.25 83.8 Q117.5 80.55 118.3 76.0 L115.6 75.35 M132.1 95.8 Q135.0 99.25 131.85 102.65 129.6 105.1 126.5 104.0 127.75 102.9 129.2 101.9 132.4 99.7 132.1 95.8 M115.85 105.0 L116.9 113.05 123.3 118.7 Q127.85 122.75 125.75 128.55 123.95 133.6 118.8 133.0 122.85 131.25 122.1 126.95 121.0 120.5 115.1 117.0 L113.8 115.65 Q110.2 109.55 115.1 104.2 L115.85 105.0 M108.75 114.35 L107.55 112.25 Q99.45 111.45 96.0 118.75 95.0 120.85 92.45 121.65 L87.25 121.85 Q89.8 121.35 89.8 120.4 L89.8 120.35 Q92.6 120.15 94.65 118.35 95.6 117.65 96.2 116.6 99.35 111.45 105.15 110.7 106.8 110.4 108.35 111.0 111.5 112.15 108.75 114.35 M97.3 105.75 Q95.3 103.8 92.45 104.4 88.65 104.9 85.3 107.0 82.15 108.85 79.4 106.7 87.2 103.1 96.1 102.95 100.05 102.85 99.8 106.05 L99.0 106.5 Q98.45 105.9 97.3 105.75 M74.9 81.4 L76.6 81.45 Q80.5 82.1 83.3 85.1 87.7 89.7 93.8 90.95 87.0 90.7 80.3 86.05 76.55 83.45 75.3 82.05 L74.9 81.4 M95.8 90.95 L99.25 90.3 99.8 90.2 99.05 90.7 95.8 90.95 M120.65 81.9 Q121.2 81.2 121.1 80.35 L119.5 83.15 120.65 81.9 M62.8 19.7 L64.25 21.3 Q66.15 19.0 66.0 16.35 65.95 15.75 65.55 15.4 63.35 13.3 62.55 10.5 L63.2 10.35 Q69.4 10.75 69.35 17.15 69.3 22.75 63.85 24.15 70.75 24.7 74.75 30.25 L74.8 31.2 Q74.7 33.1 73.8 34.7 68.25 39.75 62.4 35.4 L61.1 34.3 Q63.2 38.7 64.05 43.5 60.75 39.95 58.05 35.7 57.4 34.6 57.95 33.2 58.4 32.05 59.6 31.95 61.6 32.8 62.85 34.8 66.0 35.25 68.95 34.2 70.25 33.65 70.7 32.45 72.1 28.8 68.7 27.55 L63.3 25.65 Q59.2 24.25 60.55 20.3 L62.8 19.7 M58.35 54.5 Q51.15 53.85 49.45 49.25 48.85 47.65 48.8 45.05 L48.7 41.95 48.15 42.1 48.2 39.7 47.15 40.05 Q42.95 41.25 41.8 37.5 L43.1 36.95 Q52.35 36.95 53.65 43.7 L54.65 48.35 Q55.65 50.45 58.65 50.45 62.25 50.45 64.05 43.85 L64.1 44.7 Q65.0 51.65 58.35 54.5 M68.9 96.45 L68.9 96.35 Q70.1 95.55 70.1 94.65 L70.05 94.5 71.85 94.3 Q77.35 94.3 75.95 98.6 75.95 103.2 71.55 103.55 70.8 102.95 70.8 102.6 72.1 101.1 72.1 100.35 72.1 99.05 70.35 97.85 69.3 97.2 68.9 96.45 M72.85 104.8 L74.75 105.6 74.85 105.9 Q75.45 108.0 73.4 108.55 L72.3 106.6 Q72.3 105.35 72.85 104.8 M53.0 125.25 Q57.25 126.7 61.55 127.2 64.25 127.6 64.85 125.3 65.1 124.45 64.6 123.65 64.1 122.9 63.15 122.6 58.35 121.2 53.95 118.65 59.05 118.85 63.45 120.9 67.2 122.55 65.95 126.7 65.2 129.3 62.4 130.0 55.7 131.25 53.0 125.25 M52.85 117.9 L51.65 116.95 Q51.9 116.75 52.15 116.65 L52.85 117.9 M35.05 130.6 L30.4 130.25 30.3 128.95 30.6 128.65 Q39.1 122.05 49.6 119.7 L50.95 121.1 46.3 123.8 46.2 123.3 Q39.55 125.65 35.05 130.6 M46.0 125.3 Q48.5 127.75 50.35 130.7 49.35 128.25 50.45 125.7 L52.6 125.25 Q54.55 128.9 53.5 132.5 53.3 133.25 52.6 133.7 49.45 135.5 47.3 132.25 45.15 129.15 46.0 125.3 M55.2 114.05 L58.25 112.5 Q58.2 110.1 56.8 108.45 L55.95 107.35 Q59.8 106.1 61.0 109.7 61.75 112.05 60.45 114.1 59.0 116.35 56.6 117.8 L55.2 114.05 M58.7 110.85 Q58.25 112.2 58.85 112.55 L58.7 110.85 M97.0 123.1 L100.5 123.3 Q106.05 124.4 105.3 130.05 107.15 134.35 111.55 135.8 L111.65 136.15 Q112.25 138.2 111.1 139.8 108.3 136.6 107.35 134.35 105.8 130.7 101.7 127.9 L95.8 124.45 Q96.2 123.55 97.0 123.1 M100.1 196.15 L100.7 194.0 99.6 193.55 Q97.1 195.3 95.45 197.8 100.45 188.95 110.1 187.65 114.3 187.05 115.5 190.8 116.05 192.5 115.5 193.8 111.7 203.25 102.7 208.8 L102.15 209.15 102.75 206.7 102.55 205.9 113.6 192.05 113.05 190.75 107.85 190.6 Q103.35 192.35 100.1 196.15 M92.4 202.7 L92.85 203.55 92.4 203.5 Q85.45 200.15 79.65 194.75 82.3 192.1 85.75 194.3 90.7 197.35 92.15 203.05 L92.4 202.7 M113.7 204.45 Q118.4 202.55 123.1 200.9 125.8 200.05 128.25 201.35 130.85 202.7 129.7 205.55 L129.05 206.6 Q122.9 213.0 113.9 215.0 L112.8 211.65 Q116.3 209.2 120.5 207.4 123.6 206.1 123.75 202.55 L113.7 204.5 113.7 204.45 M114.05 215.55 L129.5 221.7 Q130.45 224.15 129.15 226.6 127.85 229.05 125.3 230.0 122.0 231.15 118.5 231.2 105.65 231.5 97.65 221.55 L95.7 224.4 93.25 226.6 Q87.2 230.3 80.7 227.1 L81.4 226.85 Q86.7 226.35 90.9 223.2 94.05 220.8 97.8 221.15 99.55 221.3 101.1 222.2 104.35 224.3 107.85 225.8 113.4 228.1 119.65 227.65 122.6 227.25 124.55 225.2 L126.85 225.3 Q127.0 220.8 122.35 219.65 L118.45 218.65 Q115.55 218.1 114.05 215.55 M81.3 219.8 L82.3 218.6 Q73.5 221.05 64.25 220.75 60.05 220.6 58.15 217.0 63.55 218.6 69.3 219.05 72.85 219.05 75.55 217.0 79.5 214.0 83.9 215.7 85.0 216.15 84.8 217.4 L82.4 219.3 81.3 219.8 M105.3 208.0 L103.55 209.75 103.1 210.3 102.2 209.3 105.3 208.0 M34.4 213.8 Q41.8 217.4 48.95 213.35 L48.95 212.75 Q48.35 209.9 45.65 208.6 49.65 208.45 49.9 212.65 L50.05 214.3 Q46.1 218.8 39.8 218.05 34.6 218.35 34.05 213.95 L34.4 213.8" fill="#eb3900" fill-rule="evenodd" stroke="none"/>
    <path d="M142.8 -172.0 Q141.9 -171.15 140.45 -171.0 L142.8 -172.0 M143.35 -166.9 Q139.0 -164.0 134.3 -165.75 129.55 -167.5 128.9 -172.5 L128.9 -173.5 129.8 -182.6 Q127.5 -180.8 126.55 -177.75 L124.6 -172.05 Q123.0 -167.5 118.35 -167.75 114.65 -171.9 111.7 -176.6 111.1 -177.6 109.9 -178.3 108.0 -179.3 106.2 -178.05 103.75 -176.4 103.85 -173.4 103.1 -172.55 101.85 -172.7 L100.85 -172.9 100.65 -173.2 Q98.6 -176.75 101.75 -179.65 L101.95 -179.75 104.6 -181.95 106.0 -182.15 107.65 -182.2 Q114.9 -182.2 116.75 -177.05 117.7 -174.4 117.4 -170.45 L118.65 -169.95 119.2 -172.75 Q120.15 -174.35 122.7 -174.9 L123.15 -177.35 Q123.15 -181.45 123.7 -182.95 124.7 -185.95 128.15 -185.95 133.65 -185.95 132.15 -178.7 L131.85 -173.25 Q133.85 -171.45 134.3 -167.95 L135.65 -167.95 Q140.7 -167.95 143.35 -166.9 M141.7 -104.3 Q143.35 -104.3 144.5 -106.05 145.65 -107.8 145.65 -110.25 L147.05 -111.1 148.85 -111.4 153.9 -105.5 155.45 -106.15 Q156.4 -104.45 157.7 -104.05 159.8 -103.45 163.6 -105.55 L164.05 -105.25 164.5 -102.65 161.55 -101.2 Q159.45 -100.45 157.85 -100.45 L153.9 -100.9 Q151.95 -101.3 151.0 -103.0 149.8 -105.35 150.1 -107.95 149.45 -103.8 145.6 -102.5 141.95 -101.35 141.7 -104.3 M-15.15 -28.35 Q-11.65 -36.35 -4.25 -41.0 L-4.35 -41.95 Q-9.05 -40.1 -13.1 -43.05 -14.05 -43.7 -14.45 -44.7 -16.7 -50.25 -11.4 -52.95 -7.8 -54.85 -4.0 -54.0 L-3.7 -53.95 4.05 -54.3 5.9 -53.9 Q1.45 -50.95 -4.15 -50.95 L-7.75 -50.85 Q-12.95 -49.1 -11.4 -43.95 L-9.95 -43.85 -4.75 -46.05 Q-2.45 -47.05 -0.95 -45.2 -0.9 -41.35 -3.7 -39.1 -9.55 -34.3 -12.45 -27.5 L-13.5 -27.4 Q-14.65 -27.45 -15.15 -28.35 M-4.35 -62.0 Q-4.8 -65.8 -1.35 -67.0 L3.5 -67.15 Q2.55 -65.8 -1.1 -64.1 -3.15 -63.15 -4.35 -62.0 M7.9 -79.35 Q8.0 -81.45 8.75 -82.35 9.5 -83.3 11.05 -83.85 11.3 -81.75 10.3 -80.05 9.45 -78.6 7.9 -79.35 M15.4 -84.55 L17.15 -84.6 Q17.95 -83.85 18.2 -82.55 L18.0 -81.45 17.95 -81.2 17.7 -81.15 Q16.6 -83.5 15.4 -84.55 M14.3 -71.45 Q16.2 -69.35 16.2 -68.05 16.2 -61.7 11.3 -60.55 L9.55 -60.7 10.8 -61.4 Q13.75 -63.5 12.65 -67.3 L13.45 -68.6 13.1 -70.8 14.3 -71.45 M46.85 -26.75 Q47.85 -27.9 49.5 -28.85 52.35 -30.45 56.4 -31.05 L56.6 -28.25 54.3 -27.65 Q50.5 -26.65 50.65 -22.95 L50.65 -19.45 Q50.55 -17.1 48.3 -18.05 L47.6 -18.85 47.45 -19.3 Q46.25 -22.95 46.85 -26.75 M147.6 7.9 Q147.5 4.5 150.6 3.4 L159.85 -0.55 158.75 -0.45 162.0 -2.5 162.05 -2.6 Q155.85 -1.5 150.1 -3.6 L149.75 -4.0 Q147.5 -6.75 147.95 -10.45 151.85 -13.85 156.75 -12.0 160.5 -10.45 164.5 -10.95 L164.8 -13.65 167.95 -10.9 Q167.6 -10.05 165.8 -9.95 L152.35 -9.05 Q154.5 -7.05 153.8 -5.85 153.9 -5.65 162.1 -5.65 166.0 -5.65 166.8 -3.25 167.2 -2.05 166.85 -0.7 166.85 2.0 166.15 2.55 165.0 3.4 157.3 5.7 L156.6 6.1 Q160.1 5.0 161.6 6.45 162.3 7.2 162.35 8.15 162.35 9.7 159.4 13.0 L152.95 19.95 Q143.55 30.5 143.55 39.1 143.55 41.15 144.05 42.35 L144.55 43.25 Q145.45 44.4 150.3 47.45 L149.6 48.3 Q147.15 47.6 145.1 45.95 144.0 45.1 143.55 43.65 140.75 34.8 144.4 26.25 145.6 23.45 147.8 21.5 154.8 15.45 160.55 8.55 156.7 10.4 152.3 9.9 149.15 10.1 147.6 7.9 M219.35 -153.7 L222.55 -152.4 Q222.55 -150.95 220.3 -150.4 216.95 -151.2 216.25 -154.5 L216.25 -154.9 217.15 -154.5 219.35 -153.7 M214.75 -150.4 L214.5 -150.5 Q209.2 -153.2 203.45 -154.05 201.0 -154.15 200.35 -151.85 199.4 -148.65 196.05 -148.75 195.5 -148.95 195.05 -149.3 191.3 -151.85 186.8 -150.9 L186.75 -149.9 188.4 -148.0 188.9 -146.95 Q188.9 -145.7 188.65 -145.85 188.9 -145.45 187.65 -145.45 182.6 -145.45 182.55 -151.85 183.7 -155.1 187.7 -154.65 192.7 -155.4 195.9 -151.7 L196.4 -155.4 198.4 -156.85 200.05 -157.1 Q209.65 -158.35 214.75 -150.4 M167.75 -54.05 L169.15 -57.1 Q164.9 -61.7 166.45 -67.2 L168.5 -68.1 Q169.65 -67.7 169.8 -66.55 169.8 -66.2 167.3 -63.7 168.25 -62.8 169.4 -60.45 170.4 -58.35 170.4 -57.7 170.4 -54.8 169.0 -54.1 L167.75 -54.05 M171.0 -35.7 L171.5 -36.55 Q173.1 -37.35 174.95 -37.05 L175.3 -36.9 175.9 -35.4 Q169.55 -29.95 168.5 -21.85 L166.3 -21.65 167.25 -25.35 Q168.65 -30.7 171.0 -35.7 M252.9 93.3 L247.65 94.35 Q243.4 94.7 240.0 97.3 236.45 101.5 231.6 104.3 L228.75 104.5 228.65 103.6 Q231.15 102.5 233.0 100.8 241.4 93.15 252.9 93.3 M215.95 95.95 Q218.2 97.85 217.8 101.35 218.85 102.45 220.45 103.0 221.95 103.6 222.15 105.1 222.5 108.05 219.3 108.55 212.55 110.1 205.65 109.95 201.75 109.9 198.85 110.9 L199.0 111.95 200.7 112.95 200.9 113.2 197.65 114.55 196.25 113.75 Q195.55 110.15 198.85 109.15 201.8 108.15 204.95 107.65 213.15 106.95 221.15 107.4 215.65 103.2 213.6 96.7 213.9 96.0 214.75 95.9 L215.95 95.95 M196.65 95.0 Q192.75 93.7 190.9 90.5 190.15 89.1 191.05 87.8 193.95 83.7 198.2 86.45 L198.65 87.85 196.2 87.75 Q192.5 88.3 193.9 91.85 L197.05 94.35 196.65 95.0 M200.7 88.6 L205.35 88.1 206.0 88.25 Q203.6 90.1 200.7 88.6 M253.75 132.8 Q250.05 133.15 248.05 130.05 243.65 123.2 242.15 115.4 L243.15 115.1 243.65 115.25 244.25 115.75 Q245.45 116.85 247.3 120.1 249.7 124.15 253.25 131.7 L253.75 132.8 M155.35 6.45 L151.8 6.95 152.1 7.45 Q154.2 7.05 155.35 6.45 M141.3 44.85 Q141.75 45.35 141.85 46.35 L140.7 44.45 141.3 44.85 M87.25 121.85 L86.05 121.6 86.0 119.2 Q90.7 114.35 96.1 110.3 98.45 108.55 97.3 105.75 98.45 105.9 99.0 106.5 99.7 107.2 99.6 108.6 99.6 115.2 87.55 118.1 L87.1 118.85 Q87.45 119.5 89.6 119.85 L89.7 119.65 89.8 120.35 89.8 120.4 Q89.8 121.35 87.25 121.85 M79.1 105.0 L79.25 101.75 Q79.75 101.0 80.65 100.8 87.55 99.2 94.65 99.4 L98.3 101.45 98.0 102.5 Q94.8 103.0 91.8 101.65 90.2 100.85 88.55 100.4 L80.1 105.45 79.1 105.0 M78.9 92.95 Q73.0 92.15 70.4 87.45 70.0 86.7 70.15 85.85 70.75 81.95 74.9 81.4 L75.3 82.05 73.35 87.15 74.0 88.0 80.05 91.6 Q79.75 92.6 78.9 92.95 M99.25 90.3 Q96.85 81.85 90.95 75.55 88.5 72.9 88.6 69.45 L90.6 69.05 Q96.55 77.2 100.55 86.55 101.45 88.7 99.8 90.2 L99.25 90.3 M62.8 19.7 L60.55 20.3 Q56.95 21.0 53.95 19.15 L52.35 17.95 51.2 18.1 Q54.5 21.2 52.25 25.2 L50.6 27.0 Q44.95 30.95 42.25 37.1 L41.75 36.65 Q43.4 28.25 50.1 22.8 47.85 21.65 47.45 19.5 46.75 15.9 50.25 15.2 54.7 14.4 56.6 18.65 L59.15 17.9 59.6 17.2 Q60.4 16.2 59.95 14.8 62.45 14.2 63.45 16.2 64.5 18.4 62.8 19.7 M66.55 103.25 Q62.0 101.9 62.9 97.5 L63.1 96.8 Q65.5 95.85 67.95 96.9 65.4 97.85 63.85 99.35 L64.6 99.5 Q67.55 100.3 66.55 103.25 M68.9 96.35 Q68.9 95.6 69.25 95.05 69.55 94.5 70.05 94.5 L70.1 94.65 Q70.1 95.55 68.9 96.35 M95.45 197.8 Q97.1 195.3 99.6 193.55 L100.7 194.0 100.1 196.15 97.5 199.7 93.6 204.1 92.85 203.55 92.4 202.7 95.45 197.8 M80.7 227.1 L79.55 225.1 82.4 219.3 84.8 217.4 85.8 217.95 Q85.8 223.65 81.4 226.85 L80.7 227.1 M57.3 213.05 Q57.25 210.45 58.05 207.75 58.95 204.75 61.85 203.65 67.7 201.35 73.8 203.05 67.6 203.65 62.35 206.85 61.4 207.45 61.0 208.75 60.2 211.25 58.5 213.05 L57.3 213.05 M113.7 204.45 L113.7 204.5 Q109.6 209.1 103.85 210.55 L103.55 209.75 105.3 208.0 113.7 204.45 M45.4 208.55 Q46.1 208.95 46.1 209.65 46.1 210.5 42.8 211.4 L34.4 213.8 34.05 213.95 34.85 210.45 40.9 208.3 45.4 208.55" fill="#ff6013" fill-rule="evenodd" stroke="none"/>
    <path d="M-4.0 -54.0 Q-5.05 -54.3 -5.5 -55.35 -6.95 -58.85 -4.35 -62.0 -3.15 -63.15 -1.1 -64.1 2.55 -65.8 3.5 -67.15 L3.8 -68.5 Q3.7 -70.85 2.75 -72.4 1.8 -73.9 1.7 -75.85 L1.8 -76.3 Q3.65 -80.8 7.9 -79.35 9.45 -78.6 10.3 -80.05 11.3 -81.75 11.05 -83.85 11.3 -85.45 13.3 -85.45 14.4 -85.45 15.4 -84.55 16.6 -83.5 17.7 -81.15 L19.05 -77.7 19.7 -75.65 Q19.7 -74.8 19.0 -74.0 18.05 -73.0 15.95 -72.15 L14.3 -71.45 13.1 -70.8 Q12.2 -70.25 12.2 -69.9 12.2 -69.1 12.65 -67.3 13.75 -63.5 10.8 -61.4 L9.55 -60.7 11.3 -60.55 Q14.25 -59.15 14.85 -55.85 15.55 -52.2 14.2 -48.9 L15.6 -46.55 15.1 -44.75 Q9.25 -43.4 4.05 -45.65 3.95 -47.6 4.95 -49.05 6.75 -51.45 5.9 -53.9 L4.05 -54.3 -3.7 -53.95 -4.0 -54.0 M15.2 -78.65 L14.1 -80.2 Q13.55 -77.85 11.5 -76.8 8.25 -75.35 4.4 -75.35 7.45 -69.6 4.55 -64.15 3.9 -62.9 2.7 -62.55 -0.25 -62.25 -2.45 -60.65 L-3.05 -59.65 Q-3.7 -56.1 -0.15 -56.45 L0.25 -56.45 0.55 -56.4 Q4.55 -56.8 7.2 -53.75 7.9 -52.6 8.05 -50.9 L7.05 -47.55 10.05 -47.65 11.2 -47.9 Q10.7 -49.7 11.55 -51.35 12.25 -52.65 11.7 -53.85 10.15 -57.35 5.9 -57.0 3.3 -56.75 2.35 -59.0 1.95 -60.05 2.95 -60.6 6.95 -62.65 9.95 -65.65 9.1 -67.7 9.1 -70.2 9.1 -71.65 10.0 -72.45 12.9 -74.75 16.15 -76.6 L15.2 -78.65 M79.5 -45.35 L78.5 -45.2 83.0 -41.85 Q83.1 -42.6 82.15 -44.35 L79.5 -45.35 M56.4 -31.05 Q58.25 -39.35 65.75 -43.2 68.95 -44.85 72.7 -44.25 76.35 -43.6 79.05 -41.0 79.5 -39.3 78.45 -38.1 77.45 -36.9 76.25 -36.25 75.1 -35.55 75.6 -34.2 78.85 -33.4 81.7 -34.85 83.1 -35.65 83.9 -37.2 78.95 -41.35 75.1 -46.5 L75.45 -46.75 81.4 -46.5 80.9 -48.0 81.8 -49.05 Q87.55 -48.6 89.85 -43.25 91.15 -40.15 91.9 -36.85 92.5 -34.3 91.25 -32.4 L86.35 -25.25 86.9 -25.2 84.6 -23.2 Q80.65 -20.05 77.85 -19.4 70.25 -18.65 63.1 -21.2 57.95 -23.1 56.6 -28.25 L56.4 -31.05 M71.6 -39.0 L71.6 -38.15 71.15 -39.15 67.3 -40.7 64.7 -40.8 Q62.1 -39.35 60.35 -37.05 L60.7 -36.7 Q63.7 -38.15 67.25 -37.95 L68.85 -37.85 69.9 -37.0 Q65.65 -37.35 61.75 -36.15 56.6 -33.0 58.5 -27.4 59.2 -25.2 61.2 -24.3 60.1 -30.7 66.2 -33.05 68.05 -33.75 69.95 -33.75 L71.35 -33.5 70.25 -33.5 67.9 -33.3 67.6 -33.05 65.7 -31.95 63.3 -27.6 Q62.7 -25.55 63.65 -23.6 L64.1 -22.6 Q68.15 -21.1 72.5 -21.2 71.1 -25.0 72.25 -28.95 L72.4 -29.35 72.85 -30.2 73.6 -30.85 Q72.5 -27.9 73.45 -24.95 73.6 -23.65 74.05 -22.65 74.45 -21.9 75.5 -21.5 L79.3 -22.45 80.25 -22.85 83.15 -24.65 Q81.3 -25.25 81.05 -27.35 L80.85 -30.1 Q81.1 -30.8 81.4 -29.7 81.85 -28.15 82.45 -26.95 84.55 -25.0 86.7 -26.95 90.3 -30.05 90.75 -34.75 87.65 -36.2 84.2 -35.4 81.4 -31.75 76.65 -32.65 75.25 -32.95 74.15 -33.75 73.55 -36.65 76.15 -37.6 77.75 -38.05 78.0 -39.65 L75.15 -41.75 68.55 -42.0 Q70.05 -41.8 70.75 -40.85 L70.95 -40.55 71.6 -39.0 M85.65 -46.85 L83.4 -47.65 83.15 -47.3 83.65 -46.7 83.3 -46.95 Q86.15 -42.0 85.2 -37.45 L85.7 -37.2 87.85 -37.65 90.6 -37.4 Q90.0 -40.55 88.45 -43.55 87.45 -45.5 85.65 -46.85 M167.95 -10.9 L164.8 -13.65 Q162.65 -16.65 163.55 -20.35 L166.3 -21.65 168.5 -21.85 Q172.5 -22.4 175.35 -19.85 L175.3 -26.85 175.8 -27.15 Q177.8 -28.25 180.2 -27.75 L181.9 -27.45 Q183.6 -26.9 184.15 -25.7 L185.05 -22.75 185.1 -22.45 186.0 -23.1 Q186.9 -24.55 188.6 -24.85 L189.5 -23.85 189.9 -23.35 Q191.95 -22.4 192.9 -19.35 L193.55 -15.8 Q193.55 -14.4 192.8 -13.6 191.9 -12.75 190.1 -12.6 L187.25 -12.75 186.2 -13.0 185.0 -13.75 184.15 -16.1 183.9 -14.1 Q183.65 -12.6 182.35 -12.05 L180.55 -12.6 Q180.8 -10.35 179.2 -9.1 178.15 -8.2 176.85 -8.1 182.35 -7.3 186.4 -3.5 187.0 0.8 183.0 2.1 180.4 3.0 177.7 2.65 L177.35 1.7 176.05 2.0 173.25 2.15 173.25 0.4 175.6 -0.85 167.15 -4.05 Q166.25 -5.75 166.9 -7.5 167.5 -9.25 169.1 -9.95 L167.95 -10.9 M181.8 -22.4 L180.55 -24.95 178.05 -24.8 178.5 -20.9 Q178.75 -18.95 177.55 -17.3 L177.1 -16.85 180.8 -15.85 181.2 -18.75 181.95 -19.15 182.4 -19.25 Q184.8 -19.7 186.65 -18.15 187.7 -17.2 188.6 -15.45 190.15 -16.5 190.3 -16.35 L187.45 -20.1 186.45 -19.7 Q183.9 -19.15 182.45 -21.2 L181.8 -22.4 M181.45 -0.5 Q182.95 -1.0 184.3 -1.95 181.6 -3.65 176.5 -5.15 173.85 -5.9 173.85 -8.35 173.85 -9.45 176.85 -11.7 175.6 -13.2 174.2 -13.8 173.3 -14.2 173.3 -14.65 173.3 -16.15 175.1 -16.6 L173.65 -17.1 171.55 -18.95 166.35 -18.85 166.05 -18.85 166.5 -17.95 Q167.95 -15.1 170.4 -13.5 172.1 -12.35 171.9 -10.35 171.65 -7.55 169.3 -6.2 L169.05 -5.85 Q169.85 -5.1 171.65 -4.35 L178.35 -1.65 178.85 0.05 178.9 0.05 181.45 -0.5 M51.65 116.95 Q48.8 119.25 45.45 118.6 L44.7 113.05 Q43.95 113.45 43.55 114.1 42.45 115.85 42.7 118.05 L41.45 118.35 32.85 115.6 Q34.45 118.4 32.65 121.35 L31.6 122.65 Q28.85 125.05 25.7 123.6 L26.05 129.1 Q20.8 130.1 17.55 125.65 15.15 122.3 18.2 119.3 20.65 116.95 24.2 117.1 L22.95 115.4 Q20.8 111.9 22.25 108.1 30.25 108.85 37.1 105.85 37.55 105.7 37.7 105.0 38.2 102.7 40.2 101.35 51.1 104.2 54.35 115.0 L52.15 116.65 Q51.9 116.75 51.65 116.95 M50.75 114.55 L51.2 114.3 Q49.85 111.2 48.05 108.2 45.4 103.7 40.5 103.4 L40.0 104.15 39.95 104.95 Q40.5 109.25 36.35 110.55 30.05 112.55 23.7 110.55 L26.5 118.2 Q22.0 120.45 18.5 123.8 L18.35 124.1 18.75 124.2 20.9 125.2 23.7 125.85 23.2 122.9 Q26.55 120.6 30.7 120.85 31.75 117.65 29.35 114.9 30.35 112.9 32.9 113.05 36.85 112.55 40.2 114.85 39.2 111.75 42.05 110.85 45.1 109.8 47.45 112.05 48.2 112.7 48.1 114.0 L47.85 115.8 50.75 114.55" fill="#000000" fill-rule="evenodd" stroke="none"/>
    <path d="M-0.15 -56.45 Q-3.7 -56.1 -3.05 -59.65 L-2.45 -60.65 Q-0.25 -62.25 2.7 -62.55 3.9 -62.9 4.55 -64.15 7.45 -69.6 4.4 -75.35 8.25 -75.35 11.5 -76.8 13.55 -77.85 14.1 -80.2 L15.2 -78.65 Q12.6 -76.05 9.15 -74.4 8.3 -73.95 8.1 -72.8 7.55 -70.15 7.6 -67.6 7.6 -66.8 7.15 -66.15 4.9 -62.85 1.4 -60.75 -0.3 -59.7 -0.1 -58.1 2.25 -56.85 4.9 -55.9 10.65 -53.6 10.05 -47.65 L7.05 -47.55 8.05 -50.9 Q8.3 -52.25 7.55 -53.35 L7.2 -53.75 Q4.55 -56.8 0.55 -56.4 L0.25 -56.45 -0.1 -56.65 -0.15 -56.45 M201.25 -26.5 Q200.55 -26.3 201.35 -26.6 L201.25 -26.5 M177.55 -17.3 Q178.75 -18.95 178.5 -20.9 L178.05 -24.8 180.55 -24.95 181.8 -22.4 Q181.85 -21.8 182.05 -21.6 L182.45 -21.2 Q183.9 -19.15 186.45 -19.7 L187.45 -20.1 190.3 -16.35 187.85 -18.5 186.65 -18.15 Q184.8 -19.7 182.4 -19.25 L181.95 -19.15 180.7 -21.8 Q180.1 -19.5 178.4 -16.95 L177.85 -16.85 177.55 -17.3 M173.65 -17.1 Q171.8 -16.2 169.95 -17.3 L169.55 -17.45 Q173.8 -14.0 172.85 -8.7 172.65 -7.5 171.5 -6.65 176.8 -4.35 181.45 -0.5 L178.9 0.05 178.85 0.0 178.85 0.05 178.35 -1.65 171.65 -4.35 Q169.3 -5.6 169.3 -6.2 171.65 -7.55 171.9 -10.35 172.1 -12.35 170.4 -13.5 167.95 -15.1 166.5 -17.95 L166.35 -18.85 171.55 -18.95 173.65 -17.1 M40.0 104.15 L40.5 103.4 Q45.4 103.7 48.05 108.2 49.85 111.2 51.2 114.3 L50.75 114.55 Q48.95 110.0 45.0 107.55 43.4 108.05 41.95 108.85 L38.75 110.65 Q33.55 113.3 27.45 112.5 L28.75 117.65 Q28.4 119.2 26.9 119.85 23.05 121.6 20.9 125.2 L18.75 124.2 18.5 123.8 Q22.0 120.45 26.5 118.2 L23.7 110.55 Q30.05 112.55 36.35 110.55 40.5 109.25 39.95 104.95 L40.6 104.65 40.0 104.15" fill="#66cc00" fill-rule="evenodd" stroke="none"/>
    <path d="M-0.15 -56.45 L-0.1 -56.65 0.25 -56.45 -0.15 -56.45 M7.2 -53.75 L7.55 -53.35 Q8.3 -52.25 8.05 -50.9 7.9 -52.6 7.2 -53.75 M10.05 -47.65 Q10.65 -53.6 4.9 -55.9 2.25 -56.85 -0.1 -58.1 -0.3 -59.7 1.4 -60.75 4.9 -62.85 7.15 -66.15 7.6 -66.8 7.6 -67.6 7.55 -70.15 8.1 -72.8 8.3 -73.95 9.15 -74.4 12.6 -76.05 15.2 -78.65 L16.15 -76.6 Q12.9 -74.75 10.0 -72.45 9.1 -71.65 9.1 -70.2 9.1 -67.7 9.95 -65.65 6.95 -62.65 2.95 -60.6 1.95 -60.05 2.35 -59.0 3.3 -56.75 5.9 -57.0 10.15 -57.35 11.7 -53.85 12.25 -52.65 11.55 -51.35 10.7 -49.7 11.2 -47.9 L10.05 -47.65 M181.8 -22.4 L182.45 -21.2 182.05 -21.6 Q181.85 -21.8 181.8 -22.4 M190.3 -16.35 Q190.15 -16.5 188.6 -15.45 187.7 -17.2 186.65 -18.15 L187.85 -18.5 190.3 -16.35 M181.95 -19.15 L181.2 -18.75 180.8 -15.85 177.1 -16.85 177.55 -17.3 177.85 -16.85 178.4 -16.95 Q180.1 -19.5 180.7 -21.8 L181.95 -19.15 M173.65 -17.1 L175.1 -16.6 Q173.3 -16.15 173.3 -14.65 173.3 -14.2 174.2 -13.8 175.6 -13.2 176.85 -11.7 173.85 -9.45 173.85 -8.35 173.85 -5.9 176.5 -5.15 181.6 -3.65 184.3 -1.95 182.95 -1.0 181.45 -0.5 176.8 -4.35 171.5 -6.65 172.65 -7.5 172.85 -8.7 173.8 -14.0 169.55 -17.45 L169.95 -17.3 Q171.8 -16.2 173.65 -17.1 M178.9 0.05 L178.85 0.05 178.85 0.0 178.9 0.05 M171.65 -4.35 Q169.85 -5.1 169.05 -5.85 L169.3 -6.2 Q169.3 -5.6 171.65 -4.35 M166.5 -17.95 L166.05 -18.85 166.35 -18.85 166.5 -17.95 M40.0 104.15 L40.6 104.65 39.95 104.95 40.0 104.15 M18.5 123.8 L18.75 124.2 18.35 124.1 18.5 123.8 M20.9 125.2 Q23.05 121.6 26.9 119.85 28.4 119.2 28.75 117.65 L27.45 112.5 Q33.55 113.3 38.75 110.65 L41.95 108.85 Q43.4 108.05 45.0 107.55 48.95 110.0 50.75 114.55 L47.85 115.8 48.1 114.0 Q48.2 112.7 47.45 112.05 45.1 109.8 42.05 110.85 39.2 111.75 40.2 114.85 36.85 112.55 32.9 113.05 30.35 112.9 29.35 114.9 31.75 117.65 30.7 120.85 26.55 120.6 23.2 122.9 L23.7 125.85 20.9 125.2" fill="#52a001" fill-rule="evenodd" stroke="none"/>
    <path d="M83.0 -41.85 L78.5 -45.2 79.5 -45.35 Q81.25 -44.6 83.0 -41.85 M85.65 -46.85 L85.8 -46.6 Q88.2 -42.35 87.85 -37.65 L85.7 -37.2 85.2 -37.45 Q86.15 -42.0 83.3 -46.95 L83.65 -46.7 83.15 -47.3 83.4 -47.65 85.65 -46.85" fill="#ff6666" fill-rule="evenodd" stroke="none"/>
    <path d="M71.6 -39.0 L71.75 -38.6 Q72.35 -39.1 72.5 -40.1 73.45 -41.4 75.15 -41.75 L78.0 -39.65 Q77.75 -38.05 76.15 -37.6 73.55 -36.65 74.15 -33.75 75.25 -32.95 76.65 -32.65 81.4 -31.75 84.2 -35.4 L84.65 -33.95 Q84.65 -30.45 82.45 -26.95 81.85 -28.15 81.4 -29.7 81.1 -30.8 80.85 -30.1 78.75 -26.3 74.35 -25.05 L73.45 -24.95 Q72.5 -27.9 73.6 -30.85 L72.85 -30.2 73.1 -30.8 Q69.1 -26.9 63.3 -27.6 L65.7 -31.95 67.6 -33.05 Q69.65 -33.1 70.25 -33.5 L71.35 -33.5 69.95 -33.75 63.4 -34.7 Q62.05 -34.9 61.75 -36.15 65.65 -37.35 69.9 -37.0 L68.85 -37.85 Q66.7 -39.35 66.7 -40.1 L67.3 -40.7 71.15 -39.15 71.6 -38.15 71.6 -39.0 M70.75 -40.85 L71.0 -40.85 70.95 -40.55 70.75 -40.85 M72.4 -29.35 L72.25 -28.95 72.15 -29.3 72.4 -29.35 M79.3 -22.45 L79.8 -22.85 80.25 -22.85 79.3 -22.45" fill="#ffe6e6" fill-rule="evenodd" stroke="none"/>
    <path d="M75.15 -41.75 Q73.45 -41.4 72.5 -40.1 72.35 -39.1 71.75 -38.6 L71.6 -39.0 70.95 -40.55 71.0 -40.85 70.75 -40.85 Q70.05 -41.8 68.55 -42.0 L75.15 -41.75 M67.3 -40.7 L66.7 -40.1 Q66.7 -39.35 68.85 -37.85 L67.25 -37.95 Q63.7 -38.15 60.7 -36.7 L60.35 -37.05 Q62.1 -39.35 64.7 -40.8 L67.3 -40.7 M61.75 -36.15 Q62.05 -34.9 63.4 -34.7 L69.95 -33.75 Q68.05 -33.75 66.2 -33.05 60.1 -30.7 61.2 -24.3 59.2 -25.2 58.5 -27.4 56.6 -33.0 61.75 -36.15 M70.25 -33.5 Q69.65 -33.1 67.6 -33.05 L67.9 -33.3 70.25 -33.5 M63.3 -27.6 Q69.1 -26.9 73.1 -30.8 L72.85 -30.2 72.4 -29.35 72.15 -29.3 72.25 -28.95 Q71.1 -25.0 72.5 -21.2 68.15 -21.1 64.1 -22.6 L63.65 -23.6 Q62.7 -25.55 63.3 -27.6 M73.45 -24.95 L74.35 -25.05 Q78.75 -26.3 80.85 -30.1 L81.05 -27.35 Q81.3 -25.25 83.15 -24.65 L80.25 -22.85 79.8 -22.85 79.3 -22.45 75.5 -21.5 Q74.45 -21.9 74.05 -22.65 73.6 -23.65 73.45 -24.95 M82.45 -26.95 Q84.65 -30.45 84.65 -33.95 L84.2 -35.4 Q87.65 -36.2 90.75 -34.75 90.3 -30.05 86.7 -26.95 84.55 -25.0 82.45 -26.95" fill="#ffcccc" fill-rule="evenodd" stroke="none"/>
    <path d="M83.0 -41.85 Q81.25 -44.6 79.5 -45.35 L82.15 -44.35 Q83.1 -42.6 83.0 -41.85 M87.85 -37.65 Q88.2 -42.35 85.8 -46.6 L85.65 -46.85 Q87.45 -45.5 88.45 -43.55 90.0 -40.55 90.6 -37.4 L87.85 -37.65" fill="#cc3333" fill-rule="evenodd" stroke="none"/>
  </g>
</svg>
