<?xml version="1.0" encoding="UTF-8" standalone="no"?>
<svg xmlns:xlink="http://www.w3.org/1999/xlink" height="68.3px" width="54.0px" xmlns="http://www.w3.org/2000/svg">
  <g transform="matrix(1.0, 0.0, 0.0, 1.0, 27.75, 31.15)">
    <path d="M21.2 -14.1 L19.15 -17.4 Q13.2 -26.05 -0.1 -27.9 -10.1 -28.8 -17.25 -20.5 -19.9 -17.45 -21.75 -13.65 -24.6 -7.9 -25.6 -0.45 -26.25 4.55 -25.9 9.15 -25.5 15.7 -22.85 21.25 L-20.6 25.2 Q-15.55 32.75 -6.05 34.4 L-1.65 34.7 Q6.85 34.4 13.7 27.6 16.55 24.75 18.65 21.3 22.05 15.85 23.8 7.7 24.6 3.5 24.5 -0.45 24.5 -7.9 21.2 -14.1 M22.05 -17.5 Q27.95 -7.25 25.6 6.7 23.25 20.2 14.75 29.05 5.7 38.5 -5.5 36.95 -17.8 35.25 -23.65 23.85 -29.05 13.55 -27.35 -0.25 -25.7 -13.9 -18.3 -22.8 -10.25 -32.35 0.6 -30.95 15.45 -29.0 22.05 -17.5" fill="#ffb0d8" fill-rule="evenodd" stroke="none"/>
    <path d="M21.2 -14.1 Q24.5 -7.9 24.5 -0.45 24.6 3.5 23.8 7.7 22.05 15.85 18.65 21.3 16.55 24.75 13.7 27.6 6.85 34.4 -1.65 34.7 L-6.05 34.4 Q-15.55 32.75 -20.6 25.2 L-22.85 21.25 Q-25.5 15.7 -25.9 9.15 -26.25 4.55 -25.6 -0.45 -24.6 -7.9 -21.75 -13.65 -19.9 -17.45 -17.25 -20.5 -10.1 -28.8 -0.1 -27.9 13.2 -26.05 19.15 -17.4 L21.2 -14.1" fill="#ffbedf" fill-rule="evenodd" stroke="none"/>
  </g>
</svg>
