<?xml version="1.0" encoding="UTF-8" standalone="no"?>
<svg xmlns:xlink="http://www.w3.org/1999/xlink" height="69.5px" width="57.55px" xmlns="http://www.w3.org/2000/svg">
  <g transform="matrix(1.0, 0.0, 0.0, 1.0, 29.65, 31.3)">
    <path d="M23.25 -15.25 L20.95 -18.8 Q14.25 -27.55 -0.25 -29.6 -10.95 -30.7 -18.85 -21.85 -21.8 -18.6 -23.9 -14.55 -27.1 -8.35 -28.25 -0.4 -29.05 5.05 -28.6 9.95 -28.1 17.0 -25.15 22.95 L-22.55 27.15 Q-16.9 35.0 -6.6 36.65 L-1.8 36.95 Q7.3 36.65 14.8 29.45 18.0 26.45 20.35 22.8 24.15 16.9 26.2 8.15 27.1 3.55 27.05 -0.65 26.95 -8.7 23.25 -15.25 M23.65 -17.0 Q29.8 -6.5 27.1 7.65 24.4 21.3 15.35 30.15 5.6 39.7 -6.3 37.95 -19.45 36.0 -25.55 24.25 -31.05 13.75 -29.15 -0.3 -27.2 -14.15 -19.4 -23.05 -10.8 -32.65 0.7 -31.05 16.8 -28.85 23.65 -17.0" fill="#ffb0d8" fill-rule="evenodd" stroke="none"/>
    <path d="M23.25 -15.25 Q26.95 -8.7 27.05 -0.65 27.1 3.55 26.2 8.15 24.15 16.9 20.35 22.8 18.0 26.45 14.8 29.45 7.3 36.65 -1.8 36.95 L-6.6 36.65 Q-16.9 35.0 -22.55 27.15 L-25.15 22.95 Q-28.1 17.0 -28.6 9.95 -29.05 5.05 -28.25 -0.4 -27.1 -8.35 -23.9 -14.55 -21.8 -18.6 -18.85 -21.85 -10.95 -30.7 -0.25 -29.6 14.25 -27.55 20.95 -18.8 L23.25 -15.25" fill="#ffb7dc" fill-rule="evenodd" stroke="none"/>
  </g>
</svg>
