<?xml version="1.0" encoding="UTF-8" standalone="no"?>
<svg xmlns:xlink="http://www.w3.org/1999/xlink" height="482.95px" width="761.15px" xmlns="http://www.w3.org/2000/svg">
  <g transform="matrix(1.0, 0.0, 0.0, 1.0, 379.55, 242.5)">
    <path d="M-317.45 240.45 Q-311.35 230.75 -301.3 212.7 -299.25 210.55 -297.05 206.75 -295.15 203.4 -290.25 192.65 L-273.7 163.05 -268.65 154.6 Q-258.6 142.55 -242.85 126.1 -214.35 96.4 -204.85 83.0 L-201.5 78.3 -195.25 71.7 -167.85 42.5 Q-134.05 8.9 -109.65 -16.3 -98.75 -27.55 -90.35 -36.55 L-60.45 -58.95 Q-48.35 -74.7 -14.45 -105.9 12.05 -130.3 39.5 -153.5 79.95 -196.9 102.05 -217.2 119.0 -232.75 132.45 -242.5 L381.6 -242.5 381.6 -59.05 Q374.35 -50.05 366.6 -39.75 L333.95 4.0 Q314.4 29.5 296.55 48.45 L295.05 50.05 Q286.0 55.9 273.7 67.75 267.2 74.0 258.95 82.85 246.65 91.45 240.75 97.6 224.9 113.5 217.35 121.45 204.35 135.2 196.75 146.35 193.8 150.75 180.1 165.8 L152.9 195.55 Q123.1 228.5 117.55 239.3 L117.4 239.45 -55.4 239.45 -55.4 240.45 -148.4 240.45 -146.8 239.65 Q-119.75 226.25 -91.7 203.4 -68.05 184.1 -50.75 164.2 -43.2 155.5 -39.2 149.55 L-38.75 143.45 Q-38.15 140.4 -36.3 137.85 L-35.25 136.75 -35.95 134.95 Q-38.25 130.6 -43.5 130.6 -48.1 130.6 -74.3 158.8 -103.35 190.05 -109.0 193.85 -119.8 201.2 -136.25 210.45 L-164.85 226.1 Q-167.85 227.7 -177.25 230.65 L-194.7 236.15 Q-201.35 238.35 -206.0 240.45 L-317.45 240.45" fill="#eb8d46" fill-rule="evenodd" stroke="none"/>
    <path d="M-213.35 -117.15 L-213.2 -124.1 Q-212.5 -129.0 -209.35 -132.5 -200.25 -142.5 -170.0 -142.5 -147.25 -142.5 -139.7 -134.75 -136.5 -131.45 -136.5 -126.15 -136.5 -121.5 -139.0 -116.55 -141.5 -111.55 -141.5 -104.0 -141.5 -102.45 -144.15 -98.35 -146.9 -94.05 -150.75 -89.75 -160.85 -78.5 -167.85 -78.5 -176.4 -78.5 -178.5 -84.85 -179.0 -86.4 -179.5 -90.1 -179.9 -93.15 -180.6 -94.25 -182.85 -93.6 -186.25 -91.6 -188.1 -90.5 -193.85 -90.5 -208.55 -90.5 -212.35 -103.25 -213.6 -107.3 -213.6 -112.35 L-213.35 -117.15 M-167.35 -122.25 L-187.25 -122.0 Q-178.45 -120.85 -167.35 -122.25 M-285.35 -5.5 Q-277.85 -5.5 -275.85 1.5 -274.85 5.05 -275.35 8.6 -286.35 72.35 -300.35 72.35 -307.85 72.35 -309.85 65.4 -310.45 63.2 -310.45 60.55 L-310.35 58.25 Q-310.35 50.4 -306.7 42.9 -301.5 32.1 -299.6 25.0 -298.3 19.95 -297.45 12.75 L-296.2 3.1 Q-295.25 -1.3 -293.05 -3.25 -290.5 -5.5 -285.35 -5.5 M-227.8 32.25 Q-226.35 34.9 -226.35 37.5 -226.35 42.6 -229.2 45.05 -231.1 46.65 -236.8 48.5 -243.95 50.75 -247.8 52.75 -254.9 56.45 -260.85 62.85 -262.4 64.55 -270.8 77.4 -279.65 89.35 -285.35 89.35 -292.0 89.35 -294.35 83.9 -295.1 82.15 -295.3 80.1 L-295.35 78.25 Q-295.35 75.3 -290.15 67.25 -284.45 58.5 -276.55 50.15 -255.0 27.5 -236.35 27.5 -230.35 27.5 -227.8 32.25" fill="#f59750" fill-rule="evenodd" stroke="none"/>
    <path d="M295.05 50.05 Q303.85 44.35 309.5 44.35 314.2 44.35 316.3 48.15 317.5 50.4 317.5 52.6 L311.3 58.75 Q312.45 59.7 313.3 61.05 318.4 58.6 322.5 58.6 340.65 58.6 344.7 73.65 346.75 81.3 345.0 90.1 353.45 99.15 361.1 106.25 367.3 112.0 367.95 112.9 369.4 114.75 369.35 117.85 L369.0 129.0 Q369.0 130.1 369.75 134.35 370.5 138.55 370.5 140.6 370.5 144.35 372.0 151.5 372.0 155.05 370.3 159.3 367.15 167.05 358.35 177.2 L353.55 182.45 337.35 198.35 331.25 204.4 Q325.8 209.85 322.75 213.35 311.65 226.3 297.7 240.45 L117.0 240.45 Q117.2 239.9 117.55 239.3 123.1 228.5 152.9 195.55 L180.1 165.8 Q193.8 150.75 196.75 146.35 204.35 135.2 217.35 121.45 224.9 113.5 240.75 97.6 246.65 91.45 258.95 82.85 267.2 74.0 273.7 67.75 286.0 55.9 295.05 50.05" fill="#d67831" fill-rule="evenodd" stroke="none"/>
    <path d="M331.25 204.4 L337.35 198.35 353.55 182.45 358.35 177.2 Q360.3 185.15 364.8 198.6 L365.65 201.25 Q373.05 202.35 376.0 211.3 377.65 216.4 377.5 221.75 377.5 227.65 374.25 232.65 369.85 239.35 361.5 239.35 358.5 239.35 351.2 231.9 344.5 225.0 344.5 224.25 344.5 220.7 345.4 217.25 L331.25 204.4" fill="#c76922" fill-rule="evenodd" stroke="none"/>
    <path d="M-379.3 -170.1 Q-379.2 -175.2 -378.8 -177.2 -377.05 -186.25 -370.35 -186.25 -368.35 -186.25 -366.8 -184.9 -363.2 -184.55 -361.55 -182.35 -359.5 -179.6 -356.35 -179.5 -349.6 -179.3 -348.2 -175.7 -347.7 -174.35 -347.1 -174.3 -346.05 -174.15 -342.85 -175.75 L-342.35 -175.95 Q-341.85 -175.8 -341.85 -174.25 -341.85 -173.0 -342.85 -170.3 -343.85 -167.65 -343.85 -166.4 -343.85 -164.1 -345.0 -160.8 -346.5 -156.5 -348.85 -156.25 -352.15 -155.95 -357.4 -153.15 -362.3 -150.5 -365.35 -150.5 -369.6 -150.5 -372.4 -152.25 -377.65 -153.35 -379.05 -158.5 L-379.35 -159.8 -379.55 -163.35 -379.35 -166.3 -379.3 -170.1" fill="#fc9e57" fill-rule="evenodd" stroke="none"/>
    <path d="M-379.35 50.6 L-376.45 44.45 Q-356.85 3.5 -352.1 -3.25 -311.35 -61.7 -275.6 -103.0 -255.7 -126.05 -225.45 -157.55 -191.25 -193.15 -159.45 -223.1 L-138.4 -242.5 132.45 -242.5 Q119.0 -232.75 102.05 -217.2 79.95 -196.9 39.5 -153.5 12.05 -130.3 -14.45 -105.9 -48.35 -74.7 -60.45 -58.95 L-90.35 -36.55 Q-98.75 -27.55 -109.65 -16.3 -134.05 8.9 -167.85 42.5 L-195.25 71.7 -201.5 78.3 -204.85 83.0 Q-214.35 96.4 -242.85 126.1 -258.6 142.55 -268.65 154.6 L-273.7 163.05 -290.25 192.65 Q-295.15 203.4 -297.05 206.75 -299.25 210.55 -301.3 212.7 -311.35 230.75 -317.45 240.45 L-379.35 240.45 -379.35 50.6 M-285.35 -5.5 Q-290.5 -5.5 -293.05 -3.25 -295.25 -1.3 -296.2 3.1 L-297.45 12.75 Q-298.3 19.95 -299.6 25.0 -301.5 32.1 -306.7 42.9 -310.35 50.4 -310.35 58.25 L-310.45 60.55 Q-310.45 63.2 -309.85 65.4 -307.85 72.35 -300.35 72.35 -286.35 72.35 -275.35 8.6 -274.85 5.05 -275.85 1.5 -277.85 -5.5 -285.35 -5.5 M-167.35 -122.25 Q-178.45 -120.85 -187.25 -122.0 L-167.35 -122.25 M-213.35 -117.15 L-213.6 -112.35 Q-213.6 -107.3 -212.35 -103.25 -208.55 -90.5 -193.85 -90.5 -188.1 -90.5 -186.25 -91.6 -182.85 -93.6 -180.6 -94.25 -179.9 -93.15 -179.5 -90.1 -179.0 -86.4 -178.5 -84.85 -176.4 -78.5 -167.85 -78.5 -160.85 -78.5 -150.75 -89.75 -146.9 -94.05 -144.15 -98.35 -141.5 -102.45 -141.5 -104.0 -141.5 -111.55 -139.0 -116.55 -136.5 -121.5 -136.5 -126.15 -136.5 -131.45 -139.7 -134.75 -147.25 -142.5 -170.0 -142.5 -200.25 -142.5 -209.35 -132.5 -212.5 -129.0 -213.2 -124.1 L-213.35 -117.15 M-227.8 32.25 Q-230.35 27.5 -236.35 27.5 -255.0 27.5 -276.55 50.15 -284.45 58.5 -290.15 67.25 -295.35 75.3 -295.35 78.25 L-295.3 80.1 Q-295.1 82.15 -294.35 83.9 -292.0 89.35 -285.35 89.35 -279.65 89.35 -270.8 77.4 -262.4 64.55 -260.85 62.85 -254.9 56.45 -247.8 52.75 -243.95 50.75 -236.8 48.5 -231.1 46.65 -229.2 45.05 -226.35 42.6 -226.35 37.5 -226.35 34.9 -227.8 32.25" fill="#f59750" fill-rule="evenodd" stroke="none"/>
    <path d="M295.05 50.05 L296.55 48.45 Q314.4 29.5 333.95 4.0 L366.6 -39.75 Q374.35 -50.05 381.6 -59.05 L381.6 143.6 Q377.05 150.5 370.3 159.3 372.0 155.05 372.0 151.5 370.5 144.35 370.5 140.6 370.5 138.55 369.75 134.35 369.0 130.1 369.0 129.0 L369.35 117.85 Q369.4 114.75 367.95 112.9 367.3 112.0 361.1 106.25 353.45 99.15 345.0 90.1 346.75 81.3 344.7 73.65 340.65 58.6 322.5 58.6 318.4 58.6 313.3 61.05 312.45 59.7 311.3 58.75 L317.5 52.6 Q317.5 50.4 316.3 48.15 314.2 44.35 309.5 44.35 303.85 44.35 295.05 50.05" fill="#d67831" fill-rule="evenodd" stroke="none"/>
    <path d="M-379.35 -159.8 L-379.05 -158.5 Q-377.65 -153.35 -372.4 -152.25 -369.6 -150.5 -365.35 -150.5 -362.3 -150.5 -357.4 -153.15 -352.15 -155.95 -348.85 -156.25 -346.5 -156.5 -345.0 -160.8 -343.85 -164.1 -343.85 -166.4 -343.85 -167.65 -342.85 -170.3 -341.85 -173.0 -341.85 -174.25 -341.85 -175.8 -342.35 -175.95 L-342.85 -175.75 Q-346.05 -174.15 -347.1 -174.3 -347.7 -174.35 -348.2 -175.7 -349.6 -179.3 -356.35 -179.5 -359.5 -179.6 -361.55 -182.35 -363.2 -184.55 -366.8 -184.9 -368.35 -186.25 -370.35 -186.25 -377.05 -186.25 -378.8 -177.2 -379.2 -175.2 -379.3 -170.1 L-379.35 -242.5 -138.4 -242.5 -159.45 -223.1 Q-191.25 -193.15 -225.45 -157.55 -255.7 -126.05 -275.6 -103.0 -311.35 -61.7 -352.1 -3.25 -356.85 3.5 -376.45 44.45 L-379.35 50.6 -379.35 -159.8" fill="#fc9e57" fill-rule="evenodd" stroke="none"/>
    <path d="M-206.0 240.45 Q-201.35 238.35 -194.7 236.15 L-177.25 230.65 Q-167.85 227.7 -164.85 226.1 L-136.25 210.45 Q-119.8 201.2 -109.0 193.85 -103.35 190.05 -74.3 158.8 -48.1 130.6 -43.5 130.6 -38.25 130.6 -35.95 134.95 L-35.25 136.75 -36.3 137.85 Q-38.15 140.4 -38.75 143.45 L-39.2 149.55 Q-43.2 155.5 -50.75 164.2 -68.05 184.1 -91.7 203.4 -119.75 226.25 -146.8 239.65 L-148.4 240.45 -206.0 240.45" fill="#eb8d46" fill-rule="evenodd" stroke="none"/>
    <path d="M297.7 240.45 Q311.65 226.3 322.75 213.35 325.8 209.85 331.25 204.4 L345.4 217.25 Q344.5 220.7 344.5 224.25 344.5 225.0 351.2 231.9 358.5 239.35 361.5 239.35 369.85 239.35 374.25 232.65 377.5 227.65 377.5 221.75 377.65 216.4 376.0 211.3 373.05 202.35 365.65 201.25 L364.8 198.6 Q360.3 185.15 358.35 177.2 367.15 167.05 370.3 159.3 377.05 150.5 381.6 143.6 L381.6 240.45 297.7 240.45" fill="#c76922" fill-rule="evenodd" stroke="none"/>
  </g>
</svg>
