<?xml version="1.0" encoding="UTF-8" standalone="no"?>
<svg xmlns:xlink="http://www.w3.org/1999/xlink" height="84.9px" width="479.95px" xmlns="http://www.w3.org/2000/svg">
  <g transform="matrix(1.0, 0.0, 0.0, 1.0, -0.75, -0.5)">
    <path d="M467.1 7.45 Q477.65 10.85 480.0 21.8 483.4 37.75 470.6 47.65 467.5 50.05 463.8 50.85 456.7 52.5 451.1 57.2 443.6 63.5 434.15 64.5 427.1 64.55 420.25 65.7 414.4 66.35 408.95 68.35 378.2 79.45 346.6 72.9 L344.65 73.05 Q328.3 77.55 311.6 81.2 306.6 82.1 301.75 83.4 287.0 87.15 273.55 81.4 L271.4 81.0 Q257.4 81.0 243.55 83.7 224.7 87.1 205.8 83.65 191.25 80.85 176.75 78.85 171.35 78.4 166.15 79.5 139.4 85.65 115.4 72.6 105.4 67.1 93.85 66.5 82.05 66.1 71.25 61.45 69.0 60.45 67.15 58.95 53.9 48.5 37.2 49.05 17.1 50.45 4.2 35.2 1.65 32.2 1.05 28.25 -1.0 14.95 10.5 7.85 14.25 5.55 18.3 4.45 32.0 1.0 46.2 1.05 L52.25 1.9 52.5 2.25 51.75 2.25 51.55 3.9 Q31.5 4.4 14.15 13.6 12.15 14.65 10.6 16.35 2.4 25.7 9.8 35.75 12.15 38.95 15.75 40.7 27.55 46.3 40.6 44.1 46.85 43.15 52.25 46.95 55.5 49.2 59.1 51.0 83.3 63.2 110.15 67.35 112.95 67.65 115.65 68.7 140.35 78.9 167.05 75.85 171.0 75.2 174.85 75.7 217.1 82.7 259.55 76.6 261.85 76.15 264.2 76.65 285.8 81.0 307.0 75.55 328.15 70.25 350.0 68.75 367.85 68.1 385.75 68.0 391.2 67.95 396.5 66.9 431.9 58.75 465.25 44.0 L468.35 42.25 469.9 40.4 Q474.85 34.7 475.3 27.6 475.35 26.55 474.7 25.55 467.85 14.55 456.5 8.7 455.6 8.2 454.5 8.1 447.85 9.05 441.35 10.6 L441.25 8.25 Q443.2 5.75 446.35 5.45 452.1 4.6 458.15 5.4 461.15 5.8 463.9 7.3 L467.1 7.45" fill="#000000" fill-rule="evenodd" stroke="none"/>
    <path d="M46.2 1.05 Q53.8 -0.25 61.25 1.6 100.3 10.9 140.0 16.5 180.35 21.85 221.4 23.75 249.3 25.15 277.25 23.55 318.45 20.35 359.55 20.5 398.5 20.65 436.65 12.55 L441.25 8.25 441.35 10.6 Q447.85 9.05 454.5 8.1 455.6 8.2 456.5 8.7 467.85 14.55 474.7 25.55 475.35 26.55 475.3 27.6 474.85 34.7 469.9 40.4 467.65 42.55 465.25 44.0 431.9 58.75 396.5 66.9 391.2 67.95 385.75 68.0 367.85 68.1 350.0 68.75 328.15 70.25 307.0 75.55 285.8 81.0 264.2 76.65 261.85 76.15 259.55 76.6 217.1 82.7 174.85 75.7 171.0 75.2 167.05 75.85 140.35 78.9 115.65 68.7 112.95 67.65 110.15 67.35 83.3 63.2 59.1 51.0 55.5 49.2 52.25 46.95 46.85 43.15 40.6 44.1 27.55 46.3 15.75 40.7 12.15 38.95 9.8 35.75 2.4 25.7 10.6 16.35 12.15 14.65 14.15 13.6 31.5 4.4 51.55 3.9 L51.75 2.25 52.5 2.25 52.25 1.9 46.2 1.05 M458.15 5.4 Q463.05 4.4 467.1 7.45 L463.9 7.3 Q461.15 5.8 458.15 5.4" fill="#c68600" fill-rule="evenodd" stroke="none"/>
  </g>
</svg>
