<?xml version="1.0" encoding="UTF-8" standalone="no"?>
<svg xmlns:xlink="http://www.w3.org/1999/xlink" height="482.6px" width="534.45px" xmlns="http://www.w3.org/2000/svg">
  <g transform="matrix(1.0, 0.0, 0.0, 1.0, 187.35, 242.05)">
    <path d="M182.45 -235.6 L201.35 -234.25 Q212.9 -232.8 219.8 -225.85 226.65 -218.9 231.35 -210.15 236.0 -201.4 236.3 -202.65 237.6 -201.45 239.1 -201.45 L239.9 -201.8 Q248.7 -202.45 256.35 -197.95 264.55 -193.1 267.45 -183.95 268.25 -181.35 268.2 -178.7 L268.4 -175.85 268.8 -172.3 Q270.2 -158.45 261.05 -148.05 255.7 -142.0 247.5 -140.8 238.75 -139.7 231.95 -145.85 236.05 -157.45 231.65 -169.1 L231.15 -168.35 230.6 -168.15 Q230.0 -165.7 228.3 -163.7 225.4 -160.35 221.5 -158.05 214.75 -154.0 207.7 -150.95 197.75 -146.55 187.05 -146.5 164.9 -146.45 148.3 -160.95 L145.9 -173.55 145.0 -173.0 Q140.15 -173.75 136.4 -170.85 134.2 -169.15 131.65 -168.05 119.3 -162.8 105.6 -162.6 91.05 -161.6 78.3 -168.2 71.45 -178.1 76.0 -189.3 79.65 -198.15 87.25 -203.9 L91.85 -206.65 Q97.1 -209.3 102.95 -210.1 L109.65 -210.1 132.4 -208.7 135.05 -208.2 135.2 -206.95 138.1 -206.8 Q139.4 -207.0 140.5 -207.7 141.4 -208.2 141.85 -209.3 L141.05 -212.0 Q146.75 -223.5 158.45 -229.0 165.95 -232.55 174.2 -234.1 L182.45 -235.6 M141.95 -158.0 L144.5 -160.5 144.75 -159.75 141.95 -158.0 M144.85 -151.4 Q144.55 -153.05 145.6 -153.95 L146.65 -153.65 147.6 -152.9 153.4 -144.0 154.55 -142.35 154.4 -141.9 159.4 -138.0 Q170.2 -129.8 183.75 -129.8 L187.15 -129.9 190.9 -129.85 Q193.25 -129.85 199.35 -131.55 L203.95 -132.5 Q199.2 -123.1 199.65 -112.55 L200.45 -92.4 Q200.65 -87.75 201.6 -83.35 171.55 -80.7 142.45 -88.25 132.9 -90.75 126.3 -98.05 L126.65 -98.35 Q124.85 -99.75 124.3 -102.15 L123.7 -102.6 122.0 -103.1 121.15 -102.3 121.8 -103.2 121.45 -103.6 Q129.55 -109.6 136.6 -123.0 144.1 -137.35 144.65 -146.9 L145.05 -146.5 144.85 -151.4 M150.0 -4.5 Q141.45 -5.1 133.3 -7.4 L133.3 -6.25 135.9 -5.15 Q142.2 -2.6 148.8 -1.65 147.3 2.25 144.15 5.1 139.45 9.3 135.45 14.1 127.55 16.75 117.35 16.85 L117.2 16.2 Q123.05 8.5 124.95 4.25 127.15 -0.65 127.15 -6.95 L127.0 -12.6 Q126.6 -15.9 125.2 -17.05 L133.15 -16.0 Q137.6 -12.55 143.6 -12.55 L153.15 -12.6 150.0 -4.5 M159.95 29.4 Q166.55 50.3 177.35 69.05 178.35 70.85 179.95 72.3 161.2 76.4 141.75 76.35 L114.9 76.45 Q102.7 76.55 90.45 74.75 79.2 72.85 68.95 67.65 59.7 63.1 51.0 57.5 64.0 43.85 77.55 30.9 85.45 23.35 93.65 16.2 102.0 8.9 111.5 3.25 107.25 9.3 104.15 15.8 103.75 16.65 103.85 17.6 104.35 22.4 109.15 23.65 123.5 27.25 138.05 24.0 147.7 21.8 155.3 15.65 L159.9 29.4 159.95 29.4" fill="#ffffff" fill-rule="evenodd" stroke="none"/>
    <path d="M236.3 -202.65 Q236.0 -201.4 231.35 -210.15 226.65 -218.9 219.8 -225.85 212.9 -232.8 201.35 -234.25 L182.45 -235.6 Q199.0 -237.35 215.2 -234.05 225.25 -231.85 231.95 -224.45 234.15 -221.9 235.15 -218.7 237.6 -210.75 236.3 -202.65 M78.3 -168.2 Q91.05 -161.6 105.6 -162.6 119.3 -162.8 131.65 -168.05 134.2 -169.15 136.4 -170.85 140.15 -173.75 145.0 -173.0 142.6 -167.45 144.15 -161.7 L144.5 -160.5 141.95 -158.0 Q121.45 -149.1 99.35 -153.65 85.8 -156.55 78.3 -168.2 M148.3 -160.95 Q164.9 -146.45 187.05 -146.5 197.75 -146.55 207.7 -150.95 214.75 -154.0 221.5 -158.05 225.4 -160.35 228.3 -163.7 230.0 -165.7 230.6 -168.15 L231.15 -168.35 231.65 -169.1 Q236.05 -157.45 231.95 -145.85 238.75 -139.7 247.5 -140.8 255.7 -142.0 261.05 -148.05 270.2 -158.45 268.8 -172.3 L268.4 -175.85 268.2 -178.7 Q268.25 -181.35 267.45 -183.95 264.55 -193.1 256.35 -197.95 248.7 -202.45 239.9 -201.8 L242.3 -203.85 Q242.1 -206.05 244.4 -206.05 250.9 -206.1 257.15 -204.65 259.85 -203.9 262.3 -202.5 268.75 -198.8 270.2 -191.5 271.9 -182.7 272.85 -173.6 273.8 -164.5 273.5 -155.55 L273.9 -155.15 Q271.65 -147.15 264.85 -142.15 261.8 -139.85 258.4 -138.5 245.9 -133.65 232.35 -133.7 L229.9 -134.5 229.7 -134.05 Q227.35 -135.25 226.5 -137.7 L224.6 -143.3 Q219.75 -142.0 214.9 -140.1 204.4 -136.3 193.2 -135.65 180.5 -134.35 168.4 -137.8 164.55 -138.8 161.3 -141.05 150.75 -148.35 148.3 -160.95 M146.65 -153.65 L147.1 -153.85 147.6 -152.9 146.65 -153.65 M153.4 -144.0 Q156.05 -140.75 159.4 -138.0 L154.4 -141.9 154.55 -142.35 153.4 -144.0 M187.15 -129.9 L199.35 -131.55 Q193.25 -129.85 190.9 -129.85 L187.15 -129.9 M203.95 -132.5 Q212.55 -133.9 220.9 -137.25 L223.05 -134.2 Q225.1 -131.65 227.75 -130.1 225.5 -126.05 224.4 -121.45 220.75 -106.25 224.55 -91.25 L223.7 -90.7 Q213.5 -84.85 201.6 -83.35 200.65 -87.75 200.45 -92.4 L199.65 -112.55 Q199.2 -123.1 203.95 -132.5 M144.65 -146.9 L144.85 -151.4 145.05 -146.5 144.65 -146.9 M150.0 -4.5 L153.15 -12.6 143.6 -12.55 Q137.6 -12.55 133.15 -16.0 143.75 -14.8 154.0 -16.3 155.8 -16.45 156.1 -18.2 L162.05 -18.45 Q161.7 -15.6 160.9 -13.0 159.4 -8.35 156.8 -4.15 L150.0 -4.5 M135.45 14.1 Q139.45 9.3 144.15 5.1 147.3 2.25 148.8 -1.65 L154.75 -1.3 Q154.25 0.15 153.05 1.35 L145.1 8.9 Q140.8 12.55 135.45 14.1" fill="#cccccc" fill-rule="evenodd" stroke="none"/>
    <path d="M182.45 -235.6 L174.2 -234.1 Q165.95 -232.55 158.45 -229.0 146.75 -223.5 141.05 -212.0 L141.85 -209.3 Q141.4 -208.2 140.5 -207.7 139.4 -207.0 138.1 -206.8 L135.2 -206.95 135.05 -208.2 132.4 -208.7 109.65 -210.1 102.95 -210.1 Q97.1 -209.3 91.85 -206.65 L87.25 -203.9 Q79.65 -198.15 76.0 -189.3 71.45 -178.1 78.3 -168.2 85.8 -156.55 99.35 -153.65 121.45 -149.1 141.95 -158.0 L144.75 -159.75 144.5 -160.5 144.15 -161.7 Q142.6 -167.45 145.0 -173.0 L145.9 -173.55 148.3 -160.95 Q150.75 -148.35 161.3 -141.05 164.55 -138.8 168.4 -137.8 180.5 -134.35 193.2 -135.65 204.4 -136.3 214.9 -140.1 219.75 -142.0 224.6 -143.3 L226.5 -137.7 Q227.35 -135.25 229.7 -134.05 L229.9 -134.5 232.35 -133.7 Q245.9 -133.65 258.4 -138.5 261.8 -139.85 264.85 -142.15 271.65 -147.15 273.9 -155.15 L274.05 -156.1 273.5 -155.55 Q273.8 -164.5 272.85 -173.6 271.9 -182.7 270.2 -191.5 268.75 -198.8 262.3 -202.5 259.85 -203.9 257.15 -204.65 250.9 -206.1 244.4 -206.05 242.1 -206.05 242.3 -203.85 L239.9 -201.8 239.1 -201.45 Q237.6 -201.45 236.3 -202.65 237.6 -210.75 235.15 -218.7 234.15 -221.9 231.95 -224.45 225.25 -231.85 215.2 -234.05 199.0 -237.35 182.45 -235.6 M24.65 240.55 L14.45 240.55 13.65 239.35 Q6.7 225.45 2.25 210.55 -4.3 188.45 -6.95 165.5 -8.7 150.65 -7.4 135.65 L-5.05 110.55 Q-2.85 88.6 5.85 68.3 -7.45 65.0 -20.45 61.0 -40.8 54.55 -60.35 46.05 -79.7 37.6 -95.3 23.4 -109.45 10.5 -120.9 -4.9 -138.05 -28.05 -153.45 -52.5 L-156.4 -56.85 Q-159.0 -60.45 -158.15 -64.45 L-155.95 -64.6 Q-143.6 -59.35 -131.5 -53.1 -112.2 -43.2 -92.25 -34.75 -64.6 -22.8 -35.3 -15.25 -15.4 -10.0 5.1 -8.25 25.5 -6.5 45.8 -10.4 L62.5 -34.55 75.65 -53.85 Q80.2 -60.6 85.7 -66.75 L117.05 -100.9 116.45 -100.65 Q113.25 -102.0 115.4 -104.95 122.4 -114.4 130.0 -123.4 132.55 -126.4 133.3 -130.1 134.4 -135.8 135.8 -141.45 136.25 -143.35 137.15 -145.1 138.55 -147.7 138.55 -150.9 L128.75 -148.55 115.25 -146.2 Q99.2 -143.6 85.95 -152.8 76.55 -159.3 71.15 -169.2 67.3 -176.3 68.6 -184.4 69.8 -192.2 75.2 -199.4 83.15 -210.2 98.2 -213.8 115.55 -216.8 132.9 -214.65 L137.8 -213.95 Q139.8 -220.2 144.55 -224.7 153.55 -233.25 165.2 -237.25 187.7 -244.95 211.05 -240.35 219.4 -238.65 226.45 -234.25 237.05 -227.65 240.9 -216.0 241.95 -212.75 242.05 -209.3 252.85 -212.55 263.2 -208.3 269.2 -205.7 272.5 -200.1 275.2 -195.7 275.95 -190.55 L276.5 -184.0 Q276.7 -175.05 278.9 -166.35 282.25 -153.4 274.6 -142.75 268.3 -134.05 258.1 -130.7 251.4 -128.5 244.3 -128.05 238.05 -127.7 232.05 -128.85 L226.8 -101.5 Q225.75 -96.1 228.45 -91.65 229.35 -90.2 230.95 -89.4 L230.55 -89.0 229.8 -88.45 229.15 -88.05 228.5 -87.75 227.85 -87.6 223.85 -84.75 Q230.45 -72.25 229.7 -58.05 229.4 -52.8 229.6 -47.45 230.35 -27.8 232.45 -8.15 233.5 1.8 238.35 10.4 245.75 23.6 260.25 28.25 280.35 34.85 297.7 47.05 L298.75 47.7 Q303.9 50.2 308.65 53.4 L313.3 56.55 317.1 59.4 Q322.65 69.6 322.3 81.35 322.2 84.4 321.3 87.25 317.75 98.65 312.75 109.2 L315.25 106.25 Q304.1 126.6 301.0 149.7 300.85 150.7 301.4 151.75 302.85 154.45 305.65 155.45 312.4 157.65 317.7 162.1 L318.4 163.3 Q318.9 165.55 317.1 166.9 309.6 172.2 301.2 175.15 297.9 176.25 294.45 176.6 311.5 199.45 309.45 228.0 309.05 231.8 307.1 240.35 L300.7 240.55 300.5 237.9 300.5 237.4 Q300.75 230.5 299.65 223.9 297.1 208.8 293.75 193.9 292.05 186.35 287.1 180.3 283.15 175.5 276.8 175.0 265.5 174.0 257.5 165.95 253.05 161.1 250.45 155.05 L249.3 152.4 Q244.85 134.0 245.5 114.9 L245.7 110.4 239.65 114.25 238.7 114.8 235.65 116.6 233.25 117.9 230.35 117.15 230.2 115.75 Q232.25 113.1 234.9 111.15 248.1 101.6 262.9 95.2 268.5 92.8 274.4 94.05 275.6 94.25 275.9 95.25 276.15 96.15 276.0 97.05 273.9 99.25 270.75 100.0 L260.15 103.8 259.2 104.15 250.85 107.1 Q253.75 115.75 252.95 124.9 252.25 132.95 253.8 140.8 L255.6 149.1 Q257.9 158.6 266.65 162.7 277.65 167.95 289.9 166.5 300.5 166.25 301.35 165.25 302.05 164.35 302.2 164.35 L303.35 164.1 302.45 163.75 301.1 163.1 Q301.5 163.1 301.5 162.85 L301.55 162.4 Q293.55 157.45 294.7 148.3 295.6 140.85 296.9 133.7 L311.2 93.35 Q312.75 89.0 313.8 84.4 315.85 75.6 312.6 67.15 310.65 59.75 303.95 55.95 300.05 53.8 296.0 52.2 280.95 43.75 264.4 38.0 256.7 35.25 249.95 30.2 L248.8 30.35 242.2 24.55 240.7 29.4 Q237.6 36.4 233.4 43.2 224.25 57.95 218.85 74.15 L218.4 74.45 Q215.15 91.7 217.0 109.15 219.55 133.3 223.75 157.25 225.55 167.3 227.0 177.7 228.4 187.5 230.8 196.85 234.0 209.1 236.6 221.45 237.5 225.75 238.7 229.9 239.3 231.9 240.3 233.75 242.25 237.1 244.6 240.35 L231.4 240.55 225.9 207.75 218.7 171.9 216.1 157.5 216.0 156.85 215.45 153.65 Q213.15 140.75 211.5 127.9 211.25 125.95 211.25 123.65 211.15 106.2 212.65 88.85 L212.5 88.7 Q211.75 84.75 213.2 81.0 L214.25 77.4 214.35 77.25 214.2 77.35 212.8 78.45 207.6 83.2 Q207.5 78.75 209.55 74.75 212.1 69.85 214.3 64.75 222.8 45.3 234.9 27.8 237.25 24.4 239.1 20.75 L237.9 19.05 234.35 12.65 234.0 11.95 234.0 12.8 Q227.15 20.75 219.0 32.4 202.55 55.8 196.0 76.95 195.3 77.4 194.35 77.65 192.45 75.35 192.45 74.4 L192.65 71.9 Q189.5 73.65 183.25 75.3 162.85 80.75 117.9 80.8 77.05 80.75 50.4 63.35 L47.35 61.3 47.2 61.15 Q37.25 54.25 30.5 44.2 L29.05 41.95 18.6 61.75 Q17.7 62.4 16.3 65.7 15.15 68.35 15.0 69.25 L14.45 69.4 Q6.2 88.85 3.6 109.85 1.8 116.35 1.8 118.55 L1.9 120.35 1.35 120.45 Q1.1 134.75 0.0 149.1 -1.2 165.35 4.55 180.45 L7.55 190.4 Q8.8 196.2 11.0 202.5 17.55 221.6 24.65 240.55 M146.65 -153.65 L145.6 -153.95 Q144.55 -153.05 144.85 -151.4 L144.65 -146.9 Q144.1 -137.35 136.6 -123.0 129.55 -109.6 121.45 -103.6 L121.25 -103.45 121.8 -103.2 121.15 -102.3 122.0 -103.1 123.7 -102.6 124.3 -102.15 Q124.85 -99.75 126.65 -98.35 L126.3 -98.05 Q132.9 -90.75 142.45 -88.25 171.55 -80.7 201.6 -83.35 213.5 -84.85 223.7 -90.7 L224.55 -91.25 Q220.75 -106.25 224.4 -121.45 225.5 -126.05 227.75 -130.1 225.1 -131.65 223.05 -134.2 L220.9 -137.25 Q212.55 -133.9 203.95 -132.5 L199.35 -131.55 187.15 -129.9 183.75 -129.8 Q170.2 -129.8 159.4 -138.0 156.05 -140.75 153.4 -144.0 L147.6 -152.9 147.1 -153.85 146.65 -153.65 M39.6 -5.25 Q18.4 -2.3 -3.05 -2.9 L-22.5 -4.35 Q-42.7 -7.3 -61.55 -15.1 L-98.9 -30.7 Q-116.5 -38.0 -133.6 -46.35 L-142.25 -50.7 -149.4 -54.55 Q-135.9 -33.4 -121.4 -13.0 -116.2 -5.65 -109.95 1.15 -95.5 16.9 -77.9 29.0 -68.9 35.1 -59.55 40.7 L-54.0 43.65 Q-33.25 49.25 -12.5 54.25 -1.45 56.8 9.25 60.7 L10.35 58.05 10.5 58.55 15.95 47.0 32.5 15.35 42.25 -2.1 41.85 -2.4 43.85 -5.35 43.55 -5.85 Q41.4 -6.2 39.6 -5.25 M121.5 -96.25 Q106.8 -81.3 94.05 -64.75 L76.35 -42.25 68.65 -31.3 Q56.3 -13.9 47.4 4.9 L45.2 10.65 32.65 34.9 33.35 36.2 34.55 38.35 34.75 38.85 Q37.85 45.55 42.85 50.9 L47.65 55.25 Q50.35 49.65 54.45 45.35 77.35 21.5 103.75 2.0 L103.9 2.6 114.15 -2.45 Q115.7 -6.3 115.85 -10.7 116.05 -15.4 114.3 -19.9 L112.35 -20.65 Q96.95 -26.2 87.7 -39.85 84.35 -44.45 88.25 -48.95 95.85 -57.9 107.4 -59.75 127.75 -60.9 146.4 -52.6 158.0 -47.3 167.2 -38.35 177.0 -38.75 180.8 -29.6 183.65 -22.8 180.8 -15.75 177.65 -7.95 172.6 -1.25 166.1 7.25 157.55 13.95 L158.4 15.8 159.0 15.2 Q165.25 35.65 176.55 53.7 179.85 58.9 182.6 64.2 184.15 67.3 184.1 71.1 L193.7 67.1 Q203.55 41.05 221.75 20.05 L225.25 16.0 232.0 10.75 Q227.45 1.8 226.8 -8.2 L225.95 -15.4 Q223.6 -29.15 223.25 -43.2 222.75 -62.65 215.25 -80.7 L211.4 -79.8 210.4 -79.6 196.8 -78.3 170.5 -79.1 Q150.1 -80.45 131.8 -89.75 128.3 -91.65 125.6 -94.25 L123.05 -97.3 122.35 -96.85 122.1 -97.1 Q121.65 -96.8 121.5 -96.25 M144.8 -66.95 L143.05 -66.3 Q134.65 -72.3 124.2 -72.05 121.35 -71.7 118.85 -70.5 L118.6 -71.2 Q125.0 -76.25 133.1 -75.65 140.5 -75.6 144.35 -69.15 L144.95 -68.15 144.8 -66.95 M157.95 -59.95 Q157.55 -60.15 157.55 -61.6 157.55 -62.8 160.15 -63.9 163.5 -65.35 169.2 -65.35 177.55 -65.35 180.75 -60.7 L182.5 -57.05 Q183.25 -54.85 183.65 -54.35 183.2 -52.95 182.5 -52.25 180.3 -52.95 178.7 -55.35 L175.95 -59.35 Q171.8 -63.75 159.2 -59.75 L157.95 -59.95 M117.4 -90.55 L117.4 -90.5 117.05 -90.2 117.4 -90.55 M166.25 -33.9 L164.4 -35.6 163.95 -35.65 Q149.85 -47.5 132.0 -52.4 124.05 -54.55 115.8 -55.1 105.3 -56.45 96.15 -51.15 L93.0 -48.85 91.1 -46.8 91.0 -46.65 Q89.05 -43.75 91.1 -41.1 96.25 -34.45 103.6 -30.15 114.2 -24.0 126.05 -21.25 137.65 -18.55 149.55 -19.5 157.05 -20.45 163.85 -23.75 L164.9 -26.35 168.25 -24.3 Q169.05 -22.15 167.95 -20.0 166.45 -17.15 165.55 -13.85 160.95 3.45 146.4 13.45 143.15 15.65 139.4 16.95 127.1 21.15 114.1 19.95 L114.1 18.8 114.1 15.05 Q118.5 8.6 122.45 1.65 124.6 -2.2 125.1 -6.4 125.85 -12.95 121.55 -17.85 L118.2 -18.65 119.05 -12.35 119.15 -9.6 119.2 -4.35 Q119.05 -0.2 116.55 3.3 L107.9 14.55 Q105.95 16.9 107.4 19.25 108.65 20.4 110.25 20.55 L122.65 21.55 Q136.85 22.2 148.7 14.45 167.0 2.45 176.4 -17.5 178.65 -21.95 177.15 -26.55 175.3 -32.2 169.6 -34.1 L169.0 -33.15 167.3 -32.85 166.25 -33.9 M148.8 -1.65 Q142.2 -2.6 135.9 -5.15 L133.3 -6.25 133.3 -7.4 Q141.45 -5.1 150.0 -4.5 L156.8 -4.15 Q159.4 -8.35 160.9 -13.0 161.7 -15.6 162.05 -18.45 L156.1 -18.2 Q155.8 -16.45 154.0 -16.3 143.75 -14.8 133.15 -16.0 L125.2 -17.05 Q126.6 -15.9 127.0 -12.6 L127.15 -6.95 Q127.15 -0.65 124.95 4.25 123.05 8.5 117.2 16.2 L116.95 16.9 117.35 16.85 Q127.55 16.75 135.45 14.1 140.8 12.55 145.1 8.9 L153.05 1.35 Q154.25 0.15 154.75 -1.3 L148.8 -1.65 M347.05 -203.85 L347.05 -203.9 347.1 -203.85 347.05 -203.85 M159.9 29.4 L155.3 15.65 Q147.7 21.8 138.05 24.0 123.5 27.25 109.15 23.65 104.35 22.4 103.85 17.6 103.75 16.65 104.15 15.8 107.25 9.3 111.5 3.25 102.0 8.9 93.65 16.2 85.45 23.35 77.55 30.9 64.0 43.85 51.0 57.5 59.7 63.1 68.95 67.65 79.2 72.85 90.45 74.75 102.7 76.55 114.9 76.45 L141.75 76.35 Q161.2 76.4 179.95 72.3 178.35 70.85 177.35 69.05 166.55 50.3 159.95 29.4 L159.9 29.3 159.9 29.4 M80.5 144.75 L77.7 148.85 Q79.45 151.15 81.2 149.1 L82.5 147.65 Q82.8 147.35 83.25 147.15 L87.45 147.3 Q89.75 146.8 89.35 144.5 88.85 141.35 85.65 140.3 81.9 139.1 79.45 142.3 L80.5 144.75 M40.85 147.8 Q35.5 148.85 30.25 150.45 L19.9 153.95 Q25.25 154.3 29.85 157.0 38.8 162.4 48.6 165.25 51.8 166.35 55.1 167.1 76.5 171.15 98.15 168.7 119.4 166.3 140.0 161.1 133.5 161.05 128.9 156.75 127.35 155.35 126.4 153.5 L127.0 153.15 119.95 146.1 119.4 141.95 Q114.95 140.85 112.6 137.4 111.9 136.35 111.75 135.0 111.45 131.9 108.95 130.05 107.95 129.2 106.75 129.2 104.4 129.25 102.05 128.3 94.8 134.65 85.8 137.9 88.75 138.6 90.25 141.4 91.2 143.1 91.0 144.85 L90.8 146.7 Q88.75 148.25 86.15 148.1 84.75 148.35 83.45 149.5 L80.7 151.85 Q79.5 152.05 78.5 151.2 77.65 150.45 76.6 150.05 L76.05 149.95 75.4 150.1 Q75.75 145.65 78.65 142.0 L80.4 139.8 Q60.7 144.15 40.85 147.8 M24.45 149.2 Q28.7 147.45 35.0 146.05 40.95 144.7 70.45 139.85 75.6 139.05 100.65 126.95 99.85 125.75 99.55 124.5 L98.6 124.95 Q99.2 124.05 99.2 123.15 L99.2 123.05 99.3 123.0 99.25 122.55 Q99.25 120.6 101.75 118.35 104.8 115.55 109.2 115.55 112.85 115.55 114.35 116.95 115.85 118.35 120.45 118.35 125.85 118.35 128.15 121.8 130.95 125.85 135.2 126.85 138.75 127.65 140.1 131.05 140.8 132.85 141.25 135.8 147.2 137.95 151.5 153.9 151.5 159.25 145.7 160.65 L145.7 160.8 Q145.7 161.75 123.45 166.8 100.25 172.05 92.2 172.05 71.85 172.05 62.9 171.2 55.35 170.5 50.65 168.6 44.6 166.55 37.3 164.6 31.15 158.95 23.5 157.45 L18.5 156.35 19.3 156.1 14.0 154.95 16.85 152.15 16.7 153.2 24.45 149.2 M61.3 150.1 L62.1 150.35 Q64.15 151.25 63.5 153.5 63.7 155.75 61.8 157.1 L60.75 157.85 58.65 156.0 52.8 156.35 Q51.6 156.35 51.05 155.45 50.4 152.7 52.85 151.4 56.9 149.45 61.3 150.1 M61.7 152.3 L56.85 151.3 56.45 152.0 55.95 152.1 56.1 151.35 Q52.4 151.0 52.25 154.85 54.65 155.75 56.7 154.1 L59.0 154.05 61.85 155.65 61.75 152.4 61.75 152.3 61.7 152.3 M66.45 161.1 Q85.25 161.1 101.2 159.3 L107.65 158.5 107.25 156.9 Q107.25 154.75 108.2 153.85 L108.8 154.3 Q111.55 154.05 112.5 152.7 113.45 151.35 117.95 151.35 122.8 151.35 122.95 157.55 122.95 161.85 121.2 161.85 115.05 161.85 114.5 161.05 113.7 159.8 112.0 159.05 L109.0 159.5 109.0 159.8 108.2 160.35 108.0 159.65 Q82.1 163.55 78.2 163.55 55.25 163.55 48.45 158.55 L49.8 158.35 Q56.5 158.35 59.45 160.1 L60.95 160.75 66.45 161.1 M127.15 128.3 L126.1 126.35 Q121.2 122.35 114.85 123.0 112.5 122.1 110.75 120.25 L109.4 119.4 Q107.75 118.8 106.75 119.9 105.0 121.9 103.5 124.15 104.95 126.85 108.2 126.65 112.0 127.25 114.1 130.25 114.6 130.9 114.65 131.85 114.9 134.95 117.1 137.05 120.15 137.45 121.85 139.95 123.5 142.35 124.45 145.25 126.65 146.6 128.05 148.65 L129.3 150.85 Q131.85 157.45 138.95 157.5 144.2 158.15 147.65 154.55 L139.15 139.1 Q137.85 138.7 137.45 137.5 L137.2 136.25 133.0 131.65 Q129.15 131.5 127.15 128.3 M121.0 160.25 Q122.7 156.75 119.35 154.45 116.5 152.4 113.4 154.35 L113.45 155.35 Q111.35 156.1 109.4 154.85 L109.0 158.3 116.5 157.4 114.7 158.05 Q117.0 161.65 121.0 160.25" fill="#000000" fill-rule="evenodd" stroke="none"/>
    <path d="M234.0 12.8 L234.0 11.95 234.35 12.65 234.0 12.8 M214.2 77.35 L214.35 77.25 214.25 77.4 214.2 77.35 M121.8 -103.2 L121.25 -103.45 121.45 -103.6 121.8 -103.2 M273.9 -155.15 L273.5 -155.55 274.05 -156.1 273.9 -155.15 M122.35 -96.85 L123.05 -97.3 122.5 -96.65 122.35 -96.85 M117.2 16.2 L117.35 16.85 116.95 16.9 117.2 16.2" fill="#eb8d46" fill-rule="evenodd" stroke="none"/>
    <path d="M39.6 -5.25 L39.1 -4.35 40.3 -3.75 38.85 -1.6 40.0 -2.1 40.5 -1.6 41.85 -2.4 42.25 -2.1 32.5 15.35 38.3 1.1 Q17.95 2.7 -2.5 1.3 -23.1 0.45 -43.1 -3.6 -64.6 -7.85 -84.9 -15.95 -103.75 -23.65 -119.45 -36.5 L-122.2 -38.4 Q-128.15 -42.1 -133.6 -46.35 -116.5 -38.0 -98.9 -30.7 L-61.55 -15.1 Q-42.7 -7.3 -22.5 -4.35 L-3.05 -2.9 Q18.4 -2.3 39.6 -5.25 M47.4 4.9 Q56.3 -13.9 68.65 -31.3 L76.35 -42.25 94.05 -64.75 Q106.8 -81.3 121.5 -96.25 L121.45 -95.5 117.4 -90.55 117.05 -90.2 117.4 -90.5 117.6 -90.0 Q117.95 -89.3 118.6 -89.3 119.25 -89.3 119.35 -89.75 122.1 -90.65 122.1 -91.95 L121.85 -93.0 Q121.9 -93.45 123.45 -93.45 124.35 -93.45 125.6 -92.1 126.05 -92.1 126.2 -92.75 L125.6 -94.25 Q128.3 -91.65 131.8 -89.75 127.85 -85.9 122.3 -81.1 113.8 -68.45 107.4 -59.75 95.85 -57.9 88.25 -48.95 84.35 -44.45 87.7 -39.85 85.9 -36.15 81.95 -29.35 77.95 -20.45 70.2 -4.95 50.8 33.75 42.85 50.9 37.85 45.55 34.75 38.85 L34.55 38.35 34.8 37.7 35.1 37.75 37.05 35.75 Q35.95 34.55 35.95 34.15 35.95 33.5 36.8 33.2 37.6 32.85 37.6 32.25 L36.85 31.55 35.45 32.95 35.45 32.7 35.15 33.25 33.45 35.0 33.65 35.75 33.35 36.2 32.65 34.9 45.2 10.65 Q44.7 12.05 44.7 12.6 L45.35 13.4 Q46.4 13.0 46.8 10.9 48.4 9.8 48.7 8.9 50.05 4.65 50.05 2.95 L49.35 2.15 Q48.4 2.95 47.4 4.9" fill="#24bcf0" fill-rule="evenodd" stroke="none"/>
    <path d="M41.85 -2.4 L40.5 -1.6 40.0 -2.1 38.85 -1.6 40.3 -3.75 39.1 -4.35 39.6 -5.25 Q41.4 -6.2 43.55 -5.85 L43.85 -5.35 41.85 -2.4 M121.5 -96.25 Q121.65 -96.8 122.1 -97.1 L122.35 -96.85 122.5 -96.65 123.05 -97.3 125.6 -94.25 126.2 -92.75 Q126.05 -92.1 125.6 -92.1 124.35 -93.45 123.45 -93.45 121.9 -93.45 121.85 -93.0 L122.1 -91.95 Q122.1 -90.65 119.35 -89.75 119.25 -89.3 118.6 -89.3 117.95 -89.3 117.6 -90.0 L117.4 -90.5 117.4 -90.55 121.45 -95.5 121.5 -96.25 M45.2 10.65 L47.4 4.9 Q48.4 2.95 49.35 2.15 L50.05 2.95 Q50.05 4.65 48.7 8.9 48.4 9.8 46.8 10.9 46.4 13.0 45.35 13.4 L44.7 12.6 Q44.7 12.05 45.2 10.65 M34.8 37.7 Q34.2 37.5 33.8 36.4 L33.65 35.75 33.45 35.0 35.15 33.25 35.45 32.95 36.85 31.55 37.6 32.25 Q37.6 32.85 36.8 33.2 35.95 33.5 35.95 34.15 35.95 34.55 37.05 35.75 L35.1 37.75 34.8 37.7" fill="#24bcf0" fill-rule="evenodd" stroke="none"/>
    <path d="M279.85 240.35 L244.6 240.35 Q242.25 237.1 240.3 233.75 239.3 231.9 238.7 229.9 237.5 225.75 236.6 221.45 234.0 209.1 230.8 196.85 228.4 187.5 227.0 177.7 225.55 167.3 223.75 157.25 219.55 133.3 217.0 109.15 215.15 91.7 218.4 74.45 L218.85 74.15 Q224.25 57.95 233.4 43.2 237.6 36.4 240.7 29.4 L240.5 29.9 Q244.7 33.65 251.95 37.5 259.4 41.45 283.35 51.0 289.45 55.6 297.65 60.75 L299.85 62.85 302.4 66.25 Q308.15 73.8 308.15 78.4 308.15 82.75 298.8 108.2 289.4 133.65 289.4 135.4 289.4 142.95 290.2 147.45 290.35 158.65 300.6 163.05 L301.1 163.1 302.45 163.75 302.2 164.35 Q302.05 164.35 301.35 165.25 300.5 166.25 289.9 166.5 L290.45 166.45 Q279.55 164.65 270.6 157.95 265.0 153.75 263.0 146.95 259.5 134.95 262.05 122.9 263.0 118.4 265.25 114.25 268.95 107.5 270.75 100.0 273.9 99.25 276.0 97.05 276.15 96.15 275.9 95.25 275.6 94.25 274.4 94.05 268.5 92.8 262.9 95.2 248.1 101.6 234.9 111.15 232.25 113.1 230.2 115.75 L230.35 117.15 233.25 117.9 235.65 116.6 235.65 116.65 Q235.65 118.2 241.6 135.05 246.75 149.5 249.3 152.4 L250.45 155.05 Q253.05 161.1 257.5 165.95 266.8 184.9 273.8 204.7 275.35 209.1 275.9 213.55 277.65 227.05 279.85 240.35 M-133.6 -46.35 Q-128.15 -42.1 -122.2 -38.4 L-119.45 -36.5 Q-103.75 -23.65 -84.9 -15.95 -64.6 -7.85 -43.1 -3.6 -23.1 0.45 -2.5 1.3 17.95 2.7 38.3 1.1 L32.5 15.35 15.95 47.0 Q-5.3 43.4 -26.0 37.35 -37.0 34.25 -47.7 30.4 -67.25 23.15 -82.55 9.1 -98.15 -5.15 -112.95 -20.4 L-142.25 -50.7 -133.6 -46.35 M131.8 -89.75 Q150.1 -80.45 170.5 -79.1 L196.8 -78.3 200.15 -68.7 Q206.4 -50.1 211.95 -31.25 212.85 -28.1 213.05 -24.9 214.3 -2.95 225.25 16.0 L221.75 20.05 Q203.55 41.05 193.7 67.1 L184.1 71.1 Q184.15 67.3 182.6 64.2 179.85 58.9 176.55 53.7 165.25 35.65 159.0 15.2 L158.4 15.8 157.55 13.95 Q166.1 7.25 172.6 -1.25 177.65 -7.95 180.8 -15.75 183.65 -22.8 180.8 -29.6 177.0 -38.75 167.2 -38.35 158.0 -47.3 146.4 -52.6 127.75 -60.9 107.4 -59.75 113.8 -68.45 122.3 -81.1 127.85 -85.9 131.8 -89.75 M210.4 -79.6 L211.4 -79.8 211.2 -78.25 210.4 -79.6 M87.7 -39.85 Q96.95 -26.2 112.35 -20.65 L114.3 -19.9 Q116.05 -15.4 115.85 -10.7 115.7 -6.3 114.15 -2.45 L103.9 2.6 103.75 2.0 Q77.35 21.5 54.45 45.35 50.35 49.65 47.65 55.25 L42.85 50.9 Q50.8 33.75 70.2 -4.95 77.95 -20.45 81.95 -29.35 85.9 -36.15 87.7 -39.85 M34.55 38.35 L33.35 36.2 33.65 35.75 33.8 36.4 Q34.2 37.5 34.8 37.7 L34.55 38.35 M157.95 -59.95 L159.2 -59.75 Q171.8 -63.75 175.95 -59.35 L178.7 -55.35 Q180.3 -52.95 182.5 -52.25 183.2 -52.95 183.65 -54.35 183.25 -54.85 182.5 -57.05 L180.75 -60.7 Q177.55 -65.35 169.2 -65.35 163.5 -65.35 160.15 -63.9 157.55 -62.8 157.55 -61.6 157.55 -60.15 157.95 -59.95 M144.8 -66.95 L144.95 -68.15 144.35 -69.15 Q140.5 -75.6 133.1 -75.65 125.0 -76.25 118.6 -71.2 L118.85 -70.5 Q121.35 -71.7 124.2 -72.05 134.65 -72.3 143.05 -66.3 L144.8 -66.95 M279.3 145.55 Q277.3 148.7 276.8 152.75 276.55 154.6 277.2 156.35 278.3 159.35 281.4 158.6 281.65 157.3 282.65 156.6 L282.8 156.15 280.05 150.9 Q279.35 149.45 279.9 148.15 280.75 146.3 279.3 145.55 M35.15 33.25 L35.45 32.7 35.45 32.95 35.15 33.25" fill="#0098cc" fill-rule="evenodd" stroke="none"/>
    <path d="M96.15 -51.15 Q105.3 -56.45 115.8 -55.1 124.05 -54.55 132.0 -52.4 149.85 -47.5 163.95 -35.65 L164.4 -35.6 166.25 -33.9 Q165.35 -32.1 163.3 -32.95 156.4 -35.65 149.85 -38.8 130.5 -48.2 108.9 -50.15 L96.15 -51.15" fill="#ffdc31" fill-rule="evenodd" stroke="none"/>
    <path d="M96.15 -51.15 L108.9 -50.15 Q130.5 -48.2 149.85 -38.8 156.4 -35.65 163.3 -32.95 165.35 -32.1 166.25 -33.9 L167.3 -32.85 169.0 -33.15 169.6 -34.1 Q175.3 -32.2 177.15 -26.55 178.65 -21.95 176.4 -17.5 177.1 -20.25 176.1 -22.9 174.95 -26.05 172.05 -27.4 168.05 -29.15 163.75 -27.45 157.45 -24.85 150.8 -24.3 L146.15 -24.8 Q134.0 -26.7 122.1 -30.1 104.8 -35.05 93.0 -48.85 L96.15 -51.15 M107.4 19.25 Q105.95 16.9 107.9 14.55 L116.55 3.3 Q119.05 -0.2 119.2 -4.35 L119.15 -9.6 119.65 -9.0 119.05 -12.35 118.2 -18.65 121.55 -17.85 Q125.85 -12.95 125.1 -6.4 124.6 -2.2 122.45 1.65 118.5 8.6 114.1 15.05 L114.1 18.8 107.3 18.5 107.4 19.25 M91.0 -46.65 L91.1 -46.8 91.2 -46.75 Q91.1 -46.5 91.0 -46.65 M122.15 -16.2 L121.3 -16.75 121.8 -15.6 122.15 -16.2 M121.85 -8.45 Q121.0 -8.75 121.25 -8.35 L121.85 -8.45" fill="#ffb309" fill-rule="evenodd" stroke="none"/>
    <path d="M176.4 -17.5 Q167.0 2.45 148.7 14.45 136.85 22.2 122.65 21.55 L110.25 20.55 Q108.65 20.4 107.4 19.25 L107.3 18.5 114.1 18.8 114.1 19.95 Q127.1 21.15 139.4 16.95 143.15 15.65 146.4 13.45 160.95 3.45 165.55 -13.85 166.45 -17.15 167.95 -20.0 169.05 -22.15 168.25 -24.3 L164.9 -26.35 163.85 -23.75 Q157.05 -20.45 149.55 -19.5 137.65 -18.55 126.05 -21.25 114.2 -24.0 103.6 -30.15 96.25 -34.45 91.1 -41.1 89.05 -43.75 91.0 -46.65 91.1 -46.5 91.2 -46.75 L91.1 -46.8 93.0 -48.85 Q104.8 -35.05 122.1 -30.1 134.0 -26.7 146.15 -24.8 L150.8 -24.3 Q157.45 -24.85 163.75 -27.45 168.05 -29.15 172.05 -27.4 174.95 -26.05 176.1 -22.9 177.1 -20.25 176.4 -17.5 M119.15 -9.6 L119.05 -12.35 119.65 -9.0 119.15 -9.6 M122.15 -16.2 L121.8 -15.6 121.3 -16.75 122.15 -16.2 M121.85 -8.45 L121.25 -8.35 Q121.0 -8.75 121.85 -8.45" fill="#f99108" fill-rule="evenodd" stroke="none"/>
    <path d="M297.6 240.35 L279.85 240.35 Q277.65 227.05 275.9 213.55 275.35 209.1 273.8 204.7 266.8 184.9 257.5 165.95 265.5 174.0 276.8 175.0 283.15 175.5 287.1 180.3 292.05 186.35 293.75 193.9 297.1 208.8 299.65 223.9 300.75 230.5 300.5 237.4 L300.35 237.55 Q299.2 236.05 298.45 234.2 297.95 232.9 298.9 233.15 L298.1 231.75 297.3 231.75 297.05 233.3 Q296.4 237.0 297.85 240.1 L297.6 240.35 M196.8 -78.3 L210.4 -79.6 211.2 -78.25 211.4 -79.8 215.25 -80.7 Q222.75 -62.65 223.25 -43.2 223.6 -29.15 225.95 -15.4 L226.8 -8.2 Q227.45 1.8 232.0 10.75 L225.25 16.0 Q214.3 -2.95 213.05 -24.9 212.85 -28.1 211.95 -31.25 206.4 -50.1 200.15 -68.7 L196.8 -78.3 M240.7 29.4 L242.2 24.55 248.8 30.35 249.95 30.2 Q256.7 35.25 264.4 38.0 280.95 43.75 296.0 52.2 L295.6 52.45 295.45 52.9 296.05 54.15 295.15 54.5 298.55 56.35 298.15 56.65 301.75 58.05 300.75 58.15 Q299.9 59.1 301.15 59.7 L305.35 61.35 304.7 61.45 Q309.6 66.75 312.1 72.9 313.75 70.4 312.6 67.15 315.85 75.6 313.8 84.4 312.75 89.0 311.2 93.35 L296.9 133.7 296.95 131.0 Q296.15 130.5 296.2 131.65 L296.0 133.8 293.4 144.25 293.55 142.2 293.4 142.05 293.15 142.15 Q293.6 140.8 292.8 139.75 L291.9 142.05 291.8 138.25 Q289.75 142.55 290.2 147.45 289.4 142.95 289.4 135.4 289.4 133.65 298.8 108.2 308.15 82.75 308.15 78.4 308.15 73.8 302.4 66.25 L299.85 62.85 297.65 60.75 Q289.45 55.6 283.35 51.0 259.4 41.45 251.95 37.5 244.7 33.65 240.5 29.9 L240.7 29.4 M270.75 100.0 Q268.95 107.5 265.25 114.25 263.0 118.4 262.05 122.9 259.5 134.95 263.0 146.95 265.0 153.75 270.6 157.95 279.55 164.65 290.45 166.45 L289.9 166.5 Q277.65 167.95 266.65 162.7 257.9 158.6 255.6 149.1 L253.8 140.8 Q252.25 132.95 252.95 124.9 253.75 115.75 250.85 107.1 L259.2 104.15 258.65 104.5 257.65 105.25 257.6 107.55 258.05 107.8 259.15 107.55 258.9 107.0 261.8 104.65 Q261.1 103.65 260.15 103.8 L270.75 100.0 M238.7 114.8 Q237.95 115.75 238.75 116.8 L238.95 117.1 Q240.15 117.65 241.35 116.7 241.95 115.25 241.15 114.05 L239.65 114.25 245.7 110.4 245.5 114.9 Q244.85 134.0 249.3 152.4 246.75 149.5 241.6 135.05 235.65 118.2 235.65 116.65 L235.65 116.6 238.7 114.8 M15.95 47.0 L10.5 58.55 10.35 58.05 9.25 60.7 Q-1.45 56.8 -12.5 54.25 -33.25 49.25 -54.0 43.65 L-59.55 40.7 Q-68.9 35.1 -77.9 29.0 -95.5 16.9 -109.95 1.15 -116.2 -5.65 -121.4 -13.0 -135.9 -33.4 -149.4 -54.55 L-142.25 -50.7 -112.95 -20.4 Q-98.15 -5.15 -82.55 9.1 -67.25 23.15 -47.7 30.4 -37.0 34.25 -26.0 37.35 -5.3 43.4 15.95 47.0" fill="#00669a" fill-rule="evenodd" stroke="none"/>
    <path d="M302.2 164.35 L302.45 163.75 303.35 164.1 302.2 164.35" fill="#d67831" fill-rule="evenodd" stroke="none"/>
    <path d="M300.7 240.55 L298.05 240.35 297.85 240.1 Q296.4 237.0 297.05 233.3 L297.3 231.75 298.1 231.75 298.9 233.15 Q297.95 232.9 298.45 234.2 299.2 236.05 300.35 237.55 L300.5 237.9 300.7 240.55 M290.2 147.45 Q289.75 142.55 291.8 138.25 L291.9 142.05 292.8 139.75 Q293.6 140.8 293.15 142.15 L293.4 142.05 293.55 142.2 293.4 144.25 296.0 133.8 296.2 131.65 Q296.15 130.5 296.95 131.0 L296.9 133.7 Q295.6 140.85 294.7 148.3 293.55 157.45 301.55 162.4 L301.5 162.85 Q301.5 163.1 301.1 163.1 L300.6 163.05 Q290.35 158.65 290.2 147.45 M312.6 67.15 Q313.75 70.4 312.1 72.9 309.6 66.75 304.7 61.45 L305.35 61.35 301.15 59.7 Q299.9 59.1 300.75 58.15 L301.75 58.05 298.15 56.65 298.55 56.35 295.15 54.5 296.05 54.15 295.45 52.9 295.6 52.45 296.0 52.2 Q300.05 53.8 303.95 55.95 310.65 59.75 312.6 67.15 M239.65 114.25 L241.15 114.05 Q241.95 115.25 241.35 116.7 240.15 117.65 238.95 117.1 L238.75 116.8 Q237.95 115.75 238.7 114.8 L239.65 114.25 M260.15 103.8 Q261.1 103.65 261.8 104.65 L258.9 107.0 259.15 107.55 258.05 107.8 257.6 107.55 257.65 105.25 258.65 104.5 259.2 104.15 260.15 103.8" fill="#00669a" fill-rule="evenodd" stroke="none"/>
    <path d="M148.65 240.55 L27.5 240.55 Q24.25 229.25 23.4 217.5 L21.35 191.2 Q21.05 187.85 21.25 184.2 21.95 170.8 23.5 157.45 31.15 158.95 37.3 164.6 44.6 166.55 50.65 168.6 55.35 170.5 62.9 171.2 71.85 172.05 92.2 172.05 100.25 172.05 123.45 166.8 145.7 161.75 145.7 160.8 L145.7 160.65 Q151.5 159.25 151.5 153.9 147.2 137.95 141.25 135.8 140.8 132.85 140.1 131.05 138.75 127.65 135.2 126.85 130.95 125.85 128.15 121.8 125.85 118.35 120.45 118.35 115.85 118.35 114.35 116.95 112.85 115.55 109.2 115.55 104.8 115.55 101.75 118.35 99.25 120.6 99.25 122.55 L99.3 123.0 99.2 123.05 99.2 123.15 Q99.2 124.05 98.6 124.95 L99.55 124.5 Q99.85 125.75 100.65 126.95 75.6 139.05 70.45 139.85 40.95 144.7 35.0 146.05 28.7 147.45 24.45 149.2 L25.2 141.8 Q27.15 120.8 34.05 100.95 40.75 81.55 50.4 63.35 77.05 80.75 117.9 80.8 162.85 80.75 183.25 75.3 189.5 73.65 192.65 71.9 L192.45 74.4 Q192.45 75.35 194.35 77.65 195.3 77.4 196.0 76.95 202.55 55.8 219.0 32.4 227.15 20.75 234.0 12.8 L234.35 12.65 237.9 19.05 Q234.75 20.35 229.2 29.1 221.7 37.9 215.7 48.5 205.65 66.1 205.65 79.35 202.7 86.65 202.1 98.8 L201.8 109.25 200.95 112.45 Q198.35 123.1 196.9 131.75 193.7 138.4 191.3 145.75 188.55 154.05 185.15 169.25 177.25 204.15 152.35 235.95 L148.65 240.55 M47.2 61.15 L47.35 61.3 47.0 61.55 47.2 61.15 M212.8 78.45 L214.2 77.35 214.25 77.4 213.2 81.0 213.25 78.1 212.8 78.45 M215.45 153.65 L216.0 156.85 214.45 155.55 214.2 153.65 215.45 153.65 M216.1 157.5 L218.7 171.9 Q216.0 164.9 214.75 157.65 L216.1 157.5" fill="#db1b1b" fill-rule="evenodd" stroke="none"/>
    <path d="M231.4 240.55 L148.65 240.55 152.35 235.95 Q177.25 204.15 185.15 169.25 188.55 154.05 191.3 145.75 193.7 138.4 196.9 131.75 198.35 123.1 200.95 112.45 L201.8 109.25 202.1 98.8 Q202.7 86.65 205.65 79.35 205.65 66.1 215.7 48.5 221.7 37.9 229.2 29.1 234.75 20.35 237.9 19.05 L239.1 20.75 Q237.25 24.4 234.9 27.8 222.8 45.3 214.3 64.75 212.1 69.85 209.55 74.75 207.5 78.75 207.6 83.2 L212.8 78.45 213.25 78.1 213.2 81.0 Q211.75 84.75 212.5 88.7 L212.65 88.85 Q211.15 106.2 211.25 123.65 211.25 125.95 211.5 127.9 213.15 140.75 215.45 153.65 L214.2 153.65 214.45 155.55 216.0 156.85 216.1 157.5 214.75 157.65 Q216.0 164.9 218.7 171.9 L225.9 207.75 231.4 240.55 M209.05 87.95 L208.4 87.25 Q205.75 91.4 205.8 96.25 L206.35 96.95 Q209.2 97.1 208.8 94.15 208.35 91.05 209.05 87.95" fill="#bf0000" fill-rule="evenodd" stroke="none"/>
    <path d="M209.05 87.95 Q208.35 91.05 208.8 94.15 209.2 97.1 206.35 96.95 L205.8 96.25 Q205.75 91.4 208.4 87.25 L209.05 87.95" fill="#bf0000" fill-rule="evenodd" stroke="none"/>
    <path d="M159.95 29.4 L159.9 29.4 159.9 29.3 159.95 29.4 M279.3 145.55 Q280.75 146.3 279.9 148.15 279.35 149.45 280.05 150.9 L282.8 156.15 282.65 156.6 Q281.65 157.3 281.4 158.6 278.3 159.35 277.2 156.35 276.55 154.6 276.8 152.75 277.3 148.7 279.3 145.55" fill="#0098cc" fill-rule="evenodd" stroke="none"/>
    <path d="M27.5 240.55 L24.65 240.55 Q17.55 221.6 11.0 202.5 8.8 196.2 7.55 190.4 L8.1 191.8 10.1 192.65 Q11.0 193.0 11.9 192.2 L11.7 190.65 10.8 191.95 10.4 191.3 Q11.6 189.8 11.55 187.55 11.45 184.45 10.95 181.4 L11.05 186.25 Q10.35 183.15 8.6 180.9 7.4 181.95 8.4 184.3 L10.05 189.05 Q4.55 175.25 2.35 160.75 1.25 164.25 2.05 168.2 L4.55 180.45 Q-1.2 165.35 0.0 149.1 1.1 134.75 1.35 120.45 L1.9 120.35 Q1.7 122.2 3.35 122.65 L3.7 122.65 Q4.8 121.9 4.7 120.4 L4.7 119.65 5.45 122.4 5.15 116.05 4.7 115.75 7.05 101.15 6.6 100.65 3.6 109.85 Q6.2 88.85 14.45 69.4 L15.0 69.25 15.8 74.9 15.85 75.5 17.1 73.15 17.6 74.4 Q18.9 74.3 19.3 73.15 18.45 76.5 19.85 79.45 L20.45 78.95 20.95 69.35 19.9 69.2 18.95 69.8 20.3 63.15 19.3 62.7 18.6 61.75 29.05 41.95 30.5 44.2 Q37.25 54.25 47.2 61.15 L47.0 61.55 47.35 61.3 50.4 63.35 Q40.75 81.55 34.05 100.95 27.15 120.8 25.2 141.8 L24.45 149.2 16.7 153.2 16.85 152.15 14.0 154.95 19.3 156.1 18.5 156.35 23.5 157.45 Q21.95 170.8 21.25 184.2 21.05 187.85 21.35 191.2 L23.4 217.5 Q24.25 229.25 27.5 240.55" fill="#ed2d2d" fill-rule="evenodd" stroke="none"/>
    <path d="M7.55 190.4 L4.55 180.45 2.05 168.2 Q1.25 164.25 2.35 160.75 4.55 175.25 10.05 189.05 L8.4 184.3 Q7.4 181.95 8.6 180.9 10.35 183.15 11.05 186.25 L10.95 181.4 Q11.45 184.45 11.55 187.55 11.6 189.8 10.4 191.3 L10.8 191.95 11.7 190.65 11.9 192.2 Q11.0 193.0 10.1 192.65 L8.1 191.8 7.55 190.4 M1.9 120.35 L1.8 118.55 Q1.8 116.35 3.6 109.85 L6.6 100.65 7.05 101.15 4.7 115.75 5.15 116.05 5.45 122.4 4.7 119.65 4.7 120.4 Q4.8 121.9 3.7 122.65 L3.35 122.65 Q1.7 122.2 1.9 120.35 M15.0 69.25 Q15.15 68.35 16.3 65.7 17.7 62.4 18.6 61.75 L19.3 62.7 20.3 63.15 18.95 69.8 19.9 69.2 20.95 69.35 20.45 78.95 19.85 79.45 Q18.45 76.5 19.3 73.15 18.9 74.3 17.6 74.4 L17.1 73.15 15.85 75.5 15.8 74.9 15.0 69.25" fill="#ed2d2d" fill-rule="evenodd" stroke="none"/>
    <path d="M40.85 147.8 Q60.7 144.15 80.4 139.8 L78.65 142.0 Q75.75 145.65 75.4 150.1 L76.05 149.95 76.6 150.05 Q77.65 150.45 78.5 151.2 79.5 152.05 80.7 151.85 L83.45 149.5 Q84.75 148.35 86.15 148.1 88.75 148.25 90.8 146.7 L91.0 144.85 Q91.2 143.1 90.25 141.4 88.75 138.6 85.8 137.9 94.8 134.65 102.05 128.3 104.4 129.25 106.75 129.2 107.95 129.2 108.95 130.05 111.45 131.9 111.75 135.0 111.9 136.35 112.6 137.4 114.95 140.85 119.4 141.95 L119.95 146.1 127.0 153.15 126.4 153.5 Q127.35 155.35 128.9 156.75 133.5 161.05 140.0 161.1 119.4 166.3 98.15 168.7 76.5 171.15 55.1 167.1 51.8 166.35 48.6 165.25 38.8 162.4 29.85 157.0 25.25 154.3 19.9 153.95 L30.25 150.45 Q35.5 148.85 40.85 147.8 M40.45 148.8 Q34.2 148.8 34.2 150.65 L34.75 153.1 Q36.25 155.3 40.95 155.3 48.2 155.3 48.2 151.3 48.55 150.7 47.75 150.05 46.15 148.8 40.45 148.8 M63.5 153.5 Q67.0 153.8 69.85 152.25 71.4 151.5 71.75 150.2 72.8 146.5 68.6 146.1 63.05 145.2 61.3 150.1 56.9 149.45 52.85 151.4 50.4 152.7 51.05 155.45 51.6 156.35 52.8 156.35 L58.65 156.0 60.75 157.85 61.8 157.1 Q63.7 155.75 63.5 153.5 M66.45 161.1 L60.95 160.75 59.45 160.1 Q56.5 158.35 49.8 158.35 L48.45 158.55 Q55.25 163.55 78.2 163.55 82.1 163.55 108.0 159.65 L108.2 160.35 109.0 159.8 109.0 159.5 112.0 159.05 Q113.7 159.8 114.5 161.05 115.05 161.85 121.2 161.85 122.95 161.85 122.95 157.55 122.8 151.35 117.95 151.35 113.45 151.35 112.5 152.7 111.55 154.05 108.8 154.3 L108.2 153.85 Q107.25 154.75 107.25 156.9 L107.65 158.5 101.2 159.3 Q85.25 161.1 66.45 161.1 M117.0 148.4 Q117.55 145.05 114.95 145.05 112.35 145.05 110.2 146.1 108.0 147.15 108.0 148.6 L108.45 150.1 Q109.45 151.55 112.2 151.55 117.0 151.55 117.0 148.4 M93.2 137.9 Q93.2 142.35 99.7 142.35 102.65 142.35 104.75 140.85 106.75 139.4 106.75 137.65 107.0 133.8 101.45 133.8 97.6 133.8 95.3 135.1 93.2 136.25 93.2 137.9 M98.95 149.85 Q86.0 149.85 86.0 154.65 86.0 158.35 92.95 158.35 96.25 158.35 99.7 156.6 102.95 154.9 102.95 153.65 102.45 149.85 98.95 149.85" fill="#fdd7aa" fill-rule="evenodd" stroke="none"/>
    <path d="M80.5 144.75 L79.45 142.3 Q81.9 139.1 85.65 140.3 88.85 141.35 89.35 144.5 89.75 146.8 87.45 147.3 L83.25 147.15 Q82.8 147.35 82.5 147.65 L81.2 149.1 Q79.45 151.15 77.7 148.85 L80.5 144.75 M61.7 152.3 L61.75 152.4 61.85 155.65 59.0 154.05 56.7 154.1 Q54.65 155.75 52.25 154.85 52.4 151.0 56.1 151.35 L55.95 152.1 56.45 152.0 56.85 151.3 61.7 152.3 M121.0 160.25 Q117.0 161.65 114.7 158.05 L116.5 157.4 109.0 158.3 109.4 154.85 Q111.35 156.1 113.45 155.35 L113.4 154.35 Q116.5 152.4 119.35 154.45 122.7 156.75 121.0 160.25" fill="#ffffcc" fill-rule="evenodd" stroke="none"/>
    <path d="M40.45 148.8 Q46.15 148.8 47.75 150.05 48.55 150.7 48.2 151.3 48.2 155.3 40.95 155.3 36.25 155.3 34.75 153.1 L34.2 150.65 Q34.2 148.8 40.45 148.8 M63.5 153.5 Q64.15 151.25 62.1 150.35 L61.3 150.1 Q63.05 145.2 68.6 146.1 72.8 146.5 71.75 150.2 71.4 151.5 69.85 152.25 67.0 153.8 63.5 153.5 M61.75 152.4 L61.7 152.3 61.75 152.3 61.75 152.4 M93.2 137.9 Q93.2 136.25 95.3 135.1 97.6 133.8 101.45 133.8 107.0 133.8 106.75 137.65 106.75 139.4 104.75 140.85 102.65 142.35 99.7 142.35 93.2 142.35 93.2 137.9 M117.0 148.4 Q117.0 151.55 112.2 151.55 109.45 151.55 108.45 150.1 L108.0 148.6 Q108.0 147.15 110.2 146.1 112.35 145.05 114.95 145.05 117.55 145.05 117.0 148.4 M98.95 149.85 Q102.45 149.85 102.95 153.65 102.95 154.9 99.7 156.6 96.25 158.35 92.95 158.35 86.0 158.35 86.0 154.65 86.0 149.85 98.95 149.85" fill="#990000" fill-rule="evenodd" stroke="none"/>
    <path d="M127.15 128.3 Q129.15 131.5 133.0 131.65 L137.2 136.25 137.45 137.5 Q137.85 138.7 139.15 139.1 L147.65 154.55 Q144.2 158.15 138.95 157.5 131.85 157.45 129.3 150.85 L128.05 148.65 Q126.65 146.6 124.45 145.25 123.5 142.35 121.85 139.95 120.15 137.45 117.1 137.05 114.9 134.95 114.65 131.85 114.6 130.9 114.1 130.25 112.0 127.25 108.2 126.65 104.95 126.85 103.5 124.15 105.0 121.9 106.75 119.9 107.75 118.8 109.4 119.4 L110.75 120.25 Q112.5 122.1 114.85 123.0 121.2 122.35 126.1 126.35 L127.15 128.3" fill="#c68600" fill-rule="evenodd" stroke="none"/>
    <path d="M298.05 240.35 L297.6 240.35 297.85 240.1 298.05 240.35 M300.5 237.9 L300.35 237.55 300.5 237.4 300.5 237.9" fill="#c76922" fill-rule="evenodd" stroke="none"/>
    <path d="M-167.45 -122.35 Q-178.55 -120.95 -187.35 -122.1 L-167.45 -122.35" fill="#f59750" fill-rule="evenodd" stroke="none"/>
    <path d="M173.45 27.35 L173.5 27.3 Q170.1 25.9 170.1 23.7 L170.95 22.75 Q173.7 24.45 174.1 27.25 L173.45 27.35 M168.2 22.65 L168.55 25.3 Q167.75 24.05 167.75 23.65 167.75 23.0 168.2 22.65 M176.75 32.4 L176.85 32.4 Q180.3 32.4 179.65 26.0 179.65 23.25 181.25 21.45 182.85 19.65 182.85 18.8 182.7 17.8 181.85 17.8 180.55 17.8 179.5 19.1 180.7 16.65 182.2 16.55 186.0 20.1 185.25 25.05 185.1 26.1 184.25 26.7 181.65 28.45 182.15 31.55 190.1 30.85 193.6 37.9 193.45 38.75 192.45 39.05 189.5 39.95 186.85 38.4 L185.95 38.85 183.7 38.6 Q183.25 40.8 184.55 43.0 L180.85 43.75 178.75 40.65 177.0 40.7 176.45 41.3 175.85 41.15 174.5 42.75 Q173.5 44.35 172.1 45.35 169.3 47.4 166.2 46.3 L165.9 45.5 Q168.5 43.45 172.5 41.2 172.55 39.9 171.6 39.8 L168.75 39.6 165.35 34.15 Q167.8 32.9 170.7 33.65 L173.15 33.55 173.25 33.55 Q175.65 33.9 176.75 32.4 M177.4 26.2 L177.7 27.7 Q177.7 28.55 176.9 29.75 L177.4 26.2 M174.05 15.65 Q176.0 15.65 176.0 17.6 176.0 19.4 174.05 19.4 172.25 19.4 172.25 17.65 172.25 15.65 174.05 15.65 M164.2 38.3 L163.8 37.95 Q161.75 35.05 163.7 32.4 162.0 34.8 163.85 37.75 L164.2 38.3 M177.25 44.95 L177.7 44.05 Q179.2 46.5 182.1 46.25 L183.0 46.25 181.8 46.3 Q178.05 46.3 177.25 44.95 M194.2 33.65 L191.85 31.1 Q193.25 31.7 194.2 33.65 M175.3 154.3 L176.15 155.2 Q175.55 158.85 172.0 160.75 L171.95 160.7 Q172.05 157.0 174.8 154.75 L175.3 154.3 M156.95 160.45 Q159.6 160.7 161.0 162.7 163.15 165.9 163.1 169.95 163.1 172.6 163.5 175.2 163.85 177.75 165.7 176.7 L170.4 175.9 Q177.75 176.9 182.05 183.05 183.4 185.0 183.25 187.35 179.5 189.75 175.0 189.15 L173.2 189.35 Q170.8 190.65 170.55 193.4 169.85 200.2 173.4 205.9 175.75 209.65 174.0 213.7 172.85 216.45 169.9 217.4 173.15 207.35 167.35 198.75 L166.35 199.55 166.05 199.0 165.9 200.2 165.3 201.5 Q162.15 204.0 161.35 208.0 159.7 215.9 155.35 222.35 152.0 227.4 145.9 227.55 149.6 217.2 156.5 208.7 157.85 207.05 158.5 205.0 161.15 196.85 162.0 188.15 162.2 186.0 160.2 185.7 L159.65 187.0 150.25 188.0 Q147.95 186.55 145.95 184.7 144.3 183.15 145.4 181.2 147.9 176.75 153.05 175.1 L151.9 174.9 Q154.3 175.15 157.35 175.95 L156.85 174.8 157.5 174.3 Q158.3 170.85 156.65 167.8 154.6 164.05 156.95 160.45 M30.05 93.9 Q31.05 93.9 31.05 91.8 27.5 86.45 27.5 83.75 27.5 81.5 30.4 79.25 L31.8 78.2 Q39.25 83.95 38.55 93.5 38.3 97.1 39.8 100.35 L40.85 100.3 Q44.2 100.55 45.9 97.55 L46.45 97.45 Q55.9 95.75 62.15 102.8 L62.3 103.0 62.2 104.3 Q57.6 105.75 52.9 104.45 L49.2 103.6 Q42.85 103.0 40.35 109.05 40.0 109.95 40.0 110.85 40.05 114.55 41.2 118.55 L41.2 119.7 Q40.3 122.85 37.05 122.3 35.55 121.0 34.85 118.9 35.9 113.65 35.35 108.55 L35.1 108.15 Q32.55 107.75 30.2 108.65 26.7 110.1 23.15 111.8 19.25 113.85 17.3 118.0 16.25 120.2 14.15 121.2 L10.05 121.3 9.6 120.1 9.6 120.0 Q9.6 112.15 20.45 108.05 L27.85 105.55 Q31.25 104.3 31.25 103.0 31.25 101.45 25.75 100.45 20.25 99.45 20.25 97.05 20.25 95.1 23.4 93.6 L25.35 92.7 25.1 92.65 Q28.25 92.7 30.5 94.75 L30.05 93.9 M27.95 78.15 L27.35 78.3 25.4 81.25 Q25.45 79.5 25.7 79.2 26.25 78.45 27.95 78.15 M51.45 84.8 L48.25 87.3 Q45.3 89.25 44.55 91.4 43.95 90.8 43.9 90.25 45.9 89.25 46.7 86.85 47.35 85.05 49.15 84.35 L52.15 83.25 51.8 84.4 50.0 84.85 51.45 84.8 M46.05 109.1 Q48.85 107.6 49.55 110.65 49.15 114.2 46.1 112.3 45.35 111.8 45.6 110.75 L46.05 109.1 M29.15 118.5 L29.0 119.2 Q26.55 121.85 26.45 125.75 26.4 128.05 25.1 129.4 L25.05 129.3 25.05 129.4 22.1 130.05 22.1 129.65 22.3 129.35 Q23.55 122.65 29.15 118.5 M133.9 191.6 Q134.0 188.4 136.95 185.85 L137.45 185.4 Q138.3 186.6 138.35 188.1 138.4 192.5 133.9 191.6 M127.1 205.45 Q132.8 198.85 141.8 197.5 L142.05 197.45 140.6 201.65 Q134.65 204.35 128.1 205.25 L127.1 205.45" fill="#ff4d00" fill-rule="evenodd" stroke="none"/>
    <path d="M170.95 22.75 L171.3 22.2 173.15 22.75 Q175.85 23.55 175.45 26.4 175.05 29.45 172.4 27.95 L173.45 27.35 174.1 27.25 Q173.7 24.45 170.95 22.75 M165.9 45.5 L166.2 46.3 Q169.3 47.4 172.1 45.35 173.5 44.35 174.5 42.75 L175.85 41.15 176.45 41.3 177.0 40.7 178.75 40.65 180.85 43.75 184.55 43.0 Q183.25 40.8 183.7 38.6 L185.95 38.85 186.85 38.4 Q189.5 39.95 192.45 39.05 193.45 38.75 193.6 37.9 190.1 30.85 182.15 31.55 181.65 28.45 184.25 26.7 185.1 26.1 185.25 25.05 186.0 20.1 182.2 16.55 188.0 17.35 186.5 23.05 185.4 27.3 183.5 31.15 L191.85 31.1 194.2 33.65 195.35 38.55 193.6 41.4 189.7 41.6 186.4 40.3 186.5 40.55 Q187.45 45.2 183.0 46.25 L182.1 46.25 Q179.2 46.5 177.7 44.05 L177.25 44.95 177.05 44.55 177.25 41.9 174.9 46.65 Q173.55 49.35 170.6 50.1 167.15 51.1 164.8 48.95 L164.75 48.0 Q164.55 46.8 165.4 45.9 L165.9 45.5 M167.55 47.15 L167.6 47.15 167.6 47.1 167.55 47.15 M175.3 154.3 L176.2 153.25 Q178.15 154.15 178.2 157.2 178.15 161.3 174.35 161.3 172.9 161.3 172.0 160.75 175.55 158.85 176.15 155.2 L175.3 154.3 M157.15 159.65 Q159.9 159.5 162.0 160.85 162.95 161.55 163.4 162.6 166.05 168.75 164.35 175.45 L165.05 176.7 165.7 176.7 Q163.85 177.75 163.5 175.2 163.1 172.6 163.1 169.95 163.15 165.9 161.0 162.7 159.6 160.7 156.95 160.45 L157.5 159.65 157.15 159.65 M170.4 175.9 L175.25 173.8 174.6 173.75 Q181.6 173.2 184.45 179.55 186.1 183.25 185.0 187.2 183.95 190.95 180.05 192.15 175.9 193.25 172.35 191.1 172.55 192.4 173.25 193.5 174.6 195.75 173.8 198.3 L172.7 198.9 Q177.1 202.85 178.75 207.9 179.8 211.0 180.2 214.4 180.5 217.2 178.95 219.4 178.1 220.65 176.6 220.9 173.1 221.55 170.65 218.9 170.05 218.25 169.85 217.4 169.05 214.2 169.35 210.85 169.9 204.65 166.35 199.55 L167.35 198.75 Q173.15 207.35 169.9 217.4 172.85 216.45 174.0 213.7 175.75 209.65 173.4 205.9 169.85 200.2 170.55 193.4 170.8 190.65 173.2 189.35 L175.0 189.15 Q179.5 189.75 183.25 187.35 183.4 185.0 182.05 183.05 177.75 176.9 170.4 175.9 M165.9 200.2 Q165.15 208.7 163.0 216.75 161.45 222.6 157.95 227.5 152.95 234.45 144.75 231.9 L145.9 227.55 Q152.0 227.4 155.35 222.35 159.7 215.9 161.35 208.0 162.15 204.0 165.3 201.5 L165.9 200.2 M10.05 121.3 L14.15 121.2 Q16.25 120.2 17.3 118.0 19.25 113.85 23.15 111.8 26.7 110.1 30.2 108.65 32.55 107.75 35.1 108.15 L35.35 108.55 Q35.9 113.65 34.85 118.9 35.55 121.0 37.05 122.3 40.3 122.85 41.2 119.7 L41.2 118.55 Q40.05 114.55 40.0 110.85 40.0 109.95 40.35 109.05 42.85 103.0 49.2 103.6 L52.9 104.45 Q57.6 105.75 62.2 104.3 61.65 106.25 59.75 106.7 52.85 106.95 46.3 104.75 43.15 106.45 41.05 109.3 45.0 115.6 41.8 121.75 40.85 123.65 38.9 123.65 35.75 123.65 34.95 120.85 34.6 119.65 34.85 118.45 35.9 114.1 34.15 110.05 27.8 111.55 21.9 114.3 20.75 119.65 16.0 122.2 L14.35 122.85 Q12.35 123.2 10.5 122.3 L10.05 121.3 M62.3 103.0 L62.15 102.8 Q55.9 95.75 46.45 97.45 L53.85 96.15 57.75 96.4 Q62.9 97.7 62.3 103.0 M40.85 100.3 L39.8 100.35 Q38.3 97.1 38.55 93.5 39.25 83.95 31.8 78.2 L32.1 77.95 Q36.2 78.2 38.75 81.2 39.95 82.65 40.35 84.45 41.95 92.05 39.85 99.8 L40.85 100.3 M51.45 84.8 L51.7 84.7 51.8 84.4 52.15 83.25 54.95 82.2 Q56.05 83.95 55.6 86.1 L55.15 86.7 Q50.7 90.1 45.45 92.25 L44.55 91.4 Q45.3 89.25 48.25 87.3 L51.45 84.8 M29.0 119.2 L30.55 120.05 28.4 124.75 Q29.35 126.8 29.2 129.1 29.0 131.95 26.45 132.75 22.65 133.85 22.1 130.05 L25.05 129.4 25.15 129.55 25.1 129.4 Q26.4 128.05 26.45 125.75 26.55 121.85 29.0 119.2 M124.75 208.0 L127.1 205.45 128.1 205.25 Q134.65 204.35 140.6 201.65 L142.05 197.45 143.15 197.1 144.25 198.25 Q144.25 199.6 143.35 200.8 139.4 205.85 133.45 208.85 128.55 211.35 124.75 208.0" fill="#eb3900" fill-rule="evenodd" stroke="none"/>
    <path d="M170.95 22.75 L170.1 23.7 Q170.1 25.9 173.5 27.3 L173.45 27.35 172.4 27.95 172.05 27.75 Q169.65 27.45 168.55 25.3 L168.2 22.65 168.55 22.45 171.3 22.2 170.95 22.75 M179.5 19.1 Q180.55 17.8 181.85 17.8 182.7 17.8 182.85 18.8 182.85 19.65 181.25 21.45 179.65 23.25 179.65 26.0 180.3 32.4 176.85 32.4 L176.75 32.4 176.9 29.75 Q177.7 28.55 177.7 27.7 L177.4 26.2 179.5 19.1 M173.15 33.55 L170.7 33.65 Q167.8 32.9 165.35 34.15 L168.75 39.6 Q165.7 39.3 164.2 38.3 L163.85 37.75 Q162.0 34.8 163.7 32.4 L164.35 31.65 Q168.85 31.0 173.15 33.55 M171.6 39.8 Q172.55 39.9 172.5 41.2 168.5 43.45 165.9 45.5 L165.4 45.9 165.8 45.35 Q168.3 42.0 171.6 39.8 M176.2 153.25 L175.3 154.3 174.8 154.75 Q172.05 157.0 171.95 160.7 170.0 158.85 170.9 156.15 172.15 152.15 176.2 153.25 M157.15 159.65 L157.5 159.65 156.95 160.45 Q154.6 164.05 156.65 167.8 158.3 170.85 157.5 174.3 L156.85 174.8 Q154.7 169.55 154.15 163.9 153.85 160.4 157.15 159.65 M144.75 231.9 Q143.5 231.35 142.95 230.4 L142.8 230.05 142.8 227.55 Q146.15 221.65 150.9 215.95 155.65 210.25 161.15 187.75 L160.4 186.95 159.65 187.0 160.2 185.7 Q162.2 186.0 162.0 188.15 161.15 196.85 158.5 205.0 157.85 207.05 156.5 208.7 149.6 217.2 145.9 227.55 L144.75 231.9 M150.25 188.0 Q146.5 188.95 143.55 186.8 142.05 185.75 141.9 183.75 141.75 181.65 142.4 179.5 143.2 177.0 145.65 176.25 148.7 175.4 151.9 174.9 L153.05 175.1 Q147.9 176.75 145.4 181.2 144.3 183.15 145.95 184.7 147.95 186.55 150.25 188.0 M31.8 78.2 L30.4 79.25 Q27.5 81.5 27.5 83.75 27.5 86.45 31.05 91.8 31.05 93.9 30.05 93.9 L29.95 93.7 Q26.85 87.7 25.4 81.25 L27.35 78.3 27.95 78.15 32.1 77.95 31.8 78.2 M25.1 92.65 L25.35 92.7 23.4 93.6 Q20.25 95.1 20.25 97.05 20.25 99.45 25.75 100.45 31.25 101.45 31.25 103.0 31.25 104.3 27.85 105.55 L20.45 108.05 Q9.6 112.15 9.6 120.0 L9.6 120.1 Q9.15 118.0 9.45 116.0 10.15 111.25 14.4 108.95 21.4 105.3 29.05 103.25 L19.55 99.05 19.45 97.65 Q19.95 92.75 25.05 92.65 L25.1 92.65 M54.95 82.2 L52.15 83.25 49.15 84.35 Q47.35 85.05 46.7 86.85 45.9 89.25 43.9 90.25 44.9 84.5 49.95 81.6 52.95 79.85 54.95 82.2 M22.1 129.65 Q21.85 124.6 24.35 120.1 26.0 117.25 29.05 117.55 L29.15 118.5 Q23.55 122.65 22.3 129.35 L22.1 129.65 M133.9 191.6 Q131.5 190.2 131.9 187.35 132.05 186.2 132.9 185.4 135.2 183.25 137.45 185.4 L136.95 185.85 Q134.0 188.4 133.9 191.6 M124.75 208.0 Q124.25 205.0 125.85 202.25 126.5 201.15 127.8 200.65 L142.05 196.0 143.15 197.1 142.05 197.45 141.8 197.5 Q132.8 198.85 127.1 205.45 L124.75 208.0" fill="#ff6e21" fill-rule="evenodd" stroke="none"/>
  </g>
</svg>
