<?xml version="1.0" encoding="UTF-8" standalone="no"?>
<svg xmlns:xlink="http://www.w3.org/1999/xlink" height="489.15px" width="551.65px" xmlns="http://www.w3.org/2000/svg">
  <g transform="matrix(1.0, 0.0, 0.0, 1.0, 340.85, 242.85)">
    <path d="M134.5 -240.0 Q135.9 -240.0 135.9 -237.2 L201.4 -225.05 Q187.9 -211.95 159.35 -195.05 L132.35 -179.55 Q119.7 -172.25 117.5 -169.5 L158.85 -168.0 Q191.35 -166.5 210.8 -166.5 L210.8 -165.1 Q202.0 -156.35 173.25 -154.15 L152.15 -152.7 Q141.45 -151.75 137.3 -149.7 L140.1 -149.7 Q140.7 -149.1 164.0 -143.25 189.25 -136.95 196.6 -136.95 196.6 -135.55 195.2 -135.55 189.65 -133.75 155.75 -125.6 120.6 -117.15 117.5 -117.15 L118.9 -115.75 142.9 -114.35 Q149.7 -114.35 195.2 -119.95 192.25 -111.15 165.15 -88.35 L146.45 -73.0 Q137.85 -66.0 137.3 -64.85 L147.25 -64.85 Q149.35 -66.35 156.15 -66.15 163.3 -66.0 168.45 -69.05 L193.8 -69.05 Q186.7 -54.85 162.6 -49.65 L145.8 -46.8 Q137.65 -45.4 135.9 -43.65 137.3 -43.65 137.3 -42.25 143.1 -42.25 159.95 -33.2 179.05 -22.9 181.05 -22.3 145.5 -11.1 137.3 -5.5 154.55 6.25 165.05 16.35 177.45 28.35 184.95 42.1 L188.7 49.8 87.9 49.8 87.9 -242.85 135.6 -242.85 134.5 -240.0 M-292.5 -204.85 Q-268.25 -213.35 -244.7 -220.9 -199.55 -235.4 -187.15 -235.8 L-187.85 -235.8 Q-192.45 -238.05 -208.05 -242.85 L-139.65 -242.85 -139.65 246.3 -276.8 246.3 -281.25 244.95 -220.4 230.55 Q-220.4 229.85 -221.1 228.45 -221.8 227.05 -221.8 226.35 -226.9 224.65 -240.75 212.75 -256.0 199.65 -258.55 198.2 -268.9 192.15 -277.95 188.1 L-252.0 186.75 Q-198.95 183.65 -194.85 182.6 L-196.25 182.6 Q-200.5 178.35 -240.75 171.6 -206.0 148.4 -203.45 145.85 L-288.0 124.0 Q-256.55 81.2 -214.65 20.05 L-257.2 21.45 Q-232.9 4.35 -211.85 -11.1 L-214.0 -13.8 Q-214.85 -14.7 -291.4 -25.15 -260.8 -67.7 -224.6 -119.95 L-224.6 -124.15 -292.4 -112.35 -295.65 -112.05 Q-251.4 -154.35 -214.65 -194.85 -227.95 -194.85 -261.05 -199.85 L-293.85 -204.85 -292.5 -204.85 M-313.5 -29.55 Q-314.0 -21.25 -319.5 -13.95 L-336.0 -13.5 -315.95 -28.45 -313.5 -29.55 M-272.3 157.35 Q-284.95 150.95 -308.65 151.55 -301.0 141.55 -298.25 134.45 -259.7 163.75 -272.3 157.35 M-339.35 153.5 L-340.85 153.6 Q-339.25 152.05 -339.35 153.5" fill="#fff844" fill-rule="evenodd" stroke="none"/>
  </g>
</svg>
