<?xml version="1.0" encoding="UTF-8" standalone="no"?>
<svg xmlns:xlink="http://www.w3.org/1999/xlink" height="479.35px" width="390.35px" xmlns="http://www.w3.org/2000/svg">
  <g transform="matrix(1.0, 0.0, 0.0, 1.0, 184.5, 239.65)">
    <path d="M-157.5 239.7 L-161.7 239.4 Q-168.25 220.65 -164.95 200.85 -164.25 196.6 -164.0 192.3 -162.5 165.05 -154.75 139.1 -158.8 142.3 -163.55 144.65 -174.1 149.9 -184.5 146.1 -170.55 136.05 -164.8 119.7 -170.45 98.8 -171.35 77.1 -172.3 53.6 -167.9 30.65 -166.0 20.55 -159.8 12.2 -157.85 9.6 -154.9 8.6 -109.25 -5.8 -62.35 -14.95 -72.4 -22.8 -72.85 -35.25 -73.3 -48.5 -61.3 -53.7 -35.65 -64.85 -7.85 -58.45 5.75 -74.15 22.1 -86.95 L19.25 -92.2 Q51.4 -120.9 59.7 -163.35 55.05 -161.35 49.95 -160.8 44.15 -160.15 38.8 -162.15 19.4 -169.05 13.3 -189.0 9.6 -201.2 14.45 -212.8 16.9 -218.7 22.5 -221.7 44.95 -233.75 70.7 -233.85 77.5 -233.9 84.05 -235.85 116.2 -245.1 146.6 -231.9 149.6 -230.6 152.25 -228.7 169.1 -216.8 169.05 -195.65 179.9 -192.65 188.7 -185.55 199.05 -177.2 203.0 -164.8 205.8 -156.1 205.85 -146.9 205.95 -131.95 196.85 -120.7 190.45 -112.85 180.75 -110.1 158.25 -103.4 140.65 -118.85 132.05 -100.85 127.3 -81.6 125.55 -74.65 124.85 -67.45 122.8 -46.55 124.5 -25.55 L124.2 -25.15 123.85 -24.9 122.7 -24.2 120.55 -23.3 Q124.1 7.15 120.5 37.65 140.4 51.2 158.6 66.9 L172.3 78.6 Q192.15 95.5 205.3 117.7 203.0 123.15 199.05 127.65 L192.75 135.1 Q158.6 177.9 108.75 200.9 107.7 217.95 118.5 231.5 L117.35 232.65 Q104.25 231.2 95.8 221.15 L95.55 222.5 Q92.6 236.2 78.95 239.7 89.9 231.8 93.45 219.0 83.55 234.9 62.1 239.25 L61.2 239.4 60.35 239.6 59.95 239.35 59.65 238.5 Q70.6 233.7 80.8 227.1 87.15 223.0 91.65 216.85 L90.3 215.6 Q77.15 228.1 60.4 235.45 L59.6 237.35 58.95 237.5 58.4 237.3 Q57.95 222.5 61.15 207.65 62.3 202.4 63.05 197.1 67.05 167.75 68.45 137.85 70.05 129.35 72.4 121.15 84.35 79.8 109.95 45.5 L117.85 36.55 118.15 31.1 108.45 41.25 Q104.0 46.45 100.05 51.75 94.65 59.1 90.5 67.25 74.25 99.0 62.15 132.6 L61.9 133.2 Q49.65 134.85 37.0 133.5 -5.65 128.2 -44.55 109.25 -68.5 97.5 -90.15 81.65 -75.8 34.7 -49.0 -6.5 L-51.2 -7.55 Q-77.35 27.35 -91.15 68.55 -93.75 76.4 -98.9 83.15 -118.45 109.1 -136.2 136.4 -141.95 145.2 -146.6 154.65 -158.4 178.6 -160.55 205.1 -161.95 222.65 -157.5 239.7 M198.8 -128.05 Q199.75 -130.1 200.3 -132.25 204.75 -149.1 199.45 -165.95 198.15 -170.2 195.5 -173.95 185.85 -187.6 169.25 -192.6 L167.65 -185.85 Q167.3 -195.8 165.25 -205.45 161.9 -221.35 147.8 -228.65 132.95 -236.4 116.05 -236.8 L101.9 -236.95 Q85.9 -236.8 73.5 -227.9 L76.45 -231.95 Q54.05 -231.35 32.7 -224.55 20.2 -220.7 14.7 -209.05 13.45 -200.45 15.4 -192.0 20.35 -170.1 42.1 -164.85 55.95 -161.55 66.3 -170.55 67.35 -171.55 67.4 -173.15 67.6 -180.35 68.15 -187.7 L68.6 -184.45 Q71.15 -170.2 78.25 -157.5 80.8 -153.0 85.1 -150.05 100.8 -139.35 120.0 -139.45 141.85 -139.6 153.9 -157.05 L153.4 -155.3 Q149.95 -144.4 139.25 -140.75 139.0 -133.5 139.9 -126.35 140.05 -125.0 140.9 -123.95 151.3 -111.3 168.2 -111.05 188.4 -110.7 198.8 -128.05 M91.0 -77.05 Q113.65 -63.45 120.9 -38.3 L121.3 -37.0 Q116.25 -81.75 138.7 -121.0 L135.95 -126.65 Q130.5 -119.1 127.6 -110.35 L127.0 -110.25 126.55 -110.55 Q128.9 -120.75 135.6 -128.7 L136.4 -139.7 Q127.9 -136.75 118.9 -136.9 114.15 -128.8 111.95 -119.65 L111.15 -119.95 Q111.75 -129.1 116.9 -136.8 103.55 -135.65 91.2 -141.15 L85.25 -126.7 84.2 -126.65 Q86.1 -134.5 89.8 -141.8 78.9 -148.0 72.85 -159.15 72.95 -147.0 65.3 -137.35 L64.7 -137.95 Q74.25 -152.9 69.0 -169.7 67.15 -167.15 64.45 -165.55 L62.4 -164.4 Q62.65 -150.15 56.7 -137.4 44.65 -112.7 24.75 -93.7 L29.4 -93.8 Q63.15 -95.55 91.0 -77.05 M43.1 -75.95 L42.6 -76.15 41.7 -79.7 Q38.35 -89.05 27.7 -87.45 L23.95 -84.85 -4.55 -57.8 Q30.55 -52.2 57.3 -29.05 69.15 -31.75 79.55 -25.7 82.9 -30.45 84.85 -35.8 91.85 -54.75 80.3 -71.15 76.2 -77.0 69.35 -79.1 55.85 -83.2 43.1 -75.95 M43.35 -80.45 L43.8 -77.95 46.85 -79.25 Q62.15 -85.55 75.75 -77.0 86.7 -70.1 89.4 -57.35 92.35 -39.2 80.85 -24.95 89.25 -20.0 93.9 -11.3 102.8 5.4 91.6 20.2 88.8 23.75 84.8 25.5 78.45 28.25 71.35 28.55 53.45 45.15 31.5 56.0 L28.55 63.2 Q17.8 94.65 20.7 127.95 26.55 129.4 32.65 130.2 46.25 132.15 60.1 130.8 64.0 120.3 68.15 109.9 72.3 99.5 76.6 89.15 89.45 58.1 112.05 33.5 L118.55 26.95 Q120.45 -2.05 116.7 -30.8 115.15 -42.6 110.15 -53.25 107.05 -59.95 101.55 -64.8 72.3 -90.2 33.65 -91.05 L30.1 -89.0 32.1 -88.95 Q40.3 -88.05 43.35 -80.45 M43.0 -64.2 Q45.0 -66.05 47.0 -64.65 51.9 -61.05 47.1 -55.7 43.1 -51.2 38.95 -54.45 38.0 -55.95 38.55 -57.5 39.95 -61.3 43.0 -64.2 M24.4 -89.0 L24.75 -88.8 28.25 -91.1 22.25 -90.8 Q22.9 -89.6 24.4 -89.0 M23.45 -73.7 L27.45 -73.8 Q29.7 -68.35 25.4 -64.25 21.8 -60.9 18.05 -64.4 18.25 -70.2 23.45 -73.7 M-69.6 -39.85 Q-69.75 -20.25 -52.05 -11.35 -30.2 -0.45 -5.65 1.0 L7.2 2.15 Q32.25 3.65 56.35 -3.55 L52.1 -7.2 Q61.45 -5.8 69.25 -0.25 72.55 1.65 73.5 5.1 L73.6 5.7 Q68.25 2.95 63.5 -0.45 58.5 12.85 48.85 23.15 45.25 27.9 41.15 32.15 L30.1 43.35 Q20.7 52.95 8.05 56.85 3.35 58.35 -1.0 56.25 -3.7 55.0 -4.05 52.2 -5.05 43.4 -3.8 34.45 -1.45 17.7 -8.7 3.0 L-13.85 2.4 Q-10.7 6.45 -9.3 11.2 -5.8 23.4 -6.35 36.2 L-7.2 55.65 Q-7.4 60.4 -3.05 61.4 10.05 64.25 21.9 58.25 42.2 47.75 60.25 33.55 65.05 29.75 70.6 28.3 82.6 25.2 89.95 14.85 98.2 3.25 91.3 -9.85 L91.2 -10.05 Q87.8 -16.85 81.0 -21.55 71.05 -28.45 59.3 -26.8 61.3 -25.15 59.3 -23.9 58.55 -23.4 57.85 -24.15 52.95 -29.45 47.4 -33.8 9.85 -59.55 -35.35 -57.3 -45.85 -56.5 -56.15 -53.95 L-56.95 -53.7 Q-67.4 -50.35 -69.6 -39.85 M25.85 26.8 Q31.7 28.3 36.8 31.25 L37.3 31.65 Q52.8 17.25 61.05 -1.65 L59.7 -2.25 Q36.05 6.7 10.45 4.25 L-5.0 3.35 Q1.75 22.15 -1.0 42.1 -1.6 46.6 -0.4 50.85 1.35 57.1 8.4 54.2 15.2 51.95 20.9 47.1 28.9 40.3 36.25 32.75 34.15 30.95 27.45 28.8 L25.6 28.25 6.05 23.2 6.25 22.2 25.85 26.8 M119.0 -35.2 L120.3 -26.05 121.6 -26.5 119.0 -35.2 M184.25 139.35 Q193.65 129.55 201.9 118.7 L202.8 117.5 Q195.1 106.5 185.55 96.9 154.35 65.55 118.65 39.7 L105.7 56.45 Q94.45 72.25 89.1 85.8 L82.0 103.75 74.9 122.0 Q70.2 136.0 70.4 150.85 70.9 192.25 60.4 232.2 L68.85 227.7 Q80.2 222.85 88.25 213.65 L87.7 212.8 Q84.9 207.8 83.05 202.45 82.7 201.3 83.25 200.25 89.3 188.6 96.25 177.25 L111.45 155.0 112.3 133.9 Q102.35 132.4 93.25 127.85 L93.9 126.25 Q126.35 137.65 159.4 129.3 L160.0 129.55 146.45 133.6 Q137.55 135.75 131.05 135.85 122.85 144.9 115.45 154.55 98.75 177.0 85.4 201.5 L85.6 202.3 Q88.6 210.05 94.6 216.05 101.5 224.1 110.9 228.75 L113.1 229.65 Q106.0 218.35 105.8 205.1 L105.85 202.1 100.0 203.75 99.2 202.1 Q147.5 178.75 184.25 139.35 M26.9 62.45 L29.1 57.35 Q17.85 65.5 4.1 66.25 -5.3 67.3 -9.65 59.8 -10.9 47.1 -9.6 34.45 -41.1 61.2 -63.0 96.2 -24.2 118.05 19.15 127.65 L18.9 123.8 Q17.15 92.35 26.9 62.45 M8.4 202.75 Q12.15 197.35 9.05 191.4 L8.0 189.1 Q-4.8 183.0 -17.85 188.7 L-18.0 189.3 Q-34.6 195.6 -51.95 191.35 L-52.35 190.8 Q-85.65 197.15 -119.65 198.0 -105.5 202.05 -90.35 200.9 L-74.35 201.35 5.3 202.75 8.4 202.75 Q-41.65 204.95 -91.65 202.95 L-102.25 202.4 Q-112.65 203.2 -121.4 198.45 L-122.0 197.15 Q-87.45 164.6 -42.45 149.35 L-43.3 145.25 Q-38.45 139.65 -31.3 138.2 -18.4 135.3 -11.6 145.9 -15.15 141.65 -20.7 139.85 -34.1 135.4 -41.95 146.4 L-40.65 149.1 -37.95 151.45 -36.25 145.1 -35.2 145.35 Q-36.65 151.8 -37.2 158.55 -37.35 160.2 -36.75 161.75 -33.6 170.15 -25.2 174.5 L-25.8 175.1 -28.15 173.9 Q-27.7 183.5 -19.3 187.55 -6.05 181.4 7.25 187.05 2.5 173.95 -3.7 161.5 -6.25 156.45 -8.4 151.25 L-9.1 149.75 Q1.5 166.3 9.4 184.3 10.8 187.55 11.5 191.15 12.7 197.15 10.3 202.6 L8.4 202.75 M127.6 135.55 Q121.7 136.7 115.1 134.2 116.5 138.1 114.3 151.35 L127.6 135.55 M-63.2 4.05 L-53.7 -8.9 -59.8 -12.85 Q-108.7 -1.65 -157.45 10.85 L-159.2 15.65 Q-168.95 42.6 -168.7 71.35 L-168.55 75.2 Q-167.85 102.45 -158.2 127.9 L-156.65 131.3 Q-158.4 130.8 -159.4 128.9 L-159.7 128.5 Q-161.95 125.6 -163.2 122.15 -168.65 136.2 -181.05 144.6 L-180.4 144.75 Q-167.25 144.75 -156.15 136.85 L-153.6 135.2 Q-138.5 95.9 -132.55 54.1 -137.55 51.2 -141.4 46.95 L-143.1 44.75 -141.9 43.65 -139.65 45.3 Q-132.2 52.2 -122.7 55.8 -114.8 58.75 -106.35 59.45 L-87.2 35.1 -85.0 32.4 Q-73.5 18.75 -63.2 4.05 M-29.3 0.75 Q-36.8 -0.9 -43.85 -4.25 L-46.4 -5.4 Q-63.55 20.45 -75.4 48.85 -82.05 64.55 -87.25 80.7 -76.05 88.7 -64.25 95.5 -41.75 59.75 -9.6 32.45 -9.45 26.3 -9.85 20.05 -10.55 10.1 -16.95 2.0 L-29.3 0.75 M-156.7 161.8 L-158.15 175.55 Q-149.65 149.0 -134.25 125.75 -128.7 117.3 -122.0 109.65 -106.3 91.8 -94.8 71.3 -86.7 47.8 -75.65 25.55 -97.55 51.9 -117.55 79.65 -121.15 84.7 -125.1 89.5 -150.95 121.35 -156.7 161.8 M-110.1 63.3 Q-114.85 62.7 -130.05 55.55 L-141.15 109.35 Q-128.05 85.75 -110.1 63.3 M-97.1 189.3 L-97.3 185.5 -80.65 185.1 -78.35 185.65 -78.05 186.05 -80.65 192.65 Q-89.0 191.9 -97.1 189.3 M-90.65 173.9 Q-106.95 183.0 -119.65 196.45 -107.1 196.95 -95.1 192.2 L-95.25 193.3 Q-84.0 194.3 -72.8 193.3 -74.85 183.8 -64.55 181.85 -54.45 180.05 -51.85 189.2 L-44.05 188.85 -44.15 189.65 -48.4 190.3 Q-34.0 193.55 -20.3 188.7 L-22.0 187.75 Q-29.5 182.35 -29.7 172.9 L-31.5 171.7 Q-34.2 169.65 -36.15 167.05 -40.1 160.5 -38.3 153.15 L-41.35 150.45 -69.4 162.15 -68.1 165.2 Q-66.35 170.15 -70.2 173.5 -79.8 181.8 -90.65 173.9 M-45.1 166.4 L-49.65 166.75 -50.4 169.95 Q-52.95 178.2 -49.4 185.45 L-45.65 184.75 Q-46.6 183.25 -47.0 181.55 -49.0 173.8 -45.1 166.4 M-95.85 188.0 L-81.45 191.35 -79.85 186.95 -95.85 186.45 -95.85 188.0 M-43.3 164.9 L-43.0 165.35 Q-48.2 174.55 -44.35 184.0 L-43.7 184.25 -43.65 185.75 -49.9 186.95 Q-53.95 181.15 -52.3 173.55 -51.4 169.55 -50.8 165.5 L-43.3 164.9 M-73.85 174.5 Q-66.15 170.4 -70.85 162.85 L-89.5 172.8 Q-81.85 178.65 -73.85 174.5 M-71.15 187.2 Q-71.75 187.8 -71.85 188.7 -72.2 191.0 -71.25 193.1 L-53.35 189.4 Q-53.65 185.0 -57.8 183.65 -65.65 181.3 -71.15 187.2" fill="#000000" fill-rule="evenodd" stroke="none"/>
    <path d="M14.7 -209.05 Q20.2 -220.7 32.7 -224.55 54.05 -231.35 76.45 -231.95 L73.5 -227.9 Q85.9 -236.8 101.9 -236.95 L116.05 -236.8 Q132.95 -236.4 147.8 -228.65 161.9 -221.35 165.25 -205.45 167.3 -195.8 167.65 -185.85 L169.25 -192.6 Q185.85 -187.6 195.5 -173.95 198.15 -170.2 199.45 -165.95 204.75 -149.1 200.3 -132.25 199.75 -130.1 198.8 -128.05 181.3 -128.35 167.2 -139.6 161.2 -144.5 159.65 -152.1 158.7 -156.65 160.25 -161.0 161.8 -165.45 162.2 -170.3 158.25 -162.7 149.05 -161.95 110.15 -157.75 77.8 -178.8 73.45 -181.65 70.4 -185.8 L68.6 -184.45 68.15 -187.7 67.95 -187.55 67.85 -187.35 67.85 -188.4 67.75 -199.4 Q65.7 -184.75 59.55 -185.35 53.4 -185.95 38.35 -185.45 23.25 -184.95 18.65 -189.4 14.05 -193.85 14.7 -209.05 M56.7 -137.4 Q63.05 -136.8 69.3 -137.45 L71.3 -137.8 Q71.9 -120.4 88.0 -113.9 96.65 -110.5 105.8 -112.0 104.1 -92.15 91.0 -77.05 63.15 -95.55 29.4 -93.8 L24.75 -93.7 Q44.65 -112.7 56.7 -137.4 M43.1 -75.95 Q55.85 -83.2 69.35 -79.1 76.2 -77.0 80.3 -71.15 91.85 -54.75 84.85 -35.8 82.9 -30.45 79.55 -25.7 69.15 -31.75 57.3 -29.05 30.55 -52.2 -4.55 -57.8 L23.95 -84.85 27.7 -87.45 Q38.35 -89.05 41.7 -79.7 L42.6 -76.15 43.1 -75.95 M43.0 -64.2 Q39.95 -61.3 38.55 -57.5 38.0 -55.95 38.95 -54.45 43.1 -51.2 47.1 -55.7 51.9 -61.05 47.0 -64.65 45.0 -66.05 43.0 -64.2 M23.45 -73.7 Q18.25 -70.2 18.05 -64.4 21.8 -60.9 25.4 -64.25 29.7 -68.35 27.45 -73.8 L23.45 -73.7 M25.85 26.8 L6.25 22.2 6.05 23.2 25.6 28.25 Q24.2 35.55 18.9 43.1 14.65 49.15 8.4 54.2 1.35 57.1 -0.4 50.85 -1.6 46.6 -1.0 42.1 1.75 22.15 -5.0 3.35 L10.45 4.25 12.35 5.15 Q27.0 11.65 25.85 26.8 M26.9 62.45 Q17.15 92.35 18.9 123.8 L19.15 127.65 Q-24.2 118.05 -63.0 96.2 -41.1 61.2 -9.6 34.45 -10.9 47.1 -9.65 59.8 -11.45 66.25 -10.8 73.0 L-10.45 75.35 Q8.7 70.25 26.9 62.45" fill="#ffffff" fill-rule="evenodd" stroke="none"/>
    <path d="M198.8 -128.05 Q188.4 -110.7 168.2 -111.05 151.3 -111.3 140.9 -123.95 140.05 -125.0 139.9 -126.35 139.0 -133.5 139.25 -140.75 149.95 -144.4 153.4 -155.3 L153.9 -157.05 Q141.85 -139.6 120.0 -139.45 100.8 -139.35 85.1 -150.05 80.8 -153.0 78.25 -157.5 71.15 -170.2 68.6 -184.45 L70.4 -185.8 Q73.45 -181.65 77.8 -178.8 110.15 -157.75 149.05 -161.95 158.25 -162.7 162.2 -170.3 161.8 -165.45 160.25 -161.0 158.7 -156.65 159.65 -152.1 161.2 -144.5 167.2 -139.6 181.3 -128.35 198.8 -128.05 M68.15 -187.7 Q67.6 -180.35 67.4 -173.15 67.35 -171.55 66.3 -170.55 55.95 -161.55 42.1 -164.85 20.35 -170.1 15.4 -192.0 13.45 -200.45 14.7 -209.05 14.05 -193.85 18.65 -189.4 23.25 -184.95 38.35 -185.45 53.4 -185.95 59.55 -185.35 65.7 -184.75 67.75 -199.4 L67.85 -188.4 67.85 -187.35 67.95 -187.55 68.15 -187.7 M56.7 -137.4 Q62.65 -150.15 62.4 -164.4 L64.45 -165.55 Q67.15 -167.15 69.0 -169.7 74.25 -152.9 64.7 -137.95 L65.3 -137.35 Q72.95 -147.0 72.85 -159.15 78.9 -148.0 89.8 -141.8 86.1 -134.5 84.2 -126.65 L85.25 -126.7 91.2 -141.15 Q103.55 -135.65 116.9 -136.8 111.75 -129.1 111.15 -119.95 L111.95 -119.65 Q114.15 -128.8 118.9 -136.9 127.9 -136.75 136.4 -139.7 L135.6 -128.7 Q128.9 -120.75 126.55 -110.55 L127.0 -110.25 127.6 -110.35 Q130.5 -119.1 135.95 -126.65 L138.7 -121.0 Q116.25 -81.75 121.3 -37.0 L120.9 -38.3 Q113.65 -63.45 91.0 -77.05 104.1 -92.15 105.8 -112.0 96.65 -110.5 88.0 -113.9 71.9 -120.4 71.3 -137.8 L69.3 -137.45 Q63.05 -136.8 56.7 -137.4 M24.4 -89.0 Q22.9 -89.6 22.25 -90.8 L28.25 -91.1 24.75 -88.8 24.4 -89.0 M10.45 4.25 Q36.05 6.7 59.7 -2.25 L61.05 -1.65 Q52.8 17.25 37.3 31.65 L36.8 31.25 Q31.7 28.3 25.85 26.8 27.0 11.65 12.35 5.15 L10.45 4.25 M25.6 28.25 L27.45 28.8 Q34.15 30.95 36.25 32.75 28.9 40.3 20.9 47.1 15.2 51.95 8.4 54.2 14.65 49.15 18.9 43.1 24.2 35.55 25.6 28.25 M119.0 -35.2 L121.6 -26.5 120.3 -26.05 119.0 -35.2 M-9.65 59.8 Q-5.3 67.3 4.1 66.25 17.85 65.5 29.1 57.35 L26.9 62.45 Q8.7 70.25 -10.45 75.35 L-10.8 73.0 Q-11.45 66.25 -9.65 59.8" fill="#ededed" fill-rule="evenodd" stroke="none"/>
    <path d="M43.35 -80.45 L46.85 -79.25 43.8 -77.95 43.35 -80.45 M89.4 -57.35 Q102.65 -47.25 104.25 -37.7 107.1 -20.6 109.7 7.2 L112.05 33.5 Q89.45 58.1 76.6 89.15 72.3 99.5 68.15 109.9 64.0 120.3 60.1 130.8 46.25 132.15 32.65 130.2 26.55 129.4 20.7 127.95 17.8 94.65 28.55 63.2 54.55 49.2 79.55 34.15 84.55 31.1 88.1 26.45 90.3 23.55 91.6 20.2 102.8 5.4 93.9 -11.3 89.25 -20.0 80.85 -24.95 92.35 -39.2 89.4 -57.35 M201.9 118.7 Q193.65 129.55 184.25 139.35 131.35 167.25 117.65 174.25 109.1 178.6 95.85 189.7 95.1 211.1 94.6 216.05 88.6 210.05 85.6 202.3 L85.4 201.5 Q98.75 177.0 115.45 154.55 130.75 142.2 146.45 133.6 L160.0 129.55 Q163.7 128.3 166.75 126.05 173.1 121.2 174.65 113.7 167.7 117.15 160.15 118.85 150.9 121.15 141.3 120.3 110.35 117.1 82.0 103.75 L89.1 85.8 Q94.45 72.25 105.7 56.45 120.9 60.55 134.6 68.85 170.5 90.8 201.9 118.7 M68.85 227.7 L60.4 232.2 Q70.9 192.25 70.4 150.85 70.2 136.0 74.9 122.0 90.7 128.1 93.75 144.75 96.7 160.9 96.25 177.25 89.3 188.6 83.25 200.25 82.7 201.3 83.05 202.45 78.75 210.75 68.85 227.7 M-63.2 4.05 Q-73.5 18.75 -85.0 32.4 L-87.2 35.1 -99.7 34.5 Q-121.0 34.5 -130.85 39.2 -135.35 41.35 -139.65 45.3 L-141.9 43.65 -143.1 44.75 -141.4 46.95 -143.7 49.35 Q-145.1 66.1 -152.0 122.25 L-158.2 127.9 Q-167.85 102.45 -168.55 75.2 L-168.7 71.35 Q-160.65 40.0 -146.4 21.9 -121.9 16.4 -63.2 4.05 M-180.4 144.75 L-181.05 144.6 Q-168.65 136.2 -163.2 122.15 -161.95 125.6 -159.7 128.5 L-159.4 128.9 Q-164.85 133.45 -172.5 139.05 L-180.4 144.75 M-29.3 0.75 L-16.95 2.0 Q-10.55 10.1 -9.85 20.05 -9.45 26.3 -9.6 32.45 -41.75 59.75 -64.25 95.5 -76.05 88.7 -87.25 80.7 -82.05 64.55 -75.4 48.85 L-73.6 46.85 Q-52.3 23.0 -29.3 0.75 M-156.7 161.8 Q-150.1 146.0 -142.4 131.5 -124.95 98.8 -108.5 84.55 -101.75 78.7 -94.8 71.3 -106.3 91.8 -122.0 109.65 -128.7 117.3 -134.25 125.75 -149.65 149.0 -158.15 175.55 L-156.7 161.8" fill="#0098cc" fill-rule="evenodd" stroke="none"/>
    <path d="M62.1 239.25 Q83.55 234.9 93.45 219.0 89.9 231.8 78.95 239.7 L76.1 239.7 62.1 239.25 M46.85 -79.25 L43.35 -80.45 Q40.3 -88.05 32.1 -88.95 L30.1 -89.0 33.65 -91.05 Q72.3 -90.2 101.55 -64.8 107.05 -59.95 110.15 -53.25 115.15 -42.6 116.7 -30.8 120.45 -2.05 118.55 26.95 L112.05 33.5 109.7 7.2 Q107.1 -20.6 104.25 -37.7 102.65 -47.25 89.4 -57.35 86.7 -70.1 75.75 -77.0 62.15 -85.55 46.85 -79.25 M82.0 103.75 Q110.35 117.1 141.3 120.3 150.9 121.15 160.15 118.85 167.7 117.15 174.65 113.7 173.1 121.2 166.75 126.05 163.7 128.3 160.0 129.55 L159.4 129.3 Q126.35 137.65 93.9 126.25 L93.25 127.85 Q102.35 132.4 112.3 133.9 L111.45 155.0 96.25 177.25 Q96.7 160.9 93.75 144.75 90.7 128.1 74.9 122.0 L82.0 103.75 M94.6 216.05 Q95.1 211.1 95.85 189.7 109.1 178.6 117.65 174.25 131.35 167.25 184.25 139.35 147.5 178.75 99.2 202.1 L100.0 203.75 105.85 202.1 105.8 205.1 Q106.0 218.35 113.1 229.65 L110.9 228.75 Q101.5 224.1 94.6 216.05 M91.6 20.2 Q90.3 23.55 88.1 26.45 84.55 31.1 79.55 34.15 54.55 49.2 28.55 63.2 L31.5 56.0 Q53.45 45.15 71.35 28.55 78.45 28.25 84.8 25.5 88.8 23.75 91.6 20.2 M68.85 227.7 Q78.75 210.75 83.05 202.45 84.9 207.8 87.7 212.8 L88.25 213.65 Q80.2 222.85 68.85 227.7 M-87.2 35.1 L-106.35 59.45 Q-114.8 58.75 -122.7 55.8 -132.2 52.2 -139.65 45.3 -135.35 41.35 -130.85 39.2 -121.0 34.5 -99.7 34.5 L-87.2 35.1 M-141.4 46.95 Q-137.55 51.2 -132.55 54.1 -138.5 95.9 -153.6 135.2 L-156.15 136.85 Q-167.25 144.75 -180.4 144.75 L-172.5 139.05 Q-164.85 133.45 -159.4 128.9 -158.4 130.8 -156.65 131.3 L-158.2 127.9 -152.0 122.25 Q-145.1 66.1 -143.7 49.35 L-141.4 46.95" fill="#0086ba" fill-rule="evenodd" stroke="none"/>
    <path d="M-69.6 -39.85 Q-39.0 -15.65 -0.3 -9.9 12.2 -8.05 24.85 -7.25 41.2 -6.7 57.35 -7.95 L59.7 -8.15 Q66.4 -6.6 69.25 -0.25 61.45 -5.8 52.1 -7.2 L56.35 -3.55 Q32.25 3.65 7.2 2.15 L-5.65 1.0 Q-30.2 -0.45 -52.05 -11.35 -69.75 -20.25 -69.6 -39.85 M48.85 23.15 Q64.4 19.35 69.0 17.6 77.35 14.35 82.15 8.45 86.9 2.55 91.3 -9.85 98.2 3.25 89.95 14.85 82.6 25.2 70.6 28.3 65.05 29.75 60.25 33.55 42.2 47.75 21.9 58.25 10.05 64.25 -3.05 61.4 -7.4 60.4 -7.2 55.65 L-6.35 36.2 Q-5.8 23.4 -9.3 11.2 -10.7 6.45 -13.85 2.4 L-8.7 3.0 Q-1.45 17.7 -3.8 34.45 -5.05 43.4 -4.05 52.2 -3.7 55.0 -1.0 56.25 3.35 58.35 8.05 56.85 20.7 52.95 30.1 43.35 L41.15 32.15 Q45.25 27.9 48.85 23.15" fill="#f99008" fill-rule="evenodd" stroke="none"/>
    <path d="M69.25 -0.25 Q66.4 -6.6 59.7 -8.15 L57.35 -7.95 Q41.2 -6.7 24.85 -7.25 12.2 -8.05 -0.3 -9.9 -39.0 -15.65 -69.6 -39.85 -67.4 -50.35 -56.95 -53.7 L-56.15 -53.95 Q-47.5 -48.55 -38.0 -45.05 3.4 -29.8 47.4 -33.8 52.95 -29.45 57.85 -24.15 58.55 -23.4 59.3 -23.9 61.3 -25.15 59.3 -26.8 71.05 -28.45 81.0 -21.55 87.8 -16.85 91.2 -10.05 L91.3 -9.85 Q86.9 2.55 82.15 8.45 77.35 14.35 69.0 17.6 64.4 19.35 48.85 23.15 58.5 12.85 63.5 -0.45 68.25 2.95 73.6 5.7 L73.5 5.1 Q72.55 1.65 69.25 -0.25" fill="#ffb309" fill-rule="evenodd" stroke="none"/>
    <path d="M201.9 118.7 Q170.5 90.8 134.6 68.85 120.9 60.55 105.7 56.45 L118.65 39.7 Q154.35 65.55 185.55 96.9 195.1 106.5 202.8 117.5 L201.9 118.7 M146.45 133.6 Q130.75 142.2 115.45 154.55 122.85 144.9 131.05 135.85 137.55 135.75 146.45 133.6 M-168.7 71.35 Q-168.95 42.6 -159.2 15.65 L-157.45 10.85 Q-108.7 -1.65 -59.8 -12.85 L-53.7 -8.9 -63.2 4.05 Q-121.9 16.4 -146.4 21.9 -160.65 40.0 -168.7 71.35 M-75.4 48.85 Q-63.55 20.45 -46.4 -5.4 L-43.85 -4.25 Q-36.8 -0.9 -29.3 0.75 -52.3 23.0 -73.6 46.85 L-75.4 48.85 M-94.8 71.3 Q-101.75 78.7 -108.5 84.55 -124.95 98.8 -142.4 131.5 -150.1 146.0 -156.7 161.8 -150.95 121.35 -125.1 89.5 -121.15 84.7 -117.55 79.65 -97.55 51.9 -75.65 25.55 -86.7 47.8 -94.8 71.3" fill="#12aade" fill-rule="evenodd" stroke="none"/>
    <path d="M37.0 133.5 Q49.65 134.85 61.9 133.2 L62.15 132.6 Q65.9 135.05 68.45 137.85 67.05 167.75 63.05 197.1 62.3 202.4 61.15 207.65 57.95 222.5 58.4 237.3 L58.95 237.5 59.6 237.35 60.4 235.45 Q77.15 228.1 90.3 215.6 L91.65 216.85 Q87.15 223.0 80.8 227.1 70.6 233.7 59.65 238.5 L59.95 239.35 60.35 239.6 61.2 239.4 60.6 239.7 -25.15 239.7 Q4.3 222.8 21.35 193.05 27.95 181.5 33.05 169.35 40.25 152.05 37.0 133.5 M108.45 41.25 L118.15 31.1 117.85 36.55 109.95 45.5 Q109.0 43.75 108.45 41.25" fill="#d20000" fill-rule="evenodd" stroke="none"/>
    <path d="M-157.5 239.7 Q-161.95 222.65 -160.55 205.1 -158.4 178.6 -146.6 154.65 -141.95 145.2 -136.2 136.4 -118.45 109.1 -98.9 83.15 -93.75 76.4 -91.15 68.55 -77.35 27.35 -51.2 -7.55 L-49.0 -6.5 Q-75.8 34.7 -90.15 81.65 -68.5 97.5 -44.55 109.25 -5.65 128.2 37.0 133.5 40.25 152.05 33.05 169.35 27.95 181.5 21.35 193.05 4.3 222.8 -25.15 239.7 L-157.5 239.7 M62.15 132.6 Q74.25 99.0 90.5 67.25 94.65 59.1 100.05 51.75 104.0 46.45 108.45 41.25 109.0 43.75 109.95 45.5 84.35 79.8 72.4 121.15 70.05 129.35 68.45 137.85 65.9 135.05 62.15 132.6 M8.4 202.75 L10.3 202.6 Q12.7 197.15 11.5 191.15 10.8 187.55 9.4 184.3 1.5 166.3 -9.1 149.75 L-11.6 145.9 Q-18.4 135.3 -31.3 138.2 -38.45 139.65 -43.3 145.25 L-42.45 149.35 Q-87.45 164.6 -122.0 197.15 L-121.4 198.45 Q-112.65 203.2 -102.25 202.4 L-91.65 202.95 Q-41.65 204.95 8.4 202.75" fill="#e40000" fill-rule="evenodd" stroke="none"/>
    <path d="M8.4 202.75 L5.3 202.75 -74.35 201.35 -90.35 200.9 Q-105.5 202.05 -119.65 198.0 -85.65 197.15 -52.35 190.8 L-51.95 191.35 Q-34.6 195.6 -18.0 189.3 L-17.85 188.7 Q-4.8 183.0 8.0 189.1 L9.05 191.4 Q12.15 197.35 8.4 202.75" fill="#ffdfa4" fill-rule="evenodd" stroke="none"/>
    <path d="M47.4 -33.8 Q3.4 -29.8 -38.0 -45.05 -47.5 -48.55 -56.15 -53.95 -45.85 -56.5 -35.35 -57.3 9.85 -59.55 47.4 -33.8" fill="#ffdc30" fill-rule="evenodd" stroke="none"/>
    <path d="M-95.85 188.0 L-95.85 186.45 -79.85 186.95 -81.45 191.35 -95.85 188.0 M-45.1 166.4 Q-49.0 173.8 -47.0 181.55 -46.6 183.25 -45.65 184.75 L-49.4 185.45 Q-52.95 178.2 -50.4 169.95 L-49.65 166.75 -45.1 166.4" fill="#00ed00" fill-rule="evenodd" stroke="none"/>
    <path d="M-90.65 173.9 Q-79.8 181.8 -70.2 173.5 -66.35 170.15 -68.1 165.2 L-69.4 162.15 -41.35 150.45 -38.3 153.15 Q-40.1 160.5 -36.15 167.05 -34.2 169.65 -31.5 171.7 L-29.7 172.9 Q-29.5 182.35 -22.0 187.75 L-20.3 188.7 Q-34.0 193.55 -48.4 190.3 L-44.15 189.65 -44.05 188.85 -51.85 189.2 Q-54.45 180.05 -64.55 181.85 -74.85 183.8 -72.8 193.3 -84.0 194.3 -95.25 193.3 L-95.1 192.2 Q-107.1 196.95 -119.65 196.45 -106.95 183.0 -90.65 173.9 M-97.1 189.3 Q-89.0 191.9 -80.65 192.65 L-78.05 186.05 -78.35 185.65 -80.65 185.1 -97.3 185.5 -97.1 189.3 M-43.3 164.9 L-50.8 165.5 Q-51.4 169.55 -52.3 173.55 -53.95 181.15 -49.9 186.95 L-43.65 185.75 -43.7 184.25 -44.35 184.0 Q-48.2 174.55 -43.0 165.35 L-43.3 164.9" fill="#ffffcc" fill-rule="evenodd" stroke="none"/>
    <path d="M-9.1 149.75 L-8.4 151.25 Q-6.25 156.45 -3.7 161.5 2.5 173.95 7.25 187.05 -6.05 181.4 -19.3 187.55 -27.7 183.5 -28.15 173.9 L-25.8 175.1 -25.2 174.5 Q-33.6 170.15 -36.75 161.75 -37.35 160.2 -37.2 158.55 -36.65 151.8 -35.2 145.35 L-36.25 145.1 -37.95 151.45 -40.65 149.1 -41.95 146.4 Q-34.1 135.4 -20.7 139.85 -15.15 141.65 -11.6 145.9 L-9.1 149.75" fill="#c58500" fill-rule="evenodd" stroke="none"/>
    <path d="M-71.15 187.2 Q-65.65 181.3 -57.8 183.65 -53.65 185.0 -53.35 189.4 L-71.25 193.1 Q-72.2 191.0 -71.85 188.7 -71.75 187.8 -71.15 187.2 M-73.85 174.5 Q-81.85 178.65 -89.5 172.8 L-70.85 162.85 Q-66.15 170.4 -73.85 174.5" fill="#e43f04" fill-rule="evenodd" stroke="none"/>
  </g>
</svg>
