<?xml version="1.0" encoding="UTF-8" standalone="no"?>
<svg xmlns:xlink="http://www.w3.org/1999/xlink" height="37.85px" width="32.0px" xmlns="http://www.w3.org/2000/svg">
  <g transform="matrix(1.0, 0.0, 0.0, 1.0, 16.0, 18.9)">
    <path d="M4.5 -5.3 L5.9 -3.75 Q9.55 -0.3 15.25 0.2 6.45 0.5 2.9 8.3 1.45 11.65 1.25 15.45 1.2 17.0 1.4 18.2 -1.65 8.5 -4.55 5.6 -8.15 0.05 -15.25 -0.55 -6.3 -0.95 -2.8 -8.65 -1.35 -12.0 -1.15 -15.8 -1.1 -17.1 -1.2 -18.15 1.8 -8.85 4.5 -5.3" fill="#ffffff" fill-rule="evenodd" stroke="none"/>
    <path d="M4.5 -5.3 Q1.8 -8.85 -1.2 -18.15 -1.1 -17.1 -1.15 -15.8 -1.35 -12.0 -2.8 -8.65 -6.3 -0.95 -15.25 -0.55 -8.15 0.05 -4.55 5.6 -1.65 8.5 1.4 18.2 1.2 17.0 1.25 15.45 1.45 11.65 2.9 8.3 6.45 0.5 15.25 0.2 9.55 -0.3 5.9 -3.75 L4.5 -5.3 Z" fill="none" stroke="#000000" stroke-linecap="round" stroke-linejoin="round" stroke-width="1.5"/>
  </g>
</svg>
