<?xml version="1.0" encoding="UTF-8" standalone="no"?>
<svg xmlns:xlink="http://www.w3.org/1999/xlink" height="30.0px" width="60.0px" xmlns="http://www.w3.org/2000/svg">
  <g transform="matrix(1.0, 0.0, 0.0, 1.0, 30.0, 15.0)">
    <path d="M21.15 -10.6 Q30.0 -6.2 30.0 0.0 30.0 6.2 21.15 10.6 12.4 15.0 0.0 15.0 -12.4 15.0 -21.25 10.6 -30.0 6.2 -30.0 0.0 -30.0 -6.2 -21.25 -10.6 -12.4 -15.0 0.0 -15.0 12.4 -15.0 21.15 -10.6 M16.05 6.0 Q17.35 5.65 17.65 4.85 L17.75 3.0 Q17.75 1.05 13.0 -1.5 6.9 -4.75 -2.0 -4.75 -12.05 -4.75 -14.8 -2.0 -15.75 -1.0 -15.75 2.1 -17.1 3.45 -15.7 4.6 -12.95 6.75 1.0 6.75 L16.05 6.0" fill="#ffb0d8" fill-rule="evenodd" stroke="none"/>
    <path d="M16.05 6.0 L1.0 6.75 Q-12.95 6.75 -15.7 4.6 -17.1 3.45 -15.75 2.1 -15.75 -1.0 -14.8 -2.0 -12.05 -4.75 -2.0 -4.75 6.9 -4.75 13.0 -1.5 17.75 1.05 17.75 3.0 L17.65 4.85 Q17.35 5.65 16.05 6.0" fill="#fff0f8" fill-rule="evenodd" stroke="none"/>
  </g>
</svg>
