<?xml version="1.0" encoding="UTF-8" standalone="no"?>
<svg xmlns:xlink="http://www.w3.org/1999/xlink" height="35.8px" width="44.75px" xmlns="http://www.w3.org/2000/svg">
  <g transform="matrix(1.0, 0.0, 0.0, 1.0, 22.4, 17.9)">
    <path d="M13.4 -13.5 L13.4 -13.45 10.7 -13.25 Q10.7 -12.3 8.85 -11.35 7.45 -10.65 7.45 -9.4 L7.65 -8.35 Q7.65 -7.25 5.7 -6.8 L-0.5 -5.8 1.9 -4.65 Q3.1 -4.1 3.1 -3.65 3.1 -2.9 0.15 -2.3 L-3.9 -1.25 Q-3.9 -0.5 -2.3 0.45 -0.7 1.35 -0.7 1.65 -0.7 2.4 -6.75 3.15 -12.85 3.9 -12.85 4.6 -12.85 5.15 -11.4 5.7 L-8.8 7.3 Q-8.8 8.1 -12.95 8.9 -17.15 9.7 -17.15 10.35 -17.15 11.3 -15.0 12.45 L-11.0 14.3 Q-9.8 14.95 -9.8 15.2 -9.8 15.7 -15.9 16.25 L-18.0 16.45 -19.5 16.35 -18.45 14.75 Q-19.9 12.7 -19.65 10.2 -19.55 9.4 -18.05 8.45 -17.0 7.7 -17.1 6.7 L-18.3 4.6 Q-17.2 3.5 -13.4 2.6 L-9.5 2.25 Q-7.4 2.3 -6.5 0.5 -6.2 0.0 -6.35 -0.55 -6.55 -1.25 -6.9 -1.8 L-5.6 -2.35 Q-4.4 -2.9 -3.9 -3.95 L-3.6 -4.7 -5.6 -7.3 -5.05 -7.7 0.1 -8.1 Q0.85 -8.05 2.35 -8.65 L3.85 -9.55 Q4.2 -10.55 3.45 -11.8 L7.7 -14.15 7.5 -16.1 12.25 -16.2 19.85 -16.95 15.75 -15.3 13.8 -14.1 13.4 -13.5" fill="#66cc00" fill-rule="evenodd" stroke="none"/>
    <path d="M-18.0 16.45 L-15.9 16.25 Q-9.8 15.7 -9.8 15.2 -9.8 14.95 -11.0 14.3 L-15.0 12.45 Q-17.15 11.3 -17.15 10.35 -17.15 9.7 -12.95 8.9 -8.8 8.1 -8.8 7.3 L-11.4 5.7 Q-12.85 5.15 -12.85 4.6 -12.85 3.9 -6.75 3.15 -0.7 2.4 -0.7 1.65 -0.7 1.35 -2.3 0.45 -3.9 -0.5 -3.9 -1.25 L0.15 -2.3 Q3.1 -2.9 3.1 -3.65 3.1 -4.1 1.9 -4.65 L-0.5 -5.8 5.7 -6.8 Q7.65 -7.25 7.65 -8.35 L7.45 -9.4 Q7.45 -10.65 8.85 -11.35 10.7 -12.3 10.7 -13.25 L13.4 -13.45 13.4 -13.5 Q13.4 -13.0 14.9 -12.05 16.4 -11.1 16.4 -10.6 L13.55 -9.25 Q10.65 -8.0 10.65 -7.05 L10.95 -6.2 Q10.95 -5.2 9.45 -4.95 7.95 -4.75 7.95 -3.7 7.95 -2.85 8.9 -2.05 8.9 -1.75 6.5 -1.45 4.1 -1.2 4.1 -0.35 4.1 0.2 4.8 1.4 L4.4 3.1 1.95 3.5 Q-0.6 3.7 -1.25 5.65 -1.15 7.65 -3.55 8.4 -6.0 9.15 -6.0 10.3 -6.0 12.75 -1.35 14.8 -3.75 15.65 -4.75 16.35 L-12.1 16.65 -18.0 16.45" fill="#52a001" fill-rule="evenodd" stroke="none"/>
    <path d="M13.4 -13.5 L13.8 -14.1 15.75 -15.3 19.85 -16.95 12.25 -16.2 7.5 -16.1 7.7 -14.15 3.45 -11.8 Q4.2 -10.55 3.85 -9.55 L2.35 -8.65 Q0.85 -8.05 0.1 -8.1 L-5.05 -7.7 -5.6 -7.3 -3.6 -4.7 -3.9 -3.95 Q-4.4 -2.9 -5.6 -2.35 L-6.9 -1.8 Q-6.55 -1.25 -6.35 -0.55 -6.2 0.0 -6.5 0.5 -7.4 2.3 -9.5 2.25 L-13.4 2.6 Q-17.2 3.5 -18.3 4.6 L-17.1 6.7 Q-17.0 7.7 -18.05 8.45 -19.55 9.4 -19.65 10.2 -19.9 12.7 -18.45 14.75 L-19.5 16.35 -18.0 16.45 -12.1 16.65 -4.75 16.35 Q-3.75 15.65 -1.35 14.8 -6.0 12.75 -6.0 10.3 -6.0 9.15 -3.55 8.4 -1.15 7.65 -1.25 5.65 -0.6 3.7 1.95 3.5 L4.4 3.1 4.8 1.4 Q4.1 0.2 4.1 -0.35 4.1 -1.2 6.5 -1.45 8.9 -1.75 8.9 -2.05 7.95 -2.85 7.95 -3.7 7.95 -4.75 9.45 -4.95 10.95 -5.2 10.95 -6.2 L10.65 -7.05 Q10.65 -8.0 13.55 -9.25 L16.4 -10.6 Q16.4 -11.1 14.9 -12.05 13.4 -13.0 13.4 -13.5 M18.75 -16.0 Q15.15 -15.05 15.15 -13.9 15.15 -13.7 16.65 -12.55 18.15 -11.45 18.15 -10.7 18.15 -9.75 15.25 -8.8 12.35 -7.85 12.35 -6.2 12.35 -4.6 9.3 -3.7 10.35 -2.7 10.35 -2.1 10.35 -0.8 5.55 -0.3 6.3 0.6 6.3 1.4 6.3 4.1 3.3 4.5 L1.25 4.7 Q0.8 4.8 0.6 5.5 0.45 6.2 0.6 6.6 0.6 7.9 -1.8 8.95 -4.2 9.95 -4.2 10.3 -4.2 11.95 -1.8 13.0 0.6 14.05 0.6 14.7 0.6 15.9 -2.7 16.85 -6.4 17.9 -12.0 17.9 -22.35 17.9 -22.35 16.8 -22.35 16.5 -21.3 15.85 -20.25 15.15 -20.25 14.75 -22.4 12.6 -22.4 10.1 -22.4 8.95 -20.6 8.05 L-18.8 6.9 Q-19.95 5.7 -19.95 5.2 -19.95 1.6 -13.8 1.45 L-9.55 1.2 Q-7.65 0.85 -7.65 -0.55 -8.3 -1.25 -8.3 -2.0 -8.3 -2.55 -6.7 -3.1 -5.15 -3.65 -5.15 -4.2 -5.15 -4.6 -6.3 -5.55 -7.5 -6.6 -7.5 -7.25 -7.5 -9.3 -3.0 -9.25 L0.6 -8.95 Q2.4 -9.0 2.7 -10.05 L1.95 -11.8 Q1.95 -12.75 4.15 -13.45 6.3 -14.15 6.3 -14.7 L5.85 -15.9 Q5.85 -17.25 8.75 -17.25 L12.3 -16.75 Q16.5 -16.75 21.9 -17.9 22.35 -17.95 22.35 -17.6 22.35 -16.95 18.75 -16.0" fill="#000000" fill-rule="evenodd" stroke="none"/>
  </g>
</svg>
