<?xml version="1.0" encoding="UTF-8" standalone="no"?>
<svg xmlns:xlink="http://www.w3.org/1999/xlink" height="34.45px" width="59.95px" xmlns="http://www.w3.org/2000/svg">
  <g transform="matrix(1.0, 0.0, 0.0, 1.0, 30.1, 16.8)">
    <path d="M14.7 -2.3 L11.9 -4.25 Q6.8 -7.3 -0.6 -7.7 L-2.05 -7.7 Q-7.5 -7.75 -11.15 -6.25 -14.7 -5.05 -16.25 -3.05 -17.35 -1.6 -17.45 1.85 -18.7 3.45 -17.45 4.9 -16.1 7.0 -11.45 8.35 -7.45 10.05 -0.8 10.35 L0.4 10.35 Q6.45 10.45 10.6 9.35 15.35 8.6 17.05 7.45 18.3 6.95 18.65 5.95 L18.9 3.2 Q18.65 0.55 14.7 -2.3 M21.6 -11.25 Q30.2 -6.15 29.85 0.95 29.5 8.0 20.55 12.9 11.65 17.9 -0.8 17.65 -13.35 17.4 -21.95 12.15 -30.35 7.05 -30.1 -0.05 -29.85 -7.1 -21.15 -12.0 -12.3 -17.0 0.1 -16.8 13.05 -16.5 21.6 -11.25" fill="#ffb0d8" fill-rule="evenodd" stroke="none"/>
    <path d="M14.7 -2.3 Q18.65 0.55 18.9 3.2 L18.65 5.95 Q18.3 6.95 17.05 7.45 15.35 8.6 10.6 9.35 6.45 10.45 0.4 10.35 L-0.8 10.35 Q-7.45 10.05 -11.45 8.35 -16.1 7.0 -17.45 4.9 -18.7 3.45 -17.45 1.85 -17.35 -1.6 -16.25 -3.05 -14.7 -5.05 -11.15 -6.25 -7.5 -7.75 -2.05 -7.7 L-0.6 -7.7 Q6.8 -7.3 11.9 -4.25 L14.7 -2.3" fill="#ffe9f4" fill-rule="evenodd" stroke="none"/>
  </g>
</svg>
