<?xml version="1.0" encoding="UTF-8" standalone="no"?>
<svg xmlns:xlink="http://www.w3.org/1999/xlink" height="39.0px" width="60.0px" xmlns="http://www.w3.org/2000/svg">
  <g transform="matrix(1.0, 0.0, 0.0, 1.0, 30.25, 18.65)">
    <path d="M16.45 -3.15 L13.55 -5.8 Q8.2 -9.95 -0.45 -10.65 L-2.1 -10.7 Q-8.15 -10.75 -12.35 -8.35 -16.0 -6.7 -17.7 -4.15 -18.9 -2.2 -19.1 1.55 -20.3 3.45 -19.2 5.2 -18.05 8.2 -13.45 10.4 -9.15 13.4 -1.6 13.9 L-0.2 13.95 Q6.45 14.1 11.3 12.1 16.1 10.8 18.05 8.95 19.25 8.2 19.7 7.1 L20.1 3.85 Q20.15 0.35 16.45 -3.15 M22.05 -11.9 Q30.35 -6.1 29.7 1.9 29.0 9.8 20.0 15.2 10.9 20.75 -1.6 20.3 -14.35 19.85 -22.6 13.7 -30.7 7.9 -30.2 -0.1 -29.7 -8.0 -21.1 -13.4 -12.2 -19.0 0.2 -18.6 13.65 -18.05 22.05 -11.9" fill="#ffb0d8" fill-rule="evenodd" stroke="none"/>
    <path d="M16.45 -3.15 Q20.15 0.35 20.1 3.85 L19.7 7.1 Q19.25 8.2 18.05 8.95 16.1 10.8 11.3 12.1 6.45 14.1 -0.2 13.95 L-1.6 13.9 Q-9.15 13.4 -13.45 10.4 -18.05 8.2 -19.2 5.2 -20.3 3.45 -19.1 1.55 -18.9 -2.2 -17.7 -4.15 -16.0 -6.7 -12.35 -8.35 -8.15 -10.75 -2.1 -10.7 L-0.45 -10.65 Q8.2 -9.95 13.55 -5.8 L16.45 -3.15" fill="#ffe2f1" fill-rule="evenodd" stroke="none"/>
  </g>
</svg>
