<?xml version="1.0" encoding="UTF-8" standalone="no"?>
<svg xmlns:xlink="http://www.w3.org/1999/xlink" height="43.5px" width="60.0px" xmlns="http://www.w3.org/2000/svg">
  <g transform="matrix(1.0, 0.0, 0.0, 1.0, 30.35, 20.45)">
    <path d="M18.15 -3.95 L15.25 -7.3 Q9.65 -12.65 -0.25 -13.55 L-2.15 -13.65 Q-8.8 -13.75 -13.5 -10.5 -17.3 -8.35 -19.15 -5.2 -20.5 -2.85 -20.8 1.3 -21.9 3.5 -20.95 5.45 -19.95 9.45 -15.45 12.4 -10.85 16.7 -2.35 17.5 L-0.8 17.6 Q6.5 17.8 11.95 14.85 16.9 12.95 19.05 10.4 20.25 9.5 20.7 8.2 L21.35 4.55 Q21.65 0.2 18.15 -3.95 M22.55 -12.55 Q30.55 -6.05 29.55 2.85 28.55 11.6 19.4 17.5 10.1 23.65 -2.35 23.0 -15.3 22.25 -23.3 15.3 -31.0 8.75 -30.3 -0.1 -29.6 -8.9 -21.0 -14.8 -12.05 -21.0 0.25 -20.4 14.3 -19.55 22.55 -12.55" fill="#ffb0d8" fill-rule="evenodd" stroke="none"/>
    <path d="M18.15 -3.95 Q21.65 0.2 21.35 4.55 L20.7 8.2 Q20.25 9.5 19.05 10.4 16.9 12.95 11.95 14.85 6.5 17.8 -0.8 17.6 L-2.35 17.5 Q-10.85 16.7 -15.45 12.4 -19.95 9.45 -20.95 5.45 -21.9 3.5 -20.8 1.3 -20.5 -2.85 -19.15 -5.2 -17.3 -8.35 -13.5 -10.5 -8.8 -13.75 -2.15 -13.65 L-0.25 -13.55 Q9.65 -12.65 15.25 -7.3 L18.15 -3.95" fill="#ffdbed" fill-rule="evenodd" stroke="none"/>
  </g>
</svg>
