<?xml version="1.0" encoding="UTF-8" standalone="no"?>
<svg xmlns:xlink="http://www.w3.org/1999/xlink" height="48.05px" width="60.1px" xmlns="http://www.w3.org/2000/svg">
  <g transform="matrix(1.0, 0.0, 0.0, 1.0, 30.5, 22.3)">
    <path d="M19.9 -4.75 Q18.65 -6.95 16.9 -8.85 11.05 -15.3 -0.1 -16.5 L-2.2 -16.65 Q-9.45 -16.75 -14.65 -12.6 -18.6 -10.0 -20.6 -6.3 -22.05 -3.45 -22.5 1.0 -23.5 3.5 -22.7 5.75 -21.9 10.7 -17.45 14.45 -12.55 20.05 -3.15 21.05 L-1.4 21.2 Q6.5 21.5 12.6 17.6 17.7 15.15 20.05 11.85 21.2 10.75 21.7 9.35 L22.55 5.2 Q23.15 0.0 19.9 -4.75 M23.0 -13.2 Q30.75 -6.0 29.4 3.8 28.05 13.4 18.85 19.8 9.35 26.5 -3.15 25.65 -16.25 24.65 -24.0 16.85 -31.35 9.6 -30.4 -0.15 -29.45 -9.8 -20.9 -16.2 -11.95 -23.0 0.35 -22.2 14.95 -21.1 23.0 -13.2" fill="#ffb0d8" fill-rule="evenodd" stroke="none"/>
    <path d="M19.9 -4.75 Q23.15 0.0 22.55 5.2 L21.7 9.35 Q21.2 10.75 20.05 11.85 17.7 15.15 12.6 17.6 6.5 21.5 -1.4 21.2 L-3.15 21.05 Q-12.55 20.05 -17.45 14.45 -21.9 10.7 -22.7 5.75 -23.5 3.5 -22.5 1.0 -22.05 -3.45 -20.6 -6.3 -18.6 -10.0 -14.65 -12.6 -9.45 -16.75 -2.2 -16.65 L-0.1 -16.5 Q11.05 -15.3 16.9 -8.85 18.65 -6.95 19.9 -4.75" fill="#ffd4ea" fill-rule="evenodd" stroke="none"/>
  </g>
</svg>
