<?xml version="1.0" encoding="UTF-8" standalone="no"?>
<svg xmlns:xlink="http://www.w3.org/1999/xlink" height="52.55px" width="60.15px" xmlns="http://www.w3.org/2000/svg">
  <g transform="matrix(1.0, 0.0, 0.0, 1.0, 30.65, 24.1)">
    <path d="M18.6 -10.35 Q12.45 -18.0 0.1 -19.45 L-2.25 -19.6 Q-10.05 -19.7 -15.85 -14.75 -19.9 -11.65 -22.0 -7.35 -23.65 -4.05 -24.15 0.75 -25.1 3.5 -24.5 6.05 -23.8 11.9 -19.4 16.5 -14.3 23.4 -3.95 24.65 L-2.05 24.8 Q6.55 25.15 13.3 20.3 18.45 17.35 21.0 13.35 22.15 12.05 22.75 10.45 23.25 9.0 23.75 5.9 24.65 -0.2 21.6 -5.6 20.45 -8.1 18.6 -10.35 M23.45 -13.85 Q30.9 -5.95 29.2 4.8 27.55 15.2 18.25 22.1 8.6 29.4 -3.95 28.3 -17.25 27.1 -24.65 18.4 -31.7 10.5 -30.5 -0.2 -29.3 -10.75 -20.85 -17.65 -11.85 -25.0 0.45 -24.0 15.55 -22.6 23.45 -13.85" fill="#ffb0d8" fill-rule="evenodd" stroke="none"/>
    <path d="M18.6 -10.35 Q20.45 -8.1 21.6 -5.6 24.65 -0.2 23.75 5.9 23.25 9.0 22.75 10.45 22.15 12.05 21.0 13.35 18.45 17.35 13.3 20.3 6.55 25.15 -2.05 24.8 L-3.95 24.65 Q-14.3 23.4 -19.4 16.5 -23.8 11.9 -24.5 6.05 -25.1 3.5 -24.15 0.75 -23.65 -4.05 -22.0 -7.35 -19.9 -11.65 -15.85 -14.75 -10.05 -19.7 -2.25 -19.6 L0.1 -19.45 Q12.45 -18.0 18.6 -10.35" fill="#ffcce6" fill-rule="evenodd" stroke="none"/>
  </g>
</svg>
