<?xml version="1.0" encoding="UTF-8" standalone="no"?>
<svg xmlns:xlink="http://www.w3.org/1999/xlink" height="57.1px" width="60.35px" xmlns="http://www.w3.org/2000/svg">
  <g transform="matrix(1.0, 0.0, 0.0, 1.0, 30.85, 25.95)">
    <path d="M20.25 -11.9 Q13.85 -20.65 0.25 -22.4 L-2.3 -22.6 Q-10.7 -22.7 -17.0 -16.85 -21.2 -13.3 -23.45 -8.45 -25.2 -4.65 -25.85 0.45 -26.7 3.5 -26.25 6.35 -25.75 13.15 -21.4 18.55 -16.0 26.75 -4.75 28.2 L-2.65 28.4 Q6.55 28.85 13.95 23.05 19.25 19.55 22.0 14.8 L23.75 11.6 Q24.35 9.9 24.95 6.55 26.15 -0.4 23.35 -6.4 22.2 -9.3 20.25 -11.9 M23.9 -14.5 Q31.1 -5.9 29.05 5.75 27.05 17.0 17.7 24.4 7.85 32.25 -4.75 30.95 -18.2 29.5 -25.35 19.95 -32.05 11.35 -30.6 -0.25 -29.15 -11.65 -20.75 -19.05 -11.75 -27.0 0.55 -25.8 16.2 -24.15 23.9 -14.5" fill="#ffb0d8" fill-rule="evenodd" stroke="none"/>
    <path d="M20.25 -11.9 Q22.2 -9.3 23.35 -6.4 26.15 -0.4 24.95 6.55 24.35 9.9 23.75 11.6 L22.0 14.8 Q19.25 19.55 13.95 23.05 6.55 28.85 -2.65 28.4 L-4.75 28.2 Q-16.0 26.75 -21.4 18.55 -25.75 13.15 -26.25 6.35 -26.7 3.5 -25.85 0.45 -25.2 -4.65 -23.45 -8.45 -21.2 -13.3 -17.0 -16.85 -10.7 -22.7 -2.3 -22.6 L0.25 -22.4 Q13.85 -20.65 20.25 -11.9" fill="#ffc5e3" fill-rule="evenodd" stroke="none"/>
  </g>
</svg>
