<?xml version="1.0" encoding="UTF-8" standalone="no"?>
<svg xmlns:xlink="http://www.w3.org/1999/xlink" height="61.7px" width="60.55px" xmlns="http://www.w3.org/2000/svg">
  <g transform="matrix(1.0, 0.0, 0.0, 1.0, 31.05, 27.8)">
    <path d="M21.95 -13.4 Q15.3 -23.35 0.45 -25.3 L-2.35 -25.55 Q-11.35 -25.7 -18.15 -19.0 -22.5 -14.95 -24.9 -9.5 -26.8 -5.3 -27.55 0.2 -28.3 3.55 -28.0 6.6 -27.65 14.4 -23.4 20.55 -17.7 30.05 -5.5 31.8 L-3.25 32.05 Q6.6 32.55 14.6 25.8 20.05 21.7 23.0 16.25 24.1 14.6 24.75 12.7 L26.2 7.25 Q27.65 -0.55 25.05 -7.2 23.95 -10.5 21.95 -13.4 M24.4 -15.15 Q31.3 -5.85 28.9 6.7 26.6 18.8 17.1 26.7 7.05 35.15 -5.5 33.65 -19.15 31.9 -26.05 21.55 -32.35 12.2 -30.7 -0.25 -29.05 -12.55 -20.65 -20.45 -11.6 -29.0 0.6 -27.6 16.85 -25.65 24.4 -15.15" fill="#ffb0d8" fill-rule="evenodd" stroke="none"/>
    <path d="M21.95 -13.4 Q23.95 -10.5 25.05 -7.2 27.65 -0.55 26.2 7.25 L24.75 12.7 Q24.1 14.6 23.0 16.25 20.05 21.7 14.6 25.8 6.6 32.55 -3.25 32.05 L-5.5 31.8 Q-17.7 30.05 -23.4 20.55 -27.65 14.4 -28.0 6.6 -28.3 3.55 -27.55 0.2 -26.8 -5.3 -24.9 -9.5 -22.5 -14.95 -18.15 -19.0 -11.35 -25.7 -2.35 -25.55 L0.45 -25.3 Q15.3 -23.35 21.95 -13.4" fill="#ffbedf" fill-rule="evenodd" stroke="none"/>
  </g>
</svg>
