<?xml version="1.0" encoding="UTF-8" standalone="no"?>
<svg xmlns:xlink="http://www.w3.org/1999/xlink" height="66.2px" width="60.8px" xmlns="http://www.w3.org/2000/svg">
  <g transform="matrix(1.0, 0.0, 0.0, 1.0, 31.25, 29.65)">
    <path d="M23.6 -14.95 Q16.7 -26.0 0.6 -28.25 L-2.4 -28.55 Q-12.0 -28.7 -19.35 -21.1 -23.8 -16.6 -26.35 -10.6 -28.35 -5.9 -29.2 -0.1 -29.9 3.55 -29.75 6.9 -29.6 15.6 -25.4 22.6 -19.4 33.4 -6.3 35.35 L-3.85 35.65 Q6.6 36.2 15.3 28.55 20.8 23.9 24.0 17.75 L25.8 13.85 27.4 7.9 Q29.15 -0.75 26.8 -8.05 25.7 -11.65 23.6 -14.95 M24.85 -15.8 Q31.45 -5.8 28.75 7.65 26.1 20.6 16.55 29.0 6.3 38.0 -6.3 36.3 -20.15 34.35 -26.7 23.1 -32.7 13.05 -30.8 -0.3 -28.9 -13.45 -20.6 -21.85 -11.5 -31.0 0.7 -29.4 17.45 -27.2 24.85 -15.8" fill="#ffb0d8" fill-rule="evenodd" stroke="none"/>
    <path d="M23.6 -14.95 Q25.7 -11.65 26.8 -8.05 29.15 -0.75 27.4 7.9 L25.8 13.85 24.0 17.75 Q20.8 23.9 15.3 28.55 6.6 36.2 -3.85 35.65 L-6.3 35.35 Q-19.4 33.4 -25.4 22.6 -29.6 15.6 -29.75 6.9 -29.9 3.55 -29.2 -0.1 -28.35 -5.9 -26.35 -10.6 -23.8 -16.6 -19.35 -21.1 -12.0 -28.7 -2.4 -28.55 L0.6 -28.25 Q16.7 -26.0 23.6 -14.95" fill="#ffb7dc" fill-rule="evenodd" stroke="none"/>
  </g>
</svg>
