<?xml version="1.0" encoding="UTF-8" standalone="no"?>
<svg xmlns:xlink="http://www.w3.org/1999/xlink" height="11.8px" width="51.2px" xmlns="http://www.w3.org/2000/svg">
  <g transform="matrix(1.0, 0.0, 0.0, 1.0, 25.6, 5.45)">
    <path d="M3.3 -1.0 L6.85 -0.9 Q8.5 -1.4 9.65 -2.9 11.2 -4.85 12.45 -5.25 L16.6 -5.15 Q18.45 -4.8 25.6 -0.45 L20.6 -1.0 Q18.75 -0.8 17.95 -0.3 L14.9 2.2 12.4 4.5 Q11.45 5.4 9.9 5.6 L3.55 4.6 -5.3 5.1 Q-7.1 5.05 -8.55 3.95 -11.8 4.4 -14.3 6.35 -18.1 3.55 -22.6 1.65 L-25.6 1.25 Q-23.3 -1.95 -19.1 -1.95 L-13.4 -1.95 -11.8 -2.2 Q-11.1 -4.05 -9.5 -4.95 -4.35 -5.2 0.1 -2.6 L3.3 -1.0 M-18.65 2.2 L-14.2 5.15 Q-12.4 2.85 -9.7 2.85 L-5.15 3.5 2.25 3.2 9.55 4.45 Q11.0 4.85 12.05 3.8 L14.4 0.75 Q16.3 -2.05 19.5 -3.0 L17.8 -4.2 Q15.45 -5.05 13.45 -4.75 11.4 -4.5 10.15 -2.9 8.85 -1.35 7.5 -0.6 6.5 -0.05 5.4 0.2 3.25 0.25 1.45 -0.7 -0.4 -1.75 -2.4 -2.35 L-9.1 -3.4 Q-10.65 -2.9 -11.15 -1.45 L-13.85 -1.2 -17.0 -1.4 Q-20.45 -1.4 -23.55 0.2 L-18.65 2.2" fill="#000000" fill-rule="evenodd" stroke="none"/>
    <path d="M17.8 -4.2 Q13.5 -4.55 11.15 -1.6 8.7 1.45 6.95 1.45 1.9 1.45 -0.35 0.1 -2.6 -1.3 -4.75 -1.3 -7.9 -1.3 -8.7 -0.15 -9.55 1.0 -9.95 1.0 L-12.6 0.2 Q-17.3 0.2 -18.6 2.05 L-18.65 2.2 -23.55 0.2 Q-20.45 -1.4 -17.0 -1.4 L-13.85 -1.2 -11.15 -1.45 Q-10.65 -2.9 -9.1 -3.4 L-2.4 -2.35 Q-0.4 -1.75 1.45 -0.7 3.25 0.25 5.4 0.2 6.5 -0.05 7.5 -0.6 8.85 -1.35 10.15 -2.9 11.4 -4.5 13.45 -4.75 15.45 -5.05 17.8 -4.2" fill="#66cc00" fill-rule="evenodd" stroke="none"/>
    <path d="M17.8 -4.2 L19.5 -3.0 Q16.3 -2.05 14.4 0.75 L12.05 3.8 Q11.0 4.85 9.55 4.45 L2.25 3.2 -5.15 3.5 -9.7 2.85 Q-12.4 2.85 -14.2 5.15 L-18.65 2.2 -18.6 2.05 Q-17.3 0.2 -12.6 0.2 L-9.95 1.0 Q-9.55 1.0 -8.7 -0.15 -7.9 -1.3 -4.75 -1.3 -2.6 -1.3 -0.35 0.1 1.9 1.45 6.95 1.45 8.7 1.45 11.15 -1.6 13.5 -4.55 17.8 -4.2" fill="#52a001" fill-rule="evenodd" stroke="none"/>
  </g>
</svg>
