<?xml version="1.0" encoding="UTF-8" standalone="no"?>
<svg xmlns:xlink="http://www.w3.org/1999/xlink" height="61.75px" width="50.75px" xmlns="http://www.w3.org/2000/svg">
  <g transform="matrix(1.0, 0.0, 0.0, 1.0, 25.35, 30.9)">
    <path d="M22.5 -1.75 Q29.7 -0.5 18.9 18.85 8.05 38.15 0.0 26.4 -8.1 14.65 -19.5 6.5 -30.95 -1.65 -19.95 -4.1 -8.95 -6.6 -8.3 -20.25 -7.65 -33.95 0.7 -30.0 9.05 -26.05 12.15 -14.55 15.25 -3.05 22.5 -1.75 M11.1 -2.95 Q7.55 -12.0 0.8 -12.0 -3.05 -12.0 -9.45 2.5 -9.45 5.85 -6.5 10.2 -2.1 16.75 6.05 16.75 11.3 16.75 12.8 12.45 13.3 10.9 13.3 6.75 13.3 2.75 11.1 -2.95" fill="#ff4d00" fill-rule="evenodd" stroke="none"/>
    <path d="M11.1 -2.95 Q13.3 2.75 13.3 6.75 13.3 10.9 12.8 12.45 11.3 16.75 6.05 16.75 -2.1 16.75 -6.5 10.2 -9.45 5.85 -9.45 2.5 -3.05 -12.0 0.8 -12.0 7.55 -12.0 11.1 -2.95" fill="#ff7900" fill-rule="evenodd" stroke="none"/>
  </g>
</svg>
