<?xml version="1.0" encoding="UTF-8" standalone="no"?>
<svg xmlns:xlink="http://www.w3.org/1999/xlink" height="63.6px" width="52.1px" xmlns="http://www.w3.org/2000/svg">
  <g transform="matrix(1.0, 0.0, 0.0, 1.0, 26.65, 31.0)">
    <path d="M15.05 -14.95 Q18.9 -3.65 23.85 0.55 28.8 4.6 18.25 21.6 7.5 38.75 -1.6 29.2 -11.0 19.55 -21.25 10.55 -31.4 1.8 -22.4 -3.25 -13.35 -8.3 -11.0 -20.9 -8.5 -33.75 0.7 -30.25 11.05 -26.65 15.05 -14.95 M13.45 -7.8 Q9.2 -15.65 0.75 -16.25 -3.85 -16.65 -8.5 -9.95 -11.9 -5.35 -14.2 1.85 -14.6 7.1 -11.55 12.55 L-10.25 14.6 Q-6.25 20.4 0.95 21.55 L4.75 21.7 Q10.05 21.45 13.05 17.6 L14.05 16.05 Q15.6 13.6 16.2 8.75 L16.5 4.95 Q16.6 0.3 14.9 -4.55 L13.45 -7.8" fill="#ff4d00" fill-rule="evenodd" stroke="none"/>
    <path d="M13.45 -7.8 L14.9 -4.55 Q16.6 0.3 16.5 4.95 L16.2 8.75 Q15.6 13.6 14.05 16.05 L13.05 17.6 Q10.05 21.45 4.75 21.7 L0.95 21.55 Q-6.25 20.4 -10.25 14.6 L-11.55 12.55 Q-14.6 7.1 -14.2 1.85 -11.9 -5.35 -8.5 -9.95 -3.85 -16.65 0.75 -16.25 9.2 -15.65 13.45 -7.8" fill="#ff6f00" fill-rule="evenodd" stroke="none"/>
  </g>
</svg>
