<?xml version="1.0" encoding="UTF-8" standalone="no"?>
<svg xmlns:xlink="http://www.w3.org/1999/xlink" height="68.6px" width="57.35px" xmlns="http://www.w3.org/2000/svg">
  <g transform="matrix(1.0, 0.0, 0.0, 1.0, 30.0, 31.35)">
    <path d="M22.4 -16.05 Q28.0 -5.15 27.25 6.3 26.5 17.3 16.6 28.55 6.1 40.3 -5.5 36.15 -18.2 31.85 -25.65 20.6 -32.6 10.45 -28.45 -1.2 -24.35 -12.65 -17.8 -22.6 -10.55 -33.2 0.8 -30.95 16.1 -28.1 22.4 -16.05 M21.9 -13.95 Q15.55 -25.0 0.65 -26.95 -9.3 -28.25 -17.1 -19.45 -23.95 -11.8 -26.15 0.3 -27.55 10.2 -24.1 18.5 L-22.5 21.75 Q-16.85 32.05 -4.8 33.95 L1.6 34.15 Q9.1 33.3 15.1 27.4 L17.25 25.15 Q21.3 20.45 23.55 13.8 24.6 10.85 25.15 7.55 26.75 -1.1 24.35 -8.45 23.45 -11.35 21.9 -13.95" fill="#ff4d00" fill-rule="evenodd" stroke="none"/>
    <path d="M21.9 -13.95 Q23.45 -11.35 24.35 -8.45 26.75 -1.1 25.15 7.55 24.6 10.85 23.55 13.8 21.3 20.45 17.25 25.15 L15.1 27.4 Q9.1 33.3 1.6 34.15 L-4.8 33.95 Q-16.85 32.05 -22.5 21.75 L-24.1 18.5 Q-27.55 10.2 -26.15 0.3 -23.95 -11.8 -17.1 -19.45 -9.3 -28.25 0.65 -26.95 15.55 -25.0 21.9 -13.95" fill="#ff5700" fill-rule="evenodd" stroke="none"/>
  </g>
</svg>
