<?xml version="1.0" encoding="UTF-8" standalone="no"?>
<svg xmlns:xlink="http://www.w3.org/1999/xlink" height="69.65px" width="59.1px" xmlns="http://www.w3.org/2000/svg">
  <g transform="matrix(1.0, 0.0, 0.0, 1.0, 30.7, 31.4)">
    <path d="M23.85 -16.25 Q29.85 -5.45 27.9 7.45 26.05 19.85 16.3 29.9 5.85 40.6 -6.3 37.55 -19.65 34.3 -26.5 22.65 -32.8 12.15 -29.7 -0.75 -26.55 -13.5 -19.15 -22.9 -11.0 -33.1 0.8 -31.05 17.1 -28.4 23.85 -16.25 M23.6 -15.2 Q16.85 -26.85 0.6 -29.05 -10.4 -30.6 -18.8 -21.35 -26.35 -13.05 -28.5 -0.05 -30.1 10.85 -26.65 19.65 L-24.95 23.2 Q-19.0 34.4 -5.95 36.45 -2.4 37.0 0.95 36.6 8.9 35.65 15.55 29.35 L17.85 26.95 Q22.45 21.8 25.0 14.8 26.2 11.6 26.85 8.1 28.75 -1.35 26.25 -9.25 25.25 -12.4 23.6 -15.2" fill="#ff4d00" fill-rule="evenodd" stroke="none"/>
    <path d="M23.6 -15.2 Q25.25 -12.4 26.25 -9.25 28.75 -1.35 26.85 8.1 26.2 11.6 25.0 14.8 22.45 21.8 17.85 26.95 L15.55 29.35 Q8.9 35.65 0.95 36.6 -2.4 37.0 -5.95 36.45 -19.0 34.4 -24.95 23.2 L-26.65 19.65 Q-30.1 10.85 -28.5 -0.05 -26.35 -13.05 -18.8 -21.35 -10.4 -30.6 0.6 -29.05 16.85 -26.85 23.6 -15.2" fill="#ff5200" fill-rule="evenodd" stroke="none"/>
  </g>
</svg>
