<?xml version="1.0" encoding="UTF-8" standalone="no"?>
<svg xmlns:xlink="http://www.w3.org/1999/xlink" height="25.9px" width="31.05px" xmlns="http://www.w3.org/2000/svg">
  <g transform="matrix(1.0, 0.0, 0.0, 1.0, 19.55, 9.6)">
    <path d="M7.3 4.4 Q6.4 3.95 5.85 3.15 5.05 2.1 5.1 1.05 5.05 -0.8 5.55 -2.05 5.55 -3.0 3.95 -3.5 L2.0 -4.2 1.65 -5.35 Q1.2 -6.15 -0.65 -6.1 -4.45 -6.15 -5.25 -4.2 -5.45 -1.9 -5.7 -1.2 -6.45 0.55 -9.5 1.5 L-12.85 2.45 Q-13.7 2.9 -13.9 3.9 L-14.0 6.8 -14.7 9.7 Q-15.05 13.0 -16.95 14.25 L-18.1 13.8 Q-15.65 11.65 -16.2 8.25 L-16.5 6.05 Q-16.65 4.7 -16.4 3.45 -16.15 2.4 -15.3 1.8 -14.2 0.9 -12.85 0.3 L-10.3 -0.6 Q-7.95 -1.2 -7.45 -3.5 L-6.2 -6.85 Q-5.4 -8.45 -3.6 -8.7 -0.75 -9.0 2.0 -7.9 4.9 -6.6 8.1 -6.3 5.8 -6.1 5.8 -5.75 5.8 -5.2 6.3 -5.0 6.85 -3.95 7.55 -2.95 8.65 -1.25 8.5 0.75 8.35 2.65 7.3 4.4" fill="#66cc00" fill-rule="evenodd" stroke="none"/>
    <path d="M5.65 -7.35 L9.5 -6.5 11.5 -4.8 8.3 -4.95 7.0 -4.85 8.75 -2.15 9.3 0.55 Q9.3 2.25 8.6 3.4 7.85 4.5 7.85 5.2 7.85 5.65 9.25 7.0 9.25 7.35 8.75 7.35 5.85 7.35 4.65 5.1 3.85 3.65 3.95 2.3 4.0 -0.95 3.1 -2.05 2.3 -2.9 0.4 -2.9 -2.25 -2.9 -3.1 -2.2 L-3.6 -1.05 Q-3.7 0.6 -3.95 1.25 -4.6 3.05 -6.35 3.15 L-9.1 3.25 Q-11.45 3.5 -11.45 4.5 -10.95 6.25 -10.95 8.1 L-11.75 12.3 Q-12.4 16.3 -12.65 16.3 -13.7 16.3 -19.55 13.8 L-18.1 12.65 -17.5 11.45 -16.95 9.1 Q-16.95 8.05 -17.65 4.6 -17.65 1.2 -13.95 -0.15 L-11.05 -1.05 Q-9.45 -1.55 -8.95 -2.05 -8.25 -2.7 -7.85 -3.95 L-7.3 -6.0 Q-5.8 -9.6 -1.9 -9.6 0.95 -9.6 5.65 -7.35 M-16.95 14.25 L-13.25 15.3 -11.85 7.9 Q-11.85 6.45 -12.3 5.2 -12.3 3.7 -11.65 3.25 -10.6 2.45 -6.9 2.45 -5.35 2.45 -4.85 1.5 L-4.45 -0.6 Q-4.1 -3.7 0.4 -3.65 3.6 -3.7 4.5 -1.35 L4.7 1.15 4.9 3.75 Q5.25 5.35 7.3 6.15 L7.3 4.4 Q8.35 2.65 8.5 0.75 8.65 -1.25 7.55 -2.95 6.85 -3.95 6.3 -5.0 6.45 -5.8 9.35 -5.55 L9.75 -5.55 8.1 -6.3 Q4.9 -6.6 2.0 -7.9 -0.75 -9.0 -3.6 -8.7 -5.4 -8.45 -6.2 -6.85 L-7.45 -3.5 Q-7.95 -1.2 -10.3 -0.6 L-12.85 0.3 Q-14.2 0.9 -15.3 1.8 -16.15 2.4 -16.4 3.45 -16.65 4.7 -16.5 6.05 L-16.2 8.25 Q-15.65 11.65 -18.1 13.8 L-16.95 14.25" fill="#000000" fill-rule="evenodd" stroke="none"/>
    <path d="M-16.95 14.25 Q-15.05 13.0 -14.7 9.7 L-14.0 6.8 -13.9 3.9 Q-13.7 2.9 -12.85 2.45 L-9.5 1.5 Q-6.45 0.55 -5.7 -1.2 -5.45 -1.9 -5.25 -4.2 -4.45 -6.15 -0.65 -6.1 1.2 -6.15 1.65 -5.35 L2.0 -4.2 3.95 -3.5 Q5.55 -3.0 5.55 -2.05 5.05 -0.8 5.1 1.05 5.05 2.1 5.85 3.15 6.4 3.95 7.3 4.4 L7.3 6.15 Q5.25 5.35 4.9 3.75 L4.7 1.15 4.5 -1.35 Q3.6 -3.7 0.4 -3.65 -4.1 -3.7 -4.45 -0.6 L-4.85 1.5 Q-5.35 2.45 -6.9 2.45 -10.6 2.45 -11.65 3.25 -12.3 3.7 -12.3 5.2 -11.85 6.45 -11.85 7.9 L-13.25 15.3 -16.95 14.25 M6.3 -5.0 Q5.8 -5.2 5.8 -5.75 5.8 -6.1 8.1 -6.3 L9.75 -5.55 9.35 -5.55 Q6.45 -5.8 6.3 -5.0" fill="#52a001" fill-rule="evenodd" stroke="none"/>
  </g>
</svg>
