<?xml version="1.0" encoding="UTF-8" standalone="no"?>
<svg xmlns:xlink="http://www.w3.org/1999/xlink" height="38.05px" width="58.45px" xmlns="http://www.w3.org/2000/svg">
  <g transform="matrix(1.0, 0.0, 0.0, 1.0, 29.25, 19.0)">
    <path d="M18.9 -19.0 Q25.35 -18.75 28.65 1.35 31.95 21.4 14.85 17.45 -2.3 13.5 -13.0 17.9 -23.7 22.25 -27.6 10.35 -31.55 -1.55 -26.1 -11.65 -20.7 -21.75 -11.0 -15.3 -1.35 -8.85 5.55 -14.05 12.45 -19.3 18.9 -19.0 M19.55 -4.8 Q17.1 -8.95 11.25 -8.95 6.7 -8.95 4.25 -5.8 1.75 -2.7 -1.1 -2.7 -1.45 -2.7 -7.6 -5.05 -13.8 -7.45 -15.1 -7.45 -18.65 -7.45 -20.55 -4.2 -21.85 -1.95 -21.85 0.25 -17.55 10.55 -10.95 10.55 -8.85 10.55 -4.2 7.7 0.45 4.8 3.4 4.8 3.9 4.8 6.45 6.55 9.0 8.3 12.65 8.3 17.55 8.3 19.65 4.55 20.9 2.35 20.9 -0.2 20.9 -2.5 19.55 -4.8" fill="#ff4d00" fill-rule="evenodd" stroke="none"/>
    <path d="M19.55 -4.8 Q20.9 -2.5 20.9 -0.2 20.9 2.35 19.65 4.55 17.55 8.3 12.65 8.3 9.0 8.3 6.45 6.55 3.9 4.8 3.4 4.8 0.45 4.8 -4.2 7.7 -8.85 10.55 -10.95 10.55 -17.55 10.55 -21.85 0.25 -21.85 -1.95 -20.55 -4.2 -18.65 -7.45 -15.1 -7.45 -13.8 -7.45 -7.6 -5.05 -1.45 -2.7 -1.1 -2.7 1.75 -2.7 4.25 -5.8 6.7 -8.95 11.25 -8.95 17.1 -8.95 19.55 -4.8" fill="#ff7900" fill-rule="evenodd" stroke="none"/>
  </g>
</svg>
