<?xml version="1.0" encoding="UTF-8" standalone="no"?>
<svg xmlns:xlink="http://www.w3.org/1999/xlink" height="40.0px" width="57.15px" xmlns="http://www.w3.org/2000/svg">
  <g transform="matrix(1.0, 0.0, 0.0, 1.0, 28.95, 19.45)">
    <path d="M20.1 -17.85 Q26.25 -16.25 28.05 3.9 29.85 23.95 12.4 19.85 -5.05 15.75 -14.85 17.75 -24.6 19.7 -27.8 7.7 -31.05 -4.3 -25.2 -13.75 -19.35 -23.2 -9.7 -17.05 -0.1 -10.95 6.95 -15.2 14.0 -19.5 20.1 -17.85 M4.65 -6.6 Q2.45 -5.3 0.15 -5.45 L-4.7 -7.25 -7.15 -8.1 Q-13.45 -10.35 -15.4 -10.0 -19.2 -9.7 -21.25 -6.15 -22.6 -3.75 -22.7 -1.25 -19.2 9.2 -13.0 11.25 -11.0 12.15 -6.3 10.25 -1.6 8.2 1.9 8.5 2.35 8.55 3.4 9.15 4.25 9.55 5.45 10.25 8.5 11.9 12.35 11.6 17.45 11.3 19.85 7.1 L20.75 5.1 Q21.3 3.55 21.45 1.9 21.65 -0.7 20.6 -3.2 18.9 -7.85 13.25 -9.0 8.9 -10.0 6.15 -7.65 L4.65 -6.6" fill="#ff4d00" fill-rule="evenodd" stroke="none"/>
    <path d="M4.65 -6.6 L6.15 -7.65 Q8.9 -10.0 13.25 -9.0 18.9 -7.85 20.6 -3.2 21.65 -0.7 21.45 1.9 21.3 3.55 20.75 5.1 L19.85 7.1 Q17.45 11.3 12.35 11.6 8.5 11.9 5.45 10.25 4.25 9.55 3.4 9.15 2.35 8.55 1.9 8.5 -1.6 8.2 -6.3 10.25 -11.0 12.15 -13.0 11.25 -19.2 9.2 -22.7 -1.25 -22.6 -3.75 -21.25 -6.15 -19.2 -9.7 -15.4 -10.0 -13.45 -10.35 -7.15 -8.1 L-4.7 -7.25 0.15 -5.45 Q2.45 -5.3 4.65 -6.6" fill="#ff7400" fill-rule="evenodd" stroke="none"/>
  </g>
</svg>
