<?xml version="1.0" encoding="UTF-8" standalone="no"?>
<svg xmlns:xlink="http://www.w3.org/1999/xlink" height="44.15px" width="56.2px" xmlns="http://www.w3.org/2000/svg">
  <g transform="matrix(1.0, 0.0, 0.0, 1.0, 28.75, 21.15)">
    <path d="M21.3 -16.65 Q27.1 -13.7 27.45 6.4 27.75 26.45 9.95 22.25 -7.8 18.0 -16.65 17.6 -25.5 17.15 -28.0 5.05 -30.55 -7.05 -24.25 -15.85 -18.0 -24.65 -8.4 -18.85 1.2 -13.05 8.35 -16.35 15.5 -19.65 21.3 -16.65 M6.35 -8.8 Q3.95 -7.85 1.4 -8.2 L-4.0 -10.25 -6.75 -11.15 Q-13.1 -13.3 -15.7 -12.55 -19.8 -11.95 -21.95 -8.1 -23.35 -5.55 -23.55 -2.8 -20.8 7.95 -15.05 11.9 -13.15 13.75 -8.4 12.75 -3.7 11.6 0.4 12.2 L2.1 12.85 4.45 13.95 Q7.95 15.5 12.05 14.95 17.35 14.25 20.05 9.6 L21.05 7.5 Q21.7 5.8 21.95 4.0 22.45 1.15 21.65 -1.6 20.5 -6.95 15.3 -9.1 11.15 -11.1 8.05 -9.5 L6.35 -8.8" fill="#ff4d00" fill-rule="evenodd" stroke="none"/>
    <path d="M6.35 -8.8 L8.05 -9.5 Q11.15 -11.1 15.3 -9.1 20.5 -6.95 21.65 -1.6 22.45 1.15 21.95 4.0 21.7 5.8 21.05 7.5 L20.05 9.6 Q17.35 14.25 12.05 14.95 7.95 15.5 4.45 13.95 L2.1 12.85 0.4 12.2 Q-3.7 11.6 -8.4 12.75 -13.15 13.75 -15.05 11.9 -20.8 7.95 -23.55 -2.8 -23.35 -5.55 -21.95 -8.1 -19.8 -11.95 -15.7 -12.55 -13.1 -13.3 -6.75 -11.15 L-4.0 -10.25 1.4 -8.2 Q3.95 -7.85 6.35 -8.8" fill="#ff6f00" fill-rule="evenodd" stroke="none"/>
  </g>
</svg>
