<?xml version="1.0" encoding="UTF-8" standalone="no"?>
<svg xmlns:xlink="http://www.w3.org/1999/xlink" height="48.2px" width="55.65px" xmlns="http://www.w3.org/2000/svg">
  <g transform="matrix(1.0, 0.0, 0.0, 1.0, 28.65, 22.8)">
    <path d="M22.55 -15.5 Q28.0 -11.2 26.8 8.95 25.6 29.0 7.55 24.6 -10.6 20.25 -18.5 17.45 -26.45 14.6 -28.25 2.4 -30.1 -9.8 -23.35 -17.95 -16.6 -26.1 -7.05 -20.6 2.45 -15.1 9.75 -17.45 17.05 -19.85 22.55 -15.5 M8.0 -11.05 Q5.4 -10.45 2.6 -11.0 L-3.35 -13.25 -6.3 -14.2 Q-12.75 -16.2 -16.0 -15.15 -20.35 -14.25 -22.65 -10.0 -24.1 -7.35 -24.4 -4.3 -22.35 6.75 -17.15 12.6 -15.35 15.35 -10.45 15.3 L-1.05 15.9 0.75 16.6 3.45 17.65 Q7.45 19.1 11.7 18.25 17.2 17.25 20.2 12.15 L21.35 9.85 22.5 6.1 Q23.2 2.95 22.7 0.0 22.15 -6.1 17.3 -9.15 13.35 -12.15 9.95 -11.35 L8.0 -11.05" fill="#ff4d00" fill-rule="evenodd" stroke="none"/>
    <path d="M8.0 -11.05 L9.95 -11.35 Q13.35 -12.15 17.3 -9.15 22.15 -6.1 22.7 0.0 23.2 2.95 22.5 6.1 L21.35 9.85 20.2 12.15 Q17.2 17.25 11.7 18.25 7.45 19.1 3.45 17.65 L0.75 16.6 -1.05 15.9 -10.45 15.3 Q-15.35 15.35 -17.15 12.6 -22.35 6.75 -24.4 -4.3 -24.1 -7.35 -22.65 -10.0 -20.35 -14.25 -16.0 -15.15 -12.75 -16.2 -6.3 -14.2 L-3.35 -13.25 2.6 -11.0 Q5.4 -10.45 8.0 -11.05" fill="#ff6a00" fill-rule="evenodd" stroke="none"/>
  </g>
</svg>
