<?xml version="1.0" encoding="UTF-8" standalone="no"?>
<svg xmlns:xlink="http://www.w3.org/1999/xlink" height="52.35px" width="55.75px" xmlns="http://www.w3.org/2000/svg">
  <g transform="matrix(1.0, 0.0, 0.0, 1.0, 28.6, 24.5)">
    <path d="M23.75 -14.3 Q28.9 -8.65 26.2 11.45 23.5 31.55 5.1 27.0 -13.35 22.5 -20.35 17.3 -27.35 12.05 -28.45 -0.25 -29.6 -12.55 -22.4 -20.05 -15.25 -27.55 -5.75 -22.35 3.7 -17.2 11.15 -18.6 18.6 -20.0 23.75 -14.3 M9.7 -13.25 L3.85 -13.75 -2.65 -16.25 -5.85 -17.25 Q-12.4 -19.15 -16.3 -17.7 -20.9 -16.5 -23.35 -11.95 -24.85 -9.15 -25.25 -5.85 -23.95 5.5 -19.2 13.3 -17.5 16.95 -12.55 17.8 L-2.55 19.6 -0.55 20.3 2.45 21.35 Q6.9 22.7 11.4 21.55 17.1 20.25 20.4 14.65 L21.65 12.25 23.05 8.2 Q23.95 4.8 23.75 1.6 23.8 -5.2 19.35 -9.25 15.55 -13.2 11.85 -13.2 L9.7 -13.25" fill="#ff4d00" fill-rule="evenodd" stroke="none"/>
    <path d="M9.7 -13.25 L11.85 -13.2 Q15.55 -13.2 19.35 -9.25 23.8 -5.2 23.75 1.6 23.95 4.8 23.05 8.2 L21.65 12.25 20.4 14.65 Q17.1 20.25 11.4 21.55 6.9 22.7 2.45 21.35 L-0.55 20.3 -2.55 19.6 -12.55 17.8 Q-17.5 16.95 -19.2 13.3 -23.95 5.5 -25.25 -5.85 -24.85 -9.15 -23.35 -11.95 -20.9 -16.5 -16.3 -17.7 -12.4 -19.15 -5.85 -17.25 L-2.65 -16.25 3.85 -13.75 9.7 -13.25" fill="#ff6500" fill-rule="evenodd" stroke="none"/>
  </g>
</svg>
