<?xml version="1.0" encoding="UTF-8" standalone="no"?>
<svg xmlns:xlink="http://www.w3.org/1999/xlink" height="56.45px" width="56.2px" xmlns="http://www.w3.org/2000/svg">
  <g transform="matrix(1.0, 0.0, 0.0, 1.0, 28.7, 26.15)">
    <path d="M24.95 -13.15 Q29.75 -6.15 25.6 14.0 21.4 34.05 2.65 29.4 -16.1 24.7 -22.15 17.1 -28.25 9.5 -28.65 -2.85 -29.1 -15.25 -21.5 -22.1 -13.9 -29.0 -4.45 -24.15 5.0 -19.3 12.55 -19.75 20.1 -20.2 24.95 -13.15 M11.4 -15.45 Q8.35 -15.6 5.1 -16.5 L-1.95 -19.2 -5.45 -20.25 Q-12.1 -22.05 -16.6 -20.25 -21.5 -18.75 -24.05 -13.9 -25.65 -10.9 -26.1 -7.35 -25.55 4.25 -21.25 13.95 -19.65 18.55 -14.65 20.35 L-4.05 23.3 -1.85 24.05 1.4 25.0 Q6.4 26.25 11.1 24.9 17.0 23.2 20.6 17.2 L21.95 14.6 23.55 10.25 Q24.75 6.6 24.8 3.25 25.4 -4.35 21.35 -9.3 17.8 -14.3 13.75 -15.1 L11.4 -15.45" fill="#ff4d00" fill-rule="evenodd" stroke="none"/>
    <path d="M11.4 -15.45 L13.75 -15.1 Q17.8 -14.3 21.35 -9.3 25.4 -4.35 24.8 3.25 24.75 6.6 23.55 10.25 L21.95 14.6 20.6 17.2 Q17.0 23.2 11.1 24.9 6.4 26.25 1.4 25.0 L-1.85 24.05 -4.05 23.3 -14.65 20.35 Q-19.65 18.55 -21.25 13.95 -25.55 4.25 -26.1 -7.35 -25.65 -10.9 -24.05 -13.9 -21.5 -18.75 -16.6 -20.25 -12.1 -22.05 -5.45 -20.25 L-1.95 -19.2 5.1 -16.5 Q8.35 -15.6 11.4 -15.45" fill="#ff6100" fill-rule="evenodd" stroke="none"/>
  </g>
</svg>
