<?xml version="1.0" encoding="UTF-8" standalone="no"?>
<svg xmlns:xlink="http://www.w3.org/1999/xlink" height="60.55px" width="57.0px" xmlns="http://www.w3.org/2000/svg">
  <g transform="matrix(1.0, 0.0, 0.0, 1.0, 28.85, 27.8)">
    <path d="M26.15 -11.95 Q30.65 -3.6 25.0 16.5 19.3 36.6 0.2 31.8 -18.85 26.95 -24.0 16.95 -29.15 6.95 -28.85 -5.5 -28.6 -18.0 -20.55 -24.2 -12.55 -30.45 -3.15 -25.9 6.25 -21.4 13.95 -20.9 21.65 -20.35 26.15 -11.95 M13.1 -17.65 Q9.85 -18.15 6.35 -19.25 L-1.25 -22.2 -5.0 -23.3 Q-11.75 -25.0 -16.9 -22.8 -22.05 -21.0 -24.75 -15.85 -26.4 -12.7 -26.95 -8.9 -27.15 3.0 -23.3 14.65 -21.8 20.15 -16.75 22.85 -12.0 25.2 -5.55 27.0 -4.5 27.3 -3.15 27.75 L0.4 28.7 Q5.85 29.85 10.8 28.2 16.9 26.2 20.8 19.7 L22.25 17.0 24.1 12.35 Q25.5 8.45 25.85 4.85 27.05 -3.45 23.4 -9.4 20.0 -15.35 15.65 -16.95 L13.1 -17.65" fill="#ff4d00" fill-rule="evenodd" stroke="none"/>
    <path d="M13.1 -17.65 L15.65 -16.95 Q20.0 -15.35 23.4 -9.4 27.05 -3.45 25.85 4.85 25.5 8.45 24.1 12.35 L22.25 17.0 20.8 19.7 Q16.9 26.2 10.8 28.2 5.85 29.85 0.4 28.7 L-3.15 27.75 Q-4.5 27.3 -5.55 27.0 -12.0 25.2 -16.75 22.85 -21.8 20.15 -23.3 14.65 -27.15 3.0 -26.95 -8.9 -26.4 -12.7 -24.75 -15.85 -22.05 -21.0 -16.9 -22.8 -11.75 -25.0 -5.0 -23.3 L-1.25 -22.2 6.35 -19.25 Q9.85 -18.15 13.1 -17.65" fill="#ff5c00" fill-rule="evenodd" stroke="none"/>
  </g>
</svg>
