<?xml version="1.0" encoding="UTF-8" standalone="no"?>
<svg xmlns:xlink="http://www.w3.org/1999/xlink" height="64.65px" width="58.2px" xmlns="http://www.w3.org/2000/svg">
  <g transform="matrix(1.0, 0.0, 0.0, 1.0, 29.3, 29.5)">
    <path d="M27.4 -10.8 Q31.55 -1.1 24.35 19.05 17.15 39.15 -2.2 34.15 -21.65 29.2 -25.85 16.8 -30.1 4.4 -29.1 -8.15 -28.15 -20.75 -19.65 -26.3 -11.15 -31.9 -1.8 -27.65 7.5 -23.45 15.35 -22.0 23.2 -20.55 27.4 -10.8 M14.75 -19.9 Q11.3 -20.75 7.55 -22.05 L-0.6 -25.2 -4.55 -26.35 Q-11.4 -27.9 -17.2 -25.4 -22.6 -23.3 -25.45 -17.75 -27.15 -14.5 -27.8 -10.4 -28.7 1.8 -25.4 15.35 -24.0 21.75 -18.8 25.4 -14.05 28.6 -7.0 30.7 L-4.5 31.5 -0.6 32.4 Q5.35 33.45 10.45 31.5 16.75 29.2 20.95 22.25 L22.55 19.35 24.65 14.45 Q26.25 10.25 26.9 6.45 28.7 -2.6 25.4 -9.45 22.2 -16.4 17.55 -18.8 L14.75 -19.9" fill="#ff4d00" fill-rule="evenodd" stroke="none"/>
    <path d="M14.75 -19.9 L17.55 -18.8 Q22.2 -16.4 25.4 -9.45 28.7 -2.6 26.9 6.45 26.25 10.25 24.65 14.45 L22.55 19.35 20.95 22.25 Q16.75 29.2 10.45 31.5 5.35 33.45 -0.6 32.4 L-4.5 31.5 -7.0 30.7 Q-14.05 28.6 -18.8 25.4 -24.0 21.75 -25.4 15.35 -28.7 1.8 -27.8 -10.4 -27.15 -14.5 -25.45 -17.75 -22.6 -23.3 -17.2 -25.4 -11.4 -27.9 -4.55 -26.35 L-0.6 -25.2 7.55 -22.05 Q11.3 -20.75 14.75 -19.9" fill="#ff5700" fill-rule="evenodd" stroke="none"/>
  </g>
</svg>
