<?xml version="1.0" encoding="UTF-8" standalone="no"?>
<svg xmlns:xlink="http://www.w3.org/1999/xlink" height="67.45px" width="58.7px" xmlns="http://www.w3.org/2000/svg">
  <g transform="matrix(1.0, 0.0, 0.0, 1.0, 30.35, 30.25)">
    <path d="M23.8 -15.35 L24.6 -14.05 24.7 -13.9 24.7 -13.85 24.8 -13.75 25.8 -11.9 25.85 -11.8 Q28.9 -5.4 28.25 2.55 28.0 6.65 26.7 11.15 L24.9 16.55 23.45 19.7 23.4 19.85 23.25 20.1 20.85 24.0 20.8 24.1 20.15 25.2 Q11.35 40.05 -4.65 36.55 -21.35 33.0 -26.6 20.75 -31.55 9.15 -30.0 -4.25 -28.45 -17.55 -20.05 -24.75 -11.25 -32.45 -0.5 -29.4 7.95 -27.3 14.05 -23.75 L15.5 -23.1 Q20.4 -20.6 23.8 -15.35" fill="#ff5200" fill-rule="evenodd" stroke="none"/>
  </g>
</svg>
